G04 #@! TF.GenerationSoftware,KiCad,Pcbnew,5.1.5*
G04 #@! TF.CreationDate,2020-01-03T21:14:40-05:00*
G04 #@! TF.ProjectId,Poofer Control,506f6f66-6572-4204-936f-6e74726f6c2e,rev?*
G04 #@! TF.SameCoordinates,Original*
G04 #@! TF.FileFunction,Soldermask,Bot*
G04 #@! TF.FilePolarity,Negative*
%FSLAX46Y46*%
G04 Gerber Fmt 4.6, Leading zero omitted, Abs format (unit mm)*
G04 Created by KiCad (PCBNEW 5.1.5) date 2020-01-03 21:14:40*
%MOMM*%
%LPD*%
G04 APERTURE LIST*
%ADD10C,0.100000*%
G04 APERTURE END LIST*
D10*
G36*
X194423512Y-96893927D02*
G01*
X194572812Y-96923624D01*
X194736784Y-96991544D01*
X194884354Y-97090147D01*
X195009853Y-97215646D01*
X195108456Y-97363216D01*
X195176376Y-97527188D01*
X195211000Y-97701259D01*
X195211000Y-97878741D01*
X195176376Y-98052812D01*
X195108456Y-98216784D01*
X195009853Y-98364354D01*
X194884354Y-98489853D01*
X194736784Y-98588456D01*
X194572812Y-98656376D01*
X194423512Y-98686073D01*
X194398742Y-98691000D01*
X194221258Y-98691000D01*
X194196488Y-98686073D01*
X194047188Y-98656376D01*
X193883216Y-98588456D01*
X193735646Y-98489853D01*
X193610147Y-98364354D01*
X193511544Y-98216784D01*
X193443624Y-98052812D01*
X193409000Y-97878741D01*
X193409000Y-97701259D01*
X193443624Y-97527188D01*
X193511544Y-97363216D01*
X193610147Y-97215646D01*
X193735646Y-97090147D01*
X193883216Y-96991544D01*
X194047188Y-96923624D01*
X194196488Y-96893927D01*
X194221258Y-96889000D01*
X194398742Y-96889000D01*
X194423512Y-96893927D01*
G37*
G36*
X196963512Y-96893927D02*
G01*
X197112812Y-96923624D01*
X197276784Y-96991544D01*
X197424354Y-97090147D01*
X197549853Y-97215646D01*
X197648456Y-97363216D01*
X197716376Y-97527188D01*
X197751000Y-97701259D01*
X197751000Y-97878741D01*
X197716376Y-98052812D01*
X197648456Y-98216784D01*
X197549853Y-98364354D01*
X197424354Y-98489853D01*
X197276784Y-98588456D01*
X197112812Y-98656376D01*
X196963512Y-98686073D01*
X196938742Y-98691000D01*
X196761258Y-98691000D01*
X196736488Y-98686073D01*
X196587188Y-98656376D01*
X196423216Y-98588456D01*
X196275646Y-98489853D01*
X196150147Y-98364354D01*
X196051544Y-98216784D01*
X195983624Y-98052812D01*
X195949000Y-97878741D01*
X195949000Y-97701259D01*
X195983624Y-97527188D01*
X196051544Y-97363216D01*
X196150147Y-97215646D01*
X196275646Y-97090147D01*
X196423216Y-96991544D01*
X196587188Y-96923624D01*
X196736488Y-96893927D01*
X196761258Y-96889000D01*
X196938742Y-96889000D01*
X196963512Y-96893927D01*
G37*
G36*
X199503512Y-96893927D02*
G01*
X199652812Y-96923624D01*
X199816784Y-96991544D01*
X199964354Y-97090147D01*
X200089853Y-97215646D01*
X200188456Y-97363216D01*
X200256376Y-97527188D01*
X200291000Y-97701259D01*
X200291000Y-97878741D01*
X200256376Y-98052812D01*
X200188456Y-98216784D01*
X200089853Y-98364354D01*
X199964354Y-98489853D01*
X199816784Y-98588456D01*
X199652812Y-98656376D01*
X199503512Y-98686073D01*
X199478742Y-98691000D01*
X199301258Y-98691000D01*
X199276488Y-98686073D01*
X199127188Y-98656376D01*
X198963216Y-98588456D01*
X198815646Y-98489853D01*
X198690147Y-98364354D01*
X198591544Y-98216784D01*
X198523624Y-98052812D01*
X198489000Y-97878741D01*
X198489000Y-97701259D01*
X198523624Y-97527188D01*
X198591544Y-97363216D01*
X198690147Y-97215646D01*
X198815646Y-97090147D01*
X198963216Y-96991544D01*
X199127188Y-96923624D01*
X199276488Y-96893927D01*
X199301258Y-96889000D01*
X199478742Y-96889000D01*
X199503512Y-96893927D01*
G37*
G36*
X204583512Y-96893927D02*
G01*
X204732812Y-96923624D01*
X204896784Y-96991544D01*
X205044354Y-97090147D01*
X205169853Y-97215646D01*
X205268456Y-97363216D01*
X205336376Y-97527188D01*
X205371000Y-97701259D01*
X205371000Y-97878741D01*
X205336376Y-98052812D01*
X205268456Y-98216784D01*
X205169853Y-98364354D01*
X205044354Y-98489853D01*
X204896784Y-98588456D01*
X204732812Y-98656376D01*
X204583512Y-98686073D01*
X204558742Y-98691000D01*
X204381258Y-98691000D01*
X204356488Y-98686073D01*
X204207188Y-98656376D01*
X204043216Y-98588456D01*
X203895646Y-98489853D01*
X203770147Y-98364354D01*
X203671544Y-98216784D01*
X203603624Y-98052812D01*
X203569000Y-97878741D01*
X203569000Y-97701259D01*
X203603624Y-97527188D01*
X203671544Y-97363216D01*
X203770147Y-97215646D01*
X203895646Y-97090147D01*
X204043216Y-96991544D01*
X204207188Y-96923624D01*
X204356488Y-96893927D01*
X204381258Y-96889000D01*
X204558742Y-96889000D01*
X204583512Y-96893927D01*
G37*
G36*
X202043512Y-96893927D02*
G01*
X202192812Y-96923624D01*
X202356784Y-96991544D01*
X202504354Y-97090147D01*
X202629853Y-97215646D01*
X202728456Y-97363216D01*
X202796376Y-97527188D01*
X202831000Y-97701259D01*
X202831000Y-97878741D01*
X202796376Y-98052812D01*
X202728456Y-98216784D01*
X202629853Y-98364354D01*
X202504354Y-98489853D01*
X202356784Y-98588456D01*
X202192812Y-98656376D01*
X202043512Y-98686073D01*
X202018742Y-98691000D01*
X201841258Y-98691000D01*
X201816488Y-98686073D01*
X201667188Y-98656376D01*
X201503216Y-98588456D01*
X201355646Y-98489853D01*
X201230147Y-98364354D01*
X201131544Y-98216784D01*
X201063624Y-98052812D01*
X201029000Y-97878741D01*
X201029000Y-97701259D01*
X201063624Y-97527188D01*
X201131544Y-97363216D01*
X201230147Y-97215646D01*
X201355646Y-97090147D01*
X201503216Y-96991544D01*
X201667188Y-96923624D01*
X201816488Y-96893927D01*
X201841258Y-96889000D01*
X202018742Y-96889000D01*
X202043512Y-96893927D01*
G37*
G36*
X100454071Y-94504063D02*
G01*
X100650300Y-94563589D01*
X100831146Y-94660253D01*
X100872437Y-94694140D01*
X100989660Y-94790340D01*
X101119748Y-94948855D01*
X101140237Y-94987188D01*
X101216411Y-95129699D01*
X101275937Y-95325928D01*
X101291000Y-95478868D01*
X101291000Y-97561132D01*
X101275937Y-97714072D01*
X101225984Y-97878742D01*
X101216410Y-97910303D01*
X101119748Y-98091145D01*
X100989660Y-98249660D01*
X100831145Y-98379748D01*
X100650303Y-98476410D01*
X100650301Y-98476411D01*
X100454072Y-98535937D01*
X100250000Y-98556036D01*
X100045929Y-98535937D01*
X99849700Y-98476411D01*
X99849698Y-98476410D01*
X99668856Y-98379748D01*
X99510341Y-98249660D01*
X99380253Y-98091145D01*
X99283591Y-97910303D01*
X99274017Y-97878742D01*
X99224064Y-97714072D01*
X99209001Y-97561132D01*
X99209000Y-95478869D01*
X99224063Y-95325929D01*
X99283589Y-95129700D01*
X99292604Y-95112835D01*
X99380252Y-94948856D01*
X99380253Y-94948854D01*
X99414140Y-94907563D01*
X99510340Y-94790340D01*
X99668855Y-94660252D01*
X99849697Y-94563590D01*
X99849699Y-94563589D01*
X100045928Y-94504063D01*
X100250000Y-94483964D01*
X100454071Y-94504063D01*
G37*
G36*
X96291000Y-98551000D02*
G01*
X94209000Y-98551000D01*
X94209000Y-94489000D01*
X96291000Y-94489000D01*
X96291000Y-98551000D01*
G37*
G36*
X89206564Y-94239389D02*
G01*
X89397833Y-94318615D01*
X89397835Y-94318616D01*
X89569973Y-94433635D01*
X89716365Y-94580027D01*
X89780256Y-94675646D01*
X89831385Y-94752167D01*
X89910611Y-94943436D01*
X89951000Y-95146484D01*
X89951000Y-95353516D01*
X89910611Y-95556564D01*
X89865281Y-95666000D01*
X89831384Y-95747835D01*
X89716365Y-95919973D01*
X89569973Y-96066365D01*
X89397835Y-96181384D01*
X89397834Y-96181385D01*
X89397833Y-96181385D01*
X89206564Y-96260611D01*
X89003516Y-96301000D01*
X88796484Y-96301000D01*
X88593436Y-96260611D01*
X88402167Y-96181385D01*
X88402166Y-96181385D01*
X88402165Y-96181384D01*
X88230027Y-96066365D01*
X88083635Y-95919973D01*
X87968616Y-95747835D01*
X87934719Y-95666000D01*
X87889389Y-95556564D01*
X87849000Y-95353516D01*
X87849000Y-95146484D01*
X87889389Y-94943436D01*
X87968615Y-94752167D01*
X88019745Y-94675646D01*
X88083635Y-94580027D01*
X88230027Y-94433635D01*
X88402165Y-94318616D01*
X88402167Y-94318615D01*
X88593436Y-94239389D01*
X88796484Y-94199000D01*
X89003516Y-94199000D01*
X89206564Y-94239389D01*
G37*
G36*
X84871000Y-96301000D02*
G01*
X82769000Y-96301000D01*
X82769000Y-94199000D01*
X84871000Y-94199000D01*
X84871000Y-96301000D01*
G37*
G36*
X127302585Y-93093802D02*
G01*
X127452410Y-93123604D01*
X127734674Y-93240521D01*
X127988705Y-93410259D01*
X128204741Y-93626295D01*
X128374479Y-93880326D01*
X128472580Y-94117165D01*
X128491396Y-94162591D01*
X128551000Y-94462239D01*
X128551000Y-94767761D01*
X128539969Y-94823216D01*
X128491396Y-95067410D01*
X128374479Y-95349674D01*
X128204741Y-95603705D01*
X127988705Y-95819741D01*
X127734674Y-95989479D01*
X127452410Y-96106396D01*
X127302585Y-96136198D01*
X127152761Y-96166000D01*
X126847239Y-96166000D01*
X126697415Y-96136198D01*
X126547590Y-96106396D01*
X126265326Y-95989479D01*
X126011295Y-95819741D01*
X125795259Y-95603705D01*
X125625521Y-95349674D01*
X125508604Y-95067410D01*
X125460031Y-94823216D01*
X125449000Y-94767761D01*
X125449000Y-94462239D01*
X125508604Y-94162591D01*
X125527420Y-94117165D01*
X125625521Y-93880326D01*
X125795259Y-93626295D01*
X126011295Y-93410259D01*
X126265326Y-93240521D01*
X126547590Y-93123604D01*
X126697415Y-93093802D01*
X126847239Y-93064000D01*
X127152761Y-93064000D01*
X127302585Y-93093802D01*
G37*
G36*
X160322585Y-93093802D02*
G01*
X160472410Y-93123604D01*
X160754674Y-93240521D01*
X161008705Y-93410259D01*
X161224741Y-93626295D01*
X161394479Y-93880326D01*
X161492580Y-94117165D01*
X161511396Y-94162591D01*
X161571000Y-94462239D01*
X161571000Y-94767761D01*
X161559969Y-94823216D01*
X161511396Y-95067410D01*
X161394479Y-95349674D01*
X161224741Y-95603705D01*
X161008705Y-95819741D01*
X160754674Y-95989479D01*
X160472410Y-96106396D01*
X160322585Y-96136198D01*
X160172761Y-96166000D01*
X159867239Y-96166000D01*
X159717415Y-96136198D01*
X159567590Y-96106396D01*
X159285326Y-95989479D01*
X159031295Y-95819741D01*
X158815259Y-95603705D01*
X158645521Y-95349674D01*
X158528604Y-95067410D01*
X158480031Y-94823216D01*
X158469000Y-94767761D01*
X158469000Y-94462239D01*
X158528604Y-94162591D01*
X158547420Y-94117165D01*
X158645521Y-93880326D01*
X158815259Y-93626295D01*
X159031295Y-93410259D01*
X159285326Y-93240521D01*
X159567590Y-93123604D01*
X159717415Y-93093802D01*
X159867239Y-93064000D01*
X160172761Y-93064000D01*
X160322585Y-93093802D01*
G37*
G36*
X175562585Y-93093802D02*
G01*
X175712410Y-93123604D01*
X175994674Y-93240521D01*
X176248705Y-93410259D01*
X176464741Y-93626295D01*
X176634479Y-93880326D01*
X176732580Y-94117165D01*
X176751396Y-94162591D01*
X176811000Y-94462239D01*
X176811000Y-94767761D01*
X176799969Y-94823216D01*
X176751396Y-95067410D01*
X176634479Y-95349674D01*
X176464741Y-95603705D01*
X176248705Y-95819741D01*
X175994674Y-95989479D01*
X175712410Y-96106396D01*
X175562585Y-96136198D01*
X175412761Y-96166000D01*
X175107239Y-96166000D01*
X174957415Y-96136198D01*
X174807590Y-96106396D01*
X174525326Y-95989479D01*
X174271295Y-95819741D01*
X174055259Y-95603705D01*
X173885521Y-95349674D01*
X173768604Y-95067410D01*
X173720031Y-94823216D01*
X173709000Y-94767761D01*
X173709000Y-94462239D01*
X173768604Y-94162591D01*
X173787420Y-94117165D01*
X173885521Y-93880326D01*
X174055259Y-93626295D01*
X174271295Y-93410259D01*
X174525326Y-93240521D01*
X174807590Y-93123604D01*
X174957415Y-93093802D01*
X175107239Y-93064000D01*
X175412761Y-93064000D01*
X175562585Y-93093802D01*
G37*
G36*
X142542585Y-93093802D02*
G01*
X142692410Y-93123604D01*
X142974674Y-93240521D01*
X143228705Y-93410259D01*
X143444741Y-93626295D01*
X143614479Y-93880326D01*
X143712580Y-94117165D01*
X143731396Y-94162591D01*
X143791000Y-94462239D01*
X143791000Y-94767761D01*
X143779969Y-94823216D01*
X143731396Y-95067410D01*
X143614479Y-95349674D01*
X143444741Y-95603705D01*
X143228705Y-95819741D01*
X142974674Y-95989479D01*
X142692410Y-96106396D01*
X142542585Y-96136198D01*
X142392761Y-96166000D01*
X142087239Y-96166000D01*
X141937415Y-96136198D01*
X141787590Y-96106396D01*
X141505326Y-95989479D01*
X141251295Y-95819741D01*
X141035259Y-95603705D01*
X140865521Y-95349674D01*
X140748604Y-95067410D01*
X140700031Y-94823216D01*
X140689000Y-94767761D01*
X140689000Y-94462239D01*
X140748604Y-94162591D01*
X140767420Y-94117165D01*
X140865521Y-93880326D01*
X141035259Y-93626295D01*
X141251295Y-93410259D01*
X141505326Y-93240521D01*
X141787590Y-93123604D01*
X141937415Y-93093802D01*
X142087239Y-93064000D01*
X142392761Y-93064000D01*
X142542585Y-93093802D01*
G37*
G36*
X202043512Y-94353927D02*
G01*
X202192812Y-94383624D01*
X202356784Y-94451544D01*
X202504354Y-94550147D01*
X202629853Y-94675646D01*
X202728456Y-94823216D01*
X202796376Y-94987188D01*
X202831000Y-95161259D01*
X202831000Y-95338741D01*
X202796376Y-95512812D01*
X202728456Y-95676784D01*
X202629853Y-95824354D01*
X202504354Y-95949853D01*
X202356784Y-96048456D01*
X202192812Y-96116376D01*
X202043512Y-96146073D01*
X202018742Y-96151000D01*
X201841258Y-96151000D01*
X201816488Y-96146073D01*
X201667188Y-96116376D01*
X201503216Y-96048456D01*
X201355646Y-95949853D01*
X201230147Y-95824354D01*
X201131544Y-95676784D01*
X201063624Y-95512812D01*
X201029000Y-95338741D01*
X201029000Y-95161259D01*
X201063624Y-94987188D01*
X201131544Y-94823216D01*
X201230147Y-94675646D01*
X201355646Y-94550147D01*
X201503216Y-94451544D01*
X201667188Y-94383624D01*
X201816488Y-94353927D01*
X201841258Y-94349000D01*
X202018742Y-94349000D01*
X202043512Y-94353927D01*
G37*
G36*
X204583512Y-94353927D02*
G01*
X204732812Y-94383624D01*
X204896784Y-94451544D01*
X205044354Y-94550147D01*
X205169853Y-94675646D01*
X205268456Y-94823216D01*
X205336376Y-94987188D01*
X205371000Y-95161259D01*
X205371000Y-95338741D01*
X205336376Y-95512812D01*
X205268456Y-95676784D01*
X205169853Y-95824354D01*
X205044354Y-95949853D01*
X204896784Y-96048456D01*
X204732812Y-96116376D01*
X204583512Y-96146073D01*
X204558742Y-96151000D01*
X204381258Y-96151000D01*
X204356488Y-96146073D01*
X204207188Y-96116376D01*
X204043216Y-96048456D01*
X203895646Y-95949853D01*
X203770147Y-95824354D01*
X203671544Y-95676784D01*
X203603624Y-95512812D01*
X203569000Y-95338741D01*
X203569000Y-95161259D01*
X203603624Y-94987188D01*
X203671544Y-94823216D01*
X203770147Y-94675646D01*
X203895646Y-94550147D01*
X204043216Y-94451544D01*
X204207188Y-94383624D01*
X204356488Y-94353927D01*
X204381258Y-94349000D01*
X204558742Y-94349000D01*
X204583512Y-94353927D01*
G37*
G36*
X199503512Y-94353927D02*
G01*
X199652812Y-94383624D01*
X199816784Y-94451544D01*
X199964354Y-94550147D01*
X200089853Y-94675646D01*
X200188456Y-94823216D01*
X200256376Y-94987188D01*
X200291000Y-95161259D01*
X200291000Y-95338741D01*
X200256376Y-95512812D01*
X200188456Y-95676784D01*
X200089853Y-95824354D01*
X199964354Y-95949853D01*
X199816784Y-96048456D01*
X199652812Y-96116376D01*
X199503512Y-96146073D01*
X199478742Y-96151000D01*
X199301258Y-96151000D01*
X199276488Y-96146073D01*
X199127188Y-96116376D01*
X198963216Y-96048456D01*
X198815646Y-95949853D01*
X198690147Y-95824354D01*
X198591544Y-95676784D01*
X198523624Y-95512812D01*
X198489000Y-95338741D01*
X198489000Y-95161259D01*
X198523624Y-94987188D01*
X198591544Y-94823216D01*
X198690147Y-94675646D01*
X198815646Y-94550147D01*
X198963216Y-94451544D01*
X199127188Y-94383624D01*
X199276488Y-94353927D01*
X199301258Y-94349000D01*
X199478742Y-94349000D01*
X199503512Y-94353927D01*
G37*
G36*
X196963512Y-94353927D02*
G01*
X197112812Y-94383624D01*
X197276784Y-94451544D01*
X197424354Y-94550147D01*
X197549853Y-94675646D01*
X197648456Y-94823216D01*
X197716376Y-94987188D01*
X197751000Y-95161259D01*
X197751000Y-95338741D01*
X197716376Y-95512812D01*
X197648456Y-95676784D01*
X197549853Y-95824354D01*
X197424354Y-95949853D01*
X197276784Y-96048456D01*
X197112812Y-96116376D01*
X196963512Y-96146073D01*
X196938742Y-96151000D01*
X196761258Y-96151000D01*
X196736488Y-96146073D01*
X196587188Y-96116376D01*
X196423216Y-96048456D01*
X196275646Y-95949853D01*
X196150147Y-95824354D01*
X196051544Y-95676784D01*
X195983624Y-95512812D01*
X195949000Y-95338741D01*
X195949000Y-95161259D01*
X195983624Y-94987188D01*
X196051544Y-94823216D01*
X196150147Y-94675646D01*
X196275646Y-94550147D01*
X196423216Y-94451544D01*
X196587188Y-94383624D01*
X196736488Y-94353927D01*
X196761258Y-94349000D01*
X196938742Y-94349000D01*
X196963512Y-94353927D01*
G37*
G36*
X194423512Y-94353927D02*
G01*
X194572812Y-94383624D01*
X194736784Y-94451544D01*
X194884354Y-94550147D01*
X195009853Y-94675646D01*
X195108456Y-94823216D01*
X195176376Y-94987188D01*
X195211000Y-95161259D01*
X195211000Y-95338741D01*
X195176376Y-95512812D01*
X195108456Y-95676784D01*
X195009853Y-95824354D01*
X194884354Y-95949853D01*
X194736784Y-96048456D01*
X194572812Y-96116376D01*
X194423512Y-96146073D01*
X194398742Y-96151000D01*
X194221258Y-96151000D01*
X194196488Y-96146073D01*
X194047188Y-96116376D01*
X193883216Y-96048456D01*
X193735646Y-95949853D01*
X193610147Y-95824354D01*
X193511544Y-95676784D01*
X193443624Y-95512812D01*
X193409000Y-95338741D01*
X193409000Y-95161259D01*
X193443624Y-94987188D01*
X193511544Y-94823216D01*
X193610147Y-94675646D01*
X193735646Y-94550147D01*
X193883216Y-94451544D01*
X194047188Y-94383624D01*
X194196488Y-94353927D01*
X194221258Y-94349000D01*
X194398742Y-94349000D01*
X194423512Y-94353927D01*
G37*
G36*
X147626564Y-93604389D02*
G01*
X147817833Y-93683615D01*
X147817835Y-93683616D01*
X147989973Y-93798635D01*
X148136365Y-93945027D01*
X148251385Y-94117167D01*
X148330611Y-94308436D01*
X148371000Y-94511484D01*
X148371000Y-94718516D01*
X148330611Y-94921564D01*
X148303428Y-94987189D01*
X148251384Y-95112835D01*
X148136365Y-95284973D01*
X147989973Y-95431365D01*
X147817835Y-95546384D01*
X147817834Y-95546385D01*
X147817833Y-95546385D01*
X147626564Y-95625611D01*
X147423516Y-95666000D01*
X147216484Y-95666000D01*
X147013436Y-95625611D01*
X146822167Y-95546385D01*
X146822166Y-95546385D01*
X146822165Y-95546384D01*
X146650027Y-95431365D01*
X146503635Y-95284973D01*
X146388616Y-95112835D01*
X146336572Y-94987189D01*
X146309389Y-94921564D01*
X146269000Y-94718516D01*
X146269000Y-94511484D01*
X146309389Y-94308436D01*
X146388615Y-94117167D01*
X146503635Y-93945027D01*
X146650027Y-93798635D01*
X146822165Y-93683616D01*
X146822167Y-93683615D01*
X147013436Y-93604389D01*
X147216484Y-93564000D01*
X147423516Y-93564000D01*
X147626564Y-93604389D01*
G37*
G36*
X137466564Y-93604389D02*
G01*
X137657833Y-93683615D01*
X137657835Y-93683616D01*
X137829973Y-93798635D01*
X137976365Y-93945027D01*
X138091385Y-94117167D01*
X138170611Y-94308436D01*
X138211000Y-94511484D01*
X138211000Y-94718516D01*
X138170611Y-94921564D01*
X138143428Y-94987189D01*
X138091384Y-95112835D01*
X137976365Y-95284973D01*
X137829973Y-95431365D01*
X137657835Y-95546384D01*
X137657834Y-95546385D01*
X137657833Y-95546385D01*
X137466564Y-95625611D01*
X137263516Y-95666000D01*
X137056484Y-95666000D01*
X136853436Y-95625611D01*
X136662167Y-95546385D01*
X136662166Y-95546385D01*
X136662165Y-95546384D01*
X136490027Y-95431365D01*
X136343635Y-95284973D01*
X136228616Y-95112835D01*
X136176572Y-94987189D01*
X136149389Y-94921564D01*
X136109000Y-94718516D01*
X136109000Y-94511484D01*
X136149389Y-94308436D01*
X136228615Y-94117167D01*
X136343635Y-93945027D01*
X136490027Y-93798635D01*
X136662165Y-93683616D01*
X136662167Y-93683615D01*
X136853436Y-93604389D01*
X137056484Y-93564000D01*
X137263516Y-93564000D01*
X137466564Y-93604389D01*
G37*
G36*
X132386564Y-93604389D02*
G01*
X132577833Y-93683615D01*
X132577835Y-93683616D01*
X132749973Y-93798635D01*
X132896365Y-93945027D01*
X133011385Y-94117167D01*
X133090611Y-94308436D01*
X133131000Y-94511484D01*
X133131000Y-94718516D01*
X133090611Y-94921564D01*
X133063428Y-94987189D01*
X133011384Y-95112835D01*
X132896365Y-95284973D01*
X132749973Y-95431365D01*
X132577835Y-95546384D01*
X132577834Y-95546385D01*
X132577833Y-95546385D01*
X132386564Y-95625611D01*
X132183516Y-95666000D01*
X131976484Y-95666000D01*
X131773436Y-95625611D01*
X131582167Y-95546385D01*
X131582166Y-95546385D01*
X131582165Y-95546384D01*
X131410027Y-95431365D01*
X131263635Y-95284973D01*
X131148616Y-95112835D01*
X131096572Y-94987189D01*
X131069389Y-94921564D01*
X131029000Y-94718516D01*
X131029000Y-94511484D01*
X131069389Y-94308436D01*
X131148615Y-94117167D01*
X131263635Y-93945027D01*
X131410027Y-93798635D01*
X131582165Y-93683616D01*
X131582167Y-93683615D01*
X131773436Y-93604389D01*
X131976484Y-93564000D01*
X132183516Y-93564000D01*
X132386564Y-93604389D01*
G37*
G36*
X122226564Y-93604389D02*
G01*
X122417833Y-93683615D01*
X122417835Y-93683616D01*
X122589973Y-93798635D01*
X122736365Y-93945027D01*
X122851385Y-94117167D01*
X122930611Y-94308436D01*
X122971000Y-94511484D01*
X122971000Y-94718516D01*
X122930611Y-94921564D01*
X122903428Y-94987189D01*
X122851384Y-95112835D01*
X122736365Y-95284973D01*
X122589973Y-95431365D01*
X122417835Y-95546384D01*
X122417834Y-95546385D01*
X122417833Y-95546385D01*
X122226564Y-95625611D01*
X122023516Y-95666000D01*
X121816484Y-95666000D01*
X121613436Y-95625611D01*
X121422167Y-95546385D01*
X121422166Y-95546385D01*
X121422165Y-95546384D01*
X121250027Y-95431365D01*
X121103635Y-95284973D01*
X120988616Y-95112835D01*
X120936572Y-94987189D01*
X120909389Y-94921564D01*
X120869000Y-94718516D01*
X120869000Y-94511484D01*
X120909389Y-94308436D01*
X120988615Y-94117167D01*
X121103635Y-93945027D01*
X121250027Y-93798635D01*
X121422165Y-93683616D01*
X121422167Y-93683615D01*
X121613436Y-93604389D01*
X121816484Y-93564000D01*
X122023516Y-93564000D01*
X122226564Y-93604389D01*
G37*
G36*
X155246564Y-93604389D02*
G01*
X155437833Y-93683615D01*
X155437835Y-93683616D01*
X155609973Y-93798635D01*
X155756365Y-93945027D01*
X155871385Y-94117167D01*
X155950611Y-94308436D01*
X155991000Y-94511484D01*
X155991000Y-94718516D01*
X155950611Y-94921564D01*
X155923428Y-94987189D01*
X155871384Y-95112835D01*
X155756365Y-95284973D01*
X155609973Y-95431365D01*
X155437835Y-95546384D01*
X155437834Y-95546385D01*
X155437833Y-95546385D01*
X155246564Y-95625611D01*
X155043516Y-95666000D01*
X154836484Y-95666000D01*
X154633436Y-95625611D01*
X154442167Y-95546385D01*
X154442166Y-95546385D01*
X154442165Y-95546384D01*
X154270027Y-95431365D01*
X154123635Y-95284973D01*
X154008616Y-95112835D01*
X153956572Y-94987189D01*
X153929389Y-94921564D01*
X153889000Y-94718516D01*
X153889000Y-94511484D01*
X153929389Y-94308436D01*
X154008615Y-94117167D01*
X154123635Y-93945027D01*
X154270027Y-93798635D01*
X154442165Y-93683616D01*
X154442167Y-93683615D01*
X154633436Y-93604389D01*
X154836484Y-93564000D01*
X155043516Y-93564000D01*
X155246564Y-93604389D01*
G37*
G36*
X165406564Y-93604389D02*
G01*
X165597833Y-93683615D01*
X165597835Y-93683616D01*
X165769973Y-93798635D01*
X165916365Y-93945027D01*
X166031385Y-94117167D01*
X166110611Y-94308436D01*
X166151000Y-94511484D01*
X166151000Y-94718516D01*
X166110611Y-94921564D01*
X166083428Y-94987189D01*
X166031384Y-95112835D01*
X165916365Y-95284973D01*
X165769973Y-95431365D01*
X165597835Y-95546384D01*
X165597834Y-95546385D01*
X165597833Y-95546385D01*
X165406564Y-95625611D01*
X165203516Y-95666000D01*
X164996484Y-95666000D01*
X164793436Y-95625611D01*
X164602167Y-95546385D01*
X164602166Y-95546385D01*
X164602165Y-95546384D01*
X164430027Y-95431365D01*
X164283635Y-95284973D01*
X164168616Y-95112835D01*
X164116572Y-94987189D01*
X164089389Y-94921564D01*
X164049000Y-94718516D01*
X164049000Y-94511484D01*
X164089389Y-94308436D01*
X164168615Y-94117167D01*
X164283635Y-93945027D01*
X164430027Y-93798635D01*
X164602165Y-93683616D01*
X164602167Y-93683615D01*
X164793436Y-93604389D01*
X164996484Y-93564000D01*
X165203516Y-93564000D01*
X165406564Y-93604389D01*
G37*
G36*
X170486564Y-93604389D02*
G01*
X170677833Y-93683615D01*
X170677835Y-93683616D01*
X170849973Y-93798635D01*
X170996365Y-93945027D01*
X171111385Y-94117167D01*
X171190611Y-94308436D01*
X171231000Y-94511484D01*
X171231000Y-94718516D01*
X171190611Y-94921564D01*
X171163428Y-94987189D01*
X171111384Y-95112835D01*
X170996365Y-95284973D01*
X170849973Y-95431365D01*
X170677835Y-95546384D01*
X170677834Y-95546385D01*
X170677833Y-95546385D01*
X170486564Y-95625611D01*
X170283516Y-95666000D01*
X170076484Y-95666000D01*
X169873436Y-95625611D01*
X169682167Y-95546385D01*
X169682166Y-95546385D01*
X169682165Y-95546384D01*
X169510027Y-95431365D01*
X169363635Y-95284973D01*
X169248616Y-95112835D01*
X169196572Y-94987189D01*
X169169389Y-94921564D01*
X169129000Y-94718516D01*
X169129000Y-94511484D01*
X169169389Y-94308436D01*
X169248615Y-94117167D01*
X169363635Y-93945027D01*
X169510027Y-93798635D01*
X169682165Y-93683616D01*
X169682167Y-93683615D01*
X169873436Y-93604389D01*
X170076484Y-93564000D01*
X170283516Y-93564000D01*
X170486564Y-93604389D01*
G37*
G36*
X180646564Y-93604389D02*
G01*
X180837833Y-93683615D01*
X180837835Y-93683616D01*
X181009973Y-93798635D01*
X181156365Y-93945027D01*
X181271385Y-94117167D01*
X181350611Y-94308436D01*
X181391000Y-94511484D01*
X181391000Y-94718516D01*
X181350611Y-94921564D01*
X181323428Y-94987189D01*
X181271384Y-95112835D01*
X181156365Y-95284973D01*
X181009973Y-95431365D01*
X180837835Y-95546384D01*
X180837834Y-95546385D01*
X180837833Y-95546385D01*
X180646564Y-95625611D01*
X180443516Y-95666000D01*
X180236484Y-95666000D01*
X180033436Y-95625611D01*
X179842167Y-95546385D01*
X179842166Y-95546385D01*
X179842165Y-95546384D01*
X179670027Y-95431365D01*
X179523635Y-95284973D01*
X179408616Y-95112835D01*
X179356572Y-94987189D01*
X179329389Y-94921564D01*
X179289000Y-94718516D01*
X179289000Y-94511484D01*
X179329389Y-94308436D01*
X179408615Y-94117167D01*
X179523635Y-93945027D01*
X179670027Y-93798635D01*
X179842165Y-93683616D01*
X179842167Y-93683615D01*
X180033436Y-93604389D01*
X180236484Y-93564000D01*
X180443516Y-93564000D01*
X180646564Y-93604389D01*
G37*
G36*
X194547142Y-89388242D02*
G01*
X194695101Y-89449529D01*
X194828255Y-89538499D01*
X194941501Y-89651745D01*
X195030471Y-89784899D01*
X195091758Y-89932858D01*
X195123000Y-90089925D01*
X195123000Y-90250075D01*
X195091758Y-90407142D01*
X195030471Y-90555101D01*
X194941501Y-90688255D01*
X194828255Y-90801501D01*
X194695101Y-90890471D01*
X194547142Y-90951758D01*
X194390075Y-90983000D01*
X194229925Y-90983000D01*
X194072858Y-90951758D01*
X193924899Y-90890471D01*
X193791745Y-90801501D01*
X193678499Y-90688255D01*
X193589529Y-90555101D01*
X193528242Y-90407142D01*
X193497000Y-90250075D01*
X193497000Y-90089925D01*
X193528242Y-89932858D01*
X193589529Y-89784899D01*
X193678499Y-89651745D01*
X193791745Y-89538499D01*
X193924899Y-89449529D01*
X194072858Y-89388242D01*
X194229925Y-89357000D01*
X194390075Y-89357000D01*
X194547142Y-89388242D01*
G37*
G36*
X209787142Y-89388242D02*
G01*
X209935101Y-89449529D01*
X210068255Y-89538499D01*
X210181501Y-89651745D01*
X210270471Y-89784899D01*
X210331758Y-89932858D01*
X210363000Y-90089925D01*
X210363000Y-90250075D01*
X210331758Y-90407142D01*
X210270471Y-90555101D01*
X210181501Y-90688255D01*
X210068255Y-90801501D01*
X209935101Y-90890471D01*
X209787142Y-90951758D01*
X209630075Y-90983000D01*
X209469925Y-90983000D01*
X209312858Y-90951758D01*
X209164899Y-90890471D01*
X209031745Y-90801501D01*
X208918499Y-90688255D01*
X208829529Y-90555101D01*
X208768242Y-90407142D01*
X208737000Y-90250075D01*
X208737000Y-90089925D01*
X208768242Y-89932858D01*
X208829529Y-89784899D01*
X208918499Y-89651745D01*
X209031745Y-89538499D01*
X209164899Y-89449529D01*
X209312858Y-89388242D01*
X209469925Y-89357000D01*
X209630075Y-89357000D01*
X209787142Y-89388242D01*
G37*
G36*
X207247142Y-89388242D02*
G01*
X207395101Y-89449529D01*
X207528255Y-89538499D01*
X207641501Y-89651745D01*
X207730471Y-89784899D01*
X207791758Y-89932858D01*
X207823000Y-90089925D01*
X207823000Y-90250075D01*
X207791758Y-90407142D01*
X207730471Y-90555101D01*
X207641501Y-90688255D01*
X207528255Y-90801501D01*
X207395101Y-90890471D01*
X207247142Y-90951758D01*
X207090075Y-90983000D01*
X206929925Y-90983000D01*
X206772858Y-90951758D01*
X206624899Y-90890471D01*
X206491745Y-90801501D01*
X206378499Y-90688255D01*
X206289529Y-90555101D01*
X206228242Y-90407142D01*
X206197000Y-90250075D01*
X206197000Y-90089925D01*
X206228242Y-89932858D01*
X206289529Y-89784899D01*
X206378499Y-89651745D01*
X206491745Y-89538499D01*
X206624899Y-89449529D01*
X206772858Y-89388242D01*
X206929925Y-89357000D01*
X207090075Y-89357000D01*
X207247142Y-89388242D01*
G37*
G36*
X204707142Y-89388242D02*
G01*
X204855101Y-89449529D01*
X204988255Y-89538499D01*
X205101501Y-89651745D01*
X205190471Y-89784899D01*
X205251758Y-89932858D01*
X205283000Y-90089925D01*
X205283000Y-90250075D01*
X205251758Y-90407142D01*
X205190471Y-90555101D01*
X205101501Y-90688255D01*
X204988255Y-90801501D01*
X204855101Y-90890471D01*
X204707142Y-90951758D01*
X204550075Y-90983000D01*
X204389925Y-90983000D01*
X204232858Y-90951758D01*
X204084899Y-90890471D01*
X203951745Y-90801501D01*
X203838499Y-90688255D01*
X203749529Y-90555101D01*
X203688242Y-90407142D01*
X203657000Y-90250075D01*
X203657000Y-90089925D01*
X203688242Y-89932858D01*
X203749529Y-89784899D01*
X203838499Y-89651745D01*
X203951745Y-89538499D01*
X204084899Y-89449529D01*
X204232858Y-89388242D01*
X204389925Y-89357000D01*
X204550075Y-89357000D01*
X204707142Y-89388242D01*
G37*
G36*
X202167142Y-89388242D02*
G01*
X202315101Y-89449529D01*
X202448255Y-89538499D01*
X202561501Y-89651745D01*
X202650471Y-89784899D01*
X202711758Y-89932858D01*
X202743000Y-90089925D01*
X202743000Y-90250075D01*
X202711758Y-90407142D01*
X202650471Y-90555101D01*
X202561501Y-90688255D01*
X202448255Y-90801501D01*
X202315101Y-90890471D01*
X202167142Y-90951758D01*
X202010075Y-90983000D01*
X201849925Y-90983000D01*
X201692858Y-90951758D01*
X201544899Y-90890471D01*
X201411745Y-90801501D01*
X201298499Y-90688255D01*
X201209529Y-90555101D01*
X201148242Y-90407142D01*
X201117000Y-90250075D01*
X201117000Y-90089925D01*
X201148242Y-89932858D01*
X201209529Y-89784899D01*
X201298499Y-89651745D01*
X201411745Y-89538499D01*
X201544899Y-89449529D01*
X201692858Y-89388242D01*
X201849925Y-89357000D01*
X202010075Y-89357000D01*
X202167142Y-89388242D01*
G37*
G36*
X199627142Y-89388242D02*
G01*
X199775101Y-89449529D01*
X199908255Y-89538499D01*
X200021501Y-89651745D01*
X200110471Y-89784899D01*
X200171758Y-89932858D01*
X200203000Y-90089925D01*
X200203000Y-90250075D01*
X200171758Y-90407142D01*
X200110471Y-90555101D01*
X200021501Y-90688255D01*
X199908255Y-90801501D01*
X199775101Y-90890471D01*
X199627142Y-90951758D01*
X199470075Y-90983000D01*
X199309925Y-90983000D01*
X199152858Y-90951758D01*
X199004899Y-90890471D01*
X198871745Y-90801501D01*
X198758499Y-90688255D01*
X198669529Y-90555101D01*
X198608242Y-90407142D01*
X198577000Y-90250075D01*
X198577000Y-90089925D01*
X198608242Y-89932858D01*
X198669529Y-89784899D01*
X198758499Y-89651745D01*
X198871745Y-89538499D01*
X199004899Y-89449529D01*
X199152858Y-89388242D01*
X199309925Y-89357000D01*
X199470075Y-89357000D01*
X199627142Y-89388242D01*
G37*
G36*
X197087142Y-89388242D02*
G01*
X197235101Y-89449529D01*
X197368255Y-89538499D01*
X197481501Y-89651745D01*
X197570471Y-89784899D01*
X197631758Y-89932858D01*
X197663000Y-90089925D01*
X197663000Y-90250075D01*
X197631758Y-90407142D01*
X197570471Y-90555101D01*
X197481501Y-90688255D01*
X197368255Y-90801501D01*
X197235101Y-90890471D01*
X197087142Y-90951758D01*
X196930075Y-90983000D01*
X196769925Y-90983000D01*
X196612858Y-90951758D01*
X196464899Y-90890471D01*
X196331745Y-90801501D01*
X196218499Y-90688255D01*
X196129529Y-90555101D01*
X196068242Y-90407142D01*
X196037000Y-90250075D01*
X196037000Y-90089925D01*
X196068242Y-89932858D01*
X196129529Y-89784899D01*
X196218499Y-89651745D01*
X196331745Y-89538499D01*
X196464899Y-89449529D01*
X196612858Y-89388242D01*
X196769925Y-89357000D01*
X196930075Y-89357000D01*
X197087142Y-89388242D01*
G37*
G36*
X222487142Y-89388242D02*
G01*
X222635101Y-89449529D01*
X222768255Y-89538499D01*
X222881501Y-89651745D01*
X222970471Y-89784899D01*
X223031758Y-89932858D01*
X223063000Y-90089925D01*
X223063000Y-90250075D01*
X223031758Y-90407142D01*
X222970471Y-90555101D01*
X222881501Y-90688255D01*
X222768255Y-90801501D01*
X222635101Y-90890471D01*
X222487142Y-90951758D01*
X222330075Y-90983000D01*
X222169925Y-90983000D01*
X222012858Y-90951758D01*
X221864899Y-90890471D01*
X221731745Y-90801501D01*
X221618499Y-90688255D01*
X221529529Y-90555101D01*
X221468242Y-90407142D01*
X221437000Y-90250075D01*
X221437000Y-90089925D01*
X221468242Y-89932858D01*
X221529529Y-89784899D01*
X221618499Y-89651745D01*
X221731745Y-89538499D01*
X221864899Y-89449529D01*
X222012858Y-89388242D01*
X222169925Y-89357000D01*
X222330075Y-89357000D01*
X222487142Y-89388242D01*
G37*
G36*
X212327142Y-89388242D02*
G01*
X212475101Y-89449529D01*
X212608255Y-89538499D01*
X212721501Y-89651745D01*
X212810471Y-89784899D01*
X212871758Y-89932858D01*
X212903000Y-90089925D01*
X212903000Y-90250075D01*
X212871758Y-90407142D01*
X212810471Y-90555101D01*
X212721501Y-90688255D01*
X212608255Y-90801501D01*
X212475101Y-90890471D01*
X212327142Y-90951758D01*
X212170075Y-90983000D01*
X212009925Y-90983000D01*
X211852858Y-90951758D01*
X211704899Y-90890471D01*
X211571745Y-90801501D01*
X211458499Y-90688255D01*
X211369529Y-90555101D01*
X211308242Y-90407142D01*
X211277000Y-90250075D01*
X211277000Y-90089925D01*
X211308242Y-89932858D01*
X211369529Y-89784899D01*
X211458499Y-89651745D01*
X211571745Y-89538499D01*
X211704899Y-89449529D01*
X211852858Y-89388242D01*
X212009925Y-89357000D01*
X212170075Y-89357000D01*
X212327142Y-89388242D01*
G37*
G36*
X217407142Y-89388242D02*
G01*
X217555101Y-89449529D01*
X217688255Y-89538499D01*
X217801501Y-89651745D01*
X217890471Y-89784899D01*
X217951758Y-89932858D01*
X217983000Y-90089925D01*
X217983000Y-90250075D01*
X217951758Y-90407142D01*
X217890471Y-90555101D01*
X217801501Y-90688255D01*
X217688255Y-90801501D01*
X217555101Y-90890471D01*
X217407142Y-90951758D01*
X217250075Y-90983000D01*
X217089925Y-90983000D01*
X216932858Y-90951758D01*
X216784899Y-90890471D01*
X216651745Y-90801501D01*
X216538499Y-90688255D01*
X216449529Y-90555101D01*
X216388242Y-90407142D01*
X216357000Y-90250075D01*
X216357000Y-90089925D01*
X216388242Y-89932858D01*
X216449529Y-89784899D01*
X216538499Y-89651745D01*
X216651745Y-89538499D01*
X216784899Y-89449529D01*
X216932858Y-89388242D01*
X217089925Y-89357000D01*
X217250075Y-89357000D01*
X217407142Y-89388242D01*
G37*
G36*
X214867142Y-89388242D02*
G01*
X215015101Y-89449529D01*
X215148255Y-89538499D01*
X215261501Y-89651745D01*
X215350471Y-89784899D01*
X215411758Y-89932858D01*
X215443000Y-90089925D01*
X215443000Y-90250075D01*
X215411758Y-90407142D01*
X215350471Y-90555101D01*
X215261501Y-90688255D01*
X215148255Y-90801501D01*
X215015101Y-90890471D01*
X214867142Y-90951758D01*
X214710075Y-90983000D01*
X214549925Y-90983000D01*
X214392858Y-90951758D01*
X214244899Y-90890471D01*
X214111745Y-90801501D01*
X213998499Y-90688255D01*
X213909529Y-90555101D01*
X213848242Y-90407142D01*
X213817000Y-90250075D01*
X213817000Y-90089925D01*
X213848242Y-89932858D01*
X213909529Y-89784899D01*
X213998499Y-89651745D01*
X214111745Y-89538499D01*
X214244899Y-89449529D01*
X214392858Y-89388242D01*
X214549925Y-89357000D01*
X214710075Y-89357000D01*
X214867142Y-89388242D01*
G37*
G36*
X219947142Y-89388242D02*
G01*
X220095101Y-89449529D01*
X220228255Y-89538499D01*
X220341501Y-89651745D01*
X220430471Y-89784899D01*
X220491758Y-89932858D01*
X220523000Y-90089925D01*
X220523000Y-90250075D01*
X220491758Y-90407142D01*
X220430471Y-90555101D01*
X220341501Y-90688255D01*
X220228255Y-90801501D01*
X220095101Y-90890471D01*
X219947142Y-90951758D01*
X219790075Y-90983000D01*
X219629925Y-90983000D01*
X219472858Y-90951758D01*
X219324899Y-90890471D01*
X219191745Y-90801501D01*
X219078499Y-90688255D01*
X218989529Y-90555101D01*
X218928242Y-90407142D01*
X218897000Y-90250075D01*
X218897000Y-90089925D01*
X218928242Y-89932858D01*
X218989529Y-89784899D01*
X219078499Y-89651745D01*
X219191745Y-89538499D01*
X219324899Y-89449529D01*
X219472858Y-89388242D01*
X219629925Y-89357000D01*
X219790075Y-89357000D01*
X219947142Y-89388242D01*
G37*
G36*
X192007142Y-89388242D02*
G01*
X192155101Y-89449529D01*
X192288255Y-89538499D01*
X192401501Y-89651745D01*
X192490471Y-89784899D01*
X192551758Y-89932858D01*
X192583000Y-90089925D01*
X192583000Y-90250075D01*
X192551758Y-90407142D01*
X192490471Y-90555101D01*
X192401501Y-90688255D01*
X192288255Y-90801501D01*
X192155101Y-90890471D01*
X192007142Y-90951758D01*
X191850075Y-90983000D01*
X191689925Y-90983000D01*
X191532858Y-90951758D01*
X191384899Y-90890471D01*
X191251745Y-90801501D01*
X191138499Y-90688255D01*
X191049529Y-90555101D01*
X190988242Y-90407142D01*
X190957000Y-90250075D01*
X190957000Y-90089925D01*
X190988242Y-89932858D01*
X191049529Y-89784899D01*
X191138499Y-89651745D01*
X191251745Y-89538499D01*
X191384899Y-89449529D01*
X191532858Y-89388242D01*
X191689925Y-89357000D01*
X191850075Y-89357000D01*
X192007142Y-89388242D01*
G37*
G36*
X225027142Y-89388242D02*
G01*
X225175101Y-89449529D01*
X225308255Y-89538499D01*
X225421501Y-89651745D01*
X225510471Y-89784899D01*
X225571758Y-89932858D01*
X225603000Y-90089925D01*
X225603000Y-90250075D01*
X225571758Y-90407142D01*
X225510471Y-90555101D01*
X225421501Y-90688255D01*
X225308255Y-90801501D01*
X225175101Y-90890471D01*
X225027142Y-90951758D01*
X224870075Y-90983000D01*
X224709925Y-90983000D01*
X224552858Y-90951758D01*
X224404899Y-90890471D01*
X224271745Y-90801501D01*
X224158499Y-90688255D01*
X224069529Y-90555101D01*
X224008242Y-90407142D01*
X223977000Y-90250075D01*
X223977000Y-90089925D01*
X224008242Y-89932858D01*
X224069529Y-89784899D01*
X224158499Y-89651745D01*
X224271745Y-89538499D01*
X224404899Y-89449529D01*
X224552858Y-89388242D01*
X224709925Y-89357000D01*
X224870075Y-89357000D01*
X225027142Y-89388242D01*
G37*
G36*
X111541000Y-89951000D02*
G01*
X109439000Y-89951000D01*
X109439000Y-87849000D01*
X111541000Y-87849000D01*
X111541000Y-89951000D01*
G37*
G36*
X110727142Y-83038242D02*
G01*
X110875101Y-83099529D01*
X111008255Y-83188499D01*
X111121501Y-83301745D01*
X111210471Y-83434899D01*
X111271758Y-83582858D01*
X111303000Y-83739925D01*
X111303000Y-83900075D01*
X111271758Y-84057142D01*
X111210471Y-84205101D01*
X111121501Y-84338255D01*
X111008255Y-84451501D01*
X110875101Y-84540471D01*
X110727142Y-84601758D01*
X110570075Y-84633000D01*
X110409925Y-84633000D01*
X110252858Y-84601758D01*
X110104899Y-84540471D01*
X109971745Y-84451501D01*
X109858499Y-84338255D01*
X109769529Y-84205101D01*
X109708242Y-84057142D01*
X109677000Y-83900075D01*
X109677000Y-83739925D01*
X109708242Y-83582858D01*
X109769529Y-83434899D01*
X109858499Y-83301745D01*
X109971745Y-83188499D01*
X110104899Y-83099529D01*
X110252858Y-83038242D01*
X110409925Y-83007000D01*
X110570075Y-83007000D01*
X110727142Y-83038242D01*
G37*
G36*
X84126564Y-77729389D02*
G01*
X84317833Y-77808615D01*
X84317835Y-77808616D01*
X84489973Y-77923635D01*
X84636365Y-78070027D01*
X84751385Y-78242167D01*
X84830611Y-78433436D01*
X84871000Y-78636484D01*
X84871000Y-78843516D01*
X84830611Y-79046564D01*
X84751385Y-79237833D01*
X84751384Y-79237835D01*
X84636365Y-79409973D01*
X84489973Y-79556365D01*
X84317835Y-79671384D01*
X84317834Y-79671385D01*
X84317833Y-79671385D01*
X84126564Y-79750611D01*
X83923516Y-79791000D01*
X83716484Y-79791000D01*
X83513436Y-79750611D01*
X83322167Y-79671385D01*
X83322166Y-79671385D01*
X83322165Y-79671384D01*
X83150027Y-79556365D01*
X83003635Y-79409973D01*
X82888616Y-79237835D01*
X82888615Y-79237833D01*
X82809389Y-79046564D01*
X82769000Y-78843516D01*
X82769000Y-78636484D01*
X82809389Y-78433436D01*
X82888615Y-78242167D01*
X83003635Y-78070027D01*
X83150027Y-77923635D01*
X83322165Y-77808616D01*
X83322167Y-77808615D01*
X83513436Y-77729389D01*
X83716484Y-77689000D01*
X83923516Y-77689000D01*
X84126564Y-77729389D01*
G37*
G36*
X110796564Y-77729389D02*
G01*
X110987833Y-77808615D01*
X110987835Y-77808616D01*
X111159973Y-77923635D01*
X111306365Y-78070027D01*
X111421385Y-78242167D01*
X111500611Y-78433436D01*
X111541000Y-78636484D01*
X111541000Y-78843516D01*
X111500611Y-79046564D01*
X111421385Y-79237833D01*
X111421384Y-79237835D01*
X111306365Y-79409973D01*
X111159973Y-79556365D01*
X110987835Y-79671384D01*
X110987834Y-79671385D01*
X110987833Y-79671385D01*
X110796564Y-79750611D01*
X110593516Y-79791000D01*
X110386484Y-79791000D01*
X110183436Y-79750611D01*
X109992167Y-79671385D01*
X109992166Y-79671385D01*
X109992165Y-79671384D01*
X109820027Y-79556365D01*
X109673635Y-79409973D01*
X109558616Y-79237835D01*
X109558615Y-79237833D01*
X109479389Y-79046564D01*
X109439000Y-78843516D01*
X109439000Y-78636484D01*
X109479389Y-78433436D01*
X109558615Y-78242167D01*
X109673635Y-78070027D01*
X109820027Y-77923635D01*
X109992165Y-77808616D01*
X109992167Y-77808615D01*
X110183436Y-77729389D01*
X110386484Y-77689000D01*
X110593516Y-77689000D01*
X110796564Y-77729389D01*
G37*
G36*
X202167142Y-74148242D02*
G01*
X202315101Y-74209529D01*
X202448255Y-74298499D01*
X202561501Y-74411745D01*
X202650471Y-74544899D01*
X202711758Y-74692858D01*
X202743000Y-74849925D01*
X202743000Y-75010075D01*
X202711758Y-75167142D01*
X202650471Y-75315101D01*
X202561501Y-75448255D01*
X202448255Y-75561501D01*
X202315101Y-75650471D01*
X202167142Y-75711758D01*
X202010075Y-75743000D01*
X201849925Y-75743000D01*
X201692858Y-75711758D01*
X201544899Y-75650471D01*
X201411745Y-75561501D01*
X201298499Y-75448255D01*
X201209529Y-75315101D01*
X201148242Y-75167142D01*
X201117000Y-75010075D01*
X201117000Y-74849925D01*
X201148242Y-74692858D01*
X201209529Y-74544899D01*
X201298499Y-74411745D01*
X201411745Y-74298499D01*
X201544899Y-74209529D01*
X201692858Y-74148242D01*
X201849925Y-74117000D01*
X202010075Y-74117000D01*
X202167142Y-74148242D01*
G37*
G36*
X199627142Y-74148242D02*
G01*
X199775101Y-74209529D01*
X199908255Y-74298499D01*
X200021501Y-74411745D01*
X200110471Y-74544899D01*
X200171758Y-74692858D01*
X200203000Y-74849925D01*
X200203000Y-75010075D01*
X200171758Y-75167142D01*
X200110471Y-75315101D01*
X200021501Y-75448255D01*
X199908255Y-75561501D01*
X199775101Y-75650471D01*
X199627142Y-75711758D01*
X199470075Y-75743000D01*
X199309925Y-75743000D01*
X199152858Y-75711758D01*
X199004899Y-75650471D01*
X198871745Y-75561501D01*
X198758499Y-75448255D01*
X198669529Y-75315101D01*
X198608242Y-75167142D01*
X198577000Y-75010075D01*
X198577000Y-74849925D01*
X198608242Y-74692858D01*
X198669529Y-74544899D01*
X198758499Y-74411745D01*
X198871745Y-74298499D01*
X199004899Y-74209529D01*
X199152858Y-74148242D01*
X199309925Y-74117000D01*
X199470075Y-74117000D01*
X199627142Y-74148242D01*
G37*
G36*
X197087142Y-74148242D02*
G01*
X197235101Y-74209529D01*
X197368255Y-74298499D01*
X197481501Y-74411745D01*
X197570471Y-74544899D01*
X197631758Y-74692858D01*
X197663000Y-74849925D01*
X197663000Y-75010075D01*
X197631758Y-75167142D01*
X197570471Y-75315101D01*
X197481501Y-75448255D01*
X197368255Y-75561501D01*
X197235101Y-75650471D01*
X197087142Y-75711758D01*
X196930075Y-75743000D01*
X196769925Y-75743000D01*
X196612858Y-75711758D01*
X196464899Y-75650471D01*
X196331745Y-75561501D01*
X196218499Y-75448255D01*
X196129529Y-75315101D01*
X196068242Y-75167142D01*
X196037000Y-75010075D01*
X196037000Y-74849925D01*
X196068242Y-74692858D01*
X196129529Y-74544899D01*
X196218499Y-74411745D01*
X196331745Y-74298499D01*
X196464899Y-74209529D01*
X196612858Y-74148242D01*
X196769925Y-74117000D01*
X196930075Y-74117000D01*
X197087142Y-74148242D01*
G37*
G36*
X194547142Y-74148242D02*
G01*
X194695101Y-74209529D01*
X194828255Y-74298499D01*
X194941501Y-74411745D01*
X195030471Y-74544899D01*
X195091758Y-74692858D01*
X195123000Y-74849925D01*
X195123000Y-75010075D01*
X195091758Y-75167142D01*
X195030471Y-75315101D01*
X194941501Y-75448255D01*
X194828255Y-75561501D01*
X194695101Y-75650471D01*
X194547142Y-75711758D01*
X194390075Y-75743000D01*
X194229925Y-75743000D01*
X194072858Y-75711758D01*
X193924899Y-75650471D01*
X193791745Y-75561501D01*
X193678499Y-75448255D01*
X193589529Y-75315101D01*
X193528242Y-75167142D01*
X193497000Y-75010075D01*
X193497000Y-74849925D01*
X193528242Y-74692858D01*
X193589529Y-74544899D01*
X193678499Y-74411745D01*
X193791745Y-74298499D01*
X193924899Y-74209529D01*
X194072858Y-74148242D01*
X194229925Y-74117000D01*
X194390075Y-74117000D01*
X194547142Y-74148242D01*
G37*
G36*
X214867142Y-74148242D02*
G01*
X215015101Y-74209529D01*
X215148255Y-74298499D01*
X215261501Y-74411745D01*
X215350471Y-74544899D01*
X215411758Y-74692858D01*
X215443000Y-74849925D01*
X215443000Y-75010075D01*
X215411758Y-75167142D01*
X215350471Y-75315101D01*
X215261501Y-75448255D01*
X215148255Y-75561501D01*
X215015101Y-75650471D01*
X214867142Y-75711758D01*
X214710075Y-75743000D01*
X214549925Y-75743000D01*
X214392858Y-75711758D01*
X214244899Y-75650471D01*
X214111745Y-75561501D01*
X213998499Y-75448255D01*
X213909529Y-75315101D01*
X213848242Y-75167142D01*
X213817000Y-75010075D01*
X213817000Y-74849925D01*
X213848242Y-74692858D01*
X213909529Y-74544899D01*
X213998499Y-74411745D01*
X214111745Y-74298499D01*
X214244899Y-74209529D01*
X214392858Y-74148242D01*
X214549925Y-74117000D01*
X214710075Y-74117000D01*
X214867142Y-74148242D01*
G37*
G36*
X207247142Y-74148242D02*
G01*
X207395101Y-74209529D01*
X207528255Y-74298499D01*
X207641501Y-74411745D01*
X207730471Y-74544899D01*
X207791758Y-74692858D01*
X207823000Y-74849925D01*
X207823000Y-75010075D01*
X207791758Y-75167142D01*
X207730471Y-75315101D01*
X207641501Y-75448255D01*
X207528255Y-75561501D01*
X207395101Y-75650471D01*
X207247142Y-75711758D01*
X207090075Y-75743000D01*
X206929925Y-75743000D01*
X206772858Y-75711758D01*
X206624899Y-75650471D01*
X206491745Y-75561501D01*
X206378499Y-75448255D01*
X206289529Y-75315101D01*
X206228242Y-75167142D01*
X206197000Y-75010075D01*
X206197000Y-74849925D01*
X206228242Y-74692858D01*
X206289529Y-74544899D01*
X206378499Y-74411745D01*
X206491745Y-74298499D01*
X206624899Y-74209529D01*
X206772858Y-74148242D01*
X206929925Y-74117000D01*
X207090075Y-74117000D01*
X207247142Y-74148242D01*
G37*
G36*
X209787142Y-74148242D02*
G01*
X209935101Y-74209529D01*
X210068255Y-74298499D01*
X210181501Y-74411745D01*
X210270471Y-74544899D01*
X210331758Y-74692858D01*
X210363000Y-74849925D01*
X210363000Y-75010075D01*
X210331758Y-75167142D01*
X210270471Y-75315101D01*
X210181501Y-75448255D01*
X210068255Y-75561501D01*
X209935101Y-75650471D01*
X209787142Y-75711758D01*
X209630075Y-75743000D01*
X209469925Y-75743000D01*
X209312858Y-75711758D01*
X209164899Y-75650471D01*
X209031745Y-75561501D01*
X208918499Y-75448255D01*
X208829529Y-75315101D01*
X208768242Y-75167142D01*
X208737000Y-75010075D01*
X208737000Y-74849925D01*
X208768242Y-74692858D01*
X208829529Y-74544899D01*
X208918499Y-74411745D01*
X209031745Y-74298499D01*
X209164899Y-74209529D01*
X209312858Y-74148242D01*
X209469925Y-74117000D01*
X209630075Y-74117000D01*
X209787142Y-74148242D01*
G37*
G36*
X217407142Y-74148242D02*
G01*
X217555101Y-74209529D01*
X217688255Y-74298499D01*
X217801501Y-74411745D01*
X217890471Y-74544899D01*
X217951758Y-74692858D01*
X217983000Y-74849925D01*
X217983000Y-75010075D01*
X217951758Y-75167142D01*
X217890471Y-75315101D01*
X217801501Y-75448255D01*
X217688255Y-75561501D01*
X217555101Y-75650471D01*
X217407142Y-75711758D01*
X217250075Y-75743000D01*
X217089925Y-75743000D01*
X216932858Y-75711758D01*
X216784899Y-75650471D01*
X216651745Y-75561501D01*
X216538499Y-75448255D01*
X216449529Y-75315101D01*
X216388242Y-75167142D01*
X216357000Y-75010075D01*
X216357000Y-74849925D01*
X216388242Y-74692858D01*
X216449529Y-74544899D01*
X216538499Y-74411745D01*
X216651745Y-74298499D01*
X216784899Y-74209529D01*
X216932858Y-74148242D01*
X217089925Y-74117000D01*
X217250075Y-74117000D01*
X217407142Y-74148242D01*
G37*
G36*
X219947142Y-74148242D02*
G01*
X220095101Y-74209529D01*
X220228255Y-74298499D01*
X220341501Y-74411745D01*
X220430471Y-74544899D01*
X220491758Y-74692858D01*
X220523000Y-74849925D01*
X220523000Y-75010075D01*
X220491758Y-75167142D01*
X220430471Y-75315101D01*
X220341501Y-75448255D01*
X220228255Y-75561501D01*
X220095101Y-75650471D01*
X219947142Y-75711758D01*
X219790075Y-75743000D01*
X219629925Y-75743000D01*
X219472858Y-75711758D01*
X219324899Y-75650471D01*
X219191745Y-75561501D01*
X219078499Y-75448255D01*
X218989529Y-75315101D01*
X218928242Y-75167142D01*
X218897000Y-75010075D01*
X218897000Y-74849925D01*
X218928242Y-74692858D01*
X218989529Y-74544899D01*
X219078499Y-74411745D01*
X219191745Y-74298499D01*
X219324899Y-74209529D01*
X219472858Y-74148242D01*
X219629925Y-74117000D01*
X219790075Y-74117000D01*
X219947142Y-74148242D01*
G37*
G36*
X192007142Y-74148242D02*
G01*
X192155101Y-74209529D01*
X192288255Y-74298499D01*
X192401501Y-74411745D01*
X192490471Y-74544899D01*
X192551758Y-74692858D01*
X192583000Y-74849925D01*
X192583000Y-75010075D01*
X192551758Y-75167142D01*
X192490471Y-75315101D01*
X192401501Y-75448255D01*
X192288255Y-75561501D01*
X192155101Y-75650471D01*
X192007142Y-75711758D01*
X191850075Y-75743000D01*
X191689925Y-75743000D01*
X191532858Y-75711758D01*
X191384899Y-75650471D01*
X191251745Y-75561501D01*
X191138499Y-75448255D01*
X191049529Y-75315101D01*
X190988242Y-75167142D01*
X190957000Y-75010075D01*
X190957000Y-74849925D01*
X190988242Y-74692858D01*
X191049529Y-74544899D01*
X191138499Y-74411745D01*
X191251745Y-74298499D01*
X191384899Y-74209529D01*
X191532858Y-74148242D01*
X191689925Y-74117000D01*
X191850075Y-74117000D01*
X192007142Y-74148242D01*
G37*
G36*
X222487142Y-74148242D02*
G01*
X222635101Y-74209529D01*
X222768255Y-74298499D01*
X222881501Y-74411745D01*
X222970471Y-74544899D01*
X223031758Y-74692858D01*
X223063000Y-74849925D01*
X223063000Y-75010075D01*
X223031758Y-75167142D01*
X222970471Y-75315101D01*
X222881501Y-75448255D01*
X222768255Y-75561501D01*
X222635101Y-75650471D01*
X222487142Y-75711758D01*
X222330075Y-75743000D01*
X222169925Y-75743000D01*
X222012858Y-75711758D01*
X221864899Y-75650471D01*
X221731745Y-75561501D01*
X221618499Y-75448255D01*
X221529529Y-75315101D01*
X221468242Y-75167142D01*
X221437000Y-75010075D01*
X221437000Y-74849925D01*
X221468242Y-74692858D01*
X221529529Y-74544899D01*
X221618499Y-74411745D01*
X221731745Y-74298499D01*
X221864899Y-74209529D01*
X222012858Y-74148242D01*
X222169925Y-74117000D01*
X222330075Y-74117000D01*
X222487142Y-74148242D01*
G37*
G36*
X225027142Y-74148242D02*
G01*
X225175101Y-74209529D01*
X225308255Y-74298499D01*
X225421501Y-74411745D01*
X225510471Y-74544899D01*
X225571758Y-74692858D01*
X225603000Y-74849925D01*
X225603000Y-75010075D01*
X225571758Y-75167142D01*
X225510471Y-75315101D01*
X225421501Y-75448255D01*
X225308255Y-75561501D01*
X225175101Y-75650471D01*
X225027142Y-75711758D01*
X224870075Y-75743000D01*
X224709925Y-75743000D01*
X224552858Y-75711758D01*
X224404899Y-75650471D01*
X224271745Y-75561501D01*
X224158499Y-75448255D01*
X224069529Y-75315101D01*
X224008242Y-75167142D01*
X223977000Y-75010075D01*
X223977000Y-74849925D01*
X224008242Y-74692858D01*
X224069529Y-74544899D01*
X224158499Y-74411745D01*
X224271745Y-74298499D01*
X224404899Y-74209529D01*
X224552858Y-74148242D01*
X224709925Y-74117000D01*
X224870075Y-74117000D01*
X225027142Y-74148242D01*
G37*
G36*
X204707142Y-74148242D02*
G01*
X204855101Y-74209529D01*
X204988255Y-74298499D01*
X205101501Y-74411745D01*
X205190471Y-74544899D01*
X205251758Y-74692858D01*
X205283000Y-74849925D01*
X205283000Y-75010075D01*
X205251758Y-75167142D01*
X205190471Y-75315101D01*
X205101501Y-75448255D01*
X204988255Y-75561501D01*
X204855101Y-75650471D01*
X204707142Y-75711758D01*
X204550075Y-75743000D01*
X204389925Y-75743000D01*
X204232858Y-75711758D01*
X204084899Y-75650471D01*
X203951745Y-75561501D01*
X203838499Y-75448255D01*
X203749529Y-75315101D01*
X203688242Y-75167142D01*
X203657000Y-75010075D01*
X203657000Y-74849925D01*
X203688242Y-74692858D01*
X203749529Y-74544899D01*
X203838499Y-74411745D01*
X203951745Y-74298499D01*
X204084899Y-74209529D01*
X204232858Y-74148242D01*
X204389925Y-74117000D01*
X204550075Y-74117000D01*
X204707142Y-74148242D01*
G37*
G36*
X212327142Y-74148242D02*
G01*
X212475101Y-74209529D01*
X212608255Y-74298499D01*
X212721501Y-74411745D01*
X212810471Y-74544899D01*
X212871758Y-74692858D01*
X212903000Y-74849925D01*
X212903000Y-75010075D01*
X212871758Y-75167142D01*
X212810471Y-75315101D01*
X212721501Y-75448255D01*
X212608255Y-75561501D01*
X212475101Y-75650471D01*
X212327142Y-75711758D01*
X212170075Y-75743000D01*
X212009925Y-75743000D01*
X211852858Y-75711758D01*
X211704899Y-75650471D01*
X211571745Y-75561501D01*
X211458499Y-75448255D01*
X211369529Y-75315101D01*
X211308242Y-75167142D01*
X211277000Y-75010075D01*
X211277000Y-74849925D01*
X211308242Y-74692858D01*
X211369529Y-74544899D01*
X211458499Y-74411745D01*
X211571745Y-74298499D01*
X211704899Y-74209529D01*
X211852858Y-74148242D01*
X212009925Y-74117000D01*
X212170075Y-74117000D01*
X212327142Y-74148242D01*
G37*
G36*
X84126564Y-72649389D02*
G01*
X84317833Y-72728615D01*
X84317835Y-72728616D01*
X84489973Y-72843635D01*
X84636365Y-72990027D01*
X84751385Y-73162167D01*
X84830611Y-73353436D01*
X84871000Y-73556484D01*
X84871000Y-73763516D01*
X84830611Y-73966564D01*
X84755358Y-74148242D01*
X84751384Y-74157835D01*
X84636365Y-74329973D01*
X84489973Y-74476365D01*
X84317835Y-74591384D01*
X84317834Y-74591385D01*
X84317833Y-74591385D01*
X84126564Y-74670611D01*
X83923516Y-74711000D01*
X83716484Y-74711000D01*
X83513436Y-74670611D01*
X83322167Y-74591385D01*
X83322166Y-74591385D01*
X83322165Y-74591384D01*
X83150027Y-74476365D01*
X83003635Y-74329973D01*
X82888616Y-74157835D01*
X82884642Y-74148242D01*
X82809389Y-73966564D01*
X82769000Y-73763516D01*
X82769000Y-73556484D01*
X82809389Y-73353436D01*
X82888615Y-73162167D01*
X83003635Y-72990027D01*
X83150027Y-72843635D01*
X83322165Y-72728616D01*
X83322167Y-72728615D01*
X83513436Y-72649389D01*
X83716484Y-72609000D01*
X83923516Y-72609000D01*
X84126564Y-72649389D01*
G37*
G36*
X203506564Y-66934389D02*
G01*
X203697833Y-67013615D01*
X203697835Y-67013616D01*
X203869973Y-67128635D01*
X204016365Y-67275027D01*
X204131385Y-67447167D01*
X204210611Y-67638436D01*
X204251000Y-67841484D01*
X204251000Y-68048516D01*
X204210611Y-68251564D01*
X204131385Y-68442833D01*
X204131384Y-68442835D01*
X204016365Y-68614973D01*
X203869973Y-68761365D01*
X203697835Y-68876384D01*
X203697834Y-68876385D01*
X203697833Y-68876385D01*
X203506564Y-68955611D01*
X203303516Y-68996000D01*
X203096484Y-68996000D01*
X202893436Y-68955611D01*
X202702167Y-68876385D01*
X202702166Y-68876385D01*
X202702165Y-68876384D01*
X202530027Y-68761365D01*
X202383635Y-68614973D01*
X202268616Y-68442835D01*
X202268615Y-68442833D01*
X202189389Y-68251564D01*
X202149000Y-68048516D01*
X202149000Y-67841484D01*
X202189389Y-67638436D01*
X202268615Y-67447167D01*
X202383635Y-67275027D01*
X202530027Y-67128635D01*
X202702165Y-67013616D01*
X202702167Y-67013615D01*
X202893436Y-66934389D01*
X203096484Y-66894000D01*
X203303516Y-66894000D01*
X203506564Y-66934389D01*
G37*
G36*
X203506564Y-64394389D02*
G01*
X203697833Y-64473615D01*
X203697835Y-64473616D01*
X203813608Y-64550973D01*
X203869973Y-64588635D01*
X204016365Y-64735027D01*
X204131385Y-64907167D01*
X204210611Y-65098436D01*
X204251000Y-65301484D01*
X204251000Y-65508516D01*
X204210611Y-65711564D01*
X204131385Y-65902833D01*
X204131384Y-65902835D01*
X204016365Y-66074973D01*
X203869973Y-66221365D01*
X203697835Y-66336384D01*
X203697834Y-66336385D01*
X203697833Y-66336385D01*
X203506564Y-66415611D01*
X203303516Y-66456000D01*
X203096484Y-66456000D01*
X202893436Y-66415611D01*
X202702167Y-66336385D01*
X202702166Y-66336385D01*
X202702165Y-66336384D01*
X202530027Y-66221365D01*
X202383635Y-66074973D01*
X202268616Y-65902835D01*
X202268615Y-65902833D01*
X202189389Y-65711564D01*
X202149000Y-65508516D01*
X202149000Y-65301484D01*
X202189389Y-65098436D01*
X202268615Y-64907167D01*
X202383635Y-64735027D01*
X202530027Y-64588635D01*
X202586392Y-64550973D01*
X202702165Y-64473616D01*
X202702167Y-64473615D01*
X202893436Y-64394389D01*
X203096484Y-64354000D01*
X203303516Y-64354000D01*
X203506564Y-64394389D01*
G37*
G36*
X119813564Y-62870389D02*
G01*
X120004833Y-62949615D01*
X120004835Y-62949616D01*
X120176973Y-63064635D01*
X120323365Y-63211027D01*
X120424799Y-63362833D01*
X120438385Y-63383167D01*
X120517611Y-63574436D01*
X120558000Y-63777484D01*
X120558000Y-63984516D01*
X120517611Y-64187564D01*
X120448671Y-64354000D01*
X120438384Y-64378835D01*
X120323365Y-64550973D01*
X120176973Y-64697365D01*
X120004835Y-64812384D01*
X120004834Y-64812385D01*
X120004833Y-64812385D01*
X119813564Y-64891611D01*
X119610516Y-64932000D01*
X119403484Y-64932000D01*
X119200436Y-64891611D01*
X119009167Y-64812385D01*
X119009166Y-64812385D01*
X119009165Y-64812384D01*
X118837027Y-64697365D01*
X118690635Y-64550973D01*
X118575616Y-64378835D01*
X118565329Y-64354000D01*
X118496389Y-64187564D01*
X118456000Y-63984516D01*
X118456000Y-63777484D01*
X118496389Y-63574436D01*
X118575615Y-63383167D01*
X118589202Y-63362833D01*
X118690635Y-63211027D01*
X118837027Y-63064635D01*
X119009165Y-62949616D01*
X119009167Y-62949615D01*
X119200436Y-62870389D01*
X119403484Y-62830000D01*
X119610516Y-62830000D01*
X119813564Y-62870389D01*
G37*
G36*
X203506564Y-61854389D02*
G01*
X203697833Y-61933615D01*
X203697835Y-61933616D01*
X203869973Y-62048635D01*
X204016365Y-62195027D01*
X204131385Y-62367167D01*
X204210611Y-62558436D01*
X204251000Y-62761484D01*
X204251000Y-62968516D01*
X204210611Y-63171564D01*
X204131385Y-63362833D01*
X204131384Y-63362835D01*
X204016365Y-63534973D01*
X203869973Y-63681365D01*
X203697835Y-63796384D01*
X203697834Y-63796385D01*
X203697833Y-63796385D01*
X203506564Y-63875611D01*
X203303516Y-63916000D01*
X203096484Y-63916000D01*
X202893436Y-63875611D01*
X202702167Y-63796385D01*
X202702166Y-63796385D01*
X202702165Y-63796384D01*
X202530027Y-63681365D01*
X202383635Y-63534973D01*
X202268616Y-63362835D01*
X202268615Y-63362833D01*
X202189389Y-63171564D01*
X202149000Y-62968516D01*
X202149000Y-62761484D01*
X202189389Y-62558436D01*
X202268615Y-62367167D01*
X202383635Y-62195027D01*
X202530027Y-62048635D01*
X202702165Y-61933616D01*
X202702167Y-61933615D01*
X202893436Y-61854389D01*
X203096484Y-61814000D01*
X203303516Y-61814000D01*
X203506564Y-61854389D01*
G37*
G36*
X120558000Y-62392000D02*
G01*
X118456000Y-62392000D01*
X118456000Y-60290000D01*
X120558000Y-60290000D01*
X120558000Y-62392000D01*
G37*
G36*
X203506564Y-59314389D02*
G01*
X203595880Y-59351385D01*
X203697835Y-59393616D01*
X203753200Y-59430610D01*
X203869973Y-59508635D01*
X204016365Y-59655027D01*
X204131385Y-59827167D01*
X204210611Y-60018436D01*
X204251000Y-60221484D01*
X204251000Y-60428516D01*
X204210611Y-60631564D01*
X204131385Y-60822833D01*
X204131384Y-60822835D01*
X204016365Y-60994973D01*
X203869973Y-61141365D01*
X203697835Y-61256384D01*
X203697834Y-61256385D01*
X203697833Y-61256385D01*
X203506564Y-61335611D01*
X203303516Y-61376000D01*
X203096484Y-61376000D01*
X202893436Y-61335611D01*
X202702167Y-61256385D01*
X202702166Y-61256385D01*
X202702165Y-61256384D01*
X202530027Y-61141365D01*
X202383635Y-60994973D01*
X202268616Y-60822835D01*
X202268615Y-60822833D01*
X202189389Y-60631564D01*
X202149000Y-60428516D01*
X202149000Y-60221484D01*
X202189389Y-60018436D01*
X202268615Y-59827167D01*
X202383635Y-59655027D01*
X202530027Y-59508635D01*
X202646800Y-59430610D01*
X202702165Y-59393616D01*
X202804120Y-59351385D01*
X202893436Y-59314389D01*
X203096484Y-59274000D01*
X203303516Y-59274000D01*
X203506564Y-59314389D01*
G37*
G36*
X105191000Y-59471000D02*
G01*
X103089000Y-59471000D01*
X103089000Y-57369000D01*
X105191000Y-57369000D01*
X105191000Y-59471000D01*
G37*
G36*
X109526564Y-57409389D02*
G01*
X109717833Y-57488615D01*
X109717835Y-57488616D01*
X109889973Y-57603635D01*
X110036365Y-57750027D01*
X110151385Y-57922167D01*
X110230611Y-58113436D01*
X110271000Y-58316484D01*
X110271000Y-58523516D01*
X110230611Y-58726564D01*
X110185281Y-58836000D01*
X110151384Y-58917835D01*
X110036365Y-59089973D01*
X109889973Y-59236365D01*
X109717835Y-59351384D01*
X109717834Y-59351385D01*
X109717833Y-59351385D01*
X109526564Y-59430611D01*
X109323516Y-59471000D01*
X109116484Y-59471000D01*
X108913436Y-59430611D01*
X108722167Y-59351385D01*
X108722166Y-59351385D01*
X108722165Y-59351384D01*
X108550027Y-59236365D01*
X108403635Y-59089973D01*
X108288616Y-58917835D01*
X108254719Y-58836000D01*
X108209389Y-58726564D01*
X108169000Y-58523516D01*
X108169000Y-58316484D01*
X108209389Y-58113436D01*
X108288615Y-57922167D01*
X108403635Y-57750027D01*
X108550027Y-57603635D01*
X108722165Y-57488616D01*
X108722167Y-57488615D01*
X108913436Y-57409389D01*
X109116484Y-57369000D01*
X109323516Y-57369000D01*
X109526564Y-57409389D01*
G37*
G36*
X76506564Y-57409389D02*
G01*
X76697833Y-57488615D01*
X76697835Y-57488616D01*
X76869973Y-57603635D01*
X77016365Y-57750027D01*
X77131385Y-57922167D01*
X77210611Y-58113436D01*
X77251000Y-58316484D01*
X77251000Y-58523516D01*
X77210611Y-58726564D01*
X77165281Y-58836000D01*
X77131384Y-58917835D01*
X77016365Y-59089973D01*
X76869973Y-59236365D01*
X76697835Y-59351384D01*
X76697834Y-59351385D01*
X76697833Y-59351385D01*
X76506564Y-59430611D01*
X76303516Y-59471000D01*
X76096484Y-59471000D01*
X75893436Y-59430611D01*
X75702167Y-59351385D01*
X75702166Y-59351385D01*
X75702165Y-59351384D01*
X75530027Y-59236365D01*
X75383635Y-59089973D01*
X75268616Y-58917835D01*
X75234719Y-58836000D01*
X75189389Y-58726564D01*
X75149000Y-58523516D01*
X75149000Y-58316484D01*
X75189389Y-58113436D01*
X75268615Y-57922167D01*
X75383635Y-57750027D01*
X75530027Y-57603635D01*
X75702165Y-57488616D01*
X75702167Y-57488615D01*
X75893436Y-57409389D01*
X76096484Y-57369000D01*
X76303516Y-57369000D01*
X76506564Y-57409389D01*
G37*
G36*
X81586564Y-57409389D02*
G01*
X81777833Y-57488615D01*
X81777835Y-57488616D01*
X81949973Y-57603635D01*
X82096365Y-57750027D01*
X82211385Y-57922167D01*
X82290611Y-58113436D01*
X82331000Y-58316484D01*
X82331000Y-58523516D01*
X82290611Y-58726564D01*
X82245281Y-58836000D01*
X82211384Y-58917835D01*
X82096365Y-59089973D01*
X81949973Y-59236365D01*
X81777835Y-59351384D01*
X81777834Y-59351385D01*
X81777833Y-59351385D01*
X81586564Y-59430611D01*
X81383516Y-59471000D01*
X81176484Y-59471000D01*
X80973436Y-59430611D01*
X80782167Y-59351385D01*
X80782166Y-59351385D01*
X80782165Y-59351384D01*
X80610027Y-59236365D01*
X80463635Y-59089973D01*
X80348616Y-58917835D01*
X80314719Y-58836000D01*
X80269389Y-58726564D01*
X80229000Y-58523516D01*
X80229000Y-58316484D01*
X80269389Y-58113436D01*
X80348615Y-57922167D01*
X80463635Y-57750027D01*
X80610027Y-57603635D01*
X80782165Y-57488616D01*
X80782167Y-57488615D01*
X80973436Y-57409389D01*
X81176484Y-57369000D01*
X81383516Y-57369000D01*
X81586564Y-57409389D01*
G37*
G36*
X203506564Y-56774389D02*
G01*
X203697833Y-56853615D01*
X203697835Y-56853616D01*
X203869973Y-56968635D01*
X204016365Y-57115027D01*
X204131385Y-57287167D01*
X204210611Y-57478436D01*
X204251000Y-57681484D01*
X204251000Y-57888516D01*
X204210611Y-58091564D01*
X204201551Y-58113436D01*
X204131384Y-58282835D01*
X204016365Y-58454973D01*
X203869973Y-58601365D01*
X203697835Y-58716384D01*
X203697834Y-58716385D01*
X203697833Y-58716385D01*
X203506564Y-58795611D01*
X203303516Y-58836000D01*
X203096484Y-58836000D01*
X202893436Y-58795611D01*
X202702167Y-58716385D01*
X202702166Y-58716385D01*
X202702165Y-58716384D01*
X202530027Y-58601365D01*
X202383635Y-58454973D01*
X202268616Y-58282835D01*
X202198449Y-58113436D01*
X202189389Y-58091564D01*
X202149000Y-57888516D01*
X202149000Y-57681484D01*
X202189389Y-57478436D01*
X202268615Y-57287167D01*
X202383635Y-57115027D01*
X202530027Y-56968635D01*
X202702165Y-56853616D01*
X202702167Y-56853615D01*
X202893436Y-56774389D01*
X203096484Y-56734000D01*
X203303516Y-56734000D01*
X203506564Y-56774389D01*
G37*
G36*
X203506564Y-54234389D02*
G01*
X203697833Y-54313615D01*
X203697835Y-54313616D01*
X203776480Y-54366165D01*
X203869973Y-54428635D01*
X204016365Y-54575027D01*
X204131385Y-54747167D01*
X204210611Y-54938436D01*
X204251000Y-55141484D01*
X204251000Y-55348516D01*
X204210611Y-55551564D01*
X204157260Y-55680365D01*
X204131384Y-55742835D01*
X204016365Y-55914973D01*
X203869973Y-56061365D01*
X203697835Y-56176384D01*
X203697834Y-56176385D01*
X203697833Y-56176385D01*
X203506564Y-56255611D01*
X203303516Y-56296000D01*
X203096484Y-56296000D01*
X202893436Y-56255611D01*
X202702167Y-56176385D01*
X202702166Y-56176385D01*
X202702165Y-56176384D01*
X202530027Y-56061365D01*
X202383635Y-55914973D01*
X202268616Y-55742835D01*
X202242740Y-55680365D01*
X202189389Y-55551564D01*
X202149000Y-55348516D01*
X202149000Y-55141484D01*
X202189389Y-54938436D01*
X202268615Y-54747167D01*
X202383635Y-54575027D01*
X202530027Y-54428635D01*
X202623520Y-54366165D01*
X202702165Y-54313616D01*
X202702167Y-54313615D01*
X202893436Y-54234389D01*
X203096484Y-54194000D01*
X203303516Y-54194000D01*
X203506564Y-54234389D01*
G37*
G36*
X136704564Y-53853389D02*
G01*
X136895833Y-53932615D01*
X136895835Y-53932616D01*
X137067973Y-54047635D01*
X137214365Y-54194027D01*
X137329385Y-54366167D01*
X137408611Y-54557436D01*
X137449000Y-54760484D01*
X137449000Y-54967516D01*
X137408611Y-55170564D01*
X137334902Y-55348514D01*
X137329384Y-55361835D01*
X137214365Y-55533973D01*
X137067973Y-55680365D01*
X136895835Y-55795384D01*
X136895834Y-55795385D01*
X136895833Y-55795385D01*
X136704564Y-55874611D01*
X136501516Y-55915000D01*
X136294484Y-55915000D01*
X136091436Y-55874611D01*
X135900167Y-55795385D01*
X135900166Y-55795385D01*
X135900165Y-55795384D01*
X135728027Y-55680365D01*
X135581635Y-55533973D01*
X135466616Y-55361835D01*
X135461098Y-55348514D01*
X135387389Y-55170564D01*
X135347000Y-54967516D01*
X135347000Y-54760484D01*
X135387389Y-54557436D01*
X135466615Y-54366167D01*
X135581635Y-54194027D01*
X135728027Y-54047635D01*
X135900165Y-53932616D01*
X135900167Y-53932615D01*
X136091436Y-53853389D01*
X136294484Y-53813000D01*
X136501516Y-53813000D01*
X136704564Y-53853389D01*
G37*
G36*
X139244564Y-53853389D02*
G01*
X139435833Y-53932615D01*
X139435835Y-53932616D01*
X139607973Y-54047635D01*
X139754365Y-54194027D01*
X139869385Y-54366167D01*
X139948611Y-54557436D01*
X139989000Y-54760484D01*
X139989000Y-54967516D01*
X139948611Y-55170564D01*
X139874902Y-55348514D01*
X139869384Y-55361835D01*
X139754365Y-55533973D01*
X139607973Y-55680365D01*
X139435835Y-55795384D01*
X139435834Y-55795385D01*
X139435833Y-55795385D01*
X139244564Y-55874611D01*
X139041516Y-55915000D01*
X138834484Y-55915000D01*
X138631436Y-55874611D01*
X138440167Y-55795385D01*
X138440166Y-55795385D01*
X138440165Y-55795384D01*
X138268027Y-55680365D01*
X138121635Y-55533973D01*
X138006616Y-55361835D01*
X138001098Y-55348514D01*
X137927389Y-55170564D01*
X137887000Y-54967516D01*
X137887000Y-54760484D01*
X137927389Y-54557436D01*
X138006615Y-54366167D01*
X138121635Y-54194027D01*
X138268027Y-54047635D01*
X138440165Y-53932616D01*
X138440167Y-53932615D01*
X138631436Y-53853389D01*
X138834484Y-53813000D01*
X139041516Y-53813000D01*
X139244564Y-53853389D01*
G37*
G36*
X134164564Y-53853389D02*
G01*
X134355833Y-53932615D01*
X134355835Y-53932616D01*
X134527973Y-54047635D01*
X134674365Y-54194027D01*
X134789385Y-54366167D01*
X134868611Y-54557436D01*
X134909000Y-54760484D01*
X134909000Y-54967516D01*
X134868611Y-55170564D01*
X134794902Y-55348514D01*
X134789384Y-55361835D01*
X134674365Y-55533973D01*
X134527973Y-55680365D01*
X134355835Y-55795384D01*
X134355834Y-55795385D01*
X134355833Y-55795385D01*
X134164564Y-55874611D01*
X133961516Y-55915000D01*
X133754484Y-55915000D01*
X133551436Y-55874611D01*
X133360167Y-55795385D01*
X133360166Y-55795385D01*
X133360165Y-55795384D01*
X133188027Y-55680365D01*
X133041635Y-55533973D01*
X132926616Y-55361835D01*
X132921098Y-55348514D01*
X132847389Y-55170564D01*
X132807000Y-54967516D01*
X132807000Y-54760484D01*
X132847389Y-54557436D01*
X132926615Y-54366167D01*
X133041635Y-54194027D01*
X133188027Y-54047635D01*
X133360165Y-53932616D01*
X133360167Y-53932615D01*
X133551436Y-53853389D01*
X133754484Y-53813000D01*
X133961516Y-53813000D01*
X134164564Y-53853389D01*
G37*
G36*
X132369000Y-55915000D02*
G01*
X130267000Y-55915000D01*
X130267000Y-53813000D01*
X132369000Y-53813000D01*
X132369000Y-55915000D01*
G37*
G36*
X144324564Y-53853389D02*
G01*
X144515833Y-53932615D01*
X144515835Y-53932616D01*
X144687973Y-54047635D01*
X144834365Y-54194027D01*
X144949385Y-54366167D01*
X145028611Y-54557436D01*
X145069000Y-54760484D01*
X145069000Y-54967516D01*
X145028611Y-55170564D01*
X144954902Y-55348514D01*
X144949384Y-55361835D01*
X144834365Y-55533973D01*
X144687973Y-55680365D01*
X144515835Y-55795384D01*
X144515834Y-55795385D01*
X144515833Y-55795385D01*
X144324564Y-55874611D01*
X144121516Y-55915000D01*
X143914484Y-55915000D01*
X143711436Y-55874611D01*
X143520167Y-55795385D01*
X143520166Y-55795385D01*
X143520165Y-55795384D01*
X143348027Y-55680365D01*
X143201635Y-55533973D01*
X143086616Y-55361835D01*
X143081098Y-55348514D01*
X143007389Y-55170564D01*
X142967000Y-54967516D01*
X142967000Y-54760484D01*
X143007389Y-54557436D01*
X143086615Y-54366167D01*
X143201635Y-54194027D01*
X143348027Y-54047635D01*
X143520165Y-53932616D01*
X143520167Y-53932615D01*
X143711436Y-53853389D01*
X143914484Y-53813000D01*
X144121516Y-53813000D01*
X144324564Y-53853389D01*
G37*
G36*
X141784564Y-53853389D02*
G01*
X141975833Y-53932615D01*
X141975835Y-53932616D01*
X142147973Y-54047635D01*
X142294365Y-54194027D01*
X142409385Y-54366167D01*
X142488611Y-54557436D01*
X142529000Y-54760484D01*
X142529000Y-54967516D01*
X142488611Y-55170564D01*
X142414902Y-55348514D01*
X142409384Y-55361835D01*
X142294365Y-55533973D01*
X142147973Y-55680365D01*
X141975835Y-55795384D01*
X141975834Y-55795385D01*
X141975833Y-55795385D01*
X141784564Y-55874611D01*
X141581516Y-55915000D01*
X141374484Y-55915000D01*
X141171436Y-55874611D01*
X140980167Y-55795385D01*
X140980166Y-55795385D01*
X140980165Y-55795384D01*
X140808027Y-55680365D01*
X140661635Y-55533973D01*
X140546616Y-55361835D01*
X140541098Y-55348514D01*
X140467389Y-55170564D01*
X140427000Y-54967516D01*
X140427000Y-54760484D01*
X140467389Y-54557436D01*
X140546615Y-54366167D01*
X140661635Y-54194027D01*
X140808027Y-54047635D01*
X140980165Y-53932616D01*
X140980167Y-53932615D01*
X141171436Y-53853389D01*
X141374484Y-53813000D01*
X141581516Y-53813000D01*
X141784564Y-53853389D01*
G37*
G36*
X213666564Y-52964389D02*
G01*
X213857833Y-53043615D01*
X213857835Y-53043616D01*
X214029973Y-53158635D01*
X214176365Y-53305027D01*
X214291385Y-53477167D01*
X214370611Y-53668436D01*
X214411000Y-53871484D01*
X214411000Y-54078516D01*
X214370611Y-54281564D01*
X214335568Y-54366165D01*
X214291384Y-54472835D01*
X214176365Y-54644973D01*
X214029973Y-54791365D01*
X213857835Y-54906384D01*
X213857834Y-54906385D01*
X213857833Y-54906385D01*
X213666564Y-54985611D01*
X213463516Y-55026000D01*
X213256484Y-55026000D01*
X213053436Y-54985611D01*
X212862167Y-54906385D01*
X212862166Y-54906385D01*
X212862165Y-54906384D01*
X212690027Y-54791365D01*
X212543635Y-54644973D01*
X212428616Y-54472835D01*
X212384432Y-54366165D01*
X212349389Y-54281564D01*
X212309000Y-54078516D01*
X212309000Y-53871484D01*
X212349389Y-53668436D01*
X212428615Y-53477167D01*
X212543635Y-53305027D01*
X212690027Y-53158635D01*
X212862165Y-53043616D01*
X212862167Y-53043615D01*
X213053436Y-52964389D01*
X213256484Y-52924000D01*
X213463516Y-52924000D01*
X213666564Y-52964389D01*
G37*
G36*
X216951000Y-55026000D02*
G01*
X214849000Y-55026000D01*
X214849000Y-52924000D01*
X216951000Y-52924000D01*
X216951000Y-55026000D01*
G37*
M02*
