M48
; DRILL file {KiCad 5.1.5} date Fri 03 Jan 2020 09:13:55 PM EST
; FORMAT={-:-/ absolute / inch / decimal}
; #@! TF.CreationDate,2020-01-03T21:13:55-05:00
; #@! TF.GenerationSoftware,Kicad,Pcbnew,5.1.5
; #@! TF.FileFunction,Plated,1,2,PTH
FMAT,2
INCH
T1C0.0157
T2C0.0394
T3C0.0472
T4C0.0551
T5C0.0591
%
G90
G05
T1
X8.8465Y-2.7874
T2
X3.3Y-2.9
X3.3Y-3.1
X4.35Y-3.1
X4.35Y-3.3
X4.35Y-3.5
X3.0Y-2.3
X3.2Y-2.3
X4.1Y-2.3
X4.3Y-2.3
X7.55Y-2.95
X7.55Y-3.55
X7.65Y-2.95
X7.65Y-3.55
X7.75Y-2.95
X7.75Y-3.55
X7.85Y-2.95
X7.85Y-3.55
X7.95Y-2.95
X7.95Y-3.55
X8.05Y-2.95
X8.05Y-3.55
X8.15Y-2.95
X8.15Y-3.55
X8.25Y-2.95
X8.25Y-3.55
X8.35Y-2.95
X8.35Y-3.55
X8.45Y-2.95
X8.45Y-3.55
X8.55Y-2.95
X8.55Y-3.55
X8.65Y-2.95
X8.65Y-3.55
X8.75Y-2.95
X8.75Y-3.55
X8.85Y-2.95
X8.85Y-3.55
X4.705Y-2.415
X4.705Y-2.515
X4.8Y-3.725
X5.17Y-2.16
X5.2Y-3.725
X5.27Y-2.16
X5.37Y-2.16
X5.4Y-3.725
X5.47Y-2.16
X5.57Y-2.16
X5.67Y-2.16
X5.8Y-3.725
X6.1Y-3.725
X6.5Y-3.725
X6.7Y-3.725
X7.1Y-3.725
X7.65Y-3.75
X7.65Y-3.85
X7.75Y-3.75
X7.75Y-3.85
X7.85Y-3.75
X7.85Y-3.85
X7.95Y-3.75
X7.95Y-3.85
X8.05Y-3.75
X8.05Y-3.85
X3.3Y-3.75
X3.5Y-3.75
T3
X8.0Y-2.175
X8.0Y-2.275
X8.0Y-2.375
X8.0Y-2.475
X8.0Y-2.575
X8.0Y-2.675
X8.4Y-2.125
X8.5Y-2.125
T4
X3.75Y-3.8
X3.9469Y-3.8
T5
X5.0Y-3.725
X5.6Y-3.725
X6.3Y-3.725
X6.9Y-3.725
T0
M30
