G04 #@! TF.GenerationSoftware,KiCad,Pcbnew,5.1.5*
G04 #@! TF.CreationDate,2020-01-03T21:14:40-05:00*
G04 #@! TF.ProjectId,Poofer Control,506f6f66-6572-4204-936f-6e74726f6c2e,rev?*
G04 #@! TF.SameCoordinates,Original*
G04 #@! TF.FileFunction,Copper,L2,Bot*
G04 #@! TF.FilePolarity,Positive*
%FSLAX46Y46*%
G04 Gerber Fmt 4.6, Leading zero omitted, Abs format (unit mm)*
G04 Created by KiCad (PCBNEW 5.1.5) date 2020-01-03 21:14:40*
%MOMM*%
%LPD*%
G04 APERTURE LIST*
%ADD10C,2.000000*%
%ADD11R,2.000000X2.000000*%
%ADD12C,3.000000*%
%ADD13O,1.980000X3.960000*%
%ADD14R,1.980000X3.960000*%
%ADD15C,1.524000*%
%ADD16O,2.000000X2.000000*%
%ADD17C,1.700000*%
%ADD18O,1.700000X1.700000*%
%ADD19C,0.800000*%
%ADD20C,0.250000*%
%ADD21C,1.000000*%
%ADD22C,4.000000*%
%ADD23C,2.000000*%
G04 APERTURE END LIST*
D10*
X144018000Y-54864000D03*
X141478000Y-54864000D03*
X138938000Y-54864000D03*
X136398000Y-54864000D03*
X133858000Y-54864000D03*
D11*
X131318000Y-54864000D03*
D10*
X119507000Y-63881000D03*
D11*
X119507000Y-61341000D03*
D10*
X147320000Y-94615000D03*
D12*
X142240000Y-94615000D03*
D10*
X137160000Y-94615000D03*
X132080000Y-94615000D03*
D12*
X127000000Y-94615000D03*
D10*
X121920000Y-94615000D03*
X154940000Y-94615000D03*
D12*
X160020000Y-94615000D03*
D10*
X165100000Y-94615000D03*
X170180000Y-94615000D03*
D12*
X175260000Y-94615000D03*
D10*
X180340000Y-94615000D03*
D13*
X100250000Y-96520000D03*
D14*
X95250000Y-96520000D03*
D10*
X110490000Y-78740000D03*
D15*
X110490000Y-83820000D03*
D11*
X110490000Y-88900000D03*
D10*
X83820000Y-78740000D03*
X83820000Y-73660000D03*
D15*
X191770000Y-74930000D03*
X194310000Y-74930000D03*
X196850000Y-74930000D03*
X199390000Y-74930000D03*
X201930000Y-74930000D03*
X204470000Y-74930000D03*
X207010000Y-74930000D03*
X209550000Y-74930000D03*
X212090000Y-74930000D03*
X214630000Y-74930000D03*
X217170000Y-74930000D03*
X219710000Y-74930000D03*
X222250000Y-74930000D03*
X224790000Y-74930000D03*
X224790000Y-90170000D03*
X222250000Y-90170000D03*
X219710000Y-90170000D03*
X217170000Y-90170000D03*
X214630000Y-90170000D03*
X212090000Y-90170000D03*
X209550000Y-90170000D03*
X207010000Y-90170000D03*
X204470000Y-90170000D03*
X201930000Y-90170000D03*
X199390000Y-90170000D03*
X196850000Y-90170000D03*
X194310000Y-90170000D03*
X191770000Y-90170000D03*
D10*
X203200000Y-67945000D03*
X203200000Y-65405000D03*
X203200000Y-62865000D03*
X203200000Y-60325000D03*
X203200000Y-57785000D03*
X203200000Y-55245000D03*
X213360000Y-53975000D03*
D11*
X215900000Y-53975000D03*
D10*
X81280000Y-58420000D03*
X76200000Y-58420000D03*
D11*
X104140000Y-58420000D03*
D10*
X109220000Y-58420000D03*
D16*
X88900000Y-95250000D03*
D11*
X83820000Y-95250000D03*
D17*
X194310000Y-97790000D03*
D18*
X194310000Y-95250000D03*
X196850000Y-97790000D03*
X196850000Y-95250000D03*
X199390000Y-97790000D03*
X199390000Y-95250000D03*
X201930000Y-97790000D03*
X201930000Y-95250000D03*
X204470000Y-97790000D03*
X204470000Y-95250000D03*
D19*
X224700000Y-70800000D03*
D20*
X204470000Y-69215000D02*
X203200000Y-67945000D01*
X204470000Y-74930000D02*
X204470000Y-69215000D01*
X202122370Y-65405000D02*
X200660000Y-66867370D01*
X203200000Y-65405000D02*
X202122370Y-65405000D01*
X200660000Y-73660000D02*
X201930000Y-74930000D01*
X200660000Y-66867370D02*
X200660000Y-73660000D01*
X191770000Y-69215000D02*
X203200000Y-57785000D01*
X191770000Y-74930000D02*
X191770000Y-69215000D01*
X194310000Y-69215000D02*
X203200000Y-60325000D01*
X194310000Y-74930000D02*
X194310000Y-69215000D01*
X212090000Y-74930000D02*
X209550000Y-77470000D01*
X209550000Y-77470000D02*
X187960000Y-77470000D01*
X180340000Y-69850000D02*
X187960000Y-77470000D01*
X185420000Y-80010000D02*
X177800000Y-72390000D01*
X212090000Y-80010000D02*
X185420000Y-80010000D01*
X217170000Y-74930000D02*
X212090000Y-80010000D01*
X194310000Y-90170000D02*
X194310000Y-95250000D01*
X196850000Y-90170000D02*
X196850000Y-95250000D01*
X199390000Y-90170000D02*
X199390000Y-95250000D01*
X201930000Y-90170000D02*
X201930000Y-95250000D01*
X204470000Y-90170000D02*
X204470000Y-95250000D01*
D21*
X215900000Y-52213000D02*
X215900000Y-53975000D01*
X214487000Y-50800000D02*
X215900000Y-52213000D01*
X132080000Y-50800000D02*
X214487000Y-50800000D01*
D22*
X123190000Y-104140000D02*
X113030000Y-104140000D01*
D21*
X83820000Y-95250000D02*
X83820000Y-97100000D01*
X100250000Y-96240000D02*
X100250000Y-95250000D01*
X100250000Y-99500000D02*
X98150000Y-101600000D01*
X100250000Y-96520000D02*
X100250000Y-99500000D01*
X88320000Y-101600000D02*
X86070000Y-99350000D01*
X98150000Y-101600000D02*
X88320000Y-101600000D01*
X83820000Y-97100000D02*
X86070000Y-99350000D01*
D22*
X156972000Y-104140000D02*
X154940000Y-104140000D01*
X160020000Y-103632000D02*
X160528000Y-104140000D01*
X170180000Y-104140000D02*
X160528000Y-104140000D01*
X160020000Y-94615000D02*
X160020000Y-103632000D01*
X160528000Y-104140000D02*
X156972000Y-104140000D01*
X142240000Y-103378000D02*
X141478000Y-104140000D01*
X154940000Y-104140000D02*
X141478000Y-104140000D01*
X142240000Y-94615000D02*
X142240000Y-103378000D01*
X141478000Y-104140000D02*
X138430000Y-104140000D01*
X138430000Y-104140000D02*
X127000000Y-104140000D01*
X127000000Y-104140000D02*
X123190000Y-104140000D01*
X175260000Y-94615000D02*
X175260000Y-103124000D01*
X174244000Y-104140000D02*
X170180000Y-104140000D01*
X175260000Y-103124000D02*
X174244000Y-104140000D01*
D21*
X112252000Y-88900000D02*
X110490000Y-88900000D01*
X119507000Y-81645000D02*
X112252000Y-88900000D01*
X224790000Y-90170000D02*
X224790000Y-88900000D01*
X224790000Y-88900000D02*
X223520000Y-87630000D01*
X223520000Y-87630000D02*
X185420000Y-87630000D01*
X185420000Y-87630000D02*
X172720000Y-74930000D01*
X131318000Y-51562000D02*
X132080000Y-50800000D01*
X131318000Y-55372000D02*
X131318000Y-51562000D01*
D20*
X141478000Y-55372000D02*
X155956000Y-69850000D01*
X155956000Y-69850000D02*
X157480000Y-69850000D01*
X156210000Y-69850000D02*
X157480000Y-69850000D01*
X157480000Y-69850000D02*
X180340000Y-69850000D01*
X186690000Y-78740000D02*
X210820000Y-78740000D01*
X210820000Y-78740000D02*
X214630000Y-74930000D01*
X179070000Y-71120000D02*
X186690000Y-78740000D01*
X138938000Y-55372000D02*
X154686000Y-71120000D01*
X154686000Y-71120000D02*
X179070000Y-71120000D01*
X153416000Y-72390000D02*
X154305000Y-72390000D01*
X136398000Y-55372000D02*
X153416000Y-72390000D01*
X177800000Y-72390000D02*
X154305000Y-72390000D01*
X154305000Y-72390000D02*
X153670000Y-72390000D01*
D21*
X119507000Y-81645000D02*
X119507000Y-63881000D01*
X131318000Y-56626000D02*
X149622000Y-74930000D01*
X131318000Y-54864000D02*
X131318000Y-56626000D01*
X149622000Y-74930000D02*
X149860000Y-74930000D01*
X172720000Y-74930000D02*
X149860000Y-74930000D01*
X104140000Y-56658000D02*
X104140000Y-58420000D01*
X106188000Y-54610000D02*
X104140000Y-56658000D01*
X131318000Y-54864000D02*
X129556000Y-54864000D01*
X129556000Y-54864000D02*
X127270000Y-57150000D01*
X127270000Y-57150000D02*
X114300000Y-57150000D01*
X114300000Y-57150000D02*
X111760000Y-54610000D01*
X111760000Y-54610000D02*
X106188000Y-54610000D01*
D23*
X86260000Y-73660000D02*
X83820000Y-73660000D01*
X88200000Y-75600000D02*
X86260000Y-73660000D01*
X88200000Y-80400000D02*
X88200000Y-75600000D01*
X100250000Y-96520000D02*
X100250000Y-92450000D01*
X100250000Y-92450000D02*
X88200000Y-80400000D01*
X81280000Y-71120000D02*
X81280000Y-58420000D01*
X83820000Y-73660000D02*
X81280000Y-71120000D01*
X83820000Y-82420000D02*
X83820000Y-78740000D01*
X95250000Y-96520000D02*
X95250000Y-93850000D01*
X95250000Y-93850000D02*
X83820000Y-82420000D01*
X76200000Y-73800000D02*
X76200000Y-58420000D01*
X82345787Y-78800000D02*
X81200000Y-78800000D01*
X83820000Y-78740000D02*
X82405787Y-78740000D01*
X81200000Y-78800000D02*
X76200000Y-73800000D01*
X82405787Y-78740000D02*
X82345787Y-78800000D01*
D21*
X93980000Y-95250000D02*
X95250000Y-96520000D01*
X88900000Y-95250000D02*
X93980000Y-95250000D01*
D22*
X113030000Y-104140000D02*
X112840000Y-104140000D01*
X112840000Y-104140000D02*
X105200000Y-96500000D01*
X105200000Y-96500000D02*
X101300000Y-96500000D01*
M02*
