G04 #@! TF.GenerationSoftware,KiCad,Pcbnew,5.1.5*
G04 #@! TF.CreationDate,2020-01-03T21:14:40-05:00*
G04 #@! TF.ProjectId,Poofer Control,506f6f66-6572-4204-936f-6e74726f6c2e,rev?*
G04 #@! TF.SameCoordinates,Original*
G04 #@! TF.FileFunction,Copper,L1,Top*
G04 #@! TF.FilePolarity,Positive*
%FSLAX46Y46*%
G04 Gerber Fmt 4.6, Leading zero omitted, Abs format (unit mm)*
G04 Created by KiCad (PCBNEW 5.1.5) date 2020-01-03 21:14:40*
%MOMM*%
%LPD*%
G04 APERTURE LIST*
%ADD10C,2.000000*%
%ADD11R,2.000000X2.000000*%
%ADD12C,3.000000*%
%ADD13O,1.980000X3.960000*%
%ADD14R,1.980000X3.960000*%
%ADD15C,1.524000*%
%ADD16O,2.000000X2.000000*%
%ADD17C,1.700000*%
%ADD18O,1.700000X1.700000*%
%ADD19C,0.800000*%
%ADD20C,0.250000*%
%ADD21C,4.000000*%
%ADD22C,1.000000*%
%ADD23C,0.254000*%
G04 APERTURE END LIST*
D10*
X144018000Y-54864000D03*
X141478000Y-54864000D03*
X138938000Y-54864000D03*
X136398000Y-54864000D03*
X133858000Y-54864000D03*
D11*
X131318000Y-54864000D03*
D10*
X119507000Y-63881000D03*
D11*
X119507000Y-61341000D03*
D10*
X147320000Y-94615000D03*
D12*
X142240000Y-94615000D03*
D10*
X137160000Y-94615000D03*
X132080000Y-94615000D03*
D12*
X127000000Y-94615000D03*
D10*
X121920000Y-94615000D03*
X154940000Y-94615000D03*
D12*
X160020000Y-94615000D03*
D10*
X165100000Y-94615000D03*
X170180000Y-94615000D03*
D12*
X175260000Y-94615000D03*
D10*
X180340000Y-94615000D03*
D13*
X100250000Y-96520000D03*
D14*
X95250000Y-96520000D03*
D10*
X110490000Y-78740000D03*
D15*
X110490000Y-83820000D03*
D11*
X110490000Y-88900000D03*
D10*
X83820000Y-78740000D03*
X83820000Y-73660000D03*
D15*
X191770000Y-74930000D03*
X194310000Y-74930000D03*
X196850000Y-74930000D03*
X199390000Y-74930000D03*
X201930000Y-74930000D03*
X204470000Y-74930000D03*
X207010000Y-74930000D03*
X209550000Y-74930000D03*
X212090000Y-74930000D03*
X214630000Y-74930000D03*
X217170000Y-74930000D03*
X219710000Y-74930000D03*
X222250000Y-74930000D03*
X224790000Y-74930000D03*
X224790000Y-90170000D03*
X222250000Y-90170000D03*
X219710000Y-90170000D03*
X217170000Y-90170000D03*
X214630000Y-90170000D03*
X212090000Y-90170000D03*
X209550000Y-90170000D03*
X207010000Y-90170000D03*
X204470000Y-90170000D03*
X201930000Y-90170000D03*
X199390000Y-90170000D03*
X196850000Y-90170000D03*
X194310000Y-90170000D03*
X191770000Y-90170000D03*
D10*
X203200000Y-67945000D03*
X203200000Y-65405000D03*
X203200000Y-62865000D03*
X203200000Y-60325000D03*
X203200000Y-57785000D03*
X203200000Y-55245000D03*
X213360000Y-53975000D03*
D11*
X215900000Y-53975000D03*
D10*
X81280000Y-58420000D03*
X76200000Y-58420000D03*
D11*
X104140000Y-58420000D03*
D10*
X109220000Y-58420000D03*
D16*
X88900000Y-95250000D03*
D11*
X83820000Y-95250000D03*
D17*
X194310000Y-97790000D03*
D18*
X194310000Y-95250000D03*
X196850000Y-97790000D03*
X196850000Y-95250000D03*
X199390000Y-97790000D03*
X199390000Y-95250000D03*
X201930000Y-97790000D03*
X201930000Y-95250000D03*
X204470000Y-97790000D03*
X204470000Y-95250000D03*
D19*
X224700000Y-70800000D03*
D20*
X191770000Y-90170000D02*
X189230000Y-90170000D01*
X202122370Y-62865000D02*
X192597370Y-72390000D01*
X203200000Y-62865000D02*
X202122370Y-62865000D01*
X192597370Y-72390000D02*
X190500000Y-72390000D01*
X190500000Y-72390000D02*
X189230000Y-73660000D01*
X189230000Y-73660000D02*
X189230000Y-90170000D01*
D21*
X175260000Y-102940000D02*
X175260000Y-94615000D01*
X174200000Y-104000000D02*
X175260000Y-102940000D01*
X160020000Y-103420000D02*
X160600000Y-104000000D01*
X160020000Y-94615000D02*
X160020000Y-103420000D01*
X160600000Y-104000000D02*
X174200000Y-104000000D01*
X142240000Y-103540000D02*
X142700000Y-104000000D01*
X142240000Y-94615000D02*
X142240000Y-103540000D01*
X112800000Y-104000000D02*
X142700000Y-104000000D01*
X142700000Y-104000000D02*
X160600000Y-104000000D01*
X112800000Y-104000000D02*
X112800000Y-103800000D01*
X112800000Y-103800000D02*
X105400000Y-96400000D01*
X105400000Y-96400000D02*
X101400000Y-96400000D01*
D22*
X224700000Y-74840000D02*
X224790000Y-74930000D01*
X224700000Y-70800000D02*
X224700000Y-74840000D01*
D23*
G36*
X114046130Y-50445540D02*
G01*
X113491160Y-51000510D01*
X113055122Y-51653087D01*
X112754775Y-52378190D01*
X112601659Y-53147957D01*
X112601659Y-53932803D01*
X112754775Y-54702570D01*
X113055122Y-55427673D01*
X113491160Y-56080250D01*
X114046130Y-56635220D01*
X114698707Y-57071258D01*
X115423810Y-57371605D01*
X116193577Y-57524721D01*
X116978423Y-57524721D01*
X117748190Y-57371605D01*
X118473293Y-57071258D01*
X119125870Y-56635220D01*
X119680840Y-56080250D01*
X120116878Y-55427673D01*
X120417225Y-54702570D01*
X120570341Y-53932803D01*
X120570341Y-53864000D01*
X128180709Y-53864000D01*
X128180709Y-55864000D01*
X128221776Y-56280965D01*
X128343401Y-56681906D01*
X128540907Y-57051415D01*
X128806707Y-57375293D01*
X129130585Y-57641093D01*
X129500094Y-57838599D01*
X129901035Y-57960224D01*
X130318000Y-58001291D01*
X132318000Y-58001291D01*
X132734965Y-57960224D01*
X132996479Y-57880894D01*
X133550017Y-57991000D01*
X134165983Y-57991000D01*
X134770112Y-57870831D01*
X135128000Y-57722589D01*
X135485888Y-57870831D01*
X136090017Y-57991000D01*
X136705983Y-57991000D01*
X137310112Y-57870831D01*
X137668000Y-57722589D01*
X138025888Y-57870831D01*
X138630017Y-57991000D01*
X139245983Y-57991000D01*
X139850112Y-57870831D01*
X140208000Y-57722589D01*
X140565888Y-57870831D01*
X141170017Y-57991000D01*
X141785983Y-57991000D01*
X142390112Y-57870831D01*
X142959190Y-57635111D01*
X143471346Y-57292899D01*
X143906899Y-56857346D01*
X144148029Y-56496471D01*
X144399675Y-56461961D01*
X144704088Y-56356795D01*
X144878044Y-56263814D01*
X144973808Y-55999413D01*
X144528910Y-55554515D01*
X144588506Y-55254901D01*
X145153413Y-55819808D01*
X145417814Y-55724044D01*
X145558704Y-55434429D01*
X145640384Y-55122892D01*
X145659718Y-54801405D01*
X145615961Y-54482325D01*
X145510795Y-54177912D01*
X145417814Y-54003956D01*
X145153413Y-53908192D01*
X144588506Y-54473099D01*
X144528910Y-54173485D01*
X144973808Y-53728587D01*
X144878044Y-53464186D01*
X144588429Y-53323296D01*
X144276892Y-53241616D01*
X144149655Y-53233964D01*
X143906899Y-52870654D01*
X143471346Y-52435101D01*
X142959190Y-52092889D01*
X142390112Y-51857169D01*
X141785983Y-51737000D01*
X141170017Y-51737000D01*
X140565888Y-51857169D01*
X140208000Y-52005411D01*
X139850112Y-51857169D01*
X139245983Y-51737000D01*
X138630017Y-51737000D01*
X138025888Y-51857169D01*
X137668000Y-52005411D01*
X137310112Y-51857169D01*
X136705983Y-51737000D01*
X136090017Y-51737000D01*
X135485888Y-51857169D01*
X135128000Y-52005411D01*
X134770112Y-51857169D01*
X134165983Y-51737000D01*
X133550017Y-51737000D01*
X132996479Y-51847106D01*
X132734965Y-51767776D01*
X132318000Y-51726709D01*
X130318000Y-51726709D01*
X129901035Y-51767776D01*
X129500094Y-51889401D01*
X129130585Y-52086907D01*
X128806707Y-52352707D01*
X128540907Y-52676585D01*
X128343401Y-53046094D01*
X128221776Y-53447035D01*
X128180709Y-53864000D01*
X120570341Y-53864000D01*
X120570341Y-53147957D01*
X120417225Y-52378190D01*
X120116878Y-51653087D01*
X119680840Y-51000510D01*
X119125870Y-50445540D01*
X119075674Y-50412000D01*
X183318194Y-50412000D01*
X183187750Y-50499160D01*
X182632780Y-51054130D01*
X182196742Y-51706707D01*
X181896395Y-52431810D01*
X181743279Y-53201577D01*
X181743279Y-53986423D01*
X181896395Y-54756190D01*
X182196742Y-55481293D01*
X182632780Y-56133870D01*
X183187750Y-56688840D01*
X183840327Y-57124878D01*
X184565430Y-57425225D01*
X185335197Y-57578341D01*
X186120043Y-57578341D01*
X186889810Y-57425225D01*
X187614913Y-57124878D01*
X188267490Y-56688840D01*
X188822460Y-56133870D01*
X189258498Y-55481293D01*
X189558845Y-54756190D01*
X189711961Y-53986423D01*
X189711961Y-53201577D01*
X189558845Y-52431810D01*
X189258498Y-51706707D01*
X188822460Y-51054130D01*
X188267490Y-50499160D01*
X188137046Y-50412000D01*
X225178000Y-50412000D01*
X225178001Y-73586911D01*
X224992865Y-73540977D01*
X224790104Y-73531471D01*
X224494033Y-73088370D01*
X224091630Y-72685967D01*
X223618455Y-72369801D01*
X223092690Y-72152022D01*
X222534542Y-72041000D01*
X221965458Y-72041000D01*
X221407310Y-72152022D01*
X220980000Y-72329020D01*
X220552690Y-72152022D01*
X219994542Y-72041000D01*
X219425458Y-72041000D01*
X218867310Y-72152022D01*
X218440000Y-72329020D01*
X218012690Y-72152022D01*
X217454542Y-72041000D01*
X216885458Y-72041000D01*
X216327310Y-72152022D01*
X215900000Y-72329020D01*
X215472690Y-72152022D01*
X214914542Y-72041000D01*
X214345458Y-72041000D01*
X213787310Y-72152022D01*
X213360000Y-72329020D01*
X212932690Y-72152022D01*
X212374542Y-72041000D01*
X211805458Y-72041000D01*
X211247310Y-72152022D01*
X210820000Y-72329020D01*
X210392690Y-72152022D01*
X209834542Y-72041000D01*
X209265458Y-72041000D01*
X208707310Y-72152022D01*
X208280000Y-72329020D01*
X207852690Y-72152022D01*
X207294542Y-72041000D01*
X206725458Y-72041000D01*
X206167310Y-72152022D01*
X205740000Y-72329020D01*
X205312690Y-72152022D01*
X204754542Y-72041000D01*
X204185458Y-72041000D01*
X203627310Y-72152022D01*
X203200000Y-72329020D01*
X202772690Y-72152022D01*
X202214542Y-72041000D01*
X201645458Y-72041000D01*
X201087310Y-72152022D01*
X200660000Y-72329020D01*
X200232690Y-72152022D01*
X199674542Y-72041000D01*
X199105458Y-72041000D01*
X198547310Y-72152022D01*
X198120000Y-72329020D01*
X197692690Y-72152022D01*
X197134542Y-72041000D01*
X196565458Y-72041000D01*
X196023345Y-72148832D01*
X200073000Y-68099178D01*
X200073000Y-68252983D01*
X200193169Y-68857112D01*
X200428889Y-69426190D01*
X200771101Y-69938346D01*
X201206654Y-70373899D01*
X201718810Y-70716111D01*
X202287888Y-70951831D01*
X202892017Y-71072000D01*
X203507983Y-71072000D01*
X204112112Y-70951831D01*
X204681190Y-70716111D01*
X205193346Y-70373899D01*
X205628899Y-69938346D01*
X205971111Y-69426190D01*
X206206831Y-68857112D01*
X206327000Y-68252983D01*
X206327000Y-67637017D01*
X206206831Y-67032888D01*
X206058589Y-66675000D01*
X206206831Y-66317112D01*
X206327000Y-65712983D01*
X206327000Y-65097017D01*
X206206831Y-64492888D01*
X206058589Y-64135000D01*
X206206831Y-63777112D01*
X206327000Y-63172983D01*
X206327000Y-62557017D01*
X206206831Y-61952888D01*
X206058589Y-61595000D01*
X206206831Y-61237112D01*
X206327000Y-60632983D01*
X206327000Y-60017017D01*
X206206831Y-59412888D01*
X206058589Y-59055000D01*
X206206831Y-58697112D01*
X206327000Y-58092983D01*
X206327000Y-57477017D01*
X206206831Y-56872888D01*
X206058589Y-56515000D01*
X206206831Y-56157112D01*
X206327000Y-55552983D01*
X206327000Y-54937017D01*
X206206831Y-54332888D01*
X206084517Y-54037595D01*
X211718282Y-54037595D01*
X211762039Y-54356675D01*
X211867205Y-54661088D01*
X211960186Y-54835044D01*
X212224587Y-54930808D01*
X212762709Y-54392686D01*
X212762709Y-54751896D01*
X212404192Y-55110413D01*
X212499956Y-55374814D01*
X212789571Y-55515704D01*
X212845783Y-55530442D01*
X212925401Y-55792906D01*
X213122907Y-56162415D01*
X213388707Y-56486293D01*
X213712585Y-56752093D01*
X214082094Y-56949599D01*
X214483035Y-57071224D01*
X214900000Y-57112291D01*
X216900000Y-57112291D01*
X217316965Y-57071224D01*
X217717906Y-56949599D01*
X218087415Y-56752093D01*
X218411293Y-56486293D01*
X218677093Y-56162415D01*
X218874599Y-55792906D01*
X218996224Y-55391965D01*
X219037291Y-54975000D01*
X219037291Y-52975000D01*
X218996224Y-52558035D01*
X218874599Y-52157094D01*
X218677093Y-51787585D01*
X218411293Y-51463707D01*
X218087415Y-51197907D01*
X217717906Y-51000401D01*
X217316965Y-50878776D01*
X216900000Y-50837709D01*
X214900000Y-50837709D01*
X214483035Y-50878776D01*
X214082094Y-51000401D01*
X213712585Y-51197907D01*
X213388707Y-51463707D01*
X213122907Y-51787585D01*
X212925401Y-52157094D01*
X212844675Y-52423211D01*
X212673912Y-52482205D01*
X212499956Y-52575186D01*
X212404192Y-52839587D01*
X212762709Y-53198104D01*
X212762709Y-53557314D01*
X212224587Y-53019192D01*
X211960186Y-53114956D01*
X211819296Y-53404571D01*
X211737616Y-53716108D01*
X211718282Y-54037595D01*
X206084517Y-54037595D01*
X205971111Y-53763810D01*
X205628899Y-53251654D01*
X205193346Y-52816101D01*
X204681190Y-52473889D01*
X204112112Y-52238169D01*
X203507983Y-52118000D01*
X202892017Y-52118000D01*
X202287888Y-52238169D01*
X201718810Y-52473889D01*
X201206654Y-52816101D01*
X200771101Y-53251654D01*
X200428889Y-53763810D01*
X200193169Y-54332888D01*
X200073000Y-54937017D01*
X200073000Y-55552983D01*
X200193169Y-56157112D01*
X200341411Y-56515000D01*
X200193169Y-56872888D01*
X200073000Y-57477017D01*
X200073000Y-58092983D01*
X200193169Y-58697112D01*
X200341411Y-59055000D01*
X200193169Y-59412888D01*
X200073000Y-60017017D01*
X200073000Y-60632983D01*
X200193169Y-61237112D01*
X200302207Y-61500354D01*
X191664563Y-70138000D01*
X190610618Y-70138000D01*
X190499999Y-70127105D01*
X190389381Y-70138000D01*
X190389371Y-70138000D01*
X190058531Y-70170585D01*
X189634027Y-70299357D01*
X189242802Y-70508471D01*
X188899891Y-70789891D01*
X188829365Y-70875827D01*
X187715831Y-71989361D01*
X187629891Y-72059891D01*
X187348471Y-72402802D01*
X187139357Y-72794028D01*
X187010585Y-73218532D01*
X186978000Y-73549372D01*
X186978000Y-73549379D01*
X186967105Y-73660000D01*
X186978000Y-73770621D01*
X186978001Y-90059361D01*
X186967104Y-90170000D01*
X187010585Y-90611469D01*
X187139357Y-91035973D01*
X187348471Y-91427198D01*
X187629891Y-91770109D01*
X187972802Y-92051529D01*
X188364027Y-92260643D01*
X188788531Y-92389415D01*
X189119371Y-92422000D01*
X189119372Y-92422000D01*
X189230000Y-92432896D01*
X189340629Y-92422000D01*
X189940293Y-92422000D01*
X190401545Y-92730199D01*
X190927310Y-92947978D01*
X191485458Y-93059000D01*
X192054542Y-93059000D01*
X192349571Y-93000315D01*
X191997613Y-93352273D01*
X191671817Y-93839862D01*
X191447405Y-94381641D01*
X191333000Y-94956791D01*
X191333000Y-95543209D01*
X191447405Y-96118359D01*
X191671817Y-96660138D01*
X191997613Y-97147727D01*
X192412273Y-97562387D01*
X192820607Y-97835227D01*
X192819389Y-97858531D01*
X192861401Y-98148019D01*
X192959081Y-98423747D01*
X193032528Y-98561157D01*
X193281603Y-98638792D01*
X193747050Y-98173345D01*
X194016791Y-98227000D01*
X194052605Y-98227000D01*
X193461208Y-98818397D01*
X193538843Y-99067472D01*
X193802883Y-99193371D01*
X194086411Y-99265339D01*
X194378531Y-99280611D01*
X194668019Y-99238599D01*
X194943747Y-99140919D01*
X195081157Y-99067472D01*
X195158792Y-98818397D01*
X194567395Y-98227000D01*
X194603209Y-98227000D01*
X194872950Y-98173345D01*
X195338397Y-98638792D01*
X195587472Y-98561157D01*
X195588231Y-98559564D01*
X195654822Y-98671355D01*
X195849731Y-98887588D01*
X196083080Y-99061641D01*
X196345901Y-99186825D01*
X196493110Y-99231476D01*
X196723000Y-99110155D01*
X196723000Y-98227000D01*
X196977000Y-98227000D01*
X196977000Y-99110155D01*
X197206890Y-99231476D01*
X197354099Y-99186825D01*
X197616920Y-99061641D01*
X197850269Y-98887588D01*
X198045178Y-98671355D01*
X198120000Y-98545745D01*
X198194822Y-98671355D01*
X198389731Y-98887588D01*
X198623080Y-99061641D01*
X198885901Y-99186825D01*
X199033110Y-99231476D01*
X199263000Y-99110155D01*
X199263000Y-98227000D01*
X199517000Y-98227000D01*
X199517000Y-99110155D01*
X199746890Y-99231476D01*
X199894099Y-99186825D01*
X200156920Y-99061641D01*
X200390269Y-98887588D01*
X200585178Y-98671355D01*
X200660000Y-98545745D01*
X200734822Y-98671355D01*
X200929731Y-98887588D01*
X201163080Y-99061641D01*
X201425901Y-99186825D01*
X201573110Y-99231476D01*
X201803000Y-99110155D01*
X201803000Y-98227000D01*
X202057000Y-98227000D01*
X202057000Y-99110155D01*
X202286890Y-99231476D01*
X202434099Y-99186825D01*
X202696920Y-99061641D01*
X202930269Y-98887588D01*
X203125178Y-98671355D01*
X203200000Y-98545745D01*
X203274822Y-98671355D01*
X203469731Y-98887588D01*
X203703080Y-99061641D01*
X203965901Y-99186825D01*
X204113110Y-99231476D01*
X204343000Y-99110155D01*
X204343000Y-98227000D01*
X204597000Y-98227000D01*
X204597000Y-99110155D01*
X204826890Y-99231476D01*
X204974099Y-99186825D01*
X205236920Y-99061641D01*
X205470269Y-98887588D01*
X205665178Y-98671355D01*
X205814157Y-98421252D01*
X205911481Y-98146891D01*
X205794342Y-97923721D01*
X205810563Y-97917002D01*
X205955000Y-97917002D01*
X205955000Y-97838162D01*
X206367727Y-97562387D01*
X206782387Y-97147727D01*
X207108183Y-96660138D01*
X207332595Y-96118359D01*
X207447000Y-95543209D01*
X207447000Y-94956791D01*
X207332595Y-94381641D01*
X207108183Y-93839862D01*
X206782387Y-93352273D01*
X206430429Y-93000315D01*
X206725458Y-93059000D01*
X207294542Y-93059000D01*
X207852690Y-92947978D01*
X208280000Y-92770980D01*
X208707310Y-92947978D01*
X209265458Y-93059000D01*
X209834542Y-93059000D01*
X210392690Y-92947978D01*
X210820000Y-92770980D01*
X211247310Y-92947978D01*
X211805458Y-93059000D01*
X212374542Y-93059000D01*
X212932690Y-92947978D01*
X213360000Y-92770980D01*
X213787310Y-92947978D01*
X214345458Y-93059000D01*
X214914542Y-93059000D01*
X215472690Y-92947978D01*
X215900000Y-92770980D01*
X216327310Y-92947978D01*
X216885458Y-93059000D01*
X217454542Y-93059000D01*
X218012690Y-92947978D01*
X218440000Y-92770980D01*
X218867310Y-92947978D01*
X219425458Y-93059000D01*
X219994542Y-93059000D01*
X220552690Y-92947978D01*
X220980000Y-92770980D01*
X221407310Y-92947978D01*
X221965458Y-93059000D01*
X222534542Y-93059000D01*
X223092690Y-92947978D01*
X223520000Y-92770980D01*
X223947310Y-92947978D01*
X224505458Y-93059000D01*
X225074542Y-93059000D01*
X225178001Y-93038421D01*
X225178001Y-93088611D01*
X212468614Y-105798000D01*
X185427000Y-105798000D01*
X185427000Y-102010995D01*
X186062937Y-102010995D01*
X186825864Y-101859239D01*
X187544526Y-101561560D01*
X188191305Y-101129396D01*
X188741345Y-100579356D01*
X189173509Y-99932577D01*
X189471188Y-99213915D01*
X189622944Y-98450988D01*
X189622944Y-97673114D01*
X189471188Y-96910187D01*
X189173509Y-96191525D01*
X188741345Y-95544746D01*
X188191305Y-94994706D01*
X187544526Y-94562542D01*
X186825864Y-94264863D01*
X186062937Y-94113107D01*
X185427000Y-94113107D01*
X185427000Y-90200000D01*
X185424560Y-90175224D01*
X185417333Y-90151399D01*
X185405597Y-90129443D01*
X185389803Y-90110197D01*
X185370557Y-90094403D01*
X185348601Y-90082667D01*
X185324776Y-90075440D01*
X185300000Y-90073000D01*
X113610252Y-90073000D01*
X113627291Y-89900000D01*
X113627291Y-87900000D01*
X113586224Y-87483035D01*
X113464599Y-87082094D01*
X113267093Y-86712585D01*
X113001293Y-86388707D01*
X112677415Y-86122907D01*
X112413709Y-85981954D01*
X112734033Y-85661630D01*
X113050199Y-85188455D01*
X113267978Y-84662690D01*
X113379000Y-84104542D01*
X113379000Y-83535458D01*
X113267978Y-82977310D01*
X113050199Y-82451545D01*
X112734033Y-81978370D01*
X112331630Y-81575967D01*
X111858455Y-81259801D01*
X111332690Y-81042022D01*
X110774542Y-80931000D01*
X110205458Y-80931000D01*
X109647310Y-81042022D01*
X109121545Y-81259801D01*
X108648370Y-81575967D01*
X108245967Y-81978370D01*
X107929801Y-82451545D01*
X107712022Y-82977310D01*
X107601000Y-83535458D01*
X107601000Y-84104542D01*
X107712022Y-84662690D01*
X107929801Y-85188455D01*
X108245967Y-85661630D01*
X108566291Y-85981954D01*
X108302585Y-86122907D01*
X107978707Y-86388707D01*
X107712907Y-86712585D01*
X107515401Y-87082094D01*
X107393776Y-87483035D01*
X107352709Y-87900000D01*
X107352709Y-89900000D01*
X107369748Y-90073000D01*
X102952606Y-90073000D01*
X93627000Y-80747394D01*
X93627000Y-79875413D01*
X109534192Y-79875413D01*
X109629956Y-80139814D01*
X109919571Y-80280704D01*
X110231108Y-80362384D01*
X110552595Y-80381718D01*
X110871675Y-80337961D01*
X111176088Y-80232795D01*
X111350044Y-80139814D01*
X111445808Y-79875413D01*
X110490000Y-78919605D01*
X109534192Y-79875413D01*
X93627000Y-79875413D01*
X93627000Y-78802595D01*
X108848282Y-78802595D01*
X108892039Y-79121675D01*
X108997205Y-79426088D01*
X109090186Y-79600044D01*
X109354587Y-79695808D01*
X110310395Y-78740000D01*
X110669605Y-78740000D01*
X111625413Y-79695808D01*
X111889814Y-79600044D01*
X112030704Y-79310429D01*
X112112384Y-78998892D01*
X112131718Y-78677405D01*
X112087961Y-78358325D01*
X111982795Y-78053912D01*
X111889814Y-77879956D01*
X111625413Y-77784192D01*
X110669605Y-78740000D01*
X110310395Y-78740000D01*
X109354587Y-77784192D01*
X109090186Y-77879956D01*
X108949296Y-78169571D01*
X108867616Y-78481108D01*
X108848282Y-78802595D01*
X93627000Y-78802595D01*
X93627000Y-77604587D01*
X109534192Y-77604587D01*
X110490000Y-78560395D01*
X111445808Y-77604587D01*
X111350044Y-77340186D01*
X111060429Y-77199296D01*
X110748892Y-77117616D01*
X110427405Y-77098282D01*
X110108325Y-77142039D01*
X109803912Y-77247205D01*
X109629956Y-77340186D01*
X109534192Y-77604587D01*
X93627000Y-77604587D01*
X93627000Y-75800000D01*
X93624560Y-75775224D01*
X93617333Y-75751399D01*
X93605597Y-75729443D01*
X93589803Y-75710197D01*
X86889803Y-69010197D01*
X86870557Y-68994403D01*
X86848601Y-68982667D01*
X86824776Y-68975440D01*
X86800000Y-68973000D01*
X84727000Y-68973000D01*
X84727000Y-57420000D01*
X101002709Y-57420000D01*
X101002709Y-59420000D01*
X101043776Y-59836965D01*
X101165401Y-60237906D01*
X101362907Y-60607415D01*
X101628707Y-60931293D01*
X101952585Y-61197093D01*
X102322094Y-61394599D01*
X102723035Y-61516224D01*
X103140000Y-61557291D01*
X105140000Y-61557291D01*
X105556965Y-61516224D01*
X105957906Y-61394599D01*
X106327415Y-61197093D01*
X106651293Y-60931293D01*
X106917093Y-60607415D01*
X107059494Y-60341000D01*
X116369709Y-60341000D01*
X116369709Y-62341000D01*
X116410776Y-62757965D01*
X116490106Y-63019479D01*
X116380000Y-63573017D01*
X116380000Y-64188983D01*
X116500169Y-64793112D01*
X116735889Y-65362190D01*
X117078101Y-65874346D01*
X117513654Y-66309899D01*
X118025810Y-66652111D01*
X118594888Y-66887831D01*
X119199017Y-67008000D01*
X119814983Y-67008000D01*
X120419112Y-66887831D01*
X120988190Y-66652111D01*
X121500346Y-66309899D01*
X121935899Y-65874346D01*
X122278111Y-65362190D01*
X122513831Y-64793112D01*
X122634000Y-64188983D01*
X122634000Y-63573017D01*
X122523894Y-63019479D01*
X122603224Y-62757965D01*
X122644291Y-62341000D01*
X122644291Y-60341000D01*
X122603224Y-59924035D01*
X122481599Y-59523094D01*
X122284093Y-59153585D01*
X122018293Y-58829707D01*
X121694415Y-58563907D01*
X121324906Y-58366401D01*
X120923965Y-58244776D01*
X120507000Y-58203709D01*
X118507000Y-58203709D01*
X118090035Y-58244776D01*
X117689094Y-58366401D01*
X117319585Y-58563907D01*
X116995707Y-58829707D01*
X116729907Y-59153585D01*
X116532401Y-59523094D01*
X116410776Y-59924035D01*
X116369709Y-60341000D01*
X107059494Y-60341000D01*
X107114599Y-60237906D01*
X107236224Y-59836965D01*
X107263954Y-59555413D01*
X108264192Y-59555413D01*
X108359956Y-59819814D01*
X108649571Y-59960704D01*
X108961108Y-60042384D01*
X109282595Y-60061718D01*
X109601675Y-60017961D01*
X109906088Y-59912795D01*
X110080044Y-59819814D01*
X110175808Y-59555413D01*
X109220000Y-58599605D01*
X108264192Y-59555413D01*
X107263954Y-59555413D01*
X107277291Y-59420000D01*
X107277291Y-58482595D01*
X107578282Y-58482595D01*
X107622039Y-58801675D01*
X107727205Y-59106088D01*
X107820186Y-59280044D01*
X108084587Y-59375808D01*
X109040395Y-58420000D01*
X109399605Y-58420000D01*
X110355413Y-59375808D01*
X110619814Y-59280044D01*
X110760704Y-58990429D01*
X110842384Y-58678892D01*
X110861718Y-58357405D01*
X110817961Y-58038325D01*
X110712795Y-57733912D01*
X110619814Y-57559956D01*
X110355413Y-57464192D01*
X109399605Y-58420000D01*
X109040395Y-58420000D01*
X108084587Y-57464192D01*
X107820186Y-57559956D01*
X107679296Y-57849571D01*
X107597616Y-58161108D01*
X107578282Y-58482595D01*
X107277291Y-58482595D01*
X107277291Y-57420000D01*
X107263955Y-57284587D01*
X108264192Y-57284587D01*
X109220000Y-58240395D01*
X110175808Y-57284587D01*
X110080044Y-57020186D01*
X109790429Y-56879296D01*
X109478892Y-56797616D01*
X109157405Y-56778282D01*
X108838325Y-56822039D01*
X108533912Y-56927205D01*
X108359956Y-57020186D01*
X108264192Y-57284587D01*
X107263955Y-57284587D01*
X107236224Y-57003035D01*
X107114599Y-56602094D01*
X106917093Y-56232585D01*
X106651293Y-55908707D01*
X106327415Y-55642907D01*
X105957906Y-55445401D01*
X105556965Y-55323776D01*
X105140000Y-55282709D01*
X103140000Y-55282709D01*
X102723035Y-55323776D01*
X102322094Y-55445401D01*
X101952585Y-55642907D01*
X101628707Y-55908707D01*
X101362907Y-56232585D01*
X101165401Y-56602094D01*
X101043776Y-57003035D01*
X101002709Y-57420000D01*
X84727000Y-57420000D01*
X84727000Y-57400000D01*
X84724560Y-57375224D01*
X84717333Y-57351399D01*
X84705597Y-57329443D01*
X84689803Y-57310197D01*
X84670557Y-57294403D01*
X84648601Y-57282667D01*
X84624776Y-57275440D01*
X84600000Y-57273000D01*
X84189537Y-57273000D01*
X84051111Y-56938810D01*
X83708899Y-56426654D01*
X83273346Y-55991101D01*
X82761190Y-55648889D01*
X82192112Y-55413169D01*
X81587983Y-55293000D01*
X80972017Y-55293000D01*
X80367888Y-55413169D01*
X79798810Y-55648889D01*
X79286654Y-55991101D01*
X78851101Y-56426654D01*
X78740000Y-56592928D01*
X78628899Y-56426654D01*
X78193346Y-55991101D01*
X77681190Y-55648889D01*
X77112112Y-55413169D01*
X76507983Y-55293000D01*
X75892017Y-55293000D01*
X75287888Y-55413169D01*
X74718810Y-55648889D01*
X74542000Y-55767030D01*
X74542000Y-50412000D01*
X114096326Y-50412000D01*
X114046130Y-50445540D01*
G37*
X114046130Y-50445540D02*
X113491160Y-51000510D01*
X113055122Y-51653087D01*
X112754775Y-52378190D01*
X112601659Y-53147957D01*
X112601659Y-53932803D01*
X112754775Y-54702570D01*
X113055122Y-55427673D01*
X113491160Y-56080250D01*
X114046130Y-56635220D01*
X114698707Y-57071258D01*
X115423810Y-57371605D01*
X116193577Y-57524721D01*
X116978423Y-57524721D01*
X117748190Y-57371605D01*
X118473293Y-57071258D01*
X119125870Y-56635220D01*
X119680840Y-56080250D01*
X120116878Y-55427673D01*
X120417225Y-54702570D01*
X120570341Y-53932803D01*
X120570341Y-53864000D01*
X128180709Y-53864000D01*
X128180709Y-55864000D01*
X128221776Y-56280965D01*
X128343401Y-56681906D01*
X128540907Y-57051415D01*
X128806707Y-57375293D01*
X129130585Y-57641093D01*
X129500094Y-57838599D01*
X129901035Y-57960224D01*
X130318000Y-58001291D01*
X132318000Y-58001291D01*
X132734965Y-57960224D01*
X132996479Y-57880894D01*
X133550017Y-57991000D01*
X134165983Y-57991000D01*
X134770112Y-57870831D01*
X135128000Y-57722589D01*
X135485888Y-57870831D01*
X136090017Y-57991000D01*
X136705983Y-57991000D01*
X137310112Y-57870831D01*
X137668000Y-57722589D01*
X138025888Y-57870831D01*
X138630017Y-57991000D01*
X139245983Y-57991000D01*
X139850112Y-57870831D01*
X140208000Y-57722589D01*
X140565888Y-57870831D01*
X141170017Y-57991000D01*
X141785983Y-57991000D01*
X142390112Y-57870831D01*
X142959190Y-57635111D01*
X143471346Y-57292899D01*
X143906899Y-56857346D01*
X144148029Y-56496471D01*
X144399675Y-56461961D01*
X144704088Y-56356795D01*
X144878044Y-56263814D01*
X144973808Y-55999413D01*
X144528910Y-55554515D01*
X144588506Y-55254901D01*
X145153413Y-55819808D01*
X145417814Y-55724044D01*
X145558704Y-55434429D01*
X145640384Y-55122892D01*
X145659718Y-54801405D01*
X145615961Y-54482325D01*
X145510795Y-54177912D01*
X145417814Y-54003956D01*
X145153413Y-53908192D01*
X144588506Y-54473099D01*
X144528910Y-54173485D01*
X144973808Y-53728587D01*
X144878044Y-53464186D01*
X144588429Y-53323296D01*
X144276892Y-53241616D01*
X144149655Y-53233964D01*
X143906899Y-52870654D01*
X143471346Y-52435101D01*
X142959190Y-52092889D01*
X142390112Y-51857169D01*
X141785983Y-51737000D01*
X141170017Y-51737000D01*
X140565888Y-51857169D01*
X140208000Y-52005411D01*
X139850112Y-51857169D01*
X139245983Y-51737000D01*
X138630017Y-51737000D01*
X138025888Y-51857169D01*
X137668000Y-52005411D01*
X137310112Y-51857169D01*
X136705983Y-51737000D01*
X136090017Y-51737000D01*
X135485888Y-51857169D01*
X135128000Y-52005411D01*
X134770112Y-51857169D01*
X134165983Y-51737000D01*
X133550017Y-51737000D01*
X132996479Y-51847106D01*
X132734965Y-51767776D01*
X132318000Y-51726709D01*
X130318000Y-51726709D01*
X129901035Y-51767776D01*
X129500094Y-51889401D01*
X129130585Y-52086907D01*
X128806707Y-52352707D01*
X128540907Y-52676585D01*
X128343401Y-53046094D01*
X128221776Y-53447035D01*
X128180709Y-53864000D01*
X120570341Y-53864000D01*
X120570341Y-53147957D01*
X120417225Y-52378190D01*
X120116878Y-51653087D01*
X119680840Y-51000510D01*
X119125870Y-50445540D01*
X119075674Y-50412000D01*
X183318194Y-50412000D01*
X183187750Y-50499160D01*
X182632780Y-51054130D01*
X182196742Y-51706707D01*
X181896395Y-52431810D01*
X181743279Y-53201577D01*
X181743279Y-53986423D01*
X181896395Y-54756190D01*
X182196742Y-55481293D01*
X182632780Y-56133870D01*
X183187750Y-56688840D01*
X183840327Y-57124878D01*
X184565430Y-57425225D01*
X185335197Y-57578341D01*
X186120043Y-57578341D01*
X186889810Y-57425225D01*
X187614913Y-57124878D01*
X188267490Y-56688840D01*
X188822460Y-56133870D01*
X189258498Y-55481293D01*
X189558845Y-54756190D01*
X189711961Y-53986423D01*
X189711961Y-53201577D01*
X189558845Y-52431810D01*
X189258498Y-51706707D01*
X188822460Y-51054130D01*
X188267490Y-50499160D01*
X188137046Y-50412000D01*
X225178000Y-50412000D01*
X225178001Y-73586911D01*
X224992865Y-73540977D01*
X224790104Y-73531471D01*
X224494033Y-73088370D01*
X224091630Y-72685967D01*
X223618455Y-72369801D01*
X223092690Y-72152022D01*
X222534542Y-72041000D01*
X221965458Y-72041000D01*
X221407310Y-72152022D01*
X220980000Y-72329020D01*
X220552690Y-72152022D01*
X219994542Y-72041000D01*
X219425458Y-72041000D01*
X218867310Y-72152022D01*
X218440000Y-72329020D01*
X218012690Y-72152022D01*
X217454542Y-72041000D01*
X216885458Y-72041000D01*
X216327310Y-72152022D01*
X215900000Y-72329020D01*
X215472690Y-72152022D01*
X214914542Y-72041000D01*
X214345458Y-72041000D01*
X213787310Y-72152022D01*
X213360000Y-72329020D01*
X212932690Y-72152022D01*
X212374542Y-72041000D01*
X211805458Y-72041000D01*
X211247310Y-72152022D01*
X210820000Y-72329020D01*
X210392690Y-72152022D01*
X209834542Y-72041000D01*
X209265458Y-72041000D01*
X208707310Y-72152022D01*
X208280000Y-72329020D01*
X207852690Y-72152022D01*
X207294542Y-72041000D01*
X206725458Y-72041000D01*
X206167310Y-72152022D01*
X205740000Y-72329020D01*
X205312690Y-72152022D01*
X204754542Y-72041000D01*
X204185458Y-72041000D01*
X203627310Y-72152022D01*
X203200000Y-72329020D01*
X202772690Y-72152022D01*
X202214542Y-72041000D01*
X201645458Y-72041000D01*
X201087310Y-72152022D01*
X200660000Y-72329020D01*
X200232690Y-72152022D01*
X199674542Y-72041000D01*
X199105458Y-72041000D01*
X198547310Y-72152022D01*
X198120000Y-72329020D01*
X197692690Y-72152022D01*
X197134542Y-72041000D01*
X196565458Y-72041000D01*
X196023345Y-72148832D01*
X200073000Y-68099178D01*
X200073000Y-68252983D01*
X200193169Y-68857112D01*
X200428889Y-69426190D01*
X200771101Y-69938346D01*
X201206654Y-70373899D01*
X201718810Y-70716111D01*
X202287888Y-70951831D01*
X202892017Y-71072000D01*
X203507983Y-71072000D01*
X204112112Y-70951831D01*
X204681190Y-70716111D01*
X205193346Y-70373899D01*
X205628899Y-69938346D01*
X205971111Y-69426190D01*
X206206831Y-68857112D01*
X206327000Y-68252983D01*
X206327000Y-67637017D01*
X206206831Y-67032888D01*
X206058589Y-66675000D01*
X206206831Y-66317112D01*
X206327000Y-65712983D01*
X206327000Y-65097017D01*
X206206831Y-64492888D01*
X206058589Y-64135000D01*
X206206831Y-63777112D01*
X206327000Y-63172983D01*
X206327000Y-62557017D01*
X206206831Y-61952888D01*
X206058589Y-61595000D01*
X206206831Y-61237112D01*
X206327000Y-60632983D01*
X206327000Y-60017017D01*
X206206831Y-59412888D01*
X206058589Y-59055000D01*
X206206831Y-58697112D01*
X206327000Y-58092983D01*
X206327000Y-57477017D01*
X206206831Y-56872888D01*
X206058589Y-56515000D01*
X206206831Y-56157112D01*
X206327000Y-55552983D01*
X206327000Y-54937017D01*
X206206831Y-54332888D01*
X206084517Y-54037595D01*
X211718282Y-54037595D01*
X211762039Y-54356675D01*
X211867205Y-54661088D01*
X211960186Y-54835044D01*
X212224587Y-54930808D01*
X212762709Y-54392686D01*
X212762709Y-54751896D01*
X212404192Y-55110413D01*
X212499956Y-55374814D01*
X212789571Y-55515704D01*
X212845783Y-55530442D01*
X212925401Y-55792906D01*
X213122907Y-56162415D01*
X213388707Y-56486293D01*
X213712585Y-56752093D01*
X214082094Y-56949599D01*
X214483035Y-57071224D01*
X214900000Y-57112291D01*
X216900000Y-57112291D01*
X217316965Y-57071224D01*
X217717906Y-56949599D01*
X218087415Y-56752093D01*
X218411293Y-56486293D01*
X218677093Y-56162415D01*
X218874599Y-55792906D01*
X218996224Y-55391965D01*
X219037291Y-54975000D01*
X219037291Y-52975000D01*
X218996224Y-52558035D01*
X218874599Y-52157094D01*
X218677093Y-51787585D01*
X218411293Y-51463707D01*
X218087415Y-51197907D01*
X217717906Y-51000401D01*
X217316965Y-50878776D01*
X216900000Y-50837709D01*
X214900000Y-50837709D01*
X214483035Y-50878776D01*
X214082094Y-51000401D01*
X213712585Y-51197907D01*
X213388707Y-51463707D01*
X213122907Y-51787585D01*
X212925401Y-52157094D01*
X212844675Y-52423211D01*
X212673912Y-52482205D01*
X212499956Y-52575186D01*
X212404192Y-52839587D01*
X212762709Y-53198104D01*
X212762709Y-53557314D01*
X212224587Y-53019192D01*
X211960186Y-53114956D01*
X211819296Y-53404571D01*
X211737616Y-53716108D01*
X211718282Y-54037595D01*
X206084517Y-54037595D01*
X205971111Y-53763810D01*
X205628899Y-53251654D01*
X205193346Y-52816101D01*
X204681190Y-52473889D01*
X204112112Y-52238169D01*
X203507983Y-52118000D01*
X202892017Y-52118000D01*
X202287888Y-52238169D01*
X201718810Y-52473889D01*
X201206654Y-52816101D01*
X200771101Y-53251654D01*
X200428889Y-53763810D01*
X200193169Y-54332888D01*
X200073000Y-54937017D01*
X200073000Y-55552983D01*
X200193169Y-56157112D01*
X200341411Y-56515000D01*
X200193169Y-56872888D01*
X200073000Y-57477017D01*
X200073000Y-58092983D01*
X200193169Y-58697112D01*
X200341411Y-59055000D01*
X200193169Y-59412888D01*
X200073000Y-60017017D01*
X200073000Y-60632983D01*
X200193169Y-61237112D01*
X200302207Y-61500354D01*
X191664563Y-70138000D01*
X190610618Y-70138000D01*
X190499999Y-70127105D01*
X190389381Y-70138000D01*
X190389371Y-70138000D01*
X190058531Y-70170585D01*
X189634027Y-70299357D01*
X189242802Y-70508471D01*
X188899891Y-70789891D01*
X188829365Y-70875827D01*
X187715831Y-71989361D01*
X187629891Y-72059891D01*
X187348471Y-72402802D01*
X187139357Y-72794028D01*
X187010585Y-73218532D01*
X186978000Y-73549372D01*
X186978000Y-73549379D01*
X186967105Y-73660000D01*
X186978000Y-73770621D01*
X186978001Y-90059361D01*
X186967104Y-90170000D01*
X187010585Y-90611469D01*
X187139357Y-91035973D01*
X187348471Y-91427198D01*
X187629891Y-91770109D01*
X187972802Y-92051529D01*
X188364027Y-92260643D01*
X188788531Y-92389415D01*
X189119371Y-92422000D01*
X189119372Y-92422000D01*
X189230000Y-92432896D01*
X189340629Y-92422000D01*
X189940293Y-92422000D01*
X190401545Y-92730199D01*
X190927310Y-92947978D01*
X191485458Y-93059000D01*
X192054542Y-93059000D01*
X192349571Y-93000315D01*
X191997613Y-93352273D01*
X191671817Y-93839862D01*
X191447405Y-94381641D01*
X191333000Y-94956791D01*
X191333000Y-95543209D01*
X191447405Y-96118359D01*
X191671817Y-96660138D01*
X191997613Y-97147727D01*
X192412273Y-97562387D01*
X192820607Y-97835227D01*
X192819389Y-97858531D01*
X192861401Y-98148019D01*
X192959081Y-98423747D01*
X193032528Y-98561157D01*
X193281603Y-98638792D01*
X193747050Y-98173345D01*
X194016791Y-98227000D01*
X194052605Y-98227000D01*
X193461208Y-98818397D01*
X193538843Y-99067472D01*
X193802883Y-99193371D01*
X194086411Y-99265339D01*
X194378531Y-99280611D01*
X194668019Y-99238599D01*
X194943747Y-99140919D01*
X195081157Y-99067472D01*
X195158792Y-98818397D01*
X194567395Y-98227000D01*
X194603209Y-98227000D01*
X194872950Y-98173345D01*
X195338397Y-98638792D01*
X195587472Y-98561157D01*
X195588231Y-98559564D01*
X195654822Y-98671355D01*
X195849731Y-98887588D01*
X196083080Y-99061641D01*
X196345901Y-99186825D01*
X196493110Y-99231476D01*
X196723000Y-99110155D01*
X196723000Y-98227000D01*
X196977000Y-98227000D01*
X196977000Y-99110155D01*
X197206890Y-99231476D01*
X197354099Y-99186825D01*
X197616920Y-99061641D01*
X197850269Y-98887588D01*
X198045178Y-98671355D01*
X198120000Y-98545745D01*
X198194822Y-98671355D01*
X198389731Y-98887588D01*
X198623080Y-99061641D01*
X198885901Y-99186825D01*
X199033110Y-99231476D01*
X199263000Y-99110155D01*
X199263000Y-98227000D01*
X199517000Y-98227000D01*
X199517000Y-99110155D01*
X199746890Y-99231476D01*
X199894099Y-99186825D01*
X200156920Y-99061641D01*
X200390269Y-98887588D01*
X200585178Y-98671355D01*
X200660000Y-98545745D01*
X200734822Y-98671355D01*
X200929731Y-98887588D01*
X201163080Y-99061641D01*
X201425901Y-99186825D01*
X201573110Y-99231476D01*
X201803000Y-99110155D01*
X201803000Y-98227000D01*
X202057000Y-98227000D01*
X202057000Y-99110155D01*
X202286890Y-99231476D01*
X202434099Y-99186825D01*
X202696920Y-99061641D01*
X202930269Y-98887588D01*
X203125178Y-98671355D01*
X203200000Y-98545745D01*
X203274822Y-98671355D01*
X203469731Y-98887588D01*
X203703080Y-99061641D01*
X203965901Y-99186825D01*
X204113110Y-99231476D01*
X204343000Y-99110155D01*
X204343000Y-98227000D01*
X204597000Y-98227000D01*
X204597000Y-99110155D01*
X204826890Y-99231476D01*
X204974099Y-99186825D01*
X205236920Y-99061641D01*
X205470269Y-98887588D01*
X205665178Y-98671355D01*
X205814157Y-98421252D01*
X205911481Y-98146891D01*
X205794342Y-97923721D01*
X205810563Y-97917002D01*
X205955000Y-97917002D01*
X205955000Y-97838162D01*
X206367727Y-97562387D01*
X206782387Y-97147727D01*
X207108183Y-96660138D01*
X207332595Y-96118359D01*
X207447000Y-95543209D01*
X207447000Y-94956791D01*
X207332595Y-94381641D01*
X207108183Y-93839862D01*
X206782387Y-93352273D01*
X206430429Y-93000315D01*
X206725458Y-93059000D01*
X207294542Y-93059000D01*
X207852690Y-92947978D01*
X208280000Y-92770980D01*
X208707310Y-92947978D01*
X209265458Y-93059000D01*
X209834542Y-93059000D01*
X210392690Y-92947978D01*
X210820000Y-92770980D01*
X211247310Y-92947978D01*
X211805458Y-93059000D01*
X212374542Y-93059000D01*
X212932690Y-92947978D01*
X213360000Y-92770980D01*
X213787310Y-92947978D01*
X214345458Y-93059000D01*
X214914542Y-93059000D01*
X215472690Y-92947978D01*
X215900000Y-92770980D01*
X216327310Y-92947978D01*
X216885458Y-93059000D01*
X217454542Y-93059000D01*
X218012690Y-92947978D01*
X218440000Y-92770980D01*
X218867310Y-92947978D01*
X219425458Y-93059000D01*
X219994542Y-93059000D01*
X220552690Y-92947978D01*
X220980000Y-92770980D01*
X221407310Y-92947978D01*
X221965458Y-93059000D01*
X222534542Y-93059000D01*
X223092690Y-92947978D01*
X223520000Y-92770980D01*
X223947310Y-92947978D01*
X224505458Y-93059000D01*
X225074542Y-93059000D01*
X225178001Y-93038421D01*
X225178001Y-93088611D01*
X212468614Y-105798000D01*
X185427000Y-105798000D01*
X185427000Y-102010995D01*
X186062937Y-102010995D01*
X186825864Y-101859239D01*
X187544526Y-101561560D01*
X188191305Y-101129396D01*
X188741345Y-100579356D01*
X189173509Y-99932577D01*
X189471188Y-99213915D01*
X189622944Y-98450988D01*
X189622944Y-97673114D01*
X189471188Y-96910187D01*
X189173509Y-96191525D01*
X188741345Y-95544746D01*
X188191305Y-94994706D01*
X187544526Y-94562542D01*
X186825864Y-94264863D01*
X186062937Y-94113107D01*
X185427000Y-94113107D01*
X185427000Y-90200000D01*
X185424560Y-90175224D01*
X185417333Y-90151399D01*
X185405597Y-90129443D01*
X185389803Y-90110197D01*
X185370557Y-90094403D01*
X185348601Y-90082667D01*
X185324776Y-90075440D01*
X185300000Y-90073000D01*
X113610252Y-90073000D01*
X113627291Y-89900000D01*
X113627291Y-87900000D01*
X113586224Y-87483035D01*
X113464599Y-87082094D01*
X113267093Y-86712585D01*
X113001293Y-86388707D01*
X112677415Y-86122907D01*
X112413709Y-85981954D01*
X112734033Y-85661630D01*
X113050199Y-85188455D01*
X113267978Y-84662690D01*
X113379000Y-84104542D01*
X113379000Y-83535458D01*
X113267978Y-82977310D01*
X113050199Y-82451545D01*
X112734033Y-81978370D01*
X112331630Y-81575967D01*
X111858455Y-81259801D01*
X111332690Y-81042022D01*
X110774542Y-80931000D01*
X110205458Y-80931000D01*
X109647310Y-81042022D01*
X109121545Y-81259801D01*
X108648370Y-81575967D01*
X108245967Y-81978370D01*
X107929801Y-82451545D01*
X107712022Y-82977310D01*
X107601000Y-83535458D01*
X107601000Y-84104542D01*
X107712022Y-84662690D01*
X107929801Y-85188455D01*
X108245967Y-85661630D01*
X108566291Y-85981954D01*
X108302585Y-86122907D01*
X107978707Y-86388707D01*
X107712907Y-86712585D01*
X107515401Y-87082094D01*
X107393776Y-87483035D01*
X107352709Y-87900000D01*
X107352709Y-89900000D01*
X107369748Y-90073000D01*
X102952606Y-90073000D01*
X93627000Y-80747394D01*
X93627000Y-79875413D01*
X109534192Y-79875413D01*
X109629956Y-80139814D01*
X109919571Y-80280704D01*
X110231108Y-80362384D01*
X110552595Y-80381718D01*
X110871675Y-80337961D01*
X111176088Y-80232795D01*
X111350044Y-80139814D01*
X111445808Y-79875413D01*
X110490000Y-78919605D01*
X109534192Y-79875413D01*
X93627000Y-79875413D01*
X93627000Y-78802595D01*
X108848282Y-78802595D01*
X108892039Y-79121675D01*
X108997205Y-79426088D01*
X109090186Y-79600044D01*
X109354587Y-79695808D01*
X110310395Y-78740000D01*
X110669605Y-78740000D01*
X111625413Y-79695808D01*
X111889814Y-79600044D01*
X112030704Y-79310429D01*
X112112384Y-78998892D01*
X112131718Y-78677405D01*
X112087961Y-78358325D01*
X111982795Y-78053912D01*
X111889814Y-77879956D01*
X111625413Y-77784192D01*
X110669605Y-78740000D01*
X110310395Y-78740000D01*
X109354587Y-77784192D01*
X109090186Y-77879956D01*
X108949296Y-78169571D01*
X108867616Y-78481108D01*
X108848282Y-78802595D01*
X93627000Y-78802595D01*
X93627000Y-77604587D01*
X109534192Y-77604587D01*
X110490000Y-78560395D01*
X111445808Y-77604587D01*
X111350044Y-77340186D01*
X111060429Y-77199296D01*
X110748892Y-77117616D01*
X110427405Y-77098282D01*
X110108325Y-77142039D01*
X109803912Y-77247205D01*
X109629956Y-77340186D01*
X109534192Y-77604587D01*
X93627000Y-77604587D01*
X93627000Y-75800000D01*
X93624560Y-75775224D01*
X93617333Y-75751399D01*
X93605597Y-75729443D01*
X93589803Y-75710197D01*
X86889803Y-69010197D01*
X86870557Y-68994403D01*
X86848601Y-68982667D01*
X86824776Y-68975440D01*
X86800000Y-68973000D01*
X84727000Y-68973000D01*
X84727000Y-57420000D01*
X101002709Y-57420000D01*
X101002709Y-59420000D01*
X101043776Y-59836965D01*
X101165401Y-60237906D01*
X101362907Y-60607415D01*
X101628707Y-60931293D01*
X101952585Y-61197093D01*
X102322094Y-61394599D01*
X102723035Y-61516224D01*
X103140000Y-61557291D01*
X105140000Y-61557291D01*
X105556965Y-61516224D01*
X105957906Y-61394599D01*
X106327415Y-61197093D01*
X106651293Y-60931293D01*
X106917093Y-60607415D01*
X107059494Y-60341000D01*
X116369709Y-60341000D01*
X116369709Y-62341000D01*
X116410776Y-62757965D01*
X116490106Y-63019479D01*
X116380000Y-63573017D01*
X116380000Y-64188983D01*
X116500169Y-64793112D01*
X116735889Y-65362190D01*
X117078101Y-65874346D01*
X117513654Y-66309899D01*
X118025810Y-66652111D01*
X118594888Y-66887831D01*
X119199017Y-67008000D01*
X119814983Y-67008000D01*
X120419112Y-66887831D01*
X120988190Y-66652111D01*
X121500346Y-66309899D01*
X121935899Y-65874346D01*
X122278111Y-65362190D01*
X122513831Y-64793112D01*
X122634000Y-64188983D01*
X122634000Y-63573017D01*
X122523894Y-63019479D01*
X122603224Y-62757965D01*
X122644291Y-62341000D01*
X122644291Y-60341000D01*
X122603224Y-59924035D01*
X122481599Y-59523094D01*
X122284093Y-59153585D01*
X122018293Y-58829707D01*
X121694415Y-58563907D01*
X121324906Y-58366401D01*
X120923965Y-58244776D01*
X120507000Y-58203709D01*
X118507000Y-58203709D01*
X118090035Y-58244776D01*
X117689094Y-58366401D01*
X117319585Y-58563907D01*
X116995707Y-58829707D01*
X116729907Y-59153585D01*
X116532401Y-59523094D01*
X116410776Y-59924035D01*
X116369709Y-60341000D01*
X107059494Y-60341000D01*
X107114599Y-60237906D01*
X107236224Y-59836965D01*
X107263954Y-59555413D01*
X108264192Y-59555413D01*
X108359956Y-59819814D01*
X108649571Y-59960704D01*
X108961108Y-60042384D01*
X109282595Y-60061718D01*
X109601675Y-60017961D01*
X109906088Y-59912795D01*
X110080044Y-59819814D01*
X110175808Y-59555413D01*
X109220000Y-58599605D01*
X108264192Y-59555413D01*
X107263954Y-59555413D01*
X107277291Y-59420000D01*
X107277291Y-58482595D01*
X107578282Y-58482595D01*
X107622039Y-58801675D01*
X107727205Y-59106088D01*
X107820186Y-59280044D01*
X108084587Y-59375808D01*
X109040395Y-58420000D01*
X109399605Y-58420000D01*
X110355413Y-59375808D01*
X110619814Y-59280044D01*
X110760704Y-58990429D01*
X110842384Y-58678892D01*
X110861718Y-58357405D01*
X110817961Y-58038325D01*
X110712795Y-57733912D01*
X110619814Y-57559956D01*
X110355413Y-57464192D01*
X109399605Y-58420000D01*
X109040395Y-58420000D01*
X108084587Y-57464192D01*
X107820186Y-57559956D01*
X107679296Y-57849571D01*
X107597616Y-58161108D01*
X107578282Y-58482595D01*
X107277291Y-58482595D01*
X107277291Y-57420000D01*
X107263955Y-57284587D01*
X108264192Y-57284587D01*
X109220000Y-58240395D01*
X110175808Y-57284587D01*
X110080044Y-57020186D01*
X109790429Y-56879296D01*
X109478892Y-56797616D01*
X109157405Y-56778282D01*
X108838325Y-56822039D01*
X108533912Y-56927205D01*
X108359956Y-57020186D01*
X108264192Y-57284587D01*
X107263955Y-57284587D01*
X107236224Y-57003035D01*
X107114599Y-56602094D01*
X106917093Y-56232585D01*
X106651293Y-55908707D01*
X106327415Y-55642907D01*
X105957906Y-55445401D01*
X105556965Y-55323776D01*
X105140000Y-55282709D01*
X103140000Y-55282709D01*
X102723035Y-55323776D01*
X102322094Y-55445401D01*
X101952585Y-55642907D01*
X101628707Y-55908707D01*
X101362907Y-56232585D01*
X101165401Y-56602094D01*
X101043776Y-57003035D01*
X101002709Y-57420000D01*
X84727000Y-57420000D01*
X84727000Y-57400000D01*
X84724560Y-57375224D01*
X84717333Y-57351399D01*
X84705597Y-57329443D01*
X84689803Y-57310197D01*
X84670557Y-57294403D01*
X84648601Y-57282667D01*
X84624776Y-57275440D01*
X84600000Y-57273000D01*
X84189537Y-57273000D01*
X84051111Y-56938810D01*
X83708899Y-56426654D01*
X83273346Y-55991101D01*
X82761190Y-55648889D01*
X82192112Y-55413169D01*
X81587983Y-55293000D01*
X80972017Y-55293000D01*
X80367888Y-55413169D01*
X79798810Y-55648889D01*
X79286654Y-55991101D01*
X78851101Y-56426654D01*
X78740000Y-56592928D01*
X78628899Y-56426654D01*
X78193346Y-55991101D01*
X77681190Y-55648889D01*
X77112112Y-55413169D01*
X76507983Y-55293000D01*
X75892017Y-55293000D01*
X75287888Y-55413169D01*
X74718810Y-55648889D01*
X74542000Y-55767030D01*
X74542000Y-50412000D01*
X114096326Y-50412000D01*
X114046130Y-50445540D01*
M02*
