G04 #@! TF.GenerationSoftware,KiCad,Pcbnew,5.1.5*
G04 #@! TF.CreationDate,2020-01-03T21:14:40-05:00*
G04 #@! TF.ProjectId,Poofer Control,506f6f66-6572-4204-936f-6e74726f6c2e,rev?*
G04 #@! TF.SameCoordinates,Original*
G04 #@! TF.FileFunction,Legend,Top*
G04 #@! TF.FilePolarity,Positive*
%FSLAX46Y46*%
G04 Gerber Fmt 4.6, Leading zero omitted, Abs format (unit mm)*
G04 Created by KiCad (PCBNEW 5.1.5) date 2020-01-03 21:14:40*
%MOMM*%
%LPD*%
G04 APERTURE LIST*
%ADD10C,0.150000*%
%ADD11C,0.120000*%
G04 APERTURE END LIST*
D10*
X86534761Y-99512380D02*
X85963333Y-99512380D01*
X86249047Y-99512380D02*
X86249047Y-98512380D01*
X86153809Y-98655238D01*
X86058571Y-98750476D01*
X85963333Y-98798095D01*
X87487142Y-99512380D02*
X86915714Y-99512380D01*
X87201428Y-99512380D02*
X87201428Y-98512380D01*
X87106190Y-98655238D01*
X87010952Y-98750476D01*
X86915714Y-98798095D01*
X88106190Y-98512380D02*
X88201428Y-98512380D01*
X88296666Y-98560000D01*
X88344285Y-98607619D01*
X88391904Y-98702857D01*
X88439523Y-98893333D01*
X88439523Y-99131428D01*
X88391904Y-99321904D01*
X88344285Y-99417142D01*
X88296666Y-99464761D01*
X88201428Y-99512380D01*
X88106190Y-99512380D01*
X88010952Y-99464761D01*
X87963333Y-99417142D01*
X87915714Y-99321904D01*
X87868095Y-99131428D01*
X87868095Y-98893333D01*
X87915714Y-98702857D01*
X87963333Y-98607619D01*
X88010952Y-98560000D01*
X88106190Y-98512380D01*
X88725238Y-98512380D02*
X89058571Y-99512380D01*
X89391904Y-98512380D01*
X210082380Y-94497380D02*
X210082380Y-93497380D01*
X210463333Y-93497380D01*
X210558571Y-93545000D01*
X210606190Y-93592619D01*
X210653809Y-93687857D01*
X210653809Y-93830714D01*
X210606190Y-93925952D01*
X210558571Y-93973571D01*
X210463333Y-94021190D01*
X210082380Y-94021190D01*
X211272857Y-93497380D02*
X211463333Y-93497380D01*
X211558571Y-93545000D01*
X211653809Y-93640238D01*
X211701428Y-93830714D01*
X211701428Y-94164047D01*
X211653809Y-94354523D01*
X211558571Y-94449761D01*
X211463333Y-94497380D01*
X211272857Y-94497380D01*
X211177619Y-94449761D01*
X211082380Y-94354523D01*
X211034761Y-94164047D01*
X211034761Y-93830714D01*
X211082380Y-93640238D01*
X211177619Y-93545000D01*
X211272857Y-93497380D01*
X212320476Y-93497380D02*
X212510952Y-93497380D01*
X212606190Y-93545000D01*
X212701428Y-93640238D01*
X212749047Y-93830714D01*
X212749047Y-94164047D01*
X212701428Y-94354523D01*
X212606190Y-94449761D01*
X212510952Y-94497380D01*
X212320476Y-94497380D01*
X212225238Y-94449761D01*
X212130000Y-94354523D01*
X212082380Y-94164047D01*
X212082380Y-93830714D01*
X212130000Y-93640238D01*
X212225238Y-93545000D01*
X212320476Y-93497380D01*
X213510952Y-93973571D02*
X213177619Y-93973571D01*
X213177619Y-94497380D02*
X213177619Y-93497380D01*
X213653809Y-93497380D01*
X214034761Y-93973571D02*
X214368095Y-93973571D01*
X214510952Y-94497380D02*
X214034761Y-94497380D01*
X214034761Y-93497380D01*
X214510952Y-93497380D01*
X214939523Y-94497380D02*
X214939523Y-93497380D01*
X215510952Y-94497380D01*
X215510952Y-93497380D01*
X215939523Y-94211666D02*
X216415714Y-94211666D01*
X215844285Y-94497380D02*
X216177619Y-93497380D01*
X216510952Y-94497380D01*
X216701428Y-93497380D02*
X217272857Y-93497380D01*
X216987142Y-94497380D02*
X216987142Y-93497380D01*
X217796666Y-93497380D02*
X217987142Y-93497380D01*
X218082380Y-93545000D01*
X218177619Y-93640238D01*
X218225238Y-93830714D01*
X218225238Y-94164047D01*
X218177619Y-94354523D01*
X218082380Y-94449761D01*
X217987142Y-94497380D01*
X217796666Y-94497380D01*
X217701428Y-94449761D01*
X217606190Y-94354523D01*
X217558571Y-94164047D01*
X217558571Y-93830714D01*
X217606190Y-93640238D01*
X217701428Y-93545000D01*
X217796666Y-93497380D01*
X219225238Y-94497380D02*
X218891904Y-94021190D01*
X218653809Y-94497380D02*
X218653809Y-93497380D01*
X219034761Y-93497380D01*
X219130000Y-93545000D01*
X219177619Y-93592619D01*
X219225238Y-93687857D01*
X219225238Y-93830714D01*
X219177619Y-93925952D01*
X219130000Y-93973571D01*
X219034761Y-94021190D01*
X218653809Y-94021190D01*
X213868095Y-95147380D02*
X213963333Y-95147380D01*
X214058571Y-95195000D01*
X214106190Y-95242619D01*
X214153809Y-95337857D01*
X214201428Y-95528333D01*
X214201428Y-95766428D01*
X214153809Y-95956904D01*
X214106190Y-96052142D01*
X214058571Y-96099761D01*
X213963333Y-96147380D01*
X213868095Y-96147380D01*
X213772857Y-96099761D01*
X213725238Y-96052142D01*
X213677619Y-95956904D01*
X213630000Y-95766428D01*
X213630000Y-95528333D01*
X213677619Y-95337857D01*
X213725238Y-95242619D01*
X213772857Y-95195000D01*
X213868095Y-95147380D01*
X214630000Y-96052142D02*
X214677619Y-96099761D01*
X214630000Y-96147380D01*
X214582380Y-96099761D01*
X214630000Y-96052142D01*
X214630000Y-96147380D01*
X215153809Y-96147380D02*
X215344285Y-96147380D01*
X215439523Y-96099761D01*
X215487142Y-96052142D01*
X215582380Y-95909285D01*
X215630000Y-95718809D01*
X215630000Y-95337857D01*
X215582380Y-95242619D01*
X215534761Y-95195000D01*
X215439523Y-95147380D01*
X215249047Y-95147380D01*
X215153809Y-95195000D01*
X215106190Y-95242619D01*
X215058571Y-95337857D01*
X215058571Y-95575952D01*
X215106190Y-95671190D01*
X215153809Y-95718809D01*
X215249047Y-95766428D01*
X215439523Y-95766428D01*
X215534761Y-95718809D01*
X215582380Y-95671190D01*
X215630000Y-95575952D01*
X210510952Y-97273571D02*
X210177619Y-97273571D01*
X210177619Y-97797380D02*
X210177619Y-96797380D01*
X210653809Y-96797380D01*
X211177619Y-97797380D02*
X211082380Y-97749761D01*
X211034761Y-97702142D01*
X210987142Y-97606904D01*
X210987142Y-97321190D01*
X211034761Y-97225952D01*
X211082380Y-97178333D01*
X211177619Y-97130714D01*
X211320476Y-97130714D01*
X211415714Y-97178333D01*
X211463333Y-97225952D01*
X211510952Y-97321190D01*
X211510952Y-97606904D01*
X211463333Y-97702142D01*
X211415714Y-97749761D01*
X211320476Y-97797380D01*
X211177619Y-97797380D01*
X211939523Y-97797380D02*
X211939523Y-97130714D01*
X211939523Y-97321190D02*
X211987142Y-97225952D01*
X212034761Y-97178333D01*
X212130000Y-97130714D01*
X212225238Y-97130714D01*
X213320476Y-97797380D02*
X213320476Y-96797380D01*
X213701428Y-96797380D01*
X213796666Y-96845000D01*
X213844285Y-96892619D01*
X213891904Y-96987857D01*
X213891904Y-97130714D01*
X213844285Y-97225952D01*
X213796666Y-97273571D01*
X213701428Y-97321190D01*
X213320476Y-97321190D01*
X214225238Y-97130714D02*
X214463333Y-97797380D01*
X214701428Y-97130714D02*
X214463333Y-97797380D01*
X214368095Y-98035476D01*
X214320476Y-98083095D01*
X214225238Y-98130714D01*
X215082380Y-97797380D02*
X215082380Y-97130714D01*
X215082380Y-97321190D02*
X215130000Y-97225952D01*
X215177619Y-97178333D01*
X215272857Y-97130714D01*
X215368095Y-97130714D01*
X215844285Y-97797380D02*
X215749047Y-97749761D01*
X215701428Y-97702142D01*
X215653809Y-97606904D01*
X215653809Y-97321190D01*
X215701428Y-97225952D01*
X215749047Y-97178333D01*
X215844285Y-97130714D01*
X215987142Y-97130714D01*
X216082380Y-97178333D01*
X216130000Y-97225952D01*
X216177619Y-97321190D01*
X216177619Y-97606904D01*
X216130000Y-97702142D01*
X216082380Y-97749761D01*
X215987142Y-97797380D01*
X215844285Y-97797380D01*
X217177619Y-97702142D02*
X217130000Y-97749761D01*
X216987142Y-97797380D01*
X216891904Y-97797380D01*
X216749047Y-97749761D01*
X216653809Y-97654523D01*
X216606190Y-97559285D01*
X216558571Y-97368809D01*
X216558571Y-97225952D01*
X216606190Y-97035476D01*
X216653809Y-96940238D01*
X216749047Y-96845000D01*
X216891904Y-96797380D01*
X216987142Y-96797380D01*
X217130000Y-96845000D01*
X217177619Y-96892619D01*
X217987142Y-97749761D02*
X217891904Y-97797380D01*
X217701428Y-97797380D01*
X217606190Y-97749761D01*
X217558571Y-97654523D01*
X217558571Y-97273571D01*
X217606190Y-97178333D01*
X217701428Y-97130714D01*
X217891904Y-97130714D01*
X217987142Y-97178333D01*
X218034761Y-97273571D01*
X218034761Y-97368809D01*
X217558571Y-97464047D01*
X218606190Y-97797380D02*
X218510952Y-97749761D01*
X218463333Y-97654523D01*
X218463333Y-96797380D01*
X218844285Y-97130714D02*
X219225238Y-97130714D01*
X218987142Y-96797380D02*
X218987142Y-97654523D01*
X219034761Y-97749761D01*
X219130000Y-97797380D01*
X219225238Y-97797380D01*
X211368095Y-98780714D02*
X211558571Y-99447380D01*
X211749047Y-98971190D01*
X211939523Y-99447380D01*
X212130000Y-98780714D01*
X212510952Y-99447380D02*
X212510952Y-98780714D01*
X212510952Y-98447380D02*
X212463333Y-98495000D01*
X212510952Y-98542619D01*
X212558571Y-98495000D01*
X212510952Y-98447380D01*
X212510952Y-98542619D01*
X212844285Y-98780714D02*
X213225238Y-98780714D01*
X212987142Y-98447380D02*
X212987142Y-99304523D01*
X213034761Y-99399761D01*
X213130000Y-99447380D01*
X213225238Y-99447380D01*
X213558571Y-99447380D02*
X213558571Y-98447380D01*
X213987142Y-99447380D02*
X213987142Y-98923571D01*
X213939523Y-98828333D01*
X213844285Y-98780714D01*
X213701428Y-98780714D01*
X213606190Y-98828333D01*
X213558571Y-98875952D01*
X215368095Y-99447380D02*
X215272857Y-99399761D01*
X215225238Y-99304523D01*
X215225238Y-98447380D01*
X215891904Y-99447380D02*
X215796666Y-99399761D01*
X215749047Y-99352142D01*
X215701428Y-99256904D01*
X215701428Y-98971190D01*
X215749047Y-98875952D01*
X215796666Y-98828333D01*
X215891904Y-98780714D01*
X216034761Y-98780714D01*
X216130000Y-98828333D01*
X216177619Y-98875952D01*
X216225238Y-98971190D01*
X216225238Y-99256904D01*
X216177619Y-99352142D01*
X216130000Y-99399761D01*
X216034761Y-99447380D01*
X215891904Y-99447380D01*
X216558571Y-98780714D02*
X216796666Y-99447380D01*
X217034761Y-98780714D01*
X217796666Y-99399761D02*
X217701428Y-99447380D01*
X217510952Y-99447380D01*
X217415714Y-99399761D01*
X217368095Y-99304523D01*
X217368095Y-98923571D01*
X217415714Y-98828333D01*
X217510952Y-98780714D01*
X217701428Y-98780714D01*
X217796666Y-98828333D01*
X217844285Y-98923571D01*
X217844285Y-99018809D01*
X217368095Y-99114047D01*
X204136666Y-101528571D02*
X204279523Y-101576190D01*
X204327142Y-101623809D01*
X204374761Y-101719047D01*
X204374761Y-101861904D01*
X204327142Y-101957142D01*
X204279523Y-102004761D01*
X204184285Y-102052380D01*
X203803333Y-102052380D01*
X203803333Y-101052380D01*
X204136666Y-101052380D01*
X204231904Y-101100000D01*
X204279523Y-101147619D01*
X204327142Y-101242857D01*
X204327142Y-101338095D01*
X204279523Y-101433333D01*
X204231904Y-101480952D01*
X204136666Y-101528571D01*
X203803333Y-101528571D01*
X204803333Y-102052380D02*
X204803333Y-101052380D01*
X204898571Y-101671428D02*
X205184285Y-102052380D01*
X205184285Y-101385714D02*
X204803333Y-101766666D01*
X201787142Y-102052380D02*
X201453809Y-101576190D01*
X201215714Y-102052380D02*
X201215714Y-101052380D01*
X201596666Y-101052380D01*
X201691904Y-101100000D01*
X201739523Y-101147619D01*
X201787142Y-101242857D01*
X201787142Y-101385714D01*
X201739523Y-101480952D01*
X201691904Y-101528571D01*
X201596666Y-101576190D01*
X201215714Y-101576190D01*
X202644285Y-102052380D02*
X202644285Y-101052380D01*
X202644285Y-102004761D02*
X202549047Y-102052380D01*
X202358571Y-102052380D01*
X202263333Y-102004761D01*
X202215714Y-101957142D01*
X202168095Y-101861904D01*
X202168095Y-101576190D01*
X202215714Y-101480952D01*
X202263333Y-101433333D01*
X202358571Y-101385714D01*
X202549047Y-101385714D01*
X202644285Y-101433333D01*
X199342380Y-101100000D02*
X199247142Y-101052380D01*
X199104285Y-101052380D01*
X198961428Y-101100000D01*
X198866190Y-101195238D01*
X198818571Y-101290476D01*
X198770952Y-101480952D01*
X198770952Y-101623809D01*
X198818571Y-101814285D01*
X198866190Y-101909523D01*
X198961428Y-102004761D01*
X199104285Y-102052380D01*
X199199523Y-102052380D01*
X199342380Y-102004761D01*
X199390000Y-101957142D01*
X199390000Y-101623809D01*
X199199523Y-101623809D01*
X199818571Y-102052380D02*
X199818571Y-101385714D01*
X199818571Y-101576190D02*
X199866190Y-101480952D01*
X199913809Y-101433333D01*
X200009047Y-101385714D01*
X200104285Y-101385714D01*
X196659523Y-101528571D02*
X196802380Y-101576190D01*
X196850000Y-101623809D01*
X196897619Y-101719047D01*
X196897619Y-101861904D01*
X196850000Y-101957142D01*
X196802380Y-102004761D01*
X196707142Y-102052380D01*
X196326190Y-102052380D01*
X196326190Y-101052380D01*
X196659523Y-101052380D01*
X196754761Y-101100000D01*
X196802380Y-101147619D01*
X196850000Y-101242857D01*
X196850000Y-101338095D01*
X196802380Y-101433333D01*
X196754761Y-101480952D01*
X196659523Y-101528571D01*
X196326190Y-101528571D01*
X197469047Y-102052380D02*
X197373809Y-102004761D01*
X197326190Y-101909523D01*
X197326190Y-101052380D01*
X194048095Y-101576190D02*
X194048095Y-102052380D01*
X193714761Y-101052380D02*
X194048095Y-101576190D01*
X194381428Y-101052380D01*
X194857619Y-102052380D02*
X194762380Y-102004761D01*
X194714761Y-101909523D01*
X194714761Y-101052380D01*
X93988095Y-104592380D02*
X93988095Y-103592380D01*
X94559523Y-104592380D01*
X94559523Y-103592380D01*
X95035714Y-104068571D02*
X95369047Y-104068571D01*
X95511904Y-104592380D02*
X95035714Y-104592380D01*
X95035714Y-103592380D01*
X95511904Y-103592380D01*
X95940476Y-103592380D02*
X95940476Y-104401904D01*
X95988095Y-104497142D01*
X96035714Y-104544761D01*
X96130952Y-104592380D01*
X96321428Y-104592380D01*
X96416666Y-104544761D01*
X96464285Y-104497142D01*
X96511904Y-104401904D01*
X96511904Y-103592380D01*
X99139523Y-104592380D02*
X99139523Y-103592380D01*
X99139523Y-104068571D02*
X99710952Y-104068571D01*
X99710952Y-104592380D02*
X99710952Y-103592380D01*
X100377619Y-103592380D02*
X100568095Y-103592380D01*
X100663333Y-103640000D01*
X100758571Y-103735238D01*
X100806190Y-103925714D01*
X100806190Y-104259047D01*
X100758571Y-104449523D01*
X100663333Y-104544761D01*
X100568095Y-104592380D01*
X100377619Y-104592380D01*
X100282380Y-104544761D01*
X100187142Y-104449523D01*
X100139523Y-104259047D01*
X100139523Y-103925714D01*
X100187142Y-103735238D01*
X100282380Y-103640000D01*
X100377619Y-103592380D01*
X101091904Y-103592380D02*
X101663333Y-103592380D01*
X101377619Y-104592380D02*
X101377619Y-103592380D01*
X95813809Y-107132380D02*
X95242380Y-107132380D01*
X95528095Y-107132380D02*
X95528095Y-106132380D01*
X95432857Y-106275238D01*
X95337619Y-106370476D01*
X95242380Y-106418095D01*
X96766190Y-107132380D02*
X96194761Y-107132380D01*
X96480476Y-107132380D02*
X96480476Y-106132380D01*
X96385238Y-106275238D01*
X96290000Y-106370476D01*
X96194761Y-106418095D01*
X97385238Y-106132380D02*
X97480476Y-106132380D01*
X97575714Y-106180000D01*
X97623333Y-106227619D01*
X97670952Y-106322857D01*
X97718571Y-106513333D01*
X97718571Y-106751428D01*
X97670952Y-106941904D01*
X97623333Y-107037142D01*
X97575714Y-107084761D01*
X97480476Y-107132380D01*
X97385238Y-107132380D01*
X97290000Y-107084761D01*
X97242380Y-107037142D01*
X97194761Y-106941904D01*
X97147142Y-106751428D01*
X97147142Y-106513333D01*
X97194761Y-106322857D01*
X97242380Y-106227619D01*
X97290000Y-106180000D01*
X97385238Y-106132380D01*
X98861428Y-106846666D02*
X99337619Y-106846666D01*
X98766190Y-107132380D02*
X99099523Y-106132380D01*
X99432857Y-107132380D01*
X100337619Y-107037142D02*
X100290000Y-107084761D01*
X100147142Y-107132380D01*
X100051904Y-107132380D01*
X99909047Y-107084761D01*
X99813809Y-106989523D01*
X99766190Y-106894285D01*
X99718571Y-106703809D01*
X99718571Y-106560952D01*
X99766190Y-106370476D01*
X99813809Y-106275238D01*
X99909047Y-106180000D01*
X100051904Y-106132380D01*
X100147142Y-106132380D01*
X100290000Y-106180000D01*
X100337619Y-106227619D01*
X196485238Y-104592380D02*
X196485238Y-103592380D01*
X196961428Y-104592380D02*
X196961428Y-103592380D01*
X197199523Y-103592380D01*
X197342380Y-103640000D01*
X197437619Y-103735238D01*
X197485238Y-103830476D01*
X197532857Y-104020952D01*
X197532857Y-104163809D01*
X197485238Y-104354285D01*
X197437619Y-104449523D01*
X197342380Y-104544761D01*
X197199523Y-104592380D01*
X196961428Y-104592380D01*
X197961428Y-104068571D02*
X198294761Y-104068571D01*
X198437619Y-104592380D02*
X197961428Y-104592380D01*
X197961428Y-103592380D01*
X198437619Y-103592380D01*
X198866190Y-104592380D02*
X198866190Y-103592380D01*
X199437619Y-104592380D01*
X199437619Y-103592380D01*
X199770952Y-103592380D02*
X200342380Y-103592380D01*
X200056666Y-104592380D02*
X200056666Y-103592380D01*
X200675714Y-104592380D02*
X200675714Y-103592380D01*
X201009047Y-103592380D02*
X201580476Y-103592380D01*
X201294761Y-104592380D02*
X201294761Y-103592380D01*
X202104285Y-104116190D02*
X202104285Y-104592380D01*
X201770952Y-103592380D02*
X202104285Y-104116190D01*
X202437619Y-103592380D01*
D11*
X118382051Y-98044000D02*
G75*
G03X118382051Y-98044000I-1796051J0D01*
G01*
X187470051Y-98044000D02*
G75*
G03X187470051Y-98044000I-1796051J0D01*
G01*
X187470051Y-53594000D02*
G75*
G03X187470051Y-53594000I-1796051J0D01*
G01*
X118382051Y-53594000D02*
G75*
G03X118382051Y-53594000I-1796051J0D01*
G01*
X167640000Y-93345000D02*
X167640000Y-95885000D01*
X182880000Y-93345000D02*
X152400000Y-93345000D01*
X182880000Y-95885000D02*
X182880000Y-93345000D01*
X152400000Y-95885000D02*
X182880000Y-95885000D01*
X152400000Y-93345000D02*
X152400000Y-95885000D01*
X134620000Y-93345000D02*
X134620000Y-95885000D01*
X119380000Y-95885000D02*
X119380000Y-93345000D01*
X149860000Y-95885000D02*
X119380000Y-95885000D01*
X149860000Y-93345000D02*
X149860000Y-95885000D01*
X119380000Y-93345000D02*
X149860000Y-93345000D01*
X150495000Y-90170000D02*
X150495000Y-71120000D01*
X150495000Y-71120000D02*
X135255000Y-71120000D01*
X135255000Y-71120000D02*
X135255000Y-90170000D01*
X135255000Y-90170000D02*
X150495000Y-90170000D01*
X167005000Y-90170000D02*
X167005000Y-71120000D01*
X167005000Y-71120000D02*
X151765000Y-71120000D01*
X151765000Y-71120000D02*
X151765000Y-90170000D01*
X151765000Y-90170000D02*
X167005000Y-90170000D01*
X184150000Y-90170000D02*
X184150000Y-71120000D01*
X184150000Y-71120000D02*
X168910000Y-71120000D01*
X168275000Y-71120000D02*
X168275000Y-90170000D01*
X168910000Y-90170000D02*
X184150000Y-90170000D01*
X118745000Y-71120000D02*
X118745000Y-90170000D01*
X133985000Y-71120000D02*
X118745000Y-71120000D01*
X133985000Y-90170000D02*
X133985000Y-71120000D01*
X118745000Y-90170000D02*
X133985000Y-90170000D01*
X114300000Y-100330000D02*
X114300000Y-51435000D01*
X187960000Y-100330000D02*
X114300000Y-100330000D01*
X187960000Y-51435000D02*
X187960000Y-100330000D01*
X114300000Y-51435000D02*
X187960000Y-51435000D01*
X103450000Y-95320000D02*
X103450000Y-93980000D01*
X102950000Y-95020000D02*
X103450000Y-95320000D01*
X102950000Y-100420000D02*
X102950000Y-95020000D01*
X103450000Y-100170000D02*
X102950000Y-100420000D01*
X103450000Y-100220000D02*
X103450000Y-100170000D01*
X103450000Y-102120000D02*
X103450000Y-100220000D01*
X102950000Y-101870000D02*
X103450000Y-102120000D01*
X102950000Y-102820000D02*
X102950000Y-101870000D01*
X92600000Y-102820000D02*
X102950000Y-102820000D01*
X92600000Y-93980000D02*
X92600000Y-102820000D01*
X82550000Y-91440000D02*
X82550000Y-71120000D01*
X111760000Y-91440000D02*
X82550000Y-91440000D01*
X111760000Y-71120000D02*
X111760000Y-91440000D01*
X82550000Y-71120000D02*
X111760000Y-71120000D01*
X199390000Y-77470000D02*
X199390000Y-87630000D01*
X209550000Y-77470000D02*
X199390000Y-77470000D01*
X209550000Y-87630000D02*
X209550000Y-77470000D01*
X199390000Y-87630000D02*
X209550000Y-87630000D01*
X222250000Y-78740000D02*
X226060000Y-78740000D01*
X222250000Y-86360000D02*
X222250000Y-78740000D01*
X228600000Y-86360000D02*
X222250000Y-86360000D01*
X228600000Y-78740000D02*
X228600000Y-86360000D01*
X226060000Y-78740000D02*
X228600000Y-78740000D01*
X190500000Y-91440000D02*
X190500000Y-73660000D01*
X227330000Y-91440000D02*
X190500000Y-91440000D01*
X227330000Y-73660000D02*
X227330000Y-91440000D01*
X190500000Y-73660000D02*
X227330000Y-73660000D01*
X219075000Y-52070000D02*
X193040000Y-52070000D01*
X219075000Y-71120000D02*
X219075000Y-52070000D01*
X193040000Y-71120000D02*
X219075000Y-71120000D01*
X199390000Y-66040000D02*
X195580000Y-66040000D01*
X199390000Y-55880000D02*
X199390000Y-66040000D01*
X195580000Y-55880000D02*
X199390000Y-55880000D01*
X195580000Y-66040000D02*
X195580000Y-55880000D01*
X193040000Y-71120000D02*
X193040000Y-52070000D01*
X99060000Y-62230000D02*
X99060000Y-54610000D01*
X82550000Y-62230000D02*
X99060000Y-62230000D01*
X82550000Y-54610000D02*
X82550000Y-62230000D01*
X111760000Y-54610000D02*
X73660000Y-54610000D01*
X111760000Y-53340000D02*
X73660000Y-53340000D01*
X111760000Y-52070000D02*
X111760000Y-67310000D01*
X73660000Y-67310000D02*
X73660000Y-52070000D01*
X111760000Y-67310000D02*
X73660000Y-67310000D01*
X82490000Y-96580000D02*
X82490000Y-95250000D01*
X83820000Y-96580000D02*
X82490000Y-96580000D01*
X85090000Y-96580000D02*
X85090000Y-93920000D01*
X85090000Y-93920000D02*
X90230000Y-93920000D01*
X85090000Y-96580000D02*
X90230000Y-96580000D01*
X90230000Y-96580000D02*
X90230000Y-93920000D01*
X205800000Y-99120000D02*
X205800000Y-93920000D01*
X195580000Y-99120000D02*
X205800000Y-99120000D01*
X192980000Y-93920000D02*
X205800000Y-93920000D01*
X195580000Y-99120000D02*
X195580000Y-96520000D01*
X195580000Y-96520000D02*
X192980000Y-96520000D01*
X192980000Y-96520000D02*
X192980000Y-93920000D01*
X194310000Y-99120000D02*
X192980000Y-99120000D01*
X192980000Y-99120000D02*
X192980000Y-97790000D01*
D10*
X145733095Y-67762380D02*
X145399761Y-67286190D01*
X145161666Y-67762380D02*
X145161666Y-66762380D01*
X145542619Y-66762380D01*
X145637857Y-66810000D01*
X145685476Y-66857619D01*
X145733095Y-66952857D01*
X145733095Y-67095714D01*
X145685476Y-67190952D01*
X145637857Y-67238571D01*
X145542619Y-67286190D01*
X145161666Y-67286190D01*
X146161666Y-67238571D02*
X146495000Y-67238571D01*
X146637857Y-67762380D02*
X146161666Y-67762380D01*
X146161666Y-66762380D01*
X146637857Y-66762380D01*
X147542619Y-67762380D02*
X147066428Y-67762380D01*
X147066428Y-66762380D01*
X147828333Y-67476666D02*
X148304523Y-67476666D01*
X147733095Y-67762380D02*
X148066428Y-66762380D01*
X148399761Y-67762380D01*
X148923571Y-67286190D02*
X148923571Y-67762380D01*
X148590238Y-66762380D02*
X148923571Y-67286190D01*
X149256904Y-66762380D01*
X150352142Y-67762380D02*
X150352142Y-66762380D01*
X150685476Y-67476666D01*
X151018809Y-66762380D01*
X151018809Y-67762380D01*
X151685476Y-66762380D02*
X151875952Y-66762380D01*
X151971190Y-66810000D01*
X152066428Y-66905238D01*
X152114047Y-67095714D01*
X152114047Y-67429047D01*
X152066428Y-67619523D01*
X151971190Y-67714761D01*
X151875952Y-67762380D01*
X151685476Y-67762380D01*
X151590238Y-67714761D01*
X151495000Y-67619523D01*
X151447380Y-67429047D01*
X151447380Y-67095714D01*
X151495000Y-66905238D01*
X151590238Y-66810000D01*
X151685476Y-66762380D01*
X152542619Y-67762380D02*
X152542619Y-66762380D01*
X152780714Y-66762380D01*
X152923571Y-66810000D01*
X153018809Y-66905238D01*
X153066428Y-67000476D01*
X153114047Y-67190952D01*
X153114047Y-67333809D01*
X153066428Y-67524285D01*
X153018809Y-67619523D01*
X152923571Y-67714761D01*
X152780714Y-67762380D01*
X152542619Y-67762380D01*
X153542619Y-66762380D02*
X153542619Y-67571904D01*
X153590238Y-67667142D01*
X153637857Y-67714761D01*
X153733095Y-67762380D01*
X153923571Y-67762380D01*
X154018809Y-67714761D01*
X154066428Y-67667142D01*
X154114047Y-67571904D01*
X154114047Y-66762380D01*
X155066428Y-67762380D02*
X154590238Y-67762380D01*
X154590238Y-66762380D01*
X155399761Y-67238571D02*
X155733095Y-67238571D01*
X155875952Y-67762380D02*
X155399761Y-67762380D01*
X155399761Y-66762380D01*
X155875952Y-66762380D01*
X89615238Y-81446666D02*
X90091428Y-81446666D01*
X89520000Y-81732380D02*
X89853333Y-80732380D01*
X90186666Y-81732380D01*
X91091428Y-81637142D02*
X91043809Y-81684761D01*
X90900952Y-81732380D01*
X90805714Y-81732380D01*
X90662857Y-81684761D01*
X90567619Y-81589523D01*
X90520000Y-81494285D01*
X90472380Y-81303809D01*
X90472380Y-81160952D01*
X90520000Y-80970476D01*
X90567619Y-80875238D01*
X90662857Y-80780000D01*
X90805714Y-80732380D01*
X90900952Y-80732380D01*
X91043809Y-80780000D01*
X91091428Y-80827619D01*
X92234285Y-80684761D02*
X91377142Y-81970476D01*
X92567619Y-81732380D02*
X92567619Y-80732380D01*
X92805714Y-80732380D01*
X92948571Y-80780000D01*
X93043809Y-80875238D01*
X93091428Y-80970476D01*
X93139047Y-81160952D01*
X93139047Y-81303809D01*
X93091428Y-81494285D01*
X93043809Y-81589523D01*
X92948571Y-81684761D01*
X92805714Y-81732380D01*
X92567619Y-81732380D01*
X94139047Y-81637142D02*
X94091428Y-81684761D01*
X93948571Y-81732380D01*
X93853333Y-81732380D01*
X93710476Y-81684761D01*
X93615238Y-81589523D01*
X93567619Y-81494285D01*
X93520000Y-81303809D01*
X93520000Y-81160952D01*
X93567619Y-80970476D01*
X93615238Y-80875238D01*
X93710476Y-80780000D01*
X93853333Y-80732380D01*
X93948571Y-80732380D01*
X94091428Y-80780000D01*
X94139047Y-80827619D01*
X95900952Y-81637142D02*
X95853333Y-81684761D01*
X95710476Y-81732380D01*
X95615238Y-81732380D01*
X95472380Y-81684761D01*
X95377142Y-81589523D01*
X95329523Y-81494285D01*
X95281904Y-81303809D01*
X95281904Y-81160952D01*
X95329523Y-80970476D01*
X95377142Y-80875238D01*
X95472380Y-80780000D01*
X95615238Y-80732380D01*
X95710476Y-80732380D01*
X95853333Y-80780000D01*
X95900952Y-80827619D01*
X96520000Y-80732380D02*
X96710476Y-80732380D01*
X96805714Y-80780000D01*
X96900952Y-80875238D01*
X96948571Y-81065714D01*
X96948571Y-81399047D01*
X96900952Y-81589523D01*
X96805714Y-81684761D01*
X96710476Y-81732380D01*
X96520000Y-81732380D01*
X96424761Y-81684761D01*
X96329523Y-81589523D01*
X96281904Y-81399047D01*
X96281904Y-81065714D01*
X96329523Y-80875238D01*
X96424761Y-80780000D01*
X96520000Y-80732380D01*
X97377142Y-81732380D02*
X97377142Y-80732380D01*
X97948571Y-81732380D01*
X97948571Y-80732380D01*
X98281904Y-80732380D02*
X98615238Y-81732380D01*
X98948571Y-80732380D01*
X99281904Y-81208571D02*
X99615238Y-81208571D01*
X99758095Y-81732380D02*
X99281904Y-81732380D01*
X99281904Y-80732380D01*
X99758095Y-80732380D01*
X100758095Y-81732380D02*
X100424761Y-81256190D01*
X100186666Y-81732380D02*
X100186666Y-80732380D01*
X100567619Y-80732380D01*
X100662857Y-80780000D01*
X100710476Y-80827619D01*
X100758095Y-80922857D01*
X100758095Y-81065714D01*
X100710476Y-81160952D01*
X100662857Y-81208571D01*
X100567619Y-81256190D01*
X100186666Y-81256190D01*
X101043809Y-80732380D02*
X101615238Y-80732380D01*
X101329523Y-81732380D02*
X101329523Y-80732380D01*
X101948571Y-81208571D02*
X102281904Y-81208571D01*
X102424761Y-81732380D02*
X101948571Y-81732380D01*
X101948571Y-80732380D01*
X102424761Y-80732380D01*
X103424761Y-81732380D02*
X103091428Y-81256190D01*
X102853333Y-81732380D02*
X102853333Y-80732380D01*
X103234285Y-80732380D01*
X103329523Y-80780000D01*
X103377142Y-80827619D01*
X103424761Y-80922857D01*
X103424761Y-81065714D01*
X103377142Y-81160952D01*
X103329523Y-81208571D01*
X103234285Y-81256190D01*
X102853333Y-81256190D01*
X201850952Y-82002380D02*
X202422380Y-82002380D01*
X202136666Y-83002380D02*
X202136666Y-82002380D01*
X202755714Y-82478571D02*
X203089047Y-82478571D01*
X203231904Y-83002380D02*
X202755714Y-83002380D01*
X202755714Y-82002380D01*
X203231904Y-82002380D01*
X203660476Y-82478571D02*
X203993809Y-82478571D01*
X204136666Y-83002380D02*
X203660476Y-83002380D01*
X203660476Y-82002380D01*
X204136666Y-82002380D01*
X204565238Y-83002380D02*
X204565238Y-82002380D01*
X205136666Y-83002380D01*
X205136666Y-82002380D01*
X205565238Y-82954761D02*
X205708095Y-83002380D01*
X205946190Y-83002380D01*
X206041428Y-82954761D01*
X206089047Y-82907142D01*
X206136666Y-82811904D01*
X206136666Y-82716666D01*
X206089047Y-82621428D01*
X206041428Y-82573809D01*
X205946190Y-82526190D01*
X205755714Y-82478571D01*
X205660476Y-82430952D01*
X205612857Y-82383333D01*
X205565238Y-82288095D01*
X205565238Y-82192857D01*
X205612857Y-82097619D01*
X205660476Y-82050000D01*
X205755714Y-82002380D01*
X205993809Y-82002380D01*
X206136666Y-82050000D01*
X206755714Y-82526190D02*
X206755714Y-83002380D01*
X206422380Y-82002380D02*
X206755714Y-82526190D01*
X207089047Y-82002380D01*
X206827380Y-68690238D02*
X205827380Y-68690238D01*
X206827380Y-68118809D01*
X205827380Y-68118809D01*
X206827380Y-67071190D02*
X206351190Y-67404523D01*
X206827380Y-67642619D02*
X205827380Y-67642619D01*
X205827380Y-67261666D01*
X205875000Y-67166428D01*
X205922619Y-67118809D01*
X206017857Y-67071190D01*
X206160714Y-67071190D01*
X206255952Y-67118809D01*
X206303571Y-67166428D01*
X206351190Y-67261666D01*
X206351190Y-67642619D01*
X206303571Y-66309285D02*
X206303571Y-66642619D01*
X206827380Y-66642619D02*
X205827380Y-66642619D01*
X205827380Y-66166428D01*
X205922619Y-65833095D02*
X205875000Y-65785476D01*
X205827380Y-65690238D01*
X205827380Y-65452142D01*
X205875000Y-65356904D01*
X205922619Y-65309285D01*
X206017857Y-65261666D01*
X206113095Y-65261666D01*
X206255952Y-65309285D01*
X206827380Y-65880714D01*
X206827380Y-65261666D01*
X206160714Y-64404523D02*
X206827380Y-64404523D01*
X205779761Y-64642619D02*
X206494047Y-64880714D01*
X206494047Y-64261666D01*
X206827380Y-63404523D02*
X206827380Y-63880714D01*
X205827380Y-63880714D01*
X205827380Y-62880714D02*
X205827380Y-62785476D01*
X205875000Y-62690238D01*
X205922619Y-62642619D01*
X206017857Y-62595000D01*
X206208333Y-62547380D01*
X206446428Y-62547380D01*
X206636904Y-62595000D01*
X206732142Y-62642619D01*
X206779761Y-62690238D01*
X206827380Y-62785476D01*
X206827380Y-62880714D01*
X206779761Y-62975952D01*
X206732142Y-63023571D01*
X206636904Y-63071190D01*
X206446428Y-63118809D01*
X206208333Y-63118809D01*
X206017857Y-63071190D01*
X205922619Y-63023571D01*
X205875000Y-62975952D01*
X205827380Y-62880714D01*
X206827380Y-61595000D02*
X206827380Y-62166428D01*
X206827380Y-61880714D02*
X205827380Y-61880714D01*
X205970238Y-61975952D01*
X206065476Y-62071190D01*
X206113095Y-62166428D01*
X206541666Y-60452142D02*
X206541666Y-59975952D01*
X206827380Y-60547380D02*
X205827380Y-60214047D01*
X206827380Y-59880714D01*
X206827380Y-59547380D02*
X205827380Y-59547380D01*
X205827380Y-59309285D01*
X205875000Y-59166428D01*
X205970238Y-59071190D01*
X206065476Y-59023571D01*
X206255952Y-58975952D01*
X206398809Y-58975952D01*
X206589285Y-59023571D01*
X206684523Y-59071190D01*
X206779761Y-59166428D01*
X206827380Y-59309285D01*
X206827380Y-59547380D01*
X206541666Y-58595000D02*
X206541666Y-58118809D01*
X206827380Y-58690238D02*
X205827380Y-58356904D01*
X206827380Y-58023571D01*
X206827380Y-57690238D02*
X205827380Y-57690238D01*
X205827380Y-57309285D01*
X205875000Y-57214047D01*
X205922619Y-57166428D01*
X206017857Y-57118809D01*
X206160714Y-57118809D01*
X206255952Y-57166428D01*
X206303571Y-57214047D01*
X206351190Y-57309285D01*
X206351190Y-57690238D01*
X205827380Y-56833095D02*
X205827380Y-56261666D01*
X206827380Y-56547380D02*
X205827380Y-56547380D01*
X206303571Y-55928333D02*
X206303571Y-55595000D01*
X206827380Y-55452142D02*
X206827380Y-55928333D01*
X205827380Y-55928333D01*
X205827380Y-55452142D01*
X206827380Y-54452142D02*
X206351190Y-54785476D01*
X206827380Y-55023571D02*
X205827380Y-55023571D01*
X205827380Y-54642619D01*
X205875000Y-54547380D01*
X205922619Y-54499761D01*
X206017857Y-54452142D01*
X206160714Y-54452142D01*
X206255952Y-54499761D01*
X206303571Y-54547380D01*
X206351190Y-54642619D01*
X206351190Y-55023571D01*
X85805238Y-64936666D02*
X86281428Y-64936666D01*
X85710000Y-65222380D02*
X86043333Y-64222380D01*
X86376666Y-65222380D01*
X87281428Y-65127142D02*
X87233809Y-65174761D01*
X87090952Y-65222380D01*
X86995714Y-65222380D01*
X86852857Y-65174761D01*
X86757619Y-65079523D01*
X86710000Y-64984285D01*
X86662380Y-64793809D01*
X86662380Y-64650952D01*
X86710000Y-64460476D01*
X86757619Y-64365238D01*
X86852857Y-64270000D01*
X86995714Y-64222380D01*
X87090952Y-64222380D01*
X87233809Y-64270000D01*
X87281428Y-64317619D01*
X88424285Y-64174761D02*
X87567142Y-65460476D01*
X88757619Y-65222380D02*
X88757619Y-64222380D01*
X88995714Y-64222380D01*
X89138571Y-64270000D01*
X89233809Y-64365238D01*
X89281428Y-64460476D01*
X89329047Y-64650952D01*
X89329047Y-64793809D01*
X89281428Y-64984285D01*
X89233809Y-65079523D01*
X89138571Y-65174761D01*
X88995714Y-65222380D01*
X88757619Y-65222380D01*
X90329047Y-65127142D02*
X90281428Y-65174761D01*
X90138571Y-65222380D01*
X90043333Y-65222380D01*
X89900476Y-65174761D01*
X89805238Y-65079523D01*
X89757619Y-64984285D01*
X89710000Y-64793809D01*
X89710000Y-64650952D01*
X89757619Y-64460476D01*
X89805238Y-64365238D01*
X89900476Y-64270000D01*
X90043333Y-64222380D01*
X90138571Y-64222380D01*
X90281428Y-64270000D01*
X90329047Y-64317619D01*
X92090952Y-65127142D02*
X92043333Y-65174761D01*
X91900476Y-65222380D01*
X91805238Y-65222380D01*
X91662380Y-65174761D01*
X91567142Y-65079523D01*
X91519523Y-64984285D01*
X91471904Y-64793809D01*
X91471904Y-64650952D01*
X91519523Y-64460476D01*
X91567142Y-64365238D01*
X91662380Y-64270000D01*
X91805238Y-64222380D01*
X91900476Y-64222380D01*
X92043333Y-64270000D01*
X92090952Y-64317619D01*
X92710000Y-64222380D02*
X92900476Y-64222380D01*
X92995714Y-64270000D01*
X93090952Y-64365238D01*
X93138571Y-64555714D01*
X93138571Y-64889047D01*
X93090952Y-65079523D01*
X92995714Y-65174761D01*
X92900476Y-65222380D01*
X92710000Y-65222380D01*
X92614761Y-65174761D01*
X92519523Y-65079523D01*
X92471904Y-64889047D01*
X92471904Y-64555714D01*
X92519523Y-64365238D01*
X92614761Y-64270000D01*
X92710000Y-64222380D01*
X93567142Y-65222380D02*
X93567142Y-64222380D01*
X94138571Y-65222380D01*
X94138571Y-64222380D01*
X94471904Y-64222380D02*
X94805238Y-65222380D01*
X95138571Y-64222380D01*
X95471904Y-64698571D02*
X95805238Y-64698571D01*
X95948095Y-65222380D02*
X95471904Y-65222380D01*
X95471904Y-64222380D01*
X95948095Y-64222380D01*
X96948095Y-65222380D02*
X96614761Y-64746190D01*
X96376666Y-65222380D02*
X96376666Y-64222380D01*
X96757619Y-64222380D01*
X96852857Y-64270000D01*
X96900476Y-64317619D01*
X96948095Y-64412857D01*
X96948095Y-64555714D01*
X96900476Y-64650952D01*
X96852857Y-64698571D01*
X96757619Y-64746190D01*
X96376666Y-64746190D01*
X97233809Y-64222380D02*
X97805238Y-64222380D01*
X97519523Y-65222380D02*
X97519523Y-64222380D01*
X98138571Y-64698571D02*
X98471904Y-64698571D01*
X98614761Y-65222380D02*
X98138571Y-65222380D01*
X98138571Y-64222380D01*
X98614761Y-64222380D01*
X99614761Y-65222380D02*
X99281428Y-64746190D01*
X99043333Y-65222380D02*
X99043333Y-64222380D01*
X99424285Y-64222380D01*
X99519523Y-64270000D01*
X99567142Y-64317619D01*
X99614761Y-64412857D01*
X99614761Y-64555714D01*
X99567142Y-64650952D01*
X99519523Y-64698571D01*
X99424285Y-64746190D01*
X99043333Y-64746190D01*
X86987142Y-98242380D02*
X86510952Y-98242380D01*
X86510952Y-97242380D01*
X87320476Y-97718571D02*
X87653809Y-97718571D01*
X87796666Y-98242380D02*
X87320476Y-98242380D01*
X87320476Y-97242380D01*
X87796666Y-97242380D01*
X88225238Y-98242380D02*
X88225238Y-97242380D01*
X88463333Y-97242380D01*
X88606190Y-97290000D01*
X88701428Y-97385238D01*
X88749047Y-97480476D01*
X88796666Y-97670952D01*
X88796666Y-97813809D01*
X88749047Y-98004285D01*
X88701428Y-98099523D01*
X88606190Y-98194761D01*
X88463333Y-98242380D01*
X88225238Y-98242380D01*
M02*
