%TF.GenerationSoftware,KiCad,Pcbnew,(5.1.6)-1*%
%TF.CreationDate,2021-02-04T17:03:45-05:00*%
%TF.ProjectId,horny_charger,686f726e-795f-4636-9861-726765722e6b,rev?*%
%TF.SameCoordinates,Original*%
%TF.FileFunction,Copper,L2,Bot*%
%TF.FilePolarity,Positive*%
%FSLAX46Y46*%
G04 Gerber Fmt 4.6, Leading zero omitted, Abs format (unit mm)*
G04 Created by KiCad (PCBNEW (5.1.6)-1) date 2021-02-04 17:03:45*
%MOMM*%
%LPD*%
G01*
G04 APERTURE LIST*
%TA.AperFunction,ComponentPad*%
%ADD10C,2.100000*%
%TD*%
%TA.AperFunction,ComponentPad*%
%ADD11C,2.550000*%
%TD*%
%TA.AperFunction,ComponentPad*%
%ADD12O,1.700000X3.500000*%
%TD*%
%TA.AperFunction,ComponentPad*%
%ADD13O,1.700000X1.200000*%
%TD*%
%TA.AperFunction,ViaPad*%
%ADD14C,0.800000*%
%TD*%
%TA.AperFunction,Conductor*%
%ADD15C,0.500000*%
%TD*%
%TA.AperFunction,Conductor*%
%ADD16C,0.250000*%
%TD*%
%TA.AperFunction,Conductor*%
%ADD17C,0.254000*%
%TD*%
G04 APERTURE END LIST*
D10*
%TO.P,REF\u002A\u002A,1*%
%TO.N,GND*%
X143675000Y-48275000D03*
%TD*%
%TO.P,REF\u002A\u002A,1*%
%TO.N,batt-charge_in*%
%TA.AperFunction,ComponentPad*%
G36*
G01*
X149500000Y-49100100D02*
X149500000Y-47499900D01*
G75*
G02*
X149749900Y-47250000I249900J0D01*
G01*
X151350100Y-47250000D01*
G75*
G02*
X151600000Y-47499900I0J-249900D01*
G01*
X151600000Y-49100100D01*
G75*
G02*
X151350100Y-49350000I-249900J0D01*
G01*
X149749900Y-49350000D01*
G75*
G02*
X149500000Y-49100100I0J249900D01*
G01*
G37*
%TD.AperFunction*%
%TD*%
%TO.P,REF\u002A\u002A,1*%
%TO.N,sw_r_to_leds*%
%TA.AperFunction,ComponentPad*%
G36*
G01*
X146075000Y-63374900D02*
X146075000Y-65425100D01*
G75*
G02*
X145825100Y-65675000I-249900J0D01*
G01*
X143774900Y-65675000D01*
G75*
G02*
X143525000Y-65425100I0J249900D01*
G01*
X143525000Y-63374900D01*
G75*
G02*
X143774900Y-63125000I249900J0D01*
G01*
X145825100Y-63125000D01*
G75*
G02*
X146075000Y-63374900I0J-249900D01*
G01*
G37*
%TD.AperFunction*%
D11*
%TO.P,REF\u002A\u002A,2*%
%TO.N,GND*%
X140000000Y-64400000D03*
%TD*%
%TO.P,REF\u002A\u002A,2*%
%TO.N,GND*%
X140000000Y-69100000D03*
%TO.P,REF\u002A\u002A,1*%
%TO.N,sw_r_to_leds*%
%TA.AperFunction,ComponentPad*%
G36*
G01*
X146075000Y-68074900D02*
X146075000Y-70125100D01*
G75*
G02*
X145825100Y-70375000I-249900J0D01*
G01*
X143774900Y-70375000D01*
G75*
G02*
X143525000Y-70125100I0J249900D01*
G01*
X143525000Y-68074900D01*
G75*
G02*
X143774900Y-67825000I249900J0D01*
G01*
X145825100Y-67825000D01*
G75*
G02*
X146075000Y-68074900I0J-249900D01*
G01*
G37*
%TD.AperFunction*%
%TD*%
D12*
%TO.P,SW1,1*%
%TO.N,batt-charge_in*%
X140100000Y-96200000D03*
%TO.P,SW1,2*%
%TO.N,sw_to_r*%
X154100000Y-96200000D03*
%TD*%
D13*
%TO.P,J1,S1*%
%TO.N,Net-(J1-PadS1)*%
X151200000Y-89970000D03*
X151200000Y-87030000D03*
X143000000Y-89970000D03*
X143000000Y-87030000D03*
%TD*%
D14*
%TO.N,+5V*%
X155000000Y-45600000D03*
X143675000Y-57475000D03*
X147100000Y-88450000D03*
%TO.N,batt-charge_in*%
X143725000Y-50900000D03*
X148150000Y-42600000D03*
%TO.N,charge_stat_r_to_led*%
X153600000Y-45600000D03*
X153600000Y-54300000D03*
%TO.N,sw_to_r*%
X153400000Y-67900000D03*
%TD*%
D15*
%TO.N,batt-charge_in*%
X148150000Y-46475000D02*
X143725000Y-50900000D01*
X148150000Y-42600000D02*
X148150000Y-46475000D01*
D16*
%TO.N,charge_stat_r_to_led*%
X153600000Y-54300000D02*
X153600000Y-45600000D01*
D15*
%TO.N,sw_to_r*%
X154100000Y-87000000D02*
X154100000Y-96200000D01*
X154100000Y-87000000D02*
X154100000Y-86800000D01*
X154100000Y-86800000D02*
X153400000Y-86100000D01*
X153400000Y-67900000D02*
X153400000Y-86000000D01*
%TD*%
D17*
%TO.N,+5V*%
G36*
X155973197Y-73733503D02*
G01*
X154277000Y-74913467D01*
X154277000Y-68436027D01*
X154310115Y-68386467D01*
X154387533Y-68199565D01*
X154427000Y-68001151D01*
X154427000Y-67798849D01*
X154387533Y-67600435D01*
X154310115Y-67413533D01*
X154197723Y-67245326D01*
X154054674Y-67102277D01*
X153886467Y-66989885D01*
X153699565Y-66912467D01*
X153501151Y-66873000D01*
X153298849Y-66873000D01*
X153100435Y-66912467D01*
X152913533Y-66989885D01*
X152745326Y-67102277D01*
X152602277Y-67245326D01*
X152489885Y-67413533D01*
X152412467Y-67600435D01*
X152373000Y-67798849D01*
X152373000Y-68001151D01*
X152412467Y-68199565D01*
X152489885Y-68386467D01*
X152523000Y-68436027D01*
X152523001Y-86043079D01*
X152523682Y-86049995D01*
X152518757Y-86100000D01*
X152535690Y-86271922D01*
X152536017Y-86273000D01*
X152508699Y-86273000D01*
X152429048Y-86288843D01*
X152321817Y-86158183D01*
X152134983Y-86004851D01*
X151921824Y-85890916D01*
X151690534Y-85820755D01*
X151510268Y-85803000D01*
X150889732Y-85803000D01*
X150709466Y-85820755D01*
X150478176Y-85890916D01*
X150265017Y-86004851D01*
X150078183Y-86158183D01*
X149924851Y-86345017D01*
X149810916Y-86558176D01*
X149740755Y-86789466D01*
X149717064Y-87030000D01*
X149740755Y-87270534D01*
X149810916Y-87501824D01*
X149924851Y-87714983D01*
X150078183Y-87901817D01*
X150265017Y-88055149D01*
X150478176Y-88169084D01*
X150709466Y-88239245D01*
X150889732Y-88257000D01*
X151510268Y-88257000D01*
X151690534Y-88239245D01*
X151921824Y-88169084D01*
X152134983Y-88055149D01*
X152170928Y-88025649D01*
X152329604Y-88091376D01*
X152508699Y-88127000D01*
X152691301Y-88127000D01*
X152870396Y-88091376D01*
X153039099Y-88021496D01*
X153190928Y-87920048D01*
X153223000Y-87887976D01*
X153223001Y-94109024D01*
X153050550Y-94250550D01*
X152865978Y-94475454D01*
X152728828Y-94732043D01*
X152644371Y-95010458D01*
X152623000Y-95227445D01*
X152623000Y-97172556D01*
X152644372Y-97389543D01*
X152728829Y-97667958D01*
X152865979Y-97924547D01*
X153050551Y-98149450D01*
X153275454Y-98334022D01*
X153532043Y-98471172D01*
X153810458Y-98555629D01*
X154100000Y-98584146D01*
X154389543Y-98555629D01*
X154667958Y-98471172D01*
X154924547Y-98334022D01*
X155149450Y-98149450D01*
X155334022Y-97924547D01*
X155471172Y-97667958D01*
X155555629Y-97389543D01*
X155577000Y-97172556D01*
X155577000Y-95227444D01*
X155555629Y-95010457D01*
X155471172Y-94732042D01*
X155334022Y-94475453D01*
X155149450Y-94250550D01*
X154977000Y-94109025D01*
X154977000Y-86843069D01*
X154981242Y-86799999D01*
X154977000Y-86756930D01*
X154977000Y-86756922D01*
X154964310Y-86628079D01*
X154914162Y-86462763D01*
X154832727Y-86310408D01*
X154723133Y-86176867D01*
X154689668Y-86149403D01*
X154277000Y-85736735D01*
X154277000Y-84605271D01*
X155872903Y-86056092D01*
X155853030Y-97542697D01*
X155471553Y-98925549D01*
X153862101Y-99840010D01*
X153786083Y-99848000D01*
X140531886Y-99848000D01*
X140441920Y-99839179D01*
X138941274Y-98903482D01*
X138356933Y-97524054D01*
X138350968Y-95227445D01*
X138623000Y-95227445D01*
X138623000Y-97172556D01*
X138644372Y-97389543D01*
X138728829Y-97667958D01*
X138865979Y-97924547D01*
X139050551Y-98149450D01*
X139275454Y-98334022D01*
X139532043Y-98471172D01*
X139810458Y-98555629D01*
X140100000Y-98584146D01*
X140389543Y-98555629D01*
X140667958Y-98471172D01*
X140924547Y-98334022D01*
X141149450Y-98149450D01*
X141334022Y-97924547D01*
X141471172Y-97667958D01*
X141555629Y-97389543D01*
X141577000Y-97172556D01*
X141577000Y-95227444D01*
X141555629Y-95010457D01*
X141471172Y-94732042D01*
X141334022Y-94475453D01*
X141149450Y-94250550D01*
X140924546Y-94065978D01*
X140667957Y-93928828D01*
X140389542Y-93844371D01*
X140100000Y-93815854D01*
X139810457Y-93844371D01*
X139532042Y-93928828D01*
X139275453Y-94065978D01*
X139050550Y-94250550D01*
X138865978Y-94475454D01*
X138728828Y-94732043D01*
X138644371Y-95010458D01*
X138623000Y-95227445D01*
X138350968Y-95227445D01*
X138337313Y-89970000D01*
X141517064Y-89970000D01*
X141540755Y-90210534D01*
X141610916Y-90441824D01*
X141724851Y-90654983D01*
X141878183Y-90841817D01*
X142065017Y-90995149D01*
X142278176Y-91109084D01*
X142509466Y-91179245D01*
X142689732Y-91197000D01*
X143310268Y-91197000D01*
X143490534Y-91179245D01*
X143721824Y-91109084D01*
X143934983Y-90995149D01*
X144121817Y-90841817D01*
X144275149Y-90654983D01*
X144389084Y-90441824D01*
X144459245Y-90210534D01*
X144482936Y-89970000D01*
X149717064Y-89970000D01*
X149740755Y-90210534D01*
X149810916Y-90441824D01*
X149924851Y-90654983D01*
X150078183Y-90841817D01*
X150265017Y-90995149D01*
X150478176Y-91109084D01*
X150709466Y-91179245D01*
X150889732Y-91197000D01*
X151510268Y-91197000D01*
X151690534Y-91179245D01*
X151921824Y-91109084D01*
X152134983Y-90995149D01*
X152321817Y-90841817D01*
X152475149Y-90654983D01*
X152589084Y-90441824D01*
X152659245Y-90210534D01*
X152682936Y-89970000D01*
X152659245Y-89729466D01*
X152589084Y-89498176D01*
X152475149Y-89285017D01*
X152321817Y-89098183D01*
X152134983Y-88944851D01*
X151921824Y-88830916D01*
X151690534Y-88760755D01*
X151510268Y-88743000D01*
X150889732Y-88743000D01*
X150709466Y-88760755D01*
X150478176Y-88830916D01*
X150265017Y-88944851D01*
X150078183Y-89098183D01*
X149924851Y-89285017D01*
X149810916Y-89498176D01*
X149740755Y-89729466D01*
X149717064Y-89970000D01*
X144482936Y-89970000D01*
X144459245Y-89729466D01*
X144389084Y-89498176D01*
X144275149Y-89285017D01*
X144121817Y-89098183D01*
X143934983Y-88944851D01*
X143721824Y-88830916D01*
X143490534Y-88760755D01*
X143310268Y-88743000D01*
X142689732Y-88743000D01*
X142509466Y-88760755D01*
X142278176Y-88830916D01*
X142065017Y-88944851D01*
X141878183Y-89098183D01*
X141724851Y-89285017D01*
X141610916Y-89498176D01*
X141540755Y-89729466D01*
X141517064Y-89970000D01*
X138337313Y-89970000D01*
X138329881Y-87108699D01*
X140673000Y-87108699D01*
X140673000Y-87291301D01*
X140708624Y-87470396D01*
X140778504Y-87639099D01*
X140879952Y-87790928D01*
X141009072Y-87920048D01*
X141160901Y-88021496D01*
X141329604Y-88091376D01*
X141508699Y-88127000D01*
X141691301Y-88127000D01*
X141870396Y-88091376D01*
X142029072Y-88025649D01*
X142065017Y-88055149D01*
X142278176Y-88169084D01*
X142509466Y-88239245D01*
X142689732Y-88257000D01*
X143310268Y-88257000D01*
X143490534Y-88239245D01*
X143721824Y-88169084D01*
X143934983Y-88055149D01*
X144121817Y-87901817D01*
X144275149Y-87714983D01*
X144389084Y-87501824D01*
X144459245Y-87270534D01*
X144482936Y-87030000D01*
X144459245Y-86789466D01*
X144389084Y-86558176D01*
X144275149Y-86345017D01*
X144121817Y-86158183D01*
X143934983Y-86004851D01*
X143721824Y-85890916D01*
X143490534Y-85820755D01*
X143310268Y-85803000D01*
X142689732Y-85803000D01*
X142509466Y-85820755D01*
X142278176Y-85890916D01*
X142065017Y-86004851D01*
X141878183Y-86158183D01*
X141770952Y-86288843D01*
X141691301Y-86273000D01*
X141508699Y-86273000D01*
X141329604Y-86308624D01*
X141160901Y-86378504D01*
X141009072Y-86479952D01*
X140879952Y-86609072D01*
X140778504Y-86760901D01*
X140708624Y-86929604D01*
X140673000Y-87108699D01*
X138329881Y-87108699D01*
X138327146Y-86056047D01*
X140485429Y-84093972D01*
X140502121Y-84075500D01*
X140514888Y-84054127D01*
X140523240Y-84030673D01*
X140527000Y-84000000D01*
X140527000Y-75400000D01*
X140524560Y-75375224D01*
X140517333Y-75351399D01*
X140505597Y-75329443D01*
X140489803Y-75310197D01*
X140478829Y-75300426D01*
X138225804Y-73516781D01*
X138169843Y-73301648D01*
X138152000Y-73074435D01*
X138152000Y-72645917D01*
X138335570Y-72645917D01*
X138335570Y-72954083D01*
X138395690Y-73256328D01*
X138513620Y-73541036D01*
X138684828Y-73797266D01*
X138902734Y-74015172D01*
X139158964Y-74186380D01*
X139443672Y-74304310D01*
X139745917Y-74364430D01*
X140054083Y-74364430D01*
X140356328Y-74304310D01*
X140641036Y-74186380D01*
X140897266Y-74015172D01*
X141115172Y-73797266D01*
X141286380Y-73541036D01*
X141404310Y-73256328D01*
X141464430Y-72954083D01*
X141464430Y-72645917D01*
X141404310Y-72343672D01*
X141286380Y-72058964D01*
X141115172Y-71802734D01*
X140897266Y-71584828D01*
X140641036Y-71413620D01*
X140356328Y-71295690D01*
X140054083Y-71235570D01*
X139745917Y-71235570D01*
X139443672Y-71295690D01*
X139158964Y-71413620D01*
X138902734Y-71584828D01*
X138684828Y-71802734D01*
X138513620Y-72058964D01*
X138395690Y-72343672D01*
X138335570Y-72645917D01*
X138152000Y-72645917D01*
X138152000Y-69558806D01*
X138171093Y-69654793D01*
X138314469Y-70000935D01*
X138522620Y-70312454D01*
X138787546Y-70577380D01*
X139099065Y-70785531D01*
X139445207Y-70928907D01*
X139812669Y-71002000D01*
X140187331Y-71002000D01*
X140554793Y-70928907D01*
X140900935Y-70785531D01*
X141212454Y-70577380D01*
X141477380Y-70312454D01*
X141685531Y-70000935D01*
X141828907Y-69654793D01*
X141902000Y-69287331D01*
X141902000Y-68912669D01*
X141828907Y-68545207D01*
X141685531Y-68199065D01*
X141602567Y-68074900D01*
X142894967Y-68074900D01*
X142894967Y-70125100D01*
X142911875Y-70296766D01*
X142961948Y-70461836D01*
X143043262Y-70613965D01*
X143152693Y-70747307D01*
X143286035Y-70856738D01*
X143438164Y-70938052D01*
X143603234Y-70988125D01*
X143774900Y-71005033D01*
X145825100Y-71005033D01*
X145996766Y-70988125D01*
X146161836Y-70938052D01*
X146313965Y-70856738D01*
X146447307Y-70747307D01*
X146556738Y-70613965D01*
X146638052Y-70461836D01*
X146688125Y-70296766D01*
X146705033Y-70125100D01*
X146705033Y-68074900D01*
X146688125Y-67903234D01*
X146638052Y-67738164D01*
X146556738Y-67586035D01*
X146447307Y-67452693D01*
X146313965Y-67343262D01*
X146161836Y-67261948D01*
X145996766Y-67211875D01*
X145825100Y-67194967D01*
X143774900Y-67194967D01*
X143603234Y-67211875D01*
X143438164Y-67261948D01*
X143286035Y-67343262D01*
X143152693Y-67452693D01*
X143043262Y-67586035D01*
X142961948Y-67738164D01*
X142911875Y-67903234D01*
X142894967Y-68074900D01*
X141602567Y-68074900D01*
X141477380Y-67887546D01*
X141212454Y-67622620D01*
X140900935Y-67414469D01*
X140554793Y-67271093D01*
X140187331Y-67198000D01*
X139812669Y-67198000D01*
X139445207Y-67271093D01*
X139099065Y-67414469D01*
X138787546Y-67622620D01*
X138522620Y-67887546D01*
X138314469Y-68199065D01*
X138171093Y-68545207D01*
X138152000Y-68641194D01*
X138152000Y-64858806D01*
X138171093Y-64954793D01*
X138314469Y-65300935D01*
X138522620Y-65612454D01*
X138787546Y-65877380D01*
X139099065Y-66085531D01*
X139445207Y-66228907D01*
X139812669Y-66302000D01*
X140187331Y-66302000D01*
X140554793Y-66228907D01*
X140900935Y-66085531D01*
X141212454Y-65877380D01*
X141477380Y-65612454D01*
X141685531Y-65300935D01*
X141828907Y-64954793D01*
X141902000Y-64587331D01*
X141902000Y-64212669D01*
X141828907Y-63845207D01*
X141685531Y-63499065D01*
X141602567Y-63374900D01*
X142894967Y-63374900D01*
X142894967Y-65425100D01*
X142911875Y-65596766D01*
X142961948Y-65761836D01*
X143043262Y-65913965D01*
X143152693Y-66047307D01*
X143286035Y-66156738D01*
X143438164Y-66238052D01*
X143603234Y-66288125D01*
X143774900Y-66305033D01*
X145825100Y-66305033D01*
X145996766Y-66288125D01*
X146161836Y-66238052D01*
X146313965Y-66156738D01*
X146447307Y-66047307D01*
X146556738Y-65913965D01*
X146638052Y-65761836D01*
X146688125Y-65596766D01*
X146705033Y-65425100D01*
X146705033Y-63374900D01*
X146688125Y-63203234D01*
X146638052Y-63038164D01*
X146556738Y-62886035D01*
X146447307Y-62752693D01*
X146313965Y-62643262D01*
X146161836Y-62561948D01*
X145996766Y-62511875D01*
X145825100Y-62494967D01*
X143774900Y-62494967D01*
X143603234Y-62511875D01*
X143438164Y-62561948D01*
X143286035Y-62643262D01*
X143152693Y-62752693D01*
X143043262Y-62886035D01*
X142961948Y-63038164D01*
X142911875Y-63203234D01*
X142894967Y-63374900D01*
X141602567Y-63374900D01*
X141477380Y-63187546D01*
X141212454Y-62922620D01*
X140900935Y-62714469D01*
X140554793Y-62571093D01*
X140187331Y-62498000D01*
X139812669Y-62498000D01*
X139445207Y-62571093D01*
X139099065Y-62714469D01*
X138787546Y-62922620D01*
X138522620Y-63187546D01*
X138314469Y-63499065D01*
X138171093Y-63845207D01*
X138152000Y-63941194D01*
X138152000Y-60645917D01*
X138435570Y-60645917D01*
X138435570Y-60954083D01*
X138495690Y-61256328D01*
X138613620Y-61541036D01*
X138784828Y-61797266D01*
X139002734Y-62015172D01*
X139258964Y-62186380D01*
X139543672Y-62304310D01*
X139845917Y-62364430D01*
X140154083Y-62364430D01*
X140456328Y-62304310D01*
X140741036Y-62186380D01*
X140997266Y-62015172D01*
X141215172Y-61797266D01*
X141386380Y-61541036D01*
X141504310Y-61256328D01*
X141564430Y-60954083D01*
X141564430Y-60645917D01*
X152635570Y-60645917D01*
X152635570Y-60954083D01*
X152695690Y-61256328D01*
X152813620Y-61541036D01*
X152984828Y-61797266D01*
X153202734Y-62015172D01*
X153458964Y-62186380D01*
X153743672Y-62304310D01*
X154045917Y-62364430D01*
X154354083Y-62364430D01*
X154656328Y-62304310D01*
X154941036Y-62186380D01*
X155197266Y-62015172D01*
X155415172Y-61797266D01*
X155586380Y-61541036D01*
X155704310Y-61256328D01*
X155764430Y-60954083D01*
X155764430Y-60645917D01*
X155704310Y-60343672D01*
X155586380Y-60058964D01*
X155415172Y-59802734D01*
X155197266Y-59584828D01*
X154941036Y-59413620D01*
X154656328Y-59295690D01*
X154354083Y-59235570D01*
X154045917Y-59235570D01*
X153743672Y-59295690D01*
X153458964Y-59413620D01*
X153202734Y-59584828D01*
X152984828Y-59802734D01*
X152813620Y-60058964D01*
X152695690Y-60343672D01*
X152635570Y-60645917D01*
X141564430Y-60645917D01*
X141504310Y-60343672D01*
X141386380Y-60058964D01*
X141215172Y-59802734D01*
X140997266Y-59584828D01*
X140741036Y-59413620D01*
X140456328Y-59295690D01*
X140154083Y-59235570D01*
X139845917Y-59235570D01*
X139543672Y-59295690D01*
X139258964Y-59413620D01*
X139002734Y-59584828D01*
X138784828Y-59802734D01*
X138613620Y-60058964D01*
X138495690Y-60343672D01*
X138435570Y-60645917D01*
X138152000Y-60645917D01*
X138152000Y-48109830D01*
X141998000Y-48109830D01*
X141998000Y-48440170D01*
X142062446Y-48764163D01*
X142188862Y-49069357D01*
X142372389Y-49344025D01*
X142605975Y-49577611D01*
X142880643Y-49761138D01*
X143185837Y-49887554D01*
X143388337Y-49927834D01*
X143238533Y-49989885D01*
X143070326Y-50102277D01*
X142927277Y-50245326D01*
X142814885Y-50413533D01*
X142737467Y-50600435D01*
X142698000Y-50798849D01*
X142698000Y-51001151D01*
X142737467Y-51199565D01*
X142814885Y-51386467D01*
X142927277Y-51554674D01*
X143070326Y-51697723D01*
X143238533Y-51810115D01*
X143425435Y-51887533D01*
X143623849Y-51927000D01*
X143826151Y-51927000D01*
X144024565Y-51887533D01*
X144211467Y-51810115D01*
X144379674Y-51697723D01*
X144522723Y-51554674D01*
X144635115Y-51386467D01*
X144712533Y-51199565D01*
X144724162Y-51141103D01*
X148365365Y-47499900D01*
X148869967Y-47499900D01*
X148869967Y-49100100D01*
X148886875Y-49271766D01*
X148936948Y-49436836D01*
X149018262Y-49588965D01*
X149127693Y-49722307D01*
X149261035Y-49831738D01*
X149413164Y-49913052D01*
X149578234Y-49963125D01*
X149749900Y-49980033D01*
X151350100Y-49980033D01*
X151521766Y-49963125D01*
X151686836Y-49913052D01*
X151838965Y-49831738D01*
X151972307Y-49722307D01*
X152081738Y-49588965D01*
X152163052Y-49436836D01*
X152213125Y-49271766D01*
X152230033Y-49100100D01*
X152230033Y-47499900D01*
X152213125Y-47328234D01*
X152163052Y-47163164D01*
X152081738Y-47011035D01*
X151972307Y-46877693D01*
X151838965Y-46768262D01*
X151686836Y-46686948D01*
X151521766Y-46636875D01*
X151350100Y-46619967D01*
X149749900Y-46619967D01*
X149578234Y-46636875D01*
X149413164Y-46686948D01*
X149261035Y-46768262D01*
X149127693Y-46877693D01*
X149018262Y-47011035D01*
X148936948Y-47163164D01*
X148886875Y-47328234D01*
X148869967Y-47499900D01*
X148365365Y-47499900D01*
X148739674Y-47125592D01*
X148773133Y-47098133D01*
X148882727Y-46964592D01*
X148964162Y-46812237D01*
X149014310Y-46646922D01*
X149016965Y-46619967D01*
X149031243Y-46475001D01*
X149027000Y-46431921D01*
X149027000Y-45498849D01*
X152573000Y-45498849D01*
X152573000Y-45701151D01*
X152612467Y-45899565D01*
X152689885Y-46086467D01*
X152802277Y-46254674D01*
X152848001Y-46300398D01*
X152848000Y-53599603D01*
X152802277Y-53645326D01*
X152689885Y-53813533D01*
X152612467Y-54000435D01*
X152573000Y-54198849D01*
X152573000Y-54401151D01*
X152612467Y-54599565D01*
X152689885Y-54786467D01*
X152802277Y-54954674D01*
X152945326Y-55097723D01*
X153113533Y-55210115D01*
X153300435Y-55287533D01*
X153498849Y-55327000D01*
X153701151Y-55327000D01*
X153899565Y-55287533D01*
X154086467Y-55210115D01*
X154254674Y-55097723D01*
X154397723Y-54954674D01*
X154510115Y-54786467D01*
X154587533Y-54599565D01*
X154627000Y-54401151D01*
X154627000Y-54198849D01*
X154587533Y-54000435D01*
X154510115Y-53813533D01*
X154397723Y-53645326D01*
X154352000Y-53599603D01*
X154352000Y-46300397D01*
X154397723Y-46254674D01*
X154510115Y-46086467D01*
X154587533Y-45899565D01*
X154627000Y-45701151D01*
X154627000Y-45498849D01*
X154587533Y-45300435D01*
X154510115Y-45113533D01*
X154397723Y-44945326D01*
X154254674Y-44802277D01*
X154086467Y-44689885D01*
X153899565Y-44612467D01*
X153701151Y-44573000D01*
X153498849Y-44573000D01*
X153300435Y-44612467D01*
X153113533Y-44689885D01*
X152945326Y-44802277D01*
X152802277Y-44945326D01*
X152689885Y-45113533D01*
X152612467Y-45300435D01*
X152573000Y-45498849D01*
X149027000Y-45498849D01*
X149027000Y-43136027D01*
X149060115Y-43086467D01*
X149137533Y-42899565D01*
X149177000Y-42701151D01*
X149177000Y-42498849D01*
X149137533Y-42300435D01*
X149060115Y-42113533D01*
X148947723Y-41945326D01*
X148804674Y-41802277D01*
X148636467Y-41689885D01*
X148449565Y-41612467D01*
X148251151Y-41573000D01*
X148048849Y-41573000D01*
X147850435Y-41612467D01*
X147663533Y-41689885D01*
X147495326Y-41802277D01*
X147352277Y-41945326D01*
X147239885Y-42113533D01*
X147162467Y-42300435D01*
X147123000Y-42498849D01*
X147123000Y-42701151D01*
X147162467Y-42899565D01*
X147239885Y-43086467D01*
X147273000Y-43136027D01*
X147273001Y-46111733D01*
X145339209Y-48045525D01*
X145287554Y-47785837D01*
X145161138Y-47480643D01*
X144977611Y-47205975D01*
X144744025Y-46972389D01*
X144469357Y-46788862D01*
X144164163Y-46662446D01*
X143840170Y-46598000D01*
X143509830Y-46598000D01*
X143185837Y-46662446D01*
X142880643Y-46788862D01*
X142605975Y-46972389D01*
X142372389Y-47205975D01*
X142188862Y-47480643D01*
X142062446Y-47785837D01*
X141998000Y-48109830D01*
X138152000Y-48109830D01*
X138152000Y-41866968D01*
X138214459Y-42180969D01*
X138338757Y-42481051D01*
X138519210Y-42751117D01*
X138748883Y-42980790D01*
X139018949Y-43161243D01*
X139319031Y-43285541D01*
X139637597Y-43348908D01*
X139962403Y-43348908D01*
X140280969Y-43285541D01*
X140581051Y-43161243D01*
X140851117Y-42980790D01*
X141080790Y-42751117D01*
X141261243Y-42481051D01*
X141385541Y-42180969D01*
X141448908Y-41862403D01*
X141448908Y-41537597D01*
X141385541Y-41219031D01*
X141261243Y-40918949D01*
X141080790Y-40648883D01*
X140851117Y-40419210D01*
X140600870Y-40252000D01*
X156072549Y-40252000D01*
X155973197Y-73733503D01*
G37*
X155973197Y-73733503D02*
X154277000Y-74913467D01*
X154277000Y-68436027D01*
X154310115Y-68386467D01*
X154387533Y-68199565D01*
X154427000Y-68001151D01*
X154427000Y-67798849D01*
X154387533Y-67600435D01*
X154310115Y-67413533D01*
X154197723Y-67245326D01*
X154054674Y-67102277D01*
X153886467Y-66989885D01*
X153699565Y-66912467D01*
X153501151Y-66873000D01*
X153298849Y-66873000D01*
X153100435Y-66912467D01*
X152913533Y-66989885D01*
X152745326Y-67102277D01*
X152602277Y-67245326D01*
X152489885Y-67413533D01*
X152412467Y-67600435D01*
X152373000Y-67798849D01*
X152373000Y-68001151D01*
X152412467Y-68199565D01*
X152489885Y-68386467D01*
X152523000Y-68436027D01*
X152523001Y-86043079D01*
X152523682Y-86049995D01*
X152518757Y-86100000D01*
X152535690Y-86271922D01*
X152536017Y-86273000D01*
X152508699Y-86273000D01*
X152429048Y-86288843D01*
X152321817Y-86158183D01*
X152134983Y-86004851D01*
X151921824Y-85890916D01*
X151690534Y-85820755D01*
X151510268Y-85803000D01*
X150889732Y-85803000D01*
X150709466Y-85820755D01*
X150478176Y-85890916D01*
X150265017Y-86004851D01*
X150078183Y-86158183D01*
X149924851Y-86345017D01*
X149810916Y-86558176D01*
X149740755Y-86789466D01*
X149717064Y-87030000D01*
X149740755Y-87270534D01*
X149810916Y-87501824D01*
X149924851Y-87714983D01*
X150078183Y-87901817D01*
X150265017Y-88055149D01*
X150478176Y-88169084D01*
X150709466Y-88239245D01*
X150889732Y-88257000D01*
X151510268Y-88257000D01*
X151690534Y-88239245D01*
X151921824Y-88169084D01*
X152134983Y-88055149D01*
X152170928Y-88025649D01*
X152329604Y-88091376D01*
X152508699Y-88127000D01*
X152691301Y-88127000D01*
X152870396Y-88091376D01*
X153039099Y-88021496D01*
X153190928Y-87920048D01*
X153223000Y-87887976D01*
X153223001Y-94109024D01*
X153050550Y-94250550D01*
X152865978Y-94475454D01*
X152728828Y-94732043D01*
X152644371Y-95010458D01*
X152623000Y-95227445D01*
X152623000Y-97172556D01*
X152644372Y-97389543D01*
X152728829Y-97667958D01*
X152865979Y-97924547D01*
X153050551Y-98149450D01*
X153275454Y-98334022D01*
X153532043Y-98471172D01*
X153810458Y-98555629D01*
X154100000Y-98584146D01*
X154389543Y-98555629D01*
X154667958Y-98471172D01*
X154924547Y-98334022D01*
X155149450Y-98149450D01*
X155334022Y-97924547D01*
X155471172Y-97667958D01*
X155555629Y-97389543D01*
X155577000Y-97172556D01*
X155577000Y-95227444D01*
X155555629Y-95010457D01*
X155471172Y-94732042D01*
X155334022Y-94475453D01*
X155149450Y-94250550D01*
X154977000Y-94109025D01*
X154977000Y-86843069D01*
X154981242Y-86799999D01*
X154977000Y-86756930D01*
X154977000Y-86756922D01*
X154964310Y-86628079D01*
X154914162Y-86462763D01*
X154832727Y-86310408D01*
X154723133Y-86176867D01*
X154689668Y-86149403D01*
X154277000Y-85736735D01*
X154277000Y-84605271D01*
X155872903Y-86056092D01*
X155853030Y-97542697D01*
X155471553Y-98925549D01*
X153862101Y-99840010D01*
X153786083Y-99848000D01*
X140531886Y-99848000D01*
X140441920Y-99839179D01*
X138941274Y-98903482D01*
X138356933Y-97524054D01*
X138350968Y-95227445D01*
X138623000Y-95227445D01*
X138623000Y-97172556D01*
X138644372Y-97389543D01*
X138728829Y-97667958D01*
X138865979Y-97924547D01*
X139050551Y-98149450D01*
X139275454Y-98334022D01*
X139532043Y-98471172D01*
X139810458Y-98555629D01*
X140100000Y-98584146D01*
X140389543Y-98555629D01*
X140667958Y-98471172D01*
X140924547Y-98334022D01*
X141149450Y-98149450D01*
X141334022Y-97924547D01*
X141471172Y-97667958D01*
X141555629Y-97389543D01*
X141577000Y-97172556D01*
X141577000Y-95227444D01*
X141555629Y-95010457D01*
X141471172Y-94732042D01*
X141334022Y-94475453D01*
X141149450Y-94250550D01*
X140924546Y-94065978D01*
X140667957Y-93928828D01*
X140389542Y-93844371D01*
X140100000Y-93815854D01*
X139810457Y-93844371D01*
X139532042Y-93928828D01*
X139275453Y-94065978D01*
X139050550Y-94250550D01*
X138865978Y-94475454D01*
X138728828Y-94732043D01*
X138644371Y-95010458D01*
X138623000Y-95227445D01*
X138350968Y-95227445D01*
X138337313Y-89970000D01*
X141517064Y-89970000D01*
X141540755Y-90210534D01*
X141610916Y-90441824D01*
X141724851Y-90654983D01*
X141878183Y-90841817D01*
X142065017Y-90995149D01*
X142278176Y-91109084D01*
X142509466Y-91179245D01*
X142689732Y-91197000D01*
X143310268Y-91197000D01*
X143490534Y-91179245D01*
X143721824Y-91109084D01*
X143934983Y-90995149D01*
X144121817Y-90841817D01*
X144275149Y-90654983D01*
X144389084Y-90441824D01*
X144459245Y-90210534D01*
X144482936Y-89970000D01*
X149717064Y-89970000D01*
X149740755Y-90210534D01*
X149810916Y-90441824D01*
X149924851Y-90654983D01*
X150078183Y-90841817D01*
X150265017Y-90995149D01*
X150478176Y-91109084D01*
X150709466Y-91179245D01*
X150889732Y-91197000D01*
X151510268Y-91197000D01*
X151690534Y-91179245D01*
X151921824Y-91109084D01*
X152134983Y-90995149D01*
X152321817Y-90841817D01*
X152475149Y-90654983D01*
X152589084Y-90441824D01*
X152659245Y-90210534D01*
X152682936Y-89970000D01*
X152659245Y-89729466D01*
X152589084Y-89498176D01*
X152475149Y-89285017D01*
X152321817Y-89098183D01*
X152134983Y-88944851D01*
X151921824Y-88830916D01*
X151690534Y-88760755D01*
X151510268Y-88743000D01*
X150889732Y-88743000D01*
X150709466Y-88760755D01*
X150478176Y-88830916D01*
X150265017Y-88944851D01*
X150078183Y-89098183D01*
X149924851Y-89285017D01*
X149810916Y-89498176D01*
X149740755Y-89729466D01*
X149717064Y-89970000D01*
X144482936Y-89970000D01*
X144459245Y-89729466D01*
X144389084Y-89498176D01*
X144275149Y-89285017D01*
X144121817Y-89098183D01*
X143934983Y-88944851D01*
X143721824Y-88830916D01*
X143490534Y-88760755D01*
X143310268Y-88743000D01*
X142689732Y-88743000D01*
X142509466Y-88760755D01*
X142278176Y-88830916D01*
X142065017Y-88944851D01*
X141878183Y-89098183D01*
X141724851Y-89285017D01*
X141610916Y-89498176D01*
X141540755Y-89729466D01*
X141517064Y-89970000D01*
X138337313Y-89970000D01*
X138329881Y-87108699D01*
X140673000Y-87108699D01*
X140673000Y-87291301D01*
X140708624Y-87470396D01*
X140778504Y-87639099D01*
X140879952Y-87790928D01*
X141009072Y-87920048D01*
X141160901Y-88021496D01*
X141329604Y-88091376D01*
X141508699Y-88127000D01*
X141691301Y-88127000D01*
X141870396Y-88091376D01*
X142029072Y-88025649D01*
X142065017Y-88055149D01*
X142278176Y-88169084D01*
X142509466Y-88239245D01*
X142689732Y-88257000D01*
X143310268Y-88257000D01*
X143490534Y-88239245D01*
X143721824Y-88169084D01*
X143934983Y-88055149D01*
X144121817Y-87901817D01*
X144275149Y-87714983D01*
X144389084Y-87501824D01*
X144459245Y-87270534D01*
X144482936Y-87030000D01*
X144459245Y-86789466D01*
X144389084Y-86558176D01*
X144275149Y-86345017D01*
X144121817Y-86158183D01*
X143934983Y-86004851D01*
X143721824Y-85890916D01*
X143490534Y-85820755D01*
X143310268Y-85803000D01*
X142689732Y-85803000D01*
X142509466Y-85820755D01*
X142278176Y-85890916D01*
X142065017Y-86004851D01*
X141878183Y-86158183D01*
X141770952Y-86288843D01*
X141691301Y-86273000D01*
X141508699Y-86273000D01*
X141329604Y-86308624D01*
X141160901Y-86378504D01*
X141009072Y-86479952D01*
X140879952Y-86609072D01*
X140778504Y-86760901D01*
X140708624Y-86929604D01*
X140673000Y-87108699D01*
X138329881Y-87108699D01*
X138327146Y-86056047D01*
X140485429Y-84093972D01*
X140502121Y-84075500D01*
X140514888Y-84054127D01*
X140523240Y-84030673D01*
X140527000Y-84000000D01*
X140527000Y-75400000D01*
X140524560Y-75375224D01*
X140517333Y-75351399D01*
X140505597Y-75329443D01*
X140489803Y-75310197D01*
X140478829Y-75300426D01*
X138225804Y-73516781D01*
X138169843Y-73301648D01*
X138152000Y-73074435D01*
X138152000Y-72645917D01*
X138335570Y-72645917D01*
X138335570Y-72954083D01*
X138395690Y-73256328D01*
X138513620Y-73541036D01*
X138684828Y-73797266D01*
X138902734Y-74015172D01*
X139158964Y-74186380D01*
X139443672Y-74304310D01*
X139745917Y-74364430D01*
X140054083Y-74364430D01*
X140356328Y-74304310D01*
X140641036Y-74186380D01*
X140897266Y-74015172D01*
X141115172Y-73797266D01*
X141286380Y-73541036D01*
X141404310Y-73256328D01*
X141464430Y-72954083D01*
X141464430Y-72645917D01*
X141404310Y-72343672D01*
X141286380Y-72058964D01*
X141115172Y-71802734D01*
X140897266Y-71584828D01*
X140641036Y-71413620D01*
X140356328Y-71295690D01*
X140054083Y-71235570D01*
X139745917Y-71235570D01*
X139443672Y-71295690D01*
X139158964Y-71413620D01*
X138902734Y-71584828D01*
X138684828Y-71802734D01*
X138513620Y-72058964D01*
X138395690Y-72343672D01*
X138335570Y-72645917D01*
X138152000Y-72645917D01*
X138152000Y-69558806D01*
X138171093Y-69654793D01*
X138314469Y-70000935D01*
X138522620Y-70312454D01*
X138787546Y-70577380D01*
X139099065Y-70785531D01*
X139445207Y-70928907D01*
X139812669Y-71002000D01*
X140187331Y-71002000D01*
X140554793Y-70928907D01*
X140900935Y-70785531D01*
X141212454Y-70577380D01*
X141477380Y-70312454D01*
X141685531Y-70000935D01*
X141828907Y-69654793D01*
X141902000Y-69287331D01*
X141902000Y-68912669D01*
X141828907Y-68545207D01*
X141685531Y-68199065D01*
X141602567Y-68074900D01*
X142894967Y-68074900D01*
X142894967Y-70125100D01*
X142911875Y-70296766D01*
X142961948Y-70461836D01*
X143043262Y-70613965D01*
X143152693Y-70747307D01*
X143286035Y-70856738D01*
X143438164Y-70938052D01*
X143603234Y-70988125D01*
X143774900Y-71005033D01*
X145825100Y-71005033D01*
X145996766Y-70988125D01*
X146161836Y-70938052D01*
X146313965Y-70856738D01*
X146447307Y-70747307D01*
X146556738Y-70613965D01*
X146638052Y-70461836D01*
X146688125Y-70296766D01*
X146705033Y-70125100D01*
X146705033Y-68074900D01*
X146688125Y-67903234D01*
X146638052Y-67738164D01*
X146556738Y-67586035D01*
X146447307Y-67452693D01*
X146313965Y-67343262D01*
X146161836Y-67261948D01*
X145996766Y-67211875D01*
X145825100Y-67194967D01*
X143774900Y-67194967D01*
X143603234Y-67211875D01*
X143438164Y-67261948D01*
X143286035Y-67343262D01*
X143152693Y-67452693D01*
X143043262Y-67586035D01*
X142961948Y-67738164D01*
X142911875Y-67903234D01*
X142894967Y-68074900D01*
X141602567Y-68074900D01*
X141477380Y-67887546D01*
X141212454Y-67622620D01*
X140900935Y-67414469D01*
X140554793Y-67271093D01*
X140187331Y-67198000D01*
X139812669Y-67198000D01*
X139445207Y-67271093D01*
X139099065Y-67414469D01*
X138787546Y-67622620D01*
X138522620Y-67887546D01*
X138314469Y-68199065D01*
X138171093Y-68545207D01*
X138152000Y-68641194D01*
X138152000Y-64858806D01*
X138171093Y-64954793D01*
X138314469Y-65300935D01*
X138522620Y-65612454D01*
X138787546Y-65877380D01*
X139099065Y-66085531D01*
X139445207Y-66228907D01*
X139812669Y-66302000D01*
X140187331Y-66302000D01*
X140554793Y-66228907D01*
X140900935Y-66085531D01*
X141212454Y-65877380D01*
X141477380Y-65612454D01*
X141685531Y-65300935D01*
X141828907Y-64954793D01*
X141902000Y-64587331D01*
X141902000Y-64212669D01*
X141828907Y-63845207D01*
X141685531Y-63499065D01*
X141602567Y-63374900D01*
X142894967Y-63374900D01*
X142894967Y-65425100D01*
X142911875Y-65596766D01*
X142961948Y-65761836D01*
X143043262Y-65913965D01*
X143152693Y-66047307D01*
X143286035Y-66156738D01*
X143438164Y-66238052D01*
X143603234Y-66288125D01*
X143774900Y-66305033D01*
X145825100Y-66305033D01*
X145996766Y-66288125D01*
X146161836Y-66238052D01*
X146313965Y-66156738D01*
X146447307Y-66047307D01*
X146556738Y-65913965D01*
X146638052Y-65761836D01*
X146688125Y-65596766D01*
X146705033Y-65425100D01*
X146705033Y-63374900D01*
X146688125Y-63203234D01*
X146638052Y-63038164D01*
X146556738Y-62886035D01*
X146447307Y-62752693D01*
X146313965Y-62643262D01*
X146161836Y-62561948D01*
X145996766Y-62511875D01*
X145825100Y-62494967D01*
X143774900Y-62494967D01*
X143603234Y-62511875D01*
X143438164Y-62561948D01*
X143286035Y-62643262D01*
X143152693Y-62752693D01*
X143043262Y-62886035D01*
X142961948Y-63038164D01*
X142911875Y-63203234D01*
X142894967Y-63374900D01*
X141602567Y-63374900D01*
X141477380Y-63187546D01*
X141212454Y-62922620D01*
X140900935Y-62714469D01*
X140554793Y-62571093D01*
X140187331Y-62498000D01*
X139812669Y-62498000D01*
X139445207Y-62571093D01*
X139099065Y-62714469D01*
X138787546Y-62922620D01*
X138522620Y-63187546D01*
X138314469Y-63499065D01*
X138171093Y-63845207D01*
X138152000Y-63941194D01*
X138152000Y-60645917D01*
X138435570Y-60645917D01*
X138435570Y-60954083D01*
X138495690Y-61256328D01*
X138613620Y-61541036D01*
X138784828Y-61797266D01*
X139002734Y-62015172D01*
X139258964Y-62186380D01*
X139543672Y-62304310D01*
X139845917Y-62364430D01*
X140154083Y-62364430D01*
X140456328Y-62304310D01*
X140741036Y-62186380D01*
X140997266Y-62015172D01*
X141215172Y-61797266D01*
X141386380Y-61541036D01*
X141504310Y-61256328D01*
X141564430Y-60954083D01*
X141564430Y-60645917D01*
X152635570Y-60645917D01*
X152635570Y-60954083D01*
X152695690Y-61256328D01*
X152813620Y-61541036D01*
X152984828Y-61797266D01*
X153202734Y-62015172D01*
X153458964Y-62186380D01*
X153743672Y-62304310D01*
X154045917Y-62364430D01*
X154354083Y-62364430D01*
X154656328Y-62304310D01*
X154941036Y-62186380D01*
X155197266Y-62015172D01*
X155415172Y-61797266D01*
X155586380Y-61541036D01*
X155704310Y-61256328D01*
X155764430Y-60954083D01*
X155764430Y-60645917D01*
X155704310Y-60343672D01*
X155586380Y-60058964D01*
X155415172Y-59802734D01*
X155197266Y-59584828D01*
X154941036Y-59413620D01*
X154656328Y-59295690D01*
X154354083Y-59235570D01*
X154045917Y-59235570D01*
X153743672Y-59295690D01*
X153458964Y-59413620D01*
X153202734Y-59584828D01*
X152984828Y-59802734D01*
X152813620Y-60058964D01*
X152695690Y-60343672D01*
X152635570Y-60645917D01*
X141564430Y-60645917D01*
X141504310Y-60343672D01*
X141386380Y-60058964D01*
X141215172Y-59802734D01*
X140997266Y-59584828D01*
X140741036Y-59413620D01*
X140456328Y-59295690D01*
X140154083Y-59235570D01*
X139845917Y-59235570D01*
X139543672Y-59295690D01*
X139258964Y-59413620D01*
X139002734Y-59584828D01*
X138784828Y-59802734D01*
X138613620Y-60058964D01*
X138495690Y-60343672D01*
X138435570Y-60645917D01*
X138152000Y-60645917D01*
X138152000Y-48109830D01*
X141998000Y-48109830D01*
X141998000Y-48440170D01*
X142062446Y-48764163D01*
X142188862Y-49069357D01*
X142372389Y-49344025D01*
X142605975Y-49577611D01*
X142880643Y-49761138D01*
X143185837Y-49887554D01*
X143388337Y-49927834D01*
X143238533Y-49989885D01*
X143070326Y-50102277D01*
X142927277Y-50245326D01*
X142814885Y-50413533D01*
X142737467Y-50600435D01*
X142698000Y-50798849D01*
X142698000Y-51001151D01*
X142737467Y-51199565D01*
X142814885Y-51386467D01*
X142927277Y-51554674D01*
X143070326Y-51697723D01*
X143238533Y-51810115D01*
X143425435Y-51887533D01*
X143623849Y-51927000D01*
X143826151Y-51927000D01*
X144024565Y-51887533D01*
X144211467Y-51810115D01*
X144379674Y-51697723D01*
X144522723Y-51554674D01*
X144635115Y-51386467D01*
X144712533Y-51199565D01*
X144724162Y-51141103D01*
X148365365Y-47499900D01*
X148869967Y-47499900D01*
X148869967Y-49100100D01*
X148886875Y-49271766D01*
X148936948Y-49436836D01*
X149018262Y-49588965D01*
X149127693Y-49722307D01*
X149261035Y-49831738D01*
X149413164Y-49913052D01*
X149578234Y-49963125D01*
X149749900Y-49980033D01*
X151350100Y-49980033D01*
X151521766Y-49963125D01*
X151686836Y-49913052D01*
X151838965Y-49831738D01*
X151972307Y-49722307D01*
X152081738Y-49588965D01*
X152163052Y-49436836D01*
X152213125Y-49271766D01*
X152230033Y-49100100D01*
X152230033Y-47499900D01*
X152213125Y-47328234D01*
X152163052Y-47163164D01*
X152081738Y-47011035D01*
X151972307Y-46877693D01*
X151838965Y-46768262D01*
X151686836Y-46686948D01*
X151521766Y-46636875D01*
X151350100Y-46619967D01*
X149749900Y-46619967D01*
X149578234Y-46636875D01*
X149413164Y-46686948D01*
X149261035Y-46768262D01*
X149127693Y-46877693D01*
X149018262Y-47011035D01*
X148936948Y-47163164D01*
X148886875Y-47328234D01*
X148869967Y-47499900D01*
X148365365Y-47499900D01*
X148739674Y-47125592D01*
X148773133Y-47098133D01*
X148882727Y-46964592D01*
X148964162Y-46812237D01*
X149014310Y-46646922D01*
X149016965Y-46619967D01*
X149031243Y-46475001D01*
X149027000Y-46431921D01*
X149027000Y-45498849D01*
X152573000Y-45498849D01*
X152573000Y-45701151D01*
X152612467Y-45899565D01*
X152689885Y-46086467D01*
X152802277Y-46254674D01*
X152848001Y-46300398D01*
X152848000Y-53599603D01*
X152802277Y-53645326D01*
X152689885Y-53813533D01*
X152612467Y-54000435D01*
X152573000Y-54198849D01*
X152573000Y-54401151D01*
X152612467Y-54599565D01*
X152689885Y-54786467D01*
X152802277Y-54954674D01*
X152945326Y-55097723D01*
X153113533Y-55210115D01*
X153300435Y-55287533D01*
X153498849Y-55327000D01*
X153701151Y-55327000D01*
X153899565Y-55287533D01*
X154086467Y-55210115D01*
X154254674Y-55097723D01*
X154397723Y-54954674D01*
X154510115Y-54786467D01*
X154587533Y-54599565D01*
X154627000Y-54401151D01*
X154627000Y-54198849D01*
X154587533Y-54000435D01*
X154510115Y-53813533D01*
X154397723Y-53645326D01*
X154352000Y-53599603D01*
X154352000Y-46300397D01*
X154397723Y-46254674D01*
X154510115Y-46086467D01*
X154587533Y-45899565D01*
X154627000Y-45701151D01*
X154627000Y-45498849D01*
X154587533Y-45300435D01*
X154510115Y-45113533D01*
X154397723Y-44945326D01*
X154254674Y-44802277D01*
X154086467Y-44689885D01*
X153899565Y-44612467D01*
X153701151Y-44573000D01*
X153498849Y-44573000D01*
X153300435Y-44612467D01*
X153113533Y-44689885D01*
X152945326Y-44802277D01*
X152802277Y-44945326D01*
X152689885Y-45113533D01*
X152612467Y-45300435D01*
X152573000Y-45498849D01*
X149027000Y-45498849D01*
X149027000Y-43136027D01*
X149060115Y-43086467D01*
X149137533Y-42899565D01*
X149177000Y-42701151D01*
X149177000Y-42498849D01*
X149137533Y-42300435D01*
X149060115Y-42113533D01*
X148947723Y-41945326D01*
X148804674Y-41802277D01*
X148636467Y-41689885D01*
X148449565Y-41612467D01*
X148251151Y-41573000D01*
X148048849Y-41573000D01*
X147850435Y-41612467D01*
X147663533Y-41689885D01*
X147495326Y-41802277D01*
X147352277Y-41945326D01*
X147239885Y-42113533D01*
X147162467Y-42300435D01*
X147123000Y-42498849D01*
X147123000Y-42701151D01*
X147162467Y-42899565D01*
X147239885Y-43086467D01*
X147273000Y-43136027D01*
X147273001Y-46111733D01*
X145339209Y-48045525D01*
X145287554Y-47785837D01*
X145161138Y-47480643D01*
X144977611Y-47205975D01*
X144744025Y-46972389D01*
X144469357Y-46788862D01*
X144164163Y-46662446D01*
X143840170Y-46598000D01*
X143509830Y-46598000D01*
X143185837Y-46662446D01*
X142880643Y-46788862D01*
X142605975Y-46972389D01*
X142372389Y-47205975D01*
X142188862Y-47480643D01*
X142062446Y-47785837D01*
X141998000Y-48109830D01*
X138152000Y-48109830D01*
X138152000Y-41866968D01*
X138214459Y-42180969D01*
X138338757Y-42481051D01*
X138519210Y-42751117D01*
X138748883Y-42980790D01*
X139018949Y-43161243D01*
X139319031Y-43285541D01*
X139637597Y-43348908D01*
X139962403Y-43348908D01*
X140280969Y-43285541D01*
X140581051Y-43161243D01*
X140851117Y-42980790D01*
X141080790Y-42751117D01*
X141261243Y-42481051D01*
X141385541Y-42180969D01*
X141448908Y-41862403D01*
X141448908Y-41537597D01*
X141385541Y-41219031D01*
X141261243Y-40918949D01*
X141080790Y-40648883D01*
X140851117Y-40419210D01*
X140600870Y-40252000D01*
X156072549Y-40252000D01*
X155973197Y-73733503D01*
%TD*%
M02*
