%TF.GenerationSoftware,KiCad,Pcbnew,(5.1.6)-1*%
%TF.CreationDate,2021-02-04T17:03:45-05:00*%
%TF.ProjectId,horny_charger,686f726e-795f-4636-9861-726765722e6b,rev?*%
%TF.SameCoordinates,Original*%
%TF.FileFunction,Copper,L1,Top*%
%TF.FilePolarity,Positive*%
%FSLAX46Y46*%
G04 Gerber Fmt 4.6, Leading zero omitted, Abs format (unit mm)*
G04 Created by KiCad (PCBNEW (5.1.6)-1) date 2021-02-04 17:03:45*
%MOMM*%
%LPD*%
G01*
G04 APERTURE LIST*
%TA.AperFunction,SMDPad,CuDef*%
%ADD10R,1.300000X1.500000*%
%TD*%
%TA.AperFunction,SMDPad,CuDef*%
%ADD11R,1.300000X2.000000*%
%TD*%
%TA.AperFunction,ComponentPad*%
%ADD12C,2.100000*%
%TD*%
%TA.AperFunction,SMDPad,CuDef*%
%ADD13R,0.650000X1.060000*%
%TD*%
%TA.AperFunction,ComponentPad*%
%ADD14C,2.550000*%
%TD*%
%TA.AperFunction,ComponentPad*%
%ADD15O,1.700000X3.500000*%
%TD*%
%TA.AperFunction,ComponentPad*%
%ADD16O,1.700000X1.200000*%
%TD*%
%TA.AperFunction,SMDPad,CuDef*%
%ADD17R,0.270000X1.300000*%
%TD*%
%TA.AperFunction,ViaPad*%
%ADD18C,0.800000*%
%TD*%
%TA.AperFunction,Conductor*%
%ADD19C,0.250000*%
%TD*%
%TA.AperFunction,Conductor*%
%ADD20C,0.500000*%
%TD*%
%TA.AperFunction,Conductor*%
%ADD21C,0.254000*%
%TD*%
G04 APERTURE END LIST*
D10*
%TO.P,RV1,3*%
%TO.N,Net-(RV1-Pad3)*%
X151050000Y-69400000D03*
D11*
%TO.P,RV1,2*%
%TO.N,sw_r_to_leds*%
X152200000Y-64300000D03*
D10*
%TO.P,RV1,1*%
%TO.N,sw_to_r*%
X153350000Y-69400000D03*
%TD*%
D12*
%TO.P,REF\u002A\u002A,1*%
%TO.N,GND*%
X143675000Y-48275000D03*
%TD*%
%TO.P,REF\u002A\u002A,1*%
%TO.N,batt-charge_in*%
%TA.AperFunction,ComponentPad*%
G36*
G01*
X149500000Y-49100100D02*
X149500000Y-47499900D01*
G75*
G02*
X149749900Y-47250000I249900J0D01*
G01*
X151350100Y-47250000D01*
G75*
G02*
X151600000Y-47499900I0J-249900D01*
G01*
X151600000Y-49100100D01*
G75*
G02*
X151350100Y-49350000I-249900J0D01*
G01*
X149749900Y-49350000D01*
G75*
G02*
X149500000Y-49100100I0J249900D01*
G01*
G37*
%TD.AperFunction*%
%TD*%
%TO.P,R3,2*%
%TO.N,Net-(D2-Pad1)*%
%TA.AperFunction,SMDPad,CuDef*%
G36*
G01*
X152875000Y-53325000D02*
X152875000Y-52075000D01*
G75*
G02*
X153125000Y-51825000I250000J0D01*
G01*
X154050000Y-51825000D01*
G75*
G02*
X154300000Y-52075000I0J-250000D01*
G01*
X154300000Y-53325000D01*
G75*
G02*
X154050000Y-53575000I-250000J0D01*
G01*
X153125000Y-53575000D01*
G75*
G02*
X152875000Y-53325000I0J250000D01*
G01*
G37*
%TD.AperFunction*%
%TO.P,R3,1*%
%TO.N,charge_stat_to_r*%
%TA.AperFunction,SMDPad,CuDef*%
G36*
G01*
X149900000Y-53325000D02*
X149900000Y-52075000D01*
G75*
G02*
X150150000Y-51825000I250000J0D01*
G01*
X151075000Y-51825000D01*
G75*
G02*
X151325000Y-52075000I0J-250000D01*
G01*
X151325000Y-53325000D01*
G75*
G02*
X151075000Y-53575000I-250000J0D01*
G01*
X150150000Y-53575000D01*
G75*
G02*
X149900000Y-53325000I0J250000D01*
G01*
G37*
%TD.AperFunction*%
%TD*%
%TO.P,D2,2*%
%TO.N,+5V*%
%TA.AperFunction,SMDPad,CuDef*%
G36*
G01*
X154625000Y-47625000D02*
X153375000Y-47625000D01*
G75*
G02*
X153125000Y-47375000I0J250000D01*
G01*
X153125000Y-46450000D01*
G75*
G02*
X153375000Y-46200000I250000J0D01*
G01*
X154625000Y-46200000D01*
G75*
G02*
X154875000Y-46450000I0J-250000D01*
G01*
X154875000Y-47375000D01*
G75*
G02*
X154625000Y-47625000I-250000J0D01*
G01*
G37*
%TD.AperFunction*%
%TO.P,D2,1*%
%TO.N,Net-(D2-Pad1)*%
%TA.AperFunction,SMDPad,CuDef*%
G36*
G01*
X154625000Y-50600000D02*
X153375000Y-50600000D01*
G75*
G02*
X153125000Y-50350000I0J250000D01*
G01*
X153125000Y-49425000D01*
G75*
G02*
X153375000Y-49175000I250000J0D01*
G01*
X154625000Y-49175000D01*
G75*
G02*
X154875000Y-49425000I0J-250000D01*
G01*
X154875000Y-50350000D01*
G75*
G02*
X154625000Y-50600000I-250000J0D01*
G01*
G37*
%TD.AperFunction*%
%TD*%
%TO.P,D1,2*%
%TO.N,charge_stat_r_to_led*%
%TA.AperFunction,SMDPad,CuDef*%
G36*
G01*
X153375000Y-43475000D02*
X154625000Y-43475000D01*
G75*
G02*
X154875000Y-43725000I0J-250000D01*
G01*
X154875000Y-44650000D01*
G75*
G02*
X154625000Y-44900000I-250000J0D01*
G01*
X153375000Y-44900000D01*
G75*
G02*
X153125000Y-44650000I0J250000D01*
G01*
X153125000Y-43725000D01*
G75*
G02*
X153375000Y-43475000I250000J0D01*
G01*
G37*
%TD.AperFunction*%
%TO.P,D1,1*%
%TO.N,GND*%
%TA.AperFunction,SMDPad,CuDef*%
G36*
G01*
X153375000Y-40500000D02*
X154625000Y-40500000D01*
G75*
G02*
X154875000Y-40750000I0J-250000D01*
G01*
X154875000Y-41675000D01*
G75*
G02*
X154625000Y-41925000I-250000J0D01*
G01*
X153375000Y-41925000D01*
G75*
G02*
X153125000Y-41675000I0J250000D01*
G01*
X153125000Y-40750000D01*
G75*
G02*
X153375000Y-40500000I250000J0D01*
G01*
G37*
%TD.AperFunction*%
%TD*%
D13*
%TO.P,U1,5*%
%TO.N,charge_prog*%
X148050000Y-55700000D03*
%TO.P,U1,4*%
%TO.N,+5V*%
X146150000Y-55700000D03*
%TO.P,U1,3*%
%TO.N,batt-charge_in*%
X146150000Y-53500000D03*
%TO.P,U1,2*%
%TO.N,GND*%
X147100000Y-53500000D03*
%TO.P,U1,1*%
%TO.N,charge_stat_to_r*%
X148050000Y-53500000D03*
%TD*%
%TO.P,R2,2*%
%TO.N,charge_stat_r_to_led*%
%TA.AperFunction,SMDPad,CuDef*%
G36*
G01*
X152875000Y-56425000D02*
X152875000Y-55175000D01*
G75*
G02*
X153125000Y-54925000I250000J0D01*
G01*
X154050000Y-54925000D01*
G75*
G02*
X154300000Y-55175000I0J-250000D01*
G01*
X154300000Y-56425000D01*
G75*
G02*
X154050000Y-56675000I-250000J0D01*
G01*
X153125000Y-56675000D01*
G75*
G02*
X152875000Y-56425000I0J250000D01*
G01*
G37*
%TD.AperFunction*%
%TO.P,R2,1*%
%TO.N,charge_stat_to_r*%
%TA.AperFunction,SMDPad,CuDef*%
G36*
G01*
X149900000Y-56425000D02*
X149900000Y-55175000D01*
G75*
G02*
X150150000Y-54925000I250000J0D01*
G01*
X151075000Y-54925000D01*
G75*
G02*
X151325000Y-55175000I0J-250000D01*
G01*
X151325000Y-56425000D01*
G75*
G02*
X151075000Y-56675000I-250000J0D01*
G01*
X150150000Y-56675000D01*
G75*
G02*
X149900000Y-56425000I0J250000D01*
G01*
G37*
%TD.AperFunction*%
%TD*%
%TO.P,R1,2*%
%TO.N,charge_prog*%
%TA.AperFunction,SMDPad,CuDef*%
G36*
G01*
X147875000Y-58925000D02*
X147875000Y-57675000D01*
G75*
G02*
X148125000Y-57425000I250000J0D01*
G01*
X149050000Y-57425000D01*
G75*
G02*
X149300000Y-57675000I0J-250000D01*
G01*
X149300000Y-58925000D01*
G75*
G02*
X149050000Y-59175000I-250000J0D01*
G01*
X148125000Y-59175000D01*
G75*
G02*
X147875000Y-58925000I0J250000D01*
G01*
G37*
%TD.AperFunction*%
%TO.P,R1,1*%
%TO.N,GND*%
%TA.AperFunction,SMDPad,CuDef*%
G36*
G01*
X144900000Y-58925626D02*
X144900000Y-57674374D01*
G75*
G02*
X145149374Y-57425000I249374J0D01*
G01*
X146075626Y-57425000D01*
G75*
G02*
X146325000Y-57674374I0J-249374D01*
G01*
X146325000Y-58925626D01*
G75*
G02*
X146075626Y-59175000I-249374J0D01*
G01*
X145149374Y-59175000D01*
G75*
G02*
X144900000Y-58925626I0J249374D01*
G01*
G37*
%TD.AperFunction*%
%TD*%
%TO.P,C2,2*%
%TO.N,GND*%
%TA.AperFunction,SMDPad,CuDef*%
G36*
G01*
X141425000Y-52075000D02*
X141425000Y-53325000D01*
G75*
G02*
X141175000Y-53575000I-250000J0D01*
G01*
X140250000Y-53575000D01*
G75*
G02*
X140000000Y-53325000I0J250000D01*
G01*
X140000000Y-52075000D01*
G75*
G02*
X140250000Y-51825000I250000J0D01*
G01*
X141175000Y-51825000D01*
G75*
G02*
X141425000Y-52075000I0J-250000D01*
G01*
G37*
%TD.AperFunction*%
%TO.P,C2,1*%
%TO.N,batt-charge_in*%
%TA.AperFunction,SMDPad,CuDef*%
G36*
G01*
X144400000Y-52075000D02*
X144400000Y-53325000D01*
G75*
G02*
X144150000Y-53575000I-250000J0D01*
G01*
X143225000Y-53575000D01*
G75*
G02*
X142975000Y-53325000I0J250000D01*
G01*
X142975000Y-52075000D01*
G75*
G02*
X143225000Y-51825000I250000J0D01*
G01*
X144150000Y-51825000D01*
G75*
G02*
X144400000Y-52075000I0J-250000D01*
G01*
G37*
%TD.AperFunction*%
%TD*%
%TO.P,C1,2*%
%TO.N,+5V*%
%TA.AperFunction,SMDPad,CuDef*%
G36*
G01*
X142975000Y-56425000D02*
X142975000Y-55175000D01*
G75*
G02*
X143225000Y-54925000I250000J0D01*
G01*
X144150000Y-54925000D01*
G75*
G02*
X144400000Y-55175000I0J-250000D01*
G01*
X144400000Y-56425000D01*
G75*
G02*
X144150000Y-56675000I-250000J0D01*
G01*
X143225000Y-56675000D01*
G75*
G02*
X142975000Y-56425000I0J250000D01*
G01*
G37*
%TD.AperFunction*%
%TO.P,C1,1*%
%TO.N,GND*%
%TA.AperFunction,SMDPad,CuDef*%
G36*
G01*
X140000000Y-56425000D02*
X140000000Y-55175000D01*
G75*
G02*
X140250000Y-54925000I250000J0D01*
G01*
X141175000Y-54925000D01*
G75*
G02*
X141425000Y-55175000I0J-250000D01*
G01*
X141425000Y-56425000D01*
G75*
G02*
X141175000Y-56675000I-250000J0D01*
G01*
X140250000Y-56675000D01*
G75*
G02*
X140000000Y-56425000I0J250000D01*
G01*
G37*
%TD.AperFunction*%
%TD*%
%TO.P,REF\u002A\u002A,1*%
%TO.N,sw_r_to_leds*%
%TA.AperFunction,ComponentPad*%
G36*
G01*
X146075000Y-63374900D02*
X146075000Y-65425100D01*
G75*
G02*
X145825100Y-65675000I-249900J0D01*
G01*
X143774900Y-65675000D01*
G75*
G02*
X143525000Y-65425100I0J249900D01*
G01*
X143525000Y-63374900D01*
G75*
G02*
X143774900Y-63125000I249900J0D01*
G01*
X145825100Y-63125000D01*
G75*
G02*
X146075000Y-63374900I0J-249900D01*
G01*
G37*
%TD.AperFunction*%
D14*
%TO.P,REF\u002A\u002A,2*%
%TO.N,GND*%
X140000000Y-64400000D03*
%TD*%
%TO.P,REF\u002A\u002A,2*%
%TO.N,GND*%
X140000000Y-69100000D03*
%TO.P,REF\u002A\u002A,1*%
%TO.N,sw_r_to_leds*%
%TA.AperFunction,ComponentPad*%
G36*
G01*
X146075000Y-68074900D02*
X146075000Y-70125100D01*
G75*
G02*
X145825100Y-70375000I-249900J0D01*
G01*
X143774900Y-70375000D01*
G75*
G02*
X143525000Y-70125100I0J249900D01*
G01*
X143525000Y-68074900D01*
G75*
G02*
X143774900Y-67825000I249900J0D01*
G01*
X145825100Y-67825000D01*
G75*
G02*
X146075000Y-68074900I0J-249900D01*
G01*
G37*
%TD.AperFunction*%
%TD*%
D15*
%TO.P,SW1,1*%
%TO.N,batt-charge_in*%
X140100000Y-96200000D03*
%TO.P,SW1,2*%
%TO.N,sw_to_r*%
X154100000Y-96200000D03*
%TD*%
D16*
%TO.P,J1,S1*%
%TO.N,Net-(J1-PadS1)*%
X151200000Y-89970000D03*
X151200000Y-87030000D03*
X143000000Y-89970000D03*
D17*
%TO.P,J1,B12*%
%TO.N,GND*%
X144350000Y-90250000D03*
%TO.P,J1,B11*%
%TO.N,Net-(J1-PadB11)*%
X144850000Y-90250000D03*
%TO.P,J1,B10*%
%TO.N,Net-(J1-PadB10)*%
X145350000Y-90250000D03*
%TO.P,J1,B9*%
%TO.N,+5V*%
X145850000Y-90250000D03*
%TO.P,J1,B8*%
%TO.N,Net-(J1-PadB8)*%
X146350000Y-90250000D03*
%TO.P,J1,B7*%
%TO.N,Net-(J1-PadB7)*%
X146850000Y-90250000D03*
%TO.P,J1,B6*%
%TO.N,Net-(J1-PadB6)*%
X147350000Y-90250000D03*
%TO.P,J1,B5*%
%TO.N,Net-(J1-PadB5)*%
X147850000Y-90250000D03*
%TO.P,J1,B4*%
%TO.N,+5V*%
X148350000Y-90250000D03*
%TO.P,J1,B3*%
%TO.N,Net-(J1-PadB3)*%
X148850000Y-90250000D03*
%TO.P,J1,B2*%
%TO.N,Net-(J1-PadB2)*%
X149350000Y-90250000D03*
%TO.P,J1,B1*%
%TO.N,GND*%
X149850000Y-90250000D03*
%TO.P,J1,A11*%
%TO.N,Net-(J1-PadA11)*%
X149350000Y-86750000D03*
%TO.P,J1,A8*%
%TO.N,Net-(J1-PadA8)*%
X147850000Y-86750000D03*
%TO.P,J1,A9*%
%TO.N,+5V*%
X148350000Y-86750000D03*
%TO.P,J1,A10*%
%TO.N,Net-(J1-PadA10)*%
X148850000Y-86750000D03*
%TO.P,J1,A12*%
%TO.N,GND*%
X149850000Y-86750000D03*
%TO.P,J1,A7*%
%TO.N,Net-(J1-PadA7)*%
X147350000Y-86750000D03*
%TO.P,J1,A6*%
%TO.N,Net-(J1-PadA6)*%
X146850000Y-86750000D03*
%TO.P,J1,A5*%
%TO.N,Net-(J1-PadA5)*%
X146350000Y-86750000D03*
%TO.P,J1,A4*%
%TO.N,+5V*%
X145850000Y-86750000D03*
%TO.P,J1,A3*%
%TO.N,Net-(J1-PadA3)*%
X145350000Y-86750000D03*
%TO.P,J1,A2*%
%TO.N,Net-(J1-PadA2)*%
X144850000Y-86750000D03*
%TO.P,J1,A1*%
%TO.N,GND*%
X144350000Y-86750000D03*
D16*
%TO.P,J1,S1*%
%TO.N,Net-(J1-PadS1)*%
X143000000Y-87030000D03*
%TD*%
%TO.P,BT1,MP*%
%TO.N,N/C*%
%TA.AperFunction,SMDPad,CuDef*%
G36*
G01*
X149700000Y-45300000D02*
X149700000Y-42800000D01*
G75*
G02*
X149950000Y-42550000I250000J0D01*
G01*
X151050000Y-42550000D01*
G75*
G02*
X151300000Y-42800000I0J-250000D01*
G01*
X151300000Y-45300000D01*
G75*
G02*
X151050000Y-45550000I-250000J0D01*
G01*
X149950000Y-45550000D01*
G75*
G02*
X149700000Y-45300000I0J250000D01*
G01*
G37*
%TD.AperFunction*%
%TA.AperFunction,SMDPad,CuDef*%
G36*
G01*
X142900000Y-45300000D02*
X142900000Y-42800000D01*
G75*
G02*
X143150000Y-42550000I250000J0D01*
G01*
X144250000Y-42550000D01*
G75*
G02*
X144500000Y-42800000I0J-250000D01*
G01*
X144500000Y-45300000D01*
G75*
G02*
X144250000Y-45550000I-250000J0D01*
G01*
X143150000Y-45550000D01*
G75*
G02*
X142900000Y-45300000I0J250000D01*
G01*
G37*
%TD.AperFunction*%
%TO.P,BT1,2*%
%TO.N,batt-charge_in*%
%TA.AperFunction,SMDPad,CuDef*%
G36*
G01*
X147600000Y-48800000D02*
X147600000Y-43800000D01*
G75*
G02*
X147850000Y-43550000I250000J0D01*
G01*
X148350000Y-43550000D01*
G75*
G02*
X148600000Y-43800000I0J-250000D01*
G01*
X148600000Y-48800000D01*
G75*
G02*
X148350000Y-49050000I-250000J0D01*
G01*
X147850000Y-49050000D01*
G75*
G02*
X147600000Y-48800000I0J250000D01*
G01*
G37*
%TD.AperFunction*%
%TO.P,BT1,1*%
%TO.N,GND*%
%TA.AperFunction,SMDPad,CuDef*%
G36*
G01*
X145600000Y-48800000D02*
X145600000Y-43800000D01*
G75*
G02*
X145850000Y-43550000I250000J0D01*
G01*
X146350000Y-43550000D01*
G75*
G02*
X146600000Y-43800000I0J-250000D01*
G01*
X146600000Y-48800000D01*
G75*
G02*
X146350000Y-49050000I-250000J0D01*
G01*
X145850000Y-49050000D01*
G75*
G02*
X145600000Y-48800000I0J250000D01*
G01*
G37*
%TD.AperFunction*%
%TD*%
D18*
%TO.N,+5V*%
X155000000Y-45600000D03*
X143675000Y-57475000D03*
X147100000Y-88450000D03*
%TO.N,batt-charge_in*%
X143725000Y-50900000D03*
X148150000Y-42600000D03*
%TO.N,charge_stat_r_to_led*%
X153600000Y-45600000D03*
X153600000Y-54300000D03*
%TO.N,sw_to_r*%
X153400000Y-67900000D03*
%TD*%
D19*
%TO.N,GND*%
X149850000Y-90250000D02*
X149850000Y-91650000D01*
X144350000Y-90250000D02*
X144350000Y-91350000D01*
X149850000Y-86750000D02*
X149850000Y-85350000D01*
X144350000Y-86750000D02*
X144350000Y-85350000D01*
X149850000Y-87050000D02*
X149850000Y-90250000D01*
X149850000Y-86750000D02*
X149850000Y-87050000D01*
X144350000Y-86750000D02*
X144350000Y-90250000D01*
D20*
X147100000Y-53500000D02*
X147100000Y-52200000D01*
X147100000Y-53500000D02*
X147100000Y-54280000D01*
X147100000Y-53500000D02*
X147100000Y-56900000D01*
X146150000Y-57762500D02*
X145612500Y-58300000D01*
X146150000Y-46350000D02*
X146100000Y-46300000D01*
D19*
X144350000Y-91350000D02*
X144350000Y-91625000D01*
%TO.N,+5V*%
X145850000Y-90150000D02*
X145850000Y-88450000D01*
X145850000Y-90250000D02*
X145850000Y-90150000D01*
X148350000Y-90250000D02*
X148350000Y-88450000D01*
D20*
X146150000Y-55700000D02*
X146150000Y-56037500D01*
X143787500Y-55700000D02*
X143687500Y-55800000D01*
X146150000Y-55700000D02*
X143787500Y-55700000D01*
X146112500Y-55737500D02*
X146150000Y-55700000D01*
D19*
X148350000Y-88450000D02*
X148350000Y-86750000D01*
X145850000Y-88450000D02*
X145850000Y-86750000D01*
D20*
X144000000Y-56112500D02*
X143687500Y-55800000D01*
X145850000Y-88450000D02*
X148350000Y-88450000D01*
D19*
X154400000Y-46512500D02*
X154000000Y-46912500D01*
X155000000Y-45912500D02*
X154000000Y-46912500D01*
X155000000Y-45600000D02*
X155000000Y-45912500D01*
D20*
X143675000Y-55812500D02*
X143687500Y-55800000D01*
X143675000Y-57475000D02*
X143675000Y-55812500D01*
%TO.N,batt-charge_in*%
X140800000Y-96200000D02*
X140100000Y-96200000D01*
X143687500Y-52712500D02*
X143687500Y-52700000D01*
X140100000Y-96200000D02*
X140100000Y-86800000D01*
X140100000Y-86800000D02*
X142400000Y-84500000D01*
X144487500Y-53500000D02*
X143687500Y-52700000D01*
X146150000Y-53500000D02*
X144487500Y-53500000D01*
X143687500Y-52700000D02*
X143700000Y-52700000D01*
X142400000Y-53987500D02*
X143687500Y-52700000D01*
X142400000Y-84500000D02*
X142400000Y-53987500D01*
X143687500Y-50937500D02*
X143725000Y-50900000D01*
X143687500Y-52700000D02*
X143687500Y-50937500D01*
X148150000Y-46250000D02*
X148100000Y-46300000D01*
X148150000Y-42600000D02*
X148150000Y-46250000D01*
X150100000Y-48300000D02*
X148100000Y-46300000D01*
X150550000Y-48300000D02*
X150100000Y-48300000D01*
%TO.N,charge_stat_r_to_led*%
X153600000Y-55787500D02*
X153587500Y-55800000D01*
D19*
X153600000Y-54300000D02*
X153600000Y-55787500D01*
X153600000Y-44587500D02*
X154000000Y-44187500D01*
X153600000Y-45600000D02*
X153600000Y-44587500D01*
%TO.N,charge_stat_to_r*%
X149812500Y-53500000D02*
X150612500Y-52700000D01*
X148050000Y-53500000D02*
X149812500Y-53500000D01*
X150350000Y-55800000D02*
X148050000Y-53500000D01*
X150612500Y-55800000D02*
X150350000Y-55800000D01*
%TO.N,charge_prog*%
X148050000Y-57762500D02*
X148587500Y-58300000D01*
X148050000Y-55700000D02*
X148050000Y-57762500D01*
%TO.N,Net-(D2-Pad1)*%
X153587500Y-50300000D02*
X154000000Y-49887500D01*
X153587500Y-52700000D02*
X153587500Y-50300000D01*
D20*
%TO.N,sw_r_to_leds*%
X145150000Y-64050000D02*
X144800000Y-64400000D01*
X152200000Y-64050000D02*
X145150000Y-64050000D01*
X144800000Y-69100000D02*
X144800000Y-64400000D01*
%TO.N,sw_to_r*%
X153400000Y-69600000D02*
X153350000Y-69550000D01*
X153400000Y-69500000D02*
X153350000Y-69550000D01*
X153400000Y-67900000D02*
X153400000Y-69500000D01*
%TD*%
D21*
%TO.N,GND*%
G36*
X152535498Y-40255820D02*
G01*
X152499188Y-40375518D01*
X152486928Y-40500000D01*
X152490000Y-40926750D01*
X152648750Y-41085500D01*
X153873000Y-41085500D01*
X153873000Y-41065500D01*
X154127000Y-41065500D01*
X154127000Y-41085500D01*
X155351250Y-41085500D01*
X155510000Y-40926750D01*
X155513072Y-40500000D01*
X155500812Y-40375518D01*
X155464502Y-40255820D01*
X155462460Y-40252000D01*
X156072549Y-40252000D01*
X155973197Y-73733503D01*
X153727475Y-75295745D01*
X153708529Y-75311897D01*
X153693099Y-75331435D01*
X153681777Y-75353608D01*
X153674998Y-75377564D01*
X153673000Y-75400000D01*
X153673000Y-84000000D01*
X153675440Y-84024776D01*
X153682667Y-84048601D01*
X153694403Y-84070557D01*
X153714571Y-84093972D01*
X155872951Y-86056136D01*
X155863015Y-97532864D01*
X155481666Y-98924786D01*
X153818601Y-99844582D01*
X153786083Y-99848000D01*
X140531886Y-99848000D01*
X140484122Y-99843317D01*
X138901203Y-98912188D01*
X138346957Y-97564796D01*
X138327097Y-86056092D01*
X140485429Y-84093972D01*
X140502121Y-84075500D01*
X140514888Y-84054127D01*
X140523240Y-84030673D01*
X140527000Y-84000000D01*
X140527000Y-75400000D01*
X140524560Y-75375224D01*
X140517333Y-75351399D01*
X140505597Y-75329443D01*
X140489803Y-75310197D01*
X140478829Y-75300426D01*
X138225804Y-73516781D01*
X138169843Y-73301648D01*
X138152000Y-73074435D01*
X138152000Y-72645917D01*
X138335570Y-72645917D01*
X138335570Y-72954083D01*
X138395690Y-73256328D01*
X138513620Y-73541036D01*
X138684828Y-73797266D01*
X138902734Y-74015172D01*
X139158964Y-74186380D01*
X139443672Y-74304310D01*
X139745917Y-74364430D01*
X140054083Y-74364430D01*
X140356328Y-74304310D01*
X140641036Y-74186380D01*
X140897266Y-74015172D01*
X141115172Y-73797266D01*
X141286380Y-73541036D01*
X141404310Y-73256328D01*
X141464430Y-72954083D01*
X141464430Y-72645917D01*
X141404310Y-72343672D01*
X141286380Y-72058964D01*
X141115172Y-71802734D01*
X140897266Y-71584828D01*
X140641036Y-71413620D01*
X140356328Y-71295690D01*
X140054083Y-71235570D01*
X139745917Y-71235570D01*
X139443672Y-71295690D01*
X139158964Y-71413620D01*
X138902734Y-71584828D01*
X138684828Y-71802734D01*
X138513620Y-72058964D01*
X138395690Y-72343672D01*
X138335570Y-72645917D01*
X138152000Y-72645917D01*
X138152000Y-70431415D01*
X138848190Y-70431415D01*
X138977116Y-70723945D01*
X139313586Y-70892296D01*
X139676435Y-70991771D01*
X140051718Y-71018545D01*
X140425015Y-70971591D01*
X140781978Y-70852713D01*
X141022884Y-70723945D01*
X141151810Y-70431415D01*
X140000000Y-69279605D01*
X138848190Y-70431415D01*
X138152000Y-70431415D01*
X138152000Y-69595853D01*
X138247287Y-69881978D01*
X138376055Y-70122884D01*
X138668585Y-70251810D01*
X139820395Y-69100000D01*
X138668585Y-67948190D01*
X138376055Y-68077116D01*
X138207704Y-68413586D01*
X138152000Y-68616774D01*
X138152000Y-67768585D01*
X138848190Y-67768585D01*
X140000000Y-68920395D01*
X141151810Y-67768585D01*
X141022884Y-67476055D01*
X140686414Y-67307704D01*
X140323565Y-67208229D01*
X139948282Y-67181455D01*
X139574985Y-67228409D01*
X139218022Y-67347287D01*
X138977116Y-67476055D01*
X138848190Y-67768585D01*
X138152000Y-67768585D01*
X138152000Y-65731415D01*
X138848190Y-65731415D01*
X138977116Y-66023945D01*
X139313586Y-66192296D01*
X139676435Y-66291771D01*
X140051718Y-66318545D01*
X140425015Y-66271591D01*
X140781978Y-66152713D01*
X141022884Y-66023945D01*
X141151810Y-65731415D01*
X140000000Y-64579605D01*
X138848190Y-65731415D01*
X138152000Y-65731415D01*
X138152000Y-64895853D01*
X138247287Y-65181978D01*
X138376055Y-65422884D01*
X138668585Y-65551810D01*
X139820395Y-64400000D01*
X138668585Y-63248190D01*
X138376055Y-63377116D01*
X138207704Y-63713586D01*
X138152000Y-63916774D01*
X138152000Y-63068585D01*
X138848190Y-63068585D01*
X140000000Y-64220395D01*
X141151810Y-63068585D01*
X141022884Y-62776055D01*
X140686414Y-62607704D01*
X140323565Y-62508229D01*
X139948282Y-62481455D01*
X139574985Y-62528409D01*
X139218022Y-62647287D01*
X138977116Y-62776055D01*
X138848190Y-63068585D01*
X138152000Y-63068585D01*
X138152000Y-60645917D01*
X138435570Y-60645917D01*
X138435570Y-60954083D01*
X138495690Y-61256328D01*
X138613620Y-61541036D01*
X138784828Y-61797266D01*
X139002734Y-62015172D01*
X139258964Y-62186380D01*
X139543672Y-62304310D01*
X139845917Y-62364430D01*
X140154083Y-62364430D01*
X140456328Y-62304310D01*
X140741036Y-62186380D01*
X140997266Y-62015172D01*
X141215172Y-61797266D01*
X141386380Y-61541036D01*
X141504310Y-61256328D01*
X141523001Y-61162363D01*
X141523001Y-63332627D01*
X141331415Y-63248190D01*
X140179605Y-64400000D01*
X141331415Y-65551810D01*
X141523001Y-65467373D01*
X141523001Y-68032627D01*
X141331415Y-67948190D01*
X140179605Y-69100000D01*
X141331415Y-70251810D01*
X141523000Y-70167373D01*
X141523000Y-84136735D01*
X139510327Y-86149408D01*
X139476868Y-86176867D01*
X139449409Y-86210326D01*
X139449406Y-86210329D01*
X139367274Y-86310408D01*
X139285838Y-86462764D01*
X139235690Y-86628078D01*
X139218757Y-86800000D01*
X139223001Y-86843090D01*
X139223000Y-94109025D01*
X139050550Y-94250550D01*
X138865978Y-94475454D01*
X138728828Y-94732043D01*
X138644371Y-95010458D01*
X138623000Y-95227445D01*
X138623000Y-97172556D01*
X138644372Y-97389543D01*
X138728829Y-97667958D01*
X138865979Y-97924547D01*
X139050551Y-98149450D01*
X139275454Y-98334022D01*
X139532043Y-98471172D01*
X139810458Y-98555629D01*
X140100000Y-98584146D01*
X140389543Y-98555629D01*
X140667958Y-98471172D01*
X140924547Y-98334022D01*
X141149450Y-98149450D01*
X141334022Y-97924547D01*
X141471172Y-97667958D01*
X141555629Y-97389543D01*
X141577000Y-97172556D01*
X141577000Y-96606763D01*
X141614162Y-96537237D01*
X141664310Y-96371922D01*
X141681243Y-96200000D01*
X141664310Y-96028078D01*
X141614162Y-95862763D01*
X141577000Y-95793237D01*
X141577000Y-95227445D01*
X152623000Y-95227445D01*
X152623000Y-97172556D01*
X152644372Y-97389543D01*
X152728829Y-97667958D01*
X152865979Y-97924547D01*
X153050551Y-98149450D01*
X153275454Y-98334022D01*
X153532043Y-98471172D01*
X153810458Y-98555629D01*
X154100000Y-98584146D01*
X154389543Y-98555629D01*
X154667958Y-98471172D01*
X154924547Y-98334022D01*
X155149450Y-98149450D01*
X155334022Y-97924547D01*
X155471172Y-97667958D01*
X155555629Y-97389543D01*
X155577000Y-97172556D01*
X155577000Y-95227444D01*
X155555629Y-95010457D01*
X155471172Y-94732042D01*
X155334022Y-94475453D01*
X155149450Y-94250550D01*
X154924546Y-94065978D01*
X154667957Y-93928828D01*
X154389542Y-93844371D01*
X154100000Y-93815854D01*
X153810457Y-93844371D01*
X153532042Y-93928828D01*
X153275453Y-94065978D01*
X153050550Y-94250550D01*
X152865978Y-94475454D01*
X152728828Y-94732043D01*
X152644371Y-95010458D01*
X152623000Y-95227445D01*
X141577000Y-95227445D01*
X141577000Y-95227444D01*
X141555629Y-95010457D01*
X141471172Y-94732042D01*
X141334022Y-94475453D01*
X141149450Y-94250550D01*
X140977000Y-94109025D01*
X140977000Y-87887976D01*
X141009072Y-87920048D01*
X141160901Y-88021496D01*
X141329604Y-88091376D01*
X141508699Y-88127000D01*
X141691301Y-88127000D01*
X141870396Y-88091376D01*
X142029072Y-88025649D01*
X142065017Y-88055149D01*
X142278176Y-88169084D01*
X142509466Y-88239245D01*
X142689732Y-88257000D01*
X143310268Y-88257000D01*
X143490534Y-88239245D01*
X143721824Y-88169084D01*
X143934983Y-88055149D01*
X144003415Y-87998988D01*
X144080268Y-88023685D01*
X144183250Y-88035000D01*
X144326209Y-87892041D01*
X144364972Y-87923853D01*
X144452259Y-87970509D01*
X144516750Y-88035000D01*
X144619732Y-88023685D01*
X144626961Y-88021362D01*
X144715000Y-88030033D01*
X144985000Y-88030033D01*
X145085340Y-88020150D01*
X145035838Y-88112763D01*
X144985690Y-88278078D01*
X144968757Y-88450000D01*
X144985690Y-88621922D01*
X145035838Y-88787237D01*
X145098001Y-88903536D01*
X145098001Y-88981097D01*
X144985000Y-88969967D01*
X144715000Y-88969967D01*
X144626961Y-88978638D01*
X144619732Y-88976315D01*
X144516750Y-88965000D01*
X144452259Y-89029491D01*
X144364972Y-89076147D01*
X144326209Y-89107959D01*
X144183250Y-88965000D01*
X144080268Y-88976315D01*
X144003415Y-89001012D01*
X143934983Y-88944851D01*
X143721824Y-88830916D01*
X143490534Y-88760755D01*
X143310268Y-88743000D01*
X142689732Y-88743000D01*
X142509466Y-88760755D01*
X142278176Y-88830916D01*
X142065017Y-88944851D01*
X141878183Y-89098183D01*
X141724851Y-89285017D01*
X141610916Y-89498176D01*
X141540755Y-89729466D01*
X141517064Y-89970000D01*
X141540755Y-90210534D01*
X141610916Y-90441824D01*
X141724851Y-90654983D01*
X141878183Y-90841817D01*
X142065017Y-90995149D01*
X142278176Y-91109084D01*
X142509466Y-91179245D01*
X142689732Y-91197000D01*
X143310268Y-91197000D01*
X143490534Y-91179245D01*
X143623803Y-91138818D01*
X143678718Y-91245742D01*
X143756474Y-91343722D01*
X143851850Y-91424650D01*
X143961182Y-91485416D01*
X144080268Y-91523685D01*
X144183250Y-91535000D01*
X144326209Y-91392041D01*
X144364972Y-91423853D01*
X144452259Y-91470509D01*
X144516750Y-91535000D01*
X144619732Y-91523685D01*
X144626961Y-91521362D01*
X144715000Y-91530033D01*
X144985000Y-91530033D01*
X145100000Y-91518706D01*
X145215000Y-91530033D01*
X145485000Y-91530033D01*
X145600000Y-91518706D01*
X145715000Y-91530033D01*
X145985000Y-91530033D01*
X146100000Y-91518706D01*
X146215000Y-91530033D01*
X146485000Y-91530033D01*
X146600000Y-91518706D01*
X146715000Y-91530033D01*
X146985000Y-91530033D01*
X147100000Y-91518706D01*
X147215000Y-91530033D01*
X147485000Y-91530033D01*
X147600000Y-91518706D01*
X147715000Y-91530033D01*
X147985000Y-91530033D01*
X148100000Y-91518706D01*
X148215000Y-91530033D01*
X148485000Y-91530033D01*
X148600000Y-91518706D01*
X148715000Y-91530033D01*
X148985000Y-91530033D01*
X149100000Y-91518706D01*
X149215000Y-91530033D01*
X149485000Y-91530033D01*
X149573039Y-91521362D01*
X149580268Y-91523685D01*
X149683250Y-91535000D01*
X149747741Y-91470509D01*
X149835028Y-91423853D01*
X149873791Y-91392041D01*
X150016750Y-91535000D01*
X150119732Y-91523685D01*
X150238818Y-91485416D01*
X150348150Y-91424650D01*
X150443526Y-91343722D01*
X150521282Y-91245742D01*
X150576197Y-91138818D01*
X150709466Y-91179245D01*
X150889732Y-91197000D01*
X151510268Y-91197000D01*
X151690534Y-91179245D01*
X151921824Y-91109084D01*
X152134983Y-90995149D01*
X152321817Y-90841817D01*
X152475149Y-90654983D01*
X152589084Y-90441824D01*
X152659245Y-90210534D01*
X152682936Y-89970000D01*
X152659245Y-89729466D01*
X152589084Y-89498176D01*
X152475149Y-89285017D01*
X152321817Y-89098183D01*
X152134983Y-88944851D01*
X151921824Y-88830916D01*
X151690534Y-88760755D01*
X151510268Y-88743000D01*
X150889732Y-88743000D01*
X150709466Y-88760755D01*
X150478176Y-88830916D01*
X150265017Y-88944851D01*
X150196585Y-89001012D01*
X150119732Y-88976315D01*
X150016750Y-88965000D01*
X149873791Y-89107959D01*
X149835028Y-89076147D01*
X149747741Y-89029491D01*
X149683250Y-88965000D01*
X149580268Y-88976315D01*
X149573039Y-88978638D01*
X149485000Y-88969967D01*
X149215000Y-88969967D01*
X149102000Y-88981097D01*
X149102000Y-88903535D01*
X149164162Y-88787237D01*
X149214310Y-88621922D01*
X149231243Y-88450000D01*
X149214310Y-88278078D01*
X149164162Y-88112763D01*
X149114660Y-88020150D01*
X149215000Y-88030033D01*
X149485000Y-88030033D01*
X149573039Y-88021362D01*
X149580268Y-88023685D01*
X149683250Y-88035000D01*
X149747741Y-87970509D01*
X149835028Y-87923853D01*
X149873791Y-87892041D01*
X150016750Y-88035000D01*
X150119732Y-88023685D01*
X150196585Y-87998988D01*
X150265017Y-88055149D01*
X150478176Y-88169084D01*
X150709466Y-88239245D01*
X150889732Y-88257000D01*
X151510268Y-88257000D01*
X151690534Y-88239245D01*
X151921824Y-88169084D01*
X152134983Y-88055149D01*
X152170928Y-88025649D01*
X152329604Y-88091376D01*
X152508699Y-88127000D01*
X152691301Y-88127000D01*
X152870396Y-88091376D01*
X153039099Y-88021496D01*
X153190928Y-87920048D01*
X153320048Y-87790928D01*
X153421496Y-87639099D01*
X153491376Y-87470396D01*
X153527000Y-87291301D01*
X153527000Y-87108699D01*
X153491376Y-86929604D01*
X153421496Y-86760901D01*
X153320048Y-86609072D01*
X153190928Y-86479952D01*
X153039099Y-86378504D01*
X152870396Y-86308624D01*
X152691301Y-86273000D01*
X152508699Y-86273000D01*
X152429048Y-86288843D01*
X152321817Y-86158183D01*
X152134983Y-86004851D01*
X151921824Y-85890916D01*
X151690534Y-85820755D01*
X151510268Y-85803000D01*
X150889732Y-85803000D01*
X150709466Y-85820755D01*
X150576197Y-85861182D01*
X150521282Y-85754258D01*
X150443526Y-85656278D01*
X150348150Y-85575350D01*
X150238818Y-85514584D01*
X150119732Y-85476315D01*
X150016750Y-85465000D01*
X149873791Y-85607959D01*
X149835028Y-85576147D01*
X149747741Y-85529491D01*
X149683250Y-85465000D01*
X149580268Y-85476315D01*
X149573039Y-85478638D01*
X149485000Y-85469967D01*
X149215000Y-85469967D01*
X149100000Y-85481294D01*
X148985000Y-85469967D01*
X148715000Y-85469967D01*
X148600000Y-85481294D01*
X148485000Y-85469967D01*
X148215000Y-85469967D01*
X148100000Y-85481294D01*
X147985000Y-85469967D01*
X147715000Y-85469967D01*
X147600000Y-85481294D01*
X147485000Y-85469967D01*
X147215000Y-85469967D01*
X147100000Y-85481294D01*
X146985000Y-85469967D01*
X146715000Y-85469967D01*
X146600000Y-85481294D01*
X146485000Y-85469967D01*
X146215000Y-85469967D01*
X146100000Y-85481294D01*
X145985000Y-85469967D01*
X145715000Y-85469967D01*
X145600000Y-85481294D01*
X145485000Y-85469967D01*
X145215000Y-85469967D01*
X145100000Y-85481294D01*
X144985000Y-85469967D01*
X144715000Y-85469967D01*
X144626961Y-85478638D01*
X144619732Y-85476315D01*
X144516750Y-85465000D01*
X144452259Y-85529491D01*
X144364972Y-85576147D01*
X144326209Y-85607959D01*
X144183250Y-85465000D01*
X144080268Y-85476315D01*
X143961182Y-85514584D01*
X143851850Y-85575350D01*
X143756474Y-85656278D01*
X143678718Y-85754258D01*
X143623803Y-85861182D01*
X143490534Y-85820755D01*
X143310268Y-85803000D01*
X142689732Y-85803000D01*
X142509466Y-85820755D01*
X142278176Y-85890916D01*
X142216248Y-85924017D01*
X142989669Y-85150596D01*
X143023133Y-85123133D01*
X143132727Y-84989592D01*
X143214162Y-84837237D01*
X143264310Y-84671922D01*
X143277000Y-84543079D01*
X143277000Y-84543078D01*
X143281243Y-84500001D01*
X143277000Y-84456924D01*
X143277000Y-70849323D01*
X143286035Y-70856738D01*
X143438164Y-70938052D01*
X143603234Y-70988125D01*
X143774900Y-71005033D01*
X145825100Y-71005033D01*
X145996766Y-70988125D01*
X146161836Y-70938052D01*
X146313965Y-70856738D01*
X146447307Y-70747307D01*
X146556738Y-70613965D01*
X146638052Y-70461836D01*
X146688125Y-70296766D01*
X146705033Y-70125100D01*
X146705033Y-68650000D01*
X149769967Y-68650000D01*
X149769967Y-70150000D01*
X149782073Y-70272913D01*
X149817925Y-70391103D01*
X149876147Y-70500028D01*
X149954499Y-70595501D01*
X150049972Y-70673853D01*
X150158897Y-70732075D01*
X150277087Y-70767927D01*
X150400000Y-70780033D01*
X151700000Y-70780033D01*
X151822913Y-70767927D01*
X151941103Y-70732075D01*
X152050028Y-70673853D01*
X152145501Y-70595501D01*
X152200000Y-70529093D01*
X152254499Y-70595501D01*
X152349972Y-70673853D01*
X152458897Y-70732075D01*
X152577087Y-70767927D01*
X152700000Y-70780033D01*
X154000000Y-70780033D01*
X154122913Y-70767927D01*
X154241103Y-70732075D01*
X154350028Y-70673853D01*
X154445501Y-70595501D01*
X154523853Y-70500028D01*
X154582075Y-70391103D01*
X154617927Y-70272913D01*
X154630033Y-70150000D01*
X154630033Y-68650000D01*
X154617927Y-68527087D01*
X154582075Y-68408897D01*
X154523853Y-68299972D01*
X154445501Y-68204499D01*
X154394824Y-68162910D01*
X154427000Y-68001151D01*
X154427000Y-67798849D01*
X154387533Y-67600435D01*
X154310115Y-67413533D01*
X154197723Y-67245326D01*
X154054674Y-67102277D01*
X153886467Y-66989885D01*
X153699565Y-66912467D01*
X153501151Y-66873000D01*
X153298849Y-66873000D01*
X153100435Y-66912467D01*
X152913533Y-66989885D01*
X152745326Y-67102277D01*
X152602277Y-67245326D01*
X152489885Y-67413533D01*
X152412467Y-67600435D01*
X152373000Y-67798849D01*
X152373000Y-68001151D01*
X152393261Y-68103009D01*
X152349972Y-68126147D01*
X152254499Y-68204499D01*
X152200000Y-68270907D01*
X152145501Y-68204499D01*
X152050028Y-68126147D01*
X151941103Y-68067925D01*
X151822913Y-68032073D01*
X151700000Y-68019967D01*
X150400000Y-68019967D01*
X150277087Y-68032073D01*
X150158897Y-68067925D01*
X150049972Y-68126147D01*
X149954499Y-68204499D01*
X149876147Y-68299972D01*
X149817925Y-68408897D01*
X149782073Y-68527087D01*
X149769967Y-68650000D01*
X146705033Y-68650000D01*
X146705033Y-68074900D01*
X146688125Y-67903234D01*
X146638052Y-67738164D01*
X146556738Y-67586035D01*
X146447307Y-67452693D01*
X146313965Y-67343262D01*
X146161836Y-67261948D01*
X145996766Y-67211875D01*
X145825100Y-67194967D01*
X145677000Y-67194967D01*
X145677000Y-66305033D01*
X145825100Y-66305033D01*
X145996766Y-66288125D01*
X146161836Y-66238052D01*
X146313965Y-66156738D01*
X146447307Y-66047307D01*
X146556738Y-65913965D01*
X146638052Y-65761836D01*
X146688125Y-65596766D01*
X146705033Y-65425100D01*
X146705033Y-64927000D01*
X150919967Y-64927000D01*
X150919967Y-65300000D01*
X150932073Y-65422913D01*
X150967925Y-65541103D01*
X151026147Y-65650028D01*
X151104499Y-65745501D01*
X151199972Y-65823853D01*
X151308897Y-65882075D01*
X151427087Y-65917927D01*
X151550000Y-65930033D01*
X152850000Y-65930033D01*
X152972913Y-65917927D01*
X153091103Y-65882075D01*
X153200028Y-65823853D01*
X153295501Y-65745501D01*
X153373853Y-65650028D01*
X153432075Y-65541103D01*
X153467927Y-65422913D01*
X153480033Y-65300000D01*
X153480033Y-63300000D01*
X153467927Y-63177087D01*
X153432075Y-63058897D01*
X153373853Y-62949972D01*
X153295501Y-62854499D01*
X153200028Y-62776147D01*
X153091103Y-62717925D01*
X152972913Y-62682073D01*
X152850000Y-62669967D01*
X151550000Y-62669967D01*
X151427087Y-62682073D01*
X151308897Y-62717925D01*
X151199972Y-62776147D01*
X151104499Y-62854499D01*
X151026147Y-62949972D01*
X150967925Y-63058897D01*
X150933313Y-63173000D01*
X146678954Y-63173000D01*
X146638052Y-63038164D01*
X146556738Y-62886035D01*
X146447307Y-62752693D01*
X146313965Y-62643262D01*
X146161836Y-62561948D01*
X145996766Y-62511875D01*
X145825100Y-62494967D01*
X143774900Y-62494967D01*
X143603234Y-62511875D01*
X143438164Y-62561948D01*
X143286035Y-62643262D01*
X143277000Y-62650677D01*
X143277000Y-60645917D01*
X152635570Y-60645917D01*
X152635570Y-60954083D01*
X152695690Y-61256328D01*
X152813620Y-61541036D01*
X152984828Y-61797266D01*
X153202734Y-62015172D01*
X153458964Y-62186380D01*
X153743672Y-62304310D01*
X154045917Y-62364430D01*
X154354083Y-62364430D01*
X154656328Y-62304310D01*
X154941036Y-62186380D01*
X155197266Y-62015172D01*
X155415172Y-61797266D01*
X155586380Y-61541036D01*
X155704310Y-61256328D01*
X155764430Y-60954083D01*
X155764430Y-60645917D01*
X155704310Y-60343672D01*
X155586380Y-60058964D01*
X155415172Y-59802734D01*
X155197266Y-59584828D01*
X154941036Y-59413620D01*
X154656328Y-59295690D01*
X154354083Y-59235570D01*
X154045917Y-59235570D01*
X153743672Y-59295690D01*
X153458964Y-59413620D01*
X153202734Y-59584828D01*
X152984828Y-59802734D01*
X152813620Y-60058964D01*
X152695690Y-60343672D01*
X152635570Y-60645917D01*
X143277000Y-60645917D01*
X143277000Y-58421760D01*
X143375435Y-58462533D01*
X143573849Y-58502000D01*
X143776151Y-58502000D01*
X143974565Y-58462533D01*
X144161467Y-58385115D01*
X144265000Y-58315937D01*
X144265000Y-58427002D01*
X144423748Y-58427002D01*
X144265000Y-58585750D01*
X144261928Y-59175000D01*
X144274188Y-59299482D01*
X144310498Y-59419180D01*
X144369463Y-59529494D01*
X144448815Y-59626185D01*
X144545506Y-59705537D01*
X144655820Y-59764502D01*
X144775518Y-59800812D01*
X144900000Y-59813072D01*
X145326750Y-59810000D01*
X145485500Y-59651250D01*
X145485500Y-58427000D01*
X145739500Y-58427000D01*
X145739500Y-59651250D01*
X145898250Y-59810000D01*
X146325000Y-59813072D01*
X146449482Y-59800812D01*
X146569180Y-59764502D01*
X146679494Y-59705537D01*
X146776185Y-59626185D01*
X146855537Y-59529494D01*
X146914502Y-59419180D01*
X146950812Y-59299482D01*
X146963072Y-59175000D01*
X146960000Y-58585750D01*
X146801250Y-58427000D01*
X145739500Y-58427000D01*
X145485500Y-58427000D01*
X145465500Y-58427000D01*
X145465500Y-58173000D01*
X145485500Y-58173000D01*
X145485500Y-58153000D01*
X145739500Y-58153000D01*
X145739500Y-58173000D01*
X146801250Y-58173000D01*
X146960000Y-58014250D01*
X146963072Y-57425000D01*
X146950812Y-57300518D01*
X146914502Y-57180820D01*
X146855537Y-57070506D01*
X146776185Y-56973815D01*
X146679494Y-56894463D01*
X146593285Y-56848383D01*
X146597913Y-56847927D01*
X146716103Y-56812075D01*
X146825028Y-56753853D01*
X146920501Y-56675501D01*
X146998853Y-56580028D01*
X147057075Y-56471103D01*
X147092927Y-56352913D01*
X147100000Y-56281100D01*
X147107073Y-56352913D01*
X147142925Y-56471103D01*
X147201147Y-56580028D01*
X147279499Y-56675501D01*
X147298000Y-56690685D01*
X147298001Y-57384230D01*
X147261877Y-57503314D01*
X147244967Y-57675000D01*
X147244967Y-58925000D01*
X147261877Y-59096686D01*
X147311956Y-59261774D01*
X147393279Y-59413920D01*
X147502723Y-59547277D01*
X147636080Y-59656721D01*
X147788226Y-59738044D01*
X147953314Y-59788123D01*
X148125000Y-59805033D01*
X149050000Y-59805033D01*
X149221686Y-59788123D01*
X149386774Y-59738044D01*
X149538920Y-59656721D01*
X149672277Y-59547277D01*
X149781721Y-59413920D01*
X149863044Y-59261774D01*
X149913123Y-59096686D01*
X149930033Y-58925000D01*
X149930033Y-57675000D01*
X149913123Y-57503314D01*
X149863044Y-57338226D01*
X149808004Y-57235253D01*
X149813226Y-57238044D01*
X149978314Y-57288123D01*
X150150000Y-57305033D01*
X151075000Y-57305033D01*
X151246686Y-57288123D01*
X151411774Y-57238044D01*
X151563920Y-57156721D01*
X151697277Y-57047277D01*
X151806721Y-56913920D01*
X151888044Y-56761774D01*
X151938123Y-56596686D01*
X151955033Y-56425000D01*
X151955033Y-55175000D01*
X151938123Y-55003314D01*
X151888044Y-54838226D01*
X151806721Y-54686080D01*
X151697277Y-54552723D01*
X151563920Y-54443279D01*
X151411774Y-54361956D01*
X151246686Y-54311877D01*
X151075000Y-54294967D01*
X150150000Y-54294967D01*
X149978314Y-54311877D01*
X149937689Y-54324200D01*
X149864049Y-54250561D01*
X149959918Y-54241119D01*
X150096308Y-54199745D01*
X150150000Y-54205033D01*
X151075000Y-54205033D01*
X151246686Y-54188123D01*
X151411774Y-54138044D01*
X151563920Y-54056721D01*
X151697277Y-53947277D01*
X151806721Y-53813920D01*
X151888044Y-53661774D01*
X151938123Y-53496686D01*
X151955033Y-53325000D01*
X151955033Y-52075000D01*
X152244967Y-52075000D01*
X152244967Y-53325000D01*
X152261877Y-53496686D01*
X152311956Y-53661774D01*
X152393279Y-53813920D01*
X152502723Y-53947277D01*
X152606156Y-54032163D01*
X152573000Y-54198849D01*
X152573000Y-54401151D01*
X152589056Y-54481871D01*
X152502723Y-54552723D01*
X152393279Y-54686080D01*
X152311956Y-54838226D01*
X152261877Y-55003314D01*
X152244967Y-55175000D01*
X152244967Y-56425000D01*
X152261877Y-56596686D01*
X152311956Y-56761774D01*
X152393279Y-56913920D01*
X152502723Y-57047277D01*
X152636080Y-57156721D01*
X152788226Y-57238044D01*
X152953314Y-57288123D01*
X153125000Y-57305033D01*
X154050000Y-57305033D01*
X154221686Y-57288123D01*
X154386774Y-57238044D01*
X154538920Y-57156721D01*
X154672277Y-57047277D01*
X154781721Y-56913920D01*
X154863044Y-56761774D01*
X154913123Y-56596686D01*
X154930033Y-56425000D01*
X154930033Y-55175000D01*
X154913123Y-55003314D01*
X154863044Y-54838226D01*
X154781721Y-54686080D01*
X154672277Y-54552723D01*
X154607435Y-54499509D01*
X154627000Y-54401151D01*
X154627000Y-54198849D01*
X154590336Y-54014525D01*
X154672277Y-53947277D01*
X154781721Y-53813920D01*
X154863044Y-53661774D01*
X154913123Y-53496686D01*
X154930033Y-53325000D01*
X154930033Y-52075000D01*
X154913123Y-51903314D01*
X154863044Y-51738226D01*
X154781721Y-51586080D01*
X154672277Y-51452723D01*
X154538920Y-51343279D01*
X154386774Y-51261956D01*
X154339500Y-51247616D01*
X154339500Y-51230033D01*
X154625000Y-51230033D01*
X154796686Y-51213123D01*
X154961774Y-51163044D01*
X155113920Y-51081721D01*
X155247277Y-50972277D01*
X155356721Y-50838920D01*
X155438044Y-50686774D01*
X155488123Y-50521686D01*
X155505033Y-50350000D01*
X155505033Y-49425000D01*
X155488123Y-49253314D01*
X155438044Y-49088226D01*
X155356721Y-48936080D01*
X155247277Y-48802723D01*
X155113920Y-48693279D01*
X154961774Y-48611956D01*
X154796686Y-48561877D01*
X154625000Y-48544967D01*
X153375000Y-48544967D01*
X153203314Y-48561877D01*
X153038226Y-48611956D01*
X152886080Y-48693279D01*
X152752723Y-48802723D01*
X152643279Y-48936080D01*
X152561956Y-49088226D01*
X152511877Y-49253314D01*
X152494967Y-49425000D01*
X152494967Y-50350000D01*
X152511877Y-50521686D01*
X152561956Y-50686774D01*
X152643279Y-50838920D01*
X152752723Y-50972277D01*
X152835501Y-51040211D01*
X152835501Y-51247615D01*
X152788226Y-51261956D01*
X152636080Y-51343279D01*
X152502723Y-51452723D01*
X152393279Y-51586080D01*
X152311956Y-51738226D01*
X152261877Y-51903314D01*
X152244967Y-52075000D01*
X151955033Y-52075000D01*
X151938123Y-51903314D01*
X151888044Y-51738226D01*
X151806721Y-51586080D01*
X151697277Y-51452723D01*
X151563920Y-51343279D01*
X151411774Y-51261956D01*
X151246686Y-51211877D01*
X151075000Y-51194967D01*
X150150000Y-51194967D01*
X149978314Y-51211877D01*
X149813226Y-51261956D01*
X149661080Y-51343279D01*
X149527723Y-51452723D01*
X149418279Y-51586080D01*
X149336956Y-51738226D01*
X149286877Y-51903314D01*
X149269967Y-52075000D01*
X149269967Y-52748000D01*
X148962870Y-52748000D01*
X148957075Y-52728897D01*
X148898853Y-52619972D01*
X148820501Y-52524499D01*
X148725028Y-52446147D01*
X148616103Y-52387925D01*
X148497913Y-52352073D01*
X148375000Y-52339967D01*
X147725000Y-52339967D01*
X147602087Y-52352073D01*
X147588781Y-52356109D01*
X147549482Y-52344188D01*
X147425000Y-52331928D01*
X147385750Y-52335000D01*
X147227000Y-52493750D01*
X147227000Y-52588470D01*
X147201147Y-52619972D01*
X147142925Y-52728897D01*
X147107073Y-52847087D01*
X147100000Y-52918900D01*
X147092927Y-52847087D01*
X147057075Y-52728897D01*
X146998853Y-52619972D01*
X146973000Y-52588470D01*
X146973000Y-52493750D01*
X146814250Y-52335000D01*
X146775000Y-52331928D01*
X146650518Y-52344188D01*
X146611219Y-52356109D01*
X146597913Y-52352073D01*
X146475000Y-52339967D01*
X145825000Y-52339967D01*
X145702087Y-52352073D01*
X145583897Y-52387925D01*
X145474972Y-52446147D01*
X145379499Y-52524499D01*
X145301147Y-52619972D01*
X145299528Y-52623000D01*
X145030033Y-52623000D01*
X145030033Y-52075000D01*
X145013123Y-51903314D01*
X144963044Y-51738226D01*
X144881721Y-51586080D01*
X144772277Y-51452723D01*
X144649431Y-51351905D01*
X144712533Y-51199565D01*
X144752000Y-51001151D01*
X144752000Y-50798849D01*
X144712533Y-50600435D01*
X144635115Y-50413533D01*
X144522723Y-50245326D01*
X144379674Y-50102277D01*
X144211467Y-49989885D01*
X144053074Y-49924276D01*
X144064557Y-49922728D01*
X144378527Y-49815069D01*
X144564661Y-49715579D01*
X144666461Y-49446066D01*
X143675000Y-48454605D01*
X142683539Y-49446066D01*
X142785339Y-49715579D01*
X143083477Y-49861463D01*
X143367258Y-49936565D01*
X143238533Y-49989885D01*
X143070326Y-50102277D01*
X142927277Y-50245326D01*
X142814885Y-50413533D01*
X142737467Y-50600435D01*
X142698000Y-50798849D01*
X142698000Y-51001151D01*
X142737467Y-51199565D01*
X142785954Y-51316621D01*
X142736080Y-51343279D01*
X142602723Y-51452723D01*
X142493279Y-51586080D01*
X142411956Y-51738226D01*
X142361877Y-51903314D01*
X142344967Y-52075000D01*
X142344967Y-52802268D01*
X142060526Y-53086708D01*
X142060000Y-52985750D01*
X141901250Y-52827000D01*
X140839500Y-52827000D01*
X140839500Y-54051250D01*
X140998250Y-54210000D01*
X141425000Y-54213072D01*
X141523001Y-54203420D01*
X141523001Y-54296580D01*
X141425000Y-54286928D01*
X140998250Y-54290000D01*
X140839500Y-54448750D01*
X140839500Y-55673000D01*
X140859500Y-55673000D01*
X140859500Y-55927000D01*
X140839500Y-55927000D01*
X140839500Y-57151250D01*
X140998250Y-57310000D01*
X141425000Y-57313072D01*
X141523001Y-57303420D01*
X141523001Y-60437637D01*
X141504310Y-60343672D01*
X141386380Y-60058964D01*
X141215172Y-59802734D01*
X140997266Y-59584828D01*
X140741036Y-59413620D01*
X140456328Y-59295690D01*
X140154083Y-59235570D01*
X139845917Y-59235570D01*
X139543672Y-59295690D01*
X139258964Y-59413620D01*
X139002734Y-59584828D01*
X138784828Y-59802734D01*
X138613620Y-60058964D01*
X138495690Y-60343672D01*
X138435570Y-60645917D01*
X138152000Y-60645917D01*
X138152000Y-56675000D01*
X139361928Y-56675000D01*
X139374188Y-56799482D01*
X139410498Y-56919180D01*
X139469463Y-57029494D01*
X139548815Y-57126185D01*
X139645506Y-57205537D01*
X139755820Y-57264502D01*
X139875518Y-57300812D01*
X140000000Y-57313072D01*
X140426750Y-57310000D01*
X140585500Y-57151250D01*
X140585500Y-55927000D01*
X139523750Y-55927000D01*
X139365000Y-56085750D01*
X139361928Y-56675000D01*
X138152000Y-56675000D01*
X138152000Y-54925000D01*
X139361928Y-54925000D01*
X139365000Y-55514250D01*
X139523750Y-55673000D01*
X140585500Y-55673000D01*
X140585500Y-54448750D01*
X140426750Y-54290000D01*
X140000000Y-54286928D01*
X139875518Y-54299188D01*
X139755820Y-54335498D01*
X139645506Y-54394463D01*
X139548815Y-54473815D01*
X139469463Y-54570506D01*
X139410498Y-54680820D01*
X139374188Y-54800518D01*
X139361928Y-54925000D01*
X138152000Y-54925000D01*
X138152000Y-53575000D01*
X139361928Y-53575000D01*
X139374188Y-53699482D01*
X139410498Y-53819180D01*
X139469463Y-53929494D01*
X139548815Y-54026185D01*
X139645506Y-54105537D01*
X139755820Y-54164502D01*
X139875518Y-54200812D01*
X140000000Y-54213072D01*
X140426750Y-54210000D01*
X140585500Y-54051250D01*
X140585500Y-52827000D01*
X139523750Y-52827000D01*
X139365000Y-52985750D01*
X139361928Y-53575000D01*
X138152000Y-53575000D01*
X138152000Y-51825000D01*
X139361928Y-51825000D01*
X139365000Y-52414250D01*
X139523750Y-52573000D01*
X140585500Y-52573000D01*
X140585500Y-51348750D01*
X140839500Y-51348750D01*
X140839500Y-52573000D01*
X141901250Y-52573000D01*
X142060000Y-52414250D01*
X142063072Y-51825000D01*
X142050812Y-51700518D01*
X142014502Y-51580820D01*
X141955537Y-51470506D01*
X141876185Y-51373815D01*
X141779494Y-51294463D01*
X141669180Y-51235498D01*
X141549482Y-51199188D01*
X141425000Y-51186928D01*
X140998250Y-51190000D01*
X140839500Y-51348750D01*
X140585500Y-51348750D01*
X140426750Y-51190000D01*
X140000000Y-51186928D01*
X139875518Y-51199188D01*
X139755820Y-51235498D01*
X139645506Y-51294463D01*
X139548815Y-51373815D01*
X139469463Y-51470506D01*
X139410498Y-51580820D01*
X139374188Y-51700518D01*
X139361928Y-51825000D01*
X138152000Y-51825000D01*
X138152000Y-48335617D01*
X141982934Y-48335617D01*
X142027272Y-48664557D01*
X142134931Y-48978527D01*
X142234421Y-49164661D01*
X142503934Y-49266461D01*
X143495395Y-48275000D01*
X143854605Y-48275000D01*
X144846066Y-49266461D01*
X144986050Y-49213586D01*
X145010498Y-49294180D01*
X145069463Y-49404494D01*
X145148815Y-49501185D01*
X145245506Y-49580537D01*
X145355820Y-49639502D01*
X145475518Y-49675812D01*
X145600000Y-49688072D01*
X145814250Y-49685000D01*
X145973000Y-49526250D01*
X145973000Y-46427000D01*
X145123750Y-46427000D01*
X144965000Y-46585750D01*
X144964075Y-47328113D01*
X144846066Y-47283539D01*
X143854605Y-48275000D01*
X143495395Y-48275000D01*
X142503934Y-47283539D01*
X142234421Y-47385339D01*
X142088537Y-47683477D01*
X142003620Y-48004346D01*
X141982934Y-48335617D01*
X138152000Y-48335617D01*
X138152000Y-47103934D01*
X142683539Y-47103934D01*
X143675000Y-48095395D01*
X144666461Y-47103934D01*
X144564661Y-46834421D01*
X144266523Y-46688537D01*
X143945654Y-46603620D01*
X143614383Y-46582934D01*
X143285443Y-46627272D01*
X142971473Y-46734931D01*
X142785339Y-46834421D01*
X142683539Y-47103934D01*
X138152000Y-47103934D01*
X138152000Y-41866968D01*
X138214459Y-42180969D01*
X138338757Y-42481051D01*
X138519210Y-42751117D01*
X138748883Y-42980790D01*
X139018949Y-43161243D01*
X139319031Y-43285541D01*
X139637597Y-43348908D01*
X139962403Y-43348908D01*
X140280969Y-43285541D01*
X140581051Y-43161243D01*
X140851117Y-42980790D01*
X141031907Y-42800000D01*
X142269967Y-42800000D01*
X142269967Y-45300000D01*
X142286877Y-45471686D01*
X142336956Y-45636774D01*
X142418279Y-45788920D01*
X142527723Y-45922277D01*
X142661080Y-46031721D01*
X142813226Y-46113044D01*
X142978314Y-46163123D01*
X143150000Y-46180033D01*
X144250000Y-46180033D01*
X144421686Y-46163123D01*
X144586774Y-46113044D01*
X144738920Y-46031721D01*
X144872277Y-45922277D01*
X144964745Y-45809605D01*
X144965000Y-46014250D01*
X145123750Y-46173000D01*
X145973000Y-46173000D01*
X145973000Y-43073750D01*
X146227000Y-43073750D01*
X146227000Y-46173000D01*
X146247000Y-46173000D01*
X146247000Y-46427000D01*
X146227000Y-46427000D01*
X146227000Y-49526250D01*
X146385750Y-49685000D01*
X146600000Y-49688072D01*
X146724482Y-49675812D01*
X146844180Y-49639502D01*
X146954494Y-49580537D01*
X147051185Y-49501185D01*
X147130537Y-49404494D01*
X147163113Y-49343550D01*
X147227723Y-49422277D01*
X147361080Y-49531721D01*
X147513226Y-49613044D01*
X147678314Y-49663123D01*
X147850000Y-49680033D01*
X148350000Y-49680033D01*
X148521686Y-49663123D01*
X148686774Y-49613044D01*
X148838920Y-49531721D01*
X148942311Y-49446870D01*
X149018262Y-49588965D01*
X149127693Y-49722307D01*
X149261035Y-49831738D01*
X149413164Y-49913052D01*
X149578234Y-49963125D01*
X149749900Y-49980033D01*
X151350100Y-49980033D01*
X151521766Y-49963125D01*
X151686836Y-49913052D01*
X151838965Y-49831738D01*
X151972307Y-49722307D01*
X152081738Y-49588965D01*
X152163052Y-49436836D01*
X152213125Y-49271766D01*
X152230033Y-49100100D01*
X152230033Y-47499900D01*
X152213125Y-47328234D01*
X152163052Y-47163164D01*
X152081738Y-47011035D01*
X151972307Y-46877693D01*
X151838965Y-46768262D01*
X151686836Y-46686948D01*
X151521766Y-46636875D01*
X151350100Y-46619967D01*
X149749900Y-46619967D01*
X149668272Y-46628007D01*
X149230033Y-46189768D01*
X149230033Y-45803242D01*
X149327723Y-45922277D01*
X149461080Y-46031721D01*
X149613226Y-46113044D01*
X149778314Y-46163123D01*
X149950000Y-46180033D01*
X151050000Y-46180033D01*
X151221686Y-46163123D01*
X151386774Y-46113044D01*
X151538920Y-46031721D01*
X151672277Y-45922277D01*
X151781721Y-45788920D01*
X151863044Y-45636774D01*
X151913123Y-45471686D01*
X151930033Y-45300000D01*
X151930033Y-43725000D01*
X152494967Y-43725000D01*
X152494967Y-44650000D01*
X152511877Y-44821686D01*
X152561956Y-44986774D01*
X152643279Y-45138920D01*
X152667264Y-45168145D01*
X152612467Y-45300435D01*
X152573000Y-45498849D01*
X152573000Y-45701151D01*
X152612467Y-45899565D01*
X152640275Y-45966700D01*
X152561956Y-46113226D01*
X152511877Y-46278314D01*
X152494967Y-46450000D01*
X152494967Y-47375000D01*
X152511877Y-47546686D01*
X152561956Y-47711774D01*
X152643279Y-47863920D01*
X152752723Y-47997277D01*
X152886080Y-48106721D01*
X153038226Y-48188044D01*
X153203314Y-48238123D01*
X153375000Y-48255033D01*
X154625000Y-48255033D01*
X154796686Y-48238123D01*
X154961774Y-48188044D01*
X155113920Y-48106721D01*
X155247277Y-47997277D01*
X155356721Y-47863920D01*
X155438044Y-47711774D01*
X155488123Y-47546686D01*
X155505033Y-47375000D01*
X155505033Y-46497710D01*
X155654674Y-46397723D01*
X155797723Y-46254674D01*
X155910115Y-46086467D01*
X155987533Y-45899565D01*
X156027000Y-45701151D01*
X156027000Y-45498849D01*
X155987533Y-45300435D01*
X155910115Y-45113533D01*
X155797723Y-44945326D01*
X155654674Y-44802277D01*
X155500201Y-44699062D01*
X155505033Y-44650000D01*
X155505033Y-43725000D01*
X155488123Y-43553314D01*
X155438044Y-43388226D01*
X155356721Y-43236080D01*
X155247277Y-43102723D01*
X155113920Y-42993279D01*
X154961774Y-42911956D01*
X154796686Y-42861877D01*
X154625000Y-42844967D01*
X153375000Y-42844967D01*
X153203314Y-42861877D01*
X153038226Y-42911956D01*
X152886080Y-42993279D01*
X152752723Y-43102723D01*
X152643279Y-43236080D01*
X152561956Y-43388226D01*
X152511877Y-43553314D01*
X152494967Y-43725000D01*
X151930033Y-43725000D01*
X151930033Y-42800000D01*
X151913123Y-42628314D01*
X151863044Y-42463226D01*
X151781721Y-42311080D01*
X151672277Y-42177723D01*
X151538920Y-42068279D01*
X151386774Y-41986956D01*
X151221686Y-41936877D01*
X151101100Y-41925000D01*
X152486928Y-41925000D01*
X152499188Y-42049482D01*
X152535498Y-42169180D01*
X152594463Y-42279494D01*
X152673815Y-42376185D01*
X152770506Y-42455537D01*
X152880820Y-42514502D01*
X153000518Y-42550812D01*
X153125000Y-42563072D01*
X153714250Y-42560000D01*
X153873000Y-42401250D01*
X153873000Y-41339500D01*
X154127000Y-41339500D01*
X154127000Y-42401250D01*
X154285750Y-42560000D01*
X154875000Y-42563072D01*
X154999482Y-42550812D01*
X155119180Y-42514502D01*
X155229494Y-42455537D01*
X155326185Y-42376185D01*
X155405537Y-42279494D01*
X155464502Y-42169180D01*
X155500812Y-42049482D01*
X155513072Y-41925000D01*
X155510000Y-41498250D01*
X155351250Y-41339500D01*
X154127000Y-41339500D01*
X153873000Y-41339500D01*
X152648750Y-41339500D01*
X152490000Y-41498250D01*
X152486928Y-41925000D01*
X151101100Y-41925000D01*
X151050000Y-41919967D01*
X149950000Y-41919967D01*
X149778314Y-41936877D01*
X149613226Y-41986956D01*
X149461080Y-42068279D01*
X149327723Y-42177723D01*
X149218279Y-42311080D01*
X149160975Y-42418288D01*
X149137533Y-42300435D01*
X149060115Y-42113533D01*
X148947723Y-41945326D01*
X148804674Y-41802277D01*
X148636467Y-41689885D01*
X148449565Y-41612467D01*
X148251151Y-41573000D01*
X148048849Y-41573000D01*
X147850435Y-41612467D01*
X147663533Y-41689885D01*
X147495326Y-41802277D01*
X147352277Y-41945326D01*
X147239885Y-42113533D01*
X147162467Y-42300435D01*
X147123000Y-42498849D01*
X147123000Y-42701151D01*
X147162467Y-42899565D01*
X147239885Y-43086467D01*
X147273000Y-43136027D01*
X147273000Y-43140565D01*
X147227723Y-43177723D01*
X147163113Y-43256450D01*
X147130537Y-43195506D01*
X147051185Y-43098815D01*
X146954494Y-43019463D01*
X146844180Y-42960498D01*
X146724482Y-42924188D01*
X146600000Y-42911928D01*
X146385750Y-42915000D01*
X146227000Y-43073750D01*
X145973000Y-43073750D01*
X145814250Y-42915000D01*
X145600000Y-42911928D01*
X145475518Y-42924188D01*
X145355820Y-42960498D01*
X145245506Y-43019463D01*
X145148815Y-43098815D01*
X145130033Y-43121701D01*
X145130033Y-42800000D01*
X145113123Y-42628314D01*
X145063044Y-42463226D01*
X144981721Y-42311080D01*
X144872277Y-42177723D01*
X144738920Y-42068279D01*
X144586774Y-41986956D01*
X144421686Y-41936877D01*
X144250000Y-41919967D01*
X143150000Y-41919967D01*
X142978314Y-41936877D01*
X142813226Y-41986956D01*
X142661080Y-42068279D01*
X142527723Y-42177723D01*
X142418279Y-42311080D01*
X142336956Y-42463226D01*
X142286877Y-42628314D01*
X142269967Y-42800000D01*
X141031907Y-42800000D01*
X141080790Y-42751117D01*
X141261243Y-42481051D01*
X141385541Y-42180969D01*
X141448908Y-41862403D01*
X141448908Y-41537597D01*
X141385541Y-41219031D01*
X141261243Y-40918949D01*
X141080790Y-40648883D01*
X140851117Y-40419210D01*
X140600870Y-40252000D01*
X152537540Y-40252000D01*
X152535498Y-40255820D01*
G37*
X152535498Y-40255820D02*
X152499188Y-40375518D01*
X152486928Y-40500000D01*
X152490000Y-40926750D01*
X152648750Y-41085500D01*
X153873000Y-41085500D01*
X153873000Y-41065500D01*
X154127000Y-41065500D01*
X154127000Y-41085500D01*
X155351250Y-41085500D01*
X155510000Y-40926750D01*
X155513072Y-40500000D01*
X155500812Y-40375518D01*
X155464502Y-40255820D01*
X155462460Y-40252000D01*
X156072549Y-40252000D01*
X155973197Y-73733503D01*
X153727475Y-75295745D01*
X153708529Y-75311897D01*
X153693099Y-75331435D01*
X153681777Y-75353608D01*
X153674998Y-75377564D01*
X153673000Y-75400000D01*
X153673000Y-84000000D01*
X153675440Y-84024776D01*
X153682667Y-84048601D01*
X153694403Y-84070557D01*
X153714571Y-84093972D01*
X155872951Y-86056136D01*
X155863015Y-97532864D01*
X155481666Y-98924786D01*
X153818601Y-99844582D01*
X153786083Y-99848000D01*
X140531886Y-99848000D01*
X140484122Y-99843317D01*
X138901203Y-98912188D01*
X138346957Y-97564796D01*
X138327097Y-86056092D01*
X140485429Y-84093972D01*
X140502121Y-84075500D01*
X140514888Y-84054127D01*
X140523240Y-84030673D01*
X140527000Y-84000000D01*
X140527000Y-75400000D01*
X140524560Y-75375224D01*
X140517333Y-75351399D01*
X140505597Y-75329443D01*
X140489803Y-75310197D01*
X140478829Y-75300426D01*
X138225804Y-73516781D01*
X138169843Y-73301648D01*
X138152000Y-73074435D01*
X138152000Y-72645917D01*
X138335570Y-72645917D01*
X138335570Y-72954083D01*
X138395690Y-73256328D01*
X138513620Y-73541036D01*
X138684828Y-73797266D01*
X138902734Y-74015172D01*
X139158964Y-74186380D01*
X139443672Y-74304310D01*
X139745917Y-74364430D01*
X140054083Y-74364430D01*
X140356328Y-74304310D01*
X140641036Y-74186380D01*
X140897266Y-74015172D01*
X141115172Y-73797266D01*
X141286380Y-73541036D01*
X141404310Y-73256328D01*
X141464430Y-72954083D01*
X141464430Y-72645917D01*
X141404310Y-72343672D01*
X141286380Y-72058964D01*
X141115172Y-71802734D01*
X140897266Y-71584828D01*
X140641036Y-71413620D01*
X140356328Y-71295690D01*
X140054083Y-71235570D01*
X139745917Y-71235570D01*
X139443672Y-71295690D01*
X139158964Y-71413620D01*
X138902734Y-71584828D01*
X138684828Y-71802734D01*
X138513620Y-72058964D01*
X138395690Y-72343672D01*
X138335570Y-72645917D01*
X138152000Y-72645917D01*
X138152000Y-70431415D01*
X138848190Y-70431415D01*
X138977116Y-70723945D01*
X139313586Y-70892296D01*
X139676435Y-70991771D01*
X140051718Y-71018545D01*
X140425015Y-70971591D01*
X140781978Y-70852713D01*
X141022884Y-70723945D01*
X141151810Y-70431415D01*
X140000000Y-69279605D01*
X138848190Y-70431415D01*
X138152000Y-70431415D01*
X138152000Y-69595853D01*
X138247287Y-69881978D01*
X138376055Y-70122884D01*
X138668585Y-70251810D01*
X139820395Y-69100000D01*
X138668585Y-67948190D01*
X138376055Y-68077116D01*
X138207704Y-68413586D01*
X138152000Y-68616774D01*
X138152000Y-67768585D01*
X138848190Y-67768585D01*
X140000000Y-68920395D01*
X141151810Y-67768585D01*
X141022884Y-67476055D01*
X140686414Y-67307704D01*
X140323565Y-67208229D01*
X139948282Y-67181455D01*
X139574985Y-67228409D01*
X139218022Y-67347287D01*
X138977116Y-67476055D01*
X138848190Y-67768585D01*
X138152000Y-67768585D01*
X138152000Y-65731415D01*
X138848190Y-65731415D01*
X138977116Y-66023945D01*
X139313586Y-66192296D01*
X139676435Y-66291771D01*
X140051718Y-66318545D01*
X140425015Y-66271591D01*
X140781978Y-66152713D01*
X141022884Y-66023945D01*
X141151810Y-65731415D01*
X140000000Y-64579605D01*
X138848190Y-65731415D01*
X138152000Y-65731415D01*
X138152000Y-64895853D01*
X138247287Y-65181978D01*
X138376055Y-65422884D01*
X138668585Y-65551810D01*
X139820395Y-64400000D01*
X138668585Y-63248190D01*
X138376055Y-63377116D01*
X138207704Y-63713586D01*
X138152000Y-63916774D01*
X138152000Y-63068585D01*
X138848190Y-63068585D01*
X140000000Y-64220395D01*
X141151810Y-63068585D01*
X141022884Y-62776055D01*
X140686414Y-62607704D01*
X140323565Y-62508229D01*
X139948282Y-62481455D01*
X139574985Y-62528409D01*
X139218022Y-62647287D01*
X138977116Y-62776055D01*
X138848190Y-63068585D01*
X138152000Y-63068585D01*
X138152000Y-60645917D01*
X138435570Y-60645917D01*
X138435570Y-60954083D01*
X138495690Y-61256328D01*
X138613620Y-61541036D01*
X138784828Y-61797266D01*
X139002734Y-62015172D01*
X139258964Y-62186380D01*
X139543672Y-62304310D01*
X139845917Y-62364430D01*
X140154083Y-62364430D01*
X140456328Y-62304310D01*
X140741036Y-62186380D01*
X140997266Y-62015172D01*
X141215172Y-61797266D01*
X141386380Y-61541036D01*
X141504310Y-61256328D01*
X141523001Y-61162363D01*
X141523001Y-63332627D01*
X141331415Y-63248190D01*
X140179605Y-64400000D01*
X141331415Y-65551810D01*
X141523001Y-65467373D01*
X141523001Y-68032627D01*
X141331415Y-67948190D01*
X140179605Y-69100000D01*
X141331415Y-70251810D01*
X141523000Y-70167373D01*
X141523000Y-84136735D01*
X139510327Y-86149408D01*
X139476868Y-86176867D01*
X139449409Y-86210326D01*
X139449406Y-86210329D01*
X139367274Y-86310408D01*
X139285838Y-86462764D01*
X139235690Y-86628078D01*
X139218757Y-86800000D01*
X139223001Y-86843090D01*
X139223000Y-94109025D01*
X139050550Y-94250550D01*
X138865978Y-94475454D01*
X138728828Y-94732043D01*
X138644371Y-95010458D01*
X138623000Y-95227445D01*
X138623000Y-97172556D01*
X138644372Y-97389543D01*
X138728829Y-97667958D01*
X138865979Y-97924547D01*
X139050551Y-98149450D01*
X139275454Y-98334022D01*
X139532043Y-98471172D01*
X139810458Y-98555629D01*
X140100000Y-98584146D01*
X140389543Y-98555629D01*
X140667958Y-98471172D01*
X140924547Y-98334022D01*
X141149450Y-98149450D01*
X141334022Y-97924547D01*
X141471172Y-97667958D01*
X141555629Y-97389543D01*
X141577000Y-97172556D01*
X141577000Y-96606763D01*
X141614162Y-96537237D01*
X141664310Y-96371922D01*
X141681243Y-96200000D01*
X141664310Y-96028078D01*
X141614162Y-95862763D01*
X141577000Y-95793237D01*
X141577000Y-95227445D01*
X152623000Y-95227445D01*
X152623000Y-97172556D01*
X152644372Y-97389543D01*
X152728829Y-97667958D01*
X152865979Y-97924547D01*
X153050551Y-98149450D01*
X153275454Y-98334022D01*
X153532043Y-98471172D01*
X153810458Y-98555629D01*
X154100000Y-98584146D01*
X154389543Y-98555629D01*
X154667958Y-98471172D01*
X154924547Y-98334022D01*
X155149450Y-98149450D01*
X155334022Y-97924547D01*
X155471172Y-97667958D01*
X155555629Y-97389543D01*
X155577000Y-97172556D01*
X155577000Y-95227444D01*
X155555629Y-95010457D01*
X155471172Y-94732042D01*
X155334022Y-94475453D01*
X155149450Y-94250550D01*
X154924546Y-94065978D01*
X154667957Y-93928828D01*
X154389542Y-93844371D01*
X154100000Y-93815854D01*
X153810457Y-93844371D01*
X153532042Y-93928828D01*
X153275453Y-94065978D01*
X153050550Y-94250550D01*
X152865978Y-94475454D01*
X152728828Y-94732043D01*
X152644371Y-95010458D01*
X152623000Y-95227445D01*
X141577000Y-95227445D01*
X141577000Y-95227444D01*
X141555629Y-95010457D01*
X141471172Y-94732042D01*
X141334022Y-94475453D01*
X141149450Y-94250550D01*
X140977000Y-94109025D01*
X140977000Y-87887976D01*
X141009072Y-87920048D01*
X141160901Y-88021496D01*
X141329604Y-88091376D01*
X141508699Y-88127000D01*
X141691301Y-88127000D01*
X141870396Y-88091376D01*
X142029072Y-88025649D01*
X142065017Y-88055149D01*
X142278176Y-88169084D01*
X142509466Y-88239245D01*
X142689732Y-88257000D01*
X143310268Y-88257000D01*
X143490534Y-88239245D01*
X143721824Y-88169084D01*
X143934983Y-88055149D01*
X144003415Y-87998988D01*
X144080268Y-88023685D01*
X144183250Y-88035000D01*
X144326209Y-87892041D01*
X144364972Y-87923853D01*
X144452259Y-87970509D01*
X144516750Y-88035000D01*
X144619732Y-88023685D01*
X144626961Y-88021362D01*
X144715000Y-88030033D01*
X144985000Y-88030033D01*
X145085340Y-88020150D01*
X145035838Y-88112763D01*
X144985690Y-88278078D01*
X144968757Y-88450000D01*
X144985690Y-88621922D01*
X145035838Y-88787237D01*
X145098001Y-88903536D01*
X145098001Y-88981097D01*
X144985000Y-88969967D01*
X144715000Y-88969967D01*
X144626961Y-88978638D01*
X144619732Y-88976315D01*
X144516750Y-88965000D01*
X144452259Y-89029491D01*
X144364972Y-89076147D01*
X144326209Y-89107959D01*
X144183250Y-88965000D01*
X144080268Y-88976315D01*
X144003415Y-89001012D01*
X143934983Y-88944851D01*
X143721824Y-88830916D01*
X143490534Y-88760755D01*
X143310268Y-88743000D01*
X142689732Y-88743000D01*
X142509466Y-88760755D01*
X142278176Y-88830916D01*
X142065017Y-88944851D01*
X141878183Y-89098183D01*
X141724851Y-89285017D01*
X141610916Y-89498176D01*
X141540755Y-89729466D01*
X141517064Y-89970000D01*
X141540755Y-90210534D01*
X141610916Y-90441824D01*
X141724851Y-90654983D01*
X141878183Y-90841817D01*
X142065017Y-90995149D01*
X142278176Y-91109084D01*
X142509466Y-91179245D01*
X142689732Y-91197000D01*
X143310268Y-91197000D01*
X143490534Y-91179245D01*
X143623803Y-91138818D01*
X143678718Y-91245742D01*
X143756474Y-91343722D01*
X143851850Y-91424650D01*
X143961182Y-91485416D01*
X144080268Y-91523685D01*
X144183250Y-91535000D01*
X144326209Y-91392041D01*
X144364972Y-91423853D01*
X144452259Y-91470509D01*
X144516750Y-91535000D01*
X144619732Y-91523685D01*
X144626961Y-91521362D01*
X144715000Y-91530033D01*
X144985000Y-91530033D01*
X145100000Y-91518706D01*
X145215000Y-91530033D01*
X145485000Y-91530033D01*
X145600000Y-91518706D01*
X145715000Y-91530033D01*
X145985000Y-91530033D01*
X146100000Y-91518706D01*
X146215000Y-91530033D01*
X146485000Y-91530033D01*
X146600000Y-91518706D01*
X146715000Y-91530033D01*
X146985000Y-91530033D01*
X147100000Y-91518706D01*
X147215000Y-91530033D01*
X147485000Y-91530033D01*
X147600000Y-91518706D01*
X147715000Y-91530033D01*
X147985000Y-91530033D01*
X148100000Y-91518706D01*
X148215000Y-91530033D01*
X148485000Y-91530033D01*
X148600000Y-91518706D01*
X148715000Y-91530033D01*
X148985000Y-91530033D01*
X149100000Y-91518706D01*
X149215000Y-91530033D01*
X149485000Y-91530033D01*
X149573039Y-91521362D01*
X149580268Y-91523685D01*
X149683250Y-91535000D01*
X149747741Y-91470509D01*
X149835028Y-91423853D01*
X149873791Y-91392041D01*
X150016750Y-91535000D01*
X150119732Y-91523685D01*
X150238818Y-91485416D01*
X150348150Y-91424650D01*
X150443526Y-91343722D01*
X150521282Y-91245742D01*
X150576197Y-91138818D01*
X150709466Y-91179245D01*
X150889732Y-91197000D01*
X151510268Y-91197000D01*
X151690534Y-91179245D01*
X151921824Y-91109084D01*
X152134983Y-90995149D01*
X152321817Y-90841817D01*
X152475149Y-90654983D01*
X152589084Y-90441824D01*
X152659245Y-90210534D01*
X152682936Y-89970000D01*
X152659245Y-89729466D01*
X152589084Y-89498176D01*
X152475149Y-89285017D01*
X152321817Y-89098183D01*
X152134983Y-88944851D01*
X151921824Y-88830916D01*
X151690534Y-88760755D01*
X151510268Y-88743000D01*
X150889732Y-88743000D01*
X150709466Y-88760755D01*
X150478176Y-88830916D01*
X150265017Y-88944851D01*
X150196585Y-89001012D01*
X150119732Y-88976315D01*
X150016750Y-88965000D01*
X149873791Y-89107959D01*
X149835028Y-89076147D01*
X149747741Y-89029491D01*
X149683250Y-88965000D01*
X149580268Y-88976315D01*
X149573039Y-88978638D01*
X149485000Y-88969967D01*
X149215000Y-88969967D01*
X149102000Y-88981097D01*
X149102000Y-88903535D01*
X149164162Y-88787237D01*
X149214310Y-88621922D01*
X149231243Y-88450000D01*
X149214310Y-88278078D01*
X149164162Y-88112763D01*
X149114660Y-88020150D01*
X149215000Y-88030033D01*
X149485000Y-88030033D01*
X149573039Y-88021362D01*
X149580268Y-88023685D01*
X149683250Y-88035000D01*
X149747741Y-87970509D01*
X149835028Y-87923853D01*
X149873791Y-87892041D01*
X150016750Y-88035000D01*
X150119732Y-88023685D01*
X150196585Y-87998988D01*
X150265017Y-88055149D01*
X150478176Y-88169084D01*
X150709466Y-88239245D01*
X150889732Y-88257000D01*
X151510268Y-88257000D01*
X151690534Y-88239245D01*
X151921824Y-88169084D01*
X152134983Y-88055149D01*
X152170928Y-88025649D01*
X152329604Y-88091376D01*
X152508699Y-88127000D01*
X152691301Y-88127000D01*
X152870396Y-88091376D01*
X153039099Y-88021496D01*
X153190928Y-87920048D01*
X153320048Y-87790928D01*
X153421496Y-87639099D01*
X153491376Y-87470396D01*
X153527000Y-87291301D01*
X153527000Y-87108699D01*
X153491376Y-86929604D01*
X153421496Y-86760901D01*
X153320048Y-86609072D01*
X153190928Y-86479952D01*
X153039099Y-86378504D01*
X152870396Y-86308624D01*
X152691301Y-86273000D01*
X152508699Y-86273000D01*
X152429048Y-86288843D01*
X152321817Y-86158183D01*
X152134983Y-86004851D01*
X151921824Y-85890916D01*
X151690534Y-85820755D01*
X151510268Y-85803000D01*
X150889732Y-85803000D01*
X150709466Y-85820755D01*
X150576197Y-85861182D01*
X150521282Y-85754258D01*
X150443526Y-85656278D01*
X150348150Y-85575350D01*
X150238818Y-85514584D01*
X150119732Y-85476315D01*
X150016750Y-85465000D01*
X149873791Y-85607959D01*
X149835028Y-85576147D01*
X149747741Y-85529491D01*
X149683250Y-85465000D01*
X149580268Y-85476315D01*
X149573039Y-85478638D01*
X149485000Y-85469967D01*
X149215000Y-85469967D01*
X149100000Y-85481294D01*
X148985000Y-85469967D01*
X148715000Y-85469967D01*
X148600000Y-85481294D01*
X148485000Y-85469967D01*
X148215000Y-85469967D01*
X148100000Y-85481294D01*
X147985000Y-85469967D01*
X147715000Y-85469967D01*
X147600000Y-85481294D01*
X147485000Y-85469967D01*
X147215000Y-85469967D01*
X147100000Y-85481294D01*
X146985000Y-85469967D01*
X146715000Y-85469967D01*
X146600000Y-85481294D01*
X146485000Y-85469967D01*
X146215000Y-85469967D01*
X146100000Y-85481294D01*
X145985000Y-85469967D01*
X145715000Y-85469967D01*
X145600000Y-85481294D01*
X145485000Y-85469967D01*
X145215000Y-85469967D01*
X145100000Y-85481294D01*
X144985000Y-85469967D01*
X144715000Y-85469967D01*
X144626961Y-85478638D01*
X144619732Y-85476315D01*
X144516750Y-85465000D01*
X144452259Y-85529491D01*
X144364972Y-85576147D01*
X144326209Y-85607959D01*
X144183250Y-85465000D01*
X144080268Y-85476315D01*
X143961182Y-85514584D01*
X143851850Y-85575350D01*
X143756474Y-85656278D01*
X143678718Y-85754258D01*
X143623803Y-85861182D01*
X143490534Y-85820755D01*
X143310268Y-85803000D01*
X142689732Y-85803000D01*
X142509466Y-85820755D01*
X142278176Y-85890916D01*
X142216248Y-85924017D01*
X142989669Y-85150596D01*
X143023133Y-85123133D01*
X143132727Y-84989592D01*
X143214162Y-84837237D01*
X143264310Y-84671922D01*
X143277000Y-84543079D01*
X143277000Y-84543078D01*
X143281243Y-84500001D01*
X143277000Y-84456924D01*
X143277000Y-70849323D01*
X143286035Y-70856738D01*
X143438164Y-70938052D01*
X143603234Y-70988125D01*
X143774900Y-71005033D01*
X145825100Y-71005033D01*
X145996766Y-70988125D01*
X146161836Y-70938052D01*
X146313965Y-70856738D01*
X146447307Y-70747307D01*
X146556738Y-70613965D01*
X146638052Y-70461836D01*
X146688125Y-70296766D01*
X146705033Y-70125100D01*
X146705033Y-68650000D01*
X149769967Y-68650000D01*
X149769967Y-70150000D01*
X149782073Y-70272913D01*
X149817925Y-70391103D01*
X149876147Y-70500028D01*
X149954499Y-70595501D01*
X150049972Y-70673853D01*
X150158897Y-70732075D01*
X150277087Y-70767927D01*
X150400000Y-70780033D01*
X151700000Y-70780033D01*
X151822913Y-70767927D01*
X151941103Y-70732075D01*
X152050028Y-70673853D01*
X152145501Y-70595501D01*
X152200000Y-70529093D01*
X152254499Y-70595501D01*
X152349972Y-70673853D01*
X152458897Y-70732075D01*
X152577087Y-70767927D01*
X152700000Y-70780033D01*
X154000000Y-70780033D01*
X154122913Y-70767927D01*
X154241103Y-70732075D01*
X154350028Y-70673853D01*
X154445501Y-70595501D01*
X154523853Y-70500028D01*
X154582075Y-70391103D01*
X154617927Y-70272913D01*
X154630033Y-70150000D01*
X154630033Y-68650000D01*
X154617927Y-68527087D01*
X154582075Y-68408897D01*
X154523853Y-68299972D01*
X154445501Y-68204499D01*
X154394824Y-68162910D01*
X154427000Y-68001151D01*
X154427000Y-67798849D01*
X154387533Y-67600435D01*
X154310115Y-67413533D01*
X154197723Y-67245326D01*
X154054674Y-67102277D01*
X153886467Y-66989885D01*
X153699565Y-66912467D01*
X153501151Y-66873000D01*
X153298849Y-66873000D01*
X153100435Y-66912467D01*
X152913533Y-66989885D01*
X152745326Y-67102277D01*
X152602277Y-67245326D01*
X152489885Y-67413533D01*
X152412467Y-67600435D01*
X152373000Y-67798849D01*
X152373000Y-68001151D01*
X152393261Y-68103009D01*
X152349972Y-68126147D01*
X152254499Y-68204499D01*
X152200000Y-68270907D01*
X152145501Y-68204499D01*
X152050028Y-68126147D01*
X151941103Y-68067925D01*
X151822913Y-68032073D01*
X151700000Y-68019967D01*
X150400000Y-68019967D01*
X150277087Y-68032073D01*
X150158897Y-68067925D01*
X150049972Y-68126147D01*
X149954499Y-68204499D01*
X149876147Y-68299972D01*
X149817925Y-68408897D01*
X149782073Y-68527087D01*
X149769967Y-68650000D01*
X146705033Y-68650000D01*
X146705033Y-68074900D01*
X146688125Y-67903234D01*
X146638052Y-67738164D01*
X146556738Y-67586035D01*
X146447307Y-67452693D01*
X146313965Y-67343262D01*
X146161836Y-67261948D01*
X145996766Y-67211875D01*
X145825100Y-67194967D01*
X145677000Y-67194967D01*
X145677000Y-66305033D01*
X145825100Y-66305033D01*
X145996766Y-66288125D01*
X146161836Y-66238052D01*
X146313965Y-66156738D01*
X146447307Y-66047307D01*
X146556738Y-65913965D01*
X146638052Y-65761836D01*
X146688125Y-65596766D01*
X146705033Y-65425100D01*
X146705033Y-64927000D01*
X150919967Y-64927000D01*
X150919967Y-65300000D01*
X150932073Y-65422913D01*
X150967925Y-65541103D01*
X151026147Y-65650028D01*
X151104499Y-65745501D01*
X151199972Y-65823853D01*
X151308897Y-65882075D01*
X151427087Y-65917927D01*
X151550000Y-65930033D01*
X152850000Y-65930033D01*
X152972913Y-65917927D01*
X153091103Y-65882075D01*
X153200028Y-65823853D01*
X153295501Y-65745501D01*
X153373853Y-65650028D01*
X153432075Y-65541103D01*
X153467927Y-65422913D01*
X153480033Y-65300000D01*
X153480033Y-63300000D01*
X153467927Y-63177087D01*
X153432075Y-63058897D01*
X153373853Y-62949972D01*
X153295501Y-62854499D01*
X153200028Y-62776147D01*
X153091103Y-62717925D01*
X152972913Y-62682073D01*
X152850000Y-62669967D01*
X151550000Y-62669967D01*
X151427087Y-62682073D01*
X151308897Y-62717925D01*
X151199972Y-62776147D01*
X151104499Y-62854499D01*
X151026147Y-62949972D01*
X150967925Y-63058897D01*
X150933313Y-63173000D01*
X146678954Y-63173000D01*
X146638052Y-63038164D01*
X146556738Y-62886035D01*
X146447307Y-62752693D01*
X146313965Y-62643262D01*
X146161836Y-62561948D01*
X145996766Y-62511875D01*
X145825100Y-62494967D01*
X143774900Y-62494967D01*
X143603234Y-62511875D01*
X143438164Y-62561948D01*
X143286035Y-62643262D01*
X143277000Y-62650677D01*
X143277000Y-60645917D01*
X152635570Y-60645917D01*
X152635570Y-60954083D01*
X152695690Y-61256328D01*
X152813620Y-61541036D01*
X152984828Y-61797266D01*
X153202734Y-62015172D01*
X153458964Y-62186380D01*
X153743672Y-62304310D01*
X154045917Y-62364430D01*
X154354083Y-62364430D01*
X154656328Y-62304310D01*
X154941036Y-62186380D01*
X155197266Y-62015172D01*
X155415172Y-61797266D01*
X155586380Y-61541036D01*
X155704310Y-61256328D01*
X155764430Y-60954083D01*
X155764430Y-60645917D01*
X155704310Y-60343672D01*
X155586380Y-60058964D01*
X155415172Y-59802734D01*
X155197266Y-59584828D01*
X154941036Y-59413620D01*
X154656328Y-59295690D01*
X154354083Y-59235570D01*
X154045917Y-59235570D01*
X153743672Y-59295690D01*
X153458964Y-59413620D01*
X153202734Y-59584828D01*
X152984828Y-59802734D01*
X152813620Y-60058964D01*
X152695690Y-60343672D01*
X152635570Y-60645917D01*
X143277000Y-60645917D01*
X143277000Y-58421760D01*
X143375435Y-58462533D01*
X143573849Y-58502000D01*
X143776151Y-58502000D01*
X143974565Y-58462533D01*
X144161467Y-58385115D01*
X144265000Y-58315937D01*
X144265000Y-58427002D01*
X144423748Y-58427002D01*
X144265000Y-58585750D01*
X144261928Y-59175000D01*
X144274188Y-59299482D01*
X144310498Y-59419180D01*
X144369463Y-59529494D01*
X144448815Y-59626185D01*
X144545506Y-59705537D01*
X144655820Y-59764502D01*
X144775518Y-59800812D01*
X144900000Y-59813072D01*
X145326750Y-59810000D01*
X145485500Y-59651250D01*
X145485500Y-58427000D01*
X145739500Y-58427000D01*
X145739500Y-59651250D01*
X145898250Y-59810000D01*
X146325000Y-59813072D01*
X146449482Y-59800812D01*
X146569180Y-59764502D01*
X146679494Y-59705537D01*
X146776185Y-59626185D01*
X146855537Y-59529494D01*
X146914502Y-59419180D01*
X146950812Y-59299482D01*
X146963072Y-59175000D01*
X146960000Y-58585750D01*
X146801250Y-58427000D01*
X145739500Y-58427000D01*
X145485500Y-58427000D01*
X145465500Y-58427000D01*
X145465500Y-58173000D01*
X145485500Y-58173000D01*
X145485500Y-58153000D01*
X145739500Y-58153000D01*
X145739500Y-58173000D01*
X146801250Y-58173000D01*
X146960000Y-58014250D01*
X146963072Y-57425000D01*
X146950812Y-57300518D01*
X146914502Y-57180820D01*
X146855537Y-57070506D01*
X146776185Y-56973815D01*
X146679494Y-56894463D01*
X146593285Y-56848383D01*
X146597913Y-56847927D01*
X146716103Y-56812075D01*
X146825028Y-56753853D01*
X146920501Y-56675501D01*
X146998853Y-56580028D01*
X147057075Y-56471103D01*
X147092927Y-56352913D01*
X147100000Y-56281100D01*
X147107073Y-56352913D01*
X147142925Y-56471103D01*
X147201147Y-56580028D01*
X147279499Y-56675501D01*
X147298000Y-56690685D01*
X147298001Y-57384230D01*
X147261877Y-57503314D01*
X147244967Y-57675000D01*
X147244967Y-58925000D01*
X147261877Y-59096686D01*
X147311956Y-59261774D01*
X147393279Y-59413920D01*
X147502723Y-59547277D01*
X147636080Y-59656721D01*
X147788226Y-59738044D01*
X147953314Y-59788123D01*
X148125000Y-59805033D01*
X149050000Y-59805033D01*
X149221686Y-59788123D01*
X149386774Y-59738044D01*
X149538920Y-59656721D01*
X149672277Y-59547277D01*
X149781721Y-59413920D01*
X149863044Y-59261774D01*
X149913123Y-59096686D01*
X149930033Y-58925000D01*
X149930033Y-57675000D01*
X149913123Y-57503314D01*
X149863044Y-57338226D01*
X149808004Y-57235253D01*
X149813226Y-57238044D01*
X149978314Y-57288123D01*
X150150000Y-57305033D01*
X151075000Y-57305033D01*
X151246686Y-57288123D01*
X151411774Y-57238044D01*
X151563920Y-57156721D01*
X151697277Y-57047277D01*
X151806721Y-56913920D01*
X151888044Y-56761774D01*
X151938123Y-56596686D01*
X151955033Y-56425000D01*
X151955033Y-55175000D01*
X151938123Y-55003314D01*
X151888044Y-54838226D01*
X151806721Y-54686080D01*
X151697277Y-54552723D01*
X151563920Y-54443279D01*
X151411774Y-54361956D01*
X151246686Y-54311877D01*
X151075000Y-54294967D01*
X150150000Y-54294967D01*
X149978314Y-54311877D01*
X149937689Y-54324200D01*
X149864049Y-54250561D01*
X149959918Y-54241119D01*
X150096308Y-54199745D01*
X150150000Y-54205033D01*
X151075000Y-54205033D01*
X151246686Y-54188123D01*
X151411774Y-54138044D01*
X151563920Y-54056721D01*
X151697277Y-53947277D01*
X151806721Y-53813920D01*
X151888044Y-53661774D01*
X151938123Y-53496686D01*
X151955033Y-53325000D01*
X151955033Y-52075000D01*
X152244967Y-52075000D01*
X152244967Y-53325000D01*
X152261877Y-53496686D01*
X152311956Y-53661774D01*
X152393279Y-53813920D01*
X152502723Y-53947277D01*
X152606156Y-54032163D01*
X152573000Y-54198849D01*
X152573000Y-54401151D01*
X152589056Y-54481871D01*
X152502723Y-54552723D01*
X152393279Y-54686080D01*
X152311956Y-54838226D01*
X152261877Y-55003314D01*
X152244967Y-55175000D01*
X152244967Y-56425000D01*
X152261877Y-56596686D01*
X152311956Y-56761774D01*
X152393279Y-56913920D01*
X152502723Y-57047277D01*
X152636080Y-57156721D01*
X152788226Y-57238044D01*
X152953314Y-57288123D01*
X153125000Y-57305033D01*
X154050000Y-57305033D01*
X154221686Y-57288123D01*
X154386774Y-57238044D01*
X154538920Y-57156721D01*
X154672277Y-57047277D01*
X154781721Y-56913920D01*
X154863044Y-56761774D01*
X154913123Y-56596686D01*
X154930033Y-56425000D01*
X154930033Y-55175000D01*
X154913123Y-55003314D01*
X154863044Y-54838226D01*
X154781721Y-54686080D01*
X154672277Y-54552723D01*
X154607435Y-54499509D01*
X154627000Y-54401151D01*
X154627000Y-54198849D01*
X154590336Y-54014525D01*
X154672277Y-53947277D01*
X154781721Y-53813920D01*
X154863044Y-53661774D01*
X154913123Y-53496686D01*
X154930033Y-53325000D01*
X154930033Y-52075000D01*
X154913123Y-51903314D01*
X154863044Y-51738226D01*
X154781721Y-51586080D01*
X154672277Y-51452723D01*
X154538920Y-51343279D01*
X154386774Y-51261956D01*
X154339500Y-51247616D01*
X154339500Y-51230033D01*
X154625000Y-51230033D01*
X154796686Y-51213123D01*
X154961774Y-51163044D01*
X155113920Y-51081721D01*
X155247277Y-50972277D01*
X155356721Y-50838920D01*
X155438044Y-50686774D01*
X155488123Y-50521686D01*
X155505033Y-50350000D01*
X155505033Y-49425000D01*
X155488123Y-49253314D01*
X155438044Y-49088226D01*
X155356721Y-48936080D01*
X155247277Y-48802723D01*
X155113920Y-48693279D01*
X154961774Y-48611956D01*
X154796686Y-48561877D01*
X154625000Y-48544967D01*
X153375000Y-48544967D01*
X153203314Y-48561877D01*
X153038226Y-48611956D01*
X152886080Y-48693279D01*
X152752723Y-48802723D01*
X152643279Y-48936080D01*
X152561956Y-49088226D01*
X152511877Y-49253314D01*
X152494967Y-49425000D01*
X152494967Y-50350000D01*
X152511877Y-50521686D01*
X152561956Y-50686774D01*
X152643279Y-50838920D01*
X152752723Y-50972277D01*
X152835501Y-51040211D01*
X152835501Y-51247615D01*
X152788226Y-51261956D01*
X152636080Y-51343279D01*
X152502723Y-51452723D01*
X152393279Y-51586080D01*
X152311956Y-51738226D01*
X152261877Y-51903314D01*
X152244967Y-52075000D01*
X151955033Y-52075000D01*
X151938123Y-51903314D01*
X151888044Y-51738226D01*
X151806721Y-51586080D01*
X151697277Y-51452723D01*
X151563920Y-51343279D01*
X151411774Y-51261956D01*
X151246686Y-51211877D01*
X151075000Y-51194967D01*
X150150000Y-51194967D01*
X149978314Y-51211877D01*
X149813226Y-51261956D01*
X149661080Y-51343279D01*
X149527723Y-51452723D01*
X149418279Y-51586080D01*
X149336956Y-51738226D01*
X149286877Y-51903314D01*
X149269967Y-52075000D01*
X149269967Y-52748000D01*
X148962870Y-52748000D01*
X148957075Y-52728897D01*
X148898853Y-52619972D01*
X148820501Y-52524499D01*
X148725028Y-52446147D01*
X148616103Y-52387925D01*
X148497913Y-52352073D01*
X148375000Y-52339967D01*
X147725000Y-52339967D01*
X147602087Y-52352073D01*
X147588781Y-52356109D01*
X147549482Y-52344188D01*
X147425000Y-52331928D01*
X147385750Y-52335000D01*
X147227000Y-52493750D01*
X147227000Y-52588470D01*
X147201147Y-52619972D01*
X147142925Y-52728897D01*
X147107073Y-52847087D01*
X147100000Y-52918900D01*
X147092927Y-52847087D01*
X147057075Y-52728897D01*
X146998853Y-52619972D01*
X146973000Y-52588470D01*
X146973000Y-52493750D01*
X146814250Y-52335000D01*
X146775000Y-52331928D01*
X146650518Y-52344188D01*
X146611219Y-52356109D01*
X146597913Y-52352073D01*
X146475000Y-52339967D01*
X145825000Y-52339967D01*
X145702087Y-52352073D01*
X145583897Y-52387925D01*
X145474972Y-52446147D01*
X145379499Y-52524499D01*
X145301147Y-52619972D01*
X145299528Y-52623000D01*
X145030033Y-52623000D01*
X145030033Y-52075000D01*
X145013123Y-51903314D01*
X144963044Y-51738226D01*
X144881721Y-51586080D01*
X144772277Y-51452723D01*
X144649431Y-51351905D01*
X144712533Y-51199565D01*
X144752000Y-51001151D01*
X144752000Y-50798849D01*
X144712533Y-50600435D01*
X144635115Y-50413533D01*
X144522723Y-50245326D01*
X144379674Y-50102277D01*
X144211467Y-49989885D01*
X144053074Y-49924276D01*
X144064557Y-49922728D01*
X144378527Y-49815069D01*
X144564661Y-49715579D01*
X144666461Y-49446066D01*
X143675000Y-48454605D01*
X142683539Y-49446066D01*
X142785339Y-49715579D01*
X143083477Y-49861463D01*
X143367258Y-49936565D01*
X143238533Y-49989885D01*
X143070326Y-50102277D01*
X142927277Y-50245326D01*
X142814885Y-50413533D01*
X142737467Y-50600435D01*
X142698000Y-50798849D01*
X142698000Y-51001151D01*
X142737467Y-51199565D01*
X142785954Y-51316621D01*
X142736080Y-51343279D01*
X142602723Y-51452723D01*
X142493279Y-51586080D01*
X142411956Y-51738226D01*
X142361877Y-51903314D01*
X142344967Y-52075000D01*
X142344967Y-52802268D01*
X142060526Y-53086708D01*
X142060000Y-52985750D01*
X141901250Y-52827000D01*
X140839500Y-52827000D01*
X140839500Y-54051250D01*
X140998250Y-54210000D01*
X141425000Y-54213072D01*
X141523001Y-54203420D01*
X141523001Y-54296580D01*
X141425000Y-54286928D01*
X140998250Y-54290000D01*
X140839500Y-54448750D01*
X140839500Y-55673000D01*
X140859500Y-55673000D01*
X140859500Y-55927000D01*
X140839500Y-55927000D01*
X140839500Y-57151250D01*
X140998250Y-57310000D01*
X141425000Y-57313072D01*
X141523001Y-57303420D01*
X141523001Y-60437637D01*
X141504310Y-60343672D01*
X141386380Y-60058964D01*
X141215172Y-59802734D01*
X140997266Y-59584828D01*
X140741036Y-59413620D01*
X140456328Y-59295690D01*
X140154083Y-59235570D01*
X139845917Y-59235570D01*
X139543672Y-59295690D01*
X139258964Y-59413620D01*
X139002734Y-59584828D01*
X138784828Y-59802734D01*
X138613620Y-60058964D01*
X138495690Y-60343672D01*
X138435570Y-60645917D01*
X138152000Y-60645917D01*
X138152000Y-56675000D01*
X139361928Y-56675000D01*
X139374188Y-56799482D01*
X139410498Y-56919180D01*
X139469463Y-57029494D01*
X139548815Y-57126185D01*
X139645506Y-57205537D01*
X139755820Y-57264502D01*
X139875518Y-57300812D01*
X140000000Y-57313072D01*
X140426750Y-57310000D01*
X140585500Y-57151250D01*
X140585500Y-55927000D01*
X139523750Y-55927000D01*
X139365000Y-56085750D01*
X139361928Y-56675000D01*
X138152000Y-56675000D01*
X138152000Y-54925000D01*
X139361928Y-54925000D01*
X139365000Y-55514250D01*
X139523750Y-55673000D01*
X140585500Y-55673000D01*
X140585500Y-54448750D01*
X140426750Y-54290000D01*
X140000000Y-54286928D01*
X139875518Y-54299188D01*
X139755820Y-54335498D01*
X139645506Y-54394463D01*
X139548815Y-54473815D01*
X139469463Y-54570506D01*
X139410498Y-54680820D01*
X139374188Y-54800518D01*
X139361928Y-54925000D01*
X138152000Y-54925000D01*
X138152000Y-53575000D01*
X139361928Y-53575000D01*
X139374188Y-53699482D01*
X139410498Y-53819180D01*
X139469463Y-53929494D01*
X139548815Y-54026185D01*
X139645506Y-54105537D01*
X139755820Y-54164502D01*
X139875518Y-54200812D01*
X140000000Y-54213072D01*
X140426750Y-54210000D01*
X140585500Y-54051250D01*
X140585500Y-52827000D01*
X139523750Y-52827000D01*
X139365000Y-52985750D01*
X139361928Y-53575000D01*
X138152000Y-53575000D01*
X138152000Y-51825000D01*
X139361928Y-51825000D01*
X139365000Y-52414250D01*
X139523750Y-52573000D01*
X140585500Y-52573000D01*
X140585500Y-51348750D01*
X140839500Y-51348750D01*
X140839500Y-52573000D01*
X141901250Y-52573000D01*
X142060000Y-52414250D01*
X142063072Y-51825000D01*
X142050812Y-51700518D01*
X142014502Y-51580820D01*
X141955537Y-51470506D01*
X141876185Y-51373815D01*
X141779494Y-51294463D01*
X141669180Y-51235498D01*
X141549482Y-51199188D01*
X141425000Y-51186928D01*
X140998250Y-51190000D01*
X140839500Y-51348750D01*
X140585500Y-51348750D01*
X140426750Y-51190000D01*
X140000000Y-51186928D01*
X139875518Y-51199188D01*
X139755820Y-51235498D01*
X139645506Y-51294463D01*
X139548815Y-51373815D01*
X139469463Y-51470506D01*
X139410498Y-51580820D01*
X139374188Y-51700518D01*
X139361928Y-51825000D01*
X138152000Y-51825000D01*
X138152000Y-48335617D01*
X141982934Y-48335617D01*
X142027272Y-48664557D01*
X142134931Y-48978527D01*
X142234421Y-49164661D01*
X142503934Y-49266461D01*
X143495395Y-48275000D01*
X143854605Y-48275000D01*
X144846066Y-49266461D01*
X144986050Y-49213586D01*
X145010498Y-49294180D01*
X145069463Y-49404494D01*
X145148815Y-49501185D01*
X145245506Y-49580537D01*
X145355820Y-49639502D01*
X145475518Y-49675812D01*
X145600000Y-49688072D01*
X145814250Y-49685000D01*
X145973000Y-49526250D01*
X145973000Y-46427000D01*
X145123750Y-46427000D01*
X144965000Y-46585750D01*
X144964075Y-47328113D01*
X144846066Y-47283539D01*
X143854605Y-48275000D01*
X143495395Y-48275000D01*
X142503934Y-47283539D01*
X142234421Y-47385339D01*
X142088537Y-47683477D01*
X142003620Y-48004346D01*
X141982934Y-48335617D01*
X138152000Y-48335617D01*
X138152000Y-47103934D01*
X142683539Y-47103934D01*
X143675000Y-48095395D01*
X144666461Y-47103934D01*
X144564661Y-46834421D01*
X144266523Y-46688537D01*
X143945654Y-46603620D01*
X143614383Y-46582934D01*
X143285443Y-46627272D01*
X142971473Y-46734931D01*
X142785339Y-46834421D01*
X142683539Y-47103934D01*
X138152000Y-47103934D01*
X138152000Y-41866968D01*
X138214459Y-42180969D01*
X138338757Y-42481051D01*
X138519210Y-42751117D01*
X138748883Y-42980790D01*
X139018949Y-43161243D01*
X139319031Y-43285541D01*
X139637597Y-43348908D01*
X139962403Y-43348908D01*
X140280969Y-43285541D01*
X140581051Y-43161243D01*
X140851117Y-42980790D01*
X141031907Y-42800000D01*
X142269967Y-42800000D01*
X142269967Y-45300000D01*
X142286877Y-45471686D01*
X142336956Y-45636774D01*
X142418279Y-45788920D01*
X142527723Y-45922277D01*
X142661080Y-46031721D01*
X142813226Y-46113044D01*
X142978314Y-46163123D01*
X143150000Y-46180033D01*
X144250000Y-46180033D01*
X144421686Y-46163123D01*
X144586774Y-46113044D01*
X144738920Y-46031721D01*
X144872277Y-45922277D01*
X144964745Y-45809605D01*
X144965000Y-46014250D01*
X145123750Y-46173000D01*
X145973000Y-46173000D01*
X145973000Y-43073750D01*
X146227000Y-43073750D01*
X146227000Y-46173000D01*
X146247000Y-46173000D01*
X146247000Y-46427000D01*
X146227000Y-46427000D01*
X146227000Y-49526250D01*
X146385750Y-49685000D01*
X146600000Y-49688072D01*
X146724482Y-49675812D01*
X146844180Y-49639502D01*
X146954494Y-49580537D01*
X147051185Y-49501185D01*
X147130537Y-49404494D01*
X147163113Y-49343550D01*
X147227723Y-49422277D01*
X147361080Y-49531721D01*
X147513226Y-49613044D01*
X147678314Y-49663123D01*
X147850000Y-49680033D01*
X148350000Y-49680033D01*
X148521686Y-49663123D01*
X148686774Y-49613044D01*
X148838920Y-49531721D01*
X148942311Y-49446870D01*
X149018262Y-49588965D01*
X149127693Y-49722307D01*
X149261035Y-49831738D01*
X149413164Y-49913052D01*
X149578234Y-49963125D01*
X149749900Y-49980033D01*
X151350100Y-49980033D01*
X151521766Y-49963125D01*
X151686836Y-49913052D01*
X151838965Y-49831738D01*
X151972307Y-49722307D01*
X152081738Y-49588965D01*
X152163052Y-49436836D01*
X152213125Y-49271766D01*
X152230033Y-49100100D01*
X152230033Y-47499900D01*
X152213125Y-47328234D01*
X152163052Y-47163164D01*
X152081738Y-47011035D01*
X151972307Y-46877693D01*
X151838965Y-46768262D01*
X151686836Y-46686948D01*
X151521766Y-46636875D01*
X151350100Y-46619967D01*
X149749900Y-46619967D01*
X149668272Y-46628007D01*
X149230033Y-46189768D01*
X149230033Y-45803242D01*
X149327723Y-45922277D01*
X149461080Y-46031721D01*
X149613226Y-46113044D01*
X149778314Y-46163123D01*
X149950000Y-46180033D01*
X151050000Y-46180033D01*
X151221686Y-46163123D01*
X151386774Y-46113044D01*
X151538920Y-46031721D01*
X151672277Y-45922277D01*
X151781721Y-45788920D01*
X151863044Y-45636774D01*
X151913123Y-45471686D01*
X151930033Y-45300000D01*
X151930033Y-43725000D01*
X152494967Y-43725000D01*
X152494967Y-44650000D01*
X152511877Y-44821686D01*
X152561956Y-44986774D01*
X152643279Y-45138920D01*
X152667264Y-45168145D01*
X152612467Y-45300435D01*
X152573000Y-45498849D01*
X152573000Y-45701151D01*
X152612467Y-45899565D01*
X152640275Y-45966700D01*
X152561956Y-46113226D01*
X152511877Y-46278314D01*
X152494967Y-46450000D01*
X152494967Y-47375000D01*
X152511877Y-47546686D01*
X152561956Y-47711774D01*
X152643279Y-47863920D01*
X152752723Y-47997277D01*
X152886080Y-48106721D01*
X153038226Y-48188044D01*
X153203314Y-48238123D01*
X153375000Y-48255033D01*
X154625000Y-48255033D01*
X154796686Y-48238123D01*
X154961774Y-48188044D01*
X155113920Y-48106721D01*
X155247277Y-47997277D01*
X155356721Y-47863920D01*
X155438044Y-47711774D01*
X155488123Y-47546686D01*
X155505033Y-47375000D01*
X155505033Y-46497710D01*
X155654674Y-46397723D01*
X155797723Y-46254674D01*
X155910115Y-46086467D01*
X155987533Y-45899565D01*
X156027000Y-45701151D01*
X156027000Y-45498849D01*
X155987533Y-45300435D01*
X155910115Y-45113533D01*
X155797723Y-44945326D01*
X155654674Y-44802277D01*
X155500201Y-44699062D01*
X155505033Y-44650000D01*
X155505033Y-43725000D01*
X155488123Y-43553314D01*
X155438044Y-43388226D01*
X155356721Y-43236080D01*
X155247277Y-43102723D01*
X155113920Y-42993279D01*
X154961774Y-42911956D01*
X154796686Y-42861877D01*
X154625000Y-42844967D01*
X153375000Y-42844967D01*
X153203314Y-42861877D01*
X153038226Y-42911956D01*
X152886080Y-42993279D01*
X152752723Y-43102723D01*
X152643279Y-43236080D01*
X152561956Y-43388226D01*
X152511877Y-43553314D01*
X152494967Y-43725000D01*
X151930033Y-43725000D01*
X151930033Y-42800000D01*
X151913123Y-42628314D01*
X151863044Y-42463226D01*
X151781721Y-42311080D01*
X151672277Y-42177723D01*
X151538920Y-42068279D01*
X151386774Y-41986956D01*
X151221686Y-41936877D01*
X151101100Y-41925000D01*
X152486928Y-41925000D01*
X152499188Y-42049482D01*
X152535498Y-42169180D01*
X152594463Y-42279494D01*
X152673815Y-42376185D01*
X152770506Y-42455537D01*
X152880820Y-42514502D01*
X153000518Y-42550812D01*
X153125000Y-42563072D01*
X153714250Y-42560000D01*
X153873000Y-42401250D01*
X153873000Y-41339500D01*
X154127000Y-41339500D01*
X154127000Y-42401250D01*
X154285750Y-42560000D01*
X154875000Y-42563072D01*
X154999482Y-42550812D01*
X155119180Y-42514502D01*
X155229494Y-42455537D01*
X155326185Y-42376185D01*
X155405537Y-42279494D01*
X155464502Y-42169180D01*
X155500812Y-42049482D01*
X155513072Y-41925000D01*
X155510000Y-41498250D01*
X155351250Y-41339500D01*
X154127000Y-41339500D01*
X153873000Y-41339500D01*
X152648750Y-41339500D01*
X152490000Y-41498250D01*
X152486928Y-41925000D01*
X151101100Y-41925000D01*
X151050000Y-41919967D01*
X149950000Y-41919967D01*
X149778314Y-41936877D01*
X149613226Y-41986956D01*
X149461080Y-42068279D01*
X149327723Y-42177723D01*
X149218279Y-42311080D01*
X149160975Y-42418288D01*
X149137533Y-42300435D01*
X149060115Y-42113533D01*
X148947723Y-41945326D01*
X148804674Y-41802277D01*
X148636467Y-41689885D01*
X148449565Y-41612467D01*
X148251151Y-41573000D01*
X148048849Y-41573000D01*
X147850435Y-41612467D01*
X147663533Y-41689885D01*
X147495326Y-41802277D01*
X147352277Y-41945326D01*
X147239885Y-42113533D01*
X147162467Y-42300435D01*
X147123000Y-42498849D01*
X147123000Y-42701151D01*
X147162467Y-42899565D01*
X147239885Y-43086467D01*
X147273000Y-43136027D01*
X147273000Y-43140565D01*
X147227723Y-43177723D01*
X147163113Y-43256450D01*
X147130537Y-43195506D01*
X147051185Y-43098815D01*
X146954494Y-43019463D01*
X146844180Y-42960498D01*
X146724482Y-42924188D01*
X146600000Y-42911928D01*
X146385750Y-42915000D01*
X146227000Y-43073750D01*
X145973000Y-43073750D01*
X145814250Y-42915000D01*
X145600000Y-42911928D01*
X145475518Y-42924188D01*
X145355820Y-42960498D01*
X145245506Y-43019463D01*
X145148815Y-43098815D01*
X145130033Y-43121701D01*
X145130033Y-42800000D01*
X145113123Y-42628314D01*
X145063044Y-42463226D01*
X144981721Y-42311080D01*
X144872277Y-42177723D01*
X144738920Y-42068279D01*
X144586774Y-41986956D01*
X144421686Y-41936877D01*
X144250000Y-41919967D01*
X143150000Y-41919967D01*
X142978314Y-41936877D01*
X142813226Y-41986956D01*
X142661080Y-42068279D01*
X142527723Y-42177723D01*
X142418279Y-42311080D01*
X142336956Y-42463226D01*
X142286877Y-42628314D01*
X142269967Y-42800000D01*
X141031907Y-42800000D01*
X141080790Y-42751117D01*
X141261243Y-42481051D01*
X141385541Y-42180969D01*
X141448908Y-41862403D01*
X141448908Y-41537597D01*
X141385541Y-41219031D01*
X141261243Y-40918949D01*
X141080790Y-40648883D01*
X140851117Y-40419210D01*
X140600870Y-40252000D01*
X152537540Y-40252000D01*
X152535498Y-40255820D01*
G36*
X147107073Y-54152913D02*
G01*
X147142925Y-54271103D01*
X147201147Y-54380028D01*
X147227000Y-54411530D01*
X147227000Y-54506250D01*
X147370537Y-54649787D01*
X147279499Y-54724499D01*
X147201147Y-54819972D01*
X147142925Y-54928897D01*
X147107073Y-55047087D01*
X147100000Y-55118900D01*
X147092927Y-55047087D01*
X147057075Y-54928897D01*
X146998853Y-54819972D01*
X146920501Y-54724499D01*
X146829463Y-54649787D01*
X146973000Y-54506250D01*
X146973000Y-54411530D01*
X146998853Y-54380028D01*
X147057075Y-54271103D01*
X147092927Y-54152913D01*
X147100000Y-54081100D01*
X147107073Y-54152913D01*
G37*
X147107073Y-54152913D02*
X147142925Y-54271103D01*
X147201147Y-54380028D01*
X147227000Y-54411530D01*
X147227000Y-54506250D01*
X147370537Y-54649787D01*
X147279499Y-54724499D01*
X147201147Y-54819972D01*
X147142925Y-54928897D01*
X147107073Y-55047087D01*
X147100000Y-55118900D01*
X147092927Y-55047087D01*
X147057075Y-54928897D01*
X146998853Y-54819972D01*
X146920501Y-54724499D01*
X146829463Y-54649787D01*
X146973000Y-54506250D01*
X146973000Y-54411530D01*
X146998853Y-54380028D01*
X147057075Y-54271103D01*
X147092927Y-54152913D01*
X147100000Y-54081100D01*
X147107073Y-54152913D01*
%TD*%
M02*
