%TF.GenerationSoftware,KiCad,Pcbnew,(5.1.6)-1*%
%TF.CreationDate,2021-02-04T17:03:45-05:00*%
%TF.ProjectId,horny_charger,686f726e-795f-4636-9861-726765722e6b,rev?*%
%TF.SameCoordinates,Original*%
%TF.FileFunction,Soldermask,Top*%
%TF.FilePolarity,Negative*%
%FSLAX46Y46*%
G04 Gerber Fmt 4.6, Leading zero omitted, Abs format (unit mm)*
G04 Created by KiCad (PCBNEW (5.1.6)-1) date 2021-02-04 17:03:45*
%MOMM*%
%LPD*%
G01*
G04 APERTURE LIST*
%ADD10R,1.400000X1.600000*%
%ADD11R,1.400000X2.100000*%
%ADD12C,2.200000*%
%ADD13R,0.750000X1.160000*%
%ADD14C,2.650000*%
%ADD15O,1.800000X3.600000*%
%ADD16C,0.700000*%
%ADD17O,1.800000X1.300000*%
%ADD18R,0.370000X1.400000*%
G04 APERTURE END LIST*
D10*
%TO.C,RV1*%
X151050000Y-69400000D03*
D11*
X152200000Y-64300000D03*
D10*
X153350000Y-69400000D03*
%TD*%
D12*
%TO.C,REF\u002A\u002A*%
X143675000Y-48275000D03*
%TD*%
%TO.C,REF\u002A\u002A*%
G36*
G01*
X149450000Y-49138200D02*
X149450000Y-47461800D01*
G75*
G02*
X149711800Y-47200000I261800J0D01*
G01*
X151388200Y-47200000D01*
G75*
G02*
X151650000Y-47461800I0J-261800D01*
G01*
X151650000Y-49138200D01*
G75*
G02*
X151388200Y-49400000I-261800J0D01*
G01*
X149711800Y-49400000D01*
G75*
G02*
X149450000Y-49138200I0J261800D01*
G01*
G37*
%TD*%
%TO.C,R3*%
G36*
G01*
X152825000Y-53357456D02*
X152825000Y-52042544D01*
G75*
G02*
X153092544Y-51775000I267544J0D01*
G01*
X154082456Y-51775000D01*
G75*
G02*
X154350000Y-52042544I0J-267544D01*
G01*
X154350000Y-53357456D01*
G75*
G02*
X154082456Y-53625000I-267544J0D01*
G01*
X153092544Y-53625000D01*
G75*
G02*
X152825000Y-53357456I0J267544D01*
G01*
G37*
G36*
G01*
X149850000Y-53357456D02*
X149850000Y-52042544D01*
G75*
G02*
X150117544Y-51775000I267544J0D01*
G01*
X151107456Y-51775000D01*
G75*
G02*
X151375000Y-52042544I0J-267544D01*
G01*
X151375000Y-53357456D01*
G75*
G02*
X151107456Y-53625000I-267544J0D01*
G01*
X150117544Y-53625000D01*
G75*
G02*
X149850000Y-53357456I0J267544D01*
G01*
G37*
%TD*%
%TO.C,D2*%
G36*
G01*
X154657456Y-47675000D02*
X153342544Y-47675000D01*
G75*
G02*
X153075000Y-47407456I0J267544D01*
G01*
X153075000Y-46417544D01*
G75*
G02*
X153342544Y-46150000I267544J0D01*
G01*
X154657456Y-46150000D01*
G75*
G02*
X154925000Y-46417544I0J-267544D01*
G01*
X154925000Y-47407456D01*
G75*
G02*
X154657456Y-47675000I-267544J0D01*
G01*
G37*
G36*
G01*
X154657456Y-50650000D02*
X153342544Y-50650000D01*
G75*
G02*
X153075000Y-50382456I0J267544D01*
G01*
X153075000Y-49392544D01*
G75*
G02*
X153342544Y-49125000I267544J0D01*
G01*
X154657456Y-49125000D01*
G75*
G02*
X154925000Y-49392544I0J-267544D01*
G01*
X154925000Y-50382456D01*
G75*
G02*
X154657456Y-50650000I-267544J0D01*
G01*
G37*
%TD*%
%TO.C,D1*%
G36*
G01*
X153342544Y-43425000D02*
X154657456Y-43425000D01*
G75*
G02*
X154925000Y-43692544I0J-267544D01*
G01*
X154925000Y-44682456D01*
G75*
G02*
X154657456Y-44950000I-267544J0D01*
G01*
X153342544Y-44950000D01*
G75*
G02*
X153075000Y-44682456I0J267544D01*
G01*
X153075000Y-43692544D01*
G75*
G02*
X153342544Y-43425000I267544J0D01*
G01*
G37*
G36*
G01*
X153342544Y-40450000D02*
X154657456Y-40450000D01*
G75*
G02*
X154925000Y-40717544I0J-267544D01*
G01*
X154925000Y-41707456D01*
G75*
G02*
X154657456Y-41975000I-267544J0D01*
G01*
X153342544Y-41975000D01*
G75*
G02*
X153075000Y-41707456I0J267544D01*
G01*
X153075000Y-40717544D01*
G75*
G02*
X153342544Y-40450000I267544J0D01*
G01*
G37*
%TD*%
D13*
%TO.C,U1*%
X148050000Y-55700000D03*
X146150000Y-55700000D03*
X146150000Y-53500000D03*
X147100000Y-53500000D03*
X148050000Y-53500000D03*
%TD*%
%TO.C,R2*%
G36*
G01*
X152825000Y-56457456D02*
X152825000Y-55142544D01*
G75*
G02*
X153092544Y-54875000I267544J0D01*
G01*
X154082456Y-54875000D01*
G75*
G02*
X154350000Y-55142544I0J-267544D01*
G01*
X154350000Y-56457456D01*
G75*
G02*
X154082456Y-56725000I-267544J0D01*
G01*
X153092544Y-56725000D01*
G75*
G02*
X152825000Y-56457456I0J267544D01*
G01*
G37*
G36*
G01*
X149850000Y-56457456D02*
X149850000Y-55142544D01*
G75*
G02*
X150117544Y-54875000I267544J0D01*
G01*
X151107456Y-54875000D01*
G75*
G02*
X151375000Y-55142544I0J-267544D01*
G01*
X151375000Y-56457456D01*
G75*
G02*
X151107456Y-56725000I-267544J0D01*
G01*
X150117544Y-56725000D01*
G75*
G02*
X149850000Y-56457456I0J267544D01*
G01*
G37*
%TD*%
%TO.C,R1*%
G36*
G01*
X147825000Y-58957456D02*
X147825000Y-57642544D01*
G75*
G02*
X148092544Y-57375000I267544J0D01*
G01*
X149082456Y-57375000D01*
G75*
G02*
X149350000Y-57642544I0J-267544D01*
G01*
X149350000Y-58957456D01*
G75*
G02*
X149082456Y-59225000I-267544J0D01*
G01*
X148092544Y-59225000D01*
G75*
G02*
X147825000Y-58957456I0J267544D01*
G01*
G37*
G36*
G01*
X144850000Y-58958125D02*
X144850000Y-57641875D01*
G75*
G02*
X145116875Y-57375000I266875J0D01*
G01*
X146108125Y-57375000D01*
G75*
G02*
X146375000Y-57641875I0J-266875D01*
G01*
X146375000Y-58958125D01*
G75*
G02*
X146108125Y-59225000I-266875J0D01*
G01*
X145116875Y-59225000D01*
G75*
G02*
X144850000Y-58958125I0J266875D01*
G01*
G37*
%TD*%
%TO.C,C2*%
G36*
G01*
X141475000Y-52042544D02*
X141475000Y-53357456D01*
G75*
G02*
X141207456Y-53625000I-267544J0D01*
G01*
X140217544Y-53625000D01*
G75*
G02*
X139950000Y-53357456I0J267544D01*
G01*
X139950000Y-52042544D01*
G75*
G02*
X140217544Y-51775000I267544J0D01*
G01*
X141207456Y-51775000D01*
G75*
G02*
X141475000Y-52042544I0J-267544D01*
G01*
G37*
G36*
G01*
X144450000Y-52042544D02*
X144450000Y-53357456D01*
G75*
G02*
X144182456Y-53625000I-267544J0D01*
G01*
X143192544Y-53625000D01*
G75*
G02*
X142925000Y-53357456I0J267544D01*
G01*
X142925000Y-52042544D01*
G75*
G02*
X143192544Y-51775000I267544J0D01*
G01*
X144182456Y-51775000D01*
G75*
G02*
X144450000Y-52042544I0J-267544D01*
G01*
G37*
%TD*%
%TO.C,C1*%
G36*
G01*
X142925000Y-56457456D02*
X142925000Y-55142544D01*
G75*
G02*
X143192544Y-54875000I267544J0D01*
G01*
X144182456Y-54875000D01*
G75*
G02*
X144450000Y-55142544I0J-267544D01*
G01*
X144450000Y-56457456D01*
G75*
G02*
X144182456Y-56725000I-267544J0D01*
G01*
X143192544Y-56725000D01*
G75*
G02*
X142925000Y-56457456I0J267544D01*
G01*
G37*
G36*
G01*
X139950000Y-56457456D02*
X139950000Y-55142544D01*
G75*
G02*
X140217544Y-54875000I267544J0D01*
G01*
X141207456Y-54875000D01*
G75*
G02*
X141475000Y-55142544I0J-267544D01*
G01*
X141475000Y-56457456D01*
G75*
G02*
X141207456Y-56725000I-267544J0D01*
G01*
X140217544Y-56725000D01*
G75*
G02*
X139950000Y-56457456I0J267544D01*
G01*
G37*
%TD*%
%TO.C,REF\u002A\u002A*%
G36*
G01*
X146125000Y-63334700D02*
X146125000Y-65465300D01*
G75*
G02*
X145865300Y-65725000I-259700J0D01*
G01*
X143734700Y-65725000D01*
G75*
G02*
X143475000Y-65465300I0J259700D01*
G01*
X143475000Y-63334700D01*
G75*
G02*
X143734700Y-63075000I259700J0D01*
G01*
X145865300Y-63075000D01*
G75*
G02*
X146125000Y-63334700I0J-259700D01*
G01*
G37*
D14*
X140000000Y-64400000D03*
%TD*%
%TO.C,REF\u002A\u002A*%
X140000000Y-69100000D03*
G36*
G01*
X146125000Y-68034700D02*
X146125000Y-70165300D01*
G75*
G02*
X145865300Y-70425000I-259700J0D01*
G01*
X143734700Y-70425000D01*
G75*
G02*
X143475000Y-70165300I0J259700D01*
G01*
X143475000Y-68034700D01*
G75*
G02*
X143734700Y-67775000I259700J0D01*
G01*
X145865300Y-67775000D01*
G75*
G02*
X146125000Y-68034700I0J-259700D01*
G01*
G37*
%TD*%
D15*
%TO.C,SW1*%
X140100000Y-96200000D03*
X154100000Y-96200000D03*
%TD*%
D16*
%TO.C,J1*%
X152600000Y-87200000D03*
D17*
X151200000Y-89970000D03*
X151200000Y-87030000D03*
X143000000Y-89970000D03*
D18*
X144350000Y-90250000D03*
X144850000Y-90250000D03*
X145350000Y-90250000D03*
X145850000Y-90250000D03*
X146350000Y-90250000D03*
X146850000Y-90250000D03*
X147350000Y-90250000D03*
X147850000Y-90250000D03*
X148350000Y-90250000D03*
X148850000Y-90250000D03*
X149350000Y-90250000D03*
D16*
X141600000Y-87200000D03*
D18*
X149850000Y-90250000D03*
X149350000Y-86750000D03*
X147850000Y-86750000D03*
X148350000Y-86750000D03*
X148850000Y-86750000D03*
X149850000Y-86750000D03*
X147350000Y-86750000D03*
X146850000Y-86750000D03*
X146350000Y-86750000D03*
X145850000Y-86750000D03*
X145350000Y-86750000D03*
X144850000Y-86750000D03*
X144350000Y-86750000D03*
D17*
X143000000Y-87030000D03*
%TD*%
%TO.C,BT1*%
G36*
G01*
X149650000Y-45334375D02*
X149650000Y-42765625D01*
G75*
G02*
X149915625Y-42500000I265625J0D01*
G01*
X151084375Y-42500000D01*
G75*
G02*
X151350000Y-42765625I0J-265625D01*
G01*
X151350000Y-45334375D01*
G75*
G02*
X151084375Y-45600000I-265625J0D01*
G01*
X149915625Y-45600000D01*
G75*
G02*
X149650000Y-45334375I0J265625D01*
G01*
G37*
G36*
G01*
X142850000Y-45334375D02*
X142850000Y-42765625D01*
G75*
G02*
X143115625Y-42500000I265625J0D01*
G01*
X144284375Y-42500000D01*
G75*
G02*
X144550000Y-42765625I0J-265625D01*
G01*
X144550000Y-45334375D01*
G75*
G02*
X144284375Y-45600000I-265625J0D01*
G01*
X143115625Y-45600000D01*
G75*
G02*
X142850000Y-45334375I0J265625D01*
G01*
G37*
G36*
G01*
X147550000Y-48825000D02*
X147550000Y-43775000D01*
G75*
G02*
X147825000Y-43500000I275000J0D01*
G01*
X148375000Y-43500000D01*
G75*
G02*
X148650000Y-43775000I0J-275000D01*
G01*
X148650000Y-48825000D01*
G75*
G02*
X148375000Y-49100000I-275000J0D01*
G01*
X147825000Y-49100000D01*
G75*
G02*
X147550000Y-48825000I0J275000D01*
G01*
G37*
G36*
G01*
X145550000Y-48825000D02*
X145550000Y-43775000D01*
G75*
G02*
X145825000Y-43500000I275000J0D01*
G01*
X146375000Y-43500000D01*
G75*
G02*
X146650000Y-43775000I0J-275000D01*
G01*
X146650000Y-48825000D01*
G75*
G02*
X146375000Y-49100000I-275000J0D01*
G01*
X145825000Y-49100000D01*
G75*
G02*
X145550000Y-48825000I0J275000D01*
G01*
G37*
%TD*%
M02*
