%TF.GenerationSoftware,KiCad,Pcbnew,(5.1.6)-1*%
%TF.CreationDate,2021-02-04T17:03:45-05:00*%
%TF.ProjectId,horny_charger,686f726e-795f-4636-9861-726765722e6b,rev?*%
%TF.SameCoordinates,Original*%
%TF.FileFunction,Paste,Top*%
%TF.FilePolarity,Positive*%
%FSLAX46Y46*%
G04 Gerber Fmt 4.6, Leading zero omitted, Abs format (unit mm)*
G04 Created by KiCad (PCBNEW (5.1.6)-1) date 2021-02-04 17:03:45*
%MOMM*%
%LPD*%
G01*
G04 APERTURE LIST*
%ADD10R,1.300000X1.500000*%
%ADD11R,1.300000X2.000000*%
%ADD12R,0.650000X1.060000*%
%ADD13R,0.270000X1.300000*%
G04 APERTURE END LIST*
D10*
%TO.C,RV1*%
X151050000Y-69400000D03*
D11*
X152200000Y-64300000D03*
D10*
X153350000Y-69400000D03*
%TD*%
%TO.C,R3*%
G36*
G01*
X152875000Y-53325000D02*
X152875000Y-52075000D01*
G75*
G02*
X153125000Y-51825000I250000J0D01*
G01*
X154050000Y-51825000D01*
G75*
G02*
X154300000Y-52075000I0J-250000D01*
G01*
X154300000Y-53325000D01*
G75*
G02*
X154050000Y-53575000I-250000J0D01*
G01*
X153125000Y-53575000D01*
G75*
G02*
X152875000Y-53325000I0J250000D01*
G01*
G37*
G36*
G01*
X149900000Y-53325000D02*
X149900000Y-52075000D01*
G75*
G02*
X150150000Y-51825000I250000J0D01*
G01*
X151075000Y-51825000D01*
G75*
G02*
X151325000Y-52075000I0J-250000D01*
G01*
X151325000Y-53325000D01*
G75*
G02*
X151075000Y-53575000I-250000J0D01*
G01*
X150150000Y-53575000D01*
G75*
G02*
X149900000Y-53325000I0J250000D01*
G01*
G37*
%TD*%
%TO.C,D2*%
G36*
G01*
X154625000Y-47625000D02*
X153375000Y-47625000D01*
G75*
G02*
X153125000Y-47375000I0J250000D01*
G01*
X153125000Y-46450000D01*
G75*
G02*
X153375000Y-46200000I250000J0D01*
G01*
X154625000Y-46200000D01*
G75*
G02*
X154875000Y-46450000I0J-250000D01*
G01*
X154875000Y-47375000D01*
G75*
G02*
X154625000Y-47625000I-250000J0D01*
G01*
G37*
G36*
G01*
X154625000Y-50600000D02*
X153375000Y-50600000D01*
G75*
G02*
X153125000Y-50350000I0J250000D01*
G01*
X153125000Y-49425000D01*
G75*
G02*
X153375000Y-49175000I250000J0D01*
G01*
X154625000Y-49175000D01*
G75*
G02*
X154875000Y-49425000I0J-250000D01*
G01*
X154875000Y-50350000D01*
G75*
G02*
X154625000Y-50600000I-250000J0D01*
G01*
G37*
%TD*%
%TO.C,D1*%
G36*
G01*
X153375000Y-43475000D02*
X154625000Y-43475000D01*
G75*
G02*
X154875000Y-43725000I0J-250000D01*
G01*
X154875000Y-44650000D01*
G75*
G02*
X154625000Y-44900000I-250000J0D01*
G01*
X153375000Y-44900000D01*
G75*
G02*
X153125000Y-44650000I0J250000D01*
G01*
X153125000Y-43725000D01*
G75*
G02*
X153375000Y-43475000I250000J0D01*
G01*
G37*
G36*
G01*
X153375000Y-40500000D02*
X154625000Y-40500000D01*
G75*
G02*
X154875000Y-40750000I0J-250000D01*
G01*
X154875000Y-41675000D01*
G75*
G02*
X154625000Y-41925000I-250000J0D01*
G01*
X153375000Y-41925000D01*
G75*
G02*
X153125000Y-41675000I0J250000D01*
G01*
X153125000Y-40750000D01*
G75*
G02*
X153375000Y-40500000I250000J0D01*
G01*
G37*
%TD*%
D12*
%TO.C,U1*%
X148050000Y-55700000D03*
X146150000Y-55700000D03*
X146150000Y-53500000D03*
X147100000Y-53500000D03*
X148050000Y-53500000D03*
%TD*%
%TO.C,R2*%
G36*
G01*
X152875000Y-56425000D02*
X152875000Y-55175000D01*
G75*
G02*
X153125000Y-54925000I250000J0D01*
G01*
X154050000Y-54925000D01*
G75*
G02*
X154300000Y-55175000I0J-250000D01*
G01*
X154300000Y-56425000D01*
G75*
G02*
X154050000Y-56675000I-250000J0D01*
G01*
X153125000Y-56675000D01*
G75*
G02*
X152875000Y-56425000I0J250000D01*
G01*
G37*
G36*
G01*
X149900000Y-56425000D02*
X149900000Y-55175000D01*
G75*
G02*
X150150000Y-54925000I250000J0D01*
G01*
X151075000Y-54925000D01*
G75*
G02*
X151325000Y-55175000I0J-250000D01*
G01*
X151325000Y-56425000D01*
G75*
G02*
X151075000Y-56675000I-250000J0D01*
G01*
X150150000Y-56675000D01*
G75*
G02*
X149900000Y-56425000I0J250000D01*
G01*
G37*
%TD*%
%TO.C,R1*%
G36*
G01*
X147875000Y-58925000D02*
X147875000Y-57675000D01*
G75*
G02*
X148125000Y-57425000I250000J0D01*
G01*
X149050000Y-57425000D01*
G75*
G02*
X149300000Y-57675000I0J-250000D01*
G01*
X149300000Y-58925000D01*
G75*
G02*
X149050000Y-59175000I-250000J0D01*
G01*
X148125000Y-59175000D01*
G75*
G02*
X147875000Y-58925000I0J250000D01*
G01*
G37*
G36*
G01*
X144900000Y-58925626D02*
X144900000Y-57674374D01*
G75*
G02*
X145149374Y-57425000I249374J0D01*
G01*
X146075626Y-57425000D01*
G75*
G02*
X146325000Y-57674374I0J-249374D01*
G01*
X146325000Y-58925626D01*
G75*
G02*
X146075626Y-59175000I-249374J0D01*
G01*
X145149374Y-59175000D01*
G75*
G02*
X144900000Y-58925626I0J249374D01*
G01*
G37*
%TD*%
%TO.C,C2*%
G36*
G01*
X141425000Y-52075000D02*
X141425000Y-53325000D01*
G75*
G02*
X141175000Y-53575000I-250000J0D01*
G01*
X140250000Y-53575000D01*
G75*
G02*
X140000000Y-53325000I0J250000D01*
G01*
X140000000Y-52075000D01*
G75*
G02*
X140250000Y-51825000I250000J0D01*
G01*
X141175000Y-51825000D01*
G75*
G02*
X141425000Y-52075000I0J-250000D01*
G01*
G37*
G36*
G01*
X144400000Y-52075000D02*
X144400000Y-53325000D01*
G75*
G02*
X144150000Y-53575000I-250000J0D01*
G01*
X143225000Y-53575000D01*
G75*
G02*
X142975000Y-53325000I0J250000D01*
G01*
X142975000Y-52075000D01*
G75*
G02*
X143225000Y-51825000I250000J0D01*
G01*
X144150000Y-51825000D01*
G75*
G02*
X144400000Y-52075000I0J-250000D01*
G01*
G37*
%TD*%
%TO.C,C1*%
G36*
G01*
X142975000Y-56425000D02*
X142975000Y-55175000D01*
G75*
G02*
X143225000Y-54925000I250000J0D01*
G01*
X144150000Y-54925000D01*
G75*
G02*
X144400000Y-55175000I0J-250000D01*
G01*
X144400000Y-56425000D01*
G75*
G02*
X144150000Y-56675000I-250000J0D01*
G01*
X143225000Y-56675000D01*
G75*
G02*
X142975000Y-56425000I0J250000D01*
G01*
G37*
G36*
G01*
X140000000Y-56425000D02*
X140000000Y-55175000D01*
G75*
G02*
X140250000Y-54925000I250000J0D01*
G01*
X141175000Y-54925000D01*
G75*
G02*
X141425000Y-55175000I0J-250000D01*
G01*
X141425000Y-56425000D01*
G75*
G02*
X141175000Y-56675000I-250000J0D01*
G01*
X140250000Y-56675000D01*
G75*
G02*
X140000000Y-56425000I0J250000D01*
G01*
G37*
%TD*%
D13*
%TO.C,J1*%
X144350000Y-90250000D03*
X144850000Y-90250000D03*
X145350000Y-90250000D03*
X145850000Y-90250000D03*
X146350000Y-90250000D03*
X146850000Y-90250000D03*
X147350000Y-90250000D03*
X147850000Y-90250000D03*
X148350000Y-90250000D03*
X148850000Y-90250000D03*
X149350000Y-90250000D03*
X149850000Y-90250000D03*
X149350000Y-86750000D03*
X147850000Y-86750000D03*
X148350000Y-86750000D03*
X148850000Y-86750000D03*
X149850000Y-86750000D03*
X147350000Y-86750000D03*
X146850000Y-86750000D03*
X146350000Y-86750000D03*
X145850000Y-86750000D03*
X145350000Y-86750000D03*
X144850000Y-86750000D03*
X144350000Y-86750000D03*
%TD*%
%TO.C,BT1*%
G36*
G01*
X149700000Y-45300000D02*
X149700000Y-42800000D01*
G75*
G02*
X149950000Y-42550000I250000J0D01*
G01*
X151050000Y-42550000D01*
G75*
G02*
X151300000Y-42800000I0J-250000D01*
G01*
X151300000Y-45300000D01*
G75*
G02*
X151050000Y-45550000I-250000J0D01*
G01*
X149950000Y-45550000D01*
G75*
G02*
X149700000Y-45300000I0J250000D01*
G01*
G37*
G36*
G01*
X142900000Y-45300000D02*
X142900000Y-42800000D01*
G75*
G02*
X143150000Y-42550000I250000J0D01*
G01*
X144250000Y-42550000D01*
G75*
G02*
X144500000Y-42800000I0J-250000D01*
G01*
X144500000Y-45300000D01*
G75*
G02*
X144250000Y-45550000I-250000J0D01*
G01*
X143150000Y-45550000D01*
G75*
G02*
X142900000Y-45300000I0J250000D01*
G01*
G37*
G36*
G01*
X147600000Y-48800000D02*
X147600000Y-43800000D01*
G75*
G02*
X147850000Y-43550000I250000J0D01*
G01*
X148350000Y-43550000D01*
G75*
G02*
X148600000Y-43800000I0J-250000D01*
G01*
X148600000Y-48800000D01*
G75*
G02*
X148350000Y-49050000I-250000J0D01*
G01*
X147850000Y-49050000D01*
G75*
G02*
X147600000Y-48800000I0J250000D01*
G01*
G37*
G36*
G01*
X145600000Y-48800000D02*
X145600000Y-43800000D01*
G75*
G02*
X145850000Y-43550000I250000J0D01*
G01*
X146350000Y-43550000D01*
G75*
G02*
X146600000Y-43800000I0J-250000D01*
G01*
X146600000Y-48800000D01*
G75*
G02*
X146350000Y-49050000I-250000J0D01*
G01*
X145850000Y-49050000D01*
G75*
G02*
X145600000Y-48800000I0J250000D01*
G01*
G37*
%TD*%
M02*
