M48
; DRILL file {KiCad (5.1.6)-1} date 02/04/21 17:03:42
; FORMAT={-:-/ absolute / inch / decimal}
; #@! TF.CreationDate,2021-02-04T17:03:42-05:00
; #@! TF.GenerationSoftware,Kicad,Pcbnew,(5.1.6)-1
; #@! TF.FileFunction,Plated,1,2,PTH
FMAT,2
INCH
T1C0.0157
T2C0.0276
T3C0.0394
T4C0.0433
%
G90
G05
T1
X5.6565Y-2.2628
X5.6585Y-2.0039
X5.7913Y-3.4823
X5.8327Y-1.6772
X6.0394Y-2.6732
X6.0472Y-1.7953
X6.0472Y-2.1378
X6.1024Y-1.7953
T3
X5.5118Y-2.5354
X5.7008Y-2.5354
X5.5118Y-2.7205
X5.7008Y-2.7205
T4
X5.9272Y-1.9016
X5.6565Y-1.9006
T2
G00X5.5157Y-3.752
M15
G01X5.5157Y-3.8228
M16
G05
G00X6.0669Y-3.752
M15
G01X6.0669Y-3.8228
M16
G05
G00X5.6181Y-3.4264
M15
G01X5.6417Y-3.4264
M16
G05
G00X5.6181Y-3.5421
M15
G01X5.6417Y-3.5421
M16
G05
G00X5.9409Y-3.4264
M15
G01X5.9646Y-3.4264
M16
G05
G00X5.9409Y-3.5421
M15
G01X5.9646Y-3.5421
M16
G05
T0
M30
