%TF.GenerationSoftware,KiCad,Pcbnew,(5.1.6)-1*%
%TF.CreationDate,2020-07-03T21:52:39-04:00*%
%TF.ProjectId,SRF Pendant Daughterboards,53524620-5065-46e6-9461-6e7420446175,rev?*%
%TF.SameCoordinates,Original*%
%TF.FileFunction,Copper,L2,Bot*%
%TF.FilePolarity,Positive*%
%FSLAX46Y46*%
G04 Gerber Fmt 4.6, Leading zero omitted, Abs format (unit mm)*
G04 Created by KiCad (PCBNEW (5.1.6)-1) date 2020-07-03 21:52:39*
%MOMM*%
%LPD*%
G01*
G04 APERTURE LIST*
%TA.AperFunction,ComponentPad*%
%ADD10C,0.850000*%
%TD*%
%TA.AperFunction,SMDPad,CuDef*%
%ADD11R,1.500000X1.000000*%
%TD*%
%TA.AperFunction,ViaPad*%
%ADD12C,0.800000*%
%TD*%
%TA.AperFunction,Conductor*%
%ADD13C,0.250000*%
%TD*%
G04 APERTURE END LIST*
D10*
%TO.P,REF\u002A\u002A,1*%
%TO.N,N/C*%
X151700000Y-100000000D03*
%TD*%
%TO.P,REF\u002A\u002A,1*%
%TO.N,N/C*%
X151700000Y-96700000D03*
%TD*%
D11*
%TO.P,D1,3*%
%TO.N,N/C*%
X150050000Y-100100000D03*
%TO.P,D1,4*%
X150050000Y-103300000D03*
%TO.P,D1,2*%
X145150000Y-100100000D03*
%TO.P,D1,1*%
X145150000Y-103300000D03*
%TD*%
%TO.P,D1,1*%
%TO.N,Net-(D1-Pad2)*%
X145150000Y-96800000D03*
%TO.P,D1,2*%
%TO.N,Net-(D1-Pad1)*%
X145150000Y-93600000D03*
%TO.P,D1,4*%
%TO.N,Net-(D1-Pad3)*%
X150050000Y-96800000D03*
%TO.P,D1,3*%
%TO.N,Net-(D1-Pad4)*%
X150050000Y-93600000D03*
%TD*%
%TO.P,U1,4*%
%TO.N,Net-(U1-Pad1)*%
%TA.AperFunction,SMDPad,CuDef*%
G36*
G01*
X154550000Y-96232500D02*
X154550000Y-96557500D01*
G75*
G02*
X154387500Y-96720000I-162500J0D01*
G01*
X152737500Y-96720000D01*
G75*
G02*
X152575000Y-96557500I0J162500D01*
G01*
X152575000Y-96232500D01*
G75*
G02*
X152737500Y-96070000I162500J0D01*
G01*
X154387500Y-96070000D01*
G75*
G02*
X154550000Y-96232500I0J-162500D01*
G01*
G37*
%TD.AperFunction*%
%TO.P,U1,3*%
%TO.N,Net-(U1-Pad2)*%
%TA.AperFunction,SMDPad,CuDef*%
G36*
G01*
X154550000Y-97502500D02*
X154550000Y-97827500D01*
G75*
G02*
X154387500Y-97990000I-162500J0D01*
G01*
X152737500Y-97990000D01*
G75*
G02*
X152575000Y-97827500I0J162500D01*
G01*
X152575000Y-97502500D01*
G75*
G02*
X152737500Y-97340000I162500J0D01*
G01*
X154387500Y-97340000D01*
G75*
G02*
X154550000Y-97502500I0J-162500D01*
G01*
G37*
%TD.AperFunction*%
%TO.P,U1,2*%
%TO.N,Net-(U1-Pad3)*%
%TA.AperFunction,SMDPad,CuDef*%
G36*
G01*
X154550000Y-98772500D02*
X154550000Y-99097500D01*
G75*
G02*
X154387500Y-99260000I-162500J0D01*
G01*
X152737500Y-99260000D01*
G75*
G02*
X152575000Y-99097500I0J162500D01*
G01*
X152575000Y-98772500D01*
G75*
G02*
X152737500Y-98610000I162500J0D01*
G01*
X154387500Y-98610000D01*
G75*
G02*
X154550000Y-98772500I0J-162500D01*
G01*
G37*
%TD.AperFunction*%
%TO.P,U1,1*%
%TO.N,Net-(U1-Pad4)*%
%TA.AperFunction,SMDPad,CuDef*%
G36*
G01*
X154550000Y-100042500D02*
X154550000Y-100367500D01*
G75*
G02*
X154387500Y-100530000I-162500J0D01*
G01*
X152737500Y-100530000D01*
G75*
G02*
X152575000Y-100367500I0J162500D01*
G01*
X152575000Y-100042500D01*
G75*
G02*
X152737500Y-99880000I162500J0D01*
G01*
X154387500Y-99880000D01*
G75*
G02*
X154550000Y-100042500I0J-162500D01*
G01*
G37*
%TD.AperFunction*%
%TO.P,U1,5*%
%TO.N,Net-(U1-Pad5)*%
%TA.AperFunction,SMDPad,CuDef*%
G36*
G01*
X159387500Y-100042500D02*
X159387500Y-100367500D01*
G75*
G02*
X159225000Y-100530000I-162500J0D01*
G01*
X158050000Y-100530000D01*
G75*
G02*
X157887500Y-100367500I0J162500D01*
G01*
X157887500Y-100042500D01*
G75*
G02*
X158050000Y-99880000I162500J0D01*
G01*
X159225000Y-99880000D01*
G75*
G02*
X159387500Y-100042500I0J-162500D01*
G01*
G37*
%TD.AperFunction*%
%TO.P,U1,6*%
%TO.N,Net-(U1-Pad6)*%
%TA.AperFunction,SMDPad,CuDef*%
G36*
G01*
X159387500Y-98772500D02*
X159387500Y-99097500D01*
G75*
G02*
X159225000Y-99260000I-162500J0D01*
G01*
X158050000Y-99260000D01*
G75*
G02*
X157887500Y-99097500I0J162500D01*
G01*
X157887500Y-98772500D01*
G75*
G02*
X158050000Y-98610000I162500J0D01*
G01*
X159225000Y-98610000D01*
G75*
G02*
X159387500Y-98772500I0J-162500D01*
G01*
G37*
%TD.AperFunction*%
%TO.P,U1,7*%
%TO.N,Net-(U1-Pad7)*%
%TA.AperFunction,SMDPad,CuDef*%
G36*
G01*
X159387500Y-97502500D02*
X159387500Y-97827500D01*
G75*
G02*
X159225000Y-97990000I-162500J0D01*
G01*
X158050000Y-97990000D01*
G75*
G02*
X157887500Y-97827500I0J162500D01*
G01*
X157887500Y-97502500D01*
G75*
G02*
X158050000Y-97340000I162500J0D01*
G01*
X159225000Y-97340000D01*
G75*
G02*
X159387500Y-97502500I0J-162500D01*
G01*
G37*
%TD.AperFunction*%
%TO.P,U1,8*%
%TO.N,Net-(U1-Pad8)*%
%TA.AperFunction,SMDPad,CuDef*%
G36*
G01*
X159387500Y-96232500D02*
X159387500Y-96557500D01*
G75*
G02*
X159225000Y-96720000I-162500J0D01*
G01*
X158050000Y-96720000D01*
G75*
G02*
X157887500Y-96557500I0J162500D01*
G01*
X157887500Y-96232500D01*
G75*
G02*
X158050000Y-96070000I162500J0D01*
G01*
X159225000Y-96070000D01*
G75*
G02*
X159387500Y-96232500I0J-162500D01*
G01*
G37*
%TD.AperFunction*%
%TD*%
D12*
%TO.N,*%
X146500000Y-100100000D03*
X146500000Y-103300000D03*
X148700000Y-100100000D03*
X148700000Y-103300000D03*
%TO.N,Net-(D1-Pad1)*%
X146500000Y-93600000D03*
%TO.N,Net-(D1-Pad4)*%
X148700000Y-93600000D03*
%TO.N,Net-(D1-Pad3)*%
X148700000Y-96800000D03*
%TO.N,Net-(D1-Pad2)*%
X146500000Y-96800000D03*
%TO.N,Net-(U1-Pad1)*%
X155200000Y-96400000D03*
%TO.N,Net-(U1-Pad2)*%
X155200000Y-97700000D03*
%TO.N,Net-(U1-Pad3)*%
X155200000Y-98900000D03*
%TO.N,Net-(U1-Pad4)*%
X155200000Y-100200000D03*
%TO.N,Net-(U1-Pad5)*%
X157000000Y-100200000D03*
%TO.N,Net-(U1-Pad7)*%
X157000000Y-97700000D03*
%TO.N,Net-(U1-Pad8)*%
X157000000Y-96400000D03*
%TD*%
D13*
%TO.N,*%
X146500000Y-100100000D02*
X145150000Y-100100000D01*
X146500000Y-103300000D02*
X145150000Y-103300000D01*
X148700000Y-100100000D02*
X150050000Y-100100000D01*
X148700000Y-103300000D02*
X150050000Y-103300000D01*
%TO.N,Net-(D1-Pad1)*%
X146500000Y-93600000D02*
X145150000Y-93600000D01*
%TO.N,Net-(D1-Pad2)*%
X146500000Y-96800000D02*
X145150000Y-96800000D01*
%TO.N,Net-(D1-Pad4)*%
X148700000Y-93600000D02*
X150050000Y-93600000D01*
%TO.N,Net-(D1-Pad3)*%
X148700000Y-96800000D02*
X150050000Y-96800000D01*
%TO.N,Net-(U1-Pad8)*%
X158632500Y-96400000D02*
X158637500Y-96395000D01*
X157000000Y-96400000D02*
X158632500Y-96400000D01*
%TO.N,Net-(U1-Pad7)*%
X158602500Y-97700000D02*
X158637500Y-97665000D01*
X157000000Y-97700000D02*
X158602500Y-97700000D01*
%TO.N,Net-(U1-Pad5)*%
X158632500Y-100200000D02*
X158637500Y-100205000D01*
X157000000Y-100200000D02*
X158632500Y-100200000D01*
%TO.N,Net-(U1-Pad4)*%
X153567500Y-100200000D02*
X153562500Y-100205000D01*
X155200000Y-100200000D02*
X153567500Y-100200000D01*
%TO.N,Net-(U1-Pad3)*%
X153597500Y-98900000D02*
X153562500Y-98935000D01*
X155200000Y-98900000D02*
X153597500Y-98900000D01*
%TO.N,Net-(U1-Pad2)*%
X153597500Y-97700000D02*
X153562500Y-97665000D01*
X155200000Y-97700000D02*
X153597500Y-97700000D01*
%TO.N,Net-(U1-Pad1)*%
X153567500Y-96400000D02*
X153562500Y-96395000D01*
X155200000Y-96400000D02*
X153567500Y-96400000D01*
%TD*%
M02*
