%TF.GenerationSoftware,KiCad,Pcbnew,(5.1.6)-1*%
%TF.CreationDate,2020-07-03T21:52:39-04:00*%
%TF.ProjectId,SRF Pendant Daughterboards,53524620-5065-46e6-9461-6e7420446175,rev?*%
%TF.SameCoordinates,Original*%
%TF.FileFunction,Soldermask,Top*%
%TF.FilePolarity,Negative*%
%FSLAX46Y46*%
G04 Gerber Fmt 4.6, Leading zero omitted, Abs format (unit mm)*
G04 Created by KiCad (PCBNEW (5.1.6)-1) date 2020-07-03 21:52:39*
%MOMM*%
%LPD*%
G01*
G04 APERTURE LIST*
%ADD10C,0.950000*%
%ADD11C,1.600000*%
%ADD12R,1.600000X1.100000*%
G04 APERTURE END LIST*
D10*
%TO.C,REF\u002A\u002A*%
X151700000Y-100000000D03*
%TD*%
%TO.C,REF\u002A\u002A*%
X151700000Y-96700000D03*
%TD*%
D11*
%TO.C,REF\u002A\u002A*%
X158500000Y-94300000D03*
%TD*%
%TO.C,U2*%
G36*
G01*
X157837500Y-96582500D02*
X157837500Y-96207500D01*
G75*
G02*
X158025000Y-96020000I187500J0D01*
G01*
X159250000Y-96020000D01*
G75*
G02*
X159437500Y-96207500I0J-187500D01*
G01*
X159437500Y-96582500D01*
G75*
G02*
X159250000Y-96770000I-187500J0D01*
G01*
X158025000Y-96770000D01*
G75*
G02*
X157837500Y-96582500I0J187500D01*
G01*
G37*
G36*
G01*
X157837500Y-97852500D02*
X157837500Y-97477500D01*
G75*
G02*
X158025000Y-97290000I187500J0D01*
G01*
X159250000Y-97290000D01*
G75*
G02*
X159437500Y-97477500I0J-187500D01*
G01*
X159437500Y-97852500D01*
G75*
G02*
X159250000Y-98040000I-187500J0D01*
G01*
X158025000Y-98040000D01*
G75*
G02*
X157837500Y-97852500I0J187500D01*
G01*
G37*
G36*
G01*
X157837500Y-99122500D02*
X157837500Y-98747500D01*
G75*
G02*
X158025000Y-98560000I187500J0D01*
G01*
X159250000Y-98560000D01*
G75*
G02*
X159437500Y-98747500I0J-187500D01*
G01*
X159437500Y-99122500D01*
G75*
G02*
X159250000Y-99310000I-187500J0D01*
G01*
X158025000Y-99310000D01*
G75*
G02*
X157837500Y-99122500I0J187500D01*
G01*
G37*
G36*
G01*
X157837500Y-100392500D02*
X157837500Y-100017500D01*
G75*
G02*
X158025000Y-99830000I187500J0D01*
G01*
X159250000Y-99830000D01*
G75*
G02*
X159437500Y-100017500I0J-187500D01*
G01*
X159437500Y-100392500D01*
G75*
G02*
X159250000Y-100580000I-187500J0D01*
G01*
X158025000Y-100580000D01*
G75*
G02*
X157837500Y-100392500I0J187500D01*
G01*
G37*
G36*
G01*
X152525000Y-100392500D02*
X152525000Y-100017500D01*
G75*
G02*
X152712500Y-99830000I187500J0D01*
G01*
X154412500Y-99830000D01*
G75*
G02*
X154600000Y-100017500I0J-187500D01*
G01*
X154600000Y-100392500D01*
G75*
G02*
X154412500Y-100580000I-187500J0D01*
G01*
X152712500Y-100580000D01*
G75*
G02*
X152525000Y-100392500I0J187500D01*
G01*
G37*
G36*
G01*
X152525000Y-99122500D02*
X152525000Y-98747500D01*
G75*
G02*
X152712500Y-98560000I187500J0D01*
G01*
X154412500Y-98560000D01*
G75*
G02*
X154600000Y-98747500I0J-187500D01*
G01*
X154600000Y-99122500D01*
G75*
G02*
X154412500Y-99310000I-187500J0D01*
G01*
X152712500Y-99310000D01*
G75*
G02*
X152525000Y-99122500I0J187500D01*
G01*
G37*
G36*
G01*
X152525000Y-97852500D02*
X152525000Y-97477500D01*
G75*
G02*
X152712500Y-97290000I187500J0D01*
G01*
X154412500Y-97290000D01*
G75*
G02*
X154600000Y-97477500I0J-187500D01*
G01*
X154600000Y-97852500D01*
G75*
G02*
X154412500Y-98040000I-187500J0D01*
G01*
X152712500Y-98040000D01*
G75*
G02*
X152525000Y-97852500I0J187500D01*
G01*
G37*
G36*
G01*
X152525000Y-96582500D02*
X152525000Y-96207500D01*
G75*
G02*
X152712500Y-96020000I187500J0D01*
G01*
X154412500Y-96020000D01*
G75*
G02*
X154600000Y-96207500I0J-187500D01*
G01*
X154600000Y-96582500D01*
G75*
G02*
X154412500Y-96770000I-187500J0D01*
G01*
X152712500Y-96770000D01*
G75*
G02*
X152525000Y-96582500I0J187500D01*
G01*
G37*
%TD*%
D12*
%TO.C,D3*%
X150050000Y-103300000D03*
X150050000Y-100100000D03*
X145150000Y-103300000D03*
X145150000Y-100100000D03*
%TD*%
%TO.C,D3*%
X145150000Y-93600000D03*
X145150000Y-96800000D03*
X150050000Y-93600000D03*
X150050000Y-96800000D03*
%TD*%
M02*
