%TF.GenerationSoftware,KiCad,Pcbnew,(5.1.6)-1*%
%TF.CreationDate,2020-07-03T21:52:39-04:00*%
%TF.ProjectId,SRF Pendant Daughterboards,53524620-5065-46e6-9461-6e7420446175,rev?*%
%TF.SameCoordinates,Original*%
%TF.FileFunction,Paste,Top*%
%TF.FilePolarity,Positive*%
%FSLAX46Y46*%
G04 Gerber Fmt 4.6, Leading zero omitted, Abs format (unit mm)*
G04 Created by KiCad (PCBNEW (5.1.6)-1) date 2020-07-03 21:52:39*
%MOMM*%
%LPD*%
G01*
G04 APERTURE LIST*
%ADD10C,1.500000*%
%ADD11R,1.500000X1.000000*%
G04 APERTURE END LIST*
D10*
%TO.C,REF\u002A\u002A*%
X158500000Y-94300000D03*
%TD*%
%TO.C,U2*%
G36*
G01*
X157887500Y-96557500D02*
X157887500Y-96232500D01*
G75*
G02*
X158050000Y-96070000I162500J0D01*
G01*
X159225000Y-96070000D01*
G75*
G02*
X159387500Y-96232500I0J-162500D01*
G01*
X159387500Y-96557500D01*
G75*
G02*
X159225000Y-96720000I-162500J0D01*
G01*
X158050000Y-96720000D01*
G75*
G02*
X157887500Y-96557500I0J162500D01*
G01*
G37*
G36*
G01*
X157887500Y-97827500D02*
X157887500Y-97502500D01*
G75*
G02*
X158050000Y-97340000I162500J0D01*
G01*
X159225000Y-97340000D01*
G75*
G02*
X159387500Y-97502500I0J-162500D01*
G01*
X159387500Y-97827500D01*
G75*
G02*
X159225000Y-97990000I-162500J0D01*
G01*
X158050000Y-97990000D01*
G75*
G02*
X157887500Y-97827500I0J162500D01*
G01*
G37*
G36*
G01*
X157887500Y-99097500D02*
X157887500Y-98772500D01*
G75*
G02*
X158050000Y-98610000I162500J0D01*
G01*
X159225000Y-98610000D01*
G75*
G02*
X159387500Y-98772500I0J-162500D01*
G01*
X159387500Y-99097500D01*
G75*
G02*
X159225000Y-99260000I-162500J0D01*
G01*
X158050000Y-99260000D01*
G75*
G02*
X157887500Y-99097500I0J162500D01*
G01*
G37*
G36*
G01*
X157887500Y-100367500D02*
X157887500Y-100042500D01*
G75*
G02*
X158050000Y-99880000I162500J0D01*
G01*
X159225000Y-99880000D01*
G75*
G02*
X159387500Y-100042500I0J-162500D01*
G01*
X159387500Y-100367500D01*
G75*
G02*
X159225000Y-100530000I-162500J0D01*
G01*
X158050000Y-100530000D01*
G75*
G02*
X157887500Y-100367500I0J162500D01*
G01*
G37*
G36*
G01*
X152575000Y-100367500D02*
X152575000Y-100042500D01*
G75*
G02*
X152737500Y-99880000I162500J0D01*
G01*
X154387500Y-99880000D01*
G75*
G02*
X154550000Y-100042500I0J-162500D01*
G01*
X154550000Y-100367500D01*
G75*
G02*
X154387500Y-100530000I-162500J0D01*
G01*
X152737500Y-100530000D01*
G75*
G02*
X152575000Y-100367500I0J162500D01*
G01*
G37*
G36*
G01*
X152575000Y-99097500D02*
X152575000Y-98772500D01*
G75*
G02*
X152737500Y-98610000I162500J0D01*
G01*
X154387500Y-98610000D01*
G75*
G02*
X154550000Y-98772500I0J-162500D01*
G01*
X154550000Y-99097500D01*
G75*
G02*
X154387500Y-99260000I-162500J0D01*
G01*
X152737500Y-99260000D01*
G75*
G02*
X152575000Y-99097500I0J162500D01*
G01*
G37*
G36*
G01*
X152575000Y-97827500D02*
X152575000Y-97502500D01*
G75*
G02*
X152737500Y-97340000I162500J0D01*
G01*
X154387500Y-97340000D01*
G75*
G02*
X154550000Y-97502500I0J-162500D01*
G01*
X154550000Y-97827500D01*
G75*
G02*
X154387500Y-97990000I-162500J0D01*
G01*
X152737500Y-97990000D01*
G75*
G02*
X152575000Y-97827500I0J162500D01*
G01*
G37*
G36*
G01*
X152575000Y-96557500D02*
X152575000Y-96232500D01*
G75*
G02*
X152737500Y-96070000I162500J0D01*
G01*
X154387500Y-96070000D01*
G75*
G02*
X154550000Y-96232500I0J-162500D01*
G01*
X154550000Y-96557500D01*
G75*
G02*
X154387500Y-96720000I-162500J0D01*
G01*
X152737500Y-96720000D01*
G75*
G02*
X152575000Y-96557500I0J162500D01*
G01*
G37*
%TD*%
D11*
%TO.C,D3*%
X150050000Y-103300000D03*
X150050000Y-100100000D03*
X145150000Y-103300000D03*
X145150000Y-100100000D03*
%TD*%
%TO.C,D3*%
X145150000Y-93600000D03*
X145150000Y-96800000D03*
X150050000Y-93600000D03*
X150050000Y-96800000D03*
%TD*%
M02*
