%TF.GenerationSoftware,KiCad,Pcbnew,(5.1.6)-1*%
%TF.CreationDate,2020-07-03T21:52:39-04:00*%
%TF.ProjectId,SRF Pendant Daughterboards,53524620-5065-46e6-9461-6e7420446175,rev?*%
%TF.SameCoordinates,Original*%
%TF.FileFunction,Profile,NP*%
%FSLAX46Y46*%
G04 Gerber Fmt 4.6, Leading zero omitted, Abs format (unit mm)*
G04 Created by KiCad (PCBNEW (5.1.6)-1) date 2020-07-03 21:52:39*
%MOMM*%
%LPD*%
G01*
G04 APERTURE LIST*
%TA.AperFunction,Profile*%
%ADD10C,0.050000*%
%TD*%
G04 APERTURE END LIST*
D10*
X152300000Y-95700000D02*
X152400000Y-95700000D01*
X152300000Y-97700000D02*
X152300000Y-99200000D01*
X151000000Y-95700000D02*
X152300000Y-95700000D01*
X151000000Y-97700000D02*
X152300000Y-97700000D01*
X152300000Y-99200000D02*
X151000000Y-99200000D01*
X152300000Y-100800000D02*
X151000000Y-100800000D01*
X152300000Y-100800000D02*
X159600000Y-100800000D01*
X156200000Y-95700000D02*
X152400000Y-95700000D01*
X156500000Y-95400000D02*
X156200000Y-95700000D01*
X156700000Y-95400000D02*
X156500000Y-95400000D01*
X157400000Y-95400000D02*
X156700000Y-95400000D01*
X157400000Y-93200000D02*
X157400000Y-95400000D01*
X159600000Y-93200000D02*
X157400000Y-93200000D01*
X159600000Y-100800000D02*
X159600000Y-93200000D01*
X151000000Y-95700000D02*
X151000000Y-92700000D01*
X144200000Y-97700000D02*
X144200000Y-92700000D01*
X144200000Y-104200000D02*
X144200000Y-99200000D01*
X151000000Y-104200000D02*
X151000000Y-100800000D01*
X147100000Y-97700000D02*
X144200000Y-97700000D01*
X151000000Y-97700000D02*
X147100000Y-97700000D01*
X147100000Y-99200000D02*
X144200000Y-99200000D01*
X151000000Y-99200000D02*
X147100000Y-99200000D01*
X151000000Y-92700000D02*
X144200000Y-92700000D01*
X144200000Y-104200000D02*
X151000000Y-104200000D01*
M02*
