M48
; DRILL file {KiCad (5.1.6)-1} date 06/16/20 20:45:41
; FORMAT={-:-/ absolute / inch / decimal}
; #@! TF.CreationDate,2020-06-16T20:45:41-04:00
; #@! TF.GenerationSoftware,Kicad,Pcbnew,(5.1.6)-1
; #@! TF.FileFunction,Plated,1,4,PTH
FMAT,2
INCH
T1C0.0157
T2C0.0394
T3C0.0591
%
G90
G05
T1
X3.1614Y-4.0
X3.1614Y-4.0866
X3.1614Y-4.2795
X3.1772Y-4.6496
X3.189Y-4.7717
X3.2244Y-5.3976
X3.2283Y-4.1437
X3.2598Y-3.8346
X3.2598Y-4.7717
X3.2677Y-5.5
X3.311Y-4.5394
X3.311Y-4.6496
X3.3189Y-5.5
X3.3465Y-3.937
X3.3543Y-4.5394
X3.3898Y-5.7047
X3.4134Y-4.2835
X3.4134Y-4.3465
X3.5433Y-3.9016
X3.6339Y-4.315
X3.7402Y-4.7638
X3.7402Y-5.5315
X3.8386Y-4.1378
X3.8504Y-3.9252
X3.9055Y-5.2087
X3.9055Y-5.2638
T2
X2.7992Y-4.1732
X2.7Y-3.8622
X2.7Y-3.9622
X2.7Y-4.0622
X2.8Y-3.8622
X2.8Y-3.9622
X2.8Y-4.0622
X2.9409Y-3.8622
X2.9409Y-3.9622
X2.9409Y-4.0622
X2.9409Y-4.1622
X2.9409Y-4.2622
X2.9409Y-4.3622
T3
G00X3.4449Y-4.7205
M15
G01X3.6024Y-4.7205
M16
G05
G00X3.4449Y-5.5866
M15
G01X3.6024Y-5.5866
M16
G05
G00X3.4449Y-3.7205
M15
G01X3.6024Y-3.7205
M16
G05
G00X3.4449Y-4.5866
M15
G01X3.6024Y-4.5866
M16
G05
T0
M30
