G04 #@! TF.GenerationSoftware,KiCad,Pcbnew,(5.1.6)-1*
G04 #@! TF.CreationDate,2020-06-16T20:45:44-04:00*
G04 #@! TF.ProjectId,SRF Pendants,53524620-5065-46e6-9461-6e74732e6b69,rev?*
G04 #@! TF.SameCoordinates,Original*
G04 #@! TF.FileFunction,Soldermask,Top*
G04 #@! TF.FilePolarity,Negative*
%FSLAX46Y46*%
G04 Gerber Fmt 4.6, Leading zero omitted, Abs format (unit mm)*
G04 Created by KiCad (PCBNEW (5.1.6)-1) date 2020-06-16 20:45:44*
%MOMM*%
%LPD*%
G01*
G04 APERTURE LIST*
%ADD10C,0.100000*%
G04 APERTURE END LIST*
D10*
G36*
X93551000Y-148151000D02*
G01*
X92449000Y-148151000D01*
X92449000Y-146049000D01*
X93551000Y-146049000D01*
X93551000Y-148151000D01*
G37*
G36*
X86551000Y-148151000D02*
G01*
X85449000Y-148151000D01*
X85449000Y-146049000D01*
X86551000Y-146049000D01*
X86551000Y-148151000D01*
G37*
G36*
X88051000Y-146401000D02*
G01*
X86949000Y-146401000D01*
X86949000Y-144799000D01*
X88051000Y-144799000D01*
X88051000Y-146401000D01*
G37*
G36*
X90551000Y-146401000D02*
G01*
X89449000Y-146401000D01*
X89449000Y-144799000D01*
X90551000Y-144799000D01*
X90551000Y-146401000D01*
G37*
G36*
X92051000Y-146401000D02*
G01*
X90949000Y-146401000D01*
X90949000Y-144799000D01*
X92051000Y-144799000D01*
X92051000Y-146401000D01*
G37*
G36*
X92551000Y-143451000D02*
G01*
X86449000Y-143451000D01*
X86449000Y-140349000D01*
X92551000Y-140349000D01*
X92551000Y-143451000D01*
G37*
G36*
X92110909Y-122292981D02*
G01*
X93739887Y-122967726D01*
X93739888Y-122967727D01*
X95205930Y-123947304D01*
X96452696Y-125194070D01*
X97107228Y-126173648D01*
X97432274Y-126660113D01*
X98107019Y-128289091D01*
X98451000Y-130018402D01*
X98451000Y-131781598D01*
X98107019Y-133510909D01*
X97432274Y-135139887D01*
X97432273Y-135139888D01*
X96452696Y-136605930D01*
X95205930Y-137852696D01*
X94226352Y-138507228D01*
X93739887Y-138832274D01*
X92110909Y-139507019D01*
X90381598Y-139851000D01*
X88618402Y-139851000D01*
X86889091Y-139507019D01*
X85260113Y-138832274D01*
X84773648Y-138507228D01*
X83794070Y-137852696D01*
X82547304Y-136605930D01*
X81567727Y-135139888D01*
X81567726Y-135139887D01*
X80892981Y-133510909D01*
X80549000Y-131781598D01*
X80549000Y-130018402D01*
X80892981Y-128289091D01*
X81567726Y-126660113D01*
X81892772Y-126173648D01*
X82547304Y-125194070D01*
X83794070Y-123947304D01*
X85260112Y-122967727D01*
X85260113Y-122967726D01*
X86889091Y-122292981D01*
X88618402Y-121949000D01*
X90381598Y-121949000D01*
X92110909Y-122292981D01*
G37*
G36*
X92551000Y-121451000D02*
G01*
X86449000Y-121451000D01*
X86449000Y-118349000D01*
X92551000Y-118349000D01*
X92551000Y-121451000D01*
G37*
G36*
X92551000Y-118051000D02*
G01*
X86449000Y-118051000D01*
X86449000Y-114949000D01*
X92551000Y-114949000D01*
X92551000Y-118051000D01*
G37*
G36*
X92110909Y-96892981D02*
G01*
X93739887Y-97567726D01*
X93739888Y-97567727D01*
X95205930Y-98547304D01*
X96452696Y-99794070D01*
X96996162Y-100607425D01*
X97432274Y-101260113D01*
X98107019Y-102889091D01*
X98451000Y-104618402D01*
X98451000Y-106381598D01*
X98107019Y-108110909D01*
X97432274Y-109739887D01*
X97366852Y-109837798D01*
X96452696Y-111205930D01*
X95205930Y-112452696D01*
X94226352Y-113107228D01*
X93739887Y-113432274D01*
X92110909Y-114107019D01*
X90381598Y-114451000D01*
X88618402Y-114451000D01*
X86889091Y-114107019D01*
X85260113Y-113432274D01*
X84773648Y-113107228D01*
X83794070Y-112452696D01*
X82547304Y-111205930D01*
X81633148Y-109837798D01*
X81567726Y-109739887D01*
X80892981Y-108110909D01*
X80549000Y-106381598D01*
X80549000Y-104618402D01*
X80892981Y-102889091D01*
X81567726Y-101260113D01*
X82003838Y-100607425D01*
X82547304Y-99794070D01*
X83794070Y-98547304D01*
X85260112Y-97567727D01*
X85260113Y-97567726D01*
X86889091Y-96892981D01*
X88618402Y-96549000D01*
X90381598Y-96549000D01*
X92110909Y-96892981D01*
G37*
G36*
X74813512Y-109903927D02*
G01*
X74962812Y-109933624D01*
X75126784Y-110001544D01*
X75274354Y-110100147D01*
X75399853Y-110225646D01*
X75498456Y-110373216D01*
X75566376Y-110537188D01*
X75601000Y-110711259D01*
X75601000Y-110888741D01*
X75566376Y-111062812D01*
X75498456Y-111226784D01*
X75399853Y-111374354D01*
X75274354Y-111499853D01*
X75126784Y-111598456D01*
X74962812Y-111666376D01*
X74813512Y-111696073D01*
X74788742Y-111701000D01*
X74611258Y-111701000D01*
X74586488Y-111696073D01*
X74437188Y-111666376D01*
X74273216Y-111598456D01*
X74125646Y-111499853D01*
X74000147Y-111374354D01*
X73901544Y-111226784D01*
X73833624Y-111062812D01*
X73799000Y-110888741D01*
X73799000Y-110711259D01*
X73833624Y-110537188D01*
X73901544Y-110373216D01*
X74000147Y-110225646D01*
X74125646Y-110100147D01*
X74273216Y-110001544D01*
X74437188Y-109933624D01*
X74586488Y-109903927D01*
X74611258Y-109899000D01*
X74788742Y-109899000D01*
X74813512Y-109903927D01*
G37*
G36*
X79087797Y-110960567D02*
G01*
X79142575Y-110983257D01*
X79142577Y-110983258D01*
X79191876Y-111016198D01*
X79233802Y-111058124D01*
X79236934Y-111062812D01*
X79266743Y-111107425D01*
X79289433Y-111162203D01*
X79301000Y-111220353D01*
X79301000Y-111279647D01*
X79289433Y-111337797D01*
X79274291Y-111374353D01*
X79266742Y-111392577D01*
X79233802Y-111441876D01*
X79191876Y-111483802D01*
X79142577Y-111516742D01*
X79142576Y-111516743D01*
X79142575Y-111516743D01*
X79087797Y-111539433D01*
X79029647Y-111551000D01*
X78970353Y-111551000D01*
X78912203Y-111539433D01*
X78857425Y-111516743D01*
X78857424Y-111516743D01*
X78857423Y-111516742D01*
X78808124Y-111483802D01*
X78766198Y-111441876D01*
X78733258Y-111392577D01*
X78725709Y-111374353D01*
X78710567Y-111337797D01*
X78699000Y-111279647D01*
X78699000Y-111220353D01*
X78710567Y-111162203D01*
X78733257Y-111107425D01*
X78763066Y-111062812D01*
X78766198Y-111058124D01*
X78808124Y-111016198D01*
X78857423Y-110983258D01*
X78857425Y-110983257D01*
X78912203Y-110960567D01*
X78970353Y-110949000D01*
X79029647Y-110949000D01*
X79087797Y-110960567D01*
G37*
G36*
X79087797Y-109460567D02*
G01*
X79142575Y-109483257D01*
X79142577Y-109483258D01*
X79191876Y-109516198D01*
X79233802Y-109558124D01*
X79266742Y-109607423D01*
X79266743Y-109607425D01*
X79289433Y-109662203D01*
X79301000Y-109720353D01*
X79301000Y-109779647D01*
X79289433Y-109837797D01*
X79266743Y-109892575D01*
X79266742Y-109892577D01*
X79233802Y-109941876D01*
X79191876Y-109983802D01*
X79142577Y-110016742D01*
X79142576Y-110016743D01*
X79142575Y-110016743D01*
X79087797Y-110039433D01*
X79029647Y-110051000D01*
X78970353Y-110051000D01*
X78912203Y-110039433D01*
X78857425Y-110016743D01*
X78857424Y-110016743D01*
X78857423Y-110016742D01*
X78808124Y-109983802D01*
X78766198Y-109941876D01*
X78733258Y-109892577D01*
X78733257Y-109892575D01*
X78710567Y-109837797D01*
X78699000Y-109779647D01*
X78699000Y-109720353D01*
X78710567Y-109662203D01*
X78733257Y-109607425D01*
X78733258Y-109607423D01*
X78766198Y-109558124D01*
X78808124Y-109516198D01*
X78857423Y-109483258D01*
X78857425Y-109483257D01*
X78912203Y-109460567D01*
X78970353Y-109449000D01*
X79029647Y-109449000D01*
X79087797Y-109460567D01*
G37*
G36*
X74813512Y-107363927D02*
G01*
X74962812Y-107393624D01*
X75126784Y-107461544D01*
X75274354Y-107560147D01*
X75399853Y-107685646D01*
X75498456Y-107833216D01*
X75566376Y-107997188D01*
X75588303Y-108107425D01*
X75599199Y-108162202D01*
X75601000Y-108171259D01*
X75601000Y-108348741D01*
X75566376Y-108522812D01*
X75498456Y-108686784D01*
X75399853Y-108834354D01*
X75274354Y-108959853D01*
X75126784Y-109058456D01*
X74962812Y-109126376D01*
X74813512Y-109156073D01*
X74788742Y-109161000D01*
X74611258Y-109161000D01*
X74586488Y-109156073D01*
X74437188Y-109126376D01*
X74273216Y-109058456D01*
X74125646Y-108959853D01*
X74000147Y-108834354D01*
X73901544Y-108686784D01*
X73833624Y-108522812D01*
X73799000Y-108348741D01*
X73799000Y-108171259D01*
X73800802Y-108162202D01*
X73811697Y-108107425D01*
X73833624Y-107997188D01*
X73901544Y-107833216D01*
X74000147Y-107685646D01*
X74125646Y-107560147D01*
X74273216Y-107461544D01*
X74437188Y-107393624D01*
X74586488Y-107363927D01*
X74611258Y-107359000D01*
X74788742Y-107359000D01*
X74813512Y-107363927D01*
G37*
G36*
X79087797Y-107960567D02*
G01*
X79142575Y-107983257D01*
X79142577Y-107983258D01*
X79191876Y-108016198D01*
X79233802Y-108058124D01*
X79266742Y-108107423D01*
X79266743Y-108107425D01*
X79289433Y-108162203D01*
X79301000Y-108220353D01*
X79301000Y-108279647D01*
X79289433Y-108337797D01*
X79284899Y-108348742D01*
X79266742Y-108392577D01*
X79233802Y-108441876D01*
X79191876Y-108483802D01*
X79142577Y-108516742D01*
X79142576Y-108516743D01*
X79142575Y-108516743D01*
X79087797Y-108539433D01*
X79029647Y-108551000D01*
X78970353Y-108551000D01*
X78912203Y-108539433D01*
X78857425Y-108516743D01*
X78857424Y-108516743D01*
X78857423Y-108516742D01*
X78808124Y-108483802D01*
X78766198Y-108441876D01*
X78733258Y-108392577D01*
X78715101Y-108348742D01*
X78710567Y-108337797D01*
X78699000Y-108279647D01*
X78699000Y-108220353D01*
X78710567Y-108162203D01*
X78733257Y-108107425D01*
X78733258Y-108107423D01*
X78766198Y-108058124D01*
X78808124Y-108016198D01*
X78857423Y-107983258D01*
X78857425Y-107983257D01*
X78912203Y-107960567D01*
X78970353Y-107949000D01*
X79029647Y-107949000D01*
X79087797Y-107960567D01*
G37*
G36*
X79087797Y-106460567D02*
G01*
X79142575Y-106483257D01*
X79142577Y-106483258D01*
X79191876Y-106516198D01*
X79233802Y-106558124D01*
X79252678Y-106586375D01*
X79266743Y-106607425D01*
X79289433Y-106662203D01*
X79301000Y-106720353D01*
X79301000Y-106779647D01*
X79289433Y-106837797D01*
X79266743Y-106892575D01*
X79266742Y-106892577D01*
X79233802Y-106941876D01*
X79191876Y-106983802D01*
X79142577Y-107016742D01*
X79142576Y-107016743D01*
X79142575Y-107016743D01*
X79087797Y-107039433D01*
X79029647Y-107051000D01*
X78970353Y-107051000D01*
X78912203Y-107039433D01*
X78857425Y-107016743D01*
X78857424Y-107016743D01*
X78857423Y-107016742D01*
X78808124Y-106983802D01*
X78766198Y-106941876D01*
X78733258Y-106892577D01*
X78733257Y-106892575D01*
X78710567Y-106837797D01*
X78699000Y-106779647D01*
X78699000Y-106720353D01*
X78710567Y-106662203D01*
X78733257Y-106607425D01*
X78747322Y-106586375D01*
X78766198Y-106558124D01*
X78808124Y-106516198D01*
X78857423Y-106483258D01*
X78857425Y-106483257D01*
X78912203Y-106460567D01*
X78970353Y-106449000D01*
X79029647Y-106449000D01*
X79087797Y-106460567D01*
G37*
G36*
X72001000Y-106901000D02*
G01*
X70199000Y-106901000D01*
X70199000Y-105099000D01*
X72001000Y-105099000D01*
X72001000Y-106901000D01*
G37*
G36*
X74813512Y-104823927D02*
G01*
X74962812Y-104853624D01*
X75126784Y-104921544D01*
X75274354Y-105020147D01*
X75399853Y-105145646D01*
X75498456Y-105293216D01*
X75566376Y-105457188D01*
X75601000Y-105631259D01*
X75601000Y-105808741D01*
X75566376Y-105982812D01*
X75498456Y-106146784D01*
X75399853Y-106294354D01*
X75274354Y-106419853D01*
X75126784Y-106518456D01*
X74962812Y-106586376D01*
X74813512Y-106616073D01*
X74788742Y-106621000D01*
X74611258Y-106621000D01*
X74586488Y-106616073D01*
X74437188Y-106586376D01*
X74273216Y-106518456D01*
X74125646Y-106419853D01*
X74000147Y-106294354D01*
X73901544Y-106146784D01*
X73833624Y-105982812D01*
X73799000Y-105808741D01*
X73799000Y-105631259D01*
X73833624Y-105457188D01*
X73901544Y-105293216D01*
X74000147Y-105145646D01*
X74125646Y-105020147D01*
X74273216Y-104921544D01*
X74437188Y-104853624D01*
X74586488Y-104823927D01*
X74611258Y-104819000D01*
X74788742Y-104819000D01*
X74813512Y-104823927D01*
G37*
G36*
X79087797Y-104960567D02*
G01*
X79142575Y-104983257D01*
X79142577Y-104983258D01*
X79191876Y-105016198D01*
X79233802Y-105058124D01*
X79261114Y-105099000D01*
X79266743Y-105107425D01*
X79289433Y-105162203D01*
X79301000Y-105220353D01*
X79301000Y-105279647D01*
X79289433Y-105337797D01*
X79266743Y-105392575D01*
X79266742Y-105392577D01*
X79233802Y-105441876D01*
X79191876Y-105483802D01*
X79142577Y-105516742D01*
X79142576Y-105516743D01*
X79142575Y-105516743D01*
X79087797Y-105539433D01*
X79029647Y-105551000D01*
X78970353Y-105551000D01*
X78912203Y-105539433D01*
X78857425Y-105516743D01*
X78857424Y-105516743D01*
X78857423Y-105516742D01*
X78808124Y-105483802D01*
X78766198Y-105441876D01*
X78733258Y-105392577D01*
X78733257Y-105392575D01*
X78710567Y-105337797D01*
X78699000Y-105279647D01*
X78699000Y-105220353D01*
X78710567Y-105162203D01*
X78733257Y-105107425D01*
X78738886Y-105099000D01*
X78766198Y-105058124D01*
X78808124Y-105016198D01*
X78857423Y-104983258D01*
X78857425Y-104983257D01*
X78912203Y-104960567D01*
X78970353Y-104949000D01*
X79029647Y-104949000D01*
X79087797Y-104960567D01*
G37*
G36*
X68693512Y-102283927D02*
G01*
X68842812Y-102313624D01*
X69006784Y-102381544D01*
X69154354Y-102480147D01*
X69279853Y-102605646D01*
X69378456Y-102753216D01*
X69446376Y-102917188D01*
X69481000Y-103091259D01*
X69481000Y-103268741D01*
X69446376Y-103442812D01*
X69378456Y-103606784D01*
X69279853Y-103754354D01*
X69154354Y-103879853D01*
X69006784Y-103978456D01*
X68842812Y-104046376D01*
X68693512Y-104076073D01*
X68668742Y-104081000D01*
X68491258Y-104081000D01*
X68466488Y-104076073D01*
X68317188Y-104046376D01*
X68153216Y-103978456D01*
X68005646Y-103879853D01*
X67880147Y-103754354D01*
X67781544Y-103606784D01*
X67713624Y-103442812D01*
X67679000Y-103268741D01*
X67679000Y-103091259D01*
X67713624Y-102917188D01*
X67781544Y-102753216D01*
X67880147Y-102605646D01*
X68005646Y-102480147D01*
X68153216Y-102381544D01*
X68317188Y-102313624D01*
X68466488Y-102283927D01*
X68491258Y-102279000D01*
X68668742Y-102279000D01*
X68693512Y-102283927D01*
G37*
G36*
X71233512Y-102283927D02*
G01*
X71382812Y-102313624D01*
X71546784Y-102381544D01*
X71694354Y-102480147D01*
X71819853Y-102605646D01*
X71918456Y-102753216D01*
X71986376Y-102917188D01*
X72021000Y-103091259D01*
X72021000Y-103268741D01*
X71986376Y-103442812D01*
X71918456Y-103606784D01*
X71819853Y-103754354D01*
X71694354Y-103879853D01*
X71546784Y-103978456D01*
X71382812Y-104046376D01*
X71233512Y-104076073D01*
X71208742Y-104081000D01*
X71031258Y-104081000D01*
X71006488Y-104076073D01*
X70857188Y-104046376D01*
X70693216Y-103978456D01*
X70545646Y-103879853D01*
X70420147Y-103754354D01*
X70321544Y-103606784D01*
X70253624Y-103442812D01*
X70219000Y-103268741D01*
X70219000Y-103091259D01*
X70253624Y-102917188D01*
X70321544Y-102753216D01*
X70420147Y-102605646D01*
X70545646Y-102480147D01*
X70693216Y-102381544D01*
X70857188Y-102313624D01*
X71006488Y-102283927D01*
X71031258Y-102279000D01*
X71208742Y-102279000D01*
X71233512Y-102283927D01*
G37*
G36*
X75601000Y-104081000D02*
G01*
X73799000Y-104081000D01*
X73799000Y-102279000D01*
X75601000Y-102279000D01*
X75601000Y-104081000D01*
G37*
G36*
X79087797Y-103460567D02*
G01*
X79142575Y-103483257D01*
X79142577Y-103483258D01*
X79191876Y-103516198D01*
X79233802Y-103558124D01*
X79266315Y-103606784D01*
X79266743Y-103607425D01*
X79289433Y-103662203D01*
X79301000Y-103720353D01*
X79301000Y-103779647D01*
X79289433Y-103837797D01*
X79266743Y-103892575D01*
X79266742Y-103892577D01*
X79233802Y-103941876D01*
X79191876Y-103983802D01*
X79142577Y-104016742D01*
X79142576Y-104016743D01*
X79142575Y-104016743D01*
X79087797Y-104039433D01*
X79029647Y-104051000D01*
X78970353Y-104051000D01*
X78912203Y-104039433D01*
X78857425Y-104016743D01*
X78857424Y-104016743D01*
X78857423Y-104016742D01*
X78808124Y-103983802D01*
X78766198Y-103941876D01*
X78733258Y-103892577D01*
X78733257Y-103892575D01*
X78710567Y-103837797D01*
X78699000Y-103779647D01*
X78699000Y-103720353D01*
X78710567Y-103662203D01*
X78733257Y-103607425D01*
X78733685Y-103606784D01*
X78766198Y-103558124D01*
X78808124Y-103516198D01*
X78857423Y-103483258D01*
X78857425Y-103483257D01*
X78912203Y-103460567D01*
X78970353Y-103449000D01*
X79029647Y-103449000D01*
X79087797Y-103460567D01*
G37*
G36*
X79087797Y-101960567D02*
G01*
X79142575Y-101983257D01*
X79142577Y-101983258D01*
X79191876Y-102016198D01*
X79233802Y-102058124D01*
X79266742Y-102107423D01*
X79266743Y-102107425D01*
X79289433Y-102162203D01*
X79301000Y-102220353D01*
X79301000Y-102279647D01*
X79289433Y-102337797D01*
X79271312Y-102381544D01*
X79266742Y-102392577D01*
X79233802Y-102441876D01*
X79191876Y-102483802D01*
X79142577Y-102516742D01*
X79142576Y-102516743D01*
X79142575Y-102516743D01*
X79087797Y-102539433D01*
X79029647Y-102551000D01*
X78970353Y-102551000D01*
X78912203Y-102539433D01*
X78857425Y-102516743D01*
X78857424Y-102516743D01*
X78857423Y-102516742D01*
X78808124Y-102483802D01*
X78766198Y-102441876D01*
X78733258Y-102392577D01*
X78728688Y-102381544D01*
X78710567Y-102337797D01*
X78699000Y-102279647D01*
X78699000Y-102220353D01*
X78710567Y-102162203D01*
X78733257Y-102107425D01*
X78733258Y-102107423D01*
X78766198Y-102058124D01*
X78808124Y-102016198D01*
X78857423Y-101983258D01*
X78857425Y-101983257D01*
X78912203Y-101960567D01*
X78970353Y-101949000D01*
X79029647Y-101949000D01*
X79087797Y-101960567D01*
G37*
G36*
X74813512Y-99743927D02*
G01*
X74962812Y-99773624D01*
X75126784Y-99841544D01*
X75274354Y-99940147D01*
X75399853Y-100065646D01*
X75498456Y-100213216D01*
X75566376Y-100377188D01*
X75601000Y-100551259D01*
X75601000Y-100728741D01*
X75566376Y-100902812D01*
X75498456Y-101066784D01*
X75399853Y-101214354D01*
X75274354Y-101339853D01*
X75126784Y-101438456D01*
X74962812Y-101506376D01*
X74813512Y-101536073D01*
X74788742Y-101541000D01*
X74611258Y-101541000D01*
X74586488Y-101536073D01*
X74437188Y-101506376D01*
X74273216Y-101438456D01*
X74125646Y-101339853D01*
X74000147Y-101214354D01*
X73901544Y-101066784D01*
X73833624Y-100902812D01*
X73799000Y-100728741D01*
X73799000Y-100551259D01*
X73833624Y-100377188D01*
X73901544Y-100213216D01*
X74000147Y-100065646D01*
X74125646Y-99940147D01*
X74273216Y-99841544D01*
X74437188Y-99773624D01*
X74586488Y-99743927D01*
X74611258Y-99739000D01*
X74788742Y-99739000D01*
X74813512Y-99743927D01*
G37*
G36*
X68693512Y-99743927D02*
G01*
X68842812Y-99773624D01*
X69006784Y-99841544D01*
X69154354Y-99940147D01*
X69279853Y-100065646D01*
X69378456Y-100213216D01*
X69446376Y-100377188D01*
X69481000Y-100551259D01*
X69481000Y-100728741D01*
X69446376Y-100902812D01*
X69378456Y-101066784D01*
X69279853Y-101214354D01*
X69154354Y-101339853D01*
X69006784Y-101438456D01*
X68842812Y-101506376D01*
X68693512Y-101536073D01*
X68668742Y-101541000D01*
X68491258Y-101541000D01*
X68466488Y-101536073D01*
X68317188Y-101506376D01*
X68153216Y-101438456D01*
X68005646Y-101339853D01*
X67880147Y-101214354D01*
X67781544Y-101066784D01*
X67713624Y-100902812D01*
X67679000Y-100728741D01*
X67679000Y-100551259D01*
X67713624Y-100377188D01*
X67781544Y-100213216D01*
X67880147Y-100065646D01*
X68005646Y-99940147D01*
X68153216Y-99841544D01*
X68317188Y-99773624D01*
X68466488Y-99743927D01*
X68491258Y-99739000D01*
X68668742Y-99739000D01*
X68693512Y-99743927D01*
G37*
G36*
X71233512Y-99743927D02*
G01*
X71382812Y-99773624D01*
X71546784Y-99841544D01*
X71694354Y-99940147D01*
X71819853Y-100065646D01*
X71918456Y-100213216D01*
X71986376Y-100377188D01*
X72021000Y-100551259D01*
X72021000Y-100728741D01*
X71986376Y-100902812D01*
X71918456Y-101066784D01*
X71819853Y-101214354D01*
X71694354Y-101339853D01*
X71546784Y-101438456D01*
X71382812Y-101506376D01*
X71233512Y-101536073D01*
X71208742Y-101541000D01*
X71031258Y-101541000D01*
X71006488Y-101536073D01*
X70857188Y-101506376D01*
X70693216Y-101438456D01*
X70545646Y-101339853D01*
X70420147Y-101214354D01*
X70321544Y-101066784D01*
X70253624Y-100902812D01*
X70219000Y-100728741D01*
X70219000Y-100551259D01*
X70253624Y-100377188D01*
X70321544Y-100213216D01*
X70420147Y-100065646D01*
X70545646Y-99940147D01*
X70693216Y-99841544D01*
X70857188Y-99773624D01*
X71006488Y-99743927D01*
X71031258Y-99739000D01*
X71208742Y-99739000D01*
X71233512Y-99743927D01*
G37*
G36*
X79087797Y-100460567D02*
G01*
X79142575Y-100483257D01*
X79142577Y-100483258D01*
X79191876Y-100516198D01*
X79233802Y-100558124D01*
X79266742Y-100607423D01*
X79266743Y-100607425D01*
X79289433Y-100662203D01*
X79301000Y-100720353D01*
X79301000Y-100779647D01*
X79289433Y-100837797D01*
X79266743Y-100892575D01*
X79266742Y-100892577D01*
X79233802Y-100941876D01*
X79191876Y-100983802D01*
X79142577Y-101016742D01*
X79142576Y-101016743D01*
X79142575Y-101016743D01*
X79087797Y-101039433D01*
X79029647Y-101051000D01*
X78970353Y-101051000D01*
X78912203Y-101039433D01*
X78857425Y-101016743D01*
X78857424Y-101016743D01*
X78857423Y-101016742D01*
X78808124Y-100983802D01*
X78766198Y-100941876D01*
X78733258Y-100892577D01*
X78733257Y-100892575D01*
X78710567Y-100837797D01*
X78699000Y-100779647D01*
X78699000Y-100720353D01*
X78710567Y-100662203D01*
X78733257Y-100607425D01*
X78733258Y-100607423D01*
X78766198Y-100558124D01*
X78808124Y-100516198D01*
X78857423Y-100483258D01*
X78857425Y-100483257D01*
X78912203Y-100460567D01*
X78970353Y-100449000D01*
X79029647Y-100449000D01*
X79087797Y-100460567D01*
G37*
G36*
X79087797Y-98960567D02*
G01*
X79142575Y-98983257D01*
X79142577Y-98983258D01*
X79191876Y-99016198D01*
X79233802Y-99058124D01*
X79266742Y-99107423D01*
X79266743Y-99107425D01*
X79289433Y-99162203D01*
X79301000Y-99220353D01*
X79301000Y-99279647D01*
X79289433Y-99337797D01*
X79266743Y-99392575D01*
X79266742Y-99392577D01*
X79233802Y-99441876D01*
X79191876Y-99483802D01*
X79142577Y-99516742D01*
X79142576Y-99516743D01*
X79142575Y-99516743D01*
X79087797Y-99539433D01*
X79029647Y-99551000D01*
X78970353Y-99551000D01*
X78912203Y-99539433D01*
X78857425Y-99516743D01*
X78857424Y-99516743D01*
X78857423Y-99516742D01*
X78808124Y-99483802D01*
X78766198Y-99441876D01*
X78733258Y-99392577D01*
X78733257Y-99392575D01*
X78710567Y-99337797D01*
X78699000Y-99279647D01*
X78699000Y-99220353D01*
X78710567Y-99162203D01*
X78733257Y-99107425D01*
X78733258Y-99107423D01*
X78766198Y-99058124D01*
X78808124Y-99016198D01*
X78857423Y-98983258D01*
X78857425Y-98983257D01*
X78912203Y-98960567D01*
X78970353Y-98949000D01*
X79029647Y-98949000D01*
X79087797Y-98960567D01*
G37*
G36*
X74813512Y-97203927D02*
G01*
X74962812Y-97233624D01*
X75126784Y-97301544D01*
X75274354Y-97400147D01*
X75399853Y-97525646D01*
X75498456Y-97673216D01*
X75566376Y-97837188D01*
X75601000Y-98011259D01*
X75601000Y-98188741D01*
X75566376Y-98362812D01*
X75498456Y-98526784D01*
X75399853Y-98674354D01*
X75274354Y-98799853D01*
X75126784Y-98898456D01*
X74962812Y-98966376D01*
X74813512Y-98996073D01*
X74788742Y-99001000D01*
X74611258Y-99001000D01*
X74586488Y-98996073D01*
X74437188Y-98966376D01*
X74273216Y-98898456D01*
X74125646Y-98799853D01*
X74000147Y-98674354D01*
X73901544Y-98526784D01*
X73833624Y-98362812D01*
X73799000Y-98188741D01*
X73799000Y-98011259D01*
X73833624Y-97837188D01*
X73901544Y-97673216D01*
X74000147Y-97525646D01*
X74125646Y-97400147D01*
X74273216Y-97301544D01*
X74437188Y-97233624D01*
X74586488Y-97203927D01*
X74611258Y-97199000D01*
X74788742Y-97199000D01*
X74813512Y-97203927D01*
G37*
G36*
X72021000Y-99001000D02*
G01*
X70219000Y-99001000D01*
X70219000Y-97199000D01*
X72021000Y-97199000D01*
X72021000Y-99001000D01*
G37*
G36*
X68693512Y-97203927D02*
G01*
X68842812Y-97233624D01*
X69006784Y-97301544D01*
X69154354Y-97400147D01*
X69279853Y-97525646D01*
X69378456Y-97673216D01*
X69446376Y-97837188D01*
X69481000Y-98011259D01*
X69481000Y-98188741D01*
X69446376Y-98362812D01*
X69378456Y-98526784D01*
X69279853Y-98674354D01*
X69154354Y-98799853D01*
X69006784Y-98898456D01*
X68842812Y-98966376D01*
X68693512Y-98996073D01*
X68668742Y-99001000D01*
X68491258Y-99001000D01*
X68466488Y-98996073D01*
X68317188Y-98966376D01*
X68153216Y-98898456D01*
X68005646Y-98799853D01*
X67880147Y-98674354D01*
X67781544Y-98526784D01*
X67713624Y-98362812D01*
X67679000Y-98188741D01*
X67679000Y-98011259D01*
X67713624Y-97837188D01*
X67781544Y-97673216D01*
X67880147Y-97525646D01*
X68005646Y-97400147D01*
X68153216Y-97301544D01*
X68317188Y-97233624D01*
X68466488Y-97203927D01*
X68491258Y-97199000D01*
X68668742Y-97199000D01*
X68693512Y-97203927D01*
G37*
G36*
X92551000Y-96051000D02*
G01*
X86449000Y-96051000D01*
X86449000Y-92949000D01*
X92551000Y-92949000D01*
X92551000Y-96051000D01*
G37*
M02*
