G04 #@! TF.GenerationSoftware,KiCad,Pcbnew,(5.1.6)-1*
G04 #@! TF.CreationDate,2020-06-16T20:45:44-04:00*
G04 #@! TF.ProjectId,SRF Pendants,53524620-5065-46e6-9461-6e74732e6b69,rev?*
G04 #@! TF.SameCoordinates,Original*
G04 #@! TF.FileFunction,Copper,L1,Top*
G04 #@! TF.FilePolarity,Positive*
%FSLAX46Y46*%
G04 Gerber Fmt 4.6, Leading zero omitted, Abs format (unit mm)*
G04 Created by KiCad (PCBNEW (5.1.6)-1) date 2020-06-16 20:45:44*
%MOMM*%
%LPD*%
G01*
G04 APERTURE LIST*
G04 #@! TA.AperFunction,ComponentPad*
%ADD10R,6.000000X3.000000*%
G04 #@! TD*
G04 #@! TA.AperFunction,SMDPad,CuDef*
%ADD11C,17.800000*%
G04 #@! TD*
G04 #@! TA.AperFunction,ComponentPad*
%ADD12R,1.700000X1.700000*%
G04 #@! TD*
G04 #@! TA.AperFunction,ComponentPad*
%ADD13C,1.700000*%
G04 #@! TD*
G04 #@! TA.AperFunction,ComponentPad*
%ADD14O,1.700000X1.700000*%
G04 #@! TD*
G04 #@! TA.AperFunction,SMDPad,CuDef*
%ADD15R,1.000000X2.000000*%
G04 #@! TD*
G04 #@! TA.AperFunction,SMDPad,CuDef*
%ADD16R,1.000000X1.500000*%
G04 #@! TD*
G04 #@! TA.AperFunction,ViaPad*
%ADD17C,0.800000*%
G04 #@! TD*
G04 #@! TA.AperFunction,Conductor*
%ADD18C,0.500000*%
G04 #@! TD*
G04 #@! TA.AperFunction,Conductor*
%ADD19C,1.000000*%
G04 #@! TD*
G04 APERTURE END LIST*
D10*
X89500000Y-94500000D03*
X89500000Y-116500000D03*
D11*
X89500000Y-105500000D03*
D10*
X89500000Y-119900000D03*
X89500000Y-141900000D03*
D11*
X89500000Y-130900000D03*
D12*
X71100000Y-106000000D03*
D13*
X68580000Y-98100000D03*
D12*
X71120000Y-98100000D03*
D14*
X68580000Y-100640000D03*
X71120000Y-100640000D03*
X68580000Y-103180000D03*
X71120000Y-103180000D03*
D13*
X74700000Y-98100000D03*
D14*
X74700000Y-100640000D03*
D12*
X74700000Y-103180000D03*
D14*
X74700000Y-105720000D03*
X74700000Y-108260000D03*
X74700000Y-110800000D03*
D15*
X86000000Y-147100000D03*
X93000000Y-147100000D03*
D16*
X91500000Y-145600000D03*
X90000000Y-145600000D03*
X87500000Y-145600000D03*
D17*
X80700000Y-118100000D03*
X97500000Y-105100000D03*
X82000000Y-105250000D03*
X85000000Y-100000000D03*
X90000000Y-99100000D03*
X86700000Y-108800000D03*
X86700000Y-110400000D03*
X92300000Y-109600000D03*
X81900000Y-137100000D03*
X95000000Y-140500000D03*
X99200000Y-132300000D03*
X83000000Y-139700000D03*
X81000000Y-121200000D03*
X80300000Y-108700000D03*
X99200000Y-133700000D03*
X95000000Y-121000000D03*
X80300000Y-103800000D03*
X97800000Y-99700000D03*
X84100000Y-118100000D03*
X86100000Y-144900000D03*
X84300000Y-139700000D03*
X80300000Y-101600000D03*
X82800000Y-97400000D03*
X82800000Y-121200000D03*
X85200000Y-115300000D03*
X84100000Y-115300000D03*
D18*
X85000000Y-100000000D02*
X85500000Y-100500000D01*
X85500000Y-100500000D02*
X91500000Y-100500000D01*
X91500000Y-100500000D02*
X93500000Y-100500000D01*
X86536409Y-110026295D02*
X87062704Y-109500000D01*
X92500000Y-109500000D02*
X93000000Y-110000000D01*
D19*
X84100000Y-118100000D02*
X80700000Y-118100000D01*
D18*
X89500000Y-145100000D02*
X90000000Y-145600000D01*
X89500000Y-141900000D02*
X89500000Y-145100000D01*
X86800000Y-145600000D02*
X86100000Y-144900000D01*
X87500000Y-145600000D02*
X86800000Y-145600000D01*
D19*
X85799999Y-127799999D02*
X89500000Y-131500000D01*
X89500000Y-116500000D02*
X88000000Y-116500000D01*
D18*
X86049999Y-127449999D02*
X89500000Y-130900000D01*
X89500000Y-116500000D02*
X87589998Y-116500000D01*
D19*
X85799999Y-127199999D02*
X89500000Y-130900000D01*
X85799999Y-117839999D02*
X85799999Y-127199999D01*
X87139998Y-116500000D02*
X85799999Y-117839999D01*
X89500000Y-116500000D02*
X87139998Y-116500000D01*
M02*
