G04 #@! TF.GenerationSoftware,KiCad,Pcbnew,(5.1.6)-1*
G04 #@! TF.CreationDate,2020-06-16T20:45:44-04:00*
G04 #@! TF.ProjectId,SRF Pendants,53524620-5065-46e6-9461-6e74732e6b69,rev?*
G04 #@! TF.SameCoordinates,Original*
G04 #@! TF.FileFunction,Copper,L4,Bot*
G04 #@! TF.FilePolarity,Positive*
%FSLAX46Y46*%
G04 Gerber Fmt 4.6, Leading zero omitted, Abs format (unit mm)*
G04 Created by KiCad (PCBNEW (5.1.6)-1) date 2020-06-16 20:45:44*
%MOMM*%
%LPD*%
G01*
G04 APERTURE LIST*
G04 #@! TA.AperFunction,ComponentPad*
%ADD10R,6.000000X3.000000*%
G04 #@! TD*
G04 #@! TA.AperFunction,ComponentPad*
%ADD11R,1.700000X1.700000*%
G04 #@! TD*
G04 #@! TA.AperFunction,SMDPad,CuDef*
%ADD12R,0.350000X0.375000*%
G04 #@! TD*
G04 #@! TA.AperFunction,SMDPad,CuDef*
%ADD13R,0.400000X2.100000*%
G04 #@! TD*
G04 #@! TA.AperFunction,SMDPad,CuDef*
%ADD14R,1.500000X1.100000*%
G04 #@! TD*
G04 #@! TA.AperFunction,SMDPad,CuDef*
%ADD15R,1.500000X1.000000*%
G04 #@! TD*
G04 #@! TA.AperFunction,ComponentPad*
%ADD16C,1.700000*%
G04 #@! TD*
G04 #@! TA.AperFunction,ComponentPad*
%ADD17O,1.700000X1.700000*%
G04 #@! TD*
G04 #@! TA.AperFunction,SMDPad,CuDef*
%ADD18C,2.000000*%
G04 #@! TD*
G04 #@! TA.AperFunction,SMDPad,CuDef*
%ADD19R,0.550000X1.000000*%
G04 #@! TD*
G04 #@! TA.AperFunction,SMDPad,CuDef*
%ADD20R,0.550000X1.600000*%
G04 #@! TD*
G04 #@! TA.AperFunction,SMDPad,CuDef*
%ADD21R,1.600000X0.550000*%
G04 #@! TD*
G04 #@! TA.AperFunction,ViaPad*
%ADD22C,0.800000*%
G04 #@! TD*
G04 #@! TA.AperFunction,Conductor*
%ADD23C,0.500000*%
G04 #@! TD*
G04 #@! TA.AperFunction,Conductor*
%ADD24C,0.350000*%
G04 #@! TD*
G04 #@! TA.AperFunction,Conductor*
%ADD25C,0.250000*%
G04 #@! TD*
G04 APERTURE END LIST*
D10*
X89500000Y-94500000D03*
X89500000Y-116500000D03*
X89500000Y-119900000D03*
X89500000Y-141900000D03*
D11*
X71100000Y-106000000D03*
D12*
X95350000Y-135562500D03*
X95900000Y-135562500D03*
X96450000Y-135562500D03*
X96450000Y-137437500D03*
X95900000Y-137437500D03*
X95350000Y-137437500D03*
D13*
X94650000Y-136500000D03*
X97150000Y-136500000D03*
D14*
X95900000Y-136500000D03*
G04 #@! TA.AperFunction,SMDPad,CuDef*
G36*
G01*
X96575000Y-134325000D02*
X96575000Y-133075000D01*
G75*
G02*
X96825000Y-132825000I250000J0D01*
G01*
X97575000Y-132825000D01*
G75*
G02*
X97825000Y-133075000I0J-250000D01*
G01*
X97825000Y-134325000D01*
G75*
G02*
X97575000Y-134575000I-250000J0D01*
G01*
X96825000Y-134575000D01*
G75*
G02*
X96575000Y-134325000I0J250000D01*
G01*
G37*
G04 #@! TD.AperFunction*
G04 #@! TA.AperFunction,SMDPad,CuDef*
G36*
G01*
X93775000Y-134325000D02*
X93775000Y-133075000D01*
G75*
G02*
X94025000Y-132825000I250000J0D01*
G01*
X94775000Y-132825000D01*
G75*
G02*
X95025000Y-133075000I0J-250000D01*
G01*
X95025000Y-134325000D01*
G75*
G02*
X94775000Y-134575000I-250000J0D01*
G01*
X94025000Y-134575000D01*
G75*
G02*
X93775000Y-134325000I0J250000D01*
G01*
G37*
G04 #@! TD.AperFunction*
G04 #@! TA.AperFunction,SMDPad,CuDef*
G36*
G01*
X95989949Y-140393934D02*
X95106065Y-139510051D01*
G75*
G02*
X95106065Y-139156497I176777J176777D01*
G01*
X95636395Y-138626167D01*
G75*
G02*
X95989949Y-138626167I176777J-176777D01*
G01*
X96873833Y-139510051D01*
G75*
G02*
X96873833Y-139863605I-176777J-176777D01*
G01*
X96343503Y-140393935D01*
G75*
G02*
X95989949Y-140393935I-176777J176777D01*
G01*
G37*
G04 #@! TD.AperFunction*
G04 #@! TA.AperFunction,SMDPad,CuDef*
G36*
G01*
X94010051Y-142373832D02*
X93126167Y-141489949D01*
G75*
G02*
X93126167Y-141136395I176777J176777D01*
G01*
X93656497Y-140606065D01*
G75*
G02*
X94010051Y-140606065I176777J-176777D01*
G01*
X94893935Y-141489949D01*
G75*
G02*
X94893935Y-141843503I-176777J-176777D01*
G01*
X94363605Y-142373833D01*
G75*
G02*
X94010051Y-142373833I-176777J176777D01*
G01*
G37*
G04 #@! TD.AperFunction*
D15*
X87150000Y-102300000D03*
X87150000Y-99100000D03*
X92050000Y-102300000D03*
X92050000Y-99100000D03*
X87050000Y-138300000D03*
X87050000Y-135100000D03*
X91950000Y-138300000D03*
X91950000Y-135100000D03*
G04 #@! TA.AperFunction,SMDPad,CuDef*
G36*
G01*
X98565000Y-108725000D02*
X98565000Y-107475000D01*
G75*
G02*
X98815000Y-107225000I250000J0D01*
G01*
X99565000Y-107225000D01*
G75*
G02*
X99815000Y-107475000I0J-250000D01*
G01*
X99815000Y-108725000D01*
G75*
G02*
X99565000Y-108975000I-250000J0D01*
G01*
X98815000Y-108975000D01*
G75*
G02*
X98565000Y-108725000I0J250000D01*
G01*
G37*
G04 #@! TD.AperFunction*
G04 #@! TA.AperFunction,SMDPad,CuDef*
G36*
G01*
X95765000Y-108725000D02*
X95765000Y-107475000D01*
G75*
G02*
X96015000Y-107225000I250000J0D01*
G01*
X96765000Y-107225000D01*
G75*
G02*
X97015000Y-107475000I0J-250000D01*
G01*
X97015000Y-108725000D01*
G75*
G02*
X96765000Y-108975000I-250000J0D01*
G01*
X96015000Y-108975000D01*
G75*
G02*
X95765000Y-108725000I0J250000D01*
G01*
G37*
G04 #@! TD.AperFunction*
D16*
X68580000Y-98100000D03*
D11*
X71120000Y-98100000D03*
D17*
X68580000Y-100640000D03*
X71120000Y-100640000D03*
X68580000Y-103180000D03*
X71120000Y-103180000D03*
D16*
X74700000Y-98100000D03*
D17*
X74700000Y-100640000D03*
D11*
X74700000Y-103180000D03*
D17*
X74700000Y-105720000D03*
X74700000Y-108260000D03*
X74700000Y-110800000D03*
G04 #@! TA.AperFunction,SMDPad,CuDef*
G36*
G01*
X69125000Y-109175000D02*
X69125000Y-110425000D01*
G75*
G02*
X68875000Y-110675000I-250000J0D01*
G01*
X68125000Y-110675000D01*
G75*
G02*
X67875000Y-110425000I0J250000D01*
G01*
X67875000Y-109175000D01*
G75*
G02*
X68125000Y-108925000I250000J0D01*
G01*
X68875000Y-108925000D01*
G75*
G02*
X69125000Y-109175000I0J-250000D01*
G01*
G37*
G04 #@! TD.AperFunction*
G04 #@! TA.AperFunction,SMDPad,CuDef*
G36*
G01*
X71925000Y-109175000D02*
X71925000Y-110425000D01*
G75*
G02*
X71675000Y-110675000I-250000J0D01*
G01*
X70925000Y-110675000D01*
G75*
G02*
X70675000Y-110425000I0J250000D01*
G01*
X70675000Y-109175000D01*
G75*
G02*
X70925000Y-108925000I250000J0D01*
G01*
X71675000Y-108925000D01*
G75*
G02*
X71925000Y-109175000I0J-250000D01*
G01*
G37*
G04 #@! TD.AperFunction*
D18*
X81640000Y-123136000D03*
X81600000Y-125700000D03*
X81600000Y-128200000D03*
X81600000Y-130700000D03*
D19*
X86700000Y-113700000D03*
D20*
X87500000Y-113450000D03*
X88300000Y-113450000D03*
X89100000Y-113450000D03*
X89900000Y-113450000D03*
X90700000Y-113450000D03*
X91500000Y-113450000D03*
X92300000Y-113450000D03*
D21*
X93750000Y-112000000D03*
X93750000Y-111200000D03*
X93750000Y-110400000D03*
X93750000Y-109600000D03*
X93750000Y-108800000D03*
X93750000Y-108000000D03*
X93750000Y-107200000D03*
X93750000Y-106400000D03*
D20*
X92300000Y-104950000D03*
X91500000Y-104950000D03*
X90700000Y-104950000D03*
X89900000Y-104950000D03*
X89100000Y-104950000D03*
X88300000Y-104950000D03*
X87500000Y-104950000D03*
X86700000Y-104950000D03*
D21*
X85250000Y-106400000D03*
X85250000Y-107200000D03*
X85250000Y-108000000D03*
X85250000Y-108800000D03*
X85250000Y-109600000D03*
X85250000Y-110400000D03*
X85250000Y-111200000D03*
X85250000Y-112000000D03*
G04 #@! TA.AperFunction,SMDPad,CuDef*
G36*
G01*
X95625000Y-117225000D02*
X94375000Y-117225000D01*
G75*
G02*
X94125000Y-116975000I0J250000D01*
G01*
X94125000Y-116050000D01*
G75*
G02*
X94375000Y-115800000I250000J0D01*
G01*
X95625000Y-115800000D01*
G75*
G02*
X95875000Y-116050000I0J-250000D01*
G01*
X95875000Y-116975000D01*
G75*
G02*
X95625000Y-117225000I-250000J0D01*
G01*
G37*
G04 #@! TD.AperFunction*
G04 #@! TA.AperFunction,SMDPad,CuDef*
G36*
G01*
X95625000Y-120200000D02*
X94375000Y-120200000D01*
G75*
G02*
X94125000Y-119950000I0J250000D01*
G01*
X94125000Y-119025000D01*
G75*
G02*
X94375000Y-118775000I250000J0D01*
G01*
X95625000Y-118775000D01*
G75*
G02*
X95875000Y-119025000I0J-250000D01*
G01*
X95875000Y-119950000D01*
G75*
G02*
X95625000Y-120200000I-250000J0D01*
G01*
G37*
G04 #@! TD.AperFunction*
G04 #@! TA.AperFunction,SMDPad,CuDef*
G36*
G01*
X88000000Y-146325000D02*
X88000000Y-145075000D01*
G75*
G02*
X88250000Y-144825000I250000J0D01*
G01*
X89175000Y-144825000D01*
G75*
G02*
X89425000Y-145075000I0J-250000D01*
G01*
X89425000Y-146325000D01*
G75*
G02*
X89175000Y-146575000I-250000J0D01*
G01*
X88250000Y-146575000D01*
G75*
G02*
X88000000Y-146325000I0J250000D01*
G01*
G37*
G04 #@! TD.AperFunction*
G04 #@! TA.AperFunction,SMDPad,CuDef*
G36*
G01*
X90975000Y-146325000D02*
X90975000Y-145075000D01*
G75*
G02*
X91225000Y-144825000I250000J0D01*
G01*
X92150000Y-144825000D01*
G75*
G02*
X92400000Y-145075000I0J-250000D01*
G01*
X92400000Y-146325000D01*
G75*
G02*
X92150000Y-146575000I-250000J0D01*
G01*
X91225000Y-146575000D01*
G75*
G02*
X90975000Y-146325000I0J250000D01*
G01*
G37*
G04 #@! TD.AperFunction*
G04 #@! TA.AperFunction,SMDPad,CuDef*
G36*
G01*
X84125000Y-100725000D02*
X82875000Y-100725000D01*
G75*
G02*
X82625000Y-100475000I0J250000D01*
G01*
X82625000Y-99725000D01*
G75*
G02*
X82875000Y-99475000I250000J0D01*
G01*
X84125000Y-99475000D01*
G75*
G02*
X84375000Y-99725000I0J-250000D01*
G01*
X84375000Y-100475000D01*
G75*
G02*
X84125000Y-100725000I-250000J0D01*
G01*
G37*
G04 #@! TD.AperFunction*
G04 #@! TA.AperFunction,SMDPad,CuDef*
G36*
G01*
X84125000Y-103525000D02*
X82875000Y-103525000D01*
G75*
G02*
X82625000Y-103275000I0J250000D01*
G01*
X82625000Y-102525000D01*
G75*
G02*
X82875000Y-102275000I250000J0D01*
G01*
X84125000Y-102275000D01*
G75*
G02*
X84375000Y-102525000I0J-250000D01*
G01*
X84375000Y-103275000D01*
G75*
G02*
X84125000Y-103525000I-250000J0D01*
G01*
G37*
G04 #@! TD.AperFunction*
G04 #@! TA.AperFunction,SMDPad,CuDef*
G36*
G01*
X83075000Y-137475000D02*
X84325000Y-137475000D01*
G75*
G02*
X84575000Y-137725000I0J-250000D01*
G01*
X84575000Y-138475000D01*
G75*
G02*
X84325000Y-138725000I-250000J0D01*
G01*
X83075000Y-138725000D01*
G75*
G02*
X82825000Y-138475000I0J250000D01*
G01*
X82825000Y-137725000D01*
G75*
G02*
X83075000Y-137475000I250000J0D01*
G01*
G37*
G04 #@! TD.AperFunction*
G04 #@! TA.AperFunction,SMDPad,CuDef*
G36*
G01*
X83075000Y-134675000D02*
X84325000Y-134675000D01*
G75*
G02*
X84575000Y-134925000I0J-250000D01*
G01*
X84575000Y-135675000D01*
G75*
G02*
X84325000Y-135925000I-250000J0D01*
G01*
X83075000Y-135925000D01*
G75*
G02*
X82825000Y-135675000I0J250000D01*
G01*
X82825000Y-134925000D01*
G75*
G02*
X83075000Y-134675000I250000J0D01*
G01*
G37*
G04 #@! TD.AperFunction*
G04 #@! TA.AperFunction,SMDPad,CuDef*
G36*
G01*
X97025000Y-102375000D02*
X97025000Y-103625000D01*
G75*
G02*
X96775000Y-103875000I-250000J0D01*
G01*
X96025000Y-103875000D01*
G75*
G02*
X95775000Y-103625000I0J250000D01*
G01*
X95775000Y-102375000D01*
G75*
G02*
X96025000Y-102125000I250000J0D01*
G01*
X96775000Y-102125000D01*
G75*
G02*
X97025000Y-102375000I0J-250000D01*
G01*
G37*
G04 #@! TD.AperFunction*
G04 #@! TA.AperFunction,SMDPad,CuDef*
G36*
G01*
X99825000Y-102375000D02*
X99825000Y-103625000D01*
G75*
G02*
X99575000Y-103875000I-250000J0D01*
G01*
X98825000Y-103875000D01*
G75*
G02*
X98575000Y-103625000I0J250000D01*
G01*
X98575000Y-102375000D01*
G75*
G02*
X98825000Y-102125000I250000J0D01*
G01*
X99575000Y-102125000D01*
G75*
G02*
X99825000Y-102375000I0J-250000D01*
G01*
G37*
G04 #@! TD.AperFunction*
G04 #@! TA.AperFunction,SMDPad,CuDef*
G36*
G01*
X81375000Y-108775000D02*
X82625000Y-108775000D01*
G75*
G02*
X82875000Y-109025000I0J-250000D01*
G01*
X82875000Y-109775000D01*
G75*
G02*
X82625000Y-110025000I-250000J0D01*
G01*
X81375000Y-110025000D01*
G75*
G02*
X81125000Y-109775000I0J250000D01*
G01*
X81125000Y-109025000D01*
G75*
G02*
X81375000Y-108775000I250000J0D01*
G01*
G37*
G04 #@! TD.AperFunction*
G04 #@! TA.AperFunction,SMDPad,CuDef*
G36*
G01*
X81375000Y-105975000D02*
X82625000Y-105975000D01*
G75*
G02*
X82875000Y-106225000I0J-250000D01*
G01*
X82875000Y-106975000D01*
G75*
G02*
X82625000Y-107225000I-250000J0D01*
G01*
X81375000Y-107225000D01*
G75*
G02*
X81125000Y-106975000I0J250000D01*
G01*
X81125000Y-106225000D01*
G75*
G02*
X81375000Y-105975000I250000J0D01*
G01*
G37*
G04 #@! TD.AperFunction*
D22*
X80700000Y-118100000D03*
X97500000Y-105100000D03*
X82000000Y-105250000D03*
X85000000Y-100000000D03*
X90000000Y-99100000D03*
X86700000Y-108800000D03*
X86700000Y-110400000D03*
X92300000Y-109600000D03*
X81900000Y-137100000D03*
X95000000Y-140500000D03*
X99200000Y-132300000D03*
X83000000Y-139700000D03*
X81000000Y-121200000D03*
X80300000Y-108700000D03*
X99200000Y-133700000D03*
X95000000Y-121000000D03*
X80300000Y-103800000D03*
X97800000Y-99700000D03*
X84100000Y-118100000D03*
X86100000Y-144900000D03*
X84300000Y-139700000D03*
X80300000Y-101600000D03*
X82800000Y-97400000D03*
X82800000Y-121200000D03*
X85200000Y-115300000D03*
X84100000Y-115300000D03*
D23*
X83500000Y-100100000D02*
X83500000Y-100000000D01*
X83500000Y-100100000D02*
X84900000Y-100100000D01*
X84900000Y-100100000D02*
X85000000Y-100000000D01*
X82000000Y-106600000D02*
X82000000Y-105250000D01*
X85250000Y-110400000D02*
X86700000Y-110400000D01*
X85639963Y-108800000D02*
X85564964Y-108725001D01*
X86700000Y-108800000D02*
X85639963Y-108800000D01*
X92300000Y-109600000D02*
X93750000Y-109600000D01*
X92050000Y-99100000D02*
X90000000Y-99100000D01*
X95000000Y-140500000D02*
X95989949Y-139510051D01*
X83400000Y-135600000D02*
X83700000Y-135300000D01*
X83700000Y-130300000D02*
X83700000Y-135300000D01*
X81600000Y-128200000D02*
X83700000Y-130300000D01*
X93000000Y-135100000D02*
X94400000Y-133700000D01*
X91950000Y-135100000D02*
X93000000Y-135100000D01*
D24*
X95900000Y-135200000D02*
X94400000Y-133700000D01*
X95900000Y-135562500D02*
X95900000Y-135200000D01*
D23*
X95800000Y-132300000D02*
X94400000Y-133700000D01*
X99200000Y-132300000D02*
X95800000Y-132300000D01*
X83700000Y-135300000D02*
X81900000Y-137100000D01*
X99190000Y-106790000D02*
X97500000Y-105100000D01*
X99190000Y-108100000D02*
X99190000Y-106790000D01*
X99200000Y-103400000D02*
X97500000Y-105100000D01*
X99200000Y-103000000D02*
X99200000Y-103400000D01*
X83500000Y-102900000D02*
X83400000Y-102900000D01*
X83100000Y-102500000D02*
X83500000Y-102900000D01*
X95000000Y-121000000D02*
X95000000Y-119487500D01*
X81000000Y-109400000D02*
X80300000Y-108700000D01*
X82000000Y-109400000D02*
X81000000Y-109400000D01*
X83400000Y-108000000D02*
X85250000Y-108000000D01*
X82000000Y-109400000D02*
X83400000Y-108000000D01*
X82200000Y-109600000D02*
X85250000Y-109600000D01*
X82000000Y-109400000D02*
X82200000Y-109600000D01*
X86550000Y-102900000D02*
X87150000Y-102300000D01*
X83500000Y-102900000D02*
X86550000Y-102900000D01*
X86850000Y-138100000D02*
X87050000Y-138300000D01*
X83700000Y-138100000D02*
X86850000Y-138100000D01*
D24*
X96937502Y-135562500D02*
X96450000Y-135562500D01*
X97150000Y-135774998D02*
X96937502Y-135562500D01*
X97150000Y-136500000D02*
X97150000Y-135774998D01*
D23*
X97150000Y-133750000D02*
X97200000Y-133700000D01*
X97150000Y-136500000D02*
X97150000Y-133750000D01*
X99200000Y-133700000D02*
X97200000Y-133700000D01*
X94835002Y-107200000D02*
X96400000Y-105635002D01*
X96400000Y-105635002D02*
X96400000Y-103000000D01*
X93750000Y-107200000D02*
X94835002Y-107200000D01*
X95690000Y-108800000D02*
X96390000Y-108100000D01*
X93750000Y-108800000D02*
X95690000Y-108800000D01*
X96400000Y-101100000D02*
X97800000Y-99700000D01*
X96400000Y-103000000D02*
X96400000Y-101100000D01*
X83700000Y-139000000D02*
X83000000Y-139700000D01*
X83700000Y-138100000D02*
X83700000Y-139000000D01*
X81200000Y-102900000D02*
X80300000Y-103800000D01*
X83500000Y-102900000D02*
X81200000Y-102900000D01*
X81640000Y-121840000D02*
X81000000Y-121200000D01*
X81640000Y-123136000D02*
X81640000Y-121840000D01*
D25*
X71995001Y-106895001D02*
X71100000Y-106000000D01*
X85250000Y-107200000D02*
X83213190Y-107200000D01*
X83213190Y-107200000D02*
X82863180Y-107550010D01*
X75074003Y-106895001D02*
X71995001Y-106895001D01*
X82863180Y-107550010D02*
X75729012Y-107550010D01*
X75729012Y-107550010D02*
X75074003Y-106895001D01*
X88225001Y-100175001D02*
X88225001Y-103364997D01*
X87500000Y-104089998D02*
X87500000Y-104950000D01*
X88225001Y-103364997D02*
X87500000Y-104089998D01*
X87150000Y-99100000D02*
X88225001Y-100175001D01*
D23*
X87912500Y-144900000D02*
X88712500Y-145700000D01*
X86100000Y-144900000D02*
X87912500Y-144900000D01*
D25*
X92050000Y-102223002D02*
X92050000Y-102300000D01*
X83634315Y-97700000D02*
X87526998Y-97700000D01*
X80300000Y-101034315D02*
X83634315Y-97700000D01*
X87526998Y-97700000D02*
X92050000Y-102223002D01*
X80300000Y-101600000D02*
X80300000Y-101034315D01*
X88125001Y-139060001D02*
X87485002Y-139700000D01*
X88125001Y-136175001D02*
X88125001Y-139060001D01*
X87050000Y-135100000D02*
X88125001Y-136175001D01*
X87485002Y-139700000D02*
X84300000Y-139700000D01*
D23*
X94010051Y-143377449D02*
X94010051Y-141489949D01*
X91687500Y-145700000D02*
X94010051Y-143377449D01*
D24*
X94010051Y-139714949D02*
X94010051Y-141489949D01*
X95350000Y-137925002D02*
X95350000Y-137437500D01*
X96424999Y-138000001D02*
X95424999Y-138000001D01*
X96450000Y-137975000D02*
X96424999Y-138000001D01*
X95424999Y-138000001D02*
X95350000Y-137925002D01*
X96450000Y-137437500D02*
X96450000Y-137975000D01*
X95350000Y-137437500D02*
X95350000Y-138050000D01*
X94010051Y-139389949D02*
X94010051Y-139714949D01*
X95350000Y-138050000D02*
X94010051Y-139389949D01*
D25*
X89100000Y-114335002D02*
X89100000Y-113250000D01*
X89100000Y-114300000D02*
X89100000Y-113250000D01*
X89474999Y-114674999D02*
X89100000Y-114300000D01*
X93162499Y-114674999D02*
X89474999Y-114674999D01*
X95000000Y-116512500D02*
X93162499Y-114674999D01*
X93799990Y-117712510D02*
X93799990Y-121285012D01*
X93799990Y-121285012D02*
X92760001Y-122325001D01*
X95000000Y-116512500D02*
X93799990Y-117712510D01*
X92760001Y-122325001D02*
X86239999Y-122325001D01*
X86239999Y-122325001D02*
X83400000Y-119485002D01*
X68580000Y-109220000D02*
X68500000Y-109300000D01*
X68580000Y-109720000D02*
X68500000Y-109800000D01*
X68580000Y-103180000D02*
X68580000Y-109720000D01*
X82975001Y-111975001D02*
X83400000Y-112400000D01*
X68500000Y-109800000D02*
X70675001Y-111975001D01*
X83400000Y-119485002D02*
X83400000Y-112400000D01*
X70675001Y-111975001D02*
X82975001Y-111975001D01*
X71400000Y-109200000D02*
X71300000Y-109300000D01*
X72300000Y-110800000D02*
X71300000Y-109800000D01*
X74700000Y-110800000D02*
X72300000Y-110800000D01*
X82974979Y-97225021D02*
X82800000Y-97400000D01*
X91988611Y-97225021D02*
X82974979Y-97225021D01*
X92388598Y-97625008D02*
X91988611Y-97225021D01*
X92410011Y-97625009D02*
X92388598Y-97625008D01*
X93125001Y-98339999D02*
X92410011Y-97625009D01*
X91500000Y-104089998D02*
X91764999Y-103824999D01*
X91764999Y-103824999D02*
X92575001Y-103824999D01*
X91500000Y-104950000D02*
X91500000Y-104089998D01*
X92575001Y-103824999D02*
X93125001Y-103274999D01*
X93125001Y-103274999D02*
X93125001Y-98339999D01*
X81600000Y-125700000D02*
X82965001Y-124334999D01*
X82965001Y-121365001D02*
X82800000Y-121200000D01*
X82965001Y-124334999D02*
X82965001Y-121365001D01*
X82800000Y-97400000D02*
X81600000Y-98600000D01*
X80025001Y-100174999D02*
X81600000Y-98600000D01*
X77223999Y-100174999D02*
X80025001Y-100174999D01*
X81600000Y-98600000D02*
X81525001Y-98674999D01*
X75583997Y-101815001D02*
X77223999Y-100174999D01*
X72295001Y-101815001D02*
X75583997Y-101815001D01*
X71120000Y-100640000D02*
X72295001Y-101815001D01*
X83434413Y-96325001D02*
X83334401Y-96224989D01*
X94025021Y-106124979D02*
X94025021Y-97967199D01*
X94025021Y-97967199D02*
X92382823Y-96325001D01*
X93750000Y-106400000D02*
X94025021Y-106124979D01*
X92382823Y-96325001D02*
X83434413Y-96325001D01*
X83334401Y-96224989D02*
X82238600Y-96224990D01*
X81701658Y-96761932D02*
X82238600Y-96224990D01*
X67404999Y-97535999D02*
X68179066Y-96761932D01*
X68179066Y-96761932D02*
X81701658Y-96761932D01*
X67404999Y-99464999D02*
X67404999Y-97535999D01*
X68580000Y-100640000D02*
X67404999Y-99464999D01*
X85924999Y-114575001D02*
X88224999Y-114575001D01*
X85200000Y-115300000D02*
X85924999Y-114575001D01*
X88300000Y-114500000D02*
X88300000Y-113450000D01*
X88224999Y-114575001D02*
X88300000Y-114500000D01*
X87500000Y-113139998D02*
X87235001Y-112874999D01*
X87500000Y-113450000D02*
X87500000Y-113139998D01*
X85959316Y-112874999D02*
X87235001Y-112874999D01*
X84100000Y-114734315D02*
X85959316Y-112874999D01*
X84100000Y-115300000D02*
X84100000Y-114734315D01*
X92574999Y-97174999D02*
X92175011Y-96775011D01*
X93575011Y-98153599D02*
X92596411Y-97174999D01*
X92175011Y-96775011D02*
X83248013Y-96775011D01*
X93575011Y-103674989D02*
X93575011Y-98153599D01*
X92596411Y-97174999D02*
X92574999Y-97174999D01*
X92300000Y-104950000D02*
X93575011Y-103674989D01*
X83148001Y-96674999D02*
X82425001Y-96674999D01*
X83248013Y-96775011D02*
X83148001Y-96674999D01*
X82425001Y-96674999D02*
X80774999Y-98325001D01*
X79073997Y-98325001D02*
X80774999Y-98325001D01*
X78123997Y-99275001D02*
X79073997Y-98325001D01*
X69755001Y-99275001D02*
X78123997Y-99275001D01*
X68580000Y-98100000D02*
X69755001Y-99275001D01*
D24*
X94862498Y-135562500D02*
X95350000Y-135562500D01*
X94650000Y-135774998D02*
X94862498Y-135562500D01*
X94650000Y-136500000D02*
X94650000Y-135774998D01*
M02*
