G04 #@! TF.GenerationSoftware,KiCad,Pcbnew,(5.1.6)-1*
G04 #@! TF.CreationDate,2020-06-16T20:45:44-04:00*
G04 #@! TF.ProjectId,SRF Pendants,53524620-5065-46e6-9461-6e74732e6b69,rev?*
G04 #@! TF.SameCoordinates,Original*
G04 #@! TF.FileFunction,Copper,L2,Inr*
G04 #@! TF.FilePolarity,Positive*
%FSLAX46Y46*%
G04 Gerber Fmt 4.6, Leading zero omitted, Abs format (unit mm)*
G04 Created by KiCad (PCBNEW (5.1.6)-1) date 2020-06-16 20:45:44*
%MOMM*%
%LPD*%
G01*
G04 APERTURE LIST*
G04 #@! TA.AperFunction,ViaPad*
%ADD10R,6.000000X3.000000*%
G04 #@! TD*
G04 #@! TA.AperFunction,ViaPad*
%ADD11R,1.700000X1.700000*%
G04 #@! TD*
G04 #@! TA.AperFunction,ViaPad*
%ADD12C,1.700000*%
G04 #@! TD*
G04 #@! TA.AperFunction,ViaPad*
%ADD13O,1.700000X1.700000*%
G04 #@! TD*
G04 #@! TA.AperFunction,ViaPad*
%ADD14C,0.800000*%
G04 #@! TD*
G04 #@! TA.AperFunction,Conductor*
%ADD15C,0.250000*%
G04 #@! TD*
G04 #@! TA.AperFunction,Conductor*
%ADD16C,0.254000*%
G04 #@! TD*
G04 APERTURE END LIST*
D10*
X89500000Y-94500000D03*
X89500000Y-116500000D03*
X89500000Y-119900000D03*
X89500000Y-141900000D03*
D11*
X71100000Y-106000000D03*
D12*
X68580000Y-98100000D03*
D11*
X71120000Y-98100000D03*
D13*
X68580000Y-100640000D03*
X71120000Y-100640000D03*
X68580000Y-103180000D03*
X71120000Y-103180000D03*
D12*
X74700000Y-98100000D03*
D13*
X74700000Y-100640000D03*
D11*
X74700000Y-103180000D03*
D13*
X74700000Y-105720000D03*
X74700000Y-108260000D03*
X74700000Y-110800000D03*
D14*
X80700000Y-118100000D03*
X97500000Y-105100000D03*
X82000000Y-105250000D03*
X85000000Y-100000000D03*
X90000000Y-99100000D03*
X86700000Y-108800000D03*
X86700000Y-110400000D03*
X92300000Y-109600000D03*
X81900000Y-137100000D03*
X95000000Y-140500000D03*
X99200000Y-132300000D03*
X83000000Y-139700000D03*
X81000000Y-121200000D03*
X80300000Y-108700000D03*
X99200000Y-133700000D03*
X95000000Y-121000000D03*
X80300000Y-103800000D03*
X97800000Y-99700000D03*
X84100000Y-118100000D03*
X86100000Y-144900000D03*
X84300000Y-139700000D03*
X80300000Y-101600000D03*
X82800000Y-97400000D03*
X82800000Y-121200000D03*
X85200000Y-115300000D03*
X84100000Y-115300000D03*
D15*
X79998003Y-107325001D02*
X76305001Y-107325001D01*
X85200000Y-112526998D02*
X79998003Y-107325001D01*
X76305001Y-107325001D02*
X74700000Y-105720000D01*
X85200000Y-115300000D02*
X85200000Y-112526998D01*
X75265001Y-108825001D02*
X74700000Y-108260000D01*
X78926003Y-108825001D02*
X75265001Y-108825001D01*
X84100000Y-113998998D02*
X78926003Y-108825001D01*
X84100000Y-115300000D02*
X84100000Y-113998998D01*
D16*
G36*
X85861928Y-96000000D02*
G01*
X85874188Y-96124482D01*
X85910498Y-96244180D01*
X85969463Y-96354494D01*
X86048815Y-96451185D01*
X86145506Y-96530537D01*
X86255820Y-96589502D01*
X86375518Y-96625812D01*
X86500000Y-96638072D01*
X92500000Y-96638072D01*
X92624482Y-96625812D01*
X92744180Y-96589502D01*
X92854494Y-96530537D01*
X92951185Y-96451185D01*
X93030537Y-96354494D01*
X93089502Y-96244180D01*
X93125812Y-96124482D01*
X93138072Y-96000000D01*
X93138072Y-93160000D01*
X94950235Y-93160000D01*
X99873000Y-101036424D01*
X99873000Y-112358498D01*
X96897507Y-116425005D01*
X96884846Y-116446442D01*
X96876610Y-116469936D01*
X96873000Y-116500000D01*
X96873000Y-121600000D01*
X96875440Y-121624776D01*
X96882667Y-121648601D01*
X96895069Y-121671544D01*
X99873000Y-126039176D01*
X99873000Y-132909289D01*
X99859774Y-132896063D01*
X99690256Y-132782795D01*
X99501898Y-132704774D01*
X99301939Y-132665000D01*
X99098061Y-132665000D01*
X98898102Y-132704774D01*
X98709744Y-132782795D01*
X98540226Y-132896063D01*
X98396063Y-133040226D01*
X98282795Y-133209744D01*
X98204774Y-133398102D01*
X98165000Y-133598061D01*
X98165000Y-133801939D01*
X98204774Y-134001898D01*
X98282795Y-134190256D01*
X98396063Y-134359774D01*
X98540226Y-134503937D01*
X98709744Y-134617205D01*
X98898102Y-134695226D01*
X99098061Y-134735000D01*
X99301939Y-134735000D01*
X99501898Y-134695226D01*
X99690256Y-134617205D01*
X99859774Y-134503937D01*
X99873000Y-134490711D01*
X99873000Y-135959625D01*
X94096315Y-144126662D01*
X94084000Y-144148299D01*
X94076143Y-144171923D01*
X94073000Y-144200000D01*
X94073000Y-148840000D01*
X85160000Y-148840000D01*
X85160000Y-145335224D01*
X85182795Y-145390256D01*
X85296063Y-145559774D01*
X85440226Y-145703937D01*
X85609744Y-145817205D01*
X85798102Y-145895226D01*
X85998061Y-145935000D01*
X86201939Y-145935000D01*
X86401898Y-145895226D01*
X86590256Y-145817205D01*
X86759774Y-145703937D01*
X86903937Y-145559774D01*
X87017205Y-145390256D01*
X87095226Y-145201898D01*
X87135000Y-145001939D01*
X87135000Y-144798061D01*
X87095226Y-144598102D01*
X87017205Y-144409744D01*
X86903937Y-144240226D01*
X86759774Y-144096063D01*
X86672984Y-144038072D01*
X92500000Y-144038072D01*
X92624482Y-144025812D01*
X92744180Y-143989502D01*
X92854494Y-143930537D01*
X92951185Y-143851185D01*
X93030537Y-143754494D01*
X93089502Y-143644180D01*
X93125812Y-143524482D01*
X93138072Y-143400000D01*
X93138072Y-140400000D01*
X93125812Y-140275518D01*
X93089502Y-140155820D01*
X93030537Y-140045506D01*
X92951185Y-139948815D01*
X92854494Y-139869463D01*
X92744180Y-139810498D01*
X92624482Y-139774188D01*
X92500000Y-139761928D01*
X86500000Y-139761928D01*
X86375518Y-139774188D01*
X86255820Y-139810498D01*
X86145506Y-139869463D01*
X86048815Y-139948815D01*
X85969463Y-140045506D01*
X85910498Y-140155820D01*
X85874188Y-140275518D01*
X85861928Y-140400000D01*
X85861928Y-143400000D01*
X85874188Y-143524482D01*
X85910498Y-143644180D01*
X85969463Y-143754494D01*
X86048815Y-143851185D01*
X86065649Y-143865000D01*
X85998061Y-143865000D01*
X85798102Y-143904774D01*
X85609744Y-143982795D01*
X85440226Y-144096063D01*
X85296063Y-144240226D01*
X85182795Y-144409744D01*
X85160000Y-144464776D01*
X85160000Y-143043644D01*
X85162810Y-143022496D01*
X85160000Y-142978814D01*
X85160000Y-142967581D01*
X85157917Y-142946428D01*
X85154464Y-142892756D01*
X85151557Y-142881853D01*
X85150450Y-142870617D01*
X85134826Y-142819111D01*
X85127000Y-142789764D01*
X85127000Y-142700000D01*
X85124560Y-142675224D01*
X85117333Y-142651399D01*
X85105597Y-142629443D01*
X85089803Y-142610197D01*
X85070557Y-142594403D01*
X85051011Y-142583695D01*
X84993033Y-142558266D01*
X84984585Y-142547229D01*
X84976109Y-142539777D01*
X84968948Y-142531052D01*
X84927366Y-142496926D01*
X84886944Y-142461391D01*
X84877171Y-142455733D01*
X84868449Y-142448575D01*
X84821016Y-142423222D01*
X84802623Y-142412573D01*
X84792399Y-142407926D01*
X84753792Y-142387290D01*
X84733374Y-142381096D01*
X79660000Y-140075018D01*
X79660000Y-139598061D01*
X81965000Y-139598061D01*
X81965000Y-139801939D01*
X82004774Y-140001898D01*
X82082795Y-140190256D01*
X82196063Y-140359774D01*
X82340226Y-140503937D01*
X82509744Y-140617205D01*
X82698102Y-140695226D01*
X82898061Y-140735000D01*
X83101939Y-140735000D01*
X83301898Y-140695226D01*
X83490256Y-140617205D01*
X83650000Y-140510468D01*
X83809744Y-140617205D01*
X83998102Y-140695226D01*
X84198061Y-140735000D01*
X84401939Y-140735000D01*
X84601898Y-140695226D01*
X84790256Y-140617205D01*
X84959774Y-140503937D01*
X85103937Y-140359774D01*
X85217205Y-140190256D01*
X85295226Y-140001898D01*
X85335000Y-139801939D01*
X85335000Y-139598061D01*
X85295226Y-139398102D01*
X85217205Y-139209744D01*
X85103937Y-139040226D01*
X84959774Y-138896063D01*
X84790256Y-138782795D01*
X84601898Y-138704774D01*
X84401939Y-138665000D01*
X84198061Y-138665000D01*
X83998102Y-138704774D01*
X83809744Y-138782795D01*
X83650000Y-138889532D01*
X83490256Y-138782795D01*
X83301898Y-138704774D01*
X83101939Y-138665000D01*
X82898061Y-138665000D01*
X82698102Y-138704774D01*
X82509744Y-138782795D01*
X82340226Y-138896063D01*
X82196063Y-139040226D01*
X82082795Y-139209744D01*
X82004774Y-139398102D01*
X81965000Y-139598061D01*
X79660000Y-139598061D01*
X79660000Y-121098061D01*
X79965000Y-121098061D01*
X79965000Y-121301939D01*
X80004774Y-121501898D01*
X80082795Y-121690256D01*
X80196063Y-121859774D01*
X80340226Y-122003937D01*
X80509744Y-122117205D01*
X80698102Y-122195226D01*
X80898061Y-122235000D01*
X81101939Y-122235000D01*
X81301898Y-122195226D01*
X81490256Y-122117205D01*
X81659774Y-122003937D01*
X81803937Y-121859774D01*
X81900000Y-121716005D01*
X81996063Y-121859774D01*
X82140226Y-122003937D01*
X82309744Y-122117205D01*
X82498102Y-122195226D01*
X82698061Y-122235000D01*
X82901939Y-122235000D01*
X83101898Y-122195226D01*
X83290256Y-122117205D01*
X83459774Y-122003937D01*
X83603937Y-121859774D01*
X83717205Y-121690256D01*
X83795226Y-121501898D01*
X83835000Y-121301939D01*
X83835000Y-121098061D01*
X83795226Y-120898102D01*
X83717205Y-120709744D01*
X83603937Y-120540226D01*
X83459774Y-120396063D01*
X83290256Y-120282795D01*
X83101898Y-120204774D01*
X82901939Y-120165000D01*
X82698061Y-120165000D01*
X82498102Y-120204774D01*
X82309744Y-120282795D01*
X82140226Y-120396063D01*
X81996063Y-120540226D01*
X81900000Y-120683995D01*
X81803937Y-120540226D01*
X81659774Y-120396063D01*
X81490256Y-120282795D01*
X81301898Y-120204774D01*
X81101939Y-120165000D01*
X80898061Y-120165000D01*
X80698102Y-120204774D01*
X80509744Y-120282795D01*
X80340226Y-120396063D01*
X80196063Y-120540226D01*
X80082795Y-120709744D01*
X80004774Y-120898102D01*
X79965000Y-121098061D01*
X79660000Y-121098061D01*
X79660000Y-117998061D01*
X79665000Y-117998061D01*
X79665000Y-118201939D01*
X79704774Y-118401898D01*
X79782795Y-118590256D01*
X79896063Y-118759774D01*
X80040226Y-118903937D01*
X80209744Y-119017205D01*
X80398102Y-119095226D01*
X80598061Y-119135000D01*
X80801939Y-119135000D01*
X81001898Y-119095226D01*
X81190256Y-119017205D01*
X81359774Y-118903937D01*
X81503937Y-118759774D01*
X81617205Y-118590256D01*
X81695226Y-118401898D01*
X81735000Y-118201939D01*
X81735000Y-117998061D01*
X83065000Y-117998061D01*
X83065000Y-118201939D01*
X83104774Y-118401898D01*
X83182795Y-118590256D01*
X83296063Y-118759774D01*
X83440226Y-118903937D01*
X83609744Y-119017205D01*
X83798102Y-119095226D01*
X83998061Y-119135000D01*
X84201939Y-119135000D01*
X84401898Y-119095226D01*
X84590256Y-119017205D01*
X84759774Y-118903937D01*
X84903937Y-118759774D01*
X85017205Y-118590256D01*
X85095226Y-118401898D01*
X85135000Y-118201939D01*
X85135000Y-117998061D01*
X85095226Y-117798102D01*
X85017205Y-117609744D01*
X84903937Y-117440226D01*
X84759774Y-117296063D01*
X84590256Y-117182795D01*
X84401898Y-117104774D01*
X84201939Y-117065000D01*
X83998061Y-117065000D01*
X83798102Y-117104774D01*
X83609744Y-117182795D01*
X83440226Y-117296063D01*
X83296063Y-117440226D01*
X83182795Y-117609744D01*
X83104774Y-117798102D01*
X83065000Y-117998061D01*
X81735000Y-117998061D01*
X81695226Y-117798102D01*
X81617205Y-117609744D01*
X81503937Y-117440226D01*
X81359774Y-117296063D01*
X81190256Y-117182795D01*
X81001898Y-117104774D01*
X80801939Y-117065000D01*
X80598061Y-117065000D01*
X80398102Y-117104774D01*
X80209744Y-117182795D01*
X80040226Y-117296063D01*
X79896063Y-117440226D01*
X79782795Y-117609744D01*
X79704774Y-117798102D01*
X79665000Y-117998061D01*
X79660000Y-117998061D01*
X79660000Y-113632418D01*
X79663193Y-113600000D01*
X79650450Y-113470617D01*
X79612710Y-113346207D01*
X79551425Y-113231550D01*
X79526994Y-113201781D01*
X79526999Y-113200470D01*
X79524651Y-113175685D01*
X79517512Y-113151834D01*
X79505857Y-113129834D01*
X79490135Y-113110531D01*
X79470948Y-113094665D01*
X79449035Y-113082848D01*
X79425238Y-113075533D01*
X79400000Y-113073000D01*
X79398212Y-113073000D01*
X79368450Y-113048575D01*
X79253793Y-112987290D01*
X79129383Y-112949550D01*
X79032419Y-112940000D01*
X79000000Y-112936807D01*
X78967581Y-112940000D01*
X67260000Y-112940000D01*
X67260000Y-103873730D01*
X67264010Y-103883411D01*
X67426525Y-104126632D01*
X67633368Y-104333475D01*
X67876589Y-104495990D01*
X68146842Y-104607932D01*
X68433740Y-104665000D01*
X68726260Y-104665000D01*
X69013158Y-104607932D01*
X69283411Y-104495990D01*
X69526632Y-104333475D01*
X69733475Y-104126632D01*
X69851100Y-103950594D01*
X70022412Y-104180269D01*
X70238645Y-104375178D01*
X70468218Y-104511928D01*
X70250000Y-104511928D01*
X70125518Y-104524188D01*
X70005820Y-104560498D01*
X69895506Y-104619463D01*
X69798815Y-104698815D01*
X69719463Y-104795506D01*
X69660498Y-104905820D01*
X69624188Y-105025518D01*
X69611928Y-105150000D01*
X69611928Y-106850000D01*
X69624188Y-106974482D01*
X69660498Y-107094180D01*
X69719463Y-107204494D01*
X69798815Y-107301185D01*
X69895506Y-107380537D01*
X70005820Y-107439502D01*
X70125518Y-107475812D01*
X70250000Y-107488072D01*
X71950000Y-107488072D01*
X72074482Y-107475812D01*
X72194180Y-107439502D01*
X72304494Y-107380537D01*
X72401185Y-107301185D01*
X72480537Y-107204494D01*
X72539502Y-107094180D01*
X72575812Y-106974482D01*
X72588072Y-106850000D01*
X72588072Y-105150000D01*
X72575812Y-105025518D01*
X72539502Y-104905820D01*
X72480537Y-104795506D01*
X72401185Y-104698815D01*
X72304494Y-104619463D01*
X72194180Y-104560498D01*
X72074482Y-104524188D01*
X71950000Y-104511928D01*
X71771782Y-104511928D01*
X72001355Y-104375178D01*
X72217588Y-104180269D01*
X72391641Y-103946920D01*
X72516825Y-103684099D01*
X72561476Y-103536890D01*
X72440155Y-103307000D01*
X71247000Y-103307000D01*
X71247000Y-103327000D01*
X70993000Y-103327000D01*
X70993000Y-103307000D01*
X70973000Y-103307000D01*
X70973000Y-103053000D01*
X70993000Y-103053000D01*
X70993000Y-103033000D01*
X71247000Y-103033000D01*
X71247000Y-103053000D01*
X72440155Y-103053000D01*
X72561476Y-102823110D01*
X72516825Y-102675901D01*
X72391641Y-102413080D01*
X72329673Y-102330000D01*
X73211928Y-102330000D01*
X73211928Y-104030000D01*
X73224188Y-104154482D01*
X73260498Y-104274180D01*
X73319463Y-104384494D01*
X73398815Y-104481185D01*
X73495506Y-104560537D01*
X73605820Y-104619502D01*
X73678380Y-104641513D01*
X73546525Y-104773368D01*
X73384010Y-105016589D01*
X73272068Y-105286842D01*
X73215000Y-105573740D01*
X73215000Y-105866260D01*
X73272068Y-106153158D01*
X73384010Y-106423411D01*
X73546525Y-106666632D01*
X73753368Y-106873475D01*
X73927760Y-106990000D01*
X73753368Y-107106525D01*
X73546525Y-107313368D01*
X73384010Y-107556589D01*
X73272068Y-107826842D01*
X73215000Y-108113740D01*
X73215000Y-108406260D01*
X73272068Y-108693158D01*
X73384010Y-108963411D01*
X73546525Y-109206632D01*
X73753368Y-109413475D01*
X73927760Y-109530000D01*
X73753368Y-109646525D01*
X73546525Y-109853368D01*
X73384010Y-110096589D01*
X73272068Y-110366842D01*
X73215000Y-110653740D01*
X73215000Y-110946260D01*
X73272068Y-111233158D01*
X73384010Y-111503411D01*
X73546525Y-111746632D01*
X73753368Y-111953475D01*
X73996589Y-112115990D01*
X74266842Y-112227932D01*
X74553740Y-112285000D01*
X74846260Y-112285000D01*
X75133158Y-112227932D01*
X75403411Y-112115990D01*
X75646632Y-111953475D01*
X75853475Y-111746632D01*
X76015990Y-111503411D01*
X76127932Y-111233158D01*
X76185000Y-110946260D01*
X76185000Y-110653740D01*
X76127932Y-110366842D01*
X76015990Y-110096589D01*
X75853475Y-109853368D01*
X75646632Y-109646525D01*
X75554555Y-109585001D01*
X78130482Y-109585001D01*
X78115000Y-109662835D01*
X78115000Y-109837165D01*
X78149010Y-110008145D01*
X78215723Y-110169205D01*
X78312576Y-110314155D01*
X78435845Y-110437424D01*
X78529496Y-110500000D01*
X78435845Y-110562576D01*
X78312576Y-110685845D01*
X78215723Y-110830795D01*
X78149010Y-110991855D01*
X78115000Y-111162835D01*
X78115000Y-111337165D01*
X78149010Y-111508145D01*
X78215723Y-111669205D01*
X78312576Y-111814155D01*
X78435845Y-111937424D01*
X78580795Y-112034277D01*
X78741855Y-112100990D01*
X78912835Y-112135000D01*
X79087165Y-112135000D01*
X79258145Y-112100990D01*
X79419205Y-112034277D01*
X79564155Y-111937424D01*
X79687424Y-111814155D01*
X79784277Y-111669205D01*
X79850990Y-111508145D01*
X79885000Y-111337165D01*
X79885000Y-111162835D01*
X79850990Y-110991855D01*
X79784277Y-110830795D01*
X79687424Y-110685845D01*
X79564155Y-110562576D01*
X79470504Y-110500000D01*
X79503892Y-110477691D01*
X83340001Y-114313801D01*
X83340001Y-114596288D01*
X83296063Y-114640226D01*
X83182795Y-114809744D01*
X83104774Y-114998102D01*
X83065000Y-115198061D01*
X83065000Y-115401939D01*
X83104774Y-115601898D01*
X83182795Y-115790256D01*
X83296063Y-115959774D01*
X83440226Y-116103937D01*
X83609744Y-116217205D01*
X83798102Y-116295226D01*
X83998061Y-116335000D01*
X84201939Y-116335000D01*
X84401898Y-116295226D01*
X84590256Y-116217205D01*
X84650000Y-116177285D01*
X84709744Y-116217205D01*
X84898102Y-116295226D01*
X85098061Y-116335000D01*
X85301939Y-116335000D01*
X85501898Y-116295226D01*
X85690256Y-116217205D01*
X85859774Y-116103937D01*
X85861928Y-116101783D01*
X85861928Y-118000000D01*
X85874188Y-118124482D01*
X85897096Y-118200000D01*
X85874188Y-118275518D01*
X85861928Y-118400000D01*
X85861928Y-121400000D01*
X85874188Y-121524482D01*
X85910498Y-121644180D01*
X85969463Y-121754494D01*
X86048815Y-121851185D01*
X86145506Y-121930537D01*
X86255820Y-121989502D01*
X86375518Y-122025812D01*
X86500000Y-122038072D01*
X92500000Y-122038072D01*
X92624482Y-122025812D01*
X92744180Y-121989502D01*
X92854494Y-121930537D01*
X92951185Y-121851185D01*
X93030537Y-121754494D01*
X93089502Y-121644180D01*
X93125812Y-121524482D01*
X93138072Y-121400000D01*
X93138072Y-120898061D01*
X93965000Y-120898061D01*
X93965000Y-121101939D01*
X94004774Y-121301898D01*
X94082795Y-121490256D01*
X94196063Y-121659774D01*
X94340226Y-121803937D01*
X94509744Y-121917205D01*
X94698102Y-121995226D01*
X94898061Y-122035000D01*
X95101939Y-122035000D01*
X95301898Y-121995226D01*
X95490256Y-121917205D01*
X95659774Y-121803937D01*
X95803937Y-121659774D01*
X95917205Y-121490256D01*
X95995226Y-121301898D01*
X96035000Y-121101939D01*
X96035000Y-120898061D01*
X95995226Y-120698102D01*
X95917205Y-120509744D01*
X95803937Y-120340226D01*
X95659774Y-120196063D01*
X95490256Y-120082795D01*
X95301898Y-120004774D01*
X95101939Y-119965000D01*
X94898061Y-119965000D01*
X94698102Y-120004774D01*
X94509744Y-120082795D01*
X94340226Y-120196063D01*
X94196063Y-120340226D01*
X94082795Y-120509744D01*
X94004774Y-120698102D01*
X93965000Y-120898061D01*
X93138072Y-120898061D01*
X93138072Y-118400000D01*
X93125812Y-118275518D01*
X93102904Y-118200000D01*
X93125812Y-118124482D01*
X93138072Y-118000000D01*
X93138072Y-115000000D01*
X93125812Y-114875518D01*
X93089502Y-114755820D01*
X93030537Y-114645506D01*
X92951185Y-114548815D01*
X92854494Y-114469463D01*
X92744180Y-114410498D01*
X92624482Y-114374188D01*
X92500000Y-114361928D01*
X86500000Y-114361928D01*
X86375518Y-114374188D01*
X86255820Y-114410498D01*
X86145506Y-114469463D01*
X86048815Y-114548815D01*
X85987382Y-114623671D01*
X85960000Y-114596289D01*
X85960000Y-112564323D01*
X85963676Y-112526998D01*
X85960000Y-112489673D01*
X85960000Y-112489665D01*
X85949003Y-112378012D01*
X85905546Y-112234751D01*
X85834974Y-112102722D01*
X85740001Y-111986997D01*
X85711003Y-111963199D01*
X80561807Y-106814004D01*
X80538004Y-106785000D01*
X80422279Y-106690027D01*
X80290250Y-106619455D01*
X80146989Y-106575998D01*
X80035336Y-106565001D01*
X80035325Y-106565001D01*
X79998003Y-106561325D01*
X79960681Y-106565001D01*
X79865540Y-106565001D01*
X79850990Y-106491855D01*
X79784277Y-106330795D01*
X79687424Y-106185845D01*
X79564155Y-106062576D01*
X79470504Y-106000000D01*
X79564155Y-105937424D01*
X79687424Y-105814155D01*
X79784277Y-105669205D01*
X79850990Y-105508145D01*
X79885000Y-105337165D01*
X79885000Y-105162835D01*
X79850990Y-104991855D01*
X79784277Y-104830795D01*
X79687424Y-104685845D01*
X79564155Y-104562576D01*
X79470504Y-104500000D01*
X79509939Y-104473650D01*
X79640226Y-104603937D01*
X79809744Y-104717205D01*
X79998102Y-104795226D01*
X80198061Y-104835000D01*
X80401939Y-104835000D01*
X80601898Y-104795226D01*
X80790256Y-104717205D01*
X80959774Y-104603937D01*
X81103937Y-104459774D01*
X81217205Y-104290256D01*
X81295226Y-104101898D01*
X81335000Y-103901939D01*
X81335000Y-103698061D01*
X81295226Y-103498102D01*
X81217205Y-103309744D01*
X81103937Y-103140226D01*
X80959774Y-102996063D01*
X80790256Y-102882795D01*
X80601898Y-102804774D01*
X80401939Y-102765000D01*
X80198061Y-102765000D01*
X79998102Y-102804774D01*
X79809744Y-102882795D01*
X79640226Y-102996063D01*
X79568934Y-103067355D01*
X79564155Y-103062576D01*
X79470504Y-103000000D01*
X79564155Y-102937424D01*
X79687424Y-102814155D01*
X79784277Y-102669205D01*
X79841746Y-102530461D01*
X79998102Y-102595226D01*
X80198061Y-102635000D01*
X80401939Y-102635000D01*
X80601898Y-102595226D01*
X80790256Y-102517205D01*
X80959774Y-102403937D01*
X81103937Y-102259774D01*
X81217205Y-102090256D01*
X81295226Y-101901898D01*
X81335000Y-101701939D01*
X81335000Y-101498061D01*
X81295226Y-101298102D01*
X81217205Y-101109744D01*
X81103937Y-100940226D01*
X80959774Y-100796063D01*
X80790256Y-100682795D01*
X80601898Y-100604774D01*
X80401939Y-100565000D01*
X80198061Y-100565000D01*
X79998102Y-100604774D01*
X79882940Y-100652476D01*
X79850990Y-100491855D01*
X79784277Y-100330795D01*
X79687424Y-100185845D01*
X79564155Y-100062576D01*
X79470504Y-100000000D01*
X79564155Y-99937424D01*
X79687424Y-99814155D01*
X79784277Y-99669205D01*
X79813745Y-99598061D01*
X96765000Y-99598061D01*
X96765000Y-99801939D01*
X96804774Y-100001898D01*
X96882795Y-100190256D01*
X96996063Y-100359774D01*
X97140226Y-100503937D01*
X97309744Y-100617205D01*
X97498102Y-100695226D01*
X97698061Y-100735000D01*
X97901939Y-100735000D01*
X98101898Y-100695226D01*
X98290256Y-100617205D01*
X98459774Y-100503937D01*
X98603937Y-100359774D01*
X98717205Y-100190256D01*
X98795226Y-100001898D01*
X98835000Y-99801939D01*
X98835000Y-99598061D01*
X98795226Y-99398102D01*
X98717205Y-99209744D01*
X98603937Y-99040226D01*
X98459774Y-98896063D01*
X98290256Y-98782795D01*
X98101898Y-98704774D01*
X97901939Y-98665000D01*
X97698061Y-98665000D01*
X97498102Y-98704774D01*
X97309744Y-98782795D01*
X97140226Y-98896063D01*
X96996063Y-99040226D01*
X96882795Y-99209744D01*
X96804774Y-99398102D01*
X96765000Y-99598061D01*
X79813745Y-99598061D01*
X79850990Y-99508145D01*
X79885000Y-99337165D01*
X79885000Y-99162835D01*
X79850990Y-98991855D01*
X79784277Y-98830795D01*
X79687424Y-98685845D01*
X79564155Y-98562576D01*
X79419205Y-98465723D01*
X79258145Y-98399010D01*
X79087165Y-98365000D01*
X78912835Y-98365000D01*
X78741855Y-98399010D01*
X78580795Y-98465723D01*
X78435845Y-98562576D01*
X78312576Y-98685845D01*
X78215723Y-98830795D01*
X78149010Y-98991855D01*
X78115000Y-99162835D01*
X78115000Y-99337165D01*
X78149010Y-99508145D01*
X78215723Y-99669205D01*
X78312576Y-99814155D01*
X78435845Y-99937424D01*
X78529496Y-100000000D01*
X78435845Y-100062576D01*
X78312576Y-100185845D01*
X78215723Y-100330795D01*
X78149010Y-100491855D01*
X78115000Y-100662835D01*
X78115000Y-100837165D01*
X78149010Y-101008145D01*
X78215723Y-101169205D01*
X78312576Y-101314155D01*
X78435845Y-101437424D01*
X78529496Y-101500000D01*
X78435845Y-101562576D01*
X78312576Y-101685845D01*
X78215723Y-101830795D01*
X78149010Y-101991855D01*
X78115000Y-102162835D01*
X78115000Y-102337165D01*
X78149010Y-102508145D01*
X78215723Y-102669205D01*
X78312576Y-102814155D01*
X78435845Y-102937424D01*
X78529496Y-103000000D01*
X78435845Y-103062576D01*
X78312576Y-103185845D01*
X78215723Y-103330795D01*
X78149010Y-103491855D01*
X78115000Y-103662835D01*
X78115000Y-103837165D01*
X78149010Y-104008145D01*
X78215723Y-104169205D01*
X78312576Y-104314155D01*
X78435845Y-104437424D01*
X78529496Y-104500000D01*
X78435845Y-104562576D01*
X78312576Y-104685845D01*
X78215723Y-104830795D01*
X78149010Y-104991855D01*
X78115000Y-105162835D01*
X78115000Y-105337165D01*
X78149010Y-105508145D01*
X78215723Y-105669205D01*
X78312576Y-105814155D01*
X78435845Y-105937424D01*
X78529496Y-106000000D01*
X78435845Y-106062576D01*
X78312576Y-106185845D01*
X78215723Y-106330795D01*
X78149010Y-106491855D01*
X78134460Y-106565001D01*
X76619803Y-106565001D01*
X76141210Y-106086408D01*
X76185000Y-105866260D01*
X76185000Y-105573740D01*
X76127932Y-105286842D01*
X76015990Y-105016589D01*
X75853475Y-104773368D01*
X75721620Y-104641513D01*
X75794180Y-104619502D01*
X75904494Y-104560537D01*
X76001185Y-104481185D01*
X76080537Y-104384494D01*
X76139502Y-104274180D01*
X76175812Y-104154482D01*
X76188072Y-104030000D01*
X76188072Y-102330000D01*
X76175812Y-102205518D01*
X76139502Y-102085820D01*
X76080537Y-101975506D01*
X76001185Y-101878815D01*
X75904494Y-101799463D01*
X75794180Y-101740498D01*
X75721620Y-101718487D01*
X75853475Y-101586632D01*
X76015990Y-101343411D01*
X76127932Y-101073158D01*
X76185000Y-100786260D01*
X76185000Y-100493740D01*
X76127932Y-100206842D01*
X76015990Y-99936589D01*
X75853475Y-99693368D01*
X75646632Y-99486525D01*
X75473271Y-99370689D01*
X75548792Y-99128397D01*
X74700000Y-98279605D01*
X73851208Y-99128397D01*
X73926729Y-99370689D01*
X73753368Y-99486525D01*
X73546525Y-99693368D01*
X73384010Y-99936589D01*
X73272068Y-100206842D01*
X73215000Y-100493740D01*
X73215000Y-100786260D01*
X73272068Y-101073158D01*
X73384010Y-101343411D01*
X73546525Y-101586632D01*
X73678380Y-101718487D01*
X73605820Y-101740498D01*
X73495506Y-101799463D01*
X73398815Y-101878815D01*
X73319463Y-101975506D01*
X73260498Y-102085820D01*
X73224188Y-102205518D01*
X73211928Y-102330000D01*
X72329673Y-102330000D01*
X72217588Y-102179731D01*
X72001355Y-101984822D01*
X71884466Y-101915195D01*
X72066632Y-101793475D01*
X72273475Y-101586632D01*
X72435990Y-101343411D01*
X72547932Y-101073158D01*
X72605000Y-100786260D01*
X72605000Y-100493740D01*
X72547932Y-100206842D01*
X72435990Y-99936589D01*
X72273475Y-99693368D01*
X72141620Y-99561513D01*
X72214180Y-99539502D01*
X72324494Y-99480537D01*
X72421185Y-99401185D01*
X72500537Y-99304494D01*
X72559502Y-99194180D01*
X72595812Y-99074482D01*
X72608072Y-98950000D01*
X72608072Y-97250000D01*
X72600480Y-97172910D01*
X73601507Y-97181115D01*
X73671601Y-97251209D01*
X73422528Y-97328843D01*
X73296629Y-97592883D01*
X73224661Y-97876411D01*
X73209389Y-98168531D01*
X73251401Y-98458019D01*
X73349081Y-98733747D01*
X73422528Y-98871157D01*
X73671603Y-98948792D01*
X74520395Y-98100000D01*
X74506253Y-98085858D01*
X74685858Y-97906253D01*
X74700000Y-97920395D01*
X74714143Y-97906253D01*
X74893748Y-98085858D01*
X74879605Y-98100000D01*
X75728397Y-98948792D01*
X75977472Y-98871157D01*
X76103371Y-98607117D01*
X76175339Y-98323589D01*
X76190611Y-98031469D01*
X76148599Y-97741981D01*
X76050919Y-97466253D01*
X75977472Y-97328843D01*
X75878715Y-97298061D01*
X81765000Y-97298061D01*
X81765000Y-97501939D01*
X81804774Y-97701898D01*
X81882795Y-97890256D01*
X81996063Y-98059774D01*
X82140226Y-98203937D01*
X82309744Y-98317205D01*
X82498102Y-98395226D01*
X82698061Y-98435000D01*
X82901939Y-98435000D01*
X83101898Y-98395226D01*
X83290256Y-98317205D01*
X83459774Y-98203937D01*
X83603937Y-98059774D01*
X83717205Y-97890256D01*
X83795226Y-97701898D01*
X83835000Y-97501939D01*
X83835000Y-97298061D01*
X83795226Y-97098102D01*
X83717205Y-96909744D01*
X83603937Y-96740226D01*
X83459774Y-96596063D01*
X83290256Y-96482795D01*
X83101898Y-96404774D01*
X82901939Y-96365000D01*
X82698061Y-96365000D01*
X82498102Y-96404774D01*
X82309744Y-96482795D01*
X82140226Y-96596063D01*
X81996063Y-96740226D01*
X81882795Y-96909744D01*
X81804774Y-97098102D01*
X81765000Y-97298061D01*
X75878715Y-97298061D01*
X75728399Y-97251209D01*
X75780631Y-97198977D01*
X79198959Y-97226996D01*
X79223755Y-97224759D01*
X79247637Y-97217727D01*
X79269690Y-97206171D01*
X79283486Y-97195703D01*
X83356153Y-93642951D01*
X83938171Y-93160000D01*
X85861928Y-93160000D01*
X85861928Y-96000000D01*
G37*
X85861928Y-96000000D02*
X85874188Y-96124482D01*
X85910498Y-96244180D01*
X85969463Y-96354494D01*
X86048815Y-96451185D01*
X86145506Y-96530537D01*
X86255820Y-96589502D01*
X86375518Y-96625812D01*
X86500000Y-96638072D01*
X92500000Y-96638072D01*
X92624482Y-96625812D01*
X92744180Y-96589502D01*
X92854494Y-96530537D01*
X92951185Y-96451185D01*
X93030537Y-96354494D01*
X93089502Y-96244180D01*
X93125812Y-96124482D01*
X93138072Y-96000000D01*
X93138072Y-93160000D01*
X94950235Y-93160000D01*
X99873000Y-101036424D01*
X99873000Y-112358498D01*
X96897507Y-116425005D01*
X96884846Y-116446442D01*
X96876610Y-116469936D01*
X96873000Y-116500000D01*
X96873000Y-121600000D01*
X96875440Y-121624776D01*
X96882667Y-121648601D01*
X96895069Y-121671544D01*
X99873000Y-126039176D01*
X99873000Y-132909289D01*
X99859774Y-132896063D01*
X99690256Y-132782795D01*
X99501898Y-132704774D01*
X99301939Y-132665000D01*
X99098061Y-132665000D01*
X98898102Y-132704774D01*
X98709744Y-132782795D01*
X98540226Y-132896063D01*
X98396063Y-133040226D01*
X98282795Y-133209744D01*
X98204774Y-133398102D01*
X98165000Y-133598061D01*
X98165000Y-133801939D01*
X98204774Y-134001898D01*
X98282795Y-134190256D01*
X98396063Y-134359774D01*
X98540226Y-134503937D01*
X98709744Y-134617205D01*
X98898102Y-134695226D01*
X99098061Y-134735000D01*
X99301939Y-134735000D01*
X99501898Y-134695226D01*
X99690256Y-134617205D01*
X99859774Y-134503937D01*
X99873000Y-134490711D01*
X99873000Y-135959625D01*
X94096315Y-144126662D01*
X94084000Y-144148299D01*
X94076143Y-144171923D01*
X94073000Y-144200000D01*
X94073000Y-148840000D01*
X85160000Y-148840000D01*
X85160000Y-145335224D01*
X85182795Y-145390256D01*
X85296063Y-145559774D01*
X85440226Y-145703937D01*
X85609744Y-145817205D01*
X85798102Y-145895226D01*
X85998061Y-145935000D01*
X86201939Y-145935000D01*
X86401898Y-145895226D01*
X86590256Y-145817205D01*
X86759774Y-145703937D01*
X86903937Y-145559774D01*
X87017205Y-145390256D01*
X87095226Y-145201898D01*
X87135000Y-145001939D01*
X87135000Y-144798061D01*
X87095226Y-144598102D01*
X87017205Y-144409744D01*
X86903937Y-144240226D01*
X86759774Y-144096063D01*
X86672984Y-144038072D01*
X92500000Y-144038072D01*
X92624482Y-144025812D01*
X92744180Y-143989502D01*
X92854494Y-143930537D01*
X92951185Y-143851185D01*
X93030537Y-143754494D01*
X93089502Y-143644180D01*
X93125812Y-143524482D01*
X93138072Y-143400000D01*
X93138072Y-140400000D01*
X93125812Y-140275518D01*
X93089502Y-140155820D01*
X93030537Y-140045506D01*
X92951185Y-139948815D01*
X92854494Y-139869463D01*
X92744180Y-139810498D01*
X92624482Y-139774188D01*
X92500000Y-139761928D01*
X86500000Y-139761928D01*
X86375518Y-139774188D01*
X86255820Y-139810498D01*
X86145506Y-139869463D01*
X86048815Y-139948815D01*
X85969463Y-140045506D01*
X85910498Y-140155820D01*
X85874188Y-140275518D01*
X85861928Y-140400000D01*
X85861928Y-143400000D01*
X85874188Y-143524482D01*
X85910498Y-143644180D01*
X85969463Y-143754494D01*
X86048815Y-143851185D01*
X86065649Y-143865000D01*
X85998061Y-143865000D01*
X85798102Y-143904774D01*
X85609744Y-143982795D01*
X85440226Y-144096063D01*
X85296063Y-144240226D01*
X85182795Y-144409744D01*
X85160000Y-144464776D01*
X85160000Y-143043644D01*
X85162810Y-143022496D01*
X85160000Y-142978814D01*
X85160000Y-142967581D01*
X85157917Y-142946428D01*
X85154464Y-142892756D01*
X85151557Y-142881853D01*
X85150450Y-142870617D01*
X85134826Y-142819111D01*
X85127000Y-142789764D01*
X85127000Y-142700000D01*
X85124560Y-142675224D01*
X85117333Y-142651399D01*
X85105597Y-142629443D01*
X85089803Y-142610197D01*
X85070557Y-142594403D01*
X85051011Y-142583695D01*
X84993033Y-142558266D01*
X84984585Y-142547229D01*
X84976109Y-142539777D01*
X84968948Y-142531052D01*
X84927366Y-142496926D01*
X84886944Y-142461391D01*
X84877171Y-142455733D01*
X84868449Y-142448575D01*
X84821016Y-142423222D01*
X84802623Y-142412573D01*
X84792399Y-142407926D01*
X84753792Y-142387290D01*
X84733374Y-142381096D01*
X79660000Y-140075018D01*
X79660000Y-139598061D01*
X81965000Y-139598061D01*
X81965000Y-139801939D01*
X82004774Y-140001898D01*
X82082795Y-140190256D01*
X82196063Y-140359774D01*
X82340226Y-140503937D01*
X82509744Y-140617205D01*
X82698102Y-140695226D01*
X82898061Y-140735000D01*
X83101939Y-140735000D01*
X83301898Y-140695226D01*
X83490256Y-140617205D01*
X83650000Y-140510468D01*
X83809744Y-140617205D01*
X83998102Y-140695226D01*
X84198061Y-140735000D01*
X84401939Y-140735000D01*
X84601898Y-140695226D01*
X84790256Y-140617205D01*
X84959774Y-140503937D01*
X85103937Y-140359774D01*
X85217205Y-140190256D01*
X85295226Y-140001898D01*
X85335000Y-139801939D01*
X85335000Y-139598061D01*
X85295226Y-139398102D01*
X85217205Y-139209744D01*
X85103937Y-139040226D01*
X84959774Y-138896063D01*
X84790256Y-138782795D01*
X84601898Y-138704774D01*
X84401939Y-138665000D01*
X84198061Y-138665000D01*
X83998102Y-138704774D01*
X83809744Y-138782795D01*
X83650000Y-138889532D01*
X83490256Y-138782795D01*
X83301898Y-138704774D01*
X83101939Y-138665000D01*
X82898061Y-138665000D01*
X82698102Y-138704774D01*
X82509744Y-138782795D01*
X82340226Y-138896063D01*
X82196063Y-139040226D01*
X82082795Y-139209744D01*
X82004774Y-139398102D01*
X81965000Y-139598061D01*
X79660000Y-139598061D01*
X79660000Y-121098061D01*
X79965000Y-121098061D01*
X79965000Y-121301939D01*
X80004774Y-121501898D01*
X80082795Y-121690256D01*
X80196063Y-121859774D01*
X80340226Y-122003937D01*
X80509744Y-122117205D01*
X80698102Y-122195226D01*
X80898061Y-122235000D01*
X81101939Y-122235000D01*
X81301898Y-122195226D01*
X81490256Y-122117205D01*
X81659774Y-122003937D01*
X81803937Y-121859774D01*
X81900000Y-121716005D01*
X81996063Y-121859774D01*
X82140226Y-122003937D01*
X82309744Y-122117205D01*
X82498102Y-122195226D01*
X82698061Y-122235000D01*
X82901939Y-122235000D01*
X83101898Y-122195226D01*
X83290256Y-122117205D01*
X83459774Y-122003937D01*
X83603937Y-121859774D01*
X83717205Y-121690256D01*
X83795226Y-121501898D01*
X83835000Y-121301939D01*
X83835000Y-121098061D01*
X83795226Y-120898102D01*
X83717205Y-120709744D01*
X83603937Y-120540226D01*
X83459774Y-120396063D01*
X83290256Y-120282795D01*
X83101898Y-120204774D01*
X82901939Y-120165000D01*
X82698061Y-120165000D01*
X82498102Y-120204774D01*
X82309744Y-120282795D01*
X82140226Y-120396063D01*
X81996063Y-120540226D01*
X81900000Y-120683995D01*
X81803937Y-120540226D01*
X81659774Y-120396063D01*
X81490256Y-120282795D01*
X81301898Y-120204774D01*
X81101939Y-120165000D01*
X80898061Y-120165000D01*
X80698102Y-120204774D01*
X80509744Y-120282795D01*
X80340226Y-120396063D01*
X80196063Y-120540226D01*
X80082795Y-120709744D01*
X80004774Y-120898102D01*
X79965000Y-121098061D01*
X79660000Y-121098061D01*
X79660000Y-117998061D01*
X79665000Y-117998061D01*
X79665000Y-118201939D01*
X79704774Y-118401898D01*
X79782795Y-118590256D01*
X79896063Y-118759774D01*
X80040226Y-118903937D01*
X80209744Y-119017205D01*
X80398102Y-119095226D01*
X80598061Y-119135000D01*
X80801939Y-119135000D01*
X81001898Y-119095226D01*
X81190256Y-119017205D01*
X81359774Y-118903937D01*
X81503937Y-118759774D01*
X81617205Y-118590256D01*
X81695226Y-118401898D01*
X81735000Y-118201939D01*
X81735000Y-117998061D01*
X83065000Y-117998061D01*
X83065000Y-118201939D01*
X83104774Y-118401898D01*
X83182795Y-118590256D01*
X83296063Y-118759774D01*
X83440226Y-118903937D01*
X83609744Y-119017205D01*
X83798102Y-119095226D01*
X83998061Y-119135000D01*
X84201939Y-119135000D01*
X84401898Y-119095226D01*
X84590256Y-119017205D01*
X84759774Y-118903937D01*
X84903937Y-118759774D01*
X85017205Y-118590256D01*
X85095226Y-118401898D01*
X85135000Y-118201939D01*
X85135000Y-117998061D01*
X85095226Y-117798102D01*
X85017205Y-117609744D01*
X84903937Y-117440226D01*
X84759774Y-117296063D01*
X84590256Y-117182795D01*
X84401898Y-117104774D01*
X84201939Y-117065000D01*
X83998061Y-117065000D01*
X83798102Y-117104774D01*
X83609744Y-117182795D01*
X83440226Y-117296063D01*
X83296063Y-117440226D01*
X83182795Y-117609744D01*
X83104774Y-117798102D01*
X83065000Y-117998061D01*
X81735000Y-117998061D01*
X81695226Y-117798102D01*
X81617205Y-117609744D01*
X81503937Y-117440226D01*
X81359774Y-117296063D01*
X81190256Y-117182795D01*
X81001898Y-117104774D01*
X80801939Y-117065000D01*
X80598061Y-117065000D01*
X80398102Y-117104774D01*
X80209744Y-117182795D01*
X80040226Y-117296063D01*
X79896063Y-117440226D01*
X79782795Y-117609744D01*
X79704774Y-117798102D01*
X79665000Y-117998061D01*
X79660000Y-117998061D01*
X79660000Y-113632418D01*
X79663193Y-113600000D01*
X79650450Y-113470617D01*
X79612710Y-113346207D01*
X79551425Y-113231550D01*
X79526994Y-113201781D01*
X79526999Y-113200470D01*
X79524651Y-113175685D01*
X79517512Y-113151834D01*
X79505857Y-113129834D01*
X79490135Y-113110531D01*
X79470948Y-113094665D01*
X79449035Y-113082848D01*
X79425238Y-113075533D01*
X79400000Y-113073000D01*
X79398212Y-113073000D01*
X79368450Y-113048575D01*
X79253793Y-112987290D01*
X79129383Y-112949550D01*
X79032419Y-112940000D01*
X79000000Y-112936807D01*
X78967581Y-112940000D01*
X67260000Y-112940000D01*
X67260000Y-103873730D01*
X67264010Y-103883411D01*
X67426525Y-104126632D01*
X67633368Y-104333475D01*
X67876589Y-104495990D01*
X68146842Y-104607932D01*
X68433740Y-104665000D01*
X68726260Y-104665000D01*
X69013158Y-104607932D01*
X69283411Y-104495990D01*
X69526632Y-104333475D01*
X69733475Y-104126632D01*
X69851100Y-103950594D01*
X70022412Y-104180269D01*
X70238645Y-104375178D01*
X70468218Y-104511928D01*
X70250000Y-104511928D01*
X70125518Y-104524188D01*
X70005820Y-104560498D01*
X69895506Y-104619463D01*
X69798815Y-104698815D01*
X69719463Y-104795506D01*
X69660498Y-104905820D01*
X69624188Y-105025518D01*
X69611928Y-105150000D01*
X69611928Y-106850000D01*
X69624188Y-106974482D01*
X69660498Y-107094180D01*
X69719463Y-107204494D01*
X69798815Y-107301185D01*
X69895506Y-107380537D01*
X70005820Y-107439502D01*
X70125518Y-107475812D01*
X70250000Y-107488072D01*
X71950000Y-107488072D01*
X72074482Y-107475812D01*
X72194180Y-107439502D01*
X72304494Y-107380537D01*
X72401185Y-107301185D01*
X72480537Y-107204494D01*
X72539502Y-107094180D01*
X72575812Y-106974482D01*
X72588072Y-106850000D01*
X72588072Y-105150000D01*
X72575812Y-105025518D01*
X72539502Y-104905820D01*
X72480537Y-104795506D01*
X72401185Y-104698815D01*
X72304494Y-104619463D01*
X72194180Y-104560498D01*
X72074482Y-104524188D01*
X71950000Y-104511928D01*
X71771782Y-104511928D01*
X72001355Y-104375178D01*
X72217588Y-104180269D01*
X72391641Y-103946920D01*
X72516825Y-103684099D01*
X72561476Y-103536890D01*
X72440155Y-103307000D01*
X71247000Y-103307000D01*
X71247000Y-103327000D01*
X70993000Y-103327000D01*
X70993000Y-103307000D01*
X70973000Y-103307000D01*
X70973000Y-103053000D01*
X70993000Y-103053000D01*
X70993000Y-103033000D01*
X71247000Y-103033000D01*
X71247000Y-103053000D01*
X72440155Y-103053000D01*
X72561476Y-102823110D01*
X72516825Y-102675901D01*
X72391641Y-102413080D01*
X72329673Y-102330000D01*
X73211928Y-102330000D01*
X73211928Y-104030000D01*
X73224188Y-104154482D01*
X73260498Y-104274180D01*
X73319463Y-104384494D01*
X73398815Y-104481185D01*
X73495506Y-104560537D01*
X73605820Y-104619502D01*
X73678380Y-104641513D01*
X73546525Y-104773368D01*
X73384010Y-105016589D01*
X73272068Y-105286842D01*
X73215000Y-105573740D01*
X73215000Y-105866260D01*
X73272068Y-106153158D01*
X73384010Y-106423411D01*
X73546525Y-106666632D01*
X73753368Y-106873475D01*
X73927760Y-106990000D01*
X73753368Y-107106525D01*
X73546525Y-107313368D01*
X73384010Y-107556589D01*
X73272068Y-107826842D01*
X73215000Y-108113740D01*
X73215000Y-108406260D01*
X73272068Y-108693158D01*
X73384010Y-108963411D01*
X73546525Y-109206632D01*
X73753368Y-109413475D01*
X73927760Y-109530000D01*
X73753368Y-109646525D01*
X73546525Y-109853368D01*
X73384010Y-110096589D01*
X73272068Y-110366842D01*
X73215000Y-110653740D01*
X73215000Y-110946260D01*
X73272068Y-111233158D01*
X73384010Y-111503411D01*
X73546525Y-111746632D01*
X73753368Y-111953475D01*
X73996589Y-112115990D01*
X74266842Y-112227932D01*
X74553740Y-112285000D01*
X74846260Y-112285000D01*
X75133158Y-112227932D01*
X75403411Y-112115990D01*
X75646632Y-111953475D01*
X75853475Y-111746632D01*
X76015990Y-111503411D01*
X76127932Y-111233158D01*
X76185000Y-110946260D01*
X76185000Y-110653740D01*
X76127932Y-110366842D01*
X76015990Y-110096589D01*
X75853475Y-109853368D01*
X75646632Y-109646525D01*
X75554555Y-109585001D01*
X78130482Y-109585001D01*
X78115000Y-109662835D01*
X78115000Y-109837165D01*
X78149010Y-110008145D01*
X78215723Y-110169205D01*
X78312576Y-110314155D01*
X78435845Y-110437424D01*
X78529496Y-110500000D01*
X78435845Y-110562576D01*
X78312576Y-110685845D01*
X78215723Y-110830795D01*
X78149010Y-110991855D01*
X78115000Y-111162835D01*
X78115000Y-111337165D01*
X78149010Y-111508145D01*
X78215723Y-111669205D01*
X78312576Y-111814155D01*
X78435845Y-111937424D01*
X78580795Y-112034277D01*
X78741855Y-112100990D01*
X78912835Y-112135000D01*
X79087165Y-112135000D01*
X79258145Y-112100990D01*
X79419205Y-112034277D01*
X79564155Y-111937424D01*
X79687424Y-111814155D01*
X79784277Y-111669205D01*
X79850990Y-111508145D01*
X79885000Y-111337165D01*
X79885000Y-111162835D01*
X79850990Y-110991855D01*
X79784277Y-110830795D01*
X79687424Y-110685845D01*
X79564155Y-110562576D01*
X79470504Y-110500000D01*
X79503892Y-110477691D01*
X83340001Y-114313801D01*
X83340001Y-114596288D01*
X83296063Y-114640226D01*
X83182795Y-114809744D01*
X83104774Y-114998102D01*
X83065000Y-115198061D01*
X83065000Y-115401939D01*
X83104774Y-115601898D01*
X83182795Y-115790256D01*
X83296063Y-115959774D01*
X83440226Y-116103937D01*
X83609744Y-116217205D01*
X83798102Y-116295226D01*
X83998061Y-116335000D01*
X84201939Y-116335000D01*
X84401898Y-116295226D01*
X84590256Y-116217205D01*
X84650000Y-116177285D01*
X84709744Y-116217205D01*
X84898102Y-116295226D01*
X85098061Y-116335000D01*
X85301939Y-116335000D01*
X85501898Y-116295226D01*
X85690256Y-116217205D01*
X85859774Y-116103937D01*
X85861928Y-116101783D01*
X85861928Y-118000000D01*
X85874188Y-118124482D01*
X85897096Y-118200000D01*
X85874188Y-118275518D01*
X85861928Y-118400000D01*
X85861928Y-121400000D01*
X85874188Y-121524482D01*
X85910498Y-121644180D01*
X85969463Y-121754494D01*
X86048815Y-121851185D01*
X86145506Y-121930537D01*
X86255820Y-121989502D01*
X86375518Y-122025812D01*
X86500000Y-122038072D01*
X92500000Y-122038072D01*
X92624482Y-122025812D01*
X92744180Y-121989502D01*
X92854494Y-121930537D01*
X92951185Y-121851185D01*
X93030537Y-121754494D01*
X93089502Y-121644180D01*
X93125812Y-121524482D01*
X93138072Y-121400000D01*
X93138072Y-120898061D01*
X93965000Y-120898061D01*
X93965000Y-121101939D01*
X94004774Y-121301898D01*
X94082795Y-121490256D01*
X94196063Y-121659774D01*
X94340226Y-121803937D01*
X94509744Y-121917205D01*
X94698102Y-121995226D01*
X94898061Y-122035000D01*
X95101939Y-122035000D01*
X95301898Y-121995226D01*
X95490256Y-121917205D01*
X95659774Y-121803937D01*
X95803937Y-121659774D01*
X95917205Y-121490256D01*
X95995226Y-121301898D01*
X96035000Y-121101939D01*
X96035000Y-120898061D01*
X95995226Y-120698102D01*
X95917205Y-120509744D01*
X95803937Y-120340226D01*
X95659774Y-120196063D01*
X95490256Y-120082795D01*
X95301898Y-120004774D01*
X95101939Y-119965000D01*
X94898061Y-119965000D01*
X94698102Y-120004774D01*
X94509744Y-120082795D01*
X94340226Y-120196063D01*
X94196063Y-120340226D01*
X94082795Y-120509744D01*
X94004774Y-120698102D01*
X93965000Y-120898061D01*
X93138072Y-120898061D01*
X93138072Y-118400000D01*
X93125812Y-118275518D01*
X93102904Y-118200000D01*
X93125812Y-118124482D01*
X93138072Y-118000000D01*
X93138072Y-115000000D01*
X93125812Y-114875518D01*
X93089502Y-114755820D01*
X93030537Y-114645506D01*
X92951185Y-114548815D01*
X92854494Y-114469463D01*
X92744180Y-114410498D01*
X92624482Y-114374188D01*
X92500000Y-114361928D01*
X86500000Y-114361928D01*
X86375518Y-114374188D01*
X86255820Y-114410498D01*
X86145506Y-114469463D01*
X86048815Y-114548815D01*
X85987382Y-114623671D01*
X85960000Y-114596289D01*
X85960000Y-112564323D01*
X85963676Y-112526998D01*
X85960000Y-112489673D01*
X85960000Y-112489665D01*
X85949003Y-112378012D01*
X85905546Y-112234751D01*
X85834974Y-112102722D01*
X85740001Y-111986997D01*
X85711003Y-111963199D01*
X80561807Y-106814004D01*
X80538004Y-106785000D01*
X80422279Y-106690027D01*
X80290250Y-106619455D01*
X80146989Y-106575998D01*
X80035336Y-106565001D01*
X80035325Y-106565001D01*
X79998003Y-106561325D01*
X79960681Y-106565001D01*
X79865540Y-106565001D01*
X79850990Y-106491855D01*
X79784277Y-106330795D01*
X79687424Y-106185845D01*
X79564155Y-106062576D01*
X79470504Y-106000000D01*
X79564155Y-105937424D01*
X79687424Y-105814155D01*
X79784277Y-105669205D01*
X79850990Y-105508145D01*
X79885000Y-105337165D01*
X79885000Y-105162835D01*
X79850990Y-104991855D01*
X79784277Y-104830795D01*
X79687424Y-104685845D01*
X79564155Y-104562576D01*
X79470504Y-104500000D01*
X79509939Y-104473650D01*
X79640226Y-104603937D01*
X79809744Y-104717205D01*
X79998102Y-104795226D01*
X80198061Y-104835000D01*
X80401939Y-104835000D01*
X80601898Y-104795226D01*
X80790256Y-104717205D01*
X80959774Y-104603937D01*
X81103937Y-104459774D01*
X81217205Y-104290256D01*
X81295226Y-104101898D01*
X81335000Y-103901939D01*
X81335000Y-103698061D01*
X81295226Y-103498102D01*
X81217205Y-103309744D01*
X81103937Y-103140226D01*
X80959774Y-102996063D01*
X80790256Y-102882795D01*
X80601898Y-102804774D01*
X80401939Y-102765000D01*
X80198061Y-102765000D01*
X79998102Y-102804774D01*
X79809744Y-102882795D01*
X79640226Y-102996063D01*
X79568934Y-103067355D01*
X79564155Y-103062576D01*
X79470504Y-103000000D01*
X79564155Y-102937424D01*
X79687424Y-102814155D01*
X79784277Y-102669205D01*
X79841746Y-102530461D01*
X79998102Y-102595226D01*
X80198061Y-102635000D01*
X80401939Y-102635000D01*
X80601898Y-102595226D01*
X80790256Y-102517205D01*
X80959774Y-102403937D01*
X81103937Y-102259774D01*
X81217205Y-102090256D01*
X81295226Y-101901898D01*
X81335000Y-101701939D01*
X81335000Y-101498061D01*
X81295226Y-101298102D01*
X81217205Y-101109744D01*
X81103937Y-100940226D01*
X80959774Y-100796063D01*
X80790256Y-100682795D01*
X80601898Y-100604774D01*
X80401939Y-100565000D01*
X80198061Y-100565000D01*
X79998102Y-100604774D01*
X79882940Y-100652476D01*
X79850990Y-100491855D01*
X79784277Y-100330795D01*
X79687424Y-100185845D01*
X79564155Y-100062576D01*
X79470504Y-100000000D01*
X79564155Y-99937424D01*
X79687424Y-99814155D01*
X79784277Y-99669205D01*
X79813745Y-99598061D01*
X96765000Y-99598061D01*
X96765000Y-99801939D01*
X96804774Y-100001898D01*
X96882795Y-100190256D01*
X96996063Y-100359774D01*
X97140226Y-100503937D01*
X97309744Y-100617205D01*
X97498102Y-100695226D01*
X97698061Y-100735000D01*
X97901939Y-100735000D01*
X98101898Y-100695226D01*
X98290256Y-100617205D01*
X98459774Y-100503937D01*
X98603937Y-100359774D01*
X98717205Y-100190256D01*
X98795226Y-100001898D01*
X98835000Y-99801939D01*
X98835000Y-99598061D01*
X98795226Y-99398102D01*
X98717205Y-99209744D01*
X98603937Y-99040226D01*
X98459774Y-98896063D01*
X98290256Y-98782795D01*
X98101898Y-98704774D01*
X97901939Y-98665000D01*
X97698061Y-98665000D01*
X97498102Y-98704774D01*
X97309744Y-98782795D01*
X97140226Y-98896063D01*
X96996063Y-99040226D01*
X96882795Y-99209744D01*
X96804774Y-99398102D01*
X96765000Y-99598061D01*
X79813745Y-99598061D01*
X79850990Y-99508145D01*
X79885000Y-99337165D01*
X79885000Y-99162835D01*
X79850990Y-98991855D01*
X79784277Y-98830795D01*
X79687424Y-98685845D01*
X79564155Y-98562576D01*
X79419205Y-98465723D01*
X79258145Y-98399010D01*
X79087165Y-98365000D01*
X78912835Y-98365000D01*
X78741855Y-98399010D01*
X78580795Y-98465723D01*
X78435845Y-98562576D01*
X78312576Y-98685845D01*
X78215723Y-98830795D01*
X78149010Y-98991855D01*
X78115000Y-99162835D01*
X78115000Y-99337165D01*
X78149010Y-99508145D01*
X78215723Y-99669205D01*
X78312576Y-99814155D01*
X78435845Y-99937424D01*
X78529496Y-100000000D01*
X78435845Y-100062576D01*
X78312576Y-100185845D01*
X78215723Y-100330795D01*
X78149010Y-100491855D01*
X78115000Y-100662835D01*
X78115000Y-100837165D01*
X78149010Y-101008145D01*
X78215723Y-101169205D01*
X78312576Y-101314155D01*
X78435845Y-101437424D01*
X78529496Y-101500000D01*
X78435845Y-101562576D01*
X78312576Y-101685845D01*
X78215723Y-101830795D01*
X78149010Y-101991855D01*
X78115000Y-102162835D01*
X78115000Y-102337165D01*
X78149010Y-102508145D01*
X78215723Y-102669205D01*
X78312576Y-102814155D01*
X78435845Y-102937424D01*
X78529496Y-103000000D01*
X78435845Y-103062576D01*
X78312576Y-103185845D01*
X78215723Y-103330795D01*
X78149010Y-103491855D01*
X78115000Y-103662835D01*
X78115000Y-103837165D01*
X78149010Y-104008145D01*
X78215723Y-104169205D01*
X78312576Y-104314155D01*
X78435845Y-104437424D01*
X78529496Y-104500000D01*
X78435845Y-104562576D01*
X78312576Y-104685845D01*
X78215723Y-104830795D01*
X78149010Y-104991855D01*
X78115000Y-105162835D01*
X78115000Y-105337165D01*
X78149010Y-105508145D01*
X78215723Y-105669205D01*
X78312576Y-105814155D01*
X78435845Y-105937424D01*
X78529496Y-106000000D01*
X78435845Y-106062576D01*
X78312576Y-106185845D01*
X78215723Y-106330795D01*
X78149010Y-106491855D01*
X78134460Y-106565001D01*
X76619803Y-106565001D01*
X76141210Y-106086408D01*
X76185000Y-105866260D01*
X76185000Y-105573740D01*
X76127932Y-105286842D01*
X76015990Y-105016589D01*
X75853475Y-104773368D01*
X75721620Y-104641513D01*
X75794180Y-104619502D01*
X75904494Y-104560537D01*
X76001185Y-104481185D01*
X76080537Y-104384494D01*
X76139502Y-104274180D01*
X76175812Y-104154482D01*
X76188072Y-104030000D01*
X76188072Y-102330000D01*
X76175812Y-102205518D01*
X76139502Y-102085820D01*
X76080537Y-101975506D01*
X76001185Y-101878815D01*
X75904494Y-101799463D01*
X75794180Y-101740498D01*
X75721620Y-101718487D01*
X75853475Y-101586632D01*
X76015990Y-101343411D01*
X76127932Y-101073158D01*
X76185000Y-100786260D01*
X76185000Y-100493740D01*
X76127932Y-100206842D01*
X76015990Y-99936589D01*
X75853475Y-99693368D01*
X75646632Y-99486525D01*
X75473271Y-99370689D01*
X75548792Y-99128397D01*
X74700000Y-98279605D01*
X73851208Y-99128397D01*
X73926729Y-99370689D01*
X73753368Y-99486525D01*
X73546525Y-99693368D01*
X73384010Y-99936589D01*
X73272068Y-100206842D01*
X73215000Y-100493740D01*
X73215000Y-100786260D01*
X73272068Y-101073158D01*
X73384010Y-101343411D01*
X73546525Y-101586632D01*
X73678380Y-101718487D01*
X73605820Y-101740498D01*
X73495506Y-101799463D01*
X73398815Y-101878815D01*
X73319463Y-101975506D01*
X73260498Y-102085820D01*
X73224188Y-102205518D01*
X73211928Y-102330000D01*
X72329673Y-102330000D01*
X72217588Y-102179731D01*
X72001355Y-101984822D01*
X71884466Y-101915195D01*
X72066632Y-101793475D01*
X72273475Y-101586632D01*
X72435990Y-101343411D01*
X72547932Y-101073158D01*
X72605000Y-100786260D01*
X72605000Y-100493740D01*
X72547932Y-100206842D01*
X72435990Y-99936589D01*
X72273475Y-99693368D01*
X72141620Y-99561513D01*
X72214180Y-99539502D01*
X72324494Y-99480537D01*
X72421185Y-99401185D01*
X72500537Y-99304494D01*
X72559502Y-99194180D01*
X72595812Y-99074482D01*
X72608072Y-98950000D01*
X72608072Y-97250000D01*
X72600480Y-97172910D01*
X73601507Y-97181115D01*
X73671601Y-97251209D01*
X73422528Y-97328843D01*
X73296629Y-97592883D01*
X73224661Y-97876411D01*
X73209389Y-98168531D01*
X73251401Y-98458019D01*
X73349081Y-98733747D01*
X73422528Y-98871157D01*
X73671603Y-98948792D01*
X74520395Y-98100000D01*
X74506253Y-98085858D01*
X74685858Y-97906253D01*
X74700000Y-97920395D01*
X74714143Y-97906253D01*
X74893748Y-98085858D01*
X74879605Y-98100000D01*
X75728397Y-98948792D01*
X75977472Y-98871157D01*
X76103371Y-98607117D01*
X76175339Y-98323589D01*
X76190611Y-98031469D01*
X76148599Y-97741981D01*
X76050919Y-97466253D01*
X75977472Y-97328843D01*
X75878715Y-97298061D01*
X81765000Y-97298061D01*
X81765000Y-97501939D01*
X81804774Y-97701898D01*
X81882795Y-97890256D01*
X81996063Y-98059774D01*
X82140226Y-98203937D01*
X82309744Y-98317205D01*
X82498102Y-98395226D01*
X82698061Y-98435000D01*
X82901939Y-98435000D01*
X83101898Y-98395226D01*
X83290256Y-98317205D01*
X83459774Y-98203937D01*
X83603937Y-98059774D01*
X83717205Y-97890256D01*
X83795226Y-97701898D01*
X83835000Y-97501939D01*
X83835000Y-97298061D01*
X83795226Y-97098102D01*
X83717205Y-96909744D01*
X83603937Y-96740226D01*
X83459774Y-96596063D01*
X83290256Y-96482795D01*
X83101898Y-96404774D01*
X82901939Y-96365000D01*
X82698061Y-96365000D01*
X82498102Y-96404774D01*
X82309744Y-96482795D01*
X82140226Y-96596063D01*
X81996063Y-96740226D01*
X81882795Y-96909744D01*
X81804774Y-97098102D01*
X81765000Y-97298061D01*
X75878715Y-97298061D01*
X75728399Y-97251209D01*
X75780631Y-97198977D01*
X79198959Y-97226996D01*
X79223755Y-97224759D01*
X79247637Y-97217727D01*
X79269690Y-97206171D01*
X79283486Y-97195703D01*
X83356153Y-93642951D01*
X83938171Y-93160000D01*
X85861928Y-93160000D01*
X85861928Y-96000000D01*
M02*
