G04 #@! TF.GenerationSoftware,KiCad,Pcbnew,5.1.4*
G04 #@! TF.CreationDate,2019-11-13T20:32:36-05:00*
G04 #@! TF.ProjectId,PooferControl-Reciever-PlugPlane,506f6f66-6572-4436-9f6e-74726f6c2d52,rev?*
G04 #@! TF.SameCoordinates,Original*
G04 #@! TF.FileFunction,Legend,Top*
G04 #@! TF.FilePolarity,Positive*
%FSLAX46Y46*%
G04 Gerber Fmt 4.6, Leading zero omitted, Abs format (unit mm)*
G04 Created by KiCad (PCBNEW 5.1.4) date 2019-11-13 20:32:36*
%MOMM*%
%LPD*%
G04 APERTURE LIST*
%ADD10C,0.120000*%
%ADD11C,0.150000*%
G04 APERTURE END LIST*
D10*
X101800000Y-91300000D02*
X112650000Y-91300000D01*
X101800000Y-86200000D02*
X101800000Y-91300000D01*
X102300000Y-86500000D02*
X101800000Y-86200000D01*
X102300000Y-81100000D02*
X102300000Y-86500000D01*
X101800000Y-81350000D02*
X102300000Y-81100000D01*
X101800000Y-81300000D02*
X101800000Y-81350000D01*
X101800000Y-79400000D02*
X101800000Y-81300000D01*
X102300000Y-79650000D02*
X101800000Y-79400000D01*
X102300000Y-78700000D02*
X102300000Y-79650000D01*
X112650000Y-78700000D02*
X102300000Y-78700000D01*
X112650000Y-91300000D02*
X112650000Y-78700000D01*
X113200000Y-93700000D02*
X102350000Y-93700000D01*
X113200000Y-98800000D02*
X113200000Y-93700000D01*
X112700000Y-98500000D02*
X113200000Y-98800000D01*
X112700000Y-103900000D02*
X112700000Y-98500000D01*
X113200000Y-103650000D02*
X112700000Y-103900000D01*
X113200000Y-103700000D02*
X113200000Y-103650000D01*
X113200000Y-105600000D02*
X113200000Y-103700000D01*
X112700000Y-105350000D02*
X113200000Y-105600000D01*
X112700000Y-106300000D02*
X112700000Y-105350000D01*
X102350000Y-106300000D02*
X112700000Y-106300000D01*
X102350000Y-93700000D02*
X102350000Y-106300000D01*
X170000000Y-105000000D02*
X170000000Y-80000000D01*
X197000000Y-105000000D02*
X170000000Y-105000000D01*
X197000000Y-80000000D02*
X197000000Y-105000000D01*
X170000000Y-80000000D02*
X197000000Y-80000000D01*
X220000000Y-105000000D02*
X220000000Y-80000000D01*
X247000000Y-105000000D02*
X220000000Y-105000000D01*
X247000000Y-80000000D02*
X247000000Y-105000000D01*
X220000000Y-80000000D02*
X247000000Y-80000000D01*
X70000000Y-80000000D02*
X97000000Y-80000000D01*
X97000000Y-80000000D02*
X97000000Y-105000000D01*
X97000000Y-105000000D02*
X70000000Y-105000000D01*
X70000000Y-105000000D02*
X70000000Y-80000000D01*
X150750000Y-106300000D02*
X166650000Y-106300000D01*
X150750000Y-101250000D02*
X150750000Y-106300000D01*
X151250000Y-101500000D02*
X150750000Y-101250000D01*
X151250000Y-96100000D02*
X151250000Y-101500000D01*
X150750000Y-96350000D02*
X151250000Y-96100000D01*
X150750000Y-94350000D02*
X150750000Y-96350000D01*
X151250000Y-94650000D02*
X150750000Y-94350000D01*
X151250000Y-93700000D02*
X151250000Y-94650000D01*
X166650000Y-93700000D02*
X151250000Y-93700000D01*
X166650000Y-106300000D02*
X166650000Y-93700000D01*
X154000000Y-90000000D02*
G75*
G03X154000000Y-90000000I-20500000J0D01*
G01*
X120000000Y-105000000D02*
X120000000Y-80000000D01*
X147000000Y-105000000D02*
X120000000Y-105000000D01*
X147000000Y-80000000D02*
X147000000Y-105000000D01*
X120000000Y-80000000D02*
X147000000Y-80000000D01*
D11*
X185071428Y-74928571D02*
X185214285Y-74976190D01*
X185261904Y-75023809D01*
X185309523Y-75119047D01*
X185309523Y-75261904D01*
X185261904Y-75357142D01*
X185214285Y-75404761D01*
X185119047Y-75452380D01*
X184738095Y-75452380D01*
X184738095Y-74452380D01*
X185071428Y-74452380D01*
X185166666Y-74500000D01*
X185214285Y-74547619D01*
X185261904Y-74642857D01*
X185261904Y-74738095D01*
X185214285Y-74833333D01*
X185166666Y-74880952D01*
X185071428Y-74928571D01*
X184738095Y-74928571D01*
X234761904Y-75166666D02*
X235238095Y-75166666D01*
X234666666Y-75452380D02*
X235000000Y-74452380D01*
X235333333Y-75452380D01*
X83595238Y-75357142D02*
X83547619Y-75404761D01*
X83404761Y-75452380D01*
X83309523Y-75452380D01*
X83166666Y-75404761D01*
X83071428Y-75309523D01*
X83023809Y-75214285D01*
X82976190Y-75023809D01*
X82976190Y-74880952D01*
X83023809Y-74690476D01*
X83071428Y-74595238D01*
X83166666Y-74500000D01*
X83309523Y-74452380D01*
X83404761Y-74452380D01*
X83547619Y-74500000D01*
X83595238Y-74547619D01*
X84023809Y-75452380D02*
X84023809Y-74452380D01*
X84023809Y-74928571D02*
X84595238Y-74928571D01*
X84595238Y-75452380D02*
X84595238Y-74452380D01*
X85023809Y-75166666D02*
X85500000Y-75166666D01*
X84928571Y-75452380D02*
X85261904Y-74452380D01*
X85595238Y-75452380D01*
X85928571Y-75452380D02*
X85928571Y-74452380D01*
X86404761Y-75452380D02*
X86404761Y-74452380D01*
X86976190Y-75452380D01*
X86976190Y-74452380D01*
X135309523Y-75357142D02*
X135261904Y-75404761D01*
X135119047Y-75452380D01*
X135023809Y-75452380D01*
X134880952Y-75404761D01*
X134785714Y-75309523D01*
X134738095Y-75214285D01*
X134690476Y-75023809D01*
X134690476Y-74880952D01*
X134738095Y-74690476D01*
X134785714Y-74595238D01*
X134880952Y-74500000D01*
X135023809Y-74452380D01*
X135119047Y-74452380D01*
X135261904Y-74500000D01*
X135309523Y-74547619D01*
M02*
