G04 #@! TF.GenerationSoftware,KiCad,Pcbnew,5.1.4*
G04 #@! TF.CreationDate,2019-11-13T20:32:36-05:00*
G04 #@! TF.ProjectId,PooferControl-Reciever-PlugPlane,506f6f66-6572-4436-9f6e-74726f6c2d52,rev?*
G04 #@! TF.SameCoordinates,Original*
G04 #@! TF.FileFunction,Legend,Bot*
G04 #@! TF.FilePolarity,Positive*
%FSLAX46Y46*%
G04 Gerber Fmt 4.6, Leading zero omitted, Abs format (unit mm)*
G04 Created by KiCad (PCBNEW 5.1.4) date 2019-11-13 20:32:36*
%MOMM*%
%LPD*%
G04 APERTURE LIST*
%ADD10C,0.150000*%
%ADD11C,0.120000*%
G04 APERTURE END LIST*
D10*
X110761904Y-79500000D02*
X110857142Y-79452380D01*
X111000000Y-79452380D01*
X111142857Y-79500000D01*
X111238095Y-79595238D01*
X111285714Y-79690476D01*
X111333333Y-79880952D01*
X111333333Y-80023809D01*
X111285714Y-80214285D01*
X111238095Y-80309523D01*
X111142857Y-80404761D01*
X111000000Y-80452380D01*
X110904761Y-80452380D01*
X110761904Y-80404761D01*
X110714285Y-80357142D01*
X110714285Y-80023809D01*
X110904761Y-80023809D01*
X110285714Y-80452380D02*
X110285714Y-79452380D01*
X109714285Y-80452380D01*
X109714285Y-79452380D01*
X109238095Y-80452380D02*
X109238095Y-79452380D01*
X109000000Y-79452380D01*
X108857142Y-79500000D01*
X108761904Y-79595238D01*
X108714285Y-79690476D01*
X108666666Y-79880952D01*
X108666666Y-80023809D01*
X108714285Y-80214285D01*
X108761904Y-80309523D01*
X108857142Y-80404761D01*
X109000000Y-80452380D01*
X109238095Y-80452380D01*
X105761904Y-79500000D02*
X105857142Y-79452380D01*
X106000000Y-79452380D01*
X106142857Y-79500000D01*
X106238095Y-79595238D01*
X106285714Y-79690476D01*
X106333333Y-79880952D01*
X106333333Y-80023809D01*
X106285714Y-80214285D01*
X106238095Y-80309523D01*
X106142857Y-80404761D01*
X106000000Y-80452380D01*
X105904761Y-80452380D01*
X105761904Y-80404761D01*
X105714285Y-80357142D01*
X105714285Y-80023809D01*
X105904761Y-80023809D01*
X105285714Y-80452380D02*
X105285714Y-79452380D01*
X104714285Y-80452380D01*
X104714285Y-79452380D01*
X104238095Y-80452380D02*
X104238095Y-79452380D01*
X104000000Y-79452380D01*
X103857142Y-79500000D01*
X103761904Y-79595238D01*
X103714285Y-79690476D01*
X103666666Y-79880952D01*
X103666666Y-80023809D01*
X103714285Y-80214285D01*
X103761904Y-80309523D01*
X103857142Y-80404761D01*
X104000000Y-80452380D01*
X104238095Y-80452380D01*
X111261904Y-105452380D02*
X111261904Y-104452380D01*
X110690476Y-105452380D01*
X110690476Y-104452380D01*
X110214285Y-104928571D02*
X109880952Y-104928571D01*
X109738095Y-105452380D02*
X110214285Y-105452380D01*
X110214285Y-104452380D01*
X109738095Y-104452380D01*
X109309523Y-104452380D02*
X109309523Y-105261904D01*
X109261904Y-105357142D01*
X109214285Y-105404761D01*
X109119047Y-105452380D01*
X108928571Y-105452380D01*
X108833333Y-105404761D01*
X108785714Y-105357142D01*
X108738095Y-105261904D01*
X108738095Y-104452380D01*
X106190476Y-104627380D02*
X106190476Y-103627380D01*
X106190476Y-104103571D02*
X105619047Y-104103571D01*
X105619047Y-104627380D02*
X105619047Y-103627380D01*
X104952380Y-103627380D02*
X104761904Y-103627380D01*
X104666666Y-103675000D01*
X104571428Y-103770238D01*
X104523809Y-103960714D01*
X104523809Y-104294047D01*
X104571428Y-104484523D01*
X104666666Y-104579761D01*
X104761904Y-104627380D01*
X104952380Y-104627380D01*
X105047619Y-104579761D01*
X105142857Y-104484523D01*
X105190476Y-104294047D01*
X105190476Y-103960714D01*
X105142857Y-103770238D01*
X105047619Y-103675000D01*
X104952380Y-103627380D01*
X104238095Y-103627380D02*
X103666666Y-103627380D01*
X103952380Y-104627380D02*
X103952380Y-103627380D01*
X106404761Y-106182142D02*
X106452380Y-106229761D01*
X106595238Y-106277380D01*
X106690476Y-106277380D01*
X106833333Y-106229761D01*
X106928571Y-106134523D01*
X106976190Y-106039285D01*
X107023809Y-105848809D01*
X107023809Y-105705952D01*
X106976190Y-105515476D01*
X106928571Y-105420238D01*
X106833333Y-105325000D01*
X106690476Y-105277380D01*
X106595238Y-105277380D01*
X106452380Y-105325000D01*
X106404761Y-105372619D01*
X105976190Y-106277380D02*
X105976190Y-105277380D01*
X105976190Y-105753571D02*
X105404761Y-105753571D01*
X105404761Y-106277380D02*
X105404761Y-105277380D01*
X104976190Y-105991666D02*
X104500000Y-105991666D01*
X105071428Y-106277380D02*
X104738095Y-105277380D01*
X104404761Y-106277380D01*
X104071428Y-106277380D02*
X104071428Y-105277380D01*
X103595238Y-106277380D02*
X103595238Y-105277380D01*
X103023809Y-106277380D01*
X103023809Y-105277380D01*
D11*
X151000000Y-103000000D02*
X151000000Y-96000000D01*
X167000000Y-103000000D02*
X151000000Y-103000000D01*
X167000000Y-96000000D02*
X167000000Y-103000000D01*
X151000000Y-96000000D02*
X167000000Y-96000000D01*
D10*
X86404761Y-76357142D02*
X86452380Y-76404761D01*
X86595238Y-76452380D01*
X86690476Y-76452380D01*
X86833333Y-76404761D01*
X86928571Y-76309523D01*
X86976190Y-76214285D01*
X87023809Y-76023809D01*
X87023809Y-75880952D01*
X86976190Y-75690476D01*
X86928571Y-75595238D01*
X86833333Y-75500000D01*
X86690476Y-75452380D01*
X86595238Y-75452380D01*
X86452380Y-75500000D01*
X86404761Y-75547619D01*
X85976190Y-76452380D02*
X85976190Y-75452380D01*
X85976190Y-75928571D02*
X85404761Y-75928571D01*
X85404761Y-76452380D02*
X85404761Y-75452380D01*
X84976190Y-76166666D02*
X84500000Y-76166666D01*
X85071428Y-76452380D02*
X84738095Y-75452380D01*
X84404761Y-76452380D01*
X84071428Y-76452380D02*
X84071428Y-75452380D01*
X83595238Y-76452380D02*
X83595238Y-75452380D01*
X83023809Y-76452380D01*
X83023809Y-75452380D01*
X134690476Y-76357142D02*
X134738095Y-76404761D01*
X134880952Y-76452380D01*
X134976190Y-76452380D01*
X135119047Y-76404761D01*
X135214285Y-76309523D01*
X135261904Y-76214285D01*
X135309523Y-76023809D01*
X135309523Y-75880952D01*
X135261904Y-75690476D01*
X135214285Y-75595238D01*
X135119047Y-75500000D01*
X134976190Y-75452380D01*
X134880952Y-75452380D01*
X134738095Y-75500000D01*
X134690476Y-75547619D01*
X184928571Y-75928571D02*
X184785714Y-75976190D01*
X184738095Y-76023809D01*
X184690476Y-76119047D01*
X184690476Y-76261904D01*
X184738095Y-76357142D01*
X184785714Y-76404761D01*
X184880952Y-76452380D01*
X185261904Y-76452380D01*
X185261904Y-75452380D01*
X184928571Y-75452380D01*
X184833333Y-75500000D01*
X184785714Y-75547619D01*
X184738095Y-75642857D01*
X184738095Y-75738095D01*
X184785714Y-75833333D01*
X184833333Y-75880952D01*
X184928571Y-75928571D01*
X185261904Y-75928571D01*
X235238095Y-76166666D02*
X234761904Y-76166666D01*
X235333333Y-76452380D02*
X235000000Y-75452380D01*
X234666666Y-76452380D01*
X164238095Y-104166666D02*
X163761904Y-104166666D01*
X164333333Y-104452380D02*
X164000000Y-103452380D01*
X163666666Y-104452380D01*
X158928571Y-103928571D02*
X158785714Y-103976190D01*
X158738095Y-104023809D01*
X158690476Y-104119047D01*
X158690476Y-104261904D01*
X158738095Y-104357142D01*
X158785714Y-104404761D01*
X158880952Y-104452380D01*
X159261904Y-104452380D01*
X159261904Y-103452380D01*
X158928571Y-103452380D01*
X158833333Y-103500000D01*
X158785714Y-103547619D01*
X158738095Y-103642857D01*
X158738095Y-103738095D01*
X158785714Y-103833333D01*
X158833333Y-103880952D01*
X158928571Y-103928571D01*
X159261904Y-103928571D01*
X154238095Y-104166666D02*
X153761904Y-104166666D01*
X154333333Y-104452380D02*
X154000000Y-103452380D01*
X153666666Y-104452380D01*
X163833333Y-95357142D02*
X163880952Y-95404761D01*
X164023809Y-95452380D01*
X164119047Y-95452380D01*
X164261904Y-95404761D01*
X164357142Y-95309523D01*
X164404761Y-95214285D01*
X164452380Y-95023809D01*
X164452380Y-94880952D01*
X164404761Y-94690476D01*
X164357142Y-94595238D01*
X164261904Y-94500000D01*
X164119047Y-94452380D01*
X164023809Y-94452380D01*
X163880952Y-94500000D01*
X163833333Y-94547619D01*
X163214285Y-94452380D02*
X163023809Y-94452380D01*
X162928571Y-94500000D01*
X162833333Y-94595238D01*
X162785714Y-94785714D01*
X162785714Y-95119047D01*
X162833333Y-95309523D01*
X162928571Y-95404761D01*
X163023809Y-95452380D01*
X163214285Y-95452380D01*
X163309523Y-95404761D01*
X163404761Y-95309523D01*
X163452380Y-95119047D01*
X163452380Y-94785714D01*
X163404761Y-94595238D01*
X163309523Y-94500000D01*
X163214285Y-94452380D01*
X162357142Y-95452380D02*
X162357142Y-94452380D01*
X161785714Y-95452380D01*
X161785714Y-94452380D01*
X161452380Y-94452380D02*
X160880952Y-94452380D01*
X161166666Y-95452380D02*
X161166666Y-94452380D01*
X159976190Y-95452380D02*
X160309523Y-94976190D01*
X160547619Y-95452380D02*
X160547619Y-94452380D01*
X160166666Y-94452380D01*
X160071428Y-94500000D01*
X160023809Y-94547619D01*
X159976190Y-94642857D01*
X159976190Y-94785714D01*
X160023809Y-94880952D01*
X160071428Y-94928571D01*
X160166666Y-94976190D01*
X160547619Y-94976190D01*
X159357142Y-94452380D02*
X159166666Y-94452380D01*
X159071428Y-94500000D01*
X158976190Y-94595238D01*
X158928571Y-94785714D01*
X158928571Y-95119047D01*
X158976190Y-95309523D01*
X159071428Y-95404761D01*
X159166666Y-95452380D01*
X159357142Y-95452380D01*
X159452380Y-95404761D01*
X159547619Y-95309523D01*
X159595238Y-95119047D01*
X159595238Y-94785714D01*
X159547619Y-94595238D01*
X159452380Y-94500000D01*
X159357142Y-94452380D01*
X158023809Y-95452380D02*
X158500000Y-95452380D01*
X158500000Y-94452380D01*
X156928571Y-95452380D02*
X156928571Y-94452380D01*
X156928571Y-94928571D02*
X156357142Y-94928571D01*
X156357142Y-95452380D02*
X156357142Y-94452380D01*
X155690476Y-94452380D02*
X155500000Y-94452380D01*
X155404761Y-94500000D01*
X155309523Y-94595238D01*
X155261904Y-94785714D01*
X155261904Y-95119047D01*
X155309523Y-95309523D01*
X155404761Y-95404761D01*
X155500000Y-95452380D01*
X155690476Y-95452380D01*
X155785714Y-95404761D01*
X155880952Y-95309523D01*
X155928571Y-95119047D01*
X155928571Y-94785714D01*
X155880952Y-94595238D01*
X155785714Y-94500000D01*
X155690476Y-94452380D01*
X154976190Y-94452380D02*
X154404761Y-94452380D01*
X154690476Y-95452380D02*
X154690476Y-94452380D01*
X154119047Y-95404761D02*
X153976190Y-95452380D01*
X153738095Y-95452380D01*
X153642857Y-95404761D01*
X153595238Y-95357142D01*
X153547619Y-95261904D01*
X153547619Y-95166666D01*
X153595238Y-95071428D01*
X153642857Y-95023809D01*
X153738095Y-94976190D01*
X153928571Y-94928571D01*
X154023809Y-94880952D01*
X154071428Y-94833333D01*
X154119047Y-94738095D01*
X154119047Y-94642857D01*
X154071428Y-94547619D01*
X154023809Y-94500000D01*
X153928571Y-94452380D01*
X153690476Y-94452380D01*
X153547619Y-94500000D01*
X182930000Y-96690476D02*
X182882380Y-96595238D01*
X182882380Y-96452380D01*
X182930000Y-96309523D01*
X183025238Y-96214285D01*
X183120476Y-96166666D01*
X183310952Y-96119047D01*
X183453809Y-96119047D01*
X183644285Y-96166666D01*
X183739523Y-96214285D01*
X183834761Y-96309523D01*
X183882380Y-96452380D01*
X183882380Y-96547619D01*
X183834761Y-96690476D01*
X183787142Y-96738095D01*
X183453809Y-96738095D01*
X183453809Y-96547619D01*
X183882380Y-97738095D02*
X183406190Y-97404761D01*
X183882380Y-97166666D02*
X182882380Y-97166666D01*
X182882380Y-97547619D01*
X182930000Y-97642857D01*
X182977619Y-97690476D01*
X183072857Y-97738095D01*
X183215714Y-97738095D01*
X183310952Y-97690476D01*
X183358571Y-97642857D01*
X183406190Y-97547619D01*
X183406190Y-97166666D01*
X182882380Y-98357142D02*
X182882380Y-98547619D01*
X182930000Y-98642857D01*
X183025238Y-98738095D01*
X183215714Y-98785714D01*
X183549047Y-98785714D01*
X183739523Y-98738095D01*
X183834761Y-98642857D01*
X183882380Y-98547619D01*
X183882380Y-98357142D01*
X183834761Y-98261904D01*
X183739523Y-98166666D01*
X183549047Y-98119047D01*
X183215714Y-98119047D01*
X183025238Y-98166666D01*
X182930000Y-98261904D01*
X182882380Y-98357142D01*
X182882380Y-99214285D02*
X183691904Y-99214285D01*
X183787142Y-99261904D01*
X183834761Y-99309523D01*
X183882380Y-99404761D01*
X183882380Y-99595238D01*
X183834761Y-99690476D01*
X183787142Y-99738095D01*
X183691904Y-99785714D01*
X182882380Y-99785714D01*
X183882380Y-100261904D02*
X182882380Y-100261904D01*
X183882380Y-100833333D01*
X182882380Y-100833333D01*
X183882380Y-101309523D02*
X182882380Y-101309523D01*
X182882380Y-101547619D01*
X182930000Y-101690476D01*
X183025238Y-101785714D01*
X183120476Y-101833333D01*
X183310952Y-101880952D01*
X183453809Y-101880952D01*
X183644285Y-101833333D01*
X183739523Y-101785714D01*
X183834761Y-101690476D01*
X183882380Y-101547619D01*
X183882380Y-101309523D01*
X192452380Y-85809523D02*
X191452380Y-85809523D01*
X191928571Y-85809523D02*
X191928571Y-86380952D01*
X192452380Y-86380952D02*
X191452380Y-86380952D01*
X191452380Y-87047619D02*
X191452380Y-87238095D01*
X191500000Y-87333333D01*
X191595238Y-87428571D01*
X191785714Y-87476190D01*
X192119047Y-87476190D01*
X192309523Y-87428571D01*
X192404761Y-87333333D01*
X192452380Y-87238095D01*
X192452380Y-87047619D01*
X192404761Y-86952380D01*
X192309523Y-86857142D01*
X192119047Y-86809523D01*
X191785714Y-86809523D01*
X191595238Y-86857142D01*
X191500000Y-86952380D01*
X191452380Y-87047619D01*
X191452380Y-87761904D02*
X191452380Y-88333333D01*
X192452380Y-88047619D02*
X191452380Y-88047619D01*
X175952380Y-84523809D02*
X174952380Y-84523809D01*
X175952380Y-85095238D01*
X174952380Y-85095238D01*
X175428571Y-85571428D02*
X175428571Y-85904761D01*
X175952380Y-86047619D02*
X175952380Y-85571428D01*
X174952380Y-85571428D01*
X174952380Y-86047619D01*
X174952380Y-86476190D02*
X175761904Y-86476190D01*
X175857142Y-86523809D01*
X175904761Y-86571428D01*
X175952380Y-86666666D01*
X175952380Y-86857142D01*
X175904761Y-86952380D01*
X175857142Y-87000000D01*
X175761904Y-87047619D01*
X174952380Y-87047619D01*
X174952380Y-87380952D02*
X174952380Y-87952380D01*
X175952380Y-87666666D02*
X174952380Y-87666666D01*
X175952380Y-88857142D02*
X175476190Y-88523809D01*
X175952380Y-88285714D02*
X174952380Y-88285714D01*
X174952380Y-88666666D01*
X175000000Y-88761904D01*
X175047619Y-88809523D01*
X175142857Y-88857142D01*
X175285714Y-88857142D01*
X175380952Y-88809523D01*
X175428571Y-88761904D01*
X175476190Y-88666666D01*
X175476190Y-88285714D01*
X175666666Y-89238095D02*
X175666666Y-89714285D01*
X175952380Y-89142857D02*
X174952380Y-89476190D01*
X175952380Y-89809523D01*
X175952380Y-90619047D02*
X175952380Y-90142857D01*
X174952380Y-90142857D01*
X232930000Y-96690476D02*
X232882380Y-96595238D01*
X232882380Y-96452380D01*
X232930000Y-96309523D01*
X233025238Y-96214285D01*
X233120476Y-96166666D01*
X233310952Y-96119047D01*
X233453809Y-96119047D01*
X233644285Y-96166666D01*
X233739523Y-96214285D01*
X233834761Y-96309523D01*
X233882380Y-96452380D01*
X233882380Y-96547619D01*
X233834761Y-96690476D01*
X233787142Y-96738095D01*
X233453809Y-96738095D01*
X233453809Y-96547619D01*
X233882380Y-97738095D02*
X233406190Y-97404761D01*
X233882380Y-97166666D02*
X232882380Y-97166666D01*
X232882380Y-97547619D01*
X232930000Y-97642857D01*
X232977619Y-97690476D01*
X233072857Y-97738095D01*
X233215714Y-97738095D01*
X233310952Y-97690476D01*
X233358571Y-97642857D01*
X233406190Y-97547619D01*
X233406190Y-97166666D01*
X232882380Y-98357142D02*
X232882380Y-98547619D01*
X232930000Y-98642857D01*
X233025238Y-98738095D01*
X233215714Y-98785714D01*
X233549047Y-98785714D01*
X233739523Y-98738095D01*
X233834761Y-98642857D01*
X233882380Y-98547619D01*
X233882380Y-98357142D01*
X233834761Y-98261904D01*
X233739523Y-98166666D01*
X233549047Y-98119047D01*
X233215714Y-98119047D01*
X233025238Y-98166666D01*
X232930000Y-98261904D01*
X232882380Y-98357142D01*
X232882380Y-99214285D02*
X233691904Y-99214285D01*
X233787142Y-99261904D01*
X233834761Y-99309523D01*
X233882380Y-99404761D01*
X233882380Y-99595238D01*
X233834761Y-99690476D01*
X233787142Y-99738095D01*
X233691904Y-99785714D01*
X232882380Y-99785714D01*
X233882380Y-100261904D02*
X232882380Y-100261904D01*
X233882380Y-100833333D01*
X232882380Y-100833333D01*
X233882380Y-101309523D02*
X232882380Y-101309523D01*
X232882380Y-101547619D01*
X232930000Y-101690476D01*
X233025238Y-101785714D01*
X233120476Y-101833333D01*
X233310952Y-101880952D01*
X233453809Y-101880952D01*
X233644285Y-101833333D01*
X233739523Y-101785714D01*
X233834761Y-101690476D01*
X233882380Y-101547619D01*
X233882380Y-101309523D01*
X242452380Y-85809523D02*
X241452380Y-85809523D01*
X241928571Y-85809523D02*
X241928571Y-86380952D01*
X242452380Y-86380952D02*
X241452380Y-86380952D01*
X241452380Y-87047619D02*
X241452380Y-87238095D01*
X241500000Y-87333333D01*
X241595238Y-87428571D01*
X241785714Y-87476190D01*
X242119047Y-87476190D01*
X242309523Y-87428571D01*
X242404761Y-87333333D01*
X242452380Y-87238095D01*
X242452380Y-87047619D01*
X242404761Y-86952380D01*
X242309523Y-86857142D01*
X242119047Y-86809523D01*
X241785714Y-86809523D01*
X241595238Y-86857142D01*
X241500000Y-86952380D01*
X241452380Y-87047619D01*
X241452380Y-87761904D02*
X241452380Y-88333333D01*
X242452380Y-88047619D02*
X241452380Y-88047619D01*
X225952380Y-84523809D02*
X224952380Y-84523809D01*
X225952380Y-85095238D01*
X224952380Y-85095238D01*
X225428571Y-85571428D02*
X225428571Y-85904761D01*
X225952380Y-86047619D02*
X225952380Y-85571428D01*
X224952380Y-85571428D01*
X224952380Y-86047619D01*
X224952380Y-86476190D02*
X225761904Y-86476190D01*
X225857142Y-86523809D01*
X225904761Y-86571428D01*
X225952380Y-86666666D01*
X225952380Y-86857142D01*
X225904761Y-86952380D01*
X225857142Y-87000000D01*
X225761904Y-87047619D01*
X224952380Y-87047619D01*
X224952380Y-87380952D02*
X224952380Y-87952380D01*
X225952380Y-87666666D02*
X224952380Y-87666666D01*
X225952380Y-88857142D02*
X225476190Y-88523809D01*
X225952380Y-88285714D02*
X224952380Y-88285714D01*
X224952380Y-88666666D01*
X225000000Y-88761904D01*
X225047619Y-88809523D01*
X225142857Y-88857142D01*
X225285714Y-88857142D01*
X225380952Y-88809523D01*
X225428571Y-88761904D01*
X225476190Y-88666666D01*
X225476190Y-88285714D01*
X225666666Y-89238095D02*
X225666666Y-89714285D01*
X225952380Y-89142857D02*
X224952380Y-89476190D01*
X225952380Y-89809523D01*
X225952380Y-90619047D02*
X225952380Y-90142857D01*
X224952380Y-90142857D01*
X75952380Y-84523809D02*
X74952380Y-84523809D01*
X75952380Y-85095238D01*
X74952380Y-85095238D01*
X75428571Y-85571428D02*
X75428571Y-85904761D01*
X75952380Y-86047619D02*
X75952380Y-85571428D01*
X74952380Y-85571428D01*
X74952380Y-86047619D01*
X74952380Y-86476190D02*
X75761904Y-86476190D01*
X75857142Y-86523809D01*
X75904761Y-86571428D01*
X75952380Y-86666666D01*
X75952380Y-86857142D01*
X75904761Y-86952380D01*
X75857142Y-87000000D01*
X75761904Y-87047619D01*
X74952380Y-87047619D01*
X74952380Y-87380952D02*
X74952380Y-87952380D01*
X75952380Y-87666666D02*
X74952380Y-87666666D01*
X75952380Y-88857142D02*
X75476190Y-88523809D01*
X75952380Y-88285714D02*
X74952380Y-88285714D01*
X74952380Y-88666666D01*
X75000000Y-88761904D01*
X75047619Y-88809523D01*
X75142857Y-88857142D01*
X75285714Y-88857142D01*
X75380952Y-88809523D01*
X75428571Y-88761904D01*
X75476190Y-88666666D01*
X75476190Y-88285714D01*
X75666666Y-89238095D02*
X75666666Y-89714285D01*
X75952380Y-89142857D02*
X74952380Y-89476190D01*
X75952380Y-89809523D01*
X75952380Y-90619047D02*
X75952380Y-90142857D01*
X74952380Y-90142857D01*
X92452380Y-85809523D02*
X91452380Y-85809523D01*
X91928571Y-85809523D02*
X91928571Y-86380952D01*
X92452380Y-86380952D02*
X91452380Y-86380952D01*
X91452380Y-87047619D02*
X91452380Y-87238095D01*
X91500000Y-87333333D01*
X91595238Y-87428571D01*
X91785714Y-87476190D01*
X92119047Y-87476190D01*
X92309523Y-87428571D01*
X92404761Y-87333333D01*
X92452380Y-87238095D01*
X92452380Y-87047619D01*
X92404761Y-86952380D01*
X92309523Y-86857142D01*
X92119047Y-86809523D01*
X91785714Y-86809523D01*
X91595238Y-86857142D01*
X91500000Y-86952380D01*
X91452380Y-87047619D01*
X91452380Y-87761904D02*
X91452380Y-88333333D01*
X92452380Y-88047619D02*
X91452380Y-88047619D01*
X82930000Y-96690476D02*
X82882380Y-96595238D01*
X82882380Y-96452380D01*
X82930000Y-96309523D01*
X83025238Y-96214285D01*
X83120476Y-96166666D01*
X83310952Y-96119047D01*
X83453809Y-96119047D01*
X83644285Y-96166666D01*
X83739523Y-96214285D01*
X83834761Y-96309523D01*
X83882380Y-96452380D01*
X83882380Y-96547619D01*
X83834761Y-96690476D01*
X83787142Y-96738095D01*
X83453809Y-96738095D01*
X83453809Y-96547619D01*
X83882380Y-97738095D02*
X83406190Y-97404761D01*
X83882380Y-97166666D02*
X82882380Y-97166666D01*
X82882380Y-97547619D01*
X82930000Y-97642857D01*
X82977619Y-97690476D01*
X83072857Y-97738095D01*
X83215714Y-97738095D01*
X83310952Y-97690476D01*
X83358571Y-97642857D01*
X83406190Y-97547619D01*
X83406190Y-97166666D01*
X82882380Y-98357142D02*
X82882380Y-98547619D01*
X82930000Y-98642857D01*
X83025238Y-98738095D01*
X83215714Y-98785714D01*
X83549047Y-98785714D01*
X83739523Y-98738095D01*
X83834761Y-98642857D01*
X83882380Y-98547619D01*
X83882380Y-98357142D01*
X83834761Y-98261904D01*
X83739523Y-98166666D01*
X83549047Y-98119047D01*
X83215714Y-98119047D01*
X83025238Y-98166666D01*
X82930000Y-98261904D01*
X82882380Y-98357142D01*
X82882380Y-99214285D02*
X83691904Y-99214285D01*
X83787142Y-99261904D01*
X83834761Y-99309523D01*
X83882380Y-99404761D01*
X83882380Y-99595238D01*
X83834761Y-99690476D01*
X83787142Y-99738095D01*
X83691904Y-99785714D01*
X82882380Y-99785714D01*
X83882380Y-100261904D02*
X82882380Y-100261904D01*
X83882380Y-100833333D01*
X82882380Y-100833333D01*
X83882380Y-101309523D02*
X82882380Y-101309523D01*
X82882380Y-101547619D01*
X82930000Y-101690476D01*
X83025238Y-101785714D01*
X83120476Y-101833333D01*
X83310952Y-101880952D01*
X83453809Y-101880952D01*
X83644285Y-101833333D01*
X83739523Y-101785714D01*
X83834761Y-101690476D01*
X83882380Y-101547619D01*
X83882380Y-101309523D01*
X132930000Y-96690476D02*
X132882380Y-96595238D01*
X132882380Y-96452380D01*
X132930000Y-96309523D01*
X133025238Y-96214285D01*
X133120476Y-96166666D01*
X133310952Y-96119047D01*
X133453809Y-96119047D01*
X133644285Y-96166666D01*
X133739523Y-96214285D01*
X133834761Y-96309523D01*
X133882380Y-96452380D01*
X133882380Y-96547619D01*
X133834761Y-96690476D01*
X133787142Y-96738095D01*
X133453809Y-96738095D01*
X133453809Y-96547619D01*
X133882380Y-97738095D02*
X133406190Y-97404761D01*
X133882380Y-97166666D02*
X132882380Y-97166666D01*
X132882380Y-97547619D01*
X132930000Y-97642857D01*
X132977619Y-97690476D01*
X133072857Y-97738095D01*
X133215714Y-97738095D01*
X133310952Y-97690476D01*
X133358571Y-97642857D01*
X133406190Y-97547619D01*
X133406190Y-97166666D01*
X132882380Y-98357142D02*
X132882380Y-98547619D01*
X132930000Y-98642857D01*
X133025238Y-98738095D01*
X133215714Y-98785714D01*
X133549047Y-98785714D01*
X133739523Y-98738095D01*
X133834761Y-98642857D01*
X133882380Y-98547619D01*
X133882380Y-98357142D01*
X133834761Y-98261904D01*
X133739523Y-98166666D01*
X133549047Y-98119047D01*
X133215714Y-98119047D01*
X133025238Y-98166666D01*
X132930000Y-98261904D01*
X132882380Y-98357142D01*
X132882380Y-99214285D02*
X133691904Y-99214285D01*
X133787142Y-99261904D01*
X133834761Y-99309523D01*
X133882380Y-99404761D01*
X133882380Y-99595238D01*
X133834761Y-99690476D01*
X133787142Y-99738095D01*
X133691904Y-99785714D01*
X132882380Y-99785714D01*
X133882380Y-100261904D02*
X132882380Y-100261904D01*
X133882380Y-100833333D01*
X132882380Y-100833333D01*
X133882380Y-101309523D02*
X132882380Y-101309523D01*
X132882380Y-101547619D01*
X132930000Y-101690476D01*
X133025238Y-101785714D01*
X133120476Y-101833333D01*
X133310952Y-101880952D01*
X133453809Y-101880952D01*
X133644285Y-101833333D01*
X133739523Y-101785714D01*
X133834761Y-101690476D01*
X133882380Y-101547619D01*
X133882380Y-101309523D01*
X142452380Y-85809523D02*
X141452380Y-85809523D01*
X141928571Y-85809523D02*
X141928571Y-86380952D01*
X142452380Y-86380952D02*
X141452380Y-86380952D01*
X141452380Y-87047619D02*
X141452380Y-87238095D01*
X141500000Y-87333333D01*
X141595238Y-87428571D01*
X141785714Y-87476190D01*
X142119047Y-87476190D01*
X142309523Y-87428571D01*
X142404761Y-87333333D01*
X142452380Y-87238095D01*
X142452380Y-87047619D01*
X142404761Y-86952380D01*
X142309523Y-86857142D01*
X142119047Y-86809523D01*
X141785714Y-86809523D01*
X141595238Y-86857142D01*
X141500000Y-86952380D01*
X141452380Y-87047619D01*
X141452380Y-87761904D02*
X141452380Y-88333333D01*
X142452380Y-88047619D02*
X141452380Y-88047619D01*
X125952380Y-84523809D02*
X124952380Y-84523809D01*
X125952380Y-85095238D01*
X124952380Y-85095238D01*
X125428571Y-85571428D02*
X125428571Y-85904761D01*
X125952380Y-86047619D02*
X125952380Y-85571428D01*
X124952380Y-85571428D01*
X124952380Y-86047619D01*
X124952380Y-86476190D02*
X125761904Y-86476190D01*
X125857142Y-86523809D01*
X125904761Y-86571428D01*
X125952380Y-86666666D01*
X125952380Y-86857142D01*
X125904761Y-86952380D01*
X125857142Y-87000000D01*
X125761904Y-87047619D01*
X124952380Y-87047619D01*
X124952380Y-87380952D02*
X124952380Y-87952380D01*
X125952380Y-87666666D02*
X124952380Y-87666666D01*
X125952380Y-88857142D02*
X125476190Y-88523809D01*
X125952380Y-88285714D02*
X124952380Y-88285714D01*
X124952380Y-88666666D01*
X125000000Y-88761904D01*
X125047619Y-88809523D01*
X125142857Y-88857142D01*
X125285714Y-88857142D01*
X125380952Y-88809523D01*
X125428571Y-88761904D01*
X125476190Y-88666666D01*
X125476190Y-88285714D01*
X125666666Y-89238095D02*
X125666666Y-89714285D01*
X125952380Y-89142857D02*
X124952380Y-89476190D01*
X125952380Y-89809523D01*
X125952380Y-90619047D02*
X125952380Y-90142857D01*
X124952380Y-90142857D01*
M02*
