G04 #@! TF.GenerationSoftware,KiCad,Pcbnew,5.1.4*
G04 #@! TF.CreationDate,2019-11-13T20:32:36-05:00*
G04 #@! TF.ProjectId,PooferControl-Reciever-PlugPlane,506f6f66-6572-4436-9f6e-74726f6c2d52,rev?*
G04 #@! TF.SameCoordinates,Original*
G04 #@! TF.FileFunction,Copper,L1,Top*
G04 #@! TF.FilePolarity,Positive*
%FSLAX46Y46*%
G04 Gerber Fmt 4.6, Leading zero omitted, Abs format (unit mm)*
G04 Created by KiCad (PCBNEW 5.1.4) date 2019-11-13 20:32:36*
%MOMM*%
%LPD*%
G04 APERTURE LIST*
%ADD10O,1.980000X3.960000*%
%ADD11R,1.980000X3.960000*%
%ADD12R,2.500000X9.000000*%
%ADD13C,4.000000*%
%ADD14C,0.254000*%
G04 APERTURE END LIST*
D10*
X105000000Y-85000000D03*
X110000000Y-85000000D03*
X110000000Y-100000000D03*
D11*
X105000000Y-100000000D03*
D12*
X186500000Y-99000000D03*
X172500000Y-87000000D03*
X194500000Y-87000000D03*
X236500000Y-99000000D03*
X222500000Y-87000000D03*
X244500000Y-87000000D03*
X94500000Y-87000000D03*
X72500000Y-87000000D03*
X86500000Y-99000000D03*
D11*
X154000000Y-100000000D03*
X159000000Y-100000000D03*
X164000000Y-100000000D03*
D12*
X136500000Y-99000000D03*
X122500000Y-87000000D03*
X144500000Y-87000000D03*
D13*
X164000000Y-100990000D02*
X164000000Y-100000000D01*
X244500000Y-87000000D02*
X244500000Y-104274990D01*
X244500000Y-104274990D02*
X241000000Y-107774990D01*
X241000000Y-107774990D02*
X167774990Y-107774990D01*
X164000000Y-104000000D02*
X164000000Y-100990000D01*
X167774990Y-107774990D02*
X164000000Y-104000000D01*
X159000000Y-96000000D02*
X159000000Y-100000000D01*
X161000000Y-94000000D02*
X159000000Y-96000000D01*
X170000000Y-97000000D02*
X167000000Y-94000000D01*
X167000000Y-94000000D02*
X161000000Y-94000000D01*
X176000000Y-97000000D02*
X170000000Y-97000000D01*
X186000000Y-87000000D02*
X176000000Y-97000000D01*
X194500000Y-87000000D02*
X186000000Y-87000000D01*
X94500000Y-94500000D02*
X94500000Y-87000000D01*
X104000000Y-100000000D02*
X100000000Y-100000000D01*
X100000000Y-100000000D02*
X94500000Y-94500000D01*
X149000000Y-100000000D02*
X144500000Y-95500000D01*
X154000000Y-100000000D02*
X149000000Y-100000000D01*
X144500000Y-95500000D02*
X144500000Y-87000000D01*
X72500000Y-87000000D02*
X79000000Y-87000000D01*
X122500000Y-87000000D02*
X128000000Y-87000000D01*
X172500000Y-87000000D02*
X172500000Y-78500000D01*
X222500000Y-87000000D02*
X222500000Y-78500000D01*
X111000000Y-100000000D02*
X116000000Y-100000000D01*
D14*
G36*
X244848001Y-74845154D02*
G01*
X244848000Y-78845154D01*
X244848000Y-79357870D01*
X243250000Y-79357870D01*
X242637001Y-79418245D01*
X242047559Y-79597050D01*
X241504326Y-79887414D01*
X241028179Y-80278179D01*
X240637414Y-80754326D01*
X240347050Y-81297559D01*
X240168245Y-81887001D01*
X240107870Y-82500000D01*
X240107870Y-84340910D01*
X239740351Y-85028490D01*
X239447184Y-85994933D01*
X239373000Y-86748132D01*
X239373000Y-91821844D01*
X238952441Y-91597050D01*
X238362999Y-91418245D01*
X237750000Y-91357870D01*
X235250000Y-91357870D01*
X234637001Y-91418245D01*
X234047559Y-91597050D01*
X233504326Y-91887414D01*
X233028179Y-92278179D01*
X232637414Y-92754326D01*
X232347050Y-93297559D01*
X232168245Y-93887001D01*
X232107870Y-94500000D01*
X232107870Y-102647990D01*
X190892130Y-102647990D01*
X190892130Y-94500000D01*
X190831755Y-93887001D01*
X190652950Y-93297559D01*
X190362586Y-92754326D01*
X189971821Y-92278179D01*
X189787609Y-92127000D01*
X190172492Y-92127000D01*
X190347050Y-92702441D01*
X190637414Y-93245674D01*
X191028179Y-93721821D01*
X191504326Y-94112586D01*
X192047559Y-94402950D01*
X192637001Y-94581755D01*
X193250000Y-94642130D01*
X195750000Y-94642130D01*
X196362999Y-94581755D01*
X196952441Y-94402950D01*
X197495674Y-94112586D01*
X197971821Y-93721821D01*
X198362586Y-93245674D01*
X198652950Y-92702441D01*
X198831755Y-92112999D01*
X198892130Y-91500000D01*
X198892130Y-89659091D01*
X199259649Y-88971511D01*
X199552816Y-88005068D01*
X199651807Y-87000000D01*
X199552816Y-85994932D01*
X199259649Y-85028489D01*
X198892130Y-84340909D01*
X198892130Y-82500000D01*
X218107870Y-82500000D01*
X218107870Y-91500000D01*
X218168245Y-92112999D01*
X218347050Y-92702441D01*
X218637414Y-93245674D01*
X219028179Y-93721821D01*
X219504326Y-94112586D01*
X220047559Y-94402950D01*
X220637001Y-94581755D01*
X221250000Y-94642130D01*
X223750000Y-94642130D01*
X224362999Y-94581755D01*
X224952441Y-94402950D01*
X225495674Y-94112586D01*
X225971821Y-93721821D01*
X226362586Y-93245674D01*
X226652950Y-92702441D01*
X226831755Y-92112999D01*
X226892130Y-91500000D01*
X226892130Y-82500000D01*
X226831755Y-81887001D01*
X226652950Y-81297559D01*
X226362586Y-80754326D01*
X225971821Y-80278179D01*
X225495674Y-79887414D01*
X224952441Y-79597050D01*
X224362999Y-79418245D01*
X223750000Y-79357870D01*
X221250000Y-79357870D01*
X220637001Y-79418245D01*
X220047559Y-79597050D01*
X219504326Y-79887414D01*
X219028179Y-80278179D01*
X218637414Y-80754326D01*
X218347050Y-81297559D01*
X218168245Y-81887001D01*
X218107870Y-82500000D01*
X198892130Y-82500000D01*
X198831755Y-81887001D01*
X198652950Y-81297559D01*
X198362586Y-80754326D01*
X197971821Y-80278179D01*
X197495674Y-79887414D01*
X196952441Y-79597050D01*
X196362999Y-79418245D01*
X195750000Y-79357870D01*
X193250000Y-79357870D01*
X192637001Y-79418245D01*
X192047559Y-79597050D01*
X191504326Y-79887414D01*
X191028179Y-80278179D01*
X190637414Y-80754326D01*
X190347050Y-81297559D01*
X190172492Y-81873000D01*
X186251871Y-81873000D01*
X186000000Y-81848193D01*
X184994932Y-81947183D01*
X184028488Y-82240351D01*
X183679538Y-82426869D01*
X183137809Y-82716429D01*
X182357122Y-83357122D01*
X182196562Y-83552765D01*
X176892130Y-88857198D01*
X176892130Y-82500000D01*
X176831755Y-81887001D01*
X176652950Y-81297559D01*
X176362586Y-80754326D01*
X175971821Y-80278179D01*
X175495674Y-79887414D01*
X174952441Y-79597050D01*
X174362999Y-79418245D01*
X173750000Y-79357870D01*
X171250000Y-79357870D01*
X170637001Y-79418245D01*
X170047559Y-79597050D01*
X169504326Y-79887414D01*
X169028179Y-80278179D01*
X168637414Y-80754326D01*
X168347050Y-81297559D01*
X168168245Y-81887001D01*
X168107870Y-82500000D01*
X168107870Y-88978369D01*
X168005068Y-88947184D01*
X167251869Y-88873000D01*
X167251868Y-88873000D01*
X167000000Y-88848193D01*
X166748132Y-88873000D01*
X161251868Y-88873000D01*
X160999999Y-88848193D01*
X159994932Y-88947184D01*
X159028489Y-89240351D01*
X158137809Y-89716429D01*
X157357122Y-90357122D01*
X157196557Y-90552771D01*
X155552771Y-92196557D01*
X155357122Y-92357122D01*
X154716429Y-93137810D01*
X154240351Y-94028490D01*
X153984172Y-94873000D01*
X151123673Y-94873000D01*
X149627000Y-93376328D01*
X149627000Y-86748131D01*
X149552816Y-85994932D01*
X149259649Y-85028489D01*
X148892130Y-84340909D01*
X148892130Y-82500000D01*
X148831755Y-81887001D01*
X148652950Y-81297559D01*
X148362586Y-80754326D01*
X147971821Y-80278179D01*
X147495674Y-79887414D01*
X146952441Y-79597050D01*
X146362999Y-79418245D01*
X145750000Y-79357870D01*
X143250000Y-79357870D01*
X142637001Y-79418245D01*
X142047559Y-79597050D01*
X141504326Y-79887414D01*
X141028179Y-80278179D01*
X140637414Y-80754326D01*
X140347050Y-81297559D01*
X140168245Y-81887001D01*
X140107870Y-82500000D01*
X140107870Y-84340911D01*
X139740352Y-85028489D01*
X139447185Y-85994932D01*
X139373001Y-86748131D01*
X139373000Y-91821844D01*
X138952441Y-91597050D01*
X138362999Y-91418245D01*
X137750000Y-91357870D01*
X135250000Y-91357870D01*
X134637001Y-91418245D01*
X134047559Y-91597050D01*
X133504326Y-91887414D01*
X133028179Y-92278179D01*
X132637414Y-92754326D01*
X132347050Y-93297559D01*
X132168245Y-93887001D01*
X132107870Y-94500000D01*
X132107870Y-103500000D01*
X132168245Y-104112999D01*
X132347050Y-104702441D01*
X132637414Y-105245674D01*
X133028179Y-105721821D01*
X133504326Y-106112586D01*
X134047559Y-106402950D01*
X134637001Y-106581755D01*
X135250000Y-106642130D01*
X137750000Y-106642130D01*
X138362999Y-106581755D01*
X138952441Y-106402950D01*
X139495674Y-106112586D01*
X139971821Y-105721821D01*
X140362586Y-105245674D01*
X140652950Y-104702441D01*
X140831755Y-104112999D01*
X140892130Y-103500000D01*
X140892130Y-99171608D01*
X141052770Y-99303442D01*
X145196562Y-103447235D01*
X145357122Y-103642878D01*
X146137809Y-104283571D01*
X147028489Y-104759649D01*
X147837528Y-105005068D01*
X147994932Y-105052816D01*
X148999999Y-105151807D01*
X149251868Y-105127000D01*
X154251869Y-105127000D01*
X154301315Y-105122130D01*
X154990000Y-105122130D01*
X155602999Y-105061755D01*
X156192441Y-104882950D01*
X156500000Y-104718556D01*
X156807559Y-104882950D01*
X157397001Y-105061755D01*
X158010000Y-105122130D01*
X158698686Y-105122130D01*
X158991441Y-105150964D01*
X159240351Y-105971510D01*
X159716429Y-106862190D01*
X160357122Y-107642878D01*
X160552770Y-107803442D01*
X160597328Y-107848000D01*
X72152000Y-107848000D01*
X72152000Y-94642130D01*
X73750000Y-94642130D01*
X74362999Y-94581755D01*
X74632509Y-94500000D01*
X82107870Y-94500000D01*
X82107870Y-103500000D01*
X82168245Y-104112999D01*
X82347050Y-104702441D01*
X82637414Y-105245674D01*
X83028179Y-105721821D01*
X83504326Y-106112586D01*
X84047559Y-106402950D01*
X84637001Y-106581755D01*
X85250000Y-106642130D01*
X87750000Y-106642130D01*
X88362999Y-106581755D01*
X88952441Y-106402950D01*
X89495674Y-106112586D01*
X89971821Y-105721821D01*
X90362586Y-105245674D01*
X90652950Y-104702441D01*
X90831755Y-104112999D01*
X90892130Y-103500000D01*
X90892130Y-98171608D01*
X91052770Y-98303442D01*
X96196562Y-103447235D01*
X96357122Y-103642878D01*
X97137809Y-104283571D01*
X97715936Y-104592586D01*
X98028489Y-104759649D01*
X98994932Y-105052817D01*
X100000000Y-105151807D01*
X100251871Y-105127000D01*
X104251869Y-105127000D01*
X104301315Y-105122130D01*
X105990000Y-105122130D01*
X106602999Y-105061755D01*
X107192441Y-104882950D01*
X107735674Y-104592586D01*
X107842432Y-104504972D01*
X108416870Y-104812016D01*
X109192928Y-105047430D01*
X110000000Y-105126920D01*
X110807073Y-105047430D01*
X111583131Y-104812016D01*
X112298350Y-104429723D01*
X112925244Y-103915244D01*
X113439723Y-103288350D01*
X113822016Y-102573130D01*
X114057430Y-101797072D01*
X114117000Y-101192250D01*
X114117000Y-98807749D01*
X114057430Y-98202927D01*
X113822016Y-97426869D01*
X113439723Y-96711650D01*
X112925244Y-96084756D01*
X112298350Y-95570277D01*
X111583130Y-95187984D01*
X110807072Y-94952570D01*
X110000000Y-94873080D01*
X109192927Y-94952570D01*
X108416869Y-95187984D01*
X107842431Y-95495028D01*
X107735674Y-95407414D01*
X107192441Y-95117050D01*
X106602999Y-94938245D01*
X105990000Y-94877870D01*
X104301315Y-94877870D01*
X104251869Y-94873000D01*
X102123673Y-94873000D01*
X99627000Y-92376328D01*
X99627000Y-86748131D01*
X99552816Y-85994932D01*
X99259649Y-85028489D01*
X98892130Y-84340909D01*
X98892130Y-83807749D01*
X100883000Y-83807749D01*
X100883000Y-86192250D01*
X100942570Y-86797072D01*
X101177984Y-87573130D01*
X101560277Y-88288350D01*
X102074756Y-88915244D01*
X102701650Y-89429723D01*
X103416869Y-89812016D01*
X104192927Y-90047430D01*
X105000000Y-90126920D01*
X105807072Y-90047430D01*
X106583130Y-89812016D01*
X107157569Y-89504972D01*
X107264326Y-89592586D01*
X107807559Y-89882950D01*
X108397001Y-90061755D01*
X109010000Y-90122130D01*
X110990000Y-90122130D01*
X111602999Y-90061755D01*
X112192441Y-89882950D01*
X112735674Y-89592586D01*
X113211821Y-89201821D01*
X113602586Y-88725674D01*
X113892950Y-88182441D01*
X114071755Y-87592999D01*
X114132130Y-86980000D01*
X114132130Y-83020000D01*
X114080915Y-82500000D01*
X118107870Y-82500000D01*
X118107870Y-91500000D01*
X118168245Y-92112999D01*
X118347050Y-92702441D01*
X118637414Y-93245674D01*
X119028179Y-93721821D01*
X119504326Y-94112586D01*
X120047559Y-94402950D01*
X120637001Y-94581755D01*
X121250000Y-94642130D01*
X123750000Y-94642130D01*
X124362999Y-94581755D01*
X124952441Y-94402950D01*
X125495674Y-94112586D01*
X125971821Y-93721821D01*
X126362586Y-93245674D01*
X126652950Y-92702441D01*
X126831755Y-92112999D01*
X126892130Y-91500000D01*
X126892130Y-82500000D01*
X126831755Y-81887001D01*
X126652950Y-81297559D01*
X126362586Y-80754326D01*
X125971821Y-80278179D01*
X125495674Y-79887414D01*
X124952441Y-79597050D01*
X124362999Y-79418245D01*
X123750000Y-79357870D01*
X121250000Y-79357870D01*
X120637001Y-79418245D01*
X120047559Y-79597050D01*
X119504326Y-79887414D01*
X119028179Y-80278179D01*
X118637414Y-80754326D01*
X118347050Y-81297559D01*
X118168245Y-81887001D01*
X118107870Y-82500000D01*
X114080915Y-82500000D01*
X114071755Y-82407001D01*
X113892950Y-81817559D01*
X113602586Y-81274326D01*
X113211821Y-80798179D01*
X112735674Y-80407414D01*
X112192441Y-80117050D01*
X111602999Y-79938245D01*
X110990000Y-79877870D01*
X109010000Y-79877870D01*
X108397001Y-79938245D01*
X107807559Y-80117050D01*
X107264326Y-80407414D01*
X107157569Y-80495028D01*
X106583131Y-80187984D01*
X105807073Y-79952570D01*
X105000000Y-79873080D01*
X104192928Y-79952570D01*
X103416870Y-80187984D01*
X102701651Y-80570277D01*
X102074757Y-81084756D01*
X101560278Y-81711650D01*
X101177984Y-82426869D01*
X100942570Y-83202927D01*
X100883000Y-83807749D01*
X98892130Y-83807749D01*
X98892130Y-82500000D01*
X98831755Y-81887001D01*
X98652950Y-81297559D01*
X98362586Y-80754326D01*
X97971821Y-80278179D01*
X97495674Y-79887414D01*
X96952441Y-79597050D01*
X96362999Y-79418245D01*
X95750000Y-79357870D01*
X93250000Y-79357870D01*
X92637001Y-79418245D01*
X92047559Y-79597050D01*
X91504326Y-79887414D01*
X91028179Y-80278179D01*
X90637414Y-80754326D01*
X90347050Y-81297559D01*
X90168245Y-81887001D01*
X90107870Y-82500000D01*
X90107870Y-84340911D01*
X89740352Y-85028489D01*
X89447185Y-85994932D01*
X89373001Y-86748131D01*
X89373000Y-91821844D01*
X88952441Y-91597050D01*
X88362999Y-91418245D01*
X87750000Y-91357870D01*
X85250000Y-91357870D01*
X84637001Y-91418245D01*
X84047559Y-91597050D01*
X83504326Y-91887414D01*
X83028179Y-92278179D01*
X82637414Y-92754326D01*
X82347050Y-93297559D01*
X82168245Y-93887001D01*
X82107870Y-94500000D01*
X74632509Y-94500000D01*
X74952441Y-94402950D01*
X75495674Y-94112586D01*
X75971821Y-93721821D01*
X76362586Y-93245674D01*
X76652950Y-92702441D01*
X76831755Y-92112999D01*
X76892130Y-91500000D01*
X76892130Y-82500000D01*
X76831755Y-81887001D01*
X76652950Y-81297559D01*
X76362586Y-80754326D01*
X75971821Y-80278179D01*
X75495674Y-79887414D01*
X74952441Y-79597050D01*
X74362999Y-79418245D01*
X73750000Y-79357870D01*
X72152000Y-79357870D01*
X72152000Y-73152000D01*
X244848001Y-73152000D01*
X244848001Y-74845154D01*
X244848001Y-74845154D01*
G37*
X244848001Y-74845154D02*
X244848000Y-78845154D01*
X244848000Y-79357870D01*
X243250000Y-79357870D01*
X242637001Y-79418245D01*
X242047559Y-79597050D01*
X241504326Y-79887414D01*
X241028179Y-80278179D01*
X240637414Y-80754326D01*
X240347050Y-81297559D01*
X240168245Y-81887001D01*
X240107870Y-82500000D01*
X240107870Y-84340910D01*
X239740351Y-85028490D01*
X239447184Y-85994933D01*
X239373000Y-86748132D01*
X239373000Y-91821844D01*
X238952441Y-91597050D01*
X238362999Y-91418245D01*
X237750000Y-91357870D01*
X235250000Y-91357870D01*
X234637001Y-91418245D01*
X234047559Y-91597050D01*
X233504326Y-91887414D01*
X233028179Y-92278179D01*
X232637414Y-92754326D01*
X232347050Y-93297559D01*
X232168245Y-93887001D01*
X232107870Y-94500000D01*
X232107870Y-102647990D01*
X190892130Y-102647990D01*
X190892130Y-94500000D01*
X190831755Y-93887001D01*
X190652950Y-93297559D01*
X190362586Y-92754326D01*
X189971821Y-92278179D01*
X189787609Y-92127000D01*
X190172492Y-92127000D01*
X190347050Y-92702441D01*
X190637414Y-93245674D01*
X191028179Y-93721821D01*
X191504326Y-94112586D01*
X192047559Y-94402950D01*
X192637001Y-94581755D01*
X193250000Y-94642130D01*
X195750000Y-94642130D01*
X196362999Y-94581755D01*
X196952441Y-94402950D01*
X197495674Y-94112586D01*
X197971821Y-93721821D01*
X198362586Y-93245674D01*
X198652950Y-92702441D01*
X198831755Y-92112999D01*
X198892130Y-91500000D01*
X198892130Y-89659091D01*
X199259649Y-88971511D01*
X199552816Y-88005068D01*
X199651807Y-87000000D01*
X199552816Y-85994932D01*
X199259649Y-85028489D01*
X198892130Y-84340909D01*
X198892130Y-82500000D01*
X218107870Y-82500000D01*
X218107870Y-91500000D01*
X218168245Y-92112999D01*
X218347050Y-92702441D01*
X218637414Y-93245674D01*
X219028179Y-93721821D01*
X219504326Y-94112586D01*
X220047559Y-94402950D01*
X220637001Y-94581755D01*
X221250000Y-94642130D01*
X223750000Y-94642130D01*
X224362999Y-94581755D01*
X224952441Y-94402950D01*
X225495674Y-94112586D01*
X225971821Y-93721821D01*
X226362586Y-93245674D01*
X226652950Y-92702441D01*
X226831755Y-92112999D01*
X226892130Y-91500000D01*
X226892130Y-82500000D01*
X226831755Y-81887001D01*
X226652950Y-81297559D01*
X226362586Y-80754326D01*
X225971821Y-80278179D01*
X225495674Y-79887414D01*
X224952441Y-79597050D01*
X224362999Y-79418245D01*
X223750000Y-79357870D01*
X221250000Y-79357870D01*
X220637001Y-79418245D01*
X220047559Y-79597050D01*
X219504326Y-79887414D01*
X219028179Y-80278179D01*
X218637414Y-80754326D01*
X218347050Y-81297559D01*
X218168245Y-81887001D01*
X218107870Y-82500000D01*
X198892130Y-82500000D01*
X198831755Y-81887001D01*
X198652950Y-81297559D01*
X198362586Y-80754326D01*
X197971821Y-80278179D01*
X197495674Y-79887414D01*
X196952441Y-79597050D01*
X196362999Y-79418245D01*
X195750000Y-79357870D01*
X193250000Y-79357870D01*
X192637001Y-79418245D01*
X192047559Y-79597050D01*
X191504326Y-79887414D01*
X191028179Y-80278179D01*
X190637414Y-80754326D01*
X190347050Y-81297559D01*
X190172492Y-81873000D01*
X186251871Y-81873000D01*
X186000000Y-81848193D01*
X184994932Y-81947183D01*
X184028488Y-82240351D01*
X183679538Y-82426869D01*
X183137809Y-82716429D01*
X182357122Y-83357122D01*
X182196562Y-83552765D01*
X176892130Y-88857198D01*
X176892130Y-82500000D01*
X176831755Y-81887001D01*
X176652950Y-81297559D01*
X176362586Y-80754326D01*
X175971821Y-80278179D01*
X175495674Y-79887414D01*
X174952441Y-79597050D01*
X174362999Y-79418245D01*
X173750000Y-79357870D01*
X171250000Y-79357870D01*
X170637001Y-79418245D01*
X170047559Y-79597050D01*
X169504326Y-79887414D01*
X169028179Y-80278179D01*
X168637414Y-80754326D01*
X168347050Y-81297559D01*
X168168245Y-81887001D01*
X168107870Y-82500000D01*
X168107870Y-88978369D01*
X168005068Y-88947184D01*
X167251869Y-88873000D01*
X167251868Y-88873000D01*
X167000000Y-88848193D01*
X166748132Y-88873000D01*
X161251868Y-88873000D01*
X160999999Y-88848193D01*
X159994932Y-88947184D01*
X159028489Y-89240351D01*
X158137809Y-89716429D01*
X157357122Y-90357122D01*
X157196557Y-90552771D01*
X155552771Y-92196557D01*
X155357122Y-92357122D01*
X154716429Y-93137810D01*
X154240351Y-94028490D01*
X153984172Y-94873000D01*
X151123673Y-94873000D01*
X149627000Y-93376328D01*
X149627000Y-86748131D01*
X149552816Y-85994932D01*
X149259649Y-85028489D01*
X148892130Y-84340909D01*
X148892130Y-82500000D01*
X148831755Y-81887001D01*
X148652950Y-81297559D01*
X148362586Y-80754326D01*
X147971821Y-80278179D01*
X147495674Y-79887414D01*
X146952441Y-79597050D01*
X146362999Y-79418245D01*
X145750000Y-79357870D01*
X143250000Y-79357870D01*
X142637001Y-79418245D01*
X142047559Y-79597050D01*
X141504326Y-79887414D01*
X141028179Y-80278179D01*
X140637414Y-80754326D01*
X140347050Y-81297559D01*
X140168245Y-81887001D01*
X140107870Y-82500000D01*
X140107870Y-84340911D01*
X139740352Y-85028489D01*
X139447185Y-85994932D01*
X139373001Y-86748131D01*
X139373000Y-91821844D01*
X138952441Y-91597050D01*
X138362999Y-91418245D01*
X137750000Y-91357870D01*
X135250000Y-91357870D01*
X134637001Y-91418245D01*
X134047559Y-91597050D01*
X133504326Y-91887414D01*
X133028179Y-92278179D01*
X132637414Y-92754326D01*
X132347050Y-93297559D01*
X132168245Y-93887001D01*
X132107870Y-94500000D01*
X132107870Y-103500000D01*
X132168245Y-104112999D01*
X132347050Y-104702441D01*
X132637414Y-105245674D01*
X133028179Y-105721821D01*
X133504326Y-106112586D01*
X134047559Y-106402950D01*
X134637001Y-106581755D01*
X135250000Y-106642130D01*
X137750000Y-106642130D01*
X138362999Y-106581755D01*
X138952441Y-106402950D01*
X139495674Y-106112586D01*
X139971821Y-105721821D01*
X140362586Y-105245674D01*
X140652950Y-104702441D01*
X140831755Y-104112999D01*
X140892130Y-103500000D01*
X140892130Y-99171608D01*
X141052770Y-99303442D01*
X145196562Y-103447235D01*
X145357122Y-103642878D01*
X146137809Y-104283571D01*
X147028489Y-104759649D01*
X147837528Y-105005068D01*
X147994932Y-105052816D01*
X148999999Y-105151807D01*
X149251868Y-105127000D01*
X154251869Y-105127000D01*
X154301315Y-105122130D01*
X154990000Y-105122130D01*
X155602999Y-105061755D01*
X156192441Y-104882950D01*
X156500000Y-104718556D01*
X156807559Y-104882950D01*
X157397001Y-105061755D01*
X158010000Y-105122130D01*
X158698686Y-105122130D01*
X158991441Y-105150964D01*
X159240351Y-105971510D01*
X159716429Y-106862190D01*
X160357122Y-107642878D01*
X160552770Y-107803442D01*
X160597328Y-107848000D01*
X72152000Y-107848000D01*
X72152000Y-94642130D01*
X73750000Y-94642130D01*
X74362999Y-94581755D01*
X74632509Y-94500000D01*
X82107870Y-94500000D01*
X82107870Y-103500000D01*
X82168245Y-104112999D01*
X82347050Y-104702441D01*
X82637414Y-105245674D01*
X83028179Y-105721821D01*
X83504326Y-106112586D01*
X84047559Y-106402950D01*
X84637001Y-106581755D01*
X85250000Y-106642130D01*
X87750000Y-106642130D01*
X88362999Y-106581755D01*
X88952441Y-106402950D01*
X89495674Y-106112586D01*
X89971821Y-105721821D01*
X90362586Y-105245674D01*
X90652950Y-104702441D01*
X90831755Y-104112999D01*
X90892130Y-103500000D01*
X90892130Y-98171608D01*
X91052770Y-98303442D01*
X96196562Y-103447235D01*
X96357122Y-103642878D01*
X97137809Y-104283571D01*
X97715936Y-104592586D01*
X98028489Y-104759649D01*
X98994932Y-105052817D01*
X100000000Y-105151807D01*
X100251871Y-105127000D01*
X104251869Y-105127000D01*
X104301315Y-105122130D01*
X105990000Y-105122130D01*
X106602999Y-105061755D01*
X107192441Y-104882950D01*
X107735674Y-104592586D01*
X107842432Y-104504972D01*
X108416870Y-104812016D01*
X109192928Y-105047430D01*
X110000000Y-105126920D01*
X110807073Y-105047430D01*
X111583131Y-104812016D01*
X112298350Y-104429723D01*
X112925244Y-103915244D01*
X113439723Y-103288350D01*
X113822016Y-102573130D01*
X114057430Y-101797072D01*
X114117000Y-101192250D01*
X114117000Y-98807749D01*
X114057430Y-98202927D01*
X113822016Y-97426869D01*
X113439723Y-96711650D01*
X112925244Y-96084756D01*
X112298350Y-95570277D01*
X111583130Y-95187984D01*
X110807072Y-94952570D01*
X110000000Y-94873080D01*
X109192927Y-94952570D01*
X108416869Y-95187984D01*
X107842431Y-95495028D01*
X107735674Y-95407414D01*
X107192441Y-95117050D01*
X106602999Y-94938245D01*
X105990000Y-94877870D01*
X104301315Y-94877870D01*
X104251869Y-94873000D01*
X102123673Y-94873000D01*
X99627000Y-92376328D01*
X99627000Y-86748131D01*
X99552816Y-85994932D01*
X99259649Y-85028489D01*
X98892130Y-84340909D01*
X98892130Y-83807749D01*
X100883000Y-83807749D01*
X100883000Y-86192250D01*
X100942570Y-86797072D01*
X101177984Y-87573130D01*
X101560277Y-88288350D01*
X102074756Y-88915244D01*
X102701650Y-89429723D01*
X103416869Y-89812016D01*
X104192927Y-90047430D01*
X105000000Y-90126920D01*
X105807072Y-90047430D01*
X106583130Y-89812016D01*
X107157569Y-89504972D01*
X107264326Y-89592586D01*
X107807559Y-89882950D01*
X108397001Y-90061755D01*
X109010000Y-90122130D01*
X110990000Y-90122130D01*
X111602999Y-90061755D01*
X112192441Y-89882950D01*
X112735674Y-89592586D01*
X113211821Y-89201821D01*
X113602586Y-88725674D01*
X113892950Y-88182441D01*
X114071755Y-87592999D01*
X114132130Y-86980000D01*
X114132130Y-83020000D01*
X114080915Y-82500000D01*
X118107870Y-82500000D01*
X118107870Y-91500000D01*
X118168245Y-92112999D01*
X118347050Y-92702441D01*
X118637414Y-93245674D01*
X119028179Y-93721821D01*
X119504326Y-94112586D01*
X120047559Y-94402950D01*
X120637001Y-94581755D01*
X121250000Y-94642130D01*
X123750000Y-94642130D01*
X124362999Y-94581755D01*
X124952441Y-94402950D01*
X125495674Y-94112586D01*
X125971821Y-93721821D01*
X126362586Y-93245674D01*
X126652950Y-92702441D01*
X126831755Y-92112999D01*
X126892130Y-91500000D01*
X126892130Y-82500000D01*
X126831755Y-81887001D01*
X126652950Y-81297559D01*
X126362586Y-80754326D01*
X125971821Y-80278179D01*
X125495674Y-79887414D01*
X124952441Y-79597050D01*
X124362999Y-79418245D01*
X123750000Y-79357870D01*
X121250000Y-79357870D01*
X120637001Y-79418245D01*
X120047559Y-79597050D01*
X119504326Y-79887414D01*
X119028179Y-80278179D01*
X118637414Y-80754326D01*
X118347050Y-81297559D01*
X118168245Y-81887001D01*
X118107870Y-82500000D01*
X114080915Y-82500000D01*
X114071755Y-82407001D01*
X113892950Y-81817559D01*
X113602586Y-81274326D01*
X113211821Y-80798179D01*
X112735674Y-80407414D01*
X112192441Y-80117050D01*
X111602999Y-79938245D01*
X110990000Y-79877870D01*
X109010000Y-79877870D01*
X108397001Y-79938245D01*
X107807559Y-80117050D01*
X107264326Y-80407414D01*
X107157569Y-80495028D01*
X106583131Y-80187984D01*
X105807073Y-79952570D01*
X105000000Y-79873080D01*
X104192928Y-79952570D01*
X103416870Y-80187984D01*
X102701651Y-80570277D01*
X102074757Y-81084756D01*
X101560278Y-81711650D01*
X101177984Y-82426869D01*
X100942570Y-83202927D01*
X100883000Y-83807749D01*
X98892130Y-83807749D01*
X98892130Y-82500000D01*
X98831755Y-81887001D01*
X98652950Y-81297559D01*
X98362586Y-80754326D01*
X97971821Y-80278179D01*
X97495674Y-79887414D01*
X96952441Y-79597050D01*
X96362999Y-79418245D01*
X95750000Y-79357870D01*
X93250000Y-79357870D01*
X92637001Y-79418245D01*
X92047559Y-79597050D01*
X91504326Y-79887414D01*
X91028179Y-80278179D01*
X90637414Y-80754326D01*
X90347050Y-81297559D01*
X90168245Y-81887001D01*
X90107870Y-82500000D01*
X90107870Y-84340911D01*
X89740352Y-85028489D01*
X89447185Y-85994932D01*
X89373001Y-86748131D01*
X89373000Y-91821844D01*
X88952441Y-91597050D01*
X88362999Y-91418245D01*
X87750000Y-91357870D01*
X85250000Y-91357870D01*
X84637001Y-91418245D01*
X84047559Y-91597050D01*
X83504326Y-91887414D01*
X83028179Y-92278179D01*
X82637414Y-92754326D01*
X82347050Y-93297559D01*
X82168245Y-93887001D01*
X82107870Y-94500000D01*
X74632509Y-94500000D01*
X74952441Y-94402950D01*
X75495674Y-94112586D01*
X75971821Y-93721821D01*
X76362586Y-93245674D01*
X76652950Y-92702441D01*
X76831755Y-92112999D01*
X76892130Y-91500000D01*
X76892130Y-82500000D01*
X76831755Y-81887001D01*
X76652950Y-81297559D01*
X76362586Y-80754326D01*
X75971821Y-80278179D01*
X75495674Y-79887414D01*
X74952441Y-79597050D01*
X74362999Y-79418245D01*
X73750000Y-79357870D01*
X72152000Y-79357870D01*
X72152000Y-73152000D01*
X244848001Y-73152000D01*
X244848001Y-74845154D01*
G36*
X182107870Y-102647990D02*
G01*
X169898663Y-102647990D01*
X169337199Y-102086527D01*
X170000000Y-102151807D01*
X170251868Y-102127000D01*
X175748132Y-102127000D01*
X176000000Y-102151807D01*
X176251868Y-102127000D01*
X176251869Y-102127000D01*
X177005068Y-102052816D01*
X177971511Y-101759649D01*
X178862191Y-101283571D01*
X179642878Y-100642878D01*
X179803442Y-100447230D01*
X182107870Y-98142802D01*
X182107870Y-102647990D01*
X182107870Y-102647990D01*
G37*
X182107870Y-102647990D02*
X169898663Y-102647990D01*
X169337199Y-102086527D01*
X170000000Y-102151807D01*
X170251868Y-102127000D01*
X175748132Y-102127000D01*
X176000000Y-102151807D01*
X176251868Y-102127000D01*
X176251869Y-102127000D01*
X177005068Y-102052816D01*
X177971511Y-101759649D01*
X178862191Y-101283571D01*
X179642878Y-100642878D01*
X179803442Y-100447230D01*
X182107870Y-98142802D01*
X182107870Y-102647990D01*
M02*
