M48
; DRILL file {KiCad 5.1.4} date Wed 13 Nov 2019 08:32:29 PM EST
; FORMAT={-:-/ absolute / inch / decimal}
; #@! TF.CreationDate,2019-11-13T20:32:29-05:00
; #@! TF.GenerationSoftware,Kicad,Pcbnew,5.1.4
; #@! TF.FileFunction,Plated,1,2,PTH
FMAT,2
INCH
T1C0.0492
T2C0.0520
%
G90
G05
T2
X4.1339Y-3.3465
X4.3307Y-3.3465
X6.063Y-3.937
X6.2598Y-3.937
X6.4567Y-3.937
X4.1339Y-3.937
X4.3307Y-3.937
T1
G00X4.8228Y-3.312
M15
G01X4.8228Y-3.5384
M16
G05
G00X5.374Y-3.7844
M15
G01X5.374Y-4.0108
M16
G05
G00X5.689Y-3.312
M15
G01X5.689Y-3.5384
M16
G05
G00X2.8543Y-3.312
M15
G01X2.8543Y-3.5384
M16
G05
G00X3.4055Y-3.7844
M15
G01X3.4055Y-4.0108
M16
G05
G00X3.7205Y-3.312
M15
G01X3.7205Y-3.5384
M16
G05
G00X8.7598Y-3.312
M15
G01X8.7598Y-3.5384
M16
G05
G00X9.311Y-3.7844
M15
G01X9.311Y-4.0108
M16
G05
G00X9.626Y-3.312
M15
G01X9.626Y-3.5384
M16
G05
G00X6.7913Y-3.312
M15
G01X6.7913Y-3.5384
M16
G05
G00X7.3425Y-3.7844
M15
G01X7.3425Y-4.0108
M16
G05
G00X7.6575Y-3.312
M15
G01X7.6575Y-3.5384
M16
G05
T0
M30
