%TF.GenerationSoftware,KiCad,Pcbnew,(5.1.6)-1*%
%TF.CreationDate,2021-10-03T16:09:20-04:00*%
%TF.ProjectId,horny_dom,686f726e-795f-4646-9f6d-2e6b69636164,rev?*%
%TF.SameCoordinates,Original*%
%TF.FileFunction,Legend,Top*%
%TF.FilePolarity,Positive*%
%FSLAX46Y46*%
G04 Gerber Fmt 4.6, Leading zero omitted, Abs format (unit mm)*
G04 Created by KiCad (PCBNEW (5.1.6)-1) date 2021-10-03 16:09:20*
%MOMM*%
%LPD*%
G01*
G04 APERTURE LIST*
%ADD10C,0.125000*%
%ADD11C,0.300000*%
%ADD12C,0.120000*%
%ADD13C,0.150000*%
G04 APERTURE END LIST*
D10*
X146426190Y-104126190D02*
X145926190Y-104126190D01*
X146164285Y-104126190D02*
X146164285Y-103840476D01*
X146426190Y-103840476D02*
X145926190Y-103840476D01*
X146426190Y-103530952D02*
X146402380Y-103578571D01*
X146378571Y-103602380D01*
X146330952Y-103626190D01*
X146188095Y-103626190D01*
X146140476Y-103602380D01*
X146116666Y-103578571D01*
X146092857Y-103530952D01*
X146092857Y-103459523D01*
X146116666Y-103411904D01*
X146140476Y-103388095D01*
X146188095Y-103364285D01*
X146330952Y-103364285D01*
X146378571Y-103388095D01*
X146402380Y-103411904D01*
X146426190Y-103459523D01*
X146426190Y-103530952D01*
X146426190Y-103150000D02*
X146092857Y-103150000D01*
X146188095Y-103150000D02*
X146140476Y-103126190D01*
X146116666Y-103102380D01*
X146092857Y-103054761D01*
X146092857Y-103007142D01*
X146092857Y-102840476D02*
X146426190Y-102840476D01*
X146140476Y-102840476D02*
X146116666Y-102816666D01*
X146092857Y-102769047D01*
X146092857Y-102697619D01*
X146116666Y-102650000D01*
X146164285Y-102626190D01*
X146426190Y-102626190D01*
X146092857Y-102435714D02*
X146426190Y-102316666D01*
X146092857Y-102197619D02*
X146426190Y-102316666D01*
X146545238Y-102364285D01*
X146569047Y-102388095D01*
X146592857Y-102435714D01*
X146426190Y-101626190D02*
X145926190Y-101626190D01*
X145926190Y-101507142D01*
X145950000Y-101435714D01*
X145997619Y-101388095D01*
X146045238Y-101364285D01*
X146140476Y-101340476D01*
X146211904Y-101340476D01*
X146307142Y-101364285D01*
X146354761Y-101388095D01*
X146402380Y-101435714D01*
X146426190Y-101507142D01*
X146426190Y-101626190D01*
X146426190Y-101054761D02*
X146402380Y-101102380D01*
X146378571Y-101126190D01*
X146330952Y-101150000D01*
X146188095Y-101150000D01*
X146140476Y-101126190D01*
X146116666Y-101102380D01*
X146092857Y-101054761D01*
X146092857Y-100983333D01*
X146116666Y-100935714D01*
X146140476Y-100911904D01*
X146188095Y-100888095D01*
X146330952Y-100888095D01*
X146378571Y-100911904D01*
X146402380Y-100935714D01*
X146426190Y-100983333D01*
X146426190Y-101054761D01*
X146426190Y-100673809D02*
X146092857Y-100673809D01*
X146140476Y-100673809D02*
X146116666Y-100650000D01*
X146092857Y-100602380D01*
X146092857Y-100530952D01*
X146116666Y-100483333D01*
X146164285Y-100459523D01*
X146426190Y-100459523D01*
X146164285Y-100459523D02*
X146116666Y-100435714D01*
X146092857Y-100388095D01*
X146092857Y-100316666D01*
X146116666Y-100269047D01*
X146164285Y-100245238D01*
X146426190Y-100245238D01*
X146092857Y-99673809D02*
X146426190Y-99554761D01*
X146092857Y-99435714D01*
X145973809Y-99269047D02*
X145950000Y-99245238D01*
X145926190Y-99197619D01*
X145926190Y-99078571D01*
X145950000Y-99030952D01*
X145973809Y-99007142D01*
X146021428Y-98983333D01*
X146069047Y-98983333D01*
X146140476Y-99007142D01*
X146426190Y-99292857D01*
X146426190Y-98983333D01*
X145926190Y-98673809D02*
X145926190Y-98626190D01*
X145950000Y-98578571D01*
X145973809Y-98554761D01*
X146021428Y-98530952D01*
X146116666Y-98507142D01*
X146235714Y-98507142D01*
X146330952Y-98530952D01*
X146378571Y-98554761D01*
X146402380Y-98578571D01*
X146426190Y-98626190D01*
X146426190Y-98673809D01*
X146402380Y-98721428D01*
X146378571Y-98745238D01*
X146330952Y-98769047D01*
X146235714Y-98792857D01*
X146116666Y-98792857D01*
X146021428Y-98769047D01*
X145973809Y-98745238D01*
X145950000Y-98721428D01*
X145926190Y-98673809D01*
X145973809Y-98316666D02*
X145950000Y-98292857D01*
X145926190Y-98245238D01*
X145926190Y-98126190D01*
X145950000Y-98078571D01*
X145973809Y-98054761D01*
X146021428Y-98030952D01*
X146069047Y-98030952D01*
X146140476Y-98054761D01*
X146426190Y-98340476D01*
X146426190Y-98030952D01*
X146426190Y-97554761D02*
X146426190Y-97840476D01*
X146426190Y-97697619D02*
X145926190Y-97697619D01*
X145997619Y-97745238D01*
X146045238Y-97792857D01*
X146069047Y-97840476D01*
X146426190Y-97078571D02*
X146426190Y-97364285D01*
X146426190Y-97221428D02*
X145926190Y-97221428D01*
X145997619Y-97269047D01*
X146045238Y-97316666D01*
X146069047Y-97364285D01*
X145926190Y-96769047D02*
X145926190Y-96721428D01*
X145950000Y-96673809D01*
X145973809Y-96650000D01*
X146021428Y-96626190D01*
X146116666Y-96602380D01*
X146235714Y-96602380D01*
X146330952Y-96626190D01*
X146378571Y-96650000D01*
X146402380Y-96673809D01*
X146426190Y-96721428D01*
X146426190Y-96769047D01*
X146402380Y-96816666D01*
X146378571Y-96840476D01*
X146330952Y-96864285D01*
X146235714Y-96888095D01*
X146116666Y-96888095D01*
X146021428Y-96864285D01*
X145973809Y-96840476D01*
X145950000Y-96816666D01*
X145926190Y-96769047D01*
X145926190Y-96292857D02*
X145926190Y-96245238D01*
X145950000Y-96197619D01*
X145973809Y-96173809D01*
X146021428Y-96150000D01*
X146116666Y-96126190D01*
X146235714Y-96126190D01*
X146330952Y-96150000D01*
X146378571Y-96173809D01*
X146402380Y-96197619D01*
X146426190Y-96245238D01*
X146426190Y-96292857D01*
X146402380Y-96340476D01*
X146378571Y-96364285D01*
X146330952Y-96388095D01*
X146235714Y-96411904D01*
X146116666Y-96411904D01*
X146021428Y-96388095D01*
X145973809Y-96364285D01*
X145950000Y-96340476D01*
X145926190Y-96292857D01*
X145926190Y-95959523D02*
X145926190Y-95650000D01*
X146116666Y-95816666D01*
X146116666Y-95745238D01*
X146140476Y-95697619D01*
X146164285Y-95673809D01*
X146211904Y-95650000D01*
X146330952Y-95650000D01*
X146378571Y-95673809D01*
X146402380Y-95697619D01*
X146426190Y-95745238D01*
X146426190Y-95888095D01*
X146402380Y-95935714D01*
X146378571Y-95959523D01*
X142226190Y-125590476D02*
X142226190Y-125828571D01*
X141726190Y-125828571D01*
X141726190Y-125423809D02*
X142130952Y-125423809D01*
X142178571Y-125400000D01*
X142202380Y-125376190D01*
X142226190Y-125328571D01*
X142226190Y-125233333D01*
X142202380Y-125185714D01*
X142178571Y-125161904D01*
X142130952Y-125138095D01*
X141726190Y-125138095D01*
X142226190Y-124900000D02*
X141726190Y-124900000D01*
X142083333Y-124733333D01*
X141726190Y-124566666D01*
X142226190Y-124566666D01*
X141964285Y-124328571D02*
X141964285Y-124161904D01*
X142226190Y-124090476D02*
X142226190Y-124328571D01*
X141726190Y-124328571D01*
X141726190Y-124090476D01*
X142226190Y-123876190D02*
X141726190Y-123876190D01*
X142226190Y-123590476D01*
X141726190Y-123590476D01*
X141726190Y-123328571D02*
X141821428Y-123376190D01*
X142202380Y-123138095D02*
X142226190Y-123066666D01*
X142226190Y-122947619D01*
X142202380Y-122900000D01*
X142178571Y-122876190D01*
X142130952Y-122852380D01*
X142083333Y-122852380D01*
X142035714Y-122876190D01*
X142011904Y-122900000D01*
X141988095Y-122947619D01*
X141964285Y-123042857D01*
X141940476Y-123090476D01*
X141916666Y-123114285D01*
X141869047Y-123138095D01*
X141821428Y-123138095D01*
X141773809Y-123114285D01*
X141750000Y-123090476D01*
X141726190Y-123042857D01*
X141726190Y-122923809D01*
X141750000Y-122852380D01*
X142226190Y-122019047D02*
X142226190Y-122257142D01*
X141726190Y-122257142D01*
X142226190Y-121852380D02*
X141726190Y-121852380D01*
X141750000Y-121352380D02*
X141726190Y-121400000D01*
X141726190Y-121471428D01*
X141750000Y-121542857D01*
X141797619Y-121590476D01*
X141845238Y-121614285D01*
X141940476Y-121638095D01*
X142011904Y-121638095D01*
X142107142Y-121614285D01*
X142154761Y-121590476D01*
X142202380Y-121542857D01*
X142226190Y-121471428D01*
X142226190Y-121423809D01*
X142202380Y-121352380D01*
X142178571Y-121328571D01*
X142011904Y-121328571D01*
X142011904Y-121423809D01*
X142226190Y-121114285D02*
X141726190Y-121114285D01*
X141964285Y-121114285D02*
X141964285Y-120828571D01*
X142226190Y-120828571D02*
X141726190Y-120828571D01*
X141726190Y-120661904D02*
X141726190Y-120376190D01*
X142226190Y-120519047D02*
X141726190Y-120519047D01*
X142202380Y-120233333D02*
X142226190Y-120161904D01*
X142226190Y-120042857D01*
X142202380Y-119995238D01*
X142178571Y-119971428D01*
X142130952Y-119947619D01*
X142083333Y-119947619D01*
X142035714Y-119971428D01*
X142011904Y-119995238D01*
X141988095Y-120042857D01*
X141964285Y-120138095D01*
X141940476Y-120185714D01*
X141916666Y-120209523D01*
X141869047Y-120233333D01*
X141821428Y-120233333D01*
X141773809Y-120209523D01*
X141750000Y-120185714D01*
X141726190Y-120138095D01*
X141726190Y-120019047D01*
X141750000Y-119947619D01*
X151792857Y-105190476D02*
X151935714Y-104809523D01*
X152078571Y-105190476D01*
X149292857Y-105190476D02*
X149435714Y-104809523D01*
X149578571Y-105190476D01*
X158192857Y-89590476D02*
X158335714Y-89209523D01*
X158478571Y-89590476D01*
X158192857Y-94790476D02*
X158335714Y-94409523D01*
X158478571Y-94790476D01*
X143757142Y-81702380D02*
X143828571Y-81726190D01*
X143947619Y-81726190D01*
X143995238Y-81702380D01*
X144019047Y-81678571D01*
X144042857Y-81630952D01*
X144042857Y-81583333D01*
X144019047Y-81535714D01*
X143995238Y-81511904D01*
X143947619Y-81488095D01*
X143852380Y-81464285D01*
X143804761Y-81440476D01*
X143780952Y-81416666D01*
X143757142Y-81369047D01*
X143757142Y-81321428D01*
X143780952Y-81273809D01*
X143804761Y-81250000D01*
X143852380Y-81226190D01*
X143971428Y-81226190D01*
X144042857Y-81250000D01*
X144542857Y-81678571D02*
X144519047Y-81702380D01*
X144447619Y-81726190D01*
X144400000Y-81726190D01*
X144328571Y-81702380D01*
X144280952Y-81654761D01*
X144257142Y-81607142D01*
X144233333Y-81511904D01*
X144233333Y-81440476D01*
X144257142Y-81345238D01*
X144280952Y-81297619D01*
X144328571Y-81250000D01*
X144400000Y-81226190D01*
X144447619Y-81226190D01*
X144519047Y-81250000D01*
X144542857Y-81273809D01*
X144757142Y-81726190D02*
X144757142Y-81226190D01*
X145042857Y-81726190D02*
X144828571Y-81440476D01*
X145042857Y-81226190D02*
X144757142Y-81511904D01*
X141526190Y-81626190D02*
X141359523Y-81388095D01*
X141240476Y-81626190D02*
X141240476Y-81126190D01*
X141430952Y-81126190D01*
X141478571Y-81150000D01*
X141502380Y-81173809D01*
X141526190Y-81221428D01*
X141526190Y-81292857D01*
X141502380Y-81340476D01*
X141478571Y-81364285D01*
X141430952Y-81388095D01*
X141240476Y-81388095D01*
X141716666Y-81602380D02*
X141788095Y-81626190D01*
X141907142Y-81626190D01*
X141954761Y-81602380D01*
X141978571Y-81578571D01*
X142002380Y-81530952D01*
X142002380Y-81483333D01*
X141978571Y-81435714D01*
X141954761Y-81411904D01*
X141907142Y-81388095D01*
X141811904Y-81364285D01*
X141764285Y-81340476D01*
X141740476Y-81316666D01*
X141716666Y-81269047D01*
X141716666Y-81221428D01*
X141740476Y-81173809D01*
X141764285Y-81150000D01*
X141811904Y-81126190D01*
X141930952Y-81126190D01*
X142002380Y-81150000D01*
X142145238Y-81126190D02*
X142430952Y-81126190D01*
X142288095Y-81626190D02*
X142288095Y-81126190D01*
X141478571Y-75850000D02*
X141430952Y-75826190D01*
X141359523Y-75826190D01*
X141288095Y-75850000D01*
X141240476Y-75897619D01*
X141216666Y-75945238D01*
X141192857Y-76040476D01*
X141192857Y-76111904D01*
X141216666Y-76207142D01*
X141240476Y-76254761D01*
X141288095Y-76302380D01*
X141359523Y-76326190D01*
X141407142Y-76326190D01*
X141478571Y-76302380D01*
X141502380Y-76278571D01*
X141502380Y-76111904D01*
X141407142Y-76111904D01*
X141716666Y-75992857D02*
X141716666Y-76326190D01*
X141716666Y-76040476D02*
X141740476Y-76016666D01*
X141788095Y-75992857D01*
X141859523Y-75992857D01*
X141907142Y-76016666D01*
X141930952Y-76064285D01*
X141930952Y-76326190D01*
X142383333Y-76326190D02*
X142383333Y-75826190D01*
X142383333Y-76302380D02*
X142335714Y-76326190D01*
X142240476Y-76326190D01*
X142192857Y-76302380D01*
X142169047Y-76278571D01*
X142145238Y-76230952D01*
X142145238Y-76088095D01*
X142169047Y-76040476D01*
X142192857Y-76016666D01*
X142240476Y-75992857D01*
X142335714Y-75992857D01*
X142383333Y-76016666D01*
X143971428Y-76326190D02*
X143971428Y-75826190D01*
X144138095Y-76183333D01*
X144304761Y-75826190D01*
X144304761Y-76326190D01*
X144638095Y-75826190D02*
X144733333Y-75826190D01*
X144780952Y-75850000D01*
X144828571Y-75897619D01*
X144852380Y-75992857D01*
X144852380Y-76159523D01*
X144828571Y-76254761D01*
X144780952Y-76302380D01*
X144733333Y-76326190D01*
X144638095Y-76326190D01*
X144590476Y-76302380D01*
X144542857Y-76254761D01*
X144519047Y-76159523D01*
X144519047Y-75992857D01*
X144542857Y-75897619D01*
X144590476Y-75850000D01*
X144638095Y-75826190D01*
X146304761Y-75826190D02*
X146471428Y-76326190D01*
X146638095Y-75826190D01*
X147019047Y-76302380D02*
X146971428Y-76326190D01*
X146876190Y-76326190D01*
X146828571Y-76302380D01*
X146804761Y-76278571D01*
X146780952Y-76230952D01*
X146780952Y-76088095D01*
X146804761Y-76040476D01*
X146828571Y-76016666D01*
X146876190Y-75992857D01*
X146971428Y-75992857D01*
X147019047Y-76016666D01*
X147447619Y-76302380D02*
X147400000Y-76326190D01*
X147304761Y-76326190D01*
X147257142Y-76302380D01*
X147233333Y-76278571D01*
X147209523Y-76230952D01*
X147209523Y-76088095D01*
X147233333Y-76040476D01*
X147257142Y-76016666D01*
X147304761Y-75992857D01*
X147400000Y-75992857D01*
X147447619Y-76016666D01*
X146814285Y-81726190D02*
X146814285Y-81226190D01*
X146980952Y-81583333D01*
X147147619Y-81226190D01*
X147147619Y-81726190D01*
X147385714Y-81726190D02*
X147385714Y-81226190D01*
D11*
X148928571Y-79707142D02*
X150071428Y-79707142D01*
X149500000Y-80278571D02*
X149500000Y-79135714D01*
X149607142Y-75071428D02*
X149607142Y-73928571D01*
X153700000Y-82635714D02*
X153771428Y-82707142D01*
X153700000Y-82778571D01*
X153628571Y-82707142D01*
X153700000Y-82635714D01*
X153700000Y-82778571D01*
X143300000Y-82935714D02*
X143371428Y-83007142D01*
X143300000Y-83078571D01*
X143228571Y-83007142D01*
X143300000Y-82935714D01*
X143300000Y-83078571D01*
D10*
X142109523Y-100735714D02*
X142490476Y-100735714D01*
X142300000Y-100926190D02*
X142300000Y-100545238D01*
X142169047Y-101926190D02*
X142169047Y-101426190D01*
X142288095Y-101426190D01*
X142359523Y-101450000D01*
X142407142Y-101497619D01*
X142430952Y-101545238D01*
X142454761Y-101640476D01*
X142454761Y-101711904D01*
X142430952Y-101807142D01*
X142407142Y-101854761D01*
X142359523Y-101902380D01*
X142288095Y-101926190D01*
X142169047Y-101926190D01*
X142235714Y-102890476D02*
X142235714Y-102509523D01*
X142169047Y-97726190D02*
X142169047Y-97226190D01*
X142288095Y-97226190D01*
X142359523Y-97250000D01*
X142407142Y-97297619D01*
X142430952Y-97345238D01*
X142454761Y-97440476D01*
X142454761Y-97511904D01*
X142430952Y-97607142D01*
X142407142Y-97654761D01*
X142359523Y-97702380D01*
X142288095Y-97726190D01*
X142169047Y-97726190D01*
X142235714Y-98690476D02*
X142235714Y-98309523D01*
X142109523Y-96535714D02*
X142490476Y-96535714D01*
X142300000Y-96726190D02*
X142300000Y-96345238D01*
D12*
%TO.C,U3*%
X157550000Y-84820000D02*
X157550000Y-83580000D01*
X152850000Y-84820000D02*
X152850000Y-83580000D01*
X152850000Y-82250000D02*
X152850000Y-81900000D01*
X152850000Y-81900000D02*
X157550000Y-81900000D01*
X157550000Y-81900000D02*
X157550000Y-82250000D01*
X152850000Y-82250000D02*
X151600000Y-82250000D01*
X152850000Y-86150000D02*
X152850000Y-86500000D01*
X152850000Y-86500000D02*
X157550000Y-86500000D01*
X157550000Y-86500000D02*
X157550000Y-86150000D01*
D13*
%TO.C,Tiny85*%
X147950000Y-87350000D02*
X149700000Y-87350000D01*
X147950000Y-82045000D02*
X142450000Y-82045000D01*
X147950000Y-87555000D02*
X142450000Y-87555000D01*
X147950000Y-82045000D02*
X147950000Y-82345000D01*
X142450000Y-82045000D02*
X142450000Y-82345000D01*
X142450000Y-87555000D02*
X142450000Y-87255000D01*
X147950000Y-87555000D02*
X147950000Y-87350000D01*
D12*
%TO.C,U1*%
X158710000Y-100000000D02*
X158710000Y-97550000D01*
X155490000Y-98200000D02*
X155490000Y-100000000D01*
%TO.C,SW1*%
X150700000Y-129100000D02*
X152700000Y-129100000D01*
X148700000Y-129100000D02*
X150700000Y-128100000D01*
X146700000Y-129100000D02*
X148700000Y-129100000D01*
X147700000Y-125100000D02*
X149700000Y-125100000D01*
X151700000Y-133100000D02*
X147700000Y-133100000D01*
X149700000Y-125100000D02*
X151700000Y-125100000D01*
X147700000Y-133100000D02*
G75*
G02*
X147700000Y-125100000I0J4000000D01*
G01*
X151700000Y-125100000D02*
G75*
G02*
X151700000Y-133100000I0J-4000000D01*
G01*
%TO.C,R8*%
X150502064Y-95290000D02*
X149297936Y-95290000D01*
X150502064Y-97110000D02*
X149297936Y-97110000D01*
%TO.C,R7*%
X147790000Y-99297936D02*
X147790000Y-100502064D01*
X149610000Y-99297936D02*
X149610000Y-100502064D01*
%TO.C,R6*%
X150290000Y-99297936D02*
X150290000Y-100502064D01*
X152110000Y-99297936D02*
X152110000Y-100502064D01*
%TO.C,R5*%
X145010000Y-90902064D02*
X145010000Y-89697936D01*
X143190000Y-90902064D02*
X143190000Y-89697936D01*
%TO.C,R4*%
X140690000Y-89697936D02*
X140690000Y-90902064D01*
X142510000Y-89697936D02*
X142510000Y-90902064D01*
%TO.C,R3*%
X154602064Y-91890000D02*
X153397936Y-91890000D01*
X154602064Y-93710000D02*
X153397936Y-93710000D01*
%TO.C,R2*%
X153397936Y-91210000D02*
X154602064Y-91210000D01*
X153397936Y-89390000D02*
X154602064Y-89390000D01*
%TO.C,R1*%
X155797936Y-103410000D02*
X157002064Y-103410000D01*
X155797936Y-101590000D02*
X157002064Y-101590000D01*
%TO.C,JP1*%
X151100000Y-117100000D02*
X148300000Y-117100000D01*
X148300000Y-117100000D02*
X148300000Y-115100000D01*
X148300000Y-115100000D02*
X151100000Y-115100000D01*
X151100000Y-115100000D02*
X151100000Y-117100000D01*
%TO.C,LED*%
X140505000Y-100015000D02*
X141200000Y-100015000D01*
X140505000Y-100700000D02*
X140505000Y-100015000D01*
X141808276Y-101385000D02*
X141895000Y-101385000D01*
X140505000Y-101385000D02*
X140591724Y-101385000D01*
X141895000Y-101385000D02*
X141895000Y-103260000D01*
X140505000Y-101385000D02*
X140505000Y-103260000D01*
X141594493Y-103260000D02*
X141895000Y-103260000D01*
X140505000Y-103260000D02*
X140805507Y-103260000D01*
X140505000Y-95815000D02*
X141200000Y-95815000D01*
X140505000Y-96500000D02*
X140505000Y-95815000D01*
X141808276Y-97185000D02*
X141895000Y-97185000D01*
X140505000Y-97185000D02*
X140591724Y-97185000D01*
X141895000Y-97185000D02*
X141895000Y-99060000D01*
X140505000Y-97185000D02*
X140505000Y-99060000D01*
X141594493Y-99060000D02*
X141895000Y-99060000D01*
X140505000Y-99060000D02*
X140805507Y-99060000D01*
D13*
%TO.C,J1*%
X146311803Y-119000000D02*
G75*
G03*
X146311803Y-119000000I-111803J0D01*
G01*
D12*
X155400000Y-124150000D02*
X155850000Y-123700000D01*
X155400000Y-118850000D02*
X155850000Y-119300000D01*
X154200000Y-124150000D02*
X155400000Y-124150000D01*
X154200000Y-118850000D02*
X155400000Y-118850000D01*
X155850000Y-119300000D02*
X155850000Y-123700000D01*
X143550000Y-124150000D02*
X145200000Y-124150000D01*
X143550000Y-118850000D02*
X145200000Y-118850000D01*
X143550000Y-118850000D02*
X143550000Y-124150000D01*
%TO.C,D5*%
X148765000Y-89040000D02*
X148765000Y-93100000D01*
X151035000Y-89040000D02*
X148765000Y-89040000D01*
X151035000Y-93100000D02*
X151035000Y-89040000D01*
%TO.C,D4*%
X147665000Y-102540000D02*
X147665000Y-106600000D01*
X149935000Y-102540000D02*
X147665000Y-102540000D01*
X149935000Y-106600000D02*
X149935000Y-102540000D01*
%TO.C,D3*%
X150065000Y-102540000D02*
X150065000Y-106600000D01*
X152335000Y-102540000D02*
X150065000Y-102540000D01*
X152335000Y-106600000D02*
X152335000Y-102540000D01*
%TO.C,D2*%
X156665000Y-92140000D02*
X156665000Y-96200000D01*
X158935000Y-92140000D02*
X156665000Y-92140000D01*
X158935000Y-96200000D02*
X158935000Y-92140000D01*
%TO.C,D1*%
X156665000Y-86940000D02*
X156665000Y-91000000D01*
X158935000Y-86940000D02*
X156665000Y-86940000D01*
X158935000Y-91000000D02*
X158935000Y-86940000D01*
%TO.C,C5*%
X142890000Y-101497936D02*
X142890000Y-102702064D01*
X144710000Y-101497936D02*
X144710000Y-102702064D01*
%TO.C,C4*%
X142890000Y-96597936D02*
X142890000Y-97802064D01*
X144710000Y-96597936D02*
X144710000Y-97802064D01*
%TO.C,C3*%
X147410000Y-90902064D02*
X147410000Y-89697936D01*
X145590000Y-90902064D02*
X145590000Y-89697936D01*
%TO.C,C2*%
X152990000Y-97997936D02*
X152990000Y-99202064D01*
X154810000Y-97997936D02*
X154810000Y-99202064D01*
%TO.C,C1*%
X147202064Y-73190000D02*
X145997936Y-73190000D01*
X147202064Y-75010000D02*
X145997936Y-75010000D01*
%TO.C,BT1*%
X158710000Y-79440000D02*
X158710000Y-74760000D01*
X152490000Y-74060000D02*
X152490000Y-75340000D01*
X150890000Y-74060000D02*
X152490000Y-74060000D01*
X150890000Y-73040000D02*
X150890000Y-74060000D01*
X155140000Y-73040000D02*
X150890000Y-73040000D01*
X152490000Y-78860000D02*
X149600000Y-78860000D01*
X152490000Y-80140000D02*
X152490000Y-78860000D01*
X150890000Y-80140000D02*
X152490000Y-80140000D01*
X150890000Y-81160000D02*
X150890000Y-80140000D01*
X155140000Y-81160000D02*
X150890000Y-81160000D01*
%TO.C,Batt*%
D13*
X157128571Y-78052380D02*
X157176190Y-77909523D01*
X157223809Y-77861904D01*
X157319047Y-77814285D01*
X157461904Y-77814285D01*
X157557142Y-77861904D01*
X157604761Y-77909523D01*
X157652380Y-78004761D01*
X157652380Y-78385714D01*
X156652380Y-78385714D01*
X156652380Y-78052380D01*
X156700000Y-77957142D01*
X156747619Y-77909523D01*
X156842857Y-77861904D01*
X156938095Y-77861904D01*
X157033333Y-77909523D01*
X157080952Y-77957142D01*
X157128571Y-78052380D01*
X157128571Y-78385714D01*
X157652380Y-76957142D02*
X157128571Y-76957142D01*
X157033333Y-77004761D01*
X156985714Y-77100000D01*
X156985714Y-77290476D01*
X157033333Y-77385714D01*
X157604761Y-76957142D02*
X157652380Y-77052380D01*
X157652380Y-77290476D01*
X157604761Y-77385714D01*
X157509523Y-77433333D01*
X157414285Y-77433333D01*
X157319047Y-77385714D01*
X157271428Y-77290476D01*
X157271428Y-77052380D01*
X157223809Y-76957142D01*
X156985714Y-76623809D02*
X156985714Y-76242857D01*
X156652380Y-76480952D02*
X157509523Y-76480952D01*
X157604761Y-76433333D01*
X157652380Y-76338095D01*
X157652380Y-76242857D01*
X156985714Y-76052380D02*
X156985714Y-75671428D01*
X156652380Y-75909523D02*
X157509523Y-75909523D01*
X157604761Y-75861904D01*
X157652380Y-75766666D01*
X157652380Y-75671428D01*
%TO.C,U3*%
D10*
X154819047Y-83926190D02*
X154819047Y-84330952D01*
X154842857Y-84378571D01*
X154866666Y-84402380D01*
X154914285Y-84426190D01*
X155009523Y-84426190D01*
X155057142Y-84402380D01*
X155080952Y-84378571D01*
X155104761Y-84330952D01*
X155104761Y-83926190D01*
X155295238Y-83926190D02*
X155604761Y-83926190D01*
X155438095Y-84116666D01*
X155509523Y-84116666D01*
X155557142Y-84140476D01*
X155580952Y-84164285D01*
X155604761Y-84211904D01*
X155604761Y-84330952D01*
X155580952Y-84378571D01*
X155557142Y-84402380D01*
X155509523Y-84426190D01*
X155366666Y-84426190D01*
X155319047Y-84402380D01*
X155295238Y-84378571D01*
%TO.C,Tiny85*%
X143945238Y-84426190D02*
X144230952Y-84426190D01*
X144088095Y-84926190D02*
X144088095Y-84426190D01*
X144397619Y-84926190D02*
X144397619Y-84592857D01*
X144397619Y-84426190D02*
X144373809Y-84450000D01*
X144397619Y-84473809D01*
X144421428Y-84450000D01*
X144397619Y-84426190D01*
X144397619Y-84473809D01*
X144635714Y-84592857D02*
X144635714Y-84926190D01*
X144635714Y-84640476D02*
X144659523Y-84616666D01*
X144707142Y-84592857D01*
X144778571Y-84592857D01*
X144826190Y-84616666D01*
X144850000Y-84664285D01*
X144850000Y-84926190D01*
X145040476Y-84592857D02*
X145159523Y-84926190D01*
X145278571Y-84592857D02*
X145159523Y-84926190D01*
X145111904Y-85045238D01*
X145088095Y-85069047D01*
X145040476Y-85092857D01*
X145540476Y-84640476D02*
X145492857Y-84616666D01*
X145469047Y-84592857D01*
X145445238Y-84545238D01*
X145445238Y-84521428D01*
X145469047Y-84473809D01*
X145492857Y-84450000D01*
X145540476Y-84426190D01*
X145635714Y-84426190D01*
X145683333Y-84450000D01*
X145707142Y-84473809D01*
X145730952Y-84521428D01*
X145730952Y-84545238D01*
X145707142Y-84592857D01*
X145683333Y-84616666D01*
X145635714Y-84640476D01*
X145540476Y-84640476D01*
X145492857Y-84664285D01*
X145469047Y-84688095D01*
X145445238Y-84735714D01*
X145445238Y-84830952D01*
X145469047Y-84878571D01*
X145492857Y-84902380D01*
X145540476Y-84926190D01*
X145635714Y-84926190D01*
X145683333Y-84902380D01*
X145707142Y-84878571D01*
X145730952Y-84830952D01*
X145730952Y-84735714D01*
X145707142Y-84688095D01*
X145683333Y-84664285D01*
X145635714Y-84640476D01*
X146183333Y-84426190D02*
X145945238Y-84426190D01*
X145921428Y-84664285D01*
X145945238Y-84640476D01*
X145992857Y-84616666D01*
X146111904Y-84616666D01*
X146159523Y-84640476D01*
X146183333Y-84664285D01*
X146207142Y-84711904D01*
X146207142Y-84830952D01*
X146183333Y-84878571D01*
X146159523Y-84902380D01*
X146111904Y-84926190D01*
X145992857Y-84926190D01*
X145945238Y-84902380D01*
X145921428Y-84878571D01*
%TO.C,U1*%
X156926190Y-99480952D02*
X157330952Y-99480952D01*
X157378571Y-99457142D01*
X157402380Y-99433333D01*
X157426190Y-99385714D01*
X157426190Y-99290476D01*
X157402380Y-99242857D01*
X157378571Y-99219047D01*
X157330952Y-99195238D01*
X156926190Y-99195238D01*
X157426190Y-98695238D02*
X157426190Y-98980952D01*
X157426190Y-98838095D02*
X156926190Y-98838095D01*
X156997619Y-98885714D01*
X157045238Y-98933333D01*
X157069047Y-98980952D01*
%TO.C,R8*%
X149816666Y-96426190D02*
X149650000Y-96188095D01*
X149530952Y-96426190D02*
X149530952Y-95926190D01*
X149721428Y-95926190D01*
X149769047Y-95950000D01*
X149792857Y-95973809D01*
X149816666Y-96021428D01*
X149816666Y-96092857D01*
X149792857Y-96140476D01*
X149769047Y-96164285D01*
X149721428Y-96188095D01*
X149530952Y-96188095D01*
X150102380Y-96140476D02*
X150054761Y-96116666D01*
X150030952Y-96092857D01*
X150007142Y-96045238D01*
X150007142Y-96021428D01*
X150030952Y-95973809D01*
X150054761Y-95950000D01*
X150102380Y-95926190D01*
X150197619Y-95926190D01*
X150245238Y-95950000D01*
X150269047Y-95973809D01*
X150292857Y-96021428D01*
X150292857Y-96045238D01*
X150269047Y-96092857D01*
X150245238Y-96116666D01*
X150197619Y-96140476D01*
X150102380Y-96140476D01*
X150054761Y-96164285D01*
X150030952Y-96188095D01*
X150007142Y-96235714D01*
X150007142Y-96330952D01*
X150030952Y-96378571D01*
X150054761Y-96402380D01*
X150102380Y-96426190D01*
X150197619Y-96426190D01*
X150245238Y-96402380D01*
X150269047Y-96378571D01*
X150292857Y-96330952D01*
X150292857Y-96235714D01*
X150269047Y-96188095D01*
X150245238Y-96164285D01*
X150197619Y-96140476D01*
%TO.C,R7*%
X149026190Y-99983333D02*
X148788095Y-100150000D01*
X149026190Y-100269047D02*
X148526190Y-100269047D01*
X148526190Y-100078571D01*
X148550000Y-100030952D01*
X148573809Y-100007142D01*
X148621428Y-99983333D01*
X148692857Y-99983333D01*
X148740476Y-100007142D01*
X148764285Y-100030952D01*
X148788095Y-100078571D01*
X148788095Y-100269047D01*
X148526190Y-99816666D02*
X148526190Y-99483333D01*
X149026190Y-99697619D01*
%TO.C,R6*%
X151426190Y-99983333D02*
X151188095Y-100150000D01*
X151426190Y-100269047D02*
X150926190Y-100269047D01*
X150926190Y-100078571D01*
X150950000Y-100030952D01*
X150973809Y-100007142D01*
X151021428Y-99983333D01*
X151092857Y-99983333D01*
X151140476Y-100007142D01*
X151164285Y-100030952D01*
X151188095Y-100078571D01*
X151188095Y-100269047D01*
X150926190Y-99554761D02*
X150926190Y-99650000D01*
X150950000Y-99697619D01*
X150973809Y-99721428D01*
X151045238Y-99769047D01*
X151140476Y-99792857D01*
X151330952Y-99792857D01*
X151378571Y-99769047D01*
X151402380Y-99745238D01*
X151426190Y-99697619D01*
X151426190Y-99602380D01*
X151402380Y-99554761D01*
X151378571Y-99530952D01*
X151330952Y-99507142D01*
X151211904Y-99507142D01*
X151164285Y-99530952D01*
X151140476Y-99554761D01*
X151116666Y-99602380D01*
X151116666Y-99697619D01*
X151140476Y-99745238D01*
X151164285Y-99769047D01*
X151211904Y-99792857D01*
%TO.C,R5*%
X144326190Y-90383333D02*
X144088095Y-90550000D01*
X144326190Y-90669047D02*
X143826190Y-90669047D01*
X143826190Y-90478571D01*
X143850000Y-90430952D01*
X143873809Y-90407142D01*
X143921428Y-90383333D01*
X143992857Y-90383333D01*
X144040476Y-90407142D01*
X144064285Y-90430952D01*
X144088095Y-90478571D01*
X144088095Y-90669047D01*
X143826190Y-89930952D02*
X143826190Y-90169047D01*
X144064285Y-90192857D01*
X144040476Y-90169047D01*
X144016666Y-90121428D01*
X144016666Y-90002380D01*
X144040476Y-89954761D01*
X144064285Y-89930952D01*
X144111904Y-89907142D01*
X144230952Y-89907142D01*
X144278571Y-89930952D01*
X144302380Y-89954761D01*
X144326190Y-90002380D01*
X144326190Y-90121428D01*
X144302380Y-90169047D01*
X144278571Y-90192857D01*
%TO.C,R4*%
X141826190Y-90383333D02*
X141588095Y-90550000D01*
X141826190Y-90669047D02*
X141326190Y-90669047D01*
X141326190Y-90478571D01*
X141350000Y-90430952D01*
X141373809Y-90407142D01*
X141421428Y-90383333D01*
X141492857Y-90383333D01*
X141540476Y-90407142D01*
X141564285Y-90430952D01*
X141588095Y-90478571D01*
X141588095Y-90669047D01*
X141492857Y-89954761D02*
X141826190Y-89954761D01*
X141302380Y-90073809D02*
X141659523Y-90192857D01*
X141659523Y-89883333D01*
%TO.C,R3*%
X153916666Y-93026190D02*
X153750000Y-92788095D01*
X153630952Y-93026190D02*
X153630952Y-92526190D01*
X153821428Y-92526190D01*
X153869047Y-92550000D01*
X153892857Y-92573809D01*
X153916666Y-92621428D01*
X153916666Y-92692857D01*
X153892857Y-92740476D01*
X153869047Y-92764285D01*
X153821428Y-92788095D01*
X153630952Y-92788095D01*
X154083333Y-92526190D02*
X154392857Y-92526190D01*
X154226190Y-92716666D01*
X154297619Y-92716666D01*
X154345238Y-92740476D01*
X154369047Y-92764285D01*
X154392857Y-92811904D01*
X154392857Y-92930952D01*
X154369047Y-92978571D01*
X154345238Y-93002380D01*
X154297619Y-93026190D01*
X154154761Y-93026190D01*
X154107142Y-93002380D01*
X154083333Y-92978571D01*
%TO.C,R2*%
X153916666Y-90526190D02*
X153750000Y-90288095D01*
X153630952Y-90526190D02*
X153630952Y-90026190D01*
X153821428Y-90026190D01*
X153869047Y-90050000D01*
X153892857Y-90073809D01*
X153916666Y-90121428D01*
X153916666Y-90192857D01*
X153892857Y-90240476D01*
X153869047Y-90264285D01*
X153821428Y-90288095D01*
X153630952Y-90288095D01*
X154107142Y-90073809D02*
X154130952Y-90050000D01*
X154178571Y-90026190D01*
X154297619Y-90026190D01*
X154345238Y-90050000D01*
X154369047Y-90073809D01*
X154392857Y-90121428D01*
X154392857Y-90169047D01*
X154369047Y-90240476D01*
X154083333Y-90526190D01*
X154392857Y-90526190D01*
%TO.C,R1*%
X156316666Y-102726190D02*
X156150000Y-102488095D01*
X156030952Y-102726190D02*
X156030952Y-102226190D01*
X156221428Y-102226190D01*
X156269047Y-102250000D01*
X156292857Y-102273809D01*
X156316666Y-102321428D01*
X156316666Y-102392857D01*
X156292857Y-102440476D01*
X156269047Y-102464285D01*
X156221428Y-102488095D01*
X156030952Y-102488095D01*
X156792857Y-102726190D02*
X156507142Y-102726190D01*
X156650000Y-102726190D02*
X156650000Y-102226190D01*
X156602380Y-102297619D01*
X156554761Y-102345238D01*
X156507142Y-102369047D01*
%TO.C,LED*%
X140878571Y-104226190D02*
X140640476Y-104226190D01*
X140640476Y-103726190D01*
X141045238Y-103964285D02*
X141211904Y-103964285D01*
X141283333Y-104226190D02*
X141045238Y-104226190D01*
X141045238Y-103726190D01*
X141283333Y-103726190D01*
X141497619Y-104226190D02*
X141497619Y-103726190D01*
X141616666Y-103726190D01*
X141688095Y-103750000D01*
X141735714Y-103797619D01*
X141759523Y-103845238D01*
X141783333Y-103940476D01*
X141783333Y-104011904D01*
X141759523Y-104107142D01*
X141735714Y-104154761D01*
X141688095Y-104202380D01*
X141616666Y-104226190D01*
X141497619Y-104226190D01*
X140878571Y-95326190D02*
X140640476Y-95326190D01*
X140640476Y-94826190D01*
X141045238Y-95064285D02*
X141211904Y-95064285D01*
X141283333Y-95326190D02*
X141045238Y-95326190D01*
X141045238Y-94826190D01*
X141283333Y-94826190D01*
X141497619Y-95326190D02*
X141497619Y-94826190D01*
X141616666Y-94826190D01*
X141688095Y-94850000D01*
X141735714Y-94897619D01*
X141759523Y-94945238D01*
X141783333Y-95040476D01*
X141783333Y-95111904D01*
X141759523Y-95207142D01*
X141735714Y-95254761D01*
X141688095Y-95302380D01*
X141616666Y-95326190D01*
X141497619Y-95326190D01*
%TO.C,D5*%
X150126190Y-91869047D02*
X149626190Y-91869047D01*
X149626190Y-91750000D01*
X149650000Y-91678571D01*
X149697619Y-91630952D01*
X149745238Y-91607142D01*
X149840476Y-91583333D01*
X149911904Y-91583333D01*
X150007142Y-91607142D01*
X150054761Y-91630952D01*
X150102380Y-91678571D01*
X150126190Y-91750000D01*
X150126190Y-91869047D01*
X149626190Y-91130952D02*
X149626190Y-91369047D01*
X149864285Y-91392857D01*
X149840476Y-91369047D01*
X149816666Y-91321428D01*
X149816666Y-91202380D01*
X149840476Y-91154761D01*
X149864285Y-91130952D01*
X149911904Y-91107142D01*
X150030952Y-91107142D01*
X150078571Y-91130952D01*
X150102380Y-91154761D01*
X150126190Y-91202380D01*
X150126190Y-91321428D01*
X150102380Y-91369047D01*
X150078571Y-91392857D01*
%TO.C,D4*%
X148826190Y-105369047D02*
X148326190Y-105369047D01*
X148326190Y-105250000D01*
X148350000Y-105178571D01*
X148397619Y-105130952D01*
X148445238Y-105107142D01*
X148540476Y-105083333D01*
X148611904Y-105083333D01*
X148707142Y-105107142D01*
X148754761Y-105130952D01*
X148802380Y-105178571D01*
X148826190Y-105250000D01*
X148826190Y-105369047D01*
X148492857Y-104654761D02*
X148826190Y-104654761D01*
X148302380Y-104773809D02*
X148659523Y-104892857D01*
X148659523Y-104583333D01*
%TO.C,D3*%
X151326190Y-105369047D02*
X150826190Y-105369047D01*
X150826190Y-105250000D01*
X150850000Y-105178571D01*
X150897619Y-105130952D01*
X150945238Y-105107142D01*
X151040476Y-105083333D01*
X151111904Y-105083333D01*
X151207142Y-105107142D01*
X151254761Y-105130952D01*
X151302380Y-105178571D01*
X151326190Y-105250000D01*
X151326190Y-105369047D01*
X150826190Y-104916666D02*
X150826190Y-104607142D01*
X151016666Y-104773809D01*
X151016666Y-104702380D01*
X151040476Y-104654761D01*
X151064285Y-104630952D01*
X151111904Y-104607142D01*
X151230952Y-104607142D01*
X151278571Y-104630952D01*
X151302380Y-104654761D01*
X151326190Y-104702380D01*
X151326190Y-104845238D01*
X151302380Y-104892857D01*
X151278571Y-104916666D01*
%TO.C,D2*%
X157326190Y-94969047D02*
X156826190Y-94969047D01*
X156826190Y-94850000D01*
X156850000Y-94778571D01*
X156897619Y-94730952D01*
X156945238Y-94707142D01*
X157040476Y-94683333D01*
X157111904Y-94683333D01*
X157207142Y-94707142D01*
X157254761Y-94730952D01*
X157302380Y-94778571D01*
X157326190Y-94850000D01*
X157326190Y-94969047D01*
X156873809Y-94492857D02*
X156850000Y-94469047D01*
X156826190Y-94421428D01*
X156826190Y-94302380D01*
X156850000Y-94254761D01*
X156873809Y-94230952D01*
X156921428Y-94207142D01*
X156969047Y-94207142D01*
X157040476Y-94230952D01*
X157326190Y-94516666D01*
X157326190Y-94207142D01*
%TO.C,D1*%
X157326190Y-89769047D02*
X156826190Y-89769047D01*
X156826190Y-89650000D01*
X156850000Y-89578571D01*
X156897619Y-89530952D01*
X156945238Y-89507142D01*
X157040476Y-89483333D01*
X157111904Y-89483333D01*
X157207142Y-89507142D01*
X157254761Y-89530952D01*
X157302380Y-89578571D01*
X157326190Y-89650000D01*
X157326190Y-89769047D01*
X157326190Y-89007142D02*
X157326190Y-89292857D01*
X157326190Y-89150000D02*
X156826190Y-89150000D01*
X156897619Y-89197619D01*
X156945238Y-89245238D01*
X156969047Y-89292857D01*
%TO.C,C5*%
X143978571Y-102183333D02*
X144002380Y-102207142D01*
X144026190Y-102278571D01*
X144026190Y-102326190D01*
X144002380Y-102397619D01*
X143954761Y-102445238D01*
X143907142Y-102469047D01*
X143811904Y-102492857D01*
X143740476Y-102492857D01*
X143645238Y-102469047D01*
X143597619Y-102445238D01*
X143550000Y-102397619D01*
X143526190Y-102326190D01*
X143526190Y-102278571D01*
X143550000Y-102207142D01*
X143573809Y-102183333D01*
X143526190Y-101730952D02*
X143526190Y-101969047D01*
X143764285Y-101992857D01*
X143740476Y-101969047D01*
X143716666Y-101921428D01*
X143716666Y-101802380D01*
X143740476Y-101754761D01*
X143764285Y-101730952D01*
X143811904Y-101707142D01*
X143930952Y-101707142D01*
X143978571Y-101730952D01*
X144002380Y-101754761D01*
X144026190Y-101802380D01*
X144026190Y-101921428D01*
X144002380Y-101969047D01*
X143978571Y-101992857D01*
%TO.C,C4*%
X144578571Y-97283333D02*
X144602380Y-97307142D01*
X144626190Y-97378571D01*
X144626190Y-97426190D01*
X144602380Y-97497619D01*
X144554761Y-97545238D01*
X144507142Y-97569047D01*
X144411904Y-97592857D01*
X144340476Y-97592857D01*
X144245238Y-97569047D01*
X144197619Y-97545238D01*
X144150000Y-97497619D01*
X144126190Y-97426190D01*
X144126190Y-97378571D01*
X144150000Y-97307142D01*
X144173809Y-97283333D01*
X144292857Y-96854761D02*
X144626190Y-96854761D01*
X144102380Y-96973809D02*
X144459523Y-97092857D01*
X144459523Y-96783333D01*
%TO.C,C3*%
X146678571Y-90383333D02*
X146702380Y-90407142D01*
X146726190Y-90478571D01*
X146726190Y-90526190D01*
X146702380Y-90597619D01*
X146654761Y-90645238D01*
X146607142Y-90669047D01*
X146511904Y-90692857D01*
X146440476Y-90692857D01*
X146345238Y-90669047D01*
X146297619Y-90645238D01*
X146250000Y-90597619D01*
X146226190Y-90526190D01*
X146226190Y-90478571D01*
X146250000Y-90407142D01*
X146273809Y-90383333D01*
X146226190Y-90216666D02*
X146226190Y-89907142D01*
X146416666Y-90073809D01*
X146416666Y-90002380D01*
X146440476Y-89954761D01*
X146464285Y-89930952D01*
X146511904Y-89907142D01*
X146630952Y-89907142D01*
X146678571Y-89930952D01*
X146702380Y-89954761D01*
X146726190Y-90002380D01*
X146726190Y-90145238D01*
X146702380Y-90192857D01*
X146678571Y-90216666D01*
%TO.C,C2*%
X153778571Y-98683333D02*
X153802380Y-98707142D01*
X153826190Y-98778571D01*
X153826190Y-98826190D01*
X153802380Y-98897619D01*
X153754761Y-98945238D01*
X153707142Y-98969047D01*
X153611904Y-98992857D01*
X153540476Y-98992857D01*
X153445238Y-98969047D01*
X153397619Y-98945238D01*
X153350000Y-98897619D01*
X153326190Y-98826190D01*
X153326190Y-98778571D01*
X153350000Y-98707142D01*
X153373809Y-98683333D01*
X153373809Y-98492857D02*
X153350000Y-98469047D01*
X153326190Y-98421428D01*
X153326190Y-98302380D01*
X153350000Y-98254761D01*
X153373809Y-98230952D01*
X153421428Y-98207142D01*
X153469047Y-98207142D01*
X153540476Y-98230952D01*
X153826190Y-98516666D01*
X153826190Y-98207142D01*
%TO.C,C1*%
X146516666Y-74278571D02*
X146492857Y-74302380D01*
X146421428Y-74326190D01*
X146373809Y-74326190D01*
X146302380Y-74302380D01*
X146254761Y-74254761D01*
X146230952Y-74207142D01*
X146207142Y-74111904D01*
X146207142Y-74040476D01*
X146230952Y-73945238D01*
X146254761Y-73897619D01*
X146302380Y-73850000D01*
X146373809Y-73826190D01*
X146421428Y-73826190D01*
X146492857Y-73850000D01*
X146516666Y-73873809D01*
X146992857Y-74326190D02*
X146707142Y-74326190D01*
X146850000Y-74326190D02*
X146850000Y-73826190D01*
X146802380Y-73897619D01*
X146754761Y-73945238D01*
X146707142Y-73969047D01*
%TD*%
M02*
