M48
; DRILL file {KiCad (5.1.6)-1} date 10/03/21 16:09:18
; FORMAT={-:-/ absolute / inch / decimal}
; #@! TF.CreationDate,2021-10-03T16:09:18-04:00
; #@! TF.GenerationSoftware,Kicad,Pcbnew,(5.1.6)-1
; #@! TF.FileFunction,Plated,1,2,PTH
FMAT,2
INCH
T1C0.0157
T2C0.0197
T3C0.0276
T4C0.0315
T5C0.0394
%
G90
G05
T1
X5.6024Y-3.7598
X5.6024Y-3.9252
X5.6339Y-3.3661
X5.6614Y-3.8268
X5.8346Y-3.5289
X5.8543Y-4.7835
X5.8937Y-2.9134
X5.9134Y-4.2559
X5.9252Y-3.378
X5.9291Y-3.2835
X5.9331Y-4.7835
X5.9724Y-3.4331
X6.0197Y-3.8858
X6.0276Y-3.7677
X6.0591Y-3.6063
X6.0748Y-3.8858
X6.0827Y-3.1142
X6.1457Y-3.7283
X6.1457Y-3.7717
X6.2126Y-3.5236
T2
X5.5591Y-3.7992
X5.5591Y-3.8386
X5.5591Y-3.878
X5.5591Y-3.9646
X5.5591Y-4.0039
X5.5591Y-4.0433
T5
X5.5835Y-3.0496
X5.5835Y-3.1496
X5.6835Y-3.0496
X5.6835Y-3.1496
X5.7835Y-3.0496
X5.7835Y-3.1496
T3
G00X5.6181Y-5.0472
M15
G01X5.6181Y-5.1181
M16
G05
G00X6.1693Y-5.0472
M15
G01X6.1693Y-5.1181
M16
G05
T4
G00X5.7224Y-4.7256
M15
G01X5.7421Y-4.7256
M16
G05
G00X5.7224Y-4.8413
M15
G01X5.7421Y-4.8413
M16
G05
G00X6.0453Y-4.7256
M15
G01X6.065Y-4.7256
M16
G05
G00X6.0453Y-4.8413
M15
G01X6.065Y-4.8413
M16
G05
T0
M30
