%TF.GenerationSoftware,KiCad,Pcbnew,(5.1.6)-1*%
%TF.CreationDate,2021-10-03T16:09:20-04:00*%
%TF.ProjectId,horny_dom,686f726e-795f-4646-9f6d-2e6b69636164,rev?*%
%TF.SameCoordinates,Original*%
%TF.FileFunction,Copper,L1,Top*%
%TF.FilePolarity,Positive*%
%FSLAX46Y46*%
G04 Gerber Fmt 4.6, Leading zero omitted, Abs format (unit mm)*
G04 Created by KiCad (PCBNEW (5.1.6)-1) date 2021-10-03 16:09:20*
%MOMM*%
%LPD*%
G01*
G04 APERTURE LIST*
%TA.AperFunction,ComponentPad*%
%ADD10O,1.700000X1.700000*%
%TD*%
%TA.AperFunction,ComponentPad*%
%ADD11R,1.700000X1.700000*%
%TD*%
%TA.AperFunction,SMDPad,CuDef*%
%ADD12R,1.200000X0.800000*%
%TD*%
%TA.AperFunction,SMDPad,CuDef*%
%ADD13R,1.700000X0.650000*%
%TD*%
%TA.AperFunction,SMDPad,CuDef*%
%ADD14R,0.650000X1.060000*%
%TD*%
%TA.AperFunction,ComponentPad*%
%ADD15O,1.700000X3.500000*%
%TD*%
%TA.AperFunction,SMDPad,CuDef*%
%ADD16C,0.100000*%
%TD*%
%TA.AperFunction,ComponentPad*%
%ADD17O,0.850000X0.850000*%
%TD*%
%TA.AperFunction,ComponentPad*%
%ADD18R,0.850000X0.850000*%
%TD*%
%TA.AperFunction,ComponentPad*%
%ADD19O,1.700000X1.200000*%
%TD*%
%TA.AperFunction,SMDPad,CuDef*%
%ADD20R,0.270000X1.300000*%
%TD*%
%TA.AperFunction,ViaPad*%
%ADD21C,0.800000*%
%TD*%
%TA.AperFunction,Conductor*%
%ADD22C,0.500000*%
%TD*%
%TA.AperFunction,Conductor*%
%ADD23C,0.250000*%
%TD*%
%TA.AperFunction,Conductor*%
%ADD24C,0.254000*%
%TD*%
G04 APERTURE END LIST*
D10*
%TO.P,Batt,6*%
%TO.N,GND*%
X141820000Y-77460000D03*
%TO.P,Batt,5*%
%TO.N,ISP_RST*%
X141820000Y-80000000D03*
%TO.P,Batt,4*%
%TO.N,LED_DAT_L_ISC_MOSI*%
X144360000Y-77460000D03*
%TO.P,Batt,3*%
%TO.N,FUTURE_USE_ISP_SCK*%
X144360000Y-80000000D03*
%TO.P,Batt,2*%
%TO.N,USBv+*%
X146900000Y-77460000D03*
D11*
%TO.P,Batt,1*%
%TO.N,LED_DAT_R_ISC_MISO*%
X146900000Y-80000000D03*
%TD*%
D12*
%TO.P,U3,3*%
%TO.N,LEDv+*%
X158200000Y-85470000D03*
%TO.P,U3,2*%
%TO.N,GND*%
X152200000Y-85470000D03*
%TO.P,U3,1*%
%TO.N,SSR_LED_EN*%
X152200000Y-82930000D03*
%TO.P,U3,4*%
%TO.N,batt+*%
X158200000Y-82930000D03*
%TD*%
D13*
%TO.P,Tiny85,8*%
%TO.N,batt+*%
X141550000Y-86705000D03*
%TO.P,Tiny85,7*%
%TO.N,FUTURE_USE_ISP_SCK*%
X141550000Y-85435000D03*
%TO.P,Tiny85,6*%
%TO.N,LED_DAT_R_ISC_MISO*%
X141550000Y-84165000D03*
%TO.P,Tiny85,5*%
%TO.N,LED_DAT_L_ISC_MOSI*%
X141550000Y-82895000D03*
%TO.P,Tiny85,4*%
%TO.N,GND*%
X148850000Y-82895000D03*
%TO.P,Tiny85,3*%
%TO.N,SSR_LED_EN*%
X148850000Y-84165000D03*
%TO.P,Tiny85,2*%
%TO.N,MODE_BTN*%
X148850000Y-85435000D03*
%TO.P,Tiny85,1*%
%TO.N,ISP_RST*%
X148850000Y-86705000D03*
%TD*%
D14*
%TO.P,U1,5*%
%TO.N,CHG_RATE_R*%
X158050000Y-100200000D03*
%TO.P,U1,4*%
%TO.N,USBv+*%
X156150000Y-100200000D03*
%TO.P,U1,3*%
%TO.N,batt+*%
X156150000Y-98000000D03*
%TO.P,U1,2*%
%TO.N,GND*%
X157100000Y-98000000D03*
%TO.P,U1,1*%
%TO.N,CHG_STAT*%
X158050000Y-98000000D03*
%TD*%
D15*
%TO.P,SW1,1*%
%TO.N,GND*%
X142700000Y-129100000D03*
%TO.P,SW1,2*%
%TO.N,MODE_BTN*%
X156700000Y-129100000D03*
%TD*%
%TO.P,R8,2*%
%TO.N,batt+*%
%TA.AperFunction,SMDPad,CuDef*%
G36*
G01*
X149125000Y-95575000D02*
X149125000Y-96825000D01*
G75*
G02*
X148875000Y-97075000I-250000J0D01*
G01*
X147950000Y-97075000D01*
G75*
G02*
X147700000Y-96825000I0J250000D01*
G01*
X147700000Y-95575000D01*
G75*
G02*
X147950000Y-95325000I250000J0D01*
G01*
X148875000Y-95325000D01*
G75*
G02*
X149125000Y-95575000I0J-250000D01*
G01*
G37*
%TD.AperFunction*%
%TO.P,R8,1*%
%TO.N,MODE_BTN*%
%TA.AperFunction,SMDPad,CuDef*%
G36*
G01*
X152100000Y-95575000D02*
X152100000Y-96825000D01*
G75*
G02*
X151850000Y-97075000I-250000J0D01*
G01*
X150925000Y-97075000D01*
G75*
G02*
X150675000Y-96825000I0J250000D01*
G01*
X150675000Y-95575000D01*
G75*
G02*
X150925000Y-95325000I250000J0D01*
G01*
X151850000Y-95325000D01*
G75*
G02*
X152100000Y-95575000I0J-250000D01*
G01*
G37*
%TD.AperFunction*%
%TD*%
%TO.P,R7,2*%
%TO.N,USBDDAT-*%
%TA.AperFunction,SMDPad,CuDef*%
G36*
G01*
X148075000Y-100675000D02*
X149325000Y-100675000D01*
G75*
G02*
X149575000Y-100925000I0J-250000D01*
G01*
X149575000Y-101850000D01*
G75*
G02*
X149325000Y-102100000I-250000J0D01*
G01*
X148075000Y-102100000D01*
G75*
G02*
X147825000Y-101850000I0J250000D01*
G01*
X147825000Y-100925000D01*
G75*
G02*
X148075000Y-100675000I250000J0D01*
G01*
G37*
%TD.AperFunction*%
%TO.P,R7,1*%
%TO.N,SSR_LED_EN*%
%TA.AperFunction,SMDPad,CuDef*%
G36*
G01*
X148075000Y-97700000D02*
X149325000Y-97700000D01*
G75*
G02*
X149575000Y-97950000I0J-250000D01*
G01*
X149575000Y-98875000D01*
G75*
G02*
X149325000Y-99125000I-250000J0D01*
G01*
X148075000Y-99125000D01*
G75*
G02*
X147825000Y-98875000I0J250000D01*
G01*
X147825000Y-97950000D01*
G75*
G02*
X148075000Y-97700000I250000J0D01*
G01*
G37*
%TD.AperFunction*%
%TD*%
%TO.P,R6,2*%
%TO.N,USBDAT+*%
%TA.AperFunction,SMDPad,CuDef*%
G36*
G01*
X150575000Y-100675000D02*
X151825000Y-100675000D01*
G75*
G02*
X152075000Y-100925000I0J-250000D01*
G01*
X152075000Y-101850000D01*
G75*
G02*
X151825000Y-102100000I-250000J0D01*
G01*
X150575000Y-102100000D01*
G75*
G02*
X150325000Y-101850000I0J250000D01*
G01*
X150325000Y-100925000D01*
G75*
G02*
X150575000Y-100675000I250000J0D01*
G01*
G37*
%TD.AperFunction*%
%TO.P,R6,1*%
%TO.N,MODE_BTN*%
%TA.AperFunction,SMDPad,CuDef*%
G36*
G01*
X150575000Y-97700000D02*
X151825000Y-97700000D01*
G75*
G02*
X152075000Y-97950000I0J-250000D01*
G01*
X152075000Y-98875000D01*
G75*
G02*
X151825000Y-99125000I-250000J0D01*
G01*
X150575000Y-99125000D01*
G75*
G02*
X150325000Y-98875000I0J250000D01*
G01*
X150325000Y-97950000D01*
G75*
G02*
X150575000Y-97700000I250000J0D01*
G01*
G37*
%TD.AperFunction*%
%TD*%
%TO.P,R5,2*%
%TO.N,LED_DAT_R_ISC_MISO*%
%TA.AperFunction,SMDPad,CuDef*%
G36*
G01*
X144725000Y-89525000D02*
X143475000Y-89525000D01*
G75*
G02*
X143225000Y-89275000I0J250000D01*
G01*
X143225000Y-88350000D01*
G75*
G02*
X143475000Y-88100000I250000J0D01*
G01*
X144725000Y-88100000D01*
G75*
G02*
X144975000Y-88350000I0J-250000D01*
G01*
X144975000Y-89275000D01*
G75*
G02*
X144725000Y-89525000I-250000J0D01*
G01*
G37*
%TD.AperFunction*%
%TO.P,R5,1*%
%TO.N,LED_DAT_R_CLEAN*%
%TA.AperFunction,SMDPad,CuDef*%
G36*
G01*
X144725000Y-92500000D02*
X143475000Y-92500000D01*
G75*
G02*
X143225000Y-92250000I0J250000D01*
G01*
X143225000Y-91325000D01*
G75*
G02*
X143475000Y-91075000I250000J0D01*
G01*
X144725000Y-91075000D01*
G75*
G02*
X144975000Y-91325000I0J-250000D01*
G01*
X144975000Y-92250000D01*
G75*
G02*
X144725000Y-92500000I-250000J0D01*
G01*
G37*
%TD.AperFunction*%
%TD*%
%TO.P,R4,2*%
%TO.N,LED_DAT_L_CLEAN*%
%TA.AperFunction,SMDPad,CuDef*%
G36*
G01*
X140975000Y-91075000D02*
X142225000Y-91075000D01*
G75*
G02*
X142475000Y-91325000I0J-250000D01*
G01*
X142475000Y-92250000D01*
G75*
G02*
X142225000Y-92500000I-250000J0D01*
G01*
X140975000Y-92500000D01*
G75*
G02*
X140725000Y-92250000I0J250000D01*
G01*
X140725000Y-91325000D01*
G75*
G02*
X140975000Y-91075000I250000J0D01*
G01*
G37*
%TD.AperFunction*%
%TO.P,R4,1*%
%TO.N,LED_DAT_L_ISC_MOSI*%
%TA.AperFunction,SMDPad,CuDef*%
G36*
G01*
X140975000Y-88100000D02*
X142225000Y-88100000D01*
G75*
G02*
X142475000Y-88350000I0J-250000D01*
G01*
X142475000Y-89275000D01*
G75*
G02*
X142225000Y-89525000I-250000J0D01*
G01*
X140975000Y-89525000D01*
G75*
G02*
X140725000Y-89275000I0J250000D01*
G01*
X140725000Y-88350000D01*
G75*
G02*
X140975000Y-88100000I250000J0D01*
G01*
G37*
%TD.AperFunction*%
%TD*%
%TO.P,R3,2*%
%TO.N,CHG_STAT*%
%TA.AperFunction,SMDPad,CuDef*%
G36*
G01*
X153225000Y-92175000D02*
X153225000Y-93425000D01*
G75*
G02*
X152975000Y-93675000I-250000J0D01*
G01*
X152050000Y-93675000D01*
G75*
G02*
X151800000Y-93425000I0J250000D01*
G01*
X151800000Y-92175000D01*
G75*
G02*
X152050000Y-91925000I250000J0D01*
G01*
X152975000Y-91925000D01*
G75*
G02*
X153225000Y-92175000I0J-250000D01*
G01*
G37*
%TD.AperFunction*%
%TO.P,R3,1*%
%TO.N,CHG_PROG_RED*%
%TA.AperFunction,SMDPad,CuDef*%
G36*
G01*
X156200000Y-92175000D02*
X156200000Y-93425000D01*
G75*
G02*
X155950000Y-93675000I-250000J0D01*
G01*
X155025000Y-93675000D01*
G75*
G02*
X154775000Y-93425000I0J250000D01*
G01*
X154775000Y-92175000D01*
G75*
G02*
X155025000Y-91925000I250000J0D01*
G01*
X155950000Y-91925000D01*
G75*
G02*
X156200000Y-92175000I0J-250000D01*
G01*
G37*
%TD.AperFunction*%
%TD*%
%TO.P,R2,2*%
%TO.N,CHG_FULL_GREEN*%
%TA.AperFunction,SMDPad,CuDef*%
G36*
G01*
X154775000Y-90925000D02*
X154775000Y-89675000D01*
G75*
G02*
X155025000Y-89425000I250000J0D01*
G01*
X155950000Y-89425000D01*
G75*
G02*
X156200000Y-89675000I0J-250000D01*
G01*
X156200000Y-90925000D01*
G75*
G02*
X155950000Y-91175000I-250000J0D01*
G01*
X155025000Y-91175000D01*
G75*
G02*
X154775000Y-90925000I0J250000D01*
G01*
G37*
%TD.AperFunction*%
%TO.P,R2,1*%
%TO.N,CHG_STAT*%
%TA.AperFunction,SMDPad,CuDef*%
G36*
G01*
X151800000Y-90925000D02*
X151800000Y-89675000D01*
G75*
G02*
X152050000Y-89425000I250000J0D01*
G01*
X152975000Y-89425000D01*
G75*
G02*
X153225000Y-89675000I0J-250000D01*
G01*
X153225000Y-90925000D01*
G75*
G02*
X152975000Y-91175000I-250000J0D01*
G01*
X152050000Y-91175000D01*
G75*
G02*
X151800000Y-90925000I0J250000D01*
G01*
G37*
%TD.AperFunction*%
%TD*%
%TO.P,R1,2*%
%TO.N,CHG_RATE_R*%
%TA.AperFunction,SMDPad,CuDef*%
G36*
G01*
X157175000Y-103125000D02*
X157175000Y-101875000D01*
G75*
G02*
X157425000Y-101625000I250000J0D01*
G01*
X158350000Y-101625000D01*
G75*
G02*
X158600000Y-101875000I0J-250000D01*
G01*
X158600000Y-103125000D01*
G75*
G02*
X158350000Y-103375000I-250000J0D01*
G01*
X157425000Y-103375000D01*
G75*
G02*
X157175000Y-103125000I0J250000D01*
G01*
G37*
%TD.AperFunction*%
%TO.P,R1,1*%
%TO.N,GND*%
%TA.AperFunction,SMDPad,CuDef*%
G36*
G01*
X154200000Y-103125000D02*
X154200000Y-101875000D01*
G75*
G02*
X154450000Y-101625000I250000J0D01*
G01*
X155375000Y-101625000D01*
G75*
G02*
X155625000Y-101875000I0J-250000D01*
G01*
X155625000Y-103125000D01*
G75*
G02*
X155375000Y-103375000I-250000J0D01*
G01*
X154450000Y-103375000D01*
G75*
G02*
X154200000Y-103125000I0J250000D01*
G01*
G37*
%TD.AperFunction*%
%TD*%
%TA.AperFunction,SMDPad,CuDef*%
D16*
%TO.P,JP1,1*%
%TO.N,FUTURE_USE_ISP_SCK*%
G36*
X149425000Y-116100000D02*
G01*
X149925000Y-115350000D01*
X150925000Y-115350000D01*
X150925000Y-116850000D01*
X149925000Y-116850000D01*
X149425000Y-116100000D01*
G37*
%TD.AperFunction*%
%TA.AperFunction,SMDPad,CuDef*%
%TO.P,JP1,2*%
%TO.N,GND*%
G36*
X148475000Y-115350000D02*
G01*
X149625000Y-115350000D01*
X149125000Y-116100000D01*
X149625000Y-116850000D01*
X148475000Y-116850000D01*
X148475000Y-115350000D01*
G37*
%TD.AperFunction*%
%TD*%
D17*
%TO.P,LED,3*%
%TO.N,GND*%
X141200000Y-102700000D03*
%TO.P,LED,2*%
%TO.N,LED_DAT_R_CLEAN*%
X141200000Y-101700000D03*
D18*
%TO.P,LED,1*%
%TO.N,LEDv+*%
X141200000Y-100700000D03*
%TD*%
D17*
%TO.P,LED,3*%
%TO.N,GND*%
X141200000Y-98500000D03*
%TO.P,LED,2*%
%TO.N,LED_DAT_L_CLEAN*%
X141200000Y-97500000D03*
D18*
%TO.P,LED,1*%
%TO.N,LEDv+*%
X141200000Y-96500000D03*
%TD*%
D19*
%TO.P,J1,S1*%
%TO.N,Net-(J1-PadS1)*%
X153800000Y-122970000D03*
X153800000Y-120030000D03*
X145600000Y-122970000D03*
D20*
%TO.P,J1,B12*%
%TO.N,GND*%
X146950000Y-123250000D03*
%TO.P,J1,B11*%
%TO.N,Net-(J1-PadB11)*%
X147450000Y-123250000D03*
%TO.P,J1,B10*%
%TO.N,Net-(J1-PadB10)*%
X147950000Y-123250000D03*
%TO.P,J1,B9*%
%TO.N,USBv+*%
X148450000Y-123250000D03*
%TO.P,J1,B8*%
%TO.N,Net-(J1-PadB8)*%
X148950000Y-123250000D03*
%TO.P,J1,B7*%
%TO.N,USBDDAT-*%
X149450000Y-123250000D03*
%TO.P,J1,B6*%
%TO.N,USBDAT+*%
X149950000Y-123250000D03*
%TO.P,J1,B5*%
%TO.N,Net-(J1-PadB5)*%
X150450000Y-123250000D03*
%TO.P,J1,B4*%
%TO.N,USBv+*%
X150950000Y-123250000D03*
%TO.P,J1,B3*%
%TO.N,Net-(J1-PadB3)*%
X151450000Y-123250000D03*
%TO.P,J1,B2*%
%TO.N,Net-(J1-PadB2)*%
X151950000Y-123250000D03*
%TO.P,J1,B1*%
%TO.N,GND*%
X152450000Y-123250000D03*
%TO.P,J1,A11*%
%TO.N,Net-(J1-PadA11)*%
X151950000Y-119750000D03*
%TO.P,J1,A8*%
%TO.N,Net-(J1-PadA8)*%
X150450000Y-119750000D03*
%TO.P,J1,A9*%
%TO.N,USBv+*%
X150950000Y-119750000D03*
%TO.P,J1,A10*%
%TO.N,Net-(J1-PadA10)*%
X151450000Y-119750000D03*
%TO.P,J1,A12*%
%TO.N,GND*%
X152450000Y-119750000D03*
%TO.P,J1,A7*%
%TO.N,USBDDAT-*%
X149950000Y-119750000D03*
%TO.P,J1,A6*%
%TO.N,USBDAT+*%
X149450000Y-119750000D03*
%TO.P,J1,A5*%
%TO.N,Net-(J1-PadA5)*%
X148950000Y-119750000D03*
%TO.P,J1,A4*%
%TO.N,USBv+*%
X148450000Y-119750000D03*
%TO.P,J1,A3*%
%TO.N,Net-(J1-PadA3)*%
X147950000Y-119750000D03*
%TO.P,J1,A2*%
%TO.N,Net-(J1-PadA2)*%
X147450000Y-119750000D03*
%TO.P,J1,A1*%
%TO.N,GND*%
X146950000Y-119750000D03*
D19*
%TO.P,J1,S1*%
%TO.N,Net-(J1-PadS1)*%
X145600000Y-120030000D03*
%TD*%
%TO.P,D5,2*%
%TO.N,batt+*%
%TA.AperFunction,SMDPad,CuDef*%
G36*
G01*
X149275000Y-92275000D02*
X150525000Y-92275000D01*
G75*
G02*
X150775000Y-92525000I0J-250000D01*
G01*
X150775000Y-93450000D01*
G75*
G02*
X150525000Y-93700000I-250000J0D01*
G01*
X149275000Y-93700000D01*
G75*
G02*
X149025000Y-93450000I0J250000D01*
G01*
X149025000Y-92525000D01*
G75*
G02*
X149275000Y-92275000I250000J0D01*
G01*
G37*
%TD.AperFunction*%
%TO.P,D5,1*%
%TO.N,USBv+*%
%TA.AperFunction,SMDPad,CuDef*%
G36*
G01*
X149275000Y-89300000D02*
X150525000Y-89300000D01*
G75*
G02*
X150775000Y-89550000I0J-250000D01*
G01*
X150775000Y-90475000D01*
G75*
G02*
X150525000Y-90725000I-250000J0D01*
G01*
X149275000Y-90725000D01*
G75*
G02*
X149025000Y-90475000I0J250000D01*
G01*
X149025000Y-89550000D01*
G75*
G02*
X149275000Y-89300000I250000J0D01*
G01*
G37*
%TD.AperFunction*%
%TD*%
%TO.P,D4,2*%
%TO.N,GND*%
%TA.AperFunction,SMDPad,CuDef*%
G36*
G01*
X148175000Y-105775000D02*
X149425000Y-105775000D01*
G75*
G02*
X149675000Y-106025000I0J-250000D01*
G01*
X149675000Y-106950000D01*
G75*
G02*
X149425000Y-107200000I-250000J0D01*
G01*
X148175000Y-107200000D01*
G75*
G02*
X147925000Y-106950000I0J250000D01*
G01*
X147925000Y-106025000D01*
G75*
G02*
X148175000Y-105775000I250000J0D01*
G01*
G37*
%TD.AperFunction*%
%TO.P,D4,1*%
%TO.N,USBDDAT-*%
%TA.AperFunction,SMDPad,CuDef*%
G36*
G01*
X148175000Y-102800000D02*
X149425000Y-102800000D01*
G75*
G02*
X149675000Y-103050000I0J-250000D01*
G01*
X149675000Y-103975000D01*
G75*
G02*
X149425000Y-104225000I-250000J0D01*
G01*
X148175000Y-104225000D01*
G75*
G02*
X147925000Y-103975000I0J250000D01*
G01*
X147925000Y-103050000D01*
G75*
G02*
X148175000Y-102800000I250000J0D01*
G01*
G37*
%TD.AperFunction*%
%TD*%
%TO.P,D3,2*%
%TO.N,GND*%
%TA.AperFunction,SMDPad,CuDef*%
G36*
G01*
X150575000Y-105775000D02*
X151825000Y-105775000D01*
G75*
G02*
X152075000Y-106025000I0J-250000D01*
G01*
X152075000Y-106950000D01*
G75*
G02*
X151825000Y-107200000I-250000J0D01*
G01*
X150575000Y-107200000D01*
G75*
G02*
X150325000Y-106950000I0J250000D01*
G01*
X150325000Y-106025000D01*
G75*
G02*
X150575000Y-105775000I250000J0D01*
G01*
G37*
%TD.AperFunction*%
%TO.P,D3,1*%
%TO.N,USBDAT+*%
%TA.AperFunction,SMDPad,CuDef*%
G36*
G01*
X150575000Y-102800000D02*
X151825000Y-102800000D01*
G75*
G02*
X152075000Y-103050000I0J-250000D01*
G01*
X152075000Y-103975000D01*
G75*
G02*
X151825000Y-104225000I-250000J0D01*
G01*
X150575000Y-104225000D01*
G75*
G02*
X150325000Y-103975000I0J250000D01*
G01*
X150325000Y-103050000D01*
G75*
G02*
X150575000Y-102800000I250000J0D01*
G01*
G37*
%TD.AperFunction*%
%TD*%
%TO.P,D2,2*%
%TO.N,USBv+*%
%TA.AperFunction,SMDPad,CuDef*%
G36*
G01*
X157175000Y-95375000D02*
X158425000Y-95375000D01*
G75*
G02*
X158675000Y-95625000I0J-250000D01*
G01*
X158675000Y-96550000D01*
G75*
G02*
X158425000Y-96800000I-250000J0D01*
G01*
X157175000Y-96800000D01*
G75*
G02*
X156925000Y-96550000I0J250000D01*
G01*
X156925000Y-95625000D01*
G75*
G02*
X157175000Y-95375000I250000J0D01*
G01*
G37*
%TD.AperFunction*%
%TO.P,D2,1*%
%TO.N,CHG_PROG_RED*%
%TA.AperFunction,SMDPad,CuDef*%
G36*
G01*
X157175000Y-92400000D02*
X158425000Y-92400000D01*
G75*
G02*
X158675000Y-92650000I0J-250000D01*
G01*
X158675000Y-93575000D01*
G75*
G02*
X158425000Y-93825000I-250000J0D01*
G01*
X157175000Y-93825000D01*
G75*
G02*
X156925000Y-93575000I0J250000D01*
G01*
X156925000Y-92650000D01*
G75*
G02*
X157175000Y-92400000I250000J0D01*
G01*
G37*
%TD.AperFunction*%
%TD*%
%TO.P,D1,2*%
%TO.N,CHG_FULL_GREEN*%
%TA.AperFunction,SMDPad,CuDef*%
G36*
G01*
X157175000Y-90175000D02*
X158425000Y-90175000D01*
G75*
G02*
X158675000Y-90425000I0J-250000D01*
G01*
X158675000Y-91350000D01*
G75*
G02*
X158425000Y-91600000I-250000J0D01*
G01*
X157175000Y-91600000D01*
G75*
G02*
X156925000Y-91350000I0J250000D01*
G01*
X156925000Y-90425000D01*
G75*
G02*
X157175000Y-90175000I250000J0D01*
G01*
G37*
%TD.AperFunction*%
%TO.P,D1,1*%
%TO.N,GND*%
%TA.AperFunction,SMDPad,CuDef*%
G36*
G01*
X157175000Y-87200000D02*
X158425000Y-87200000D01*
G75*
G02*
X158675000Y-87450000I0J-250000D01*
G01*
X158675000Y-88375000D01*
G75*
G02*
X158425000Y-88625000I-250000J0D01*
G01*
X157175000Y-88625000D01*
G75*
G02*
X156925000Y-88375000I0J250000D01*
G01*
X156925000Y-87450000D01*
G75*
G02*
X157175000Y-87200000I250000J0D01*
G01*
G37*
%TD.AperFunction*%
%TD*%
%TO.P,C5,2*%
%TO.N,GND*%
%TA.AperFunction,SMDPad,CuDef*%
G36*
G01*
X143175000Y-102875000D02*
X144425000Y-102875000D01*
G75*
G02*
X144675000Y-103125000I0J-250000D01*
G01*
X144675000Y-104050000D01*
G75*
G02*
X144425000Y-104300000I-250000J0D01*
G01*
X143175000Y-104300000D01*
G75*
G02*
X142925000Y-104050000I0J250000D01*
G01*
X142925000Y-103125000D01*
G75*
G02*
X143175000Y-102875000I250000J0D01*
G01*
G37*
%TD.AperFunction*%
%TO.P,C5,1*%
%TO.N,LEDv+*%
%TA.AperFunction,SMDPad,CuDef*%
G36*
G01*
X143175000Y-99900000D02*
X144425000Y-99900000D01*
G75*
G02*
X144675000Y-100150000I0J-250000D01*
G01*
X144675000Y-101075000D01*
G75*
G02*
X144425000Y-101325000I-250000J0D01*
G01*
X143175000Y-101325000D01*
G75*
G02*
X142925000Y-101075000I0J250000D01*
G01*
X142925000Y-100150000D01*
G75*
G02*
X143175000Y-99900000I250000J0D01*
G01*
G37*
%TD.AperFunction*%
%TD*%
%TO.P,C4,2*%
%TO.N,GND*%
%TA.AperFunction,SMDPad,CuDef*%
G36*
G01*
X143175000Y-97975000D02*
X144425000Y-97975000D01*
G75*
G02*
X144675000Y-98225000I0J-250000D01*
G01*
X144675000Y-99150000D01*
G75*
G02*
X144425000Y-99400000I-250000J0D01*
G01*
X143175000Y-99400000D01*
G75*
G02*
X142925000Y-99150000I0J250000D01*
G01*
X142925000Y-98225000D01*
G75*
G02*
X143175000Y-97975000I250000J0D01*
G01*
G37*
%TD.AperFunction*%
%TO.P,C4,1*%
%TO.N,LEDv+*%
%TA.AperFunction,SMDPad,CuDef*%
G36*
G01*
X143175000Y-95000000D02*
X144425000Y-95000000D01*
G75*
G02*
X144675000Y-95250000I0J-250000D01*
G01*
X144675000Y-96175000D01*
G75*
G02*
X144425000Y-96425000I-250000J0D01*
G01*
X143175000Y-96425000D01*
G75*
G02*
X142925000Y-96175000I0J250000D01*
G01*
X142925000Y-95250000D01*
G75*
G02*
X143175000Y-95000000I250000J0D01*
G01*
G37*
%TD.AperFunction*%
%TD*%
%TO.P,C3,2*%
%TO.N,batt+*%
%TA.AperFunction,SMDPad,CuDef*%
G36*
G01*
X147125000Y-89525000D02*
X145875000Y-89525000D01*
G75*
G02*
X145625000Y-89275000I0J250000D01*
G01*
X145625000Y-88350000D01*
G75*
G02*
X145875000Y-88100000I250000J0D01*
G01*
X147125000Y-88100000D01*
G75*
G02*
X147375000Y-88350000I0J-250000D01*
G01*
X147375000Y-89275000D01*
G75*
G02*
X147125000Y-89525000I-250000J0D01*
G01*
G37*
%TD.AperFunction*%
%TO.P,C3,1*%
%TO.N,GND*%
%TA.AperFunction,SMDPad,CuDef*%
G36*
G01*
X147125000Y-92500000D02*
X145875000Y-92500000D01*
G75*
G02*
X145625000Y-92250000I0J250000D01*
G01*
X145625000Y-91325000D01*
G75*
G02*
X145875000Y-91075000I250000J0D01*
G01*
X147125000Y-91075000D01*
G75*
G02*
X147375000Y-91325000I0J-250000D01*
G01*
X147375000Y-92250000D01*
G75*
G02*
X147125000Y-92500000I-250000J0D01*
G01*
G37*
%TD.AperFunction*%
%TD*%
%TO.P,C2,2*%
%TO.N,USBv+*%
%TA.AperFunction,SMDPad,CuDef*%
G36*
G01*
X153275000Y-99375000D02*
X154525000Y-99375000D01*
G75*
G02*
X154775000Y-99625000I0J-250000D01*
G01*
X154775000Y-100550000D01*
G75*
G02*
X154525000Y-100800000I-250000J0D01*
G01*
X153275000Y-100800000D01*
G75*
G02*
X153025000Y-100550000I0J250000D01*
G01*
X153025000Y-99625000D01*
G75*
G02*
X153275000Y-99375000I250000J0D01*
G01*
G37*
%TD.AperFunction*%
%TO.P,C2,1*%
%TO.N,GND*%
%TA.AperFunction,SMDPad,CuDef*%
G36*
G01*
X153275000Y-96400000D02*
X154525000Y-96400000D01*
G75*
G02*
X154775000Y-96650000I0J-250000D01*
G01*
X154775000Y-97575000D01*
G75*
G02*
X154525000Y-97825000I-250000J0D01*
G01*
X153275000Y-97825000D01*
G75*
G02*
X153025000Y-97575000I0J250000D01*
G01*
X153025000Y-96650000D01*
G75*
G02*
X153275000Y-96400000I250000J0D01*
G01*
G37*
%TD.AperFunction*%
%TD*%
%TO.P,C1,2*%
%TO.N,GND*%
%TA.AperFunction,SMDPad,CuDef*%
G36*
G01*
X145825000Y-73475000D02*
X145825000Y-74725000D01*
G75*
G02*
X145575000Y-74975000I-250000J0D01*
G01*
X144650000Y-74975000D01*
G75*
G02*
X144400000Y-74725000I0J250000D01*
G01*
X144400000Y-73475000D01*
G75*
G02*
X144650000Y-73225000I250000J0D01*
G01*
X145575000Y-73225000D01*
G75*
G02*
X145825000Y-73475000I0J-250000D01*
G01*
G37*
%TD.AperFunction*%
%TO.P,C1,1*%
%TO.N,batt+*%
%TA.AperFunction,SMDPad,CuDef*%
G36*
G01*
X148800000Y-73475000D02*
X148800000Y-74725000D01*
G75*
G02*
X148550000Y-74975000I-250000J0D01*
G01*
X147625000Y-74975000D01*
G75*
G02*
X147375000Y-74725000I0J250000D01*
G01*
X147375000Y-73475000D01*
G75*
G02*
X147625000Y-73225000I250000J0D01*
G01*
X148550000Y-73225000D01*
G75*
G02*
X148800000Y-73475000I0J-250000D01*
G01*
G37*
%TD.AperFunction*%
%TD*%
%TO.P,BT1,MP*%
%TO.N,N/C*%
%TA.AperFunction,SMDPad,CuDef*%
G36*
G01*
X158550000Y-74500000D02*
X155650000Y-74500000D01*
G75*
G02*
X155400000Y-74250000I0J250000D01*
G01*
X155400000Y-73250000D01*
G75*
G02*
X155650000Y-73000000I250000J0D01*
G01*
X158550000Y-73000000D01*
G75*
G02*
X158800000Y-73250000I0J-250000D01*
G01*
X158800000Y-74250000D01*
G75*
G02*
X158550000Y-74500000I-250000J0D01*
G01*
G37*
%TD.AperFunction*%
%TA.AperFunction,SMDPad,CuDef*%
G36*
G01*
X158550000Y-81200000D02*
X155650000Y-81200000D01*
G75*
G02*
X155400000Y-80950000I0J250000D01*
G01*
X155400000Y-79950000D01*
G75*
G02*
X155650000Y-79700000I250000J0D01*
G01*
X158550000Y-79700000D01*
G75*
G02*
X158800000Y-79950000I0J-250000D01*
G01*
X158800000Y-80950000D01*
G75*
G02*
X158550000Y-81200000I-250000J0D01*
G01*
G37*
%TD.AperFunction*%
%TO.P,BT1,2*%
%TO.N,GND*%
%TA.AperFunction,SMDPad,CuDef*%
G36*
G01*
X152850000Y-76600000D02*
X149850000Y-76600000D01*
G75*
G02*
X149600000Y-76350000I0J250000D01*
G01*
X149600000Y-75850000D01*
G75*
G02*
X149850000Y-75600000I250000J0D01*
G01*
X152850000Y-75600000D01*
G75*
G02*
X153100000Y-75850000I0J-250000D01*
G01*
X153100000Y-76350000D01*
G75*
G02*
X152850000Y-76600000I-250000J0D01*
G01*
G37*
%TD.AperFunction*%
%TO.P,BT1,1*%
%TO.N,batt+*%
%TA.AperFunction,SMDPad,CuDef*%
G36*
G01*
X152850000Y-78600000D02*
X149850000Y-78600000D01*
G75*
G02*
X149600000Y-78350000I0J250000D01*
G01*
X149600000Y-77850000D01*
G75*
G02*
X149850000Y-77600000I250000J0D01*
G01*
X152850000Y-77600000D01*
G75*
G02*
X153100000Y-77850000I0J-250000D01*
G01*
X153100000Y-78350000D01*
G75*
G02*
X152850000Y-78600000I-250000J0D01*
G01*
G37*
%TD.AperFunction*%
%TD*%
D21*
%TO.N,GND*%
X150600000Y-83400000D03*
X154500000Y-79100000D03*
X157800000Y-89500000D03*
X154300000Y-98700000D03*
X143800000Y-97200000D03*
X149700000Y-74000000D03*
%TO.N,USBv+*%
X156100000Y-94700000D03*
%TO.N,LEDv+*%
X142300000Y-99700000D03*
X142300000Y-95500000D03*
X148200000Y-89635034D03*
%TO.N,USBDDAT-*%
X148700000Y-121500000D03*
X150700000Y-121500000D03*
%TO.N,FUTURE_USE_ISP_SCK*%
X143100000Y-85500000D03*
X150200000Y-108100000D03*
%TO.N,CHG_STAT*%
X153900000Y-91600000D03*
X156100000Y-95800000D03*
%TO.N,MODE_BTN*%
X150500000Y-85800000D03*
X153100000Y-95700000D03*
%TO.N,SSR_LED_EN*%
X152900000Y-98700000D03*
X151700000Y-87200000D03*
%TD*%
D22*
%TO.N,GND*%
X142087500Y-103587500D02*
X141200000Y-102700000D01*
X143800000Y-103587500D02*
X142087500Y-103587500D01*
X141387500Y-98687500D02*
X141200000Y-98500000D01*
X143800000Y-98687500D02*
X141387500Y-98687500D01*
D23*
X145112500Y-74167500D02*
X145112500Y-74100000D01*
X141820000Y-77460000D02*
X145112500Y-74167500D01*
X152450000Y-119750000D02*
X152450000Y-120050000D01*
X157100000Y-98000000D02*
X157100000Y-99000000D01*
X157100000Y-99000000D02*
X156900000Y-99200000D01*
X152450000Y-120350000D02*
X152450000Y-123250000D01*
X152450000Y-119750000D02*
X152450000Y-120350000D01*
X146950000Y-119750000D02*
X146950000Y-123250000D01*
X146950000Y-119750000D02*
X146950000Y-118250000D01*
X152450000Y-119750000D02*
X152450000Y-118850000D01*
X152450000Y-118850000D02*
X152900000Y-118400000D01*
X146950000Y-123250000D02*
X146950000Y-124650000D01*
X152450000Y-123250000D02*
X152450000Y-124450000D01*
D22*
%TO.N,batt+*%
X148087500Y-76587500D02*
X148087500Y-74100000D01*
X149600000Y-78100000D02*
X148087500Y-76587500D01*
X151350000Y-78100000D02*
X149600000Y-78100000D01*
X151810034Y-78100000D02*
X151350000Y-78100000D01*
X156640034Y-82930000D02*
X151810034Y-78100000D01*
X158200000Y-82930000D02*
X156640034Y-82930000D01*
D23*
X143236820Y-89850010D02*
X142800010Y-89413200D01*
X142800010Y-87955010D02*
X141550000Y-86705000D01*
X142800010Y-89413200D02*
X142800010Y-87955010D01*
X145462490Y-89850010D02*
X143236820Y-89850010D01*
X146500000Y-88812500D02*
X145462490Y-89850010D01*
D22*
X148412500Y-94475000D02*
X149900000Y-92987500D01*
X148412500Y-96000000D02*
X148412500Y-94475000D01*
X146500000Y-89587500D02*
X149900000Y-92987500D01*
X146500000Y-88812500D02*
X146500000Y-89587500D01*
X147162520Y-88149980D02*
X146500000Y-88812500D01*
X151880020Y-88149980D02*
X147162520Y-88149980D01*
X157100000Y-82930000D02*
X151880020Y-88149980D01*
X158200000Y-82930000D02*
X157100000Y-82930000D01*
X153739956Y-94874990D02*
X156150000Y-97285034D01*
X156150000Y-97285034D02*
X156150000Y-98000000D01*
X151074990Y-94874990D02*
X153739956Y-94874990D01*
X149900000Y-93700000D02*
X151074990Y-94874990D01*
X149900000Y-92987500D02*
X149900000Y-93700000D01*
D23*
%TO.N,USBv+*%
X154012500Y-100200000D02*
X153900000Y-100087500D01*
X156150000Y-100200000D02*
X154012500Y-100200000D01*
D22*
X156412500Y-94700000D02*
X157800000Y-96087500D01*
X156100000Y-94700000D02*
X156412500Y-94700000D01*
X151349990Y-91949990D02*
X151349990Y-93714956D01*
X151760044Y-94125010D02*
X154674990Y-94125010D01*
X151349990Y-93714956D02*
X151760044Y-94125010D01*
X149900000Y-90012500D02*
X149900000Y-90500000D01*
X149900000Y-90500000D02*
X151349990Y-91949990D01*
X155249980Y-94700000D02*
X156100000Y-94700000D01*
X154674990Y-94125010D02*
X155249980Y-94700000D01*
D23*
X148450000Y-120620002D02*
X148450000Y-119750000D01*
X147974999Y-121848001D02*
X147974999Y-121095003D01*
X148450000Y-122323002D02*
X147974999Y-121848001D01*
X147974999Y-121095003D02*
X148450000Y-120620002D01*
X148450000Y-123250000D02*
X148450000Y-122323002D01*
X150950000Y-122379998D02*
X150950000Y-123250000D01*
X151425001Y-121904997D02*
X150950000Y-122379998D01*
X151425001Y-121151999D02*
X151425001Y-121904997D01*
X150950000Y-120676998D02*
X151425001Y-121151999D01*
X150950000Y-119750000D02*
X150950000Y-120676998D01*
X148450000Y-124120002D02*
X148450000Y-123250000D01*
X150845001Y-124225001D02*
X148554999Y-124225001D01*
X150950000Y-124120002D02*
X150845001Y-124225001D01*
X148554999Y-124225001D02*
X148450000Y-124120002D01*
X150950000Y-123250000D02*
X150950000Y-124120002D01*
X153300030Y-117207426D02*
X153300030Y-100687470D01*
X150950000Y-119750000D02*
X150989999Y-119710001D01*
X150989999Y-118839999D02*
X151429980Y-118400018D01*
X153300030Y-100687470D02*
X153900000Y-100087500D01*
X150989999Y-119710001D02*
X150989999Y-118839999D01*
X151429980Y-118400018D02*
X152107438Y-118400018D01*
X152107438Y-118400018D02*
X153300030Y-117207426D01*
X158700001Y-96987501D02*
X157800000Y-96087500D01*
X156150000Y-100200000D02*
X156700000Y-100200000D01*
X156700000Y-100200000D02*
X158044999Y-98855001D01*
X158044999Y-98855001D02*
X158635001Y-98855001D01*
X158635001Y-98855001D02*
X158700001Y-98790001D01*
X158700001Y-98790001D02*
X158700001Y-96987501D01*
D22*
%TO.N,LEDv+*%
X143012500Y-96500000D02*
X143800000Y-95712500D01*
X141100000Y-96500000D02*
X143012500Y-96500000D01*
X143712500Y-100700000D02*
X143800000Y-100612500D01*
X141100000Y-100700000D02*
X143712500Y-100700000D01*
X153720010Y-88849990D02*
X148985044Y-88849990D01*
X148985044Y-88849990D02*
X148200000Y-89635034D01*
X158200000Y-85470000D02*
X157100000Y-85470000D01*
X157100000Y-85470000D02*
X153720010Y-88849990D01*
X148200000Y-89635034D02*
X148200000Y-89635034D01*
X143587500Y-95500000D02*
X143800000Y-95712500D01*
X142300000Y-95500000D02*
X143587500Y-95500000D01*
X143212500Y-100612500D02*
X143800000Y-100612500D01*
X142300000Y-99700000D02*
X143212500Y-100612500D01*
D23*
%TO.N,CHG_FULL_GREEN*%
X156075000Y-90887500D02*
X155487500Y-90300000D01*
X157800000Y-90887500D02*
X156075000Y-90887500D01*
%TO.N,CHG_PROG_RED*%
X155800000Y-93112500D02*
X155487500Y-92800000D01*
X157800000Y-93112500D02*
X155800000Y-93112500D01*
%TO.N,USBDAT+*%
X151200000Y-103512500D02*
X151200000Y-101387500D01*
X149950000Y-121386410D02*
X149950000Y-123250000D01*
X149450000Y-120886410D02*
X149950000Y-121386410D01*
X149450000Y-119750000D02*
X149450000Y-120886410D01*
X149450000Y-119750000D02*
X149450000Y-119050000D01*
X149450000Y-119050000D02*
X149450000Y-118879998D01*
X152400010Y-104712510D02*
X151200000Y-103512500D01*
X149450000Y-118850000D02*
X150800000Y-117500000D01*
X150800000Y-117500000D02*
X151734636Y-117500000D01*
X149450000Y-119050000D02*
X149450000Y-118850000D01*
X151734636Y-117500000D02*
X152400010Y-116834626D01*
X152400010Y-116834626D02*
X152400010Y-104712510D01*
%TO.N,USBDDAT-*%
X148800000Y-101487500D02*
X148700000Y-101387500D01*
X148800000Y-103512500D02*
X148800000Y-101487500D01*
X149450000Y-122250000D02*
X149450000Y-123250000D01*
X148700000Y-121500000D02*
X149450000Y-122250000D01*
X149950000Y-120750000D02*
X149950000Y-119750000D01*
X150700000Y-121500000D02*
X149950000Y-120750000D01*
X149737510Y-100349990D02*
X148700000Y-101387500D01*
X152063180Y-100349990D02*
X149737510Y-100349990D01*
X152850020Y-101136830D02*
X152063180Y-100349990D01*
X152850020Y-117021026D02*
X152850020Y-101136830D01*
X152850019Y-117021027D02*
X152850019Y-116900000D01*
X149950000Y-118986410D02*
X149950000Y-119750000D01*
X150986400Y-117950010D02*
X149950000Y-118986410D01*
X152850019Y-117021027D02*
X151921036Y-117950010D01*
X151921036Y-117950010D02*
X150986400Y-117950010D01*
%TO.N,LED_DAT_L_CLEAN*%
X140598960Y-97500000D02*
X141200000Y-97500000D01*
X140449999Y-92937501D02*
X140449999Y-97351039D01*
X140449999Y-97351039D02*
X140598960Y-97500000D01*
X141600000Y-91787500D02*
X140449999Y-92937501D01*
%TO.N,LED_DAT_R_CLEAN*%
X145000010Y-101313180D02*
X145000010Y-92687510D01*
X145000010Y-92687510D02*
X144100000Y-91787500D01*
X144613190Y-101700000D02*
X145000010Y-101313180D01*
X141200000Y-101700000D02*
X144613190Y-101700000D01*
%TO.N,ISP_RST*%
X142669999Y-79150001D02*
X141820000Y-80000000D01*
X146374999Y-83609999D02*
X148075001Y-81909997D01*
X148010001Y-78824999D02*
X143795999Y-78824999D01*
X147674999Y-86020001D02*
X147674999Y-85848001D01*
X148359998Y-86705000D02*
X147674999Y-86020001D01*
X147674999Y-85848001D02*
X146374999Y-84548001D01*
X143795999Y-78824999D02*
X143470997Y-79150001D01*
X143470997Y-79150001D02*
X142669999Y-79150001D01*
X146374999Y-84548001D02*
X146374999Y-83609999D01*
X148075001Y-81909997D02*
X148075001Y-78889999D01*
X148075001Y-78889999D02*
X148010001Y-78824999D01*
%TO.N,LED_DAT_L_ISC_MOSI*%
X140450000Y-82895000D02*
X141550000Y-82895000D01*
X140374999Y-82970001D02*
X140450000Y-82895000D01*
X140374999Y-87587499D02*
X140374999Y-82970001D01*
X141600000Y-88812500D02*
X140374999Y-87587499D01*
X140374999Y-79705999D02*
X140374999Y-82970001D01*
X141445997Y-78635001D02*
X140374999Y-79705999D01*
X143184999Y-78635001D02*
X141445997Y-78635001D01*
X144360000Y-77460000D02*
X143184999Y-78635001D01*
%TO.N,FUTURE_USE_ISP_SCK*%
X150200000Y-115875000D02*
X150425000Y-116100000D01*
X150200000Y-108100000D02*
X150200000Y-115875000D01*
X141615000Y-85500000D02*
X141550000Y-85435000D01*
X143100000Y-85500000D02*
X141615000Y-85500000D01*
%TO.N,LED_DAT_R_ISC_MISO*%
X142650000Y-84165000D02*
X141550000Y-84165000D01*
X144100000Y-85615000D02*
X142650000Y-84165000D01*
X144100000Y-88812500D02*
X144100000Y-85615000D01*
X142735000Y-84165000D02*
X146900000Y-80000000D01*
X141550000Y-84165000D02*
X142735000Y-84165000D01*
%TO.N,CHG_RATE_R*%
X157887500Y-100362500D02*
X158050000Y-100200000D01*
X157887500Y-102500000D02*
X157887500Y-100362500D01*
%TO.N,CHG_STAT*%
X156936820Y-97125010D02*
X156100000Y-96288190D01*
X156100000Y-96288190D02*
X156100000Y-95800000D01*
X157665012Y-97125010D02*
X156936820Y-97125010D01*
X158050000Y-97509998D02*
X157665012Y-97125010D01*
X158050000Y-98000000D02*
X158050000Y-97509998D01*
X153900000Y-91600000D02*
X152525000Y-91600000D01*
X152525000Y-91600000D02*
X152512500Y-91587500D01*
X152512500Y-92800000D02*
X152512500Y-91587500D01*
X152512500Y-91587500D02*
X152512500Y-90300000D01*
%TO.N,MODE_BTN*%
X151200000Y-96187500D02*
X151387500Y-96000000D01*
X151200000Y-98412500D02*
X151200000Y-96187500D01*
X151887500Y-95700000D02*
X151387500Y-96200000D01*
X153100000Y-95700000D02*
X151887500Y-95700000D01*
X149215000Y-85800000D02*
X148850000Y-85435000D01*
X150500000Y-85800000D02*
X149215000Y-85800000D01*
%TO.N,SSR_LED_EN*%
X150965000Y-84165000D02*
X152200000Y-82930000D01*
X148850000Y-84165000D02*
X150965000Y-84165000D01*
X149950000Y-84165000D02*
X148850000Y-84165000D01*
X151274999Y-85489999D02*
X149950000Y-84165000D01*
X151274999Y-86774999D02*
X151274999Y-85489999D01*
X151700000Y-87200000D02*
X151274999Y-86774999D01*
X149737510Y-99450010D02*
X148700000Y-98412500D01*
X152149990Y-99450010D02*
X149737510Y-99450010D01*
X152900000Y-98700000D02*
X152149990Y-99450010D01*
%TD*%
D24*
%TO.N,GND*%
G36*
X146627000Y-91660500D02*
G01*
X146647000Y-91660500D01*
X146647000Y-91914500D01*
X146627000Y-91914500D01*
X146627000Y-92976250D01*
X146785750Y-93135000D01*
X147375000Y-93138072D01*
X147499482Y-93125812D01*
X147619180Y-93089502D01*
X147729494Y-93030537D01*
X147826185Y-92951185D01*
X147905537Y-92854494D01*
X147964502Y-92744180D01*
X148000812Y-92624482D01*
X148013072Y-92500000D01*
X148010000Y-92073250D01*
X147851252Y-91914502D01*
X147869580Y-91914502D01*
X148595934Y-92640856D01*
X148595934Y-93334144D01*
X147957300Y-93972778D01*
X147931474Y-93993973D01*
X147910279Y-94019799D01*
X147910276Y-94019802D01*
X147846872Y-94097060D01*
X147784008Y-94214671D01*
X147745296Y-94342286D01*
X147732226Y-94475000D01*
X147735501Y-94508254D01*
X147735501Y-94933863D01*
X147690133Y-94947625D01*
X147572731Y-95010377D01*
X147469828Y-95094828D01*
X147385377Y-95197731D01*
X147322625Y-95315133D01*
X147283982Y-95442521D01*
X147270934Y-95575000D01*
X147270934Y-96825000D01*
X147283982Y-96957479D01*
X147322625Y-97084867D01*
X147385377Y-97202269D01*
X147469828Y-97305172D01*
X147572731Y-97389623D01*
X147645296Y-97428409D01*
X147594828Y-97469828D01*
X147510377Y-97572731D01*
X147447625Y-97690133D01*
X147408982Y-97817521D01*
X147395934Y-97950000D01*
X147395934Y-98875000D01*
X147408982Y-99007479D01*
X147447625Y-99134867D01*
X147510377Y-99252269D01*
X147594828Y-99355172D01*
X147697731Y-99439623D01*
X147815133Y-99502375D01*
X147942521Y-99541018D01*
X148075000Y-99554066D01*
X149060921Y-99554066D01*
X149328018Y-99821164D01*
X149345299Y-99842221D01*
X149366355Y-99859501D01*
X149366356Y-99859502D01*
X149415703Y-99900000D01*
X149345299Y-99957779D01*
X149328018Y-99978836D01*
X149060921Y-100245934D01*
X148075000Y-100245934D01*
X147942521Y-100258982D01*
X147815133Y-100297625D01*
X147697731Y-100360377D01*
X147594828Y-100444828D01*
X147510377Y-100547731D01*
X147447625Y-100665133D01*
X147408982Y-100792521D01*
X147395934Y-100925000D01*
X147395934Y-101850000D01*
X147408982Y-101982479D01*
X147447625Y-102109867D01*
X147510377Y-102227269D01*
X147594828Y-102330172D01*
X147697731Y-102414623D01*
X147813917Y-102476725D01*
X147797731Y-102485377D01*
X147694828Y-102569828D01*
X147610377Y-102672731D01*
X147547625Y-102790133D01*
X147508982Y-102917521D01*
X147495934Y-103050000D01*
X147495934Y-103975000D01*
X147508982Y-104107479D01*
X147547625Y-104234867D01*
X147610377Y-104352269D01*
X147694828Y-104455172D01*
X147797731Y-104539623D01*
X147915133Y-104602375D01*
X148042521Y-104641018D01*
X148175000Y-104654066D01*
X149425000Y-104654066D01*
X149557479Y-104641018D01*
X149684867Y-104602375D01*
X149802269Y-104539623D01*
X149905172Y-104455172D01*
X149989623Y-104352269D01*
X150000000Y-104332855D01*
X150010377Y-104352269D01*
X150094828Y-104455172D01*
X150197731Y-104539623D01*
X150315133Y-104602375D01*
X150442521Y-104641018D01*
X150575000Y-104654066D01*
X151560921Y-104654066D01*
X151848011Y-104941157D01*
X151848011Y-105138111D01*
X151485750Y-105140000D01*
X151327000Y-105298750D01*
X151327000Y-106360500D01*
X151347000Y-106360500D01*
X151347000Y-106614500D01*
X151327000Y-106614500D01*
X151327000Y-107676250D01*
X151485750Y-107835000D01*
X151848011Y-107836889D01*
X151848010Y-116605981D01*
X151505992Y-116948000D01*
X151341486Y-116948000D01*
X151345822Y-116933707D01*
X151354066Y-116850000D01*
X151354066Y-115350000D01*
X151345822Y-115266293D01*
X151321405Y-115185804D01*
X151281755Y-115111624D01*
X151228395Y-115046605D01*
X151163376Y-114993245D01*
X151089196Y-114953595D01*
X151008707Y-114929178D01*
X150925000Y-114920934D01*
X150752000Y-114920934D01*
X150752000Y-108717553D01*
X150842372Y-108627181D01*
X150932877Y-108491731D01*
X150995218Y-108341227D01*
X151027000Y-108181452D01*
X151027000Y-108018548D01*
X150995218Y-107858773D01*
X150964540Y-107784710D01*
X151073000Y-107676250D01*
X151073000Y-106614500D01*
X148927000Y-106614500D01*
X148927000Y-107676250D01*
X149085750Y-107835000D01*
X149413920Y-107836711D01*
X149404782Y-107858773D01*
X149373000Y-108018548D01*
X149373000Y-108181452D01*
X149404782Y-108341227D01*
X149467123Y-108491731D01*
X149557628Y-108627181D01*
X149648000Y-108717553D01*
X149648001Y-115024952D01*
X149621287Y-115046922D01*
X149567996Y-115111997D01*
X149067996Y-115861997D01*
X149028767Y-115935389D01*
X149004266Y-116015853D01*
X148995934Y-116099551D01*
X149004091Y-116183266D01*
X149028423Y-116263782D01*
X149067996Y-116338003D01*
X149567996Y-117088003D01*
X149621605Y-117153395D01*
X149686624Y-117206755D01*
X149760804Y-117246405D01*
X149841293Y-117270822D01*
X149925000Y-117279066D01*
X150240288Y-117279066D01*
X149078852Y-118440504D01*
X149057790Y-118457789D01*
X149012523Y-118512948D01*
X148988809Y-118541843D01*
X148972775Y-118571840D01*
X148937552Y-118637737D01*
X148927482Y-118670934D01*
X148815000Y-118670934D01*
X148731293Y-118679178D01*
X148700000Y-118688671D01*
X148668707Y-118679178D01*
X148585000Y-118670934D01*
X148315000Y-118670934D01*
X148231293Y-118679178D01*
X148200000Y-118688671D01*
X148168707Y-118679178D01*
X148085000Y-118670934D01*
X147815000Y-118670934D01*
X147731293Y-118679178D01*
X147700000Y-118688671D01*
X147668707Y-118679178D01*
X147585000Y-118670934D01*
X147555157Y-118670934D01*
X147543526Y-118656278D01*
X147448150Y-118575350D01*
X147338818Y-118514584D01*
X147219732Y-118476315D01*
X147116750Y-118465000D01*
X146958000Y-118623750D01*
X146958000Y-118862082D01*
X146942000Y-118892016D01*
X146942000Y-118623750D01*
X146783250Y-118465000D01*
X146680268Y-118476315D01*
X146561182Y-118514584D01*
X146451850Y-118575350D01*
X146356474Y-118656278D01*
X146278718Y-118754258D01*
X146221572Y-118865525D01*
X146187230Y-118985802D01*
X146181370Y-119057308D01*
X146051327Y-119017860D01*
X145900451Y-119003000D01*
X145299549Y-119003000D01*
X145148673Y-119017860D01*
X144955083Y-119076585D01*
X144776669Y-119171949D01*
X144620288Y-119300288D01*
X144491949Y-119456669D01*
X144458094Y-119520007D01*
X144412058Y-119500938D01*
X144271603Y-119473000D01*
X144128397Y-119473000D01*
X143987942Y-119500938D01*
X143855636Y-119555741D01*
X143736564Y-119635302D01*
X143635302Y-119736564D01*
X143555741Y-119855636D01*
X143500938Y-119987942D01*
X143473000Y-120128397D01*
X143473000Y-120271603D01*
X143500938Y-120412058D01*
X143555741Y-120544364D01*
X143635302Y-120663436D01*
X143736564Y-120764698D01*
X143855636Y-120844259D01*
X143987942Y-120899062D01*
X144128397Y-120927000D01*
X144271603Y-120927000D01*
X144412058Y-120899062D01*
X144544364Y-120844259D01*
X144643001Y-120778352D01*
X144776669Y-120888051D01*
X144955083Y-120983415D01*
X145148673Y-121042140D01*
X145299549Y-121057000D01*
X145900451Y-121057000D01*
X146051327Y-121042140D01*
X146244917Y-120983415D01*
X146414365Y-120892843D01*
X146451850Y-120924650D01*
X146561182Y-120985416D01*
X146680268Y-121023685D01*
X146783250Y-121035000D01*
X146942000Y-120876250D01*
X146942000Y-120607984D01*
X146958000Y-120637918D01*
X146958000Y-120876250D01*
X147116750Y-121035000D01*
X147219732Y-121023685D01*
X147338818Y-120985416D01*
X147448150Y-120924650D01*
X147450423Y-120922721D01*
X147430987Y-120986792D01*
X147424944Y-121048151D01*
X147420329Y-121095003D01*
X147422999Y-121122109D01*
X147422999Y-121820895D01*
X147420329Y-121848001D01*
X147422999Y-121875107D01*
X147422999Y-121875109D01*
X147430987Y-121956211D01*
X147462551Y-122060263D01*
X147489260Y-122110232D01*
X147448150Y-122075350D01*
X147338818Y-122014584D01*
X147219732Y-121976315D01*
X147116750Y-121965000D01*
X146958000Y-122123750D01*
X146958000Y-122362082D01*
X146942000Y-122392016D01*
X146942000Y-122123750D01*
X146783250Y-121965000D01*
X146680268Y-121976315D01*
X146561182Y-122014584D01*
X146451850Y-122075350D01*
X146414365Y-122107157D01*
X146244917Y-122016585D01*
X146051327Y-121957860D01*
X145900451Y-121943000D01*
X145299549Y-121943000D01*
X145148673Y-121957860D01*
X144955083Y-122016585D01*
X144776669Y-122111949D01*
X144620288Y-122240288D01*
X144491949Y-122396669D01*
X144396585Y-122575083D01*
X144337860Y-122768673D01*
X144318031Y-122970000D01*
X144337860Y-123171327D01*
X144396585Y-123364917D01*
X144491949Y-123543331D01*
X144620288Y-123699712D01*
X144776669Y-123828051D01*
X144955083Y-123923415D01*
X145148673Y-123982140D01*
X145299549Y-123997000D01*
X145900451Y-123997000D01*
X146051327Y-123982140D01*
X146181370Y-123942692D01*
X146187230Y-124014198D01*
X146221572Y-124134475D01*
X146278718Y-124245742D01*
X146356474Y-124343722D01*
X146451850Y-124424650D01*
X146561182Y-124485416D01*
X146680268Y-124523685D01*
X146783250Y-124535000D01*
X146942000Y-124376250D01*
X146942000Y-124107984D01*
X146958000Y-124137918D01*
X146958000Y-124376250D01*
X147116750Y-124535000D01*
X147219732Y-124523685D01*
X147338818Y-124485416D01*
X147448150Y-124424650D01*
X147543526Y-124343722D01*
X147555157Y-124329066D01*
X147585000Y-124329066D01*
X147668707Y-124320822D01*
X147700000Y-124311329D01*
X147731293Y-124320822D01*
X147815000Y-124329066D01*
X147936582Y-124329066D01*
X147937552Y-124332264D01*
X147988809Y-124428160D01*
X148057789Y-124512213D01*
X148078857Y-124529503D01*
X148145498Y-124596144D01*
X148162788Y-124617212D01*
X148246841Y-124686192D01*
X148342736Y-124737449D01*
X148446788Y-124769013D01*
X148527890Y-124777001D01*
X148527892Y-124777001D01*
X148554998Y-124779671D01*
X148582104Y-124777001D01*
X150817895Y-124777001D01*
X150845001Y-124779671D01*
X150872107Y-124777001D01*
X150872110Y-124777001D01*
X150953212Y-124769013D01*
X151057264Y-124737449D01*
X151153159Y-124686192D01*
X151237212Y-124617212D01*
X151254502Y-124596144D01*
X151321143Y-124529503D01*
X151342211Y-124512213D01*
X151411191Y-124428160D01*
X151462448Y-124332265D01*
X151463418Y-124329066D01*
X151585000Y-124329066D01*
X151668707Y-124320822D01*
X151700000Y-124311329D01*
X151731293Y-124320822D01*
X151815000Y-124329066D01*
X151844843Y-124329066D01*
X151856474Y-124343722D01*
X151951850Y-124424650D01*
X152061182Y-124485416D01*
X152180268Y-124523685D01*
X152283250Y-124535000D01*
X152442000Y-124376250D01*
X152442000Y-124137918D01*
X152458000Y-124107984D01*
X152458000Y-124376250D01*
X152616750Y-124535000D01*
X152719732Y-124523685D01*
X152838818Y-124485416D01*
X152948150Y-124424650D01*
X153043526Y-124343722D01*
X153121282Y-124245742D01*
X153178428Y-124134475D01*
X153212770Y-124014198D01*
X153218630Y-123942692D01*
X153348673Y-123982140D01*
X153499549Y-123997000D01*
X154100451Y-123997000D01*
X154251327Y-123982140D01*
X154444917Y-123923415D01*
X154623331Y-123828051D01*
X154779712Y-123699712D01*
X154908051Y-123543331D01*
X155003415Y-123364917D01*
X155062140Y-123171327D01*
X155081969Y-122970000D01*
X155062140Y-122768673D01*
X155003415Y-122575083D01*
X154908051Y-122396669D01*
X154779712Y-122240288D01*
X154623331Y-122111949D01*
X154444917Y-122016585D01*
X154251327Y-121957860D01*
X154100451Y-121943000D01*
X153499549Y-121943000D01*
X153348673Y-121957860D01*
X153155083Y-122016585D01*
X152985635Y-122107157D01*
X152948150Y-122075350D01*
X152838818Y-122014584D01*
X152719732Y-121976315D01*
X152616750Y-121965000D01*
X152458000Y-122123750D01*
X152458000Y-122392016D01*
X152442000Y-122362082D01*
X152442000Y-122123750D01*
X152283250Y-121965000D01*
X152180268Y-121976315D01*
X152061182Y-122014584D01*
X151951850Y-122075350D01*
X151949577Y-122077279D01*
X151950162Y-122075350D01*
X151969013Y-122013208D01*
X151977001Y-121932106D01*
X151977001Y-121932103D01*
X151979671Y-121904997D01*
X151977001Y-121877891D01*
X151977001Y-121179105D01*
X151979671Y-121151999D01*
X151975364Y-121108269D01*
X151969013Y-121043788D01*
X151937449Y-120939736D01*
X151910740Y-120889768D01*
X151951850Y-120924650D01*
X152061182Y-120985416D01*
X152180268Y-121023685D01*
X152283250Y-121035000D01*
X152442000Y-120876250D01*
X152442000Y-120637918D01*
X152458000Y-120607984D01*
X152458000Y-120876250D01*
X152616750Y-121035000D01*
X152719732Y-121023685D01*
X152838818Y-120985416D01*
X152948150Y-120924650D01*
X152985635Y-120892843D01*
X153155083Y-120983415D01*
X153348673Y-121042140D01*
X153499549Y-121057000D01*
X154100451Y-121057000D01*
X154251327Y-121042140D01*
X154444917Y-120983415D01*
X154623331Y-120888051D01*
X154756999Y-120778352D01*
X154855636Y-120844259D01*
X154987942Y-120899062D01*
X155128397Y-120927000D01*
X155271603Y-120927000D01*
X155412058Y-120899062D01*
X155544364Y-120844259D01*
X155663436Y-120764698D01*
X155764698Y-120663436D01*
X155844259Y-120544364D01*
X155899062Y-120412058D01*
X155927000Y-120271603D01*
X155927000Y-120128397D01*
X155899062Y-119987942D01*
X155844259Y-119855636D01*
X155764698Y-119736564D01*
X155663436Y-119635302D01*
X155544364Y-119555741D01*
X155412058Y-119500938D01*
X155271603Y-119473000D01*
X155128397Y-119473000D01*
X154987942Y-119500938D01*
X154941906Y-119520007D01*
X154908051Y-119456669D01*
X154779712Y-119300288D01*
X154623331Y-119171949D01*
X154444917Y-119076585D01*
X154251327Y-119017860D01*
X154100451Y-119003000D01*
X153499549Y-119003000D01*
X153348673Y-119017860D01*
X153218630Y-119057308D01*
X153212770Y-118985802D01*
X153178428Y-118865525D01*
X153121282Y-118754258D01*
X153043526Y-118656278D01*
X152948150Y-118575350D01*
X152838818Y-118514584D01*
X152789398Y-118498703D01*
X153671184Y-117616918D01*
X153692241Y-117599637D01*
X153720636Y-117565038D01*
X153761221Y-117515584D01*
X153812478Y-117419689D01*
X153844042Y-117315637D01*
X153854700Y-117207426D01*
X153852030Y-117180318D01*
X153852030Y-105565520D01*
X155634607Y-105565520D01*
X155634607Y-105834480D01*
X155687078Y-106098271D01*
X155790004Y-106346756D01*
X155939430Y-106570388D01*
X156129612Y-106760570D01*
X156353244Y-106909996D01*
X156601729Y-107012922D01*
X156865520Y-107065393D01*
X157134480Y-107065393D01*
X157398271Y-107012922D01*
X157646756Y-106909996D01*
X157870388Y-106760570D01*
X158060570Y-106570388D01*
X158209996Y-106346756D01*
X158312922Y-106098271D01*
X158365393Y-105834480D01*
X158365393Y-105565520D01*
X158312922Y-105301729D01*
X158209996Y-105053244D01*
X158060570Y-104829612D01*
X157870388Y-104639430D01*
X157646756Y-104490004D01*
X157398271Y-104387078D01*
X157134480Y-104334607D01*
X156865520Y-104334607D01*
X156601729Y-104387078D01*
X156353244Y-104490004D01*
X156129612Y-104639430D01*
X155939430Y-104829612D01*
X155790004Y-105053244D01*
X155687078Y-105301729D01*
X155634607Y-105565520D01*
X153852030Y-105565520D01*
X153852030Y-103909024D01*
X153955820Y-103964502D01*
X154075518Y-104000812D01*
X154200000Y-104013072D01*
X154626750Y-104010000D01*
X154785500Y-103851250D01*
X154785500Y-102627000D01*
X155039500Y-102627000D01*
X155039500Y-103851250D01*
X155198250Y-104010000D01*
X155625000Y-104013072D01*
X155749482Y-104000812D01*
X155869180Y-103964502D01*
X155979494Y-103905537D01*
X156076185Y-103826185D01*
X156155537Y-103729494D01*
X156214502Y-103619180D01*
X156250812Y-103499482D01*
X156263072Y-103375000D01*
X156260000Y-102785750D01*
X156101250Y-102627000D01*
X155039500Y-102627000D01*
X154785500Y-102627000D01*
X154765500Y-102627000D01*
X154765500Y-102373000D01*
X154785500Y-102373000D01*
X154785500Y-102353000D01*
X155039500Y-102353000D01*
X155039500Y-102373000D01*
X156101250Y-102373000D01*
X156260000Y-102214250D01*
X156263072Y-101625000D01*
X156250812Y-101500518D01*
X156214502Y-101380820D01*
X156155537Y-101270506D01*
X156076185Y-101173815D01*
X156058213Y-101159066D01*
X156475000Y-101159066D01*
X156558707Y-101150822D01*
X156639196Y-101126405D01*
X156713376Y-101086755D01*
X156778395Y-101033395D01*
X156831755Y-100968376D01*
X156871405Y-100894196D01*
X156895822Y-100813707D01*
X156904066Y-100730000D01*
X156904066Y-100714935D01*
X156912263Y-100712448D01*
X157008158Y-100661191D01*
X157092211Y-100592211D01*
X157109500Y-100571144D01*
X157295934Y-100384710D01*
X157295934Y-100730000D01*
X157304178Y-100813707D01*
X157328595Y-100894196D01*
X157335501Y-100907116D01*
X157335501Y-101204749D01*
X157292521Y-101208982D01*
X157165133Y-101247625D01*
X157047731Y-101310377D01*
X156944828Y-101394828D01*
X156860377Y-101497731D01*
X156797625Y-101615133D01*
X156758982Y-101742521D01*
X156745934Y-101875000D01*
X156745934Y-103125000D01*
X156758982Y-103257479D01*
X156797625Y-103384867D01*
X156860377Y-103502269D01*
X156944828Y-103605172D01*
X157047731Y-103689623D01*
X157165133Y-103752375D01*
X157292521Y-103791018D01*
X157425000Y-103804066D01*
X158350000Y-103804066D01*
X158482479Y-103791018D01*
X158609867Y-103752375D01*
X158727269Y-103689623D01*
X158830172Y-103605172D01*
X158848001Y-103583448D01*
X158848001Y-105913359D01*
X157337569Y-107817817D01*
X157296191Y-107852048D01*
X157267343Y-107881098D01*
X157238055Y-107909779D01*
X157234033Y-107914642D01*
X156989010Y-108215069D01*
X156966356Y-108249166D01*
X156943194Y-108282993D01*
X156940192Y-108288545D01*
X156891289Y-108380518D01*
X156700496Y-108621083D01*
X156687012Y-108642012D01*
X156677870Y-108665169D01*
X156673000Y-108700000D01*
X156673000Y-108883218D01*
X156612522Y-109083532D01*
X156604558Y-109123752D01*
X156596048Y-109163790D01*
X156595388Y-109170066D01*
X156557557Y-109555892D01*
X156555400Y-109577796D01*
X156555401Y-115822205D01*
X156557132Y-115839780D01*
X156581138Y-116145467D01*
X156587554Y-116181523D01*
X156592762Y-116217748D01*
X156594308Y-116223867D01*
X156673000Y-116526388D01*
X156673000Y-116800000D01*
X156675440Y-116824776D01*
X156682667Y-116848601D01*
X156694403Y-116870557D01*
X156710197Y-116889803D01*
X156968077Y-117147683D01*
X157170088Y-117415947D01*
X157197791Y-117446095D01*
X157225102Y-117476661D01*
X157229776Y-117480902D01*
X157518692Y-117739398D01*
X157551736Y-117763600D01*
X157584451Y-117788269D01*
X157589852Y-117791516D01*
X157589860Y-117791522D01*
X157589868Y-117791526D01*
X157643898Y-117823504D01*
X158772849Y-118952455D01*
X158828160Y-119165090D01*
X158848000Y-119417726D01*
X158848001Y-130377881D01*
X158844032Y-130418364D01*
X156903120Y-132865600D01*
X156811909Y-132893835D01*
X156296560Y-132948000D01*
X143022108Y-132948000D01*
X142806462Y-132926856D01*
X140472651Y-130593045D01*
X140452000Y-130396560D01*
X140452000Y-129227000D01*
X141215000Y-129227000D01*
X141215000Y-130127000D01*
X141268310Y-130414269D01*
X141376639Y-130685618D01*
X141535824Y-130930619D01*
X141739748Y-131139857D01*
X141980574Y-131305291D01*
X142249047Y-131420563D01*
X142343110Y-131441476D01*
X142573000Y-131320155D01*
X142573000Y-129227000D01*
X142827000Y-129227000D01*
X142827000Y-131320155D01*
X143056890Y-131441476D01*
X143150953Y-131420563D01*
X143419426Y-131305291D01*
X143660252Y-131139857D01*
X143864176Y-130930619D01*
X144023361Y-130685618D01*
X144131690Y-130414269D01*
X144185000Y-130127000D01*
X144185000Y-129227000D01*
X142827000Y-129227000D01*
X142573000Y-129227000D01*
X141215000Y-129227000D01*
X140452000Y-129227000D01*
X140452000Y-128073000D01*
X141215000Y-128073000D01*
X141215000Y-128973000D01*
X142573000Y-128973000D01*
X142573000Y-126879845D01*
X142827000Y-126879845D01*
X142827000Y-128973000D01*
X144185000Y-128973000D01*
X144185000Y-128137275D01*
X155423000Y-128137275D01*
X155423000Y-130062726D01*
X155441479Y-130250336D01*
X155514499Y-130491051D01*
X155633077Y-130712896D01*
X155792657Y-130907344D01*
X155987105Y-131066924D01*
X156208950Y-131185502D01*
X156449665Y-131258522D01*
X156700000Y-131283178D01*
X156950336Y-131258522D01*
X157191051Y-131185502D01*
X157412896Y-131066924D01*
X157607344Y-130907344D01*
X157766924Y-130712896D01*
X157885502Y-130491051D01*
X157958522Y-130250336D01*
X157977000Y-130062726D01*
X157977000Y-128137274D01*
X157958522Y-127949664D01*
X157885502Y-127708949D01*
X157766924Y-127487104D01*
X157607344Y-127292656D01*
X157412895Y-127133076D01*
X157191050Y-127014498D01*
X156950335Y-126941478D01*
X156700000Y-126916822D01*
X156449664Y-126941478D01*
X156208949Y-127014498D01*
X155987104Y-127133076D01*
X155792656Y-127292656D01*
X155633076Y-127487105D01*
X155514498Y-127708950D01*
X155441478Y-127949665D01*
X155423000Y-128137275D01*
X144185000Y-128137275D01*
X144185000Y-128073000D01*
X144131690Y-127785731D01*
X144023361Y-127514382D01*
X143864176Y-127269381D01*
X143660252Y-127060143D01*
X143419426Y-126894709D01*
X143150953Y-126779437D01*
X143056890Y-126758524D01*
X142827000Y-126879845D01*
X142573000Y-126879845D01*
X142343110Y-126758524D01*
X142249047Y-126779437D01*
X141980574Y-126894709D01*
X141739748Y-127060143D01*
X141535824Y-127269381D01*
X141376639Y-127514382D01*
X141268310Y-127785731D01*
X141215000Y-128073000D01*
X140452000Y-128073000D01*
X140452000Y-119422109D01*
X140475634Y-119181072D01*
X141714695Y-117787129D01*
X142003809Y-117547952D01*
X142032674Y-117518885D01*
X142061945Y-117490221D01*
X142065962Y-117485364D01*
X142065969Y-117485357D01*
X142065974Y-117485349D01*
X142310991Y-117184931D01*
X142333709Y-117150738D01*
X142356806Y-117117006D01*
X142359808Y-117111455D01*
X142426074Y-116986827D01*
X142694921Y-116684374D01*
X142709558Y-116664235D01*
X142719984Y-116641627D01*
X142725800Y-116617419D01*
X142727000Y-116600000D01*
X142727000Y-116001606D01*
X142742443Y-115844108D01*
X142742443Y-115844105D01*
X142744600Y-115822205D01*
X142744600Y-109577795D01*
X142742864Y-109560169D01*
X142727000Y-109358161D01*
X142727000Y-109000000D01*
X142724560Y-108975224D01*
X142717333Y-108951399D01*
X142700422Y-108922254D01*
X142608903Y-108804042D01*
X142608097Y-108800943D01*
X142593968Y-108762502D01*
X142580370Y-108723846D01*
X142577664Y-108718144D01*
X142409053Y-108369055D01*
X142387741Y-108334113D01*
X142366879Y-108298811D01*
X142363118Y-108293743D01*
X142129913Y-107984053D01*
X142102190Y-107953884D01*
X142074898Y-107923339D01*
X142070224Y-107919098D01*
X141781308Y-107660602D01*
X141748242Y-107636384D01*
X141715549Y-107611731D01*
X141710141Y-107608479D01*
X141710140Y-107608478D01*
X141710137Y-107608476D01*
X141660610Y-107579163D01*
X141367065Y-107200000D01*
X147286928Y-107200000D01*
X147299188Y-107324482D01*
X147335498Y-107444180D01*
X147394463Y-107554494D01*
X147473815Y-107651185D01*
X147570506Y-107730537D01*
X147680820Y-107789502D01*
X147800518Y-107825812D01*
X147925000Y-107838072D01*
X148514250Y-107835000D01*
X148673000Y-107676250D01*
X148673000Y-106614500D01*
X147448750Y-106614500D01*
X147290000Y-106773250D01*
X147286928Y-107200000D01*
X141367065Y-107200000D01*
X140455126Y-106022080D01*
X140452000Y-105982275D01*
X140452000Y-105565520D01*
X141034607Y-105565520D01*
X141034607Y-105834480D01*
X141087078Y-106098271D01*
X141190004Y-106346756D01*
X141339430Y-106570388D01*
X141529612Y-106760570D01*
X141753244Y-106909996D01*
X142001729Y-107012922D01*
X142265520Y-107065393D01*
X142534480Y-107065393D01*
X142798271Y-107012922D01*
X143046756Y-106909996D01*
X143270388Y-106760570D01*
X143460570Y-106570388D01*
X143609996Y-106346756D01*
X143712922Y-106098271D01*
X143765393Y-105834480D01*
X143765393Y-105775000D01*
X147286928Y-105775000D01*
X147290000Y-106201750D01*
X147448750Y-106360500D01*
X148673000Y-106360500D01*
X148673000Y-105298750D01*
X148927000Y-105298750D01*
X148927000Y-106360500D01*
X151073000Y-106360500D01*
X151073000Y-105298750D01*
X150914250Y-105140000D01*
X150325000Y-105136928D01*
X150200518Y-105149188D01*
X150080820Y-105185498D01*
X150000000Y-105228698D01*
X149919180Y-105185498D01*
X149799482Y-105149188D01*
X149675000Y-105136928D01*
X149085750Y-105140000D01*
X148927000Y-105298750D01*
X148673000Y-105298750D01*
X148514250Y-105140000D01*
X147925000Y-105136928D01*
X147800518Y-105149188D01*
X147680820Y-105185498D01*
X147570506Y-105244463D01*
X147473815Y-105323815D01*
X147394463Y-105420506D01*
X147335498Y-105530820D01*
X147299188Y-105650518D01*
X147286928Y-105775000D01*
X143765393Y-105775000D01*
X143765393Y-105565520D01*
X143712922Y-105301729D01*
X143609996Y-105053244D01*
X143524284Y-104924966D01*
X143673000Y-104776250D01*
X143673000Y-103714500D01*
X143927000Y-103714500D01*
X143927000Y-104776250D01*
X144085750Y-104935000D01*
X144675000Y-104938072D01*
X144799482Y-104925812D01*
X144919180Y-104889502D01*
X145029494Y-104830537D01*
X145126185Y-104751185D01*
X145205537Y-104654494D01*
X145264502Y-104544180D01*
X145300812Y-104424482D01*
X145313072Y-104300000D01*
X145310000Y-103873250D01*
X145151250Y-103714500D01*
X143927000Y-103714500D01*
X143673000Y-103714500D01*
X142448750Y-103714500D01*
X142290000Y-103873250D01*
X142286928Y-104300000D01*
X142290336Y-104334607D01*
X142265520Y-104334607D01*
X142001729Y-104387078D01*
X141753244Y-104490004D01*
X141529612Y-104639430D01*
X141339430Y-104829612D01*
X141190004Y-105053244D01*
X141087078Y-105301729D01*
X141034607Y-105565520D01*
X140452000Y-105565520D01*
X140452000Y-103444148D01*
X140541852Y-103530936D01*
X140716606Y-103643368D01*
X140909936Y-103719547D01*
X141073000Y-103593621D01*
X141073000Y-102827000D01*
X141327000Y-102827000D01*
X141327000Y-103593621D01*
X141490064Y-103719547D01*
X141683394Y-103643368D01*
X141858148Y-103530936D01*
X142007609Y-103386571D01*
X142126034Y-103215822D01*
X142208872Y-103025250D01*
X142219540Y-102990062D01*
X142092257Y-102827000D01*
X141327000Y-102827000D01*
X141073000Y-102827000D01*
X141053000Y-102827000D01*
X141053000Y-102573000D01*
X141073000Y-102573000D01*
X141073000Y-102553000D01*
X141327000Y-102553000D01*
X141327000Y-102573000D01*
X142092257Y-102573000D01*
X142219540Y-102409938D01*
X142208872Y-102374750D01*
X142155515Y-102252000D01*
X142791248Y-102252000D01*
X142680820Y-102285498D01*
X142570506Y-102344463D01*
X142473815Y-102423815D01*
X142394463Y-102520506D01*
X142335498Y-102630820D01*
X142299188Y-102750518D01*
X142286928Y-102875000D01*
X142290000Y-103301750D01*
X142448750Y-103460500D01*
X143673000Y-103460500D01*
X143673000Y-103440500D01*
X143927000Y-103440500D01*
X143927000Y-103460500D01*
X145151250Y-103460500D01*
X145310000Y-103301750D01*
X145313072Y-102875000D01*
X145300812Y-102750518D01*
X145264502Y-102630820D01*
X145205537Y-102520506D01*
X145126185Y-102423815D01*
X145029494Y-102344463D01*
X144919180Y-102285498D01*
X144799482Y-102249188D01*
X144727657Y-102242114D01*
X144825453Y-102212448D01*
X144921348Y-102161191D01*
X145005401Y-102092211D01*
X145022690Y-102071144D01*
X145371164Y-101722672D01*
X145392221Y-101705391D01*
X145461201Y-101621338D01*
X145512458Y-101525443D01*
X145544022Y-101421391D01*
X145552010Y-101340289D01*
X145552010Y-101340287D01*
X145554680Y-101313181D01*
X145552010Y-101286075D01*
X145552010Y-93130883D01*
X145625000Y-93138072D01*
X146214250Y-93135000D01*
X146373000Y-92976250D01*
X146373000Y-91914500D01*
X146353000Y-91914500D01*
X146353000Y-91660500D01*
X146373000Y-91660500D01*
X146373000Y-91640500D01*
X146627000Y-91640500D01*
X146627000Y-91660500D01*
G37*
X146627000Y-91660500D02*
X146647000Y-91660500D01*
X146647000Y-91914500D01*
X146627000Y-91914500D01*
X146627000Y-92976250D01*
X146785750Y-93135000D01*
X147375000Y-93138072D01*
X147499482Y-93125812D01*
X147619180Y-93089502D01*
X147729494Y-93030537D01*
X147826185Y-92951185D01*
X147905537Y-92854494D01*
X147964502Y-92744180D01*
X148000812Y-92624482D01*
X148013072Y-92500000D01*
X148010000Y-92073250D01*
X147851252Y-91914502D01*
X147869580Y-91914502D01*
X148595934Y-92640856D01*
X148595934Y-93334144D01*
X147957300Y-93972778D01*
X147931474Y-93993973D01*
X147910279Y-94019799D01*
X147910276Y-94019802D01*
X147846872Y-94097060D01*
X147784008Y-94214671D01*
X147745296Y-94342286D01*
X147732226Y-94475000D01*
X147735501Y-94508254D01*
X147735501Y-94933863D01*
X147690133Y-94947625D01*
X147572731Y-95010377D01*
X147469828Y-95094828D01*
X147385377Y-95197731D01*
X147322625Y-95315133D01*
X147283982Y-95442521D01*
X147270934Y-95575000D01*
X147270934Y-96825000D01*
X147283982Y-96957479D01*
X147322625Y-97084867D01*
X147385377Y-97202269D01*
X147469828Y-97305172D01*
X147572731Y-97389623D01*
X147645296Y-97428409D01*
X147594828Y-97469828D01*
X147510377Y-97572731D01*
X147447625Y-97690133D01*
X147408982Y-97817521D01*
X147395934Y-97950000D01*
X147395934Y-98875000D01*
X147408982Y-99007479D01*
X147447625Y-99134867D01*
X147510377Y-99252269D01*
X147594828Y-99355172D01*
X147697731Y-99439623D01*
X147815133Y-99502375D01*
X147942521Y-99541018D01*
X148075000Y-99554066D01*
X149060921Y-99554066D01*
X149328018Y-99821164D01*
X149345299Y-99842221D01*
X149366355Y-99859501D01*
X149366356Y-99859502D01*
X149415703Y-99900000D01*
X149345299Y-99957779D01*
X149328018Y-99978836D01*
X149060921Y-100245934D01*
X148075000Y-100245934D01*
X147942521Y-100258982D01*
X147815133Y-100297625D01*
X147697731Y-100360377D01*
X147594828Y-100444828D01*
X147510377Y-100547731D01*
X147447625Y-100665133D01*
X147408982Y-100792521D01*
X147395934Y-100925000D01*
X147395934Y-101850000D01*
X147408982Y-101982479D01*
X147447625Y-102109867D01*
X147510377Y-102227269D01*
X147594828Y-102330172D01*
X147697731Y-102414623D01*
X147813917Y-102476725D01*
X147797731Y-102485377D01*
X147694828Y-102569828D01*
X147610377Y-102672731D01*
X147547625Y-102790133D01*
X147508982Y-102917521D01*
X147495934Y-103050000D01*
X147495934Y-103975000D01*
X147508982Y-104107479D01*
X147547625Y-104234867D01*
X147610377Y-104352269D01*
X147694828Y-104455172D01*
X147797731Y-104539623D01*
X147915133Y-104602375D01*
X148042521Y-104641018D01*
X148175000Y-104654066D01*
X149425000Y-104654066D01*
X149557479Y-104641018D01*
X149684867Y-104602375D01*
X149802269Y-104539623D01*
X149905172Y-104455172D01*
X149989623Y-104352269D01*
X150000000Y-104332855D01*
X150010377Y-104352269D01*
X150094828Y-104455172D01*
X150197731Y-104539623D01*
X150315133Y-104602375D01*
X150442521Y-104641018D01*
X150575000Y-104654066D01*
X151560921Y-104654066D01*
X151848011Y-104941157D01*
X151848011Y-105138111D01*
X151485750Y-105140000D01*
X151327000Y-105298750D01*
X151327000Y-106360500D01*
X151347000Y-106360500D01*
X151347000Y-106614500D01*
X151327000Y-106614500D01*
X151327000Y-107676250D01*
X151485750Y-107835000D01*
X151848011Y-107836889D01*
X151848010Y-116605981D01*
X151505992Y-116948000D01*
X151341486Y-116948000D01*
X151345822Y-116933707D01*
X151354066Y-116850000D01*
X151354066Y-115350000D01*
X151345822Y-115266293D01*
X151321405Y-115185804D01*
X151281755Y-115111624D01*
X151228395Y-115046605D01*
X151163376Y-114993245D01*
X151089196Y-114953595D01*
X151008707Y-114929178D01*
X150925000Y-114920934D01*
X150752000Y-114920934D01*
X150752000Y-108717553D01*
X150842372Y-108627181D01*
X150932877Y-108491731D01*
X150995218Y-108341227D01*
X151027000Y-108181452D01*
X151027000Y-108018548D01*
X150995218Y-107858773D01*
X150964540Y-107784710D01*
X151073000Y-107676250D01*
X151073000Y-106614500D01*
X148927000Y-106614500D01*
X148927000Y-107676250D01*
X149085750Y-107835000D01*
X149413920Y-107836711D01*
X149404782Y-107858773D01*
X149373000Y-108018548D01*
X149373000Y-108181452D01*
X149404782Y-108341227D01*
X149467123Y-108491731D01*
X149557628Y-108627181D01*
X149648000Y-108717553D01*
X149648001Y-115024952D01*
X149621287Y-115046922D01*
X149567996Y-115111997D01*
X149067996Y-115861997D01*
X149028767Y-115935389D01*
X149004266Y-116015853D01*
X148995934Y-116099551D01*
X149004091Y-116183266D01*
X149028423Y-116263782D01*
X149067996Y-116338003D01*
X149567996Y-117088003D01*
X149621605Y-117153395D01*
X149686624Y-117206755D01*
X149760804Y-117246405D01*
X149841293Y-117270822D01*
X149925000Y-117279066D01*
X150240288Y-117279066D01*
X149078852Y-118440504D01*
X149057790Y-118457789D01*
X149012523Y-118512948D01*
X148988809Y-118541843D01*
X148972775Y-118571840D01*
X148937552Y-118637737D01*
X148927482Y-118670934D01*
X148815000Y-118670934D01*
X148731293Y-118679178D01*
X148700000Y-118688671D01*
X148668707Y-118679178D01*
X148585000Y-118670934D01*
X148315000Y-118670934D01*
X148231293Y-118679178D01*
X148200000Y-118688671D01*
X148168707Y-118679178D01*
X148085000Y-118670934D01*
X147815000Y-118670934D01*
X147731293Y-118679178D01*
X147700000Y-118688671D01*
X147668707Y-118679178D01*
X147585000Y-118670934D01*
X147555157Y-118670934D01*
X147543526Y-118656278D01*
X147448150Y-118575350D01*
X147338818Y-118514584D01*
X147219732Y-118476315D01*
X147116750Y-118465000D01*
X146958000Y-118623750D01*
X146958000Y-118862082D01*
X146942000Y-118892016D01*
X146942000Y-118623750D01*
X146783250Y-118465000D01*
X146680268Y-118476315D01*
X146561182Y-118514584D01*
X146451850Y-118575350D01*
X146356474Y-118656278D01*
X146278718Y-118754258D01*
X146221572Y-118865525D01*
X146187230Y-118985802D01*
X146181370Y-119057308D01*
X146051327Y-119017860D01*
X145900451Y-119003000D01*
X145299549Y-119003000D01*
X145148673Y-119017860D01*
X144955083Y-119076585D01*
X144776669Y-119171949D01*
X144620288Y-119300288D01*
X144491949Y-119456669D01*
X144458094Y-119520007D01*
X144412058Y-119500938D01*
X144271603Y-119473000D01*
X144128397Y-119473000D01*
X143987942Y-119500938D01*
X143855636Y-119555741D01*
X143736564Y-119635302D01*
X143635302Y-119736564D01*
X143555741Y-119855636D01*
X143500938Y-119987942D01*
X143473000Y-120128397D01*
X143473000Y-120271603D01*
X143500938Y-120412058D01*
X143555741Y-120544364D01*
X143635302Y-120663436D01*
X143736564Y-120764698D01*
X143855636Y-120844259D01*
X143987942Y-120899062D01*
X144128397Y-120927000D01*
X144271603Y-120927000D01*
X144412058Y-120899062D01*
X144544364Y-120844259D01*
X144643001Y-120778352D01*
X144776669Y-120888051D01*
X144955083Y-120983415D01*
X145148673Y-121042140D01*
X145299549Y-121057000D01*
X145900451Y-121057000D01*
X146051327Y-121042140D01*
X146244917Y-120983415D01*
X146414365Y-120892843D01*
X146451850Y-120924650D01*
X146561182Y-120985416D01*
X146680268Y-121023685D01*
X146783250Y-121035000D01*
X146942000Y-120876250D01*
X146942000Y-120607984D01*
X146958000Y-120637918D01*
X146958000Y-120876250D01*
X147116750Y-121035000D01*
X147219732Y-121023685D01*
X147338818Y-120985416D01*
X147448150Y-120924650D01*
X147450423Y-120922721D01*
X147430987Y-120986792D01*
X147424944Y-121048151D01*
X147420329Y-121095003D01*
X147422999Y-121122109D01*
X147422999Y-121820895D01*
X147420329Y-121848001D01*
X147422999Y-121875107D01*
X147422999Y-121875109D01*
X147430987Y-121956211D01*
X147462551Y-122060263D01*
X147489260Y-122110232D01*
X147448150Y-122075350D01*
X147338818Y-122014584D01*
X147219732Y-121976315D01*
X147116750Y-121965000D01*
X146958000Y-122123750D01*
X146958000Y-122362082D01*
X146942000Y-122392016D01*
X146942000Y-122123750D01*
X146783250Y-121965000D01*
X146680268Y-121976315D01*
X146561182Y-122014584D01*
X146451850Y-122075350D01*
X146414365Y-122107157D01*
X146244917Y-122016585D01*
X146051327Y-121957860D01*
X145900451Y-121943000D01*
X145299549Y-121943000D01*
X145148673Y-121957860D01*
X144955083Y-122016585D01*
X144776669Y-122111949D01*
X144620288Y-122240288D01*
X144491949Y-122396669D01*
X144396585Y-122575083D01*
X144337860Y-122768673D01*
X144318031Y-122970000D01*
X144337860Y-123171327D01*
X144396585Y-123364917D01*
X144491949Y-123543331D01*
X144620288Y-123699712D01*
X144776669Y-123828051D01*
X144955083Y-123923415D01*
X145148673Y-123982140D01*
X145299549Y-123997000D01*
X145900451Y-123997000D01*
X146051327Y-123982140D01*
X146181370Y-123942692D01*
X146187230Y-124014198D01*
X146221572Y-124134475D01*
X146278718Y-124245742D01*
X146356474Y-124343722D01*
X146451850Y-124424650D01*
X146561182Y-124485416D01*
X146680268Y-124523685D01*
X146783250Y-124535000D01*
X146942000Y-124376250D01*
X146942000Y-124107984D01*
X146958000Y-124137918D01*
X146958000Y-124376250D01*
X147116750Y-124535000D01*
X147219732Y-124523685D01*
X147338818Y-124485416D01*
X147448150Y-124424650D01*
X147543526Y-124343722D01*
X147555157Y-124329066D01*
X147585000Y-124329066D01*
X147668707Y-124320822D01*
X147700000Y-124311329D01*
X147731293Y-124320822D01*
X147815000Y-124329066D01*
X147936582Y-124329066D01*
X147937552Y-124332264D01*
X147988809Y-124428160D01*
X148057789Y-124512213D01*
X148078857Y-124529503D01*
X148145498Y-124596144D01*
X148162788Y-124617212D01*
X148246841Y-124686192D01*
X148342736Y-124737449D01*
X148446788Y-124769013D01*
X148527890Y-124777001D01*
X148527892Y-124777001D01*
X148554998Y-124779671D01*
X148582104Y-124777001D01*
X150817895Y-124777001D01*
X150845001Y-124779671D01*
X150872107Y-124777001D01*
X150872110Y-124777001D01*
X150953212Y-124769013D01*
X151057264Y-124737449D01*
X151153159Y-124686192D01*
X151237212Y-124617212D01*
X151254502Y-124596144D01*
X151321143Y-124529503D01*
X151342211Y-124512213D01*
X151411191Y-124428160D01*
X151462448Y-124332265D01*
X151463418Y-124329066D01*
X151585000Y-124329066D01*
X151668707Y-124320822D01*
X151700000Y-124311329D01*
X151731293Y-124320822D01*
X151815000Y-124329066D01*
X151844843Y-124329066D01*
X151856474Y-124343722D01*
X151951850Y-124424650D01*
X152061182Y-124485416D01*
X152180268Y-124523685D01*
X152283250Y-124535000D01*
X152442000Y-124376250D01*
X152442000Y-124137918D01*
X152458000Y-124107984D01*
X152458000Y-124376250D01*
X152616750Y-124535000D01*
X152719732Y-124523685D01*
X152838818Y-124485416D01*
X152948150Y-124424650D01*
X153043526Y-124343722D01*
X153121282Y-124245742D01*
X153178428Y-124134475D01*
X153212770Y-124014198D01*
X153218630Y-123942692D01*
X153348673Y-123982140D01*
X153499549Y-123997000D01*
X154100451Y-123997000D01*
X154251327Y-123982140D01*
X154444917Y-123923415D01*
X154623331Y-123828051D01*
X154779712Y-123699712D01*
X154908051Y-123543331D01*
X155003415Y-123364917D01*
X155062140Y-123171327D01*
X155081969Y-122970000D01*
X155062140Y-122768673D01*
X155003415Y-122575083D01*
X154908051Y-122396669D01*
X154779712Y-122240288D01*
X154623331Y-122111949D01*
X154444917Y-122016585D01*
X154251327Y-121957860D01*
X154100451Y-121943000D01*
X153499549Y-121943000D01*
X153348673Y-121957860D01*
X153155083Y-122016585D01*
X152985635Y-122107157D01*
X152948150Y-122075350D01*
X152838818Y-122014584D01*
X152719732Y-121976315D01*
X152616750Y-121965000D01*
X152458000Y-122123750D01*
X152458000Y-122392016D01*
X152442000Y-122362082D01*
X152442000Y-122123750D01*
X152283250Y-121965000D01*
X152180268Y-121976315D01*
X152061182Y-122014584D01*
X151951850Y-122075350D01*
X151949577Y-122077279D01*
X151950162Y-122075350D01*
X151969013Y-122013208D01*
X151977001Y-121932106D01*
X151977001Y-121932103D01*
X151979671Y-121904997D01*
X151977001Y-121877891D01*
X151977001Y-121179105D01*
X151979671Y-121151999D01*
X151975364Y-121108269D01*
X151969013Y-121043788D01*
X151937449Y-120939736D01*
X151910740Y-120889768D01*
X151951850Y-120924650D01*
X152061182Y-120985416D01*
X152180268Y-121023685D01*
X152283250Y-121035000D01*
X152442000Y-120876250D01*
X152442000Y-120637918D01*
X152458000Y-120607984D01*
X152458000Y-120876250D01*
X152616750Y-121035000D01*
X152719732Y-121023685D01*
X152838818Y-120985416D01*
X152948150Y-120924650D01*
X152985635Y-120892843D01*
X153155083Y-120983415D01*
X153348673Y-121042140D01*
X153499549Y-121057000D01*
X154100451Y-121057000D01*
X154251327Y-121042140D01*
X154444917Y-120983415D01*
X154623331Y-120888051D01*
X154756999Y-120778352D01*
X154855636Y-120844259D01*
X154987942Y-120899062D01*
X155128397Y-120927000D01*
X155271603Y-120927000D01*
X155412058Y-120899062D01*
X155544364Y-120844259D01*
X155663436Y-120764698D01*
X155764698Y-120663436D01*
X155844259Y-120544364D01*
X155899062Y-120412058D01*
X155927000Y-120271603D01*
X155927000Y-120128397D01*
X155899062Y-119987942D01*
X155844259Y-119855636D01*
X155764698Y-119736564D01*
X155663436Y-119635302D01*
X155544364Y-119555741D01*
X155412058Y-119500938D01*
X155271603Y-119473000D01*
X155128397Y-119473000D01*
X154987942Y-119500938D01*
X154941906Y-119520007D01*
X154908051Y-119456669D01*
X154779712Y-119300288D01*
X154623331Y-119171949D01*
X154444917Y-119076585D01*
X154251327Y-119017860D01*
X154100451Y-119003000D01*
X153499549Y-119003000D01*
X153348673Y-119017860D01*
X153218630Y-119057308D01*
X153212770Y-118985802D01*
X153178428Y-118865525D01*
X153121282Y-118754258D01*
X153043526Y-118656278D01*
X152948150Y-118575350D01*
X152838818Y-118514584D01*
X152789398Y-118498703D01*
X153671184Y-117616918D01*
X153692241Y-117599637D01*
X153720636Y-117565038D01*
X153761221Y-117515584D01*
X153812478Y-117419689D01*
X153844042Y-117315637D01*
X153854700Y-117207426D01*
X153852030Y-117180318D01*
X153852030Y-105565520D01*
X155634607Y-105565520D01*
X155634607Y-105834480D01*
X155687078Y-106098271D01*
X155790004Y-106346756D01*
X155939430Y-106570388D01*
X156129612Y-106760570D01*
X156353244Y-106909996D01*
X156601729Y-107012922D01*
X156865520Y-107065393D01*
X157134480Y-107065393D01*
X157398271Y-107012922D01*
X157646756Y-106909996D01*
X157870388Y-106760570D01*
X158060570Y-106570388D01*
X158209996Y-106346756D01*
X158312922Y-106098271D01*
X158365393Y-105834480D01*
X158365393Y-105565520D01*
X158312922Y-105301729D01*
X158209996Y-105053244D01*
X158060570Y-104829612D01*
X157870388Y-104639430D01*
X157646756Y-104490004D01*
X157398271Y-104387078D01*
X157134480Y-104334607D01*
X156865520Y-104334607D01*
X156601729Y-104387078D01*
X156353244Y-104490004D01*
X156129612Y-104639430D01*
X155939430Y-104829612D01*
X155790004Y-105053244D01*
X155687078Y-105301729D01*
X155634607Y-105565520D01*
X153852030Y-105565520D01*
X153852030Y-103909024D01*
X153955820Y-103964502D01*
X154075518Y-104000812D01*
X154200000Y-104013072D01*
X154626750Y-104010000D01*
X154785500Y-103851250D01*
X154785500Y-102627000D01*
X155039500Y-102627000D01*
X155039500Y-103851250D01*
X155198250Y-104010000D01*
X155625000Y-104013072D01*
X155749482Y-104000812D01*
X155869180Y-103964502D01*
X155979494Y-103905537D01*
X156076185Y-103826185D01*
X156155537Y-103729494D01*
X156214502Y-103619180D01*
X156250812Y-103499482D01*
X156263072Y-103375000D01*
X156260000Y-102785750D01*
X156101250Y-102627000D01*
X155039500Y-102627000D01*
X154785500Y-102627000D01*
X154765500Y-102627000D01*
X154765500Y-102373000D01*
X154785500Y-102373000D01*
X154785500Y-102353000D01*
X155039500Y-102353000D01*
X155039500Y-102373000D01*
X156101250Y-102373000D01*
X156260000Y-102214250D01*
X156263072Y-101625000D01*
X156250812Y-101500518D01*
X156214502Y-101380820D01*
X156155537Y-101270506D01*
X156076185Y-101173815D01*
X156058213Y-101159066D01*
X156475000Y-101159066D01*
X156558707Y-101150822D01*
X156639196Y-101126405D01*
X156713376Y-101086755D01*
X156778395Y-101033395D01*
X156831755Y-100968376D01*
X156871405Y-100894196D01*
X156895822Y-100813707D01*
X156904066Y-100730000D01*
X156904066Y-100714935D01*
X156912263Y-100712448D01*
X157008158Y-100661191D01*
X157092211Y-100592211D01*
X157109500Y-100571144D01*
X157295934Y-100384710D01*
X157295934Y-100730000D01*
X157304178Y-100813707D01*
X157328595Y-100894196D01*
X157335501Y-100907116D01*
X157335501Y-101204749D01*
X157292521Y-101208982D01*
X157165133Y-101247625D01*
X157047731Y-101310377D01*
X156944828Y-101394828D01*
X156860377Y-101497731D01*
X156797625Y-101615133D01*
X156758982Y-101742521D01*
X156745934Y-101875000D01*
X156745934Y-103125000D01*
X156758982Y-103257479D01*
X156797625Y-103384867D01*
X156860377Y-103502269D01*
X156944828Y-103605172D01*
X157047731Y-103689623D01*
X157165133Y-103752375D01*
X157292521Y-103791018D01*
X157425000Y-103804066D01*
X158350000Y-103804066D01*
X158482479Y-103791018D01*
X158609867Y-103752375D01*
X158727269Y-103689623D01*
X158830172Y-103605172D01*
X158848001Y-103583448D01*
X158848001Y-105913359D01*
X157337569Y-107817817D01*
X157296191Y-107852048D01*
X157267343Y-107881098D01*
X157238055Y-107909779D01*
X157234033Y-107914642D01*
X156989010Y-108215069D01*
X156966356Y-108249166D01*
X156943194Y-108282993D01*
X156940192Y-108288545D01*
X156891289Y-108380518D01*
X156700496Y-108621083D01*
X156687012Y-108642012D01*
X156677870Y-108665169D01*
X156673000Y-108700000D01*
X156673000Y-108883218D01*
X156612522Y-109083532D01*
X156604558Y-109123752D01*
X156596048Y-109163790D01*
X156595388Y-109170066D01*
X156557557Y-109555892D01*
X156555400Y-109577796D01*
X156555401Y-115822205D01*
X156557132Y-115839780D01*
X156581138Y-116145467D01*
X156587554Y-116181523D01*
X156592762Y-116217748D01*
X156594308Y-116223867D01*
X156673000Y-116526388D01*
X156673000Y-116800000D01*
X156675440Y-116824776D01*
X156682667Y-116848601D01*
X156694403Y-116870557D01*
X156710197Y-116889803D01*
X156968077Y-117147683D01*
X157170088Y-117415947D01*
X157197791Y-117446095D01*
X157225102Y-117476661D01*
X157229776Y-117480902D01*
X157518692Y-117739398D01*
X157551736Y-117763600D01*
X157584451Y-117788269D01*
X157589852Y-117791516D01*
X157589860Y-117791522D01*
X157589868Y-117791526D01*
X157643898Y-117823504D01*
X158772849Y-118952455D01*
X158828160Y-119165090D01*
X158848000Y-119417726D01*
X158848001Y-130377881D01*
X158844032Y-130418364D01*
X156903120Y-132865600D01*
X156811909Y-132893835D01*
X156296560Y-132948000D01*
X143022108Y-132948000D01*
X142806462Y-132926856D01*
X140472651Y-130593045D01*
X140452000Y-130396560D01*
X140452000Y-129227000D01*
X141215000Y-129227000D01*
X141215000Y-130127000D01*
X141268310Y-130414269D01*
X141376639Y-130685618D01*
X141535824Y-130930619D01*
X141739748Y-131139857D01*
X141980574Y-131305291D01*
X142249047Y-131420563D01*
X142343110Y-131441476D01*
X142573000Y-131320155D01*
X142573000Y-129227000D01*
X142827000Y-129227000D01*
X142827000Y-131320155D01*
X143056890Y-131441476D01*
X143150953Y-131420563D01*
X143419426Y-131305291D01*
X143660252Y-131139857D01*
X143864176Y-130930619D01*
X144023361Y-130685618D01*
X144131690Y-130414269D01*
X144185000Y-130127000D01*
X144185000Y-129227000D01*
X142827000Y-129227000D01*
X142573000Y-129227000D01*
X141215000Y-129227000D01*
X140452000Y-129227000D01*
X140452000Y-128073000D01*
X141215000Y-128073000D01*
X141215000Y-128973000D01*
X142573000Y-128973000D01*
X142573000Y-126879845D01*
X142827000Y-126879845D01*
X142827000Y-128973000D01*
X144185000Y-128973000D01*
X144185000Y-128137275D01*
X155423000Y-128137275D01*
X155423000Y-130062726D01*
X155441479Y-130250336D01*
X155514499Y-130491051D01*
X155633077Y-130712896D01*
X155792657Y-130907344D01*
X155987105Y-131066924D01*
X156208950Y-131185502D01*
X156449665Y-131258522D01*
X156700000Y-131283178D01*
X156950336Y-131258522D01*
X157191051Y-131185502D01*
X157412896Y-131066924D01*
X157607344Y-130907344D01*
X157766924Y-130712896D01*
X157885502Y-130491051D01*
X157958522Y-130250336D01*
X157977000Y-130062726D01*
X157977000Y-128137274D01*
X157958522Y-127949664D01*
X157885502Y-127708949D01*
X157766924Y-127487104D01*
X157607344Y-127292656D01*
X157412895Y-127133076D01*
X157191050Y-127014498D01*
X156950335Y-126941478D01*
X156700000Y-126916822D01*
X156449664Y-126941478D01*
X156208949Y-127014498D01*
X155987104Y-127133076D01*
X155792656Y-127292656D01*
X155633076Y-127487105D01*
X155514498Y-127708950D01*
X155441478Y-127949665D01*
X155423000Y-128137275D01*
X144185000Y-128137275D01*
X144185000Y-128073000D01*
X144131690Y-127785731D01*
X144023361Y-127514382D01*
X143864176Y-127269381D01*
X143660252Y-127060143D01*
X143419426Y-126894709D01*
X143150953Y-126779437D01*
X143056890Y-126758524D01*
X142827000Y-126879845D01*
X142573000Y-126879845D01*
X142343110Y-126758524D01*
X142249047Y-126779437D01*
X141980574Y-126894709D01*
X141739748Y-127060143D01*
X141535824Y-127269381D01*
X141376639Y-127514382D01*
X141268310Y-127785731D01*
X141215000Y-128073000D01*
X140452000Y-128073000D01*
X140452000Y-119422109D01*
X140475634Y-119181072D01*
X141714695Y-117787129D01*
X142003809Y-117547952D01*
X142032674Y-117518885D01*
X142061945Y-117490221D01*
X142065962Y-117485364D01*
X142065969Y-117485357D01*
X142065974Y-117485349D01*
X142310991Y-117184931D01*
X142333709Y-117150738D01*
X142356806Y-117117006D01*
X142359808Y-117111455D01*
X142426074Y-116986827D01*
X142694921Y-116684374D01*
X142709558Y-116664235D01*
X142719984Y-116641627D01*
X142725800Y-116617419D01*
X142727000Y-116600000D01*
X142727000Y-116001606D01*
X142742443Y-115844108D01*
X142742443Y-115844105D01*
X142744600Y-115822205D01*
X142744600Y-109577795D01*
X142742864Y-109560169D01*
X142727000Y-109358161D01*
X142727000Y-109000000D01*
X142724560Y-108975224D01*
X142717333Y-108951399D01*
X142700422Y-108922254D01*
X142608903Y-108804042D01*
X142608097Y-108800943D01*
X142593968Y-108762502D01*
X142580370Y-108723846D01*
X142577664Y-108718144D01*
X142409053Y-108369055D01*
X142387741Y-108334113D01*
X142366879Y-108298811D01*
X142363118Y-108293743D01*
X142129913Y-107984053D01*
X142102190Y-107953884D01*
X142074898Y-107923339D01*
X142070224Y-107919098D01*
X141781308Y-107660602D01*
X141748242Y-107636384D01*
X141715549Y-107611731D01*
X141710141Y-107608479D01*
X141710140Y-107608478D01*
X141710137Y-107608476D01*
X141660610Y-107579163D01*
X141367065Y-107200000D01*
X147286928Y-107200000D01*
X147299188Y-107324482D01*
X147335498Y-107444180D01*
X147394463Y-107554494D01*
X147473815Y-107651185D01*
X147570506Y-107730537D01*
X147680820Y-107789502D01*
X147800518Y-107825812D01*
X147925000Y-107838072D01*
X148514250Y-107835000D01*
X148673000Y-107676250D01*
X148673000Y-106614500D01*
X147448750Y-106614500D01*
X147290000Y-106773250D01*
X147286928Y-107200000D01*
X141367065Y-107200000D01*
X140455126Y-106022080D01*
X140452000Y-105982275D01*
X140452000Y-105565520D01*
X141034607Y-105565520D01*
X141034607Y-105834480D01*
X141087078Y-106098271D01*
X141190004Y-106346756D01*
X141339430Y-106570388D01*
X141529612Y-106760570D01*
X141753244Y-106909996D01*
X142001729Y-107012922D01*
X142265520Y-107065393D01*
X142534480Y-107065393D01*
X142798271Y-107012922D01*
X143046756Y-106909996D01*
X143270388Y-106760570D01*
X143460570Y-106570388D01*
X143609996Y-106346756D01*
X143712922Y-106098271D01*
X143765393Y-105834480D01*
X143765393Y-105775000D01*
X147286928Y-105775000D01*
X147290000Y-106201750D01*
X147448750Y-106360500D01*
X148673000Y-106360500D01*
X148673000Y-105298750D01*
X148927000Y-105298750D01*
X148927000Y-106360500D01*
X151073000Y-106360500D01*
X151073000Y-105298750D01*
X150914250Y-105140000D01*
X150325000Y-105136928D01*
X150200518Y-105149188D01*
X150080820Y-105185498D01*
X150000000Y-105228698D01*
X149919180Y-105185498D01*
X149799482Y-105149188D01*
X149675000Y-105136928D01*
X149085750Y-105140000D01*
X148927000Y-105298750D01*
X148673000Y-105298750D01*
X148514250Y-105140000D01*
X147925000Y-105136928D01*
X147800518Y-105149188D01*
X147680820Y-105185498D01*
X147570506Y-105244463D01*
X147473815Y-105323815D01*
X147394463Y-105420506D01*
X147335498Y-105530820D01*
X147299188Y-105650518D01*
X147286928Y-105775000D01*
X143765393Y-105775000D01*
X143765393Y-105565520D01*
X143712922Y-105301729D01*
X143609996Y-105053244D01*
X143524284Y-104924966D01*
X143673000Y-104776250D01*
X143673000Y-103714500D01*
X143927000Y-103714500D01*
X143927000Y-104776250D01*
X144085750Y-104935000D01*
X144675000Y-104938072D01*
X144799482Y-104925812D01*
X144919180Y-104889502D01*
X145029494Y-104830537D01*
X145126185Y-104751185D01*
X145205537Y-104654494D01*
X145264502Y-104544180D01*
X145300812Y-104424482D01*
X145313072Y-104300000D01*
X145310000Y-103873250D01*
X145151250Y-103714500D01*
X143927000Y-103714500D01*
X143673000Y-103714500D01*
X142448750Y-103714500D01*
X142290000Y-103873250D01*
X142286928Y-104300000D01*
X142290336Y-104334607D01*
X142265520Y-104334607D01*
X142001729Y-104387078D01*
X141753244Y-104490004D01*
X141529612Y-104639430D01*
X141339430Y-104829612D01*
X141190004Y-105053244D01*
X141087078Y-105301729D01*
X141034607Y-105565520D01*
X140452000Y-105565520D01*
X140452000Y-103444148D01*
X140541852Y-103530936D01*
X140716606Y-103643368D01*
X140909936Y-103719547D01*
X141073000Y-103593621D01*
X141073000Y-102827000D01*
X141327000Y-102827000D01*
X141327000Y-103593621D01*
X141490064Y-103719547D01*
X141683394Y-103643368D01*
X141858148Y-103530936D01*
X142007609Y-103386571D01*
X142126034Y-103215822D01*
X142208872Y-103025250D01*
X142219540Y-102990062D01*
X142092257Y-102827000D01*
X141327000Y-102827000D01*
X141073000Y-102827000D01*
X141053000Y-102827000D01*
X141053000Y-102573000D01*
X141073000Y-102573000D01*
X141073000Y-102553000D01*
X141327000Y-102553000D01*
X141327000Y-102573000D01*
X142092257Y-102573000D01*
X142219540Y-102409938D01*
X142208872Y-102374750D01*
X142155515Y-102252000D01*
X142791248Y-102252000D01*
X142680820Y-102285498D01*
X142570506Y-102344463D01*
X142473815Y-102423815D01*
X142394463Y-102520506D01*
X142335498Y-102630820D01*
X142299188Y-102750518D01*
X142286928Y-102875000D01*
X142290000Y-103301750D01*
X142448750Y-103460500D01*
X143673000Y-103460500D01*
X143673000Y-103440500D01*
X143927000Y-103440500D01*
X143927000Y-103460500D01*
X145151250Y-103460500D01*
X145310000Y-103301750D01*
X145313072Y-102875000D01*
X145300812Y-102750518D01*
X145264502Y-102630820D01*
X145205537Y-102520506D01*
X145126185Y-102423815D01*
X145029494Y-102344463D01*
X144919180Y-102285498D01*
X144799482Y-102249188D01*
X144727657Y-102242114D01*
X144825453Y-102212448D01*
X144921348Y-102161191D01*
X145005401Y-102092211D01*
X145022690Y-102071144D01*
X145371164Y-101722672D01*
X145392221Y-101705391D01*
X145461201Y-101621338D01*
X145512458Y-101525443D01*
X145544022Y-101421391D01*
X145552010Y-101340289D01*
X145552010Y-101340287D01*
X145554680Y-101313181D01*
X145552010Y-101286075D01*
X145552010Y-93130883D01*
X145625000Y-93138072D01*
X146214250Y-93135000D01*
X146373000Y-92976250D01*
X146373000Y-91914500D01*
X146353000Y-91914500D01*
X146353000Y-91660500D01*
X146373000Y-91660500D01*
X146373000Y-91640500D01*
X146627000Y-91640500D01*
X146627000Y-91660500D01*
G36*
X152537860Y-123171327D02*
G01*
X152585000Y-123326726D01*
X152585000Y-123377000D01*
X152514066Y-123377000D01*
X152514066Y-123123000D01*
X152533100Y-123123000D01*
X152537860Y-123171327D01*
G37*
X152537860Y-123171327D02*
X152585000Y-123326726D01*
X152585000Y-123377000D01*
X152514066Y-123377000D01*
X152514066Y-123123000D01*
X152533100Y-123123000D01*
X152537860Y-123171327D01*
G36*
X146885934Y-123377000D02*
G01*
X146815000Y-123377000D01*
X146815000Y-123326726D01*
X146862140Y-123171327D01*
X146866900Y-123123000D01*
X146885934Y-123123000D01*
X146885934Y-123377000D01*
G37*
X146885934Y-123377000D02*
X146815000Y-123377000D01*
X146815000Y-123326726D01*
X146862140Y-123171327D01*
X146866900Y-123123000D01*
X146885934Y-123123000D01*
X146885934Y-123377000D01*
G36*
X152585000Y-119673274D02*
G01*
X152537860Y-119828673D01*
X152533100Y-119877000D01*
X152514066Y-119877000D01*
X152514066Y-119623000D01*
X152585000Y-119623000D01*
X152585000Y-119673274D01*
G37*
X152585000Y-119673274D02*
X152537860Y-119828673D01*
X152533100Y-119877000D01*
X152514066Y-119877000D01*
X152514066Y-119623000D01*
X152585000Y-119623000D01*
X152585000Y-119673274D01*
G36*
X146885934Y-119877000D02*
G01*
X146866900Y-119877000D01*
X146862140Y-119828673D01*
X146815000Y-119673274D01*
X146815000Y-119623000D01*
X146885934Y-119623000D01*
X146885934Y-119877000D01*
G37*
X146885934Y-119877000D02*
X146866900Y-119877000D01*
X146862140Y-119828673D01*
X146815000Y-119673274D01*
X146815000Y-119623000D01*
X146885934Y-119623000D01*
X146885934Y-119877000D01*
G36*
X144448010Y-97338111D02*
G01*
X144085750Y-97340000D01*
X143927000Y-97498750D01*
X143927000Y-98560500D01*
X143947000Y-98560500D01*
X143947000Y-98814500D01*
X143927000Y-98814500D01*
X143927000Y-98834500D01*
X143673000Y-98834500D01*
X143673000Y-98814500D01*
X142448750Y-98814500D01*
X142388790Y-98874460D01*
X142381452Y-98873000D01*
X142218548Y-98873000D01*
X142185236Y-98879626D01*
X142208872Y-98825250D01*
X142219540Y-98790062D01*
X142092257Y-98627000D01*
X141327000Y-98627000D01*
X141327000Y-99393621D01*
X141490064Y-99519547D01*
X141492917Y-99518423D01*
X141473000Y-99618548D01*
X141473000Y-99781452D01*
X141485827Y-99845934D01*
X140775000Y-99845934D01*
X140691293Y-99854178D01*
X140610804Y-99878595D01*
X140536624Y-99918245D01*
X140471605Y-99971605D01*
X140452000Y-99995494D01*
X140452000Y-99244148D01*
X140541852Y-99330936D01*
X140716606Y-99443368D01*
X140909936Y-99519547D01*
X141073000Y-99393621D01*
X141073000Y-98627000D01*
X141053000Y-98627000D01*
X141053000Y-98373000D01*
X141073000Y-98373000D01*
X141073000Y-98353000D01*
X141327000Y-98353000D01*
X141327000Y-98373000D01*
X142092257Y-98373000D01*
X142219540Y-98209938D01*
X142208872Y-98174750D01*
X142126034Y-97984178D01*
X142119669Y-97975000D01*
X142286928Y-97975000D01*
X142290000Y-98401750D01*
X142448750Y-98560500D01*
X143673000Y-98560500D01*
X143673000Y-97498750D01*
X143514250Y-97340000D01*
X142925000Y-97336928D01*
X142800518Y-97349188D01*
X142680820Y-97385498D01*
X142570506Y-97444463D01*
X142473815Y-97523815D01*
X142394463Y-97620506D01*
X142335498Y-97730820D01*
X142299188Y-97850518D01*
X142286928Y-97975000D01*
X142119669Y-97975000D01*
X142007609Y-97813429D01*
X141996726Y-97802917D01*
X142019258Y-97748519D01*
X142052000Y-97583915D01*
X142052000Y-97416085D01*
X142019258Y-97251481D01*
X141988407Y-97177000D01*
X142979255Y-97177000D01*
X143012500Y-97180274D01*
X143045745Y-97177000D01*
X143045752Y-97177000D01*
X143145215Y-97167204D01*
X143272830Y-97128492D01*
X143390441Y-97065628D01*
X143493527Y-96981027D01*
X143514726Y-96955196D01*
X143615856Y-96854066D01*
X144425000Y-96854066D01*
X144448011Y-96851800D01*
X144448010Y-97338111D01*
G37*
X144448010Y-97338111D02*
X144085750Y-97340000D01*
X143927000Y-97498750D01*
X143927000Y-98560500D01*
X143947000Y-98560500D01*
X143947000Y-98814500D01*
X143927000Y-98814500D01*
X143927000Y-98834500D01*
X143673000Y-98834500D01*
X143673000Y-98814500D01*
X142448750Y-98814500D01*
X142388790Y-98874460D01*
X142381452Y-98873000D01*
X142218548Y-98873000D01*
X142185236Y-98879626D01*
X142208872Y-98825250D01*
X142219540Y-98790062D01*
X142092257Y-98627000D01*
X141327000Y-98627000D01*
X141327000Y-99393621D01*
X141490064Y-99519547D01*
X141492917Y-99518423D01*
X141473000Y-99618548D01*
X141473000Y-99781452D01*
X141485827Y-99845934D01*
X140775000Y-99845934D01*
X140691293Y-99854178D01*
X140610804Y-99878595D01*
X140536624Y-99918245D01*
X140471605Y-99971605D01*
X140452000Y-99995494D01*
X140452000Y-99244148D01*
X140541852Y-99330936D01*
X140716606Y-99443368D01*
X140909936Y-99519547D01*
X141073000Y-99393621D01*
X141073000Y-98627000D01*
X141053000Y-98627000D01*
X141053000Y-98373000D01*
X141073000Y-98373000D01*
X141073000Y-98353000D01*
X141327000Y-98353000D01*
X141327000Y-98373000D01*
X142092257Y-98373000D01*
X142219540Y-98209938D01*
X142208872Y-98174750D01*
X142126034Y-97984178D01*
X142119669Y-97975000D01*
X142286928Y-97975000D01*
X142290000Y-98401750D01*
X142448750Y-98560500D01*
X143673000Y-98560500D01*
X143673000Y-97498750D01*
X143514250Y-97340000D01*
X142925000Y-97336928D01*
X142800518Y-97349188D01*
X142680820Y-97385498D01*
X142570506Y-97444463D01*
X142473815Y-97523815D01*
X142394463Y-97620506D01*
X142335498Y-97730820D01*
X142299188Y-97850518D01*
X142286928Y-97975000D01*
X142119669Y-97975000D01*
X142007609Y-97813429D01*
X141996726Y-97802917D01*
X142019258Y-97748519D01*
X142052000Y-97583915D01*
X142052000Y-97416085D01*
X142019258Y-97251481D01*
X141988407Y-97177000D01*
X142979255Y-97177000D01*
X143012500Y-97180274D01*
X143045745Y-97177000D01*
X143045752Y-97177000D01*
X143145215Y-97167204D01*
X143272830Y-97128492D01*
X143390441Y-97065628D01*
X143493527Y-96981027D01*
X143514726Y-96955196D01*
X143615856Y-96854066D01*
X144425000Y-96854066D01*
X144448011Y-96851800D01*
X144448010Y-97338111D01*
G36*
X154027000Y-96985500D02*
G01*
X154047000Y-96985500D01*
X154047000Y-97239500D01*
X154027000Y-97239500D01*
X154027000Y-98301250D01*
X154185750Y-98460000D01*
X154775000Y-98463072D01*
X154899482Y-98450812D01*
X155019180Y-98414502D01*
X155129494Y-98355537D01*
X155226185Y-98276185D01*
X155305537Y-98179494D01*
X155364502Y-98069180D01*
X155395934Y-97965563D01*
X155395934Y-98530000D01*
X155404178Y-98613707D01*
X155428595Y-98694196D01*
X155468245Y-98768376D01*
X155521605Y-98833395D01*
X155586624Y-98886755D01*
X155660804Y-98926405D01*
X155741293Y-98950822D01*
X155825000Y-98959066D01*
X156305662Y-98959066D01*
X156323815Y-98981185D01*
X156420506Y-99060537D01*
X156530820Y-99119502D01*
X156650518Y-99155812D01*
X156775000Y-99168072D01*
X156814250Y-99165000D01*
X156972998Y-99006252D01*
X156972998Y-99146358D01*
X156764310Y-99355046D01*
X156713376Y-99313245D01*
X156639196Y-99273595D01*
X156558707Y-99249178D01*
X156475000Y-99240934D01*
X155825000Y-99240934D01*
X155741293Y-99249178D01*
X155660804Y-99273595D01*
X155586624Y-99313245D01*
X155521605Y-99366605D01*
X155468245Y-99431624D01*
X155428595Y-99505804D01*
X155404178Y-99586293D01*
X155398101Y-99648000D01*
X155204066Y-99648000D01*
X155204066Y-99625000D01*
X155191018Y-99492521D01*
X155152375Y-99365133D01*
X155089623Y-99247731D01*
X155005172Y-99144828D01*
X154902269Y-99060377D01*
X154784867Y-98997625D01*
X154657479Y-98958982D01*
X154525000Y-98945934D01*
X153693268Y-98945934D01*
X153695218Y-98941227D01*
X153727000Y-98781452D01*
X153727000Y-98618548D01*
X153695218Y-98458773D01*
X153671862Y-98402388D01*
X153773000Y-98301250D01*
X153773000Y-97239500D01*
X153753000Y-97239500D01*
X153753000Y-96985500D01*
X153773000Y-96985500D01*
X153773000Y-96965500D01*
X154027000Y-96965500D01*
X154027000Y-96985500D01*
G37*
X154027000Y-96985500D02*
X154047000Y-96985500D01*
X154047000Y-97239500D01*
X154027000Y-97239500D01*
X154027000Y-98301250D01*
X154185750Y-98460000D01*
X154775000Y-98463072D01*
X154899482Y-98450812D01*
X155019180Y-98414502D01*
X155129494Y-98355537D01*
X155226185Y-98276185D01*
X155305537Y-98179494D01*
X155364502Y-98069180D01*
X155395934Y-97965563D01*
X155395934Y-98530000D01*
X155404178Y-98613707D01*
X155428595Y-98694196D01*
X155468245Y-98768376D01*
X155521605Y-98833395D01*
X155586624Y-98886755D01*
X155660804Y-98926405D01*
X155741293Y-98950822D01*
X155825000Y-98959066D01*
X156305662Y-98959066D01*
X156323815Y-98981185D01*
X156420506Y-99060537D01*
X156530820Y-99119502D01*
X156650518Y-99155812D01*
X156775000Y-99168072D01*
X156814250Y-99165000D01*
X156972998Y-99006252D01*
X156972998Y-99146358D01*
X156764310Y-99355046D01*
X156713376Y-99313245D01*
X156639196Y-99273595D01*
X156558707Y-99249178D01*
X156475000Y-99240934D01*
X155825000Y-99240934D01*
X155741293Y-99249178D01*
X155660804Y-99273595D01*
X155586624Y-99313245D01*
X155521605Y-99366605D01*
X155468245Y-99431624D01*
X155428595Y-99505804D01*
X155404178Y-99586293D01*
X155398101Y-99648000D01*
X155204066Y-99648000D01*
X155204066Y-99625000D01*
X155191018Y-99492521D01*
X155152375Y-99365133D01*
X155089623Y-99247731D01*
X155005172Y-99144828D01*
X154902269Y-99060377D01*
X154784867Y-98997625D01*
X154657479Y-98958982D01*
X154525000Y-98945934D01*
X153693268Y-98945934D01*
X153695218Y-98941227D01*
X153727000Y-98781452D01*
X153727000Y-98618548D01*
X153695218Y-98458773D01*
X153671862Y-98402388D01*
X153773000Y-98301250D01*
X153773000Y-97239500D01*
X153753000Y-97239500D01*
X153753000Y-96985500D01*
X153773000Y-96985500D01*
X153773000Y-96965500D01*
X154027000Y-96965500D01*
X154027000Y-96985500D01*
G36*
X157227000Y-97873000D02*
G01*
X157247000Y-97873000D01*
X157247000Y-98127000D01*
X157227000Y-98127000D01*
X157227000Y-98147000D01*
X156973000Y-98147000D01*
X156973000Y-98127000D01*
X156953000Y-98127000D01*
X156953000Y-97873000D01*
X156973000Y-97873000D01*
X156973000Y-97853000D01*
X157227000Y-97853000D01*
X157227000Y-97873000D01*
G37*
X157227000Y-97873000D02*
X157247000Y-97873000D01*
X157247000Y-98127000D01*
X157227000Y-98127000D01*
X157227000Y-98147000D01*
X156973000Y-98147000D01*
X156973000Y-98127000D01*
X156953000Y-98127000D01*
X156953000Y-97873000D01*
X156973000Y-97873000D01*
X156973000Y-97853000D01*
X157227000Y-97853000D01*
X157227000Y-97873000D01*
G36*
X157361624Y-86226755D02*
G01*
X157435804Y-86266405D01*
X157516293Y-86290822D01*
X157600000Y-86299066D01*
X158800000Y-86299066D01*
X158848000Y-86294339D01*
X158848000Y-86588906D01*
X158799482Y-86574188D01*
X158675000Y-86561928D01*
X158085750Y-86565000D01*
X157927000Y-86723750D01*
X157927000Y-87785500D01*
X157947000Y-87785500D01*
X157947000Y-88039500D01*
X157927000Y-88039500D01*
X157927000Y-89101250D01*
X158085750Y-89260000D01*
X158675000Y-89263072D01*
X158799482Y-89250812D01*
X158848000Y-89236094D01*
X158848001Y-89897908D01*
X158802269Y-89860377D01*
X158684867Y-89797625D01*
X158557479Y-89758982D01*
X158425000Y-89745934D01*
X157175000Y-89745934D01*
X157042521Y-89758982D01*
X156915133Y-89797625D01*
X156797731Y-89860377D01*
X156694828Y-89944828D01*
X156629066Y-90024959D01*
X156629066Y-89675000D01*
X156616018Y-89542521D01*
X156577375Y-89415133D01*
X156514623Y-89297731D01*
X156430172Y-89194828D01*
X156327269Y-89110377D01*
X156209867Y-89047625D01*
X156082479Y-89008982D01*
X155950000Y-88995934D01*
X155025000Y-88995934D01*
X154892521Y-89008982D01*
X154765133Y-89047625D01*
X154647731Y-89110377D01*
X154544828Y-89194828D01*
X154460377Y-89297731D01*
X154397625Y-89415133D01*
X154358982Y-89542521D01*
X154345934Y-89675000D01*
X154345934Y-90903340D01*
X154291731Y-90867123D01*
X154141227Y-90804782D01*
X153981452Y-90773000D01*
X153818548Y-90773000D01*
X153658773Y-90804782D01*
X153654066Y-90806732D01*
X153654066Y-89675000D01*
X153641018Y-89542521D01*
X153636307Y-89526990D01*
X153686765Y-89526990D01*
X153720010Y-89530264D01*
X153753255Y-89526990D01*
X153753262Y-89526990D01*
X153852725Y-89517194D01*
X153980340Y-89478482D01*
X154097951Y-89415618D01*
X154201037Y-89331017D01*
X154222236Y-89305186D01*
X154902422Y-88625000D01*
X156286928Y-88625000D01*
X156299188Y-88749482D01*
X156335498Y-88869180D01*
X156394463Y-88979494D01*
X156473815Y-89076185D01*
X156570506Y-89155537D01*
X156680820Y-89214502D01*
X156800518Y-89250812D01*
X156925000Y-89263072D01*
X157514250Y-89260000D01*
X157673000Y-89101250D01*
X157673000Y-88039500D01*
X156448750Y-88039500D01*
X156290000Y-88198250D01*
X156286928Y-88625000D01*
X154902422Y-88625000D01*
X156287217Y-87240205D01*
X156290000Y-87626750D01*
X156448750Y-87785500D01*
X157673000Y-87785500D01*
X157673000Y-86723750D01*
X157514250Y-86565000D01*
X156965285Y-86562138D01*
X157328144Y-86199279D01*
X157361624Y-86226755D01*
G37*
X157361624Y-86226755D02*
X157435804Y-86266405D01*
X157516293Y-86290822D01*
X157600000Y-86299066D01*
X158800000Y-86299066D01*
X158848000Y-86294339D01*
X158848000Y-86588906D01*
X158799482Y-86574188D01*
X158675000Y-86561928D01*
X158085750Y-86565000D01*
X157927000Y-86723750D01*
X157927000Y-87785500D01*
X157947000Y-87785500D01*
X157947000Y-88039500D01*
X157927000Y-88039500D01*
X157927000Y-89101250D01*
X158085750Y-89260000D01*
X158675000Y-89263072D01*
X158799482Y-89250812D01*
X158848000Y-89236094D01*
X158848001Y-89897908D01*
X158802269Y-89860377D01*
X158684867Y-89797625D01*
X158557479Y-89758982D01*
X158425000Y-89745934D01*
X157175000Y-89745934D01*
X157042521Y-89758982D01*
X156915133Y-89797625D01*
X156797731Y-89860377D01*
X156694828Y-89944828D01*
X156629066Y-90024959D01*
X156629066Y-89675000D01*
X156616018Y-89542521D01*
X156577375Y-89415133D01*
X156514623Y-89297731D01*
X156430172Y-89194828D01*
X156327269Y-89110377D01*
X156209867Y-89047625D01*
X156082479Y-89008982D01*
X155950000Y-88995934D01*
X155025000Y-88995934D01*
X154892521Y-89008982D01*
X154765133Y-89047625D01*
X154647731Y-89110377D01*
X154544828Y-89194828D01*
X154460377Y-89297731D01*
X154397625Y-89415133D01*
X154358982Y-89542521D01*
X154345934Y-89675000D01*
X154345934Y-90903340D01*
X154291731Y-90867123D01*
X154141227Y-90804782D01*
X153981452Y-90773000D01*
X153818548Y-90773000D01*
X153658773Y-90804782D01*
X153654066Y-90806732D01*
X153654066Y-89675000D01*
X153641018Y-89542521D01*
X153636307Y-89526990D01*
X153686765Y-89526990D01*
X153720010Y-89530264D01*
X153753255Y-89526990D01*
X153753262Y-89526990D01*
X153852725Y-89517194D01*
X153980340Y-89478482D01*
X154097951Y-89415618D01*
X154201037Y-89331017D01*
X154222236Y-89305186D01*
X154902422Y-88625000D01*
X156286928Y-88625000D01*
X156299188Y-88749482D01*
X156335498Y-88869180D01*
X156394463Y-88979494D01*
X156473815Y-89076185D01*
X156570506Y-89155537D01*
X156680820Y-89214502D01*
X156800518Y-89250812D01*
X156925000Y-89263072D01*
X157514250Y-89260000D01*
X157673000Y-89101250D01*
X157673000Y-88039500D01*
X156448750Y-88039500D01*
X156290000Y-88198250D01*
X156286928Y-88625000D01*
X154902422Y-88625000D01*
X156287217Y-87240205D01*
X156290000Y-87626750D01*
X156448750Y-87785500D01*
X157673000Y-87785500D01*
X157673000Y-86723750D01*
X157514250Y-86565000D01*
X156965285Y-86562138D01*
X157328144Y-86199279D01*
X157361624Y-86226755D01*
G36*
X149097774Y-78555196D02*
G01*
X149118973Y-78581027D01*
X149222059Y-78665628D01*
X149264577Y-78688354D01*
X149285377Y-78727269D01*
X149369828Y-78830172D01*
X149472731Y-78914623D01*
X149590133Y-78977375D01*
X149717521Y-79016018D01*
X149850000Y-79029066D01*
X151781678Y-79029066D01*
X155912594Y-83159983D01*
X153375914Y-85696664D01*
X153276250Y-85597000D01*
X152327000Y-85597000D01*
X152327000Y-86346250D01*
X152485750Y-86505000D01*
X152566786Y-86505792D01*
X152365358Y-86707220D01*
X152342372Y-86672819D01*
X152227181Y-86557628D01*
X152091731Y-86467123D01*
X151993016Y-86426234D01*
X152073000Y-86346250D01*
X152073000Y-85597000D01*
X152053000Y-85597000D01*
X152053000Y-85343000D01*
X152073000Y-85343000D01*
X152073000Y-84593750D01*
X152327000Y-84593750D01*
X152327000Y-85343000D01*
X153276250Y-85343000D01*
X153435000Y-85184250D01*
X153438072Y-85070000D01*
X153425812Y-84945518D01*
X153389502Y-84825820D01*
X153330537Y-84715506D01*
X153251185Y-84618815D01*
X153154494Y-84539463D01*
X153044180Y-84480498D01*
X152924482Y-84444188D01*
X152800000Y-84431928D01*
X152485750Y-84435000D01*
X152327000Y-84593750D01*
X152073000Y-84593750D01*
X151914250Y-84435000D01*
X151600000Y-84431928D01*
X151475518Y-84444188D01*
X151462510Y-84448134D01*
X152151579Y-83759066D01*
X152800000Y-83759066D01*
X152883707Y-83750822D01*
X152964196Y-83726405D01*
X153038376Y-83686755D01*
X153103395Y-83633395D01*
X153156755Y-83568376D01*
X153196405Y-83494196D01*
X153220822Y-83413707D01*
X153229066Y-83330000D01*
X153229066Y-82530000D01*
X153220822Y-82446293D01*
X153196405Y-82365804D01*
X153156755Y-82291624D01*
X153103395Y-82226605D01*
X153038376Y-82173245D01*
X152964196Y-82133595D01*
X152883707Y-82109178D01*
X152800000Y-82100934D01*
X151600000Y-82100934D01*
X151516293Y-82109178D01*
X151435804Y-82133595D01*
X151361624Y-82173245D01*
X151296605Y-82226605D01*
X151243245Y-82291624D01*
X151203595Y-82365804D01*
X151179178Y-82446293D01*
X151170934Y-82530000D01*
X151170934Y-83178421D01*
X150736356Y-83613000D01*
X150198936Y-83613000D01*
X150230537Y-83574494D01*
X150289502Y-83464180D01*
X150325812Y-83344482D01*
X150338072Y-83220000D01*
X150335000Y-83180750D01*
X150176250Y-83022000D01*
X148977000Y-83022000D01*
X148977000Y-83042000D01*
X148723000Y-83042000D01*
X148723000Y-83022000D01*
X148703000Y-83022000D01*
X148703000Y-82768000D01*
X148723000Y-82768000D01*
X148723000Y-82093750D01*
X148977000Y-82093750D01*
X148977000Y-82768000D01*
X150176250Y-82768000D01*
X150335000Y-82609250D01*
X150338072Y-82570000D01*
X150325812Y-82445518D01*
X150289502Y-82325820D01*
X150230537Y-82215506D01*
X150151185Y-82118815D01*
X150054494Y-82039463D01*
X149944180Y-81980498D01*
X149824482Y-81944188D01*
X149700000Y-81931928D01*
X149135750Y-81935000D01*
X148977000Y-82093750D01*
X148723000Y-82093750D01*
X148621563Y-81992313D01*
X148627001Y-81937106D01*
X148627001Y-81937103D01*
X148629671Y-81909997D01*
X148627001Y-81882891D01*
X148627001Y-78917105D01*
X148629671Y-78889999D01*
X148627001Y-78862890D01*
X148619013Y-78781788D01*
X148587449Y-78677736D01*
X148536192Y-78581841D01*
X148467212Y-78497788D01*
X148446144Y-78480498D01*
X148419502Y-78453856D01*
X148402212Y-78432788D01*
X148318159Y-78363808D01*
X148222264Y-78312551D01*
X148118212Y-78280987D01*
X148037110Y-78272999D01*
X148037107Y-78272999D01*
X148010001Y-78270329D01*
X147982895Y-78272999D01*
X147892607Y-78272999D01*
X148031663Y-78064886D01*
X148127926Y-77832487D01*
X148168929Y-77626351D01*
X149097774Y-78555196D01*
G37*
X149097774Y-78555196D02*
X149118973Y-78581027D01*
X149222059Y-78665628D01*
X149264577Y-78688354D01*
X149285377Y-78727269D01*
X149369828Y-78830172D01*
X149472731Y-78914623D01*
X149590133Y-78977375D01*
X149717521Y-79016018D01*
X149850000Y-79029066D01*
X151781678Y-79029066D01*
X155912594Y-83159983D01*
X153375914Y-85696664D01*
X153276250Y-85597000D01*
X152327000Y-85597000D01*
X152327000Y-86346250D01*
X152485750Y-86505000D01*
X152566786Y-86505792D01*
X152365358Y-86707220D01*
X152342372Y-86672819D01*
X152227181Y-86557628D01*
X152091731Y-86467123D01*
X151993016Y-86426234D01*
X152073000Y-86346250D01*
X152073000Y-85597000D01*
X152053000Y-85597000D01*
X152053000Y-85343000D01*
X152073000Y-85343000D01*
X152073000Y-84593750D01*
X152327000Y-84593750D01*
X152327000Y-85343000D01*
X153276250Y-85343000D01*
X153435000Y-85184250D01*
X153438072Y-85070000D01*
X153425812Y-84945518D01*
X153389502Y-84825820D01*
X153330537Y-84715506D01*
X153251185Y-84618815D01*
X153154494Y-84539463D01*
X153044180Y-84480498D01*
X152924482Y-84444188D01*
X152800000Y-84431928D01*
X152485750Y-84435000D01*
X152327000Y-84593750D01*
X152073000Y-84593750D01*
X151914250Y-84435000D01*
X151600000Y-84431928D01*
X151475518Y-84444188D01*
X151462510Y-84448134D01*
X152151579Y-83759066D01*
X152800000Y-83759066D01*
X152883707Y-83750822D01*
X152964196Y-83726405D01*
X153038376Y-83686755D01*
X153103395Y-83633395D01*
X153156755Y-83568376D01*
X153196405Y-83494196D01*
X153220822Y-83413707D01*
X153229066Y-83330000D01*
X153229066Y-82530000D01*
X153220822Y-82446293D01*
X153196405Y-82365804D01*
X153156755Y-82291624D01*
X153103395Y-82226605D01*
X153038376Y-82173245D01*
X152964196Y-82133595D01*
X152883707Y-82109178D01*
X152800000Y-82100934D01*
X151600000Y-82100934D01*
X151516293Y-82109178D01*
X151435804Y-82133595D01*
X151361624Y-82173245D01*
X151296605Y-82226605D01*
X151243245Y-82291624D01*
X151203595Y-82365804D01*
X151179178Y-82446293D01*
X151170934Y-82530000D01*
X151170934Y-83178421D01*
X150736356Y-83613000D01*
X150198936Y-83613000D01*
X150230537Y-83574494D01*
X150289502Y-83464180D01*
X150325812Y-83344482D01*
X150338072Y-83220000D01*
X150335000Y-83180750D01*
X150176250Y-83022000D01*
X148977000Y-83022000D01*
X148977000Y-83042000D01*
X148723000Y-83042000D01*
X148723000Y-83022000D01*
X148703000Y-83022000D01*
X148703000Y-82768000D01*
X148723000Y-82768000D01*
X148723000Y-82093750D01*
X148977000Y-82093750D01*
X148977000Y-82768000D01*
X150176250Y-82768000D01*
X150335000Y-82609250D01*
X150338072Y-82570000D01*
X150325812Y-82445518D01*
X150289502Y-82325820D01*
X150230537Y-82215506D01*
X150151185Y-82118815D01*
X150054494Y-82039463D01*
X149944180Y-81980498D01*
X149824482Y-81944188D01*
X149700000Y-81931928D01*
X149135750Y-81935000D01*
X148977000Y-82093750D01*
X148723000Y-82093750D01*
X148621563Y-81992313D01*
X148627001Y-81937106D01*
X148627001Y-81937103D01*
X148629671Y-81909997D01*
X148627001Y-81882891D01*
X148627001Y-78917105D01*
X148629671Y-78889999D01*
X148627001Y-78862890D01*
X148619013Y-78781788D01*
X148587449Y-78677736D01*
X148536192Y-78581841D01*
X148467212Y-78497788D01*
X148446144Y-78480498D01*
X148419502Y-78453856D01*
X148402212Y-78432788D01*
X148318159Y-78363808D01*
X148222264Y-78312551D01*
X148118212Y-78280987D01*
X148037110Y-78272999D01*
X148037107Y-78272999D01*
X148010001Y-78270329D01*
X147982895Y-78272999D01*
X147892607Y-78272999D01*
X148031663Y-78064886D01*
X148127926Y-77832487D01*
X148168929Y-77626351D01*
X149097774Y-78555196D01*
G36*
X155022625Y-72990133D02*
G01*
X154983982Y-73117521D01*
X154970934Y-73250000D01*
X154970934Y-74250000D01*
X154983982Y-74382479D01*
X155022625Y-74509867D01*
X155085377Y-74627269D01*
X155169828Y-74730172D01*
X155272731Y-74814623D01*
X155390133Y-74877375D01*
X155517521Y-74916018D01*
X155650000Y-74929066D01*
X158550000Y-74929066D01*
X158682479Y-74916018D01*
X158809867Y-74877375D01*
X158848000Y-74856993D01*
X158848000Y-79343007D01*
X158809867Y-79322625D01*
X158682479Y-79283982D01*
X158550000Y-79270934D01*
X155650000Y-79270934D01*
X155517521Y-79283982D01*
X155390133Y-79322625D01*
X155272731Y-79385377D01*
X155169828Y-79469828D01*
X155085377Y-79572731D01*
X155022625Y-79690133D01*
X154983982Y-79817521D01*
X154970934Y-79950000D01*
X154970934Y-80303477D01*
X153405654Y-78738198D01*
X153414623Y-78727269D01*
X153477375Y-78609867D01*
X153516018Y-78482479D01*
X153529066Y-78350000D01*
X153529066Y-77850000D01*
X153516018Y-77717521D01*
X153477375Y-77590133D01*
X153414623Y-77472731D01*
X153330172Y-77369828D01*
X153227269Y-77285377D01*
X153132735Y-77234848D01*
X153224482Y-77225812D01*
X153344180Y-77189502D01*
X153454494Y-77130537D01*
X153551185Y-77051185D01*
X153630537Y-76954494D01*
X153689502Y-76844180D01*
X153725812Y-76724482D01*
X153738072Y-76600000D01*
X153735000Y-76385750D01*
X153576250Y-76227000D01*
X151477000Y-76227000D01*
X151477000Y-76247000D01*
X151223000Y-76247000D01*
X151223000Y-76227000D01*
X149123750Y-76227000D01*
X148965000Y-76385750D01*
X148963278Y-76505856D01*
X148764500Y-76307078D01*
X148764500Y-75600000D01*
X148961928Y-75600000D01*
X148965000Y-75814250D01*
X149123750Y-75973000D01*
X151223000Y-75973000D01*
X151223000Y-75123750D01*
X151477000Y-75123750D01*
X151477000Y-75973000D01*
X153576250Y-75973000D01*
X153735000Y-75814250D01*
X153738072Y-75600000D01*
X153725812Y-75475518D01*
X153689502Y-75355820D01*
X153630537Y-75245506D01*
X153551185Y-75148815D01*
X153454494Y-75069463D01*
X153344180Y-75010498D01*
X153224482Y-74974188D01*
X153100000Y-74961928D01*
X151635750Y-74965000D01*
X151477000Y-75123750D01*
X151223000Y-75123750D01*
X151064250Y-74965000D01*
X149600000Y-74961928D01*
X149475518Y-74974188D01*
X149355820Y-75010498D01*
X149245506Y-75069463D01*
X149148815Y-75148815D01*
X149069463Y-75245506D01*
X149010498Y-75355820D01*
X148974188Y-75475518D01*
X148961928Y-75600000D01*
X148764500Y-75600000D01*
X148764500Y-75366137D01*
X148809867Y-75352375D01*
X148927269Y-75289623D01*
X149030172Y-75205172D01*
X149114623Y-75102269D01*
X149177375Y-74984867D01*
X149216018Y-74857479D01*
X149229066Y-74725000D01*
X149229066Y-73475000D01*
X149216018Y-73342521D01*
X149177375Y-73215133D01*
X149114623Y-73097731D01*
X149030172Y-72994828D01*
X148977986Y-72952000D01*
X155043007Y-72952000D01*
X155022625Y-72990133D01*
G37*
X155022625Y-72990133D02*
X154983982Y-73117521D01*
X154970934Y-73250000D01*
X154970934Y-74250000D01*
X154983982Y-74382479D01*
X155022625Y-74509867D01*
X155085377Y-74627269D01*
X155169828Y-74730172D01*
X155272731Y-74814623D01*
X155390133Y-74877375D01*
X155517521Y-74916018D01*
X155650000Y-74929066D01*
X158550000Y-74929066D01*
X158682479Y-74916018D01*
X158809867Y-74877375D01*
X158848000Y-74856993D01*
X158848000Y-79343007D01*
X158809867Y-79322625D01*
X158682479Y-79283982D01*
X158550000Y-79270934D01*
X155650000Y-79270934D01*
X155517521Y-79283982D01*
X155390133Y-79322625D01*
X155272731Y-79385377D01*
X155169828Y-79469828D01*
X155085377Y-79572731D01*
X155022625Y-79690133D01*
X154983982Y-79817521D01*
X154970934Y-79950000D01*
X154970934Y-80303477D01*
X153405654Y-78738198D01*
X153414623Y-78727269D01*
X153477375Y-78609867D01*
X153516018Y-78482479D01*
X153529066Y-78350000D01*
X153529066Y-77850000D01*
X153516018Y-77717521D01*
X153477375Y-77590133D01*
X153414623Y-77472731D01*
X153330172Y-77369828D01*
X153227269Y-77285377D01*
X153132735Y-77234848D01*
X153224482Y-77225812D01*
X153344180Y-77189502D01*
X153454494Y-77130537D01*
X153551185Y-77051185D01*
X153630537Y-76954494D01*
X153689502Y-76844180D01*
X153725812Y-76724482D01*
X153738072Y-76600000D01*
X153735000Y-76385750D01*
X153576250Y-76227000D01*
X151477000Y-76227000D01*
X151477000Y-76247000D01*
X151223000Y-76247000D01*
X151223000Y-76227000D01*
X149123750Y-76227000D01*
X148965000Y-76385750D01*
X148963278Y-76505856D01*
X148764500Y-76307078D01*
X148764500Y-75600000D01*
X148961928Y-75600000D01*
X148965000Y-75814250D01*
X149123750Y-75973000D01*
X151223000Y-75973000D01*
X151223000Y-75123750D01*
X151477000Y-75123750D01*
X151477000Y-75973000D01*
X153576250Y-75973000D01*
X153735000Y-75814250D01*
X153738072Y-75600000D01*
X153725812Y-75475518D01*
X153689502Y-75355820D01*
X153630537Y-75245506D01*
X153551185Y-75148815D01*
X153454494Y-75069463D01*
X153344180Y-75010498D01*
X153224482Y-74974188D01*
X153100000Y-74961928D01*
X151635750Y-74965000D01*
X151477000Y-75123750D01*
X151223000Y-75123750D01*
X151064250Y-74965000D01*
X149600000Y-74961928D01*
X149475518Y-74974188D01*
X149355820Y-75010498D01*
X149245506Y-75069463D01*
X149148815Y-75148815D01*
X149069463Y-75245506D01*
X149010498Y-75355820D01*
X148974188Y-75475518D01*
X148961928Y-75600000D01*
X148764500Y-75600000D01*
X148764500Y-75366137D01*
X148809867Y-75352375D01*
X148927269Y-75289623D01*
X149030172Y-75205172D01*
X149114623Y-75102269D01*
X149177375Y-74984867D01*
X149216018Y-74857479D01*
X149229066Y-74725000D01*
X149229066Y-73475000D01*
X149216018Y-73342521D01*
X149177375Y-73215133D01*
X149114623Y-73097731D01*
X149030172Y-72994828D01*
X148977986Y-72952000D01*
X155043007Y-72952000D01*
X155022625Y-72990133D01*
G36*
X143810498Y-72980820D02*
G01*
X143774188Y-73100518D01*
X143761928Y-73225000D01*
X143765000Y-73814250D01*
X143923750Y-73973000D01*
X144985500Y-73973000D01*
X144985500Y-73953000D01*
X145239500Y-73953000D01*
X145239500Y-73973000D01*
X146301250Y-73973000D01*
X146460000Y-73814250D01*
X146463072Y-73225000D01*
X146450812Y-73100518D01*
X146414502Y-72980820D01*
X146399097Y-72952000D01*
X147197014Y-72952000D01*
X147144828Y-72994828D01*
X147060377Y-73097731D01*
X146997625Y-73215133D01*
X146958982Y-73342521D01*
X146945934Y-73475000D01*
X146945934Y-74725000D01*
X146958982Y-74857479D01*
X146997625Y-74984867D01*
X147060377Y-75102269D01*
X147144828Y-75205172D01*
X147247731Y-75289623D01*
X147365133Y-75352375D01*
X147410500Y-75366137D01*
X147410500Y-76289241D01*
X147272487Y-76232074D01*
X147025774Y-76183000D01*
X146774226Y-76183000D01*
X146527513Y-76232074D01*
X146295114Y-76328337D01*
X146085960Y-76468089D01*
X145908089Y-76645960D01*
X145768337Y-76855114D01*
X145672074Y-77087513D01*
X145630000Y-77299034D01*
X145587926Y-77087513D01*
X145491663Y-76855114D01*
X145351911Y-76645960D01*
X145174040Y-76468089D01*
X144964886Y-76328337D01*
X144732487Y-76232074D01*
X144485774Y-76183000D01*
X144234226Y-76183000D01*
X143987513Y-76232074D01*
X143755114Y-76328337D01*
X143545960Y-76468089D01*
X143368089Y-76645960D01*
X143228337Y-76855114D01*
X143198803Y-76926416D01*
X143164157Y-76828748D01*
X143015178Y-76578645D01*
X142820269Y-76362412D01*
X142586920Y-76188359D01*
X142324099Y-76063175D01*
X142280237Y-76049871D01*
X142442800Y-76049871D01*
X142722912Y-75994153D01*
X142986771Y-75884859D01*
X143224239Y-75726188D01*
X143426188Y-75524239D01*
X143584859Y-75286771D01*
X143694153Y-75022912D01*
X143703683Y-74975000D01*
X143761928Y-74975000D01*
X143774188Y-75099482D01*
X143810498Y-75219180D01*
X143869463Y-75329494D01*
X143948815Y-75426185D01*
X144045506Y-75505537D01*
X144155820Y-75564502D01*
X144275518Y-75600812D01*
X144400000Y-75613072D01*
X144826750Y-75610000D01*
X144985500Y-75451250D01*
X144985500Y-74227000D01*
X145239500Y-74227000D01*
X145239500Y-75451250D01*
X145398250Y-75610000D01*
X145825000Y-75613072D01*
X145949482Y-75600812D01*
X146069180Y-75564502D01*
X146179494Y-75505537D01*
X146276185Y-75426185D01*
X146355537Y-75329494D01*
X146414502Y-75219180D01*
X146450812Y-75099482D01*
X146463072Y-74975000D01*
X146460000Y-74385750D01*
X146301250Y-74227000D01*
X145239500Y-74227000D01*
X144985500Y-74227000D01*
X143923750Y-74227000D01*
X143765000Y-74385750D01*
X143761928Y-74975000D01*
X143703683Y-74975000D01*
X143749871Y-74742800D01*
X143749871Y-74457200D01*
X143694153Y-74177088D01*
X143584859Y-73913229D01*
X143426188Y-73675761D01*
X143224239Y-73473812D01*
X142986771Y-73315141D01*
X142722912Y-73205847D01*
X142442800Y-73150129D01*
X142157200Y-73150129D01*
X141877088Y-73205847D01*
X141613229Y-73315141D01*
X141375761Y-73473812D01*
X141173812Y-73675761D01*
X141015141Y-73913229D01*
X140905847Y-74177088D01*
X140850129Y-74457200D01*
X140850129Y-74742800D01*
X140905847Y-75022912D01*
X141015141Y-75286771D01*
X141173812Y-75524239D01*
X141375761Y-75726188D01*
X141613229Y-75884859D01*
X141877088Y-75994153D01*
X142128361Y-76044135D01*
X141947000Y-76139845D01*
X141947000Y-77333000D01*
X141967000Y-77333000D01*
X141967000Y-77587000D01*
X141947000Y-77587000D01*
X141947000Y-77607000D01*
X141693000Y-77607000D01*
X141693000Y-77587000D01*
X141673000Y-77587000D01*
X141673000Y-77333000D01*
X141693000Y-77333000D01*
X141693000Y-76139845D01*
X141463110Y-76018524D01*
X141315901Y-76063175D01*
X141053080Y-76188359D01*
X140819731Y-76362412D01*
X140624822Y-76578645D01*
X140475843Y-76828748D01*
X140452000Y-76895963D01*
X140452000Y-72952000D01*
X143825903Y-72952000D01*
X143810498Y-72980820D01*
G37*
X143810498Y-72980820D02*
X143774188Y-73100518D01*
X143761928Y-73225000D01*
X143765000Y-73814250D01*
X143923750Y-73973000D01*
X144985500Y-73973000D01*
X144985500Y-73953000D01*
X145239500Y-73953000D01*
X145239500Y-73973000D01*
X146301250Y-73973000D01*
X146460000Y-73814250D01*
X146463072Y-73225000D01*
X146450812Y-73100518D01*
X146414502Y-72980820D01*
X146399097Y-72952000D01*
X147197014Y-72952000D01*
X147144828Y-72994828D01*
X147060377Y-73097731D01*
X146997625Y-73215133D01*
X146958982Y-73342521D01*
X146945934Y-73475000D01*
X146945934Y-74725000D01*
X146958982Y-74857479D01*
X146997625Y-74984867D01*
X147060377Y-75102269D01*
X147144828Y-75205172D01*
X147247731Y-75289623D01*
X147365133Y-75352375D01*
X147410500Y-75366137D01*
X147410500Y-76289241D01*
X147272487Y-76232074D01*
X147025774Y-76183000D01*
X146774226Y-76183000D01*
X146527513Y-76232074D01*
X146295114Y-76328337D01*
X146085960Y-76468089D01*
X145908089Y-76645960D01*
X145768337Y-76855114D01*
X145672074Y-77087513D01*
X145630000Y-77299034D01*
X145587926Y-77087513D01*
X145491663Y-76855114D01*
X145351911Y-76645960D01*
X145174040Y-76468089D01*
X144964886Y-76328337D01*
X144732487Y-76232074D01*
X144485774Y-76183000D01*
X144234226Y-76183000D01*
X143987513Y-76232074D01*
X143755114Y-76328337D01*
X143545960Y-76468089D01*
X143368089Y-76645960D01*
X143228337Y-76855114D01*
X143198803Y-76926416D01*
X143164157Y-76828748D01*
X143015178Y-76578645D01*
X142820269Y-76362412D01*
X142586920Y-76188359D01*
X142324099Y-76063175D01*
X142280237Y-76049871D01*
X142442800Y-76049871D01*
X142722912Y-75994153D01*
X142986771Y-75884859D01*
X143224239Y-75726188D01*
X143426188Y-75524239D01*
X143584859Y-75286771D01*
X143694153Y-75022912D01*
X143703683Y-74975000D01*
X143761928Y-74975000D01*
X143774188Y-75099482D01*
X143810498Y-75219180D01*
X143869463Y-75329494D01*
X143948815Y-75426185D01*
X144045506Y-75505537D01*
X144155820Y-75564502D01*
X144275518Y-75600812D01*
X144400000Y-75613072D01*
X144826750Y-75610000D01*
X144985500Y-75451250D01*
X144985500Y-74227000D01*
X145239500Y-74227000D01*
X145239500Y-75451250D01*
X145398250Y-75610000D01*
X145825000Y-75613072D01*
X145949482Y-75600812D01*
X146069180Y-75564502D01*
X146179494Y-75505537D01*
X146276185Y-75426185D01*
X146355537Y-75329494D01*
X146414502Y-75219180D01*
X146450812Y-75099482D01*
X146463072Y-74975000D01*
X146460000Y-74385750D01*
X146301250Y-74227000D01*
X145239500Y-74227000D01*
X144985500Y-74227000D01*
X143923750Y-74227000D01*
X143765000Y-74385750D01*
X143761928Y-74975000D01*
X143703683Y-74975000D01*
X143749871Y-74742800D01*
X143749871Y-74457200D01*
X143694153Y-74177088D01*
X143584859Y-73913229D01*
X143426188Y-73675761D01*
X143224239Y-73473812D01*
X142986771Y-73315141D01*
X142722912Y-73205847D01*
X142442800Y-73150129D01*
X142157200Y-73150129D01*
X141877088Y-73205847D01*
X141613229Y-73315141D01*
X141375761Y-73473812D01*
X141173812Y-73675761D01*
X141015141Y-73913229D01*
X140905847Y-74177088D01*
X140850129Y-74457200D01*
X140850129Y-74742800D01*
X140905847Y-75022912D01*
X141015141Y-75286771D01*
X141173812Y-75524239D01*
X141375761Y-75726188D01*
X141613229Y-75884859D01*
X141877088Y-75994153D01*
X142128361Y-76044135D01*
X141947000Y-76139845D01*
X141947000Y-77333000D01*
X141967000Y-77333000D01*
X141967000Y-77587000D01*
X141947000Y-77587000D01*
X141947000Y-77607000D01*
X141693000Y-77607000D01*
X141693000Y-77587000D01*
X141673000Y-77587000D01*
X141673000Y-77333000D01*
X141693000Y-77333000D01*
X141693000Y-76139845D01*
X141463110Y-76018524D01*
X141315901Y-76063175D01*
X141053080Y-76188359D01*
X140819731Y-76362412D01*
X140624822Y-76578645D01*
X140475843Y-76828748D01*
X140452000Y-76895963D01*
X140452000Y-72952000D01*
X143825903Y-72952000D01*
X143810498Y-72980820D01*
%TD*%
M02*
