%TF.GenerationSoftware,KiCad,Pcbnew,(5.1.6)-1*%
%TF.CreationDate,2021-10-03T16:09:20-04:00*%
%TF.ProjectId,horny_dom,686f726e-795f-4646-9f6d-2e6b69636164,rev?*%
%TF.SameCoordinates,Original*%
%TF.FileFunction,Copper,L2,Bot*%
%TF.FilePolarity,Positive*%
%FSLAX46Y46*%
G04 Gerber Fmt 4.6, Leading zero omitted, Abs format (unit mm)*
G04 Created by KiCad (PCBNEW (5.1.6)-1) date 2021-10-03 16:09:20*
%MOMM*%
%LPD*%
G01*
G04 APERTURE LIST*
%TA.AperFunction,ComponentPad*%
%ADD10O,1.700000X1.700000*%
%TD*%
%TA.AperFunction,ComponentPad*%
%ADD11R,1.700000X1.700000*%
%TD*%
%TA.AperFunction,ComponentPad*%
%ADD12O,1.700000X3.500000*%
%TD*%
%TA.AperFunction,ComponentPad*%
%ADD13O,0.850000X0.850000*%
%TD*%
%TA.AperFunction,ComponentPad*%
%ADD14R,0.850000X0.850000*%
%TD*%
%TA.AperFunction,ComponentPad*%
%ADD15O,1.700000X1.200000*%
%TD*%
%TA.AperFunction,ViaPad*%
%ADD16C,0.800000*%
%TD*%
%TA.AperFunction,Conductor*%
%ADD17C,0.500000*%
%TD*%
%TA.AperFunction,Conductor*%
%ADD18C,0.250000*%
%TD*%
%TA.AperFunction,Conductor*%
%ADD19C,0.254000*%
%TD*%
G04 APERTURE END LIST*
D10*
%TO.P,Batt,6*%
%TO.N,GND*%
X141820000Y-77460000D03*
%TO.P,Batt,5*%
%TO.N,ISP_RST*%
X141820000Y-80000000D03*
%TO.P,Batt,4*%
%TO.N,LED_DAT_L_ISC_MOSI*%
X144360000Y-77460000D03*
%TO.P,Batt,3*%
%TO.N,FUTURE_USE_ISP_SCK*%
X144360000Y-80000000D03*
%TO.P,Batt,2*%
%TO.N,USBv+*%
X146900000Y-77460000D03*
D11*
%TO.P,Batt,1*%
%TO.N,LED_DAT_R_ISC_MISO*%
X146900000Y-80000000D03*
%TD*%
D12*
%TO.P,SW1,1*%
%TO.N,GND*%
X142700000Y-129100000D03*
%TO.P,SW1,2*%
%TO.N,MODE_BTN*%
X156700000Y-129100000D03*
%TD*%
D13*
%TO.P,LED,3*%
%TO.N,GND*%
X141200000Y-102700000D03*
%TO.P,LED,2*%
%TO.N,LED_DAT_R_CLEAN*%
X141200000Y-101700000D03*
D14*
%TO.P,LED,1*%
%TO.N,LEDv+*%
X141200000Y-100700000D03*
%TD*%
D13*
%TO.P,LED,3*%
%TO.N,GND*%
X141200000Y-98500000D03*
%TO.P,LED,2*%
%TO.N,LED_DAT_L_CLEAN*%
X141200000Y-97500000D03*
D14*
%TO.P,LED,1*%
%TO.N,LEDv+*%
X141200000Y-96500000D03*
%TD*%
D15*
%TO.P,J1,S1*%
%TO.N,Net-(J1-PadS1)*%
X153800000Y-122970000D03*
X153800000Y-120030000D03*
X145600000Y-122970000D03*
X145600000Y-120030000D03*
%TD*%
D16*
%TO.N,GND*%
X150600000Y-83400000D03*
X154500000Y-79100000D03*
X157800000Y-89500000D03*
X154300000Y-98700000D03*
X143800000Y-97200000D03*
X149700000Y-74000000D03*
%TO.N,USBv+*%
X156100000Y-94700000D03*
%TO.N,LEDv+*%
X142300000Y-99700000D03*
X142300000Y-95500000D03*
X148200000Y-89635034D03*
%TO.N,USBDDAT-*%
X148700000Y-121500000D03*
X150700000Y-121500000D03*
%TO.N,FUTURE_USE_ISP_SCK*%
X143100000Y-85500000D03*
X150200000Y-108100000D03*
%TO.N,CHG_STAT*%
X153900000Y-91600000D03*
X156100000Y-95800000D03*
%TO.N,MODE_BTN*%
X150500000Y-85800000D03*
X153100000Y-95700000D03*
%TO.N,SSR_LED_EN*%
X152900000Y-98700000D03*
X151700000Y-87200000D03*
%TD*%
D17*
%TO.N,GND*%
X141820000Y-77460000D02*
X140800000Y-78480000D01*
%TO.N,USBv+*%
X146900000Y-77460000D02*
X156100000Y-86660000D01*
X156100000Y-86660000D02*
X156100000Y-94700000D01*
X156100000Y-94700000D02*
X156100000Y-94700000D01*
%TO.N,LEDv+*%
X142300000Y-99700000D02*
X142300000Y-95500000D01*
X142865685Y-95500000D02*
X148200000Y-90165685D01*
X148200000Y-90165685D02*
X148200000Y-89635034D01*
X142300000Y-95500000D02*
X142865685Y-95500000D01*
D18*
%TO.N,USBDDAT-*%
X150700000Y-121500000D02*
X148700000Y-121500000D01*
%TO.N,FUTURE_USE_ISP_SCK*%
X150200000Y-87409412D02*
X150049990Y-87259402D01*
X150049990Y-87259402D02*
X150049990Y-87249990D01*
X150200000Y-108100000D02*
X150200000Y-87409412D01*
X144360000Y-80000000D02*
X149500000Y-85140000D01*
X149500000Y-86709412D02*
X150049990Y-87259402D01*
X149500000Y-85140000D02*
X149500000Y-86709412D01*
X143100000Y-85500000D02*
X144300000Y-84300000D01*
X144300000Y-80060000D02*
X144360000Y-80000000D01*
X144300000Y-84300000D02*
X144300000Y-80060000D01*
%TO.N,CHG_STAT*%
X155000000Y-91600000D02*
X153900000Y-91600000D01*
X155374999Y-91974999D02*
X155000000Y-91600000D01*
X156100000Y-95800000D02*
X155374999Y-95074999D01*
X155374999Y-95074999D02*
X155374999Y-91974999D01*
%TO.N,MODE_BTN*%
X153100000Y-97426998D02*
X153100000Y-95700000D01*
X151425001Y-99101997D02*
X153100000Y-97426998D01*
X151322992Y-87895994D02*
X150500000Y-87073002D01*
X151322992Y-93922992D02*
X151322992Y-87895994D01*
X150500000Y-87073002D02*
X150500000Y-85800000D01*
X153100000Y-95700000D02*
X151322992Y-93922992D01*
X156700000Y-119300000D02*
X151425001Y-114025001D01*
X156700000Y-129100000D02*
X156700000Y-119300000D01*
X151425001Y-114025001D02*
X151425001Y-99101997D01*
%TO.N,SSR_LED_EN*%
X153825001Y-95351999D02*
X151773002Y-93300000D01*
X152900000Y-98700000D02*
X153825001Y-97774999D01*
X153825001Y-97774999D02*
X153825001Y-95351999D01*
X151773002Y-87273002D02*
X151700000Y-87200000D01*
X151773002Y-93300000D02*
X151773002Y-87273002D01*
%TD*%
D19*
%TO.N,GND*%
G36*
X158848001Y-105913359D02*
G01*
X157337569Y-107817817D01*
X157296191Y-107852048D01*
X157267343Y-107881098D01*
X157238055Y-107909779D01*
X157234033Y-107914642D01*
X156989010Y-108215069D01*
X156966356Y-108249166D01*
X156943194Y-108282993D01*
X156940192Y-108288545D01*
X156891289Y-108380518D01*
X156700496Y-108621083D01*
X156687012Y-108642012D01*
X156677870Y-108665169D01*
X156673000Y-108700000D01*
X156673000Y-108883218D01*
X156612522Y-109083532D01*
X156604558Y-109123752D01*
X156596048Y-109163790D01*
X156595388Y-109170066D01*
X156557557Y-109555892D01*
X156555400Y-109577796D01*
X156555401Y-115822205D01*
X156557132Y-115839780D01*
X156581138Y-116145467D01*
X156587554Y-116181523D01*
X156592762Y-116217748D01*
X156594308Y-116223867D01*
X156673000Y-116526388D01*
X156673000Y-116800000D01*
X156675440Y-116824776D01*
X156682667Y-116848601D01*
X156694403Y-116870557D01*
X156710197Y-116889803D01*
X156968077Y-117147683D01*
X157170088Y-117415947D01*
X157197791Y-117446095D01*
X157225102Y-117476661D01*
X157229776Y-117480902D01*
X157518692Y-117739398D01*
X157551736Y-117763600D01*
X157584451Y-117788269D01*
X157589852Y-117791516D01*
X157589860Y-117791522D01*
X157589868Y-117791526D01*
X157643898Y-117823504D01*
X158772849Y-118952455D01*
X158828160Y-119165090D01*
X158848000Y-119417726D01*
X158848001Y-130377881D01*
X158844032Y-130418364D01*
X156903120Y-132865600D01*
X156811909Y-132893835D01*
X156296560Y-132948000D01*
X143022108Y-132948000D01*
X142806462Y-132926856D01*
X140472651Y-130593045D01*
X140452000Y-130396560D01*
X140452000Y-129227000D01*
X141215000Y-129227000D01*
X141215000Y-130127000D01*
X141268310Y-130414269D01*
X141376639Y-130685618D01*
X141535824Y-130930619D01*
X141739748Y-131139857D01*
X141980574Y-131305291D01*
X142249047Y-131420563D01*
X142343110Y-131441476D01*
X142573000Y-131320155D01*
X142573000Y-129227000D01*
X142827000Y-129227000D01*
X142827000Y-131320155D01*
X143056890Y-131441476D01*
X143150953Y-131420563D01*
X143419426Y-131305291D01*
X143660252Y-131139857D01*
X143864176Y-130930619D01*
X144023361Y-130685618D01*
X144131690Y-130414269D01*
X144185000Y-130127000D01*
X144185000Y-129227000D01*
X142827000Y-129227000D01*
X142573000Y-129227000D01*
X141215000Y-129227000D01*
X140452000Y-129227000D01*
X140452000Y-128073000D01*
X141215000Y-128073000D01*
X141215000Y-128973000D01*
X142573000Y-128973000D01*
X142573000Y-126879845D01*
X142827000Y-126879845D01*
X142827000Y-128973000D01*
X144185000Y-128973000D01*
X144185000Y-128073000D01*
X144131690Y-127785731D01*
X144023361Y-127514382D01*
X143864176Y-127269381D01*
X143660252Y-127060143D01*
X143419426Y-126894709D01*
X143150953Y-126779437D01*
X143056890Y-126758524D01*
X142827000Y-126879845D01*
X142573000Y-126879845D01*
X142343110Y-126758524D01*
X142249047Y-126779437D01*
X141980574Y-126894709D01*
X141739748Y-127060143D01*
X141535824Y-127269381D01*
X141376639Y-127514382D01*
X141268310Y-127785731D01*
X141215000Y-128073000D01*
X140452000Y-128073000D01*
X140452000Y-122970000D01*
X144318031Y-122970000D01*
X144337860Y-123171327D01*
X144396585Y-123364917D01*
X144491949Y-123543331D01*
X144620288Y-123699712D01*
X144776669Y-123828051D01*
X144955083Y-123923415D01*
X145148673Y-123982140D01*
X145299549Y-123997000D01*
X145900451Y-123997000D01*
X146051327Y-123982140D01*
X146244917Y-123923415D01*
X146423331Y-123828051D01*
X146579712Y-123699712D01*
X146708051Y-123543331D01*
X146803415Y-123364917D01*
X146862140Y-123171327D01*
X146881969Y-122970000D01*
X152518031Y-122970000D01*
X152537860Y-123171327D01*
X152596585Y-123364917D01*
X152691949Y-123543331D01*
X152820288Y-123699712D01*
X152976669Y-123828051D01*
X153155083Y-123923415D01*
X153348673Y-123982140D01*
X153499549Y-123997000D01*
X154100451Y-123997000D01*
X154251327Y-123982140D01*
X154444917Y-123923415D01*
X154623331Y-123828051D01*
X154779712Y-123699712D01*
X154908051Y-123543331D01*
X155003415Y-123364917D01*
X155062140Y-123171327D01*
X155081969Y-122970000D01*
X155062140Y-122768673D01*
X155003415Y-122575083D01*
X154908051Y-122396669D01*
X154779712Y-122240288D01*
X154623331Y-122111949D01*
X154444917Y-122016585D01*
X154251327Y-121957860D01*
X154100451Y-121943000D01*
X153499549Y-121943000D01*
X153348673Y-121957860D01*
X153155083Y-122016585D01*
X152976669Y-122111949D01*
X152820288Y-122240288D01*
X152691949Y-122396669D01*
X152596585Y-122575083D01*
X152537860Y-122768673D01*
X152518031Y-122970000D01*
X146881969Y-122970000D01*
X146862140Y-122768673D01*
X146803415Y-122575083D01*
X146708051Y-122396669D01*
X146579712Y-122240288D01*
X146423331Y-122111949D01*
X146244917Y-122016585D01*
X146051327Y-121957860D01*
X145900451Y-121943000D01*
X145299549Y-121943000D01*
X145148673Y-121957860D01*
X144955083Y-122016585D01*
X144776669Y-122111949D01*
X144620288Y-122240288D01*
X144491949Y-122396669D01*
X144396585Y-122575083D01*
X144337860Y-122768673D01*
X144318031Y-122970000D01*
X140452000Y-122970000D01*
X140452000Y-121418548D01*
X147873000Y-121418548D01*
X147873000Y-121581452D01*
X147904782Y-121741227D01*
X147967123Y-121891731D01*
X148057628Y-122027181D01*
X148172819Y-122142372D01*
X148308269Y-122232877D01*
X148458773Y-122295218D01*
X148618548Y-122327000D01*
X148781452Y-122327000D01*
X148941227Y-122295218D01*
X149091731Y-122232877D01*
X149227181Y-122142372D01*
X149317553Y-122052000D01*
X150082447Y-122052000D01*
X150172819Y-122142372D01*
X150308269Y-122232877D01*
X150458773Y-122295218D01*
X150618548Y-122327000D01*
X150781452Y-122327000D01*
X150941227Y-122295218D01*
X151091731Y-122232877D01*
X151227181Y-122142372D01*
X151342372Y-122027181D01*
X151432877Y-121891731D01*
X151495218Y-121741227D01*
X151527000Y-121581452D01*
X151527000Y-121418548D01*
X151495218Y-121258773D01*
X151432877Y-121108269D01*
X151342372Y-120972819D01*
X151227181Y-120857628D01*
X151091731Y-120767123D01*
X150941227Y-120704782D01*
X150781452Y-120673000D01*
X150618548Y-120673000D01*
X150458773Y-120704782D01*
X150308269Y-120767123D01*
X150172819Y-120857628D01*
X150082447Y-120948000D01*
X149317553Y-120948000D01*
X149227181Y-120857628D01*
X149091731Y-120767123D01*
X148941227Y-120704782D01*
X148781452Y-120673000D01*
X148618548Y-120673000D01*
X148458773Y-120704782D01*
X148308269Y-120767123D01*
X148172819Y-120857628D01*
X148057628Y-120972819D01*
X147967123Y-121108269D01*
X147904782Y-121258773D01*
X147873000Y-121418548D01*
X140452000Y-121418548D01*
X140452000Y-120128397D01*
X143473000Y-120128397D01*
X143473000Y-120271603D01*
X143500938Y-120412058D01*
X143555741Y-120544364D01*
X143635302Y-120663436D01*
X143736564Y-120764698D01*
X143855636Y-120844259D01*
X143987942Y-120899062D01*
X144128397Y-120927000D01*
X144271603Y-120927000D01*
X144412058Y-120899062D01*
X144544364Y-120844259D01*
X144643001Y-120778352D01*
X144776669Y-120888051D01*
X144955083Y-120983415D01*
X145148673Y-121042140D01*
X145299549Y-121057000D01*
X145900451Y-121057000D01*
X146051327Y-121042140D01*
X146244917Y-120983415D01*
X146423331Y-120888051D01*
X146579712Y-120759712D01*
X146708051Y-120603331D01*
X146803415Y-120424917D01*
X146862140Y-120231327D01*
X146881969Y-120030000D01*
X152518031Y-120030000D01*
X152537860Y-120231327D01*
X152596585Y-120424917D01*
X152691949Y-120603331D01*
X152820288Y-120759712D01*
X152976669Y-120888051D01*
X153155083Y-120983415D01*
X153348673Y-121042140D01*
X153499549Y-121057000D01*
X154100451Y-121057000D01*
X154251327Y-121042140D01*
X154444917Y-120983415D01*
X154623331Y-120888051D01*
X154756999Y-120778352D01*
X154855636Y-120844259D01*
X154987942Y-120899062D01*
X155128397Y-120927000D01*
X155271603Y-120927000D01*
X155412058Y-120899062D01*
X155544364Y-120844259D01*
X155663436Y-120764698D01*
X155764698Y-120663436D01*
X155844259Y-120544364D01*
X155899062Y-120412058D01*
X155927000Y-120271603D01*
X155927000Y-120128397D01*
X155899062Y-119987942D01*
X155844259Y-119855636D01*
X155764698Y-119736564D01*
X155663436Y-119635302D01*
X155544364Y-119555741D01*
X155412058Y-119500938D01*
X155271603Y-119473000D01*
X155128397Y-119473000D01*
X154987942Y-119500938D01*
X154941906Y-119520007D01*
X154908051Y-119456669D01*
X154779712Y-119300288D01*
X154623331Y-119171949D01*
X154444917Y-119076585D01*
X154251327Y-119017860D01*
X154100451Y-119003000D01*
X153499549Y-119003000D01*
X153348673Y-119017860D01*
X153155083Y-119076585D01*
X152976669Y-119171949D01*
X152820288Y-119300288D01*
X152691949Y-119456669D01*
X152596585Y-119635083D01*
X152537860Y-119828673D01*
X152518031Y-120030000D01*
X146881969Y-120030000D01*
X146862140Y-119828673D01*
X146803415Y-119635083D01*
X146708051Y-119456669D01*
X146579712Y-119300288D01*
X146423331Y-119171949D01*
X146244917Y-119076585D01*
X146051327Y-119017860D01*
X145900451Y-119003000D01*
X145299549Y-119003000D01*
X145148673Y-119017860D01*
X144955083Y-119076585D01*
X144776669Y-119171949D01*
X144620288Y-119300288D01*
X144491949Y-119456669D01*
X144458094Y-119520007D01*
X144412058Y-119500938D01*
X144271603Y-119473000D01*
X144128397Y-119473000D01*
X143987942Y-119500938D01*
X143855636Y-119555741D01*
X143736564Y-119635302D01*
X143635302Y-119736564D01*
X143555741Y-119855636D01*
X143500938Y-119987942D01*
X143473000Y-120128397D01*
X140452000Y-120128397D01*
X140452000Y-119422109D01*
X140475634Y-119181072D01*
X141714695Y-117787129D01*
X142003809Y-117547952D01*
X142032674Y-117518885D01*
X142061945Y-117490221D01*
X142065962Y-117485364D01*
X142065969Y-117485357D01*
X142065974Y-117485349D01*
X142310991Y-117184931D01*
X142333709Y-117150738D01*
X142356806Y-117117006D01*
X142359808Y-117111455D01*
X142426074Y-116986827D01*
X142694921Y-116684374D01*
X142709558Y-116664235D01*
X142719984Y-116641627D01*
X142725800Y-116617419D01*
X142727000Y-116600000D01*
X142727000Y-116001606D01*
X142742443Y-115844108D01*
X142742443Y-115844105D01*
X142744600Y-115822205D01*
X142744600Y-109577795D01*
X142742864Y-109560169D01*
X142727000Y-109358161D01*
X142727000Y-109000000D01*
X142724560Y-108975224D01*
X142717333Y-108951399D01*
X142700422Y-108922254D01*
X142608903Y-108804042D01*
X142608097Y-108800943D01*
X142593968Y-108762502D01*
X142580370Y-108723846D01*
X142577664Y-108718144D01*
X142409053Y-108369055D01*
X142387741Y-108334113D01*
X142366879Y-108298811D01*
X142363118Y-108293743D01*
X142129913Y-107984053D01*
X142102190Y-107953884D01*
X142074898Y-107923339D01*
X142070224Y-107919098D01*
X141781308Y-107660602D01*
X141748242Y-107636384D01*
X141715549Y-107611731D01*
X141710141Y-107608479D01*
X141710140Y-107608478D01*
X141710137Y-107608476D01*
X141660610Y-107579163D01*
X140455126Y-106022080D01*
X140452000Y-105982275D01*
X140452000Y-105565520D01*
X141034607Y-105565520D01*
X141034607Y-105834480D01*
X141087078Y-106098271D01*
X141190004Y-106346756D01*
X141339430Y-106570388D01*
X141529612Y-106760570D01*
X141753244Y-106909996D01*
X142001729Y-107012922D01*
X142265520Y-107065393D01*
X142534480Y-107065393D01*
X142798271Y-107012922D01*
X143046756Y-106909996D01*
X143270388Y-106760570D01*
X143460570Y-106570388D01*
X143609996Y-106346756D01*
X143712922Y-106098271D01*
X143765393Y-105834480D01*
X143765393Y-105565520D01*
X143712922Y-105301729D01*
X143609996Y-105053244D01*
X143460570Y-104829612D01*
X143270388Y-104639430D01*
X143046756Y-104490004D01*
X142798271Y-104387078D01*
X142534480Y-104334607D01*
X142265520Y-104334607D01*
X142001729Y-104387078D01*
X141753244Y-104490004D01*
X141529612Y-104639430D01*
X141339430Y-104829612D01*
X141190004Y-105053244D01*
X141087078Y-105301729D01*
X141034607Y-105565520D01*
X140452000Y-105565520D01*
X140452000Y-103444148D01*
X140541852Y-103530936D01*
X140716606Y-103643368D01*
X140909936Y-103719547D01*
X141073000Y-103593621D01*
X141073000Y-102827000D01*
X141327000Y-102827000D01*
X141327000Y-103593621D01*
X141490064Y-103719547D01*
X141683394Y-103643368D01*
X141858148Y-103530936D01*
X142007609Y-103386571D01*
X142126034Y-103215822D01*
X142208872Y-103025250D01*
X142219540Y-102990062D01*
X142092257Y-102827000D01*
X141327000Y-102827000D01*
X141073000Y-102827000D01*
X141053000Y-102827000D01*
X141053000Y-102573000D01*
X141073000Y-102573000D01*
X141073000Y-102553000D01*
X141327000Y-102553000D01*
X141327000Y-102573000D01*
X142092257Y-102573000D01*
X142219540Y-102409938D01*
X142208872Y-102374750D01*
X142126034Y-102184178D01*
X142007609Y-102013429D01*
X141996726Y-102002917D01*
X142019258Y-101948519D01*
X142052000Y-101783915D01*
X142052000Y-101616085D01*
X142019258Y-101451481D01*
X141982323Y-101362313D01*
X142021405Y-101289196D01*
X142045822Y-101208707D01*
X142054066Y-101125000D01*
X142054066Y-100493268D01*
X142058773Y-100495218D01*
X142218548Y-100527000D01*
X142381452Y-100527000D01*
X142541227Y-100495218D01*
X142691731Y-100432877D01*
X142827181Y-100342372D01*
X142942372Y-100227181D01*
X143032877Y-100091731D01*
X143095218Y-99941227D01*
X143127000Y-99781452D01*
X143127000Y-99618548D01*
X143095218Y-99458773D01*
X143032877Y-99308269D01*
X142977000Y-99224643D01*
X142977000Y-96169312D01*
X142998400Y-96167204D01*
X143126015Y-96128492D01*
X143243626Y-96065628D01*
X143346712Y-95981027D01*
X143367911Y-95955196D01*
X148655206Y-90667902D01*
X148681026Y-90646712D01*
X148702218Y-90620890D01*
X148702224Y-90620884D01*
X148765628Y-90543626D01*
X148828492Y-90426015D01*
X148867204Y-90298400D01*
X148880275Y-90165685D01*
X148877000Y-90132433D01*
X148877000Y-90110391D01*
X148932877Y-90026765D01*
X148995218Y-89876261D01*
X149027000Y-89716486D01*
X149027000Y-89553582D01*
X148995218Y-89393807D01*
X148932877Y-89243303D01*
X148842372Y-89107853D01*
X148727181Y-88992662D01*
X148591731Y-88902157D01*
X148441227Y-88839816D01*
X148281452Y-88808034D01*
X148118548Y-88808034D01*
X147958773Y-88839816D01*
X147808269Y-88902157D01*
X147672819Y-88992662D01*
X147557628Y-89107853D01*
X147467123Y-89243303D01*
X147404782Y-89393807D01*
X147373000Y-89553582D01*
X147373000Y-89716486D01*
X147404782Y-89876261D01*
X147442044Y-89966218D01*
X143861635Y-93546628D01*
X143812922Y-93301729D01*
X143709996Y-93053244D01*
X143560570Y-92829612D01*
X143370388Y-92639430D01*
X143146756Y-92490004D01*
X142898271Y-92387078D01*
X142634480Y-92334607D01*
X142365520Y-92334607D01*
X142101729Y-92387078D01*
X141853244Y-92490004D01*
X141629612Y-92639430D01*
X141439430Y-92829612D01*
X141290004Y-93053244D01*
X141187078Y-93301729D01*
X141134607Y-93565520D01*
X141134607Y-93834480D01*
X141187078Y-94098271D01*
X141290004Y-94346756D01*
X141439430Y-94570388D01*
X141629612Y-94760570D01*
X141773844Y-94856943D01*
X141772819Y-94857628D01*
X141657628Y-94972819D01*
X141567123Y-95108269D01*
X141504782Y-95258773D01*
X141473000Y-95418548D01*
X141473000Y-95581452D01*
X141485827Y-95645934D01*
X140775000Y-95645934D01*
X140691293Y-95654178D01*
X140610804Y-95678595D01*
X140536624Y-95718245D01*
X140471605Y-95771605D01*
X140452000Y-95795494D01*
X140452000Y-78024037D01*
X140475843Y-78091252D01*
X140624822Y-78341355D01*
X140819731Y-78557588D01*
X141053080Y-78731641D01*
X141281949Y-78840653D01*
X141215114Y-78868337D01*
X141005960Y-79008089D01*
X140828089Y-79185960D01*
X140688337Y-79395114D01*
X140592074Y-79627513D01*
X140543000Y-79874226D01*
X140543000Y-80125774D01*
X140592074Y-80372487D01*
X140688337Y-80604886D01*
X140828089Y-80814040D01*
X141005960Y-80991911D01*
X141215114Y-81131663D01*
X141447513Y-81227926D01*
X141694226Y-81277000D01*
X141945774Y-81277000D01*
X142192487Y-81227926D01*
X142424886Y-81131663D01*
X142634040Y-80991911D01*
X142811911Y-80814040D01*
X142951663Y-80604886D01*
X143047926Y-80372487D01*
X143090000Y-80160966D01*
X143132074Y-80372487D01*
X143228337Y-80604886D01*
X143368089Y-80814040D01*
X143545960Y-80991911D01*
X143748001Y-81126910D01*
X143748000Y-84071354D01*
X143146355Y-84673000D01*
X143018548Y-84673000D01*
X142858773Y-84704782D01*
X142708269Y-84767123D01*
X142572819Y-84857628D01*
X142457628Y-84972819D01*
X142367123Y-85108269D01*
X142304782Y-85258773D01*
X142273000Y-85418548D01*
X142273000Y-85581452D01*
X142304782Y-85741227D01*
X142367123Y-85891731D01*
X142457628Y-86027181D01*
X142572819Y-86142372D01*
X142708269Y-86232877D01*
X142858773Y-86295218D01*
X143018548Y-86327000D01*
X143181452Y-86327000D01*
X143341227Y-86295218D01*
X143491731Y-86232877D01*
X143627181Y-86142372D01*
X143742372Y-86027181D01*
X143832877Y-85891731D01*
X143895218Y-85741227D01*
X143927000Y-85581452D01*
X143927000Y-85453645D01*
X144671154Y-84709492D01*
X144692211Y-84692211D01*
X144745275Y-84627552D01*
X144761191Y-84608159D01*
X144812447Y-84512264D01*
X144812448Y-84512263D01*
X144844012Y-84408211D01*
X144852000Y-84327109D01*
X144852000Y-84327099D01*
X144854669Y-84300001D01*
X144852000Y-84272903D01*
X144852000Y-81272644D01*
X148948000Y-85368646D01*
X148948001Y-86682296D01*
X148945330Y-86709412D01*
X148955989Y-86817622D01*
X148987552Y-86921674D01*
X149038809Y-87017569D01*
X149038810Y-87017570D01*
X149107790Y-87101623D01*
X149128851Y-87118907D01*
X149640497Y-87630555D01*
X149648001Y-87639698D01*
X149648000Y-107482447D01*
X149557628Y-107572819D01*
X149467123Y-107708269D01*
X149404782Y-107858773D01*
X149373000Y-108018548D01*
X149373000Y-108181452D01*
X149404782Y-108341227D01*
X149467123Y-108491731D01*
X149557628Y-108627181D01*
X149672819Y-108742372D01*
X149808269Y-108832877D01*
X149958773Y-108895218D01*
X150118548Y-108927000D01*
X150281452Y-108927000D01*
X150441227Y-108895218D01*
X150591731Y-108832877D01*
X150727181Y-108742372D01*
X150842372Y-108627181D01*
X150873001Y-108581341D01*
X150873001Y-113997895D01*
X150870331Y-114025001D01*
X150873001Y-114052107D01*
X150873001Y-114052109D01*
X150880989Y-114133211D01*
X150912553Y-114237263D01*
X150963810Y-114333159D01*
X151032790Y-114417212D01*
X151053858Y-114434502D01*
X156148001Y-119528647D01*
X156148000Y-127047076D01*
X155987104Y-127133076D01*
X155792656Y-127292656D01*
X155633076Y-127487105D01*
X155514498Y-127708950D01*
X155441478Y-127949665D01*
X155423000Y-128137275D01*
X155423000Y-130062726D01*
X155441479Y-130250336D01*
X155514499Y-130491051D01*
X155633077Y-130712896D01*
X155792657Y-130907344D01*
X155987105Y-131066924D01*
X156208950Y-131185502D01*
X156449665Y-131258522D01*
X156700000Y-131283178D01*
X156950336Y-131258522D01*
X157191051Y-131185502D01*
X157412896Y-131066924D01*
X157607344Y-130907344D01*
X157766924Y-130712896D01*
X157885502Y-130491051D01*
X157958522Y-130250336D01*
X157977000Y-130062726D01*
X157977000Y-128137274D01*
X157958522Y-127949664D01*
X157885502Y-127708949D01*
X157766924Y-127487104D01*
X157607344Y-127292656D01*
X157412895Y-127133076D01*
X157252000Y-127047076D01*
X157252000Y-119327105D01*
X157254670Y-119299999D01*
X157247965Y-119231926D01*
X157244012Y-119191789D01*
X157212448Y-119087737D01*
X157161191Y-118991842D01*
X157092211Y-118907789D01*
X157071154Y-118890508D01*
X151977001Y-113796357D01*
X151977001Y-105565520D01*
X155634607Y-105565520D01*
X155634607Y-105834480D01*
X155687078Y-106098271D01*
X155790004Y-106346756D01*
X155939430Y-106570388D01*
X156129612Y-106760570D01*
X156353244Y-106909996D01*
X156601729Y-107012922D01*
X156865520Y-107065393D01*
X157134480Y-107065393D01*
X157398271Y-107012922D01*
X157646756Y-106909996D01*
X157870388Y-106760570D01*
X158060570Y-106570388D01*
X158209996Y-106346756D01*
X158312922Y-106098271D01*
X158365393Y-105834480D01*
X158365393Y-105565520D01*
X158312922Y-105301729D01*
X158209996Y-105053244D01*
X158060570Y-104829612D01*
X157870388Y-104639430D01*
X157646756Y-104490004D01*
X157398271Y-104387078D01*
X157134480Y-104334607D01*
X156865520Y-104334607D01*
X156601729Y-104387078D01*
X156353244Y-104490004D01*
X156129612Y-104639430D01*
X155939430Y-104829612D01*
X155790004Y-105053244D01*
X155687078Y-105301729D01*
X155634607Y-105565520D01*
X151977001Y-105565520D01*
X151977001Y-99330641D01*
X152186665Y-99120978D01*
X152257628Y-99227181D01*
X152372819Y-99342372D01*
X152508269Y-99432877D01*
X152658773Y-99495218D01*
X152818548Y-99527000D01*
X152981452Y-99527000D01*
X153141227Y-99495218D01*
X153291731Y-99432877D01*
X153427181Y-99342372D01*
X153542372Y-99227181D01*
X153632877Y-99091731D01*
X153695218Y-98941227D01*
X153727000Y-98781452D01*
X153727000Y-98653644D01*
X154196150Y-98184495D01*
X154217212Y-98167210D01*
X154286192Y-98083157D01*
X154337449Y-97987262D01*
X154369013Y-97883210D01*
X154377001Y-97802108D01*
X154377001Y-97802105D01*
X154379671Y-97774999D01*
X154377001Y-97747893D01*
X154377001Y-95379107D01*
X154379671Y-95351999D01*
X154369013Y-95243788D01*
X154337449Y-95139736D01*
X154286192Y-95043841D01*
X154234493Y-94980845D01*
X154234492Y-94980844D01*
X154217212Y-94959788D01*
X154196155Y-94942507D01*
X152325002Y-93071356D01*
X152325002Y-87744551D01*
X152342372Y-87727181D01*
X152432877Y-87591731D01*
X152495218Y-87441227D01*
X152527000Y-87281452D01*
X152527000Y-87118548D01*
X152495218Y-86958773D01*
X152432877Y-86808269D01*
X152342372Y-86672819D01*
X152227181Y-86557628D01*
X152091731Y-86467123D01*
X151941227Y-86404782D01*
X151781452Y-86373000D01*
X151618548Y-86373000D01*
X151458773Y-86404782D01*
X151308269Y-86467123D01*
X151172819Y-86557628D01*
X151057628Y-86672819D01*
X151052000Y-86681242D01*
X151052000Y-86417553D01*
X151142372Y-86327181D01*
X151232877Y-86191731D01*
X151295218Y-86041227D01*
X151327000Y-85881452D01*
X151327000Y-85718548D01*
X151295218Y-85558773D01*
X151232877Y-85408269D01*
X151142372Y-85272819D01*
X151027181Y-85157628D01*
X150891731Y-85067123D01*
X150741227Y-85004782D01*
X150581452Y-84973000D01*
X150418548Y-84973000D01*
X150258773Y-85004782D01*
X150108269Y-85067123D01*
X150051245Y-85105225D01*
X150044012Y-85031789D01*
X150012448Y-84927737D01*
X149961191Y-84831842D01*
X149909492Y-84768846D01*
X149909491Y-84768845D01*
X149892211Y-84747789D01*
X149871154Y-84730508D01*
X146419711Y-81279066D01*
X147750000Y-81279066D01*
X147833707Y-81270822D01*
X147914196Y-81246405D01*
X147988376Y-81206755D01*
X148053395Y-81153395D01*
X148106755Y-81088376D01*
X148146405Y-81014196D01*
X148170822Y-80933707D01*
X148179066Y-80850000D01*
X148179066Y-79696488D01*
X155423000Y-86940423D01*
X155423001Y-91242356D01*
X155409500Y-91228856D01*
X155392211Y-91207789D01*
X155308158Y-91138809D01*
X155212263Y-91087552D01*
X155108211Y-91055988D01*
X155027109Y-91048000D01*
X155027106Y-91048000D01*
X155000000Y-91045330D01*
X154972894Y-91048000D01*
X154517553Y-91048000D01*
X154427181Y-90957628D01*
X154291731Y-90867123D01*
X154141227Y-90804782D01*
X153981452Y-90773000D01*
X153818548Y-90773000D01*
X153658773Y-90804782D01*
X153508269Y-90867123D01*
X153372819Y-90957628D01*
X153257628Y-91072819D01*
X153167123Y-91208269D01*
X153104782Y-91358773D01*
X153073000Y-91518548D01*
X153073000Y-91681452D01*
X153104782Y-91841227D01*
X153167123Y-91991731D01*
X153257628Y-92127181D01*
X153372819Y-92242372D01*
X153508269Y-92332877D01*
X153658773Y-92395218D01*
X153818548Y-92427000D01*
X153981452Y-92427000D01*
X154141227Y-92395218D01*
X154291731Y-92332877D01*
X154427181Y-92242372D01*
X154517553Y-92152000D01*
X154771355Y-92152000D01*
X154823000Y-92203645D01*
X154822999Y-95047893D01*
X154820329Y-95074999D01*
X154822999Y-95102105D01*
X154822999Y-95102107D01*
X154830987Y-95183209D01*
X154862551Y-95287261D01*
X154913808Y-95383157D01*
X154982788Y-95467210D01*
X155003855Y-95484499D01*
X155273000Y-95753645D01*
X155273000Y-95881452D01*
X155304782Y-96041227D01*
X155367123Y-96191731D01*
X155457628Y-96327181D01*
X155572819Y-96442372D01*
X155708269Y-96532877D01*
X155858773Y-96595218D01*
X156018548Y-96627000D01*
X156181452Y-96627000D01*
X156341227Y-96595218D01*
X156491731Y-96532877D01*
X156627181Y-96442372D01*
X156742372Y-96327181D01*
X156832877Y-96191731D01*
X156895218Y-96041227D01*
X156927000Y-95881452D01*
X156927000Y-95718548D01*
X156895218Y-95558773D01*
X156832877Y-95408269D01*
X156742372Y-95272819D01*
X156719553Y-95250000D01*
X156742372Y-95227181D01*
X156832877Y-95091731D01*
X156895218Y-94941227D01*
X156927000Y-94781452D01*
X156927000Y-94618548D01*
X156895218Y-94458773D01*
X156832877Y-94308269D01*
X156777000Y-94224643D01*
X156777000Y-86693252D01*
X156780275Y-86660000D01*
X156767204Y-86527285D01*
X156728492Y-86399670D01*
X156665628Y-86282059D01*
X156602224Y-86204801D01*
X156602218Y-86204795D01*
X156581026Y-86178973D01*
X156555206Y-86157783D01*
X148144846Y-77747424D01*
X148177000Y-77585774D01*
X148177000Y-77334226D01*
X148127926Y-77087513D01*
X148031663Y-76855114D01*
X147891911Y-76645960D01*
X147714040Y-76468089D01*
X147504886Y-76328337D01*
X147272487Y-76232074D01*
X147025774Y-76183000D01*
X146774226Y-76183000D01*
X146527513Y-76232074D01*
X146295114Y-76328337D01*
X146085960Y-76468089D01*
X145908089Y-76645960D01*
X145768337Y-76855114D01*
X145672074Y-77087513D01*
X145630000Y-77299034D01*
X145587926Y-77087513D01*
X145491663Y-76855114D01*
X145351911Y-76645960D01*
X145174040Y-76468089D01*
X144964886Y-76328337D01*
X144732487Y-76232074D01*
X144485774Y-76183000D01*
X144234226Y-76183000D01*
X143987513Y-76232074D01*
X143755114Y-76328337D01*
X143545960Y-76468089D01*
X143368089Y-76645960D01*
X143228337Y-76855114D01*
X143198803Y-76926416D01*
X143164157Y-76828748D01*
X143015178Y-76578645D01*
X142820269Y-76362412D01*
X142586920Y-76188359D01*
X142324099Y-76063175D01*
X142280237Y-76049871D01*
X142442800Y-76049871D01*
X142722912Y-75994153D01*
X142986771Y-75884859D01*
X143224239Y-75726188D01*
X143426188Y-75524239D01*
X143584859Y-75286771D01*
X143694153Y-75022912D01*
X143749871Y-74742800D01*
X143749871Y-74457200D01*
X143694153Y-74177088D01*
X143584859Y-73913229D01*
X143426188Y-73675761D01*
X143224239Y-73473812D01*
X142986771Y-73315141D01*
X142722912Y-73205847D01*
X142442800Y-73150129D01*
X142157200Y-73150129D01*
X141877088Y-73205847D01*
X141613229Y-73315141D01*
X141375761Y-73473812D01*
X141173812Y-73675761D01*
X141015141Y-73913229D01*
X140905847Y-74177088D01*
X140850129Y-74457200D01*
X140850129Y-74742800D01*
X140905847Y-75022912D01*
X141015141Y-75286771D01*
X141173812Y-75524239D01*
X141375761Y-75726188D01*
X141613229Y-75884859D01*
X141877088Y-75994153D01*
X142128361Y-76044135D01*
X141947000Y-76139845D01*
X141947000Y-77333000D01*
X141967000Y-77333000D01*
X141967000Y-77587000D01*
X141947000Y-77587000D01*
X141947000Y-77607000D01*
X141693000Y-77607000D01*
X141693000Y-77587000D01*
X141673000Y-77587000D01*
X141673000Y-77333000D01*
X141693000Y-77333000D01*
X141693000Y-76139845D01*
X141463110Y-76018524D01*
X141315901Y-76063175D01*
X141053080Y-76188359D01*
X140819731Y-76362412D01*
X140624822Y-76578645D01*
X140475843Y-76828748D01*
X140452000Y-76895963D01*
X140452000Y-72952000D01*
X158848000Y-72952000D01*
X158848001Y-105913359D01*
G37*
X158848001Y-105913359D02*
X157337569Y-107817817D01*
X157296191Y-107852048D01*
X157267343Y-107881098D01*
X157238055Y-107909779D01*
X157234033Y-107914642D01*
X156989010Y-108215069D01*
X156966356Y-108249166D01*
X156943194Y-108282993D01*
X156940192Y-108288545D01*
X156891289Y-108380518D01*
X156700496Y-108621083D01*
X156687012Y-108642012D01*
X156677870Y-108665169D01*
X156673000Y-108700000D01*
X156673000Y-108883218D01*
X156612522Y-109083532D01*
X156604558Y-109123752D01*
X156596048Y-109163790D01*
X156595388Y-109170066D01*
X156557557Y-109555892D01*
X156555400Y-109577796D01*
X156555401Y-115822205D01*
X156557132Y-115839780D01*
X156581138Y-116145467D01*
X156587554Y-116181523D01*
X156592762Y-116217748D01*
X156594308Y-116223867D01*
X156673000Y-116526388D01*
X156673000Y-116800000D01*
X156675440Y-116824776D01*
X156682667Y-116848601D01*
X156694403Y-116870557D01*
X156710197Y-116889803D01*
X156968077Y-117147683D01*
X157170088Y-117415947D01*
X157197791Y-117446095D01*
X157225102Y-117476661D01*
X157229776Y-117480902D01*
X157518692Y-117739398D01*
X157551736Y-117763600D01*
X157584451Y-117788269D01*
X157589852Y-117791516D01*
X157589860Y-117791522D01*
X157589868Y-117791526D01*
X157643898Y-117823504D01*
X158772849Y-118952455D01*
X158828160Y-119165090D01*
X158848000Y-119417726D01*
X158848001Y-130377881D01*
X158844032Y-130418364D01*
X156903120Y-132865600D01*
X156811909Y-132893835D01*
X156296560Y-132948000D01*
X143022108Y-132948000D01*
X142806462Y-132926856D01*
X140472651Y-130593045D01*
X140452000Y-130396560D01*
X140452000Y-129227000D01*
X141215000Y-129227000D01*
X141215000Y-130127000D01*
X141268310Y-130414269D01*
X141376639Y-130685618D01*
X141535824Y-130930619D01*
X141739748Y-131139857D01*
X141980574Y-131305291D01*
X142249047Y-131420563D01*
X142343110Y-131441476D01*
X142573000Y-131320155D01*
X142573000Y-129227000D01*
X142827000Y-129227000D01*
X142827000Y-131320155D01*
X143056890Y-131441476D01*
X143150953Y-131420563D01*
X143419426Y-131305291D01*
X143660252Y-131139857D01*
X143864176Y-130930619D01*
X144023361Y-130685618D01*
X144131690Y-130414269D01*
X144185000Y-130127000D01*
X144185000Y-129227000D01*
X142827000Y-129227000D01*
X142573000Y-129227000D01*
X141215000Y-129227000D01*
X140452000Y-129227000D01*
X140452000Y-128073000D01*
X141215000Y-128073000D01*
X141215000Y-128973000D01*
X142573000Y-128973000D01*
X142573000Y-126879845D01*
X142827000Y-126879845D01*
X142827000Y-128973000D01*
X144185000Y-128973000D01*
X144185000Y-128073000D01*
X144131690Y-127785731D01*
X144023361Y-127514382D01*
X143864176Y-127269381D01*
X143660252Y-127060143D01*
X143419426Y-126894709D01*
X143150953Y-126779437D01*
X143056890Y-126758524D01*
X142827000Y-126879845D01*
X142573000Y-126879845D01*
X142343110Y-126758524D01*
X142249047Y-126779437D01*
X141980574Y-126894709D01*
X141739748Y-127060143D01*
X141535824Y-127269381D01*
X141376639Y-127514382D01*
X141268310Y-127785731D01*
X141215000Y-128073000D01*
X140452000Y-128073000D01*
X140452000Y-122970000D01*
X144318031Y-122970000D01*
X144337860Y-123171327D01*
X144396585Y-123364917D01*
X144491949Y-123543331D01*
X144620288Y-123699712D01*
X144776669Y-123828051D01*
X144955083Y-123923415D01*
X145148673Y-123982140D01*
X145299549Y-123997000D01*
X145900451Y-123997000D01*
X146051327Y-123982140D01*
X146244917Y-123923415D01*
X146423331Y-123828051D01*
X146579712Y-123699712D01*
X146708051Y-123543331D01*
X146803415Y-123364917D01*
X146862140Y-123171327D01*
X146881969Y-122970000D01*
X152518031Y-122970000D01*
X152537860Y-123171327D01*
X152596585Y-123364917D01*
X152691949Y-123543331D01*
X152820288Y-123699712D01*
X152976669Y-123828051D01*
X153155083Y-123923415D01*
X153348673Y-123982140D01*
X153499549Y-123997000D01*
X154100451Y-123997000D01*
X154251327Y-123982140D01*
X154444917Y-123923415D01*
X154623331Y-123828051D01*
X154779712Y-123699712D01*
X154908051Y-123543331D01*
X155003415Y-123364917D01*
X155062140Y-123171327D01*
X155081969Y-122970000D01*
X155062140Y-122768673D01*
X155003415Y-122575083D01*
X154908051Y-122396669D01*
X154779712Y-122240288D01*
X154623331Y-122111949D01*
X154444917Y-122016585D01*
X154251327Y-121957860D01*
X154100451Y-121943000D01*
X153499549Y-121943000D01*
X153348673Y-121957860D01*
X153155083Y-122016585D01*
X152976669Y-122111949D01*
X152820288Y-122240288D01*
X152691949Y-122396669D01*
X152596585Y-122575083D01*
X152537860Y-122768673D01*
X152518031Y-122970000D01*
X146881969Y-122970000D01*
X146862140Y-122768673D01*
X146803415Y-122575083D01*
X146708051Y-122396669D01*
X146579712Y-122240288D01*
X146423331Y-122111949D01*
X146244917Y-122016585D01*
X146051327Y-121957860D01*
X145900451Y-121943000D01*
X145299549Y-121943000D01*
X145148673Y-121957860D01*
X144955083Y-122016585D01*
X144776669Y-122111949D01*
X144620288Y-122240288D01*
X144491949Y-122396669D01*
X144396585Y-122575083D01*
X144337860Y-122768673D01*
X144318031Y-122970000D01*
X140452000Y-122970000D01*
X140452000Y-121418548D01*
X147873000Y-121418548D01*
X147873000Y-121581452D01*
X147904782Y-121741227D01*
X147967123Y-121891731D01*
X148057628Y-122027181D01*
X148172819Y-122142372D01*
X148308269Y-122232877D01*
X148458773Y-122295218D01*
X148618548Y-122327000D01*
X148781452Y-122327000D01*
X148941227Y-122295218D01*
X149091731Y-122232877D01*
X149227181Y-122142372D01*
X149317553Y-122052000D01*
X150082447Y-122052000D01*
X150172819Y-122142372D01*
X150308269Y-122232877D01*
X150458773Y-122295218D01*
X150618548Y-122327000D01*
X150781452Y-122327000D01*
X150941227Y-122295218D01*
X151091731Y-122232877D01*
X151227181Y-122142372D01*
X151342372Y-122027181D01*
X151432877Y-121891731D01*
X151495218Y-121741227D01*
X151527000Y-121581452D01*
X151527000Y-121418548D01*
X151495218Y-121258773D01*
X151432877Y-121108269D01*
X151342372Y-120972819D01*
X151227181Y-120857628D01*
X151091731Y-120767123D01*
X150941227Y-120704782D01*
X150781452Y-120673000D01*
X150618548Y-120673000D01*
X150458773Y-120704782D01*
X150308269Y-120767123D01*
X150172819Y-120857628D01*
X150082447Y-120948000D01*
X149317553Y-120948000D01*
X149227181Y-120857628D01*
X149091731Y-120767123D01*
X148941227Y-120704782D01*
X148781452Y-120673000D01*
X148618548Y-120673000D01*
X148458773Y-120704782D01*
X148308269Y-120767123D01*
X148172819Y-120857628D01*
X148057628Y-120972819D01*
X147967123Y-121108269D01*
X147904782Y-121258773D01*
X147873000Y-121418548D01*
X140452000Y-121418548D01*
X140452000Y-120128397D01*
X143473000Y-120128397D01*
X143473000Y-120271603D01*
X143500938Y-120412058D01*
X143555741Y-120544364D01*
X143635302Y-120663436D01*
X143736564Y-120764698D01*
X143855636Y-120844259D01*
X143987942Y-120899062D01*
X144128397Y-120927000D01*
X144271603Y-120927000D01*
X144412058Y-120899062D01*
X144544364Y-120844259D01*
X144643001Y-120778352D01*
X144776669Y-120888051D01*
X144955083Y-120983415D01*
X145148673Y-121042140D01*
X145299549Y-121057000D01*
X145900451Y-121057000D01*
X146051327Y-121042140D01*
X146244917Y-120983415D01*
X146423331Y-120888051D01*
X146579712Y-120759712D01*
X146708051Y-120603331D01*
X146803415Y-120424917D01*
X146862140Y-120231327D01*
X146881969Y-120030000D01*
X152518031Y-120030000D01*
X152537860Y-120231327D01*
X152596585Y-120424917D01*
X152691949Y-120603331D01*
X152820288Y-120759712D01*
X152976669Y-120888051D01*
X153155083Y-120983415D01*
X153348673Y-121042140D01*
X153499549Y-121057000D01*
X154100451Y-121057000D01*
X154251327Y-121042140D01*
X154444917Y-120983415D01*
X154623331Y-120888051D01*
X154756999Y-120778352D01*
X154855636Y-120844259D01*
X154987942Y-120899062D01*
X155128397Y-120927000D01*
X155271603Y-120927000D01*
X155412058Y-120899062D01*
X155544364Y-120844259D01*
X155663436Y-120764698D01*
X155764698Y-120663436D01*
X155844259Y-120544364D01*
X155899062Y-120412058D01*
X155927000Y-120271603D01*
X155927000Y-120128397D01*
X155899062Y-119987942D01*
X155844259Y-119855636D01*
X155764698Y-119736564D01*
X155663436Y-119635302D01*
X155544364Y-119555741D01*
X155412058Y-119500938D01*
X155271603Y-119473000D01*
X155128397Y-119473000D01*
X154987942Y-119500938D01*
X154941906Y-119520007D01*
X154908051Y-119456669D01*
X154779712Y-119300288D01*
X154623331Y-119171949D01*
X154444917Y-119076585D01*
X154251327Y-119017860D01*
X154100451Y-119003000D01*
X153499549Y-119003000D01*
X153348673Y-119017860D01*
X153155083Y-119076585D01*
X152976669Y-119171949D01*
X152820288Y-119300288D01*
X152691949Y-119456669D01*
X152596585Y-119635083D01*
X152537860Y-119828673D01*
X152518031Y-120030000D01*
X146881969Y-120030000D01*
X146862140Y-119828673D01*
X146803415Y-119635083D01*
X146708051Y-119456669D01*
X146579712Y-119300288D01*
X146423331Y-119171949D01*
X146244917Y-119076585D01*
X146051327Y-119017860D01*
X145900451Y-119003000D01*
X145299549Y-119003000D01*
X145148673Y-119017860D01*
X144955083Y-119076585D01*
X144776669Y-119171949D01*
X144620288Y-119300288D01*
X144491949Y-119456669D01*
X144458094Y-119520007D01*
X144412058Y-119500938D01*
X144271603Y-119473000D01*
X144128397Y-119473000D01*
X143987942Y-119500938D01*
X143855636Y-119555741D01*
X143736564Y-119635302D01*
X143635302Y-119736564D01*
X143555741Y-119855636D01*
X143500938Y-119987942D01*
X143473000Y-120128397D01*
X140452000Y-120128397D01*
X140452000Y-119422109D01*
X140475634Y-119181072D01*
X141714695Y-117787129D01*
X142003809Y-117547952D01*
X142032674Y-117518885D01*
X142061945Y-117490221D01*
X142065962Y-117485364D01*
X142065969Y-117485357D01*
X142065974Y-117485349D01*
X142310991Y-117184931D01*
X142333709Y-117150738D01*
X142356806Y-117117006D01*
X142359808Y-117111455D01*
X142426074Y-116986827D01*
X142694921Y-116684374D01*
X142709558Y-116664235D01*
X142719984Y-116641627D01*
X142725800Y-116617419D01*
X142727000Y-116600000D01*
X142727000Y-116001606D01*
X142742443Y-115844108D01*
X142742443Y-115844105D01*
X142744600Y-115822205D01*
X142744600Y-109577795D01*
X142742864Y-109560169D01*
X142727000Y-109358161D01*
X142727000Y-109000000D01*
X142724560Y-108975224D01*
X142717333Y-108951399D01*
X142700422Y-108922254D01*
X142608903Y-108804042D01*
X142608097Y-108800943D01*
X142593968Y-108762502D01*
X142580370Y-108723846D01*
X142577664Y-108718144D01*
X142409053Y-108369055D01*
X142387741Y-108334113D01*
X142366879Y-108298811D01*
X142363118Y-108293743D01*
X142129913Y-107984053D01*
X142102190Y-107953884D01*
X142074898Y-107923339D01*
X142070224Y-107919098D01*
X141781308Y-107660602D01*
X141748242Y-107636384D01*
X141715549Y-107611731D01*
X141710141Y-107608479D01*
X141710140Y-107608478D01*
X141710137Y-107608476D01*
X141660610Y-107579163D01*
X140455126Y-106022080D01*
X140452000Y-105982275D01*
X140452000Y-105565520D01*
X141034607Y-105565520D01*
X141034607Y-105834480D01*
X141087078Y-106098271D01*
X141190004Y-106346756D01*
X141339430Y-106570388D01*
X141529612Y-106760570D01*
X141753244Y-106909996D01*
X142001729Y-107012922D01*
X142265520Y-107065393D01*
X142534480Y-107065393D01*
X142798271Y-107012922D01*
X143046756Y-106909996D01*
X143270388Y-106760570D01*
X143460570Y-106570388D01*
X143609996Y-106346756D01*
X143712922Y-106098271D01*
X143765393Y-105834480D01*
X143765393Y-105565520D01*
X143712922Y-105301729D01*
X143609996Y-105053244D01*
X143460570Y-104829612D01*
X143270388Y-104639430D01*
X143046756Y-104490004D01*
X142798271Y-104387078D01*
X142534480Y-104334607D01*
X142265520Y-104334607D01*
X142001729Y-104387078D01*
X141753244Y-104490004D01*
X141529612Y-104639430D01*
X141339430Y-104829612D01*
X141190004Y-105053244D01*
X141087078Y-105301729D01*
X141034607Y-105565520D01*
X140452000Y-105565520D01*
X140452000Y-103444148D01*
X140541852Y-103530936D01*
X140716606Y-103643368D01*
X140909936Y-103719547D01*
X141073000Y-103593621D01*
X141073000Y-102827000D01*
X141327000Y-102827000D01*
X141327000Y-103593621D01*
X141490064Y-103719547D01*
X141683394Y-103643368D01*
X141858148Y-103530936D01*
X142007609Y-103386571D01*
X142126034Y-103215822D01*
X142208872Y-103025250D01*
X142219540Y-102990062D01*
X142092257Y-102827000D01*
X141327000Y-102827000D01*
X141073000Y-102827000D01*
X141053000Y-102827000D01*
X141053000Y-102573000D01*
X141073000Y-102573000D01*
X141073000Y-102553000D01*
X141327000Y-102553000D01*
X141327000Y-102573000D01*
X142092257Y-102573000D01*
X142219540Y-102409938D01*
X142208872Y-102374750D01*
X142126034Y-102184178D01*
X142007609Y-102013429D01*
X141996726Y-102002917D01*
X142019258Y-101948519D01*
X142052000Y-101783915D01*
X142052000Y-101616085D01*
X142019258Y-101451481D01*
X141982323Y-101362313D01*
X142021405Y-101289196D01*
X142045822Y-101208707D01*
X142054066Y-101125000D01*
X142054066Y-100493268D01*
X142058773Y-100495218D01*
X142218548Y-100527000D01*
X142381452Y-100527000D01*
X142541227Y-100495218D01*
X142691731Y-100432877D01*
X142827181Y-100342372D01*
X142942372Y-100227181D01*
X143032877Y-100091731D01*
X143095218Y-99941227D01*
X143127000Y-99781452D01*
X143127000Y-99618548D01*
X143095218Y-99458773D01*
X143032877Y-99308269D01*
X142977000Y-99224643D01*
X142977000Y-96169312D01*
X142998400Y-96167204D01*
X143126015Y-96128492D01*
X143243626Y-96065628D01*
X143346712Y-95981027D01*
X143367911Y-95955196D01*
X148655206Y-90667902D01*
X148681026Y-90646712D01*
X148702218Y-90620890D01*
X148702224Y-90620884D01*
X148765628Y-90543626D01*
X148828492Y-90426015D01*
X148867204Y-90298400D01*
X148880275Y-90165685D01*
X148877000Y-90132433D01*
X148877000Y-90110391D01*
X148932877Y-90026765D01*
X148995218Y-89876261D01*
X149027000Y-89716486D01*
X149027000Y-89553582D01*
X148995218Y-89393807D01*
X148932877Y-89243303D01*
X148842372Y-89107853D01*
X148727181Y-88992662D01*
X148591731Y-88902157D01*
X148441227Y-88839816D01*
X148281452Y-88808034D01*
X148118548Y-88808034D01*
X147958773Y-88839816D01*
X147808269Y-88902157D01*
X147672819Y-88992662D01*
X147557628Y-89107853D01*
X147467123Y-89243303D01*
X147404782Y-89393807D01*
X147373000Y-89553582D01*
X147373000Y-89716486D01*
X147404782Y-89876261D01*
X147442044Y-89966218D01*
X143861635Y-93546628D01*
X143812922Y-93301729D01*
X143709996Y-93053244D01*
X143560570Y-92829612D01*
X143370388Y-92639430D01*
X143146756Y-92490004D01*
X142898271Y-92387078D01*
X142634480Y-92334607D01*
X142365520Y-92334607D01*
X142101729Y-92387078D01*
X141853244Y-92490004D01*
X141629612Y-92639430D01*
X141439430Y-92829612D01*
X141290004Y-93053244D01*
X141187078Y-93301729D01*
X141134607Y-93565520D01*
X141134607Y-93834480D01*
X141187078Y-94098271D01*
X141290004Y-94346756D01*
X141439430Y-94570388D01*
X141629612Y-94760570D01*
X141773844Y-94856943D01*
X141772819Y-94857628D01*
X141657628Y-94972819D01*
X141567123Y-95108269D01*
X141504782Y-95258773D01*
X141473000Y-95418548D01*
X141473000Y-95581452D01*
X141485827Y-95645934D01*
X140775000Y-95645934D01*
X140691293Y-95654178D01*
X140610804Y-95678595D01*
X140536624Y-95718245D01*
X140471605Y-95771605D01*
X140452000Y-95795494D01*
X140452000Y-78024037D01*
X140475843Y-78091252D01*
X140624822Y-78341355D01*
X140819731Y-78557588D01*
X141053080Y-78731641D01*
X141281949Y-78840653D01*
X141215114Y-78868337D01*
X141005960Y-79008089D01*
X140828089Y-79185960D01*
X140688337Y-79395114D01*
X140592074Y-79627513D01*
X140543000Y-79874226D01*
X140543000Y-80125774D01*
X140592074Y-80372487D01*
X140688337Y-80604886D01*
X140828089Y-80814040D01*
X141005960Y-80991911D01*
X141215114Y-81131663D01*
X141447513Y-81227926D01*
X141694226Y-81277000D01*
X141945774Y-81277000D01*
X142192487Y-81227926D01*
X142424886Y-81131663D01*
X142634040Y-80991911D01*
X142811911Y-80814040D01*
X142951663Y-80604886D01*
X143047926Y-80372487D01*
X143090000Y-80160966D01*
X143132074Y-80372487D01*
X143228337Y-80604886D01*
X143368089Y-80814040D01*
X143545960Y-80991911D01*
X143748001Y-81126910D01*
X143748000Y-84071354D01*
X143146355Y-84673000D01*
X143018548Y-84673000D01*
X142858773Y-84704782D01*
X142708269Y-84767123D01*
X142572819Y-84857628D01*
X142457628Y-84972819D01*
X142367123Y-85108269D01*
X142304782Y-85258773D01*
X142273000Y-85418548D01*
X142273000Y-85581452D01*
X142304782Y-85741227D01*
X142367123Y-85891731D01*
X142457628Y-86027181D01*
X142572819Y-86142372D01*
X142708269Y-86232877D01*
X142858773Y-86295218D01*
X143018548Y-86327000D01*
X143181452Y-86327000D01*
X143341227Y-86295218D01*
X143491731Y-86232877D01*
X143627181Y-86142372D01*
X143742372Y-86027181D01*
X143832877Y-85891731D01*
X143895218Y-85741227D01*
X143927000Y-85581452D01*
X143927000Y-85453645D01*
X144671154Y-84709492D01*
X144692211Y-84692211D01*
X144745275Y-84627552D01*
X144761191Y-84608159D01*
X144812447Y-84512264D01*
X144812448Y-84512263D01*
X144844012Y-84408211D01*
X144852000Y-84327109D01*
X144852000Y-84327099D01*
X144854669Y-84300001D01*
X144852000Y-84272903D01*
X144852000Y-81272644D01*
X148948000Y-85368646D01*
X148948001Y-86682296D01*
X148945330Y-86709412D01*
X148955989Y-86817622D01*
X148987552Y-86921674D01*
X149038809Y-87017569D01*
X149038810Y-87017570D01*
X149107790Y-87101623D01*
X149128851Y-87118907D01*
X149640497Y-87630555D01*
X149648001Y-87639698D01*
X149648000Y-107482447D01*
X149557628Y-107572819D01*
X149467123Y-107708269D01*
X149404782Y-107858773D01*
X149373000Y-108018548D01*
X149373000Y-108181452D01*
X149404782Y-108341227D01*
X149467123Y-108491731D01*
X149557628Y-108627181D01*
X149672819Y-108742372D01*
X149808269Y-108832877D01*
X149958773Y-108895218D01*
X150118548Y-108927000D01*
X150281452Y-108927000D01*
X150441227Y-108895218D01*
X150591731Y-108832877D01*
X150727181Y-108742372D01*
X150842372Y-108627181D01*
X150873001Y-108581341D01*
X150873001Y-113997895D01*
X150870331Y-114025001D01*
X150873001Y-114052107D01*
X150873001Y-114052109D01*
X150880989Y-114133211D01*
X150912553Y-114237263D01*
X150963810Y-114333159D01*
X151032790Y-114417212D01*
X151053858Y-114434502D01*
X156148001Y-119528647D01*
X156148000Y-127047076D01*
X155987104Y-127133076D01*
X155792656Y-127292656D01*
X155633076Y-127487105D01*
X155514498Y-127708950D01*
X155441478Y-127949665D01*
X155423000Y-128137275D01*
X155423000Y-130062726D01*
X155441479Y-130250336D01*
X155514499Y-130491051D01*
X155633077Y-130712896D01*
X155792657Y-130907344D01*
X155987105Y-131066924D01*
X156208950Y-131185502D01*
X156449665Y-131258522D01*
X156700000Y-131283178D01*
X156950336Y-131258522D01*
X157191051Y-131185502D01*
X157412896Y-131066924D01*
X157607344Y-130907344D01*
X157766924Y-130712896D01*
X157885502Y-130491051D01*
X157958522Y-130250336D01*
X157977000Y-130062726D01*
X157977000Y-128137274D01*
X157958522Y-127949664D01*
X157885502Y-127708949D01*
X157766924Y-127487104D01*
X157607344Y-127292656D01*
X157412895Y-127133076D01*
X157252000Y-127047076D01*
X157252000Y-119327105D01*
X157254670Y-119299999D01*
X157247965Y-119231926D01*
X157244012Y-119191789D01*
X157212448Y-119087737D01*
X157161191Y-118991842D01*
X157092211Y-118907789D01*
X157071154Y-118890508D01*
X151977001Y-113796357D01*
X151977001Y-105565520D01*
X155634607Y-105565520D01*
X155634607Y-105834480D01*
X155687078Y-106098271D01*
X155790004Y-106346756D01*
X155939430Y-106570388D01*
X156129612Y-106760570D01*
X156353244Y-106909996D01*
X156601729Y-107012922D01*
X156865520Y-107065393D01*
X157134480Y-107065393D01*
X157398271Y-107012922D01*
X157646756Y-106909996D01*
X157870388Y-106760570D01*
X158060570Y-106570388D01*
X158209996Y-106346756D01*
X158312922Y-106098271D01*
X158365393Y-105834480D01*
X158365393Y-105565520D01*
X158312922Y-105301729D01*
X158209996Y-105053244D01*
X158060570Y-104829612D01*
X157870388Y-104639430D01*
X157646756Y-104490004D01*
X157398271Y-104387078D01*
X157134480Y-104334607D01*
X156865520Y-104334607D01*
X156601729Y-104387078D01*
X156353244Y-104490004D01*
X156129612Y-104639430D01*
X155939430Y-104829612D01*
X155790004Y-105053244D01*
X155687078Y-105301729D01*
X155634607Y-105565520D01*
X151977001Y-105565520D01*
X151977001Y-99330641D01*
X152186665Y-99120978D01*
X152257628Y-99227181D01*
X152372819Y-99342372D01*
X152508269Y-99432877D01*
X152658773Y-99495218D01*
X152818548Y-99527000D01*
X152981452Y-99527000D01*
X153141227Y-99495218D01*
X153291731Y-99432877D01*
X153427181Y-99342372D01*
X153542372Y-99227181D01*
X153632877Y-99091731D01*
X153695218Y-98941227D01*
X153727000Y-98781452D01*
X153727000Y-98653644D01*
X154196150Y-98184495D01*
X154217212Y-98167210D01*
X154286192Y-98083157D01*
X154337449Y-97987262D01*
X154369013Y-97883210D01*
X154377001Y-97802108D01*
X154377001Y-97802105D01*
X154379671Y-97774999D01*
X154377001Y-97747893D01*
X154377001Y-95379107D01*
X154379671Y-95351999D01*
X154369013Y-95243788D01*
X154337449Y-95139736D01*
X154286192Y-95043841D01*
X154234493Y-94980845D01*
X154234492Y-94980844D01*
X154217212Y-94959788D01*
X154196155Y-94942507D01*
X152325002Y-93071356D01*
X152325002Y-87744551D01*
X152342372Y-87727181D01*
X152432877Y-87591731D01*
X152495218Y-87441227D01*
X152527000Y-87281452D01*
X152527000Y-87118548D01*
X152495218Y-86958773D01*
X152432877Y-86808269D01*
X152342372Y-86672819D01*
X152227181Y-86557628D01*
X152091731Y-86467123D01*
X151941227Y-86404782D01*
X151781452Y-86373000D01*
X151618548Y-86373000D01*
X151458773Y-86404782D01*
X151308269Y-86467123D01*
X151172819Y-86557628D01*
X151057628Y-86672819D01*
X151052000Y-86681242D01*
X151052000Y-86417553D01*
X151142372Y-86327181D01*
X151232877Y-86191731D01*
X151295218Y-86041227D01*
X151327000Y-85881452D01*
X151327000Y-85718548D01*
X151295218Y-85558773D01*
X151232877Y-85408269D01*
X151142372Y-85272819D01*
X151027181Y-85157628D01*
X150891731Y-85067123D01*
X150741227Y-85004782D01*
X150581452Y-84973000D01*
X150418548Y-84973000D01*
X150258773Y-85004782D01*
X150108269Y-85067123D01*
X150051245Y-85105225D01*
X150044012Y-85031789D01*
X150012448Y-84927737D01*
X149961191Y-84831842D01*
X149909492Y-84768846D01*
X149909491Y-84768845D01*
X149892211Y-84747789D01*
X149871154Y-84730508D01*
X146419711Y-81279066D01*
X147750000Y-81279066D01*
X147833707Y-81270822D01*
X147914196Y-81246405D01*
X147988376Y-81206755D01*
X148053395Y-81153395D01*
X148106755Y-81088376D01*
X148146405Y-81014196D01*
X148170822Y-80933707D01*
X148179066Y-80850000D01*
X148179066Y-79696488D01*
X155423000Y-86940423D01*
X155423001Y-91242356D01*
X155409500Y-91228856D01*
X155392211Y-91207789D01*
X155308158Y-91138809D01*
X155212263Y-91087552D01*
X155108211Y-91055988D01*
X155027109Y-91048000D01*
X155027106Y-91048000D01*
X155000000Y-91045330D01*
X154972894Y-91048000D01*
X154517553Y-91048000D01*
X154427181Y-90957628D01*
X154291731Y-90867123D01*
X154141227Y-90804782D01*
X153981452Y-90773000D01*
X153818548Y-90773000D01*
X153658773Y-90804782D01*
X153508269Y-90867123D01*
X153372819Y-90957628D01*
X153257628Y-91072819D01*
X153167123Y-91208269D01*
X153104782Y-91358773D01*
X153073000Y-91518548D01*
X153073000Y-91681452D01*
X153104782Y-91841227D01*
X153167123Y-91991731D01*
X153257628Y-92127181D01*
X153372819Y-92242372D01*
X153508269Y-92332877D01*
X153658773Y-92395218D01*
X153818548Y-92427000D01*
X153981452Y-92427000D01*
X154141227Y-92395218D01*
X154291731Y-92332877D01*
X154427181Y-92242372D01*
X154517553Y-92152000D01*
X154771355Y-92152000D01*
X154823000Y-92203645D01*
X154822999Y-95047893D01*
X154820329Y-95074999D01*
X154822999Y-95102105D01*
X154822999Y-95102107D01*
X154830987Y-95183209D01*
X154862551Y-95287261D01*
X154913808Y-95383157D01*
X154982788Y-95467210D01*
X155003855Y-95484499D01*
X155273000Y-95753645D01*
X155273000Y-95881452D01*
X155304782Y-96041227D01*
X155367123Y-96191731D01*
X155457628Y-96327181D01*
X155572819Y-96442372D01*
X155708269Y-96532877D01*
X155858773Y-96595218D01*
X156018548Y-96627000D01*
X156181452Y-96627000D01*
X156341227Y-96595218D01*
X156491731Y-96532877D01*
X156627181Y-96442372D01*
X156742372Y-96327181D01*
X156832877Y-96191731D01*
X156895218Y-96041227D01*
X156927000Y-95881452D01*
X156927000Y-95718548D01*
X156895218Y-95558773D01*
X156832877Y-95408269D01*
X156742372Y-95272819D01*
X156719553Y-95250000D01*
X156742372Y-95227181D01*
X156832877Y-95091731D01*
X156895218Y-94941227D01*
X156927000Y-94781452D01*
X156927000Y-94618548D01*
X156895218Y-94458773D01*
X156832877Y-94308269D01*
X156777000Y-94224643D01*
X156777000Y-86693252D01*
X156780275Y-86660000D01*
X156767204Y-86527285D01*
X156728492Y-86399670D01*
X156665628Y-86282059D01*
X156602224Y-86204801D01*
X156602218Y-86204795D01*
X156581026Y-86178973D01*
X156555206Y-86157783D01*
X148144846Y-77747424D01*
X148177000Y-77585774D01*
X148177000Y-77334226D01*
X148127926Y-77087513D01*
X148031663Y-76855114D01*
X147891911Y-76645960D01*
X147714040Y-76468089D01*
X147504886Y-76328337D01*
X147272487Y-76232074D01*
X147025774Y-76183000D01*
X146774226Y-76183000D01*
X146527513Y-76232074D01*
X146295114Y-76328337D01*
X146085960Y-76468089D01*
X145908089Y-76645960D01*
X145768337Y-76855114D01*
X145672074Y-77087513D01*
X145630000Y-77299034D01*
X145587926Y-77087513D01*
X145491663Y-76855114D01*
X145351911Y-76645960D01*
X145174040Y-76468089D01*
X144964886Y-76328337D01*
X144732487Y-76232074D01*
X144485774Y-76183000D01*
X144234226Y-76183000D01*
X143987513Y-76232074D01*
X143755114Y-76328337D01*
X143545960Y-76468089D01*
X143368089Y-76645960D01*
X143228337Y-76855114D01*
X143198803Y-76926416D01*
X143164157Y-76828748D01*
X143015178Y-76578645D01*
X142820269Y-76362412D01*
X142586920Y-76188359D01*
X142324099Y-76063175D01*
X142280237Y-76049871D01*
X142442800Y-76049871D01*
X142722912Y-75994153D01*
X142986771Y-75884859D01*
X143224239Y-75726188D01*
X143426188Y-75524239D01*
X143584859Y-75286771D01*
X143694153Y-75022912D01*
X143749871Y-74742800D01*
X143749871Y-74457200D01*
X143694153Y-74177088D01*
X143584859Y-73913229D01*
X143426188Y-73675761D01*
X143224239Y-73473812D01*
X142986771Y-73315141D01*
X142722912Y-73205847D01*
X142442800Y-73150129D01*
X142157200Y-73150129D01*
X141877088Y-73205847D01*
X141613229Y-73315141D01*
X141375761Y-73473812D01*
X141173812Y-73675761D01*
X141015141Y-73913229D01*
X140905847Y-74177088D01*
X140850129Y-74457200D01*
X140850129Y-74742800D01*
X140905847Y-75022912D01*
X141015141Y-75286771D01*
X141173812Y-75524239D01*
X141375761Y-75726188D01*
X141613229Y-75884859D01*
X141877088Y-75994153D01*
X142128361Y-76044135D01*
X141947000Y-76139845D01*
X141947000Y-77333000D01*
X141967000Y-77333000D01*
X141967000Y-77587000D01*
X141947000Y-77587000D01*
X141947000Y-77607000D01*
X141693000Y-77607000D01*
X141693000Y-77587000D01*
X141673000Y-77587000D01*
X141673000Y-77333000D01*
X141693000Y-77333000D01*
X141693000Y-76139845D01*
X141463110Y-76018524D01*
X141315901Y-76063175D01*
X141053080Y-76188359D01*
X140819731Y-76362412D01*
X140624822Y-76578645D01*
X140475843Y-76828748D01*
X140452000Y-76895963D01*
X140452000Y-72952000D01*
X158848000Y-72952000D01*
X158848001Y-105913359D01*
G36*
X141327000Y-98373000D02*
G01*
X141347000Y-98373000D01*
X141347000Y-98627000D01*
X141327000Y-98627000D01*
X141327000Y-99393621D01*
X141490064Y-99519547D01*
X141492917Y-99518423D01*
X141473000Y-99618548D01*
X141473000Y-99781452D01*
X141485827Y-99845934D01*
X140775000Y-99845934D01*
X140691293Y-99854178D01*
X140610804Y-99878595D01*
X140536624Y-99918245D01*
X140471605Y-99971605D01*
X140452000Y-99995494D01*
X140452000Y-99244148D01*
X140541852Y-99330936D01*
X140716606Y-99443368D01*
X140909936Y-99519547D01*
X141073000Y-99393621D01*
X141073000Y-98627000D01*
X141053000Y-98627000D01*
X141053000Y-98373000D01*
X141073000Y-98373000D01*
X141073000Y-98353000D01*
X141327000Y-98353000D01*
X141327000Y-98373000D01*
G37*
X141327000Y-98373000D02*
X141347000Y-98373000D01*
X141347000Y-98627000D01*
X141327000Y-98627000D01*
X141327000Y-99393621D01*
X141490064Y-99519547D01*
X141492917Y-99518423D01*
X141473000Y-99618548D01*
X141473000Y-99781452D01*
X141485827Y-99845934D01*
X140775000Y-99845934D01*
X140691293Y-99854178D01*
X140610804Y-99878595D01*
X140536624Y-99918245D01*
X140471605Y-99971605D01*
X140452000Y-99995494D01*
X140452000Y-99244148D01*
X140541852Y-99330936D01*
X140716606Y-99443368D01*
X140909936Y-99519547D01*
X141073000Y-99393621D01*
X141073000Y-98627000D01*
X141053000Y-98627000D01*
X141053000Y-98373000D01*
X141073000Y-98373000D01*
X141073000Y-98353000D01*
X141327000Y-98353000D01*
X141327000Y-98373000D01*
%TD*%
M02*
