%TF.GenerationSoftware,KiCad,Pcbnew,(5.1.6)-1*%
%TF.CreationDate,2021-10-03T16:09:20-04:00*%
%TF.ProjectId,horny_dom,686f726e-795f-4646-9f6d-2e6b69636164,rev?*%
%TF.SameCoordinates,Original*%
%TF.FileFunction,Soldermask,Top*%
%TF.FilePolarity,Negative*%
%FSLAX46Y46*%
G04 Gerber Fmt 4.6, Leading zero omitted, Abs format (unit mm)*
G04 Created by KiCad (PCBNEW (5.1.6)-1) date 2021-10-03 16:09:20*
%MOMM*%
%LPD*%
G01*
G04 APERTURE LIST*
%ADD10O,1.800000X1.800000*%
%ADD11R,1.800000X1.800000*%
%ADD12R,1.300000X0.900000*%
%ADD13R,1.800000X0.750000*%
%ADD14R,0.750000X1.160000*%
%ADD15O,1.800000X3.600000*%
%ADD16C,0.100000*%
%ADD17O,0.950000X0.950000*%
%ADD18R,0.950000X0.950000*%
%ADD19C,0.700000*%
%ADD20O,1.800000X1.300000*%
%ADD21R,0.370000X1.400000*%
G04 APERTURE END LIST*
D10*
%TO.C,Batt*%
X141820000Y-77460000D03*
X141820000Y-80000000D03*
X144360000Y-77460000D03*
X144360000Y-80000000D03*
X146900000Y-77460000D03*
D11*
X146900000Y-80000000D03*
%TD*%
D12*
%TO.C,U3*%
X158200000Y-85470000D03*
X152200000Y-85470000D03*
X152200000Y-82930000D03*
X158200000Y-82930000D03*
%TD*%
D13*
%TO.C,Tiny85*%
X141550000Y-86705000D03*
X141550000Y-85435000D03*
X141550000Y-84165000D03*
X141550000Y-82895000D03*
X148850000Y-82895000D03*
X148850000Y-84165000D03*
X148850000Y-85435000D03*
X148850000Y-86705000D03*
%TD*%
D14*
%TO.C,U1*%
X158050000Y-100200000D03*
X156150000Y-100200000D03*
X156150000Y-98000000D03*
X157100000Y-98000000D03*
X158050000Y-98000000D03*
%TD*%
D15*
%TO.C,SW1*%
X142700000Y-129100000D03*
X156700000Y-129100000D03*
%TD*%
%TO.C,R8*%
G36*
G01*
X149175000Y-95542544D02*
X149175000Y-96857456D01*
G75*
G02*
X148907456Y-97125000I-267544J0D01*
G01*
X147917544Y-97125000D01*
G75*
G02*
X147650000Y-96857456I0J267544D01*
G01*
X147650000Y-95542544D01*
G75*
G02*
X147917544Y-95275000I267544J0D01*
G01*
X148907456Y-95275000D01*
G75*
G02*
X149175000Y-95542544I0J-267544D01*
G01*
G37*
G36*
G01*
X152150000Y-95542544D02*
X152150000Y-96857456D01*
G75*
G02*
X151882456Y-97125000I-267544J0D01*
G01*
X150892544Y-97125000D01*
G75*
G02*
X150625000Y-96857456I0J267544D01*
G01*
X150625000Y-95542544D01*
G75*
G02*
X150892544Y-95275000I267544J0D01*
G01*
X151882456Y-95275000D01*
G75*
G02*
X152150000Y-95542544I0J-267544D01*
G01*
G37*
%TD*%
%TO.C,R7*%
G36*
G01*
X148042544Y-100625000D02*
X149357456Y-100625000D01*
G75*
G02*
X149625000Y-100892544I0J-267544D01*
G01*
X149625000Y-101882456D01*
G75*
G02*
X149357456Y-102150000I-267544J0D01*
G01*
X148042544Y-102150000D01*
G75*
G02*
X147775000Y-101882456I0J267544D01*
G01*
X147775000Y-100892544D01*
G75*
G02*
X148042544Y-100625000I267544J0D01*
G01*
G37*
G36*
G01*
X148042544Y-97650000D02*
X149357456Y-97650000D01*
G75*
G02*
X149625000Y-97917544I0J-267544D01*
G01*
X149625000Y-98907456D01*
G75*
G02*
X149357456Y-99175000I-267544J0D01*
G01*
X148042544Y-99175000D01*
G75*
G02*
X147775000Y-98907456I0J267544D01*
G01*
X147775000Y-97917544D01*
G75*
G02*
X148042544Y-97650000I267544J0D01*
G01*
G37*
%TD*%
%TO.C,R6*%
G36*
G01*
X150542544Y-100625000D02*
X151857456Y-100625000D01*
G75*
G02*
X152125000Y-100892544I0J-267544D01*
G01*
X152125000Y-101882456D01*
G75*
G02*
X151857456Y-102150000I-267544J0D01*
G01*
X150542544Y-102150000D01*
G75*
G02*
X150275000Y-101882456I0J267544D01*
G01*
X150275000Y-100892544D01*
G75*
G02*
X150542544Y-100625000I267544J0D01*
G01*
G37*
G36*
G01*
X150542544Y-97650000D02*
X151857456Y-97650000D01*
G75*
G02*
X152125000Y-97917544I0J-267544D01*
G01*
X152125000Y-98907456D01*
G75*
G02*
X151857456Y-99175000I-267544J0D01*
G01*
X150542544Y-99175000D01*
G75*
G02*
X150275000Y-98907456I0J267544D01*
G01*
X150275000Y-97917544D01*
G75*
G02*
X150542544Y-97650000I267544J0D01*
G01*
G37*
%TD*%
%TO.C,R5*%
G36*
G01*
X144757456Y-89575000D02*
X143442544Y-89575000D01*
G75*
G02*
X143175000Y-89307456I0J267544D01*
G01*
X143175000Y-88317544D01*
G75*
G02*
X143442544Y-88050000I267544J0D01*
G01*
X144757456Y-88050000D01*
G75*
G02*
X145025000Y-88317544I0J-267544D01*
G01*
X145025000Y-89307456D01*
G75*
G02*
X144757456Y-89575000I-267544J0D01*
G01*
G37*
G36*
G01*
X144757456Y-92550000D02*
X143442544Y-92550000D01*
G75*
G02*
X143175000Y-92282456I0J267544D01*
G01*
X143175000Y-91292544D01*
G75*
G02*
X143442544Y-91025000I267544J0D01*
G01*
X144757456Y-91025000D01*
G75*
G02*
X145025000Y-91292544I0J-267544D01*
G01*
X145025000Y-92282456D01*
G75*
G02*
X144757456Y-92550000I-267544J0D01*
G01*
G37*
%TD*%
%TO.C,R4*%
G36*
G01*
X140942544Y-91025000D02*
X142257456Y-91025000D01*
G75*
G02*
X142525000Y-91292544I0J-267544D01*
G01*
X142525000Y-92282456D01*
G75*
G02*
X142257456Y-92550000I-267544J0D01*
G01*
X140942544Y-92550000D01*
G75*
G02*
X140675000Y-92282456I0J267544D01*
G01*
X140675000Y-91292544D01*
G75*
G02*
X140942544Y-91025000I267544J0D01*
G01*
G37*
G36*
G01*
X140942544Y-88050000D02*
X142257456Y-88050000D01*
G75*
G02*
X142525000Y-88317544I0J-267544D01*
G01*
X142525000Y-89307456D01*
G75*
G02*
X142257456Y-89575000I-267544J0D01*
G01*
X140942544Y-89575000D01*
G75*
G02*
X140675000Y-89307456I0J267544D01*
G01*
X140675000Y-88317544D01*
G75*
G02*
X140942544Y-88050000I267544J0D01*
G01*
G37*
%TD*%
%TO.C,R3*%
G36*
G01*
X153275000Y-92142544D02*
X153275000Y-93457456D01*
G75*
G02*
X153007456Y-93725000I-267544J0D01*
G01*
X152017544Y-93725000D01*
G75*
G02*
X151750000Y-93457456I0J267544D01*
G01*
X151750000Y-92142544D01*
G75*
G02*
X152017544Y-91875000I267544J0D01*
G01*
X153007456Y-91875000D01*
G75*
G02*
X153275000Y-92142544I0J-267544D01*
G01*
G37*
G36*
G01*
X156250000Y-92142544D02*
X156250000Y-93457456D01*
G75*
G02*
X155982456Y-93725000I-267544J0D01*
G01*
X154992544Y-93725000D01*
G75*
G02*
X154725000Y-93457456I0J267544D01*
G01*
X154725000Y-92142544D01*
G75*
G02*
X154992544Y-91875000I267544J0D01*
G01*
X155982456Y-91875000D01*
G75*
G02*
X156250000Y-92142544I0J-267544D01*
G01*
G37*
%TD*%
%TO.C,R2*%
G36*
G01*
X154725000Y-90957456D02*
X154725000Y-89642544D01*
G75*
G02*
X154992544Y-89375000I267544J0D01*
G01*
X155982456Y-89375000D01*
G75*
G02*
X156250000Y-89642544I0J-267544D01*
G01*
X156250000Y-90957456D01*
G75*
G02*
X155982456Y-91225000I-267544J0D01*
G01*
X154992544Y-91225000D01*
G75*
G02*
X154725000Y-90957456I0J267544D01*
G01*
G37*
G36*
G01*
X151750000Y-90957456D02*
X151750000Y-89642544D01*
G75*
G02*
X152017544Y-89375000I267544J0D01*
G01*
X153007456Y-89375000D01*
G75*
G02*
X153275000Y-89642544I0J-267544D01*
G01*
X153275000Y-90957456D01*
G75*
G02*
X153007456Y-91225000I-267544J0D01*
G01*
X152017544Y-91225000D01*
G75*
G02*
X151750000Y-90957456I0J267544D01*
G01*
G37*
%TD*%
%TO.C,R1*%
G36*
G01*
X157125000Y-103157456D02*
X157125000Y-101842544D01*
G75*
G02*
X157392544Y-101575000I267544J0D01*
G01*
X158382456Y-101575000D01*
G75*
G02*
X158650000Y-101842544I0J-267544D01*
G01*
X158650000Y-103157456D01*
G75*
G02*
X158382456Y-103425000I-267544J0D01*
G01*
X157392544Y-103425000D01*
G75*
G02*
X157125000Y-103157456I0J267544D01*
G01*
G37*
G36*
G01*
X154150000Y-103157456D02*
X154150000Y-101842544D01*
G75*
G02*
X154417544Y-101575000I267544J0D01*
G01*
X155407456Y-101575000D01*
G75*
G02*
X155675000Y-101842544I0J-267544D01*
G01*
X155675000Y-103157456D01*
G75*
G02*
X155407456Y-103425000I-267544J0D01*
G01*
X154417544Y-103425000D01*
G75*
G02*
X154150000Y-103157456I0J267544D01*
G01*
G37*
%TD*%
D16*
%TO.C,JP1*%
G36*
X149915245Y-116899039D02*
G01*
X149905866Y-116896194D01*
X149897221Y-116891573D01*
X149889645Y-116885355D01*
X149883397Y-116877735D01*
X149383397Y-116127735D01*
X149378786Y-116119086D01*
X149375951Y-116109703D01*
X149375000Y-116099948D01*
X149375971Y-116090194D01*
X149378826Y-116080818D01*
X149383397Y-116072265D01*
X149883397Y-115322265D01*
X149889608Y-115314682D01*
X149897178Y-115308456D01*
X149905818Y-115303826D01*
X149915194Y-115300971D01*
X149925000Y-115300000D01*
X150925000Y-115300000D01*
X150934755Y-115300961D01*
X150944134Y-115303806D01*
X150952779Y-115308427D01*
X150960355Y-115314645D01*
X150966573Y-115322221D01*
X150971194Y-115330866D01*
X150974039Y-115340245D01*
X150975000Y-115350000D01*
X150975000Y-116850000D01*
X150974039Y-116859755D01*
X150971194Y-116869134D01*
X150966573Y-116877779D01*
X150960355Y-116885355D01*
X150952779Y-116891573D01*
X150944134Y-116896194D01*
X150934755Y-116899039D01*
X150925000Y-116900000D01*
X149925000Y-116900000D01*
X149915245Y-116899039D01*
G37*
G36*
X148465245Y-116899039D02*
G01*
X148455866Y-116896194D01*
X148447221Y-116891573D01*
X148439645Y-116885355D01*
X148433427Y-116877779D01*
X148428806Y-116869134D01*
X148425961Y-116859755D01*
X148425000Y-116850000D01*
X148425000Y-115350000D01*
X148425961Y-115340245D01*
X148428806Y-115330866D01*
X148433427Y-115322221D01*
X148439645Y-115314645D01*
X148447221Y-115308427D01*
X148455866Y-115303806D01*
X148465245Y-115300961D01*
X148475000Y-115300000D01*
X149625000Y-115300000D01*
X149634755Y-115300961D01*
X149644134Y-115303806D01*
X149652779Y-115308427D01*
X149660355Y-115314645D01*
X149666573Y-115322221D01*
X149671194Y-115330866D01*
X149674039Y-115340245D01*
X149675000Y-115350000D01*
X149674039Y-115359755D01*
X149671194Y-115369134D01*
X149666603Y-115377735D01*
X149185093Y-116100000D01*
X149666603Y-116822265D01*
X149671214Y-116830914D01*
X149674049Y-116840297D01*
X149675000Y-116850052D01*
X149674029Y-116859806D01*
X149671174Y-116869182D01*
X149666544Y-116877822D01*
X149660318Y-116885392D01*
X149652735Y-116891603D01*
X149644086Y-116896214D01*
X149634703Y-116899049D01*
X149625000Y-116900000D01*
X148475000Y-116900000D01*
X148465245Y-116899039D01*
G37*
%TD*%
D17*
%TO.C,LED*%
X141200000Y-102700000D03*
X141200000Y-101700000D03*
D18*
X141200000Y-100700000D03*
%TD*%
D17*
%TO.C,LED*%
X141200000Y-98500000D03*
X141200000Y-97500000D03*
D18*
X141200000Y-96500000D03*
%TD*%
D19*
%TO.C,J1*%
X155200000Y-120200000D03*
D20*
X153800000Y-122970000D03*
X153800000Y-120030000D03*
X145600000Y-122970000D03*
D21*
X146950000Y-123250000D03*
X147450000Y-123250000D03*
X147950000Y-123250000D03*
X148450000Y-123250000D03*
X148950000Y-123250000D03*
X149450000Y-123250000D03*
X149950000Y-123250000D03*
X150450000Y-123250000D03*
X150950000Y-123250000D03*
X151450000Y-123250000D03*
X151950000Y-123250000D03*
D19*
X144200000Y-120200000D03*
D21*
X152450000Y-123250000D03*
X151950000Y-119750000D03*
X150450000Y-119750000D03*
X150950000Y-119750000D03*
X151450000Y-119750000D03*
X152450000Y-119750000D03*
X149950000Y-119750000D03*
X149450000Y-119750000D03*
X148950000Y-119750000D03*
X148450000Y-119750000D03*
X147950000Y-119750000D03*
X147450000Y-119750000D03*
X146950000Y-119750000D03*
D20*
X145600000Y-120030000D03*
%TD*%
%TO.C,D5*%
G36*
G01*
X149242544Y-92225000D02*
X150557456Y-92225000D01*
G75*
G02*
X150825000Y-92492544I0J-267544D01*
G01*
X150825000Y-93482456D01*
G75*
G02*
X150557456Y-93750000I-267544J0D01*
G01*
X149242544Y-93750000D01*
G75*
G02*
X148975000Y-93482456I0J267544D01*
G01*
X148975000Y-92492544D01*
G75*
G02*
X149242544Y-92225000I267544J0D01*
G01*
G37*
G36*
G01*
X149242544Y-89250000D02*
X150557456Y-89250000D01*
G75*
G02*
X150825000Y-89517544I0J-267544D01*
G01*
X150825000Y-90507456D01*
G75*
G02*
X150557456Y-90775000I-267544J0D01*
G01*
X149242544Y-90775000D01*
G75*
G02*
X148975000Y-90507456I0J267544D01*
G01*
X148975000Y-89517544D01*
G75*
G02*
X149242544Y-89250000I267544J0D01*
G01*
G37*
%TD*%
%TO.C,D4*%
G36*
G01*
X148142544Y-105725000D02*
X149457456Y-105725000D01*
G75*
G02*
X149725000Y-105992544I0J-267544D01*
G01*
X149725000Y-106982456D01*
G75*
G02*
X149457456Y-107250000I-267544J0D01*
G01*
X148142544Y-107250000D01*
G75*
G02*
X147875000Y-106982456I0J267544D01*
G01*
X147875000Y-105992544D01*
G75*
G02*
X148142544Y-105725000I267544J0D01*
G01*
G37*
G36*
G01*
X148142544Y-102750000D02*
X149457456Y-102750000D01*
G75*
G02*
X149725000Y-103017544I0J-267544D01*
G01*
X149725000Y-104007456D01*
G75*
G02*
X149457456Y-104275000I-267544J0D01*
G01*
X148142544Y-104275000D01*
G75*
G02*
X147875000Y-104007456I0J267544D01*
G01*
X147875000Y-103017544D01*
G75*
G02*
X148142544Y-102750000I267544J0D01*
G01*
G37*
%TD*%
%TO.C,D3*%
G36*
G01*
X150542544Y-105725000D02*
X151857456Y-105725000D01*
G75*
G02*
X152125000Y-105992544I0J-267544D01*
G01*
X152125000Y-106982456D01*
G75*
G02*
X151857456Y-107250000I-267544J0D01*
G01*
X150542544Y-107250000D01*
G75*
G02*
X150275000Y-106982456I0J267544D01*
G01*
X150275000Y-105992544D01*
G75*
G02*
X150542544Y-105725000I267544J0D01*
G01*
G37*
G36*
G01*
X150542544Y-102750000D02*
X151857456Y-102750000D01*
G75*
G02*
X152125000Y-103017544I0J-267544D01*
G01*
X152125000Y-104007456D01*
G75*
G02*
X151857456Y-104275000I-267544J0D01*
G01*
X150542544Y-104275000D01*
G75*
G02*
X150275000Y-104007456I0J267544D01*
G01*
X150275000Y-103017544D01*
G75*
G02*
X150542544Y-102750000I267544J0D01*
G01*
G37*
%TD*%
%TO.C,D2*%
G36*
G01*
X157142544Y-95325000D02*
X158457456Y-95325000D01*
G75*
G02*
X158725000Y-95592544I0J-267544D01*
G01*
X158725000Y-96582456D01*
G75*
G02*
X158457456Y-96850000I-267544J0D01*
G01*
X157142544Y-96850000D01*
G75*
G02*
X156875000Y-96582456I0J267544D01*
G01*
X156875000Y-95592544D01*
G75*
G02*
X157142544Y-95325000I267544J0D01*
G01*
G37*
G36*
G01*
X157142544Y-92350000D02*
X158457456Y-92350000D01*
G75*
G02*
X158725000Y-92617544I0J-267544D01*
G01*
X158725000Y-93607456D01*
G75*
G02*
X158457456Y-93875000I-267544J0D01*
G01*
X157142544Y-93875000D01*
G75*
G02*
X156875000Y-93607456I0J267544D01*
G01*
X156875000Y-92617544D01*
G75*
G02*
X157142544Y-92350000I267544J0D01*
G01*
G37*
%TD*%
%TO.C,D1*%
G36*
G01*
X157142544Y-90125000D02*
X158457456Y-90125000D01*
G75*
G02*
X158725000Y-90392544I0J-267544D01*
G01*
X158725000Y-91382456D01*
G75*
G02*
X158457456Y-91650000I-267544J0D01*
G01*
X157142544Y-91650000D01*
G75*
G02*
X156875000Y-91382456I0J267544D01*
G01*
X156875000Y-90392544D01*
G75*
G02*
X157142544Y-90125000I267544J0D01*
G01*
G37*
G36*
G01*
X157142544Y-87150000D02*
X158457456Y-87150000D01*
G75*
G02*
X158725000Y-87417544I0J-267544D01*
G01*
X158725000Y-88407456D01*
G75*
G02*
X158457456Y-88675000I-267544J0D01*
G01*
X157142544Y-88675000D01*
G75*
G02*
X156875000Y-88407456I0J267544D01*
G01*
X156875000Y-87417544D01*
G75*
G02*
X157142544Y-87150000I267544J0D01*
G01*
G37*
%TD*%
%TO.C,C5*%
G36*
G01*
X143142544Y-102825000D02*
X144457456Y-102825000D01*
G75*
G02*
X144725000Y-103092544I0J-267544D01*
G01*
X144725000Y-104082456D01*
G75*
G02*
X144457456Y-104350000I-267544J0D01*
G01*
X143142544Y-104350000D01*
G75*
G02*
X142875000Y-104082456I0J267544D01*
G01*
X142875000Y-103092544D01*
G75*
G02*
X143142544Y-102825000I267544J0D01*
G01*
G37*
G36*
G01*
X143142544Y-99850000D02*
X144457456Y-99850000D01*
G75*
G02*
X144725000Y-100117544I0J-267544D01*
G01*
X144725000Y-101107456D01*
G75*
G02*
X144457456Y-101375000I-267544J0D01*
G01*
X143142544Y-101375000D01*
G75*
G02*
X142875000Y-101107456I0J267544D01*
G01*
X142875000Y-100117544D01*
G75*
G02*
X143142544Y-99850000I267544J0D01*
G01*
G37*
%TD*%
%TO.C,C4*%
G36*
G01*
X143142544Y-97925000D02*
X144457456Y-97925000D01*
G75*
G02*
X144725000Y-98192544I0J-267544D01*
G01*
X144725000Y-99182456D01*
G75*
G02*
X144457456Y-99450000I-267544J0D01*
G01*
X143142544Y-99450000D01*
G75*
G02*
X142875000Y-99182456I0J267544D01*
G01*
X142875000Y-98192544D01*
G75*
G02*
X143142544Y-97925000I267544J0D01*
G01*
G37*
G36*
G01*
X143142544Y-94950000D02*
X144457456Y-94950000D01*
G75*
G02*
X144725000Y-95217544I0J-267544D01*
G01*
X144725000Y-96207456D01*
G75*
G02*
X144457456Y-96475000I-267544J0D01*
G01*
X143142544Y-96475000D01*
G75*
G02*
X142875000Y-96207456I0J267544D01*
G01*
X142875000Y-95217544D01*
G75*
G02*
X143142544Y-94950000I267544J0D01*
G01*
G37*
%TD*%
%TO.C,C3*%
G36*
G01*
X147157456Y-89575000D02*
X145842544Y-89575000D01*
G75*
G02*
X145575000Y-89307456I0J267544D01*
G01*
X145575000Y-88317544D01*
G75*
G02*
X145842544Y-88050000I267544J0D01*
G01*
X147157456Y-88050000D01*
G75*
G02*
X147425000Y-88317544I0J-267544D01*
G01*
X147425000Y-89307456D01*
G75*
G02*
X147157456Y-89575000I-267544J0D01*
G01*
G37*
G36*
G01*
X147157456Y-92550000D02*
X145842544Y-92550000D01*
G75*
G02*
X145575000Y-92282456I0J267544D01*
G01*
X145575000Y-91292544D01*
G75*
G02*
X145842544Y-91025000I267544J0D01*
G01*
X147157456Y-91025000D01*
G75*
G02*
X147425000Y-91292544I0J-267544D01*
G01*
X147425000Y-92282456D01*
G75*
G02*
X147157456Y-92550000I-267544J0D01*
G01*
G37*
%TD*%
%TO.C,C2*%
G36*
G01*
X153242544Y-99325000D02*
X154557456Y-99325000D01*
G75*
G02*
X154825000Y-99592544I0J-267544D01*
G01*
X154825000Y-100582456D01*
G75*
G02*
X154557456Y-100850000I-267544J0D01*
G01*
X153242544Y-100850000D01*
G75*
G02*
X152975000Y-100582456I0J267544D01*
G01*
X152975000Y-99592544D01*
G75*
G02*
X153242544Y-99325000I267544J0D01*
G01*
G37*
G36*
G01*
X153242544Y-96350000D02*
X154557456Y-96350000D01*
G75*
G02*
X154825000Y-96617544I0J-267544D01*
G01*
X154825000Y-97607456D01*
G75*
G02*
X154557456Y-97875000I-267544J0D01*
G01*
X153242544Y-97875000D01*
G75*
G02*
X152975000Y-97607456I0J267544D01*
G01*
X152975000Y-96617544D01*
G75*
G02*
X153242544Y-96350000I267544J0D01*
G01*
G37*
%TD*%
%TO.C,C1*%
G36*
G01*
X145875000Y-73442544D02*
X145875000Y-74757456D01*
G75*
G02*
X145607456Y-75025000I-267544J0D01*
G01*
X144617544Y-75025000D01*
G75*
G02*
X144350000Y-74757456I0J267544D01*
G01*
X144350000Y-73442544D01*
G75*
G02*
X144617544Y-73175000I267544J0D01*
G01*
X145607456Y-73175000D01*
G75*
G02*
X145875000Y-73442544I0J-267544D01*
G01*
G37*
G36*
G01*
X148850000Y-73442544D02*
X148850000Y-74757456D01*
G75*
G02*
X148582456Y-75025000I-267544J0D01*
G01*
X147592544Y-75025000D01*
G75*
G02*
X147325000Y-74757456I0J267544D01*
G01*
X147325000Y-73442544D01*
G75*
G02*
X147592544Y-73175000I267544J0D01*
G01*
X148582456Y-73175000D01*
G75*
G02*
X148850000Y-73442544I0J-267544D01*
G01*
G37*
%TD*%
%TO.C,BT1*%
G36*
G01*
X158583333Y-74550000D02*
X155616667Y-74550000D01*
G75*
G02*
X155350000Y-74283333I0J266667D01*
G01*
X155350000Y-73216667D01*
G75*
G02*
X155616667Y-72950000I266667J0D01*
G01*
X158583333Y-72950000D01*
G75*
G02*
X158850000Y-73216667I0J-266667D01*
G01*
X158850000Y-74283333D01*
G75*
G02*
X158583333Y-74550000I-266667J0D01*
G01*
G37*
G36*
G01*
X158583333Y-81250000D02*
X155616667Y-81250000D01*
G75*
G02*
X155350000Y-80983333I0J266667D01*
G01*
X155350000Y-79916667D01*
G75*
G02*
X155616667Y-79650000I266667J0D01*
G01*
X158583333Y-79650000D01*
G75*
G02*
X158850000Y-79916667I0J-266667D01*
G01*
X158850000Y-80983333D01*
G75*
G02*
X158583333Y-81250000I-266667J0D01*
G01*
G37*
G36*
G01*
X152875000Y-76650000D02*
X149825000Y-76650000D01*
G75*
G02*
X149550000Y-76375000I0J275000D01*
G01*
X149550000Y-75825000D01*
G75*
G02*
X149825000Y-75550000I275000J0D01*
G01*
X152875000Y-75550000D01*
G75*
G02*
X153150000Y-75825000I0J-275000D01*
G01*
X153150000Y-76375000D01*
G75*
G02*
X152875000Y-76650000I-275000J0D01*
G01*
G37*
G36*
G01*
X152875000Y-78650000D02*
X149825000Y-78650000D01*
G75*
G02*
X149550000Y-78375000I0J275000D01*
G01*
X149550000Y-77825000D01*
G75*
G02*
X149825000Y-77550000I275000J0D01*
G01*
X152875000Y-77550000D01*
G75*
G02*
X153150000Y-77825000I0J-275000D01*
G01*
X153150000Y-78375000D01*
G75*
G02*
X152875000Y-78650000I-275000J0D01*
G01*
G37*
%TD*%
M02*
